<svg width="31" height="26" viewBox="0 0 31 26" fill="none" xmlns="http://www.w3.org/2000/svg">
<path d="M20.0208 5.07317C21.4417 5.07317 22.6042 3.93171 22.6042 2.53659C22.6042 1.14146 21.4417 0 20.0208 0C18.6 0 17.4375 1.14146 17.4375 2.53659C17.4375 3.93171 18.6 5.07317 20.0208 5.07317ZM6.45833 13.3171C2.84167 13.3171 0 16.1073 0 19.6585C0 23.2098 2.84167 26 6.45833 26C10.075 26 12.9167 23.2098 12.9167 19.6585C12.9167 16.1073 10.075 13.3171 6.45833 13.3171ZM6.45833 24.0976C4.00417 24.0976 1.9375 22.0683 1.9375 19.6585C1.9375 17.2488 4.00417 15.2195 6.45833 15.2195C8.9125 15.2195 10.9792 17.2488 10.9792 19.6585C10.9792 22.0683 8.9125 24.0976 6.45833 24.0976ZM13.95 11.4146L17.05 8.37073L18.0833 9.38537C19.7625 11.0341 21.9583 12.0488 24.6708 12.0488V9.51219C22.7333 9.51219 21.1833 8.75122 20.0208 7.60976L17.5667 5.2C16.9208 4.69268 16.275 4.43902 15.5 4.43902C14.725 4.43902 14.0792 4.69268 13.6917 5.2L10.075 8.75122C9.55833 9.25854 9.3 9.89268 9.3 10.5268C9.3 11.2878 9.55833 11.922 10.075 12.3024L14.2083 15.8537V22.1951H16.7917V14.3317L13.95 11.4146ZM24.5417 13.3171C20.925 13.3171 18.0833 16.1073 18.0833 19.6585C18.0833 23.2098 20.925 26 24.5417 26C28.1583 26 31 23.2098 31 19.6585C31 16.1073 28.1583 13.3171 24.5417 13.3171ZM24.5417 24.0976C22.0875 24.0976 20.0208 22.0683 20.0208 19.6585C20.0208 17.2488 22.0875 15.2195 24.5417 15.2195C26.9958 15.2195 29.0625 17.2488 29.0625 19.6585C29.0625 22.0683 26.9958 24.0976 24.5417 24.0976Z" fill="#094067"/>
</svg>