<svg width="379" height="208" viewBox="0 0 379 208" fill="none" xmlns="http://www.w3.org/2000/svg">
<path d="M7.04004 110H4.5V100.209L1.46777 101.149V99.084L6.76758 97.1855H7.04004V110ZM19.8193 104.709C19.8193 106.479 19.4531 107.832 18.7207 108.77C17.9883 109.707 16.916 110.176 15.5039 110.176C14.1094 110.176 13.043 109.716 12.3047 108.796C11.5664 107.876 11.1885 106.558 11.1709 104.841V102.485C11.1709 100.698 11.54 99.3418 12.2783 98.416C13.0225 97.4902 14.0918 97.0273 15.4863 97.0273C16.8809 97.0273 17.9473 97.4873 18.6855 98.4072C19.4238 99.3213 19.8018 100.637 19.8193 102.354V104.709ZM17.2793 102.125C17.2793 101.064 17.1328 100.294 16.8398 99.8135C16.5527 99.3271 16.1016 99.084 15.4863 99.084C14.8887 99.084 14.4463 99.3154 14.1592 99.7783C13.8779 100.235 13.7285 100.953 13.7109 101.932V105.043C13.7109 106.086 13.8516 106.862 14.1328 107.372C14.4199 107.876 14.877 108.128 15.5039 108.128C16.125 108.128 16.5732 107.885 16.8486 107.398C17.124 106.912 17.2676 106.168 17.2793 105.166V102.125ZM30.1553 104.709C30.1553 106.479 29.7891 107.832 29.0566 108.77C28.3242 109.707 27.252 110.176 25.8398 110.176C24.4453 110.176 23.3789 109.716 22.6406 108.796C21.9023 107.876 21.5244 106.558 21.5068 104.841V102.485C21.5068 100.698 21.876 99.3418 22.6143 98.416C23.3584 97.4902 24.4277 97.0273 25.8223 97.0273C27.2168 97.0273 28.2832 97.4873 29.0215 98.4072C29.7598 99.3213 30.1377 100.637 30.1553 102.354V104.709ZM27.6152 102.125C27.6152 101.064 27.4688 100.294 27.1758 99.8135C26.8887 99.3271 26.4375 99.084 25.8223 99.084C25.2246 99.084 24.7822 99.3154 24.4951 99.7783C24.2139 100.235 24.0645 100.953 24.0469 101.932V105.043C24.0469 106.086 24.1875 106.862 24.4688 107.372C24.7559 107.876 25.2129 108.128 25.8398 108.128C26.4609 108.128 26.9092 107.885 27.1846 107.398C27.46 106.912 27.6035 106.168 27.6152 105.166V102.125ZM40.4912 104.709C40.4912 106.479 40.125 107.832 39.3926 108.77C38.6602 109.707 37.5879 110.176 36.1758 110.176C34.7812 110.176 33.7148 109.716 32.9766 108.796C32.2383 107.876 31.8604 106.558 31.8428 104.841V102.485C31.8428 100.698 32.2119 99.3418 32.9502 98.416C33.6943 97.4902 34.7637 97.0273 36.1582 97.0273C37.5527 97.0273 38.6191 97.4873 39.3574 98.4072C40.0957 99.3213 40.4736 100.637 40.4912 102.354V104.709ZM37.9512 102.125C37.9512 101.064 37.8047 100.294 37.5117 99.8135C37.2246 99.3271 36.7734 99.084 36.1582 99.084C35.5605 99.084 35.1182 99.3154 34.8311 99.7783C34.5498 100.235 34.4004 100.953 34.3828 101.932V105.043C34.3828 106.086 34.5234 106.862 34.8047 107.372C35.0918 107.876 35.5488 108.128 36.1758 108.128C36.7969 108.128 37.2451 107.885 37.5205 107.398C37.7959 106.912 37.9395 106.168 37.9512 105.166V102.125Z" fill="#3F3F3F"/>
<path d="M69.6416 48H60.8701V46.2598L65.0098 41.8477C65.5781 41.2266 65.9971 40.6846 66.2666 40.2217C66.542 39.7588 66.6797 39.3193 66.6797 38.9033C66.6797 38.335 66.5361 37.8896 66.249 37.5674C65.9619 37.2393 65.5518 37.0752 65.0186 37.0752C64.4443 37.0752 63.9902 37.2744 63.6562 37.6729C63.3281 38.0654 63.1641 38.584 63.1641 39.2285H60.6152C60.6152 38.4492 60.7998 37.7373 61.1689 37.0928C61.5439 36.4482 62.0713 35.9443 62.751 35.5811C63.4307 35.2119 64.2012 35.0273 65.0625 35.0273C66.3809 35.0273 67.4033 35.3438 68.1299 35.9766C68.8623 36.6094 69.2285 37.5029 69.2285 38.6572C69.2285 39.29 69.0645 39.9346 68.7363 40.5908C68.4082 41.2471 67.8457 42.0117 67.0488 42.8848L64.1396 45.9521H69.6416V48ZM79.8193 42.709C79.8193 44.4785 79.4531 45.832 78.7207 46.7695C77.9883 47.707 76.916 48.1758 75.5039 48.1758C74.1094 48.1758 73.043 47.7158 72.3047 46.7959C71.5664 45.876 71.1885 44.5576 71.1709 42.8408V40.4854C71.1709 38.6982 71.54 37.3418 72.2783 36.416C73.0225 35.4902 74.0918 35.0273 75.4863 35.0273C76.8809 35.0273 77.9473 35.4873 78.6855 36.4072C79.4238 37.3213 79.8018 38.6367 79.8193 40.3535V42.709ZM77.2793 40.125C77.2793 39.0645 77.1328 38.2939 76.8398 37.8135C76.5527 37.3271 76.1016 37.084 75.4863 37.084C74.8887 37.084 74.4463 37.3154 74.1592 37.7783C73.8779 38.2354 73.7285 38.9531 73.7109 39.9316V43.043C73.7109 44.0859 73.8516 44.8623 74.1328 45.3721C74.4199 45.876 74.877 46.1279 75.5039 46.1279C76.125 46.1279 76.5732 45.8848 76.8486 45.3984C77.124 44.9121 77.2676 44.168 77.2793 43.166V40.125ZM90.1553 42.709C90.1553 44.4785 89.7891 45.832 89.0566 46.7695C88.3242 47.707 87.252 48.1758 85.8398 48.1758C84.4453 48.1758 83.3789 47.7158 82.6406 46.7959C81.9023 45.876 81.5244 44.5576 81.5068 42.8408V40.4854C81.5068 38.6982 81.876 37.3418 82.6143 36.416C83.3584 35.4902 84.4277 35.0273 85.8223 35.0273C87.2168 35.0273 88.2832 35.4873 89.0215 36.4072C89.7598 37.3213 90.1377 38.6367 90.1553 40.3535V42.709ZM87.6152 40.125C87.6152 39.0645 87.4688 38.2939 87.1758 37.8135C86.8887 37.3271 86.4375 37.084 85.8223 37.084C85.2246 37.084 84.7822 37.3154 84.4951 37.7783C84.2139 38.2354 84.0645 38.9531 84.0469 39.9316V43.043C84.0469 44.0859 84.1875 44.8623 84.4688 45.3721C84.7559 45.876 85.2129 46.1279 85.8398 46.1279C86.4609 46.1279 86.9092 45.8848 87.1846 45.3984C87.46 44.9121 87.6035 44.168 87.6152 43.166V40.125ZM100.491 42.709C100.491 44.4785 100.125 45.832 99.3926 46.7695C98.6602 47.707 97.5879 48.1758 96.1758 48.1758C94.7812 48.1758 93.7148 47.7158 92.9766 46.7959C92.2383 45.876 91.8604 44.5576 91.8428 42.8408V40.4854C91.8428 38.6982 92.2119 37.3418 92.9502 36.416C93.6943 35.4902 94.7637 35.0273 96.1582 35.0273C97.5527 35.0273 98.6191 35.4873 99.3574 36.4072C100.096 37.3213 100.474 38.6367 100.491 40.3535V42.709ZM97.9512 40.125C97.9512 39.0645 97.8047 38.2939 97.5117 37.8135C97.2246 37.3271 96.7734 37.084 96.1582 37.084C95.5605 37.084 95.1182 37.3154 94.8311 37.7783C94.5498 38.2354 94.4004 38.9531 94.3828 39.9316V43.043C94.3828 44.0859 94.5234 44.8623 94.8047 45.3721C95.0918 45.876 95.5488 46.1279 96.1758 46.1279C96.7969 46.1279 97.2451 45.8848 97.5205 45.3984C97.7959 44.9121 97.9395 44.168 97.9512 43.166V40.125Z" fill="#3F3F3F"/>
<path d="M169.454 9.47656H170.808C171.452 9.47656 171.93 9.31543 172.24 8.99316C172.551 8.6709 172.706 8.24316 172.706 7.70996C172.706 7.19434 172.551 6.79297 172.24 6.50586C171.936 6.21875 171.514 6.0752 170.975 6.0752C170.488 6.0752 170.081 6.20996 169.753 6.47949C169.425 6.74316 169.261 7.08887 169.261 7.5166H166.721C166.721 6.84863 166.899 6.25098 167.257 5.72363C167.62 5.19043 168.124 4.77441 168.769 4.47559C169.419 4.17676 170.134 4.02734 170.913 4.02734C172.267 4.02734 173.327 4.35254 174.095 5.00293C174.862 5.64746 175.246 6.53809 175.246 7.6748C175.246 8.26074 175.067 8.7998 174.71 9.29199C174.353 9.78418 173.884 10.1621 173.304 10.4258C174.024 10.6836 174.561 11.0703 174.912 11.5859C175.27 12.1016 175.448 12.7109 175.448 13.4141C175.448 14.5508 175.032 15.4619 174.2 16.1475C173.374 16.833 172.278 17.1758 170.913 17.1758C169.636 17.1758 168.59 16.8389 167.775 16.165C166.967 15.4912 166.562 14.6006 166.562 13.4932H169.103C169.103 13.9736 169.281 14.3662 169.639 14.6709C170.002 14.9756 170.447 15.1279 170.975 15.1279C171.578 15.1279 172.05 14.9697 172.39 14.6533C172.735 14.3311 172.908 13.9062 172.908 13.3789C172.908 12.1016 172.205 11.4629 170.799 11.4629H169.454V9.47656ZM185.819 11.709C185.819 13.4785 185.453 14.832 184.721 15.7695C183.988 16.707 182.916 17.1758 181.504 17.1758C180.109 17.1758 179.043 16.7158 178.305 15.7959C177.566 14.876 177.188 13.5576 177.171 11.8408V9.48535C177.171 7.69824 177.54 6.3418 178.278 5.41602C179.022 4.49023 180.092 4.02734 181.486 4.02734C182.881 4.02734 183.947 4.4873 184.686 5.40723C185.424 6.32129 185.802 7.63672 185.819 9.35352V11.709ZM183.279 9.125C183.279 8.06445 183.133 7.29395 182.84 6.81348C182.553 6.32715 182.102 6.08398 181.486 6.08398C180.889 6.08398 180.446 6.31543 180.159 6.77832C179.878 7.23535 179.729 7.95313 179.711 8.93164V12.043C179.711 13.0859 179.852 13.8623 180.133 14.3721C180.42 14.876 180.877 15.1279 181.504 15.1279C182.125 15.1279 182.573 14.8848 182.849 14.3984C183.124 13.9121 183.268 13.168 183.279 12.166V9.125ZM196.155 11.709C196.155 13.4785 195.789 14.832 195.057 15.7695C194.324 16.707 193.252 17.1758 191.84 17.1758C190.445 17.1758 189.379 16.7158 188.641 15.7959C187.902 14.876 187.524 13.5576 187.507 11.8408V9.48535C187.507 7.69824 187.876 6.3418 188.614 5.41602C189.358 4.49023 190.428 4.02734 191.822 4.02734C193.217 4.02734 194.283 4.4873 195.021 5.40723C195.76 6.32129 196.138 7.63672 196.155 9.35352V11.709ZM193.615 9.125C193.615 8.06445 193.469 7.29395 193.176 6.81348C192.889 6.32715 192.438 6.08398 191.822 6.08398C191.225 6.08398 190.782 6.31543 190.495 6.77832C190.214 7.23535 190.064 7.95313 190.047 8.93164V12.043C190.047 13.0859 190.188 13.8623 190.469 14.3721C190.756 14.876 191.213 15.1279 191.84 15.1279C192.461 15.1279 192.909 14.8848 193.185 14.3984C193.46 13.9121 193.604 13.168 193.615 12.166V9.125ZM206.491 11.709C206.491 13.4785 206.125 14.832 205.393 15.7695C204.66 16.707 203.588 17.1758 202.176 17.1758C200.781 17.1758 199.715 16.7158 198.977 15.7959C198.238 14.876 197.86 13.5576 197.843 11.8408V9.48535C197.843 7.69824 198.212 6.3418 198.95 5.41602C199.694 4.49023 200.764 4.02734 202.158 4.02734C203.553 4.02734 204.619 4.4873 205.357 5.40723C206.096 6.32129 206.474 7.63672 206.491 9.35352V11.709ZM203.951 9.125C203.951 8.06445 203.805 7.29395 203.512 6.81348C203.225 6.32715 202.773 6.08398 202.158 6.08398C201.561 6.08398 201.118 6.31543 200.831 6.77832C200.55 7.23535 200.4 7.95313 200.383 8.93164V12.043C200.383 13.0859 200.523 13.8623 200.805 14.3721C201.092 14.876 201.549 15.1279 202.176 15.1279C202.797 15.1279 203.245 14.8848 203.521 14.3984C203.796 13.9121 203.939 13.168 203.951 12.166V9.125Z" fill="#3F3F3F"/>
<path d="M287.385 45.1836H288.835V47.2314H287.385V50H284.845V47.2314H279.598L279.483 45.6318L284.818 37.2031H287.385V45.1836ZM282.015 45.1836H284.845V40.666L284.678 40.9561L282.015 45.1836ZM298.819 44.709C298.819 46.4785 298.453 47.832 297.721 48.7695C296.988 49.707 295.916 50.1758 294.504 50.1758C293.109 50.1758 292.043 49.7158 291.305 48.7959C290.566 47.876 290.188 46.5576 290.171 44.8408V42.4854C290.171 40.6982 290.54 39.3418 291.278 38.416C292.022 37.4902 293.092 37.0273 294.486 37.0273C295.881 37.0273 296.947 37.4873 297.686 38.4072C298.424 39.3213 298.802 40.6367 298.819 42.3535V44.709ZM296.279 42.125C296.279 41.0645 296.133 40.2939 295.84 39.8135C295.553 39.3271 295.102 39.084 294.486 39.084C293.889 39.084 293.446 39.3154 293.159 39.7783C292.878 40.2354 292.729 40.9531 292.711 41.9316V45.043C292.711 46.0859 292.852 46.8623 293.133 47.3721C293.42 47.876 293.877 48.1279 294.504 48.1279C295.125 48.1279 295.573 47.8848 295.849 47.3984C296.124 46.9121 296.268 46.168 296.279 45.166V42.125ZM309.155 44.709C309.155 46.4785 308.789 47.832 308.057 48.7695C307.324 49.707 306.252 50.1758 304.84 50.1758C303.445 50.1758 302.379 49.7158 301.641 48.7959C300.902 47.876 300.524 46.5576 300.507 44.8408V42.4854C300.507 40.6982 300.876 39.3418 301.614 38.416C302.358 37.4902 303.428 37.0273 304.822 37.0273C306.217 37.0273 307.283 37.4873 308.021 38.4072C308.76 39.3213 309.138 40.6367 309.155 42.3535V44.709ZM306.615 42.125C306.615 41.0645 306.469 40.2939 306.176 39.8135C305.889 39.3271 305.438 39.084 304.822 39.084C304.225 39.084 303.782 39.3154 303.495 39.7783C303.214 40.2354 303.064 40.9531 303.047 41.9316V45.043C303.047 46.0859 303.188 46.8623 303.469 47.3721C303.756 47.876 304.213 48.1279 304.84 48.1279C305.461 48.1279 305.909 47.8848 306.185 47.3984C306.46 46.9121 306.604 46.168 306.615 45.166V42.125ZM319.491 44.709C319.491 46.4785 319.125 47.832 318.393 48.7695C317.66 49.707 316.588 50.1758 315.176 50.1758C313.781 50.1758 312.715 49.7158 311.977 48.7959C311.238 47.876 310.86 46.5576 310.843 44.8408V42.4854C310.843 40.6982 311.212 39.3418 311.95 38.416C312.694 37.4902 313.764 37.0273 315.158 37.0273C316.553 37.0273 317.619 37.4873 318.357 38.4072C319.096 39.3213 319.474 40.6367 319.491 42.3535V44.709ZM316.951 42.125C316.951 41.0645 316.805 40.2939 316.512 39.8135C316.225 39.3271 315.773 39.084 315.158 39.084C314.561 39.084 314.118 39.3154 313.831 39.7783C313.55 40.2354 313.4 40.9531 313.383 41.9316V45.043C313.383 46.0859 313.523 46.8623 313.805 47.3721C314.092 47.876 314.549 48.1279 315.176 48.1279C315.797 48.1279 316.245 47.8848 316.521 47.3984C316.796 46.9121 316.939 46.168 316.951 45.166V42.125Z" fill="#3F3F3F"/>
<path d="M327.248 107.707L327.986 101.203H335.158V103.321H330.069L329.753 106.072C330.356 105.75 330.998 105.589 331.678 105.589C332.896 105.589 333.852 105.967 334.543 106.723C335.234 107.479 335.58 108.536 335.58 109.896C335.58 110.722 335.404 111.463 335.053 112.119C334.707 112.77 334.209 113.276 333.559 113.64C332.908 113.997 332.141 114.176 331.256 114.176C330.482 114.176 329.765 114.021 329.103 113.71C328.44 113.394 327.916 112.951 327.529 112.383C327.148 111.814 326.946 111.167 326.923 110.44H329.437C329.489 110.974 329.674 111.39 329.99 111.688C330.312 111.981 330.731 112.128 331.247 112.128C331.821 112.128 332.264 111.923 332.574 111.513C332.885 111.097 333.04 110.511 333.04 109.755C333.04 109.028 332.861 108.472 332.504 108.085C332.146 107.698 331.64 107.505 330.983 107.505C330.38 107.505 329.891 107.663 329.516 107.979L329.27 108.208L327.248 107.707ZM345.819 108.709C345.819 110.479 345.453 111.832 344.721 112.77C343.988 113.707 342.916 114.176 341.504 114.176C340.109 114.176 339.043 113.716 338.305 112.796C337.566 111.876 337.188 110.558 337.171 108.841V106.485C337.171 104.698 337.54 103.342 338.278 102.416C339.022 101.49 340.092 101.027 341.486 101.027C342.881 101.027 343.947 101.487 344.686 102.407C345.424 103.321 345.802 104.637 345.819 106.354V108.709ZM343.279 106.125C343.279 105.064 343.133 104.294 342.84 103.813C342.553 103.327 342.102 103.084 341.486 103.084C340.889 103.084 340.446 103.315 340.159 103.778C339.878 104.235 339.729 104.953 339.711 105.932V109.043C339.711 110.086 339.852 110.862 340.133 111.372C340.42 111.876 340.877 112.128 341.504 112.128C342.125 112.128 342.573 111.885 342.849 111.398C343.124 110.912 343.268 110.168 343.279 109.166V106.125ZM356.155 108.709C356.155 110.479 355.789 111.832 355.057 112.77C354.324 113.707 353.252 114.176 351.84 114.176C350.445 114.176 349.379 113.716 348.641 112.796C347.902 111.876 347.524 110.558 347.507 108.841V106.485C347.507 104.698 347.876 103.342 348.614 102.416C349.358 101.49 350.428 101.027 351.822 101.027C353.217 101.027 354.283 101.487 355.021 102.407C355.76 103.321 356.138 104.637 356.155 106.354V108.709ZM353.615 106.125C353.615 105.064 353.469 104.294 353.176 103.813C352.889 103.327 352.438 103.084 351.822 103.084C351.225 103.084 350.782 103.315 350.495 103.778C350.214 104.235 350.064 104.953 350.047 105.932V109.043C350.047 110.086 350.188 110.862 350.469 111.372C350.756 111.876 351.213 112.128 351.84 112.128C352.461 112.128 352.909 111.885 353.185 111.398C353.46 110.912 353.604 110.168 353.615 109.166V106.125ZM366.491 108.709C366.491 110.479 366.125 111.832 365.393 112.77C364.66 113.707 363.588 114.176 362.176 114.176C360.781 114.176 359.715 113.716 358.977 112.796C358.238 111.876 357.86 110.558 357.843 108.841V106.485C357.843 104.698 358.212 103.342 358.95 102.416C359.694 101.49 360.764 101.027 362.158 101.027C363.553 101.027 364.619 101.487 365.357 102.407C366.096 103.321 366.474 104.637 366.491 106.354V108.709ZM363.951 106.125C363.951 105.064 363.805 104.294 363.512 103.813C363.225 103.327 362.773 103.084 362.158 103.084C361.561 103.084 361.118 103.315 360.831 103.778C360.55 104.235 360.4 104.953 360.383 105.932V109.043C360.383 110.086 360.523 110.862 360.805 111.372C361.092 111.876 361.549 112.128 362.176 112.128C362.797 112.128 363.245 111.885 363.521 111.398C363.796 110.912 363.939 110.168 363.951 109.166V106.125Z" fill="#3F3F3F"/>
<mask id="path-6-outside-1" maskUnits="userSpaceOnUse" x="30.1831" y="27.8221" width="305.122" height="161.277" fill="black">
<rect fill="white" x="30.1831" y="27.8221" width="305.122" height="161.277"/>
<path fill-rule="evenodd" clip-rule="evenodd" d="M281.681 101.913C281.661 101.889 281.641 101.865 281.622 101.842C267.095 84.3078 248.039 70.9775 226.434 63.3634C201.318 54.5125 174.046 53.8397 148.525 61.4416C123.004 69.0434 100.544 84.5296 84.3656 105.68C70.4475 123.876 61.7922 145.46 59.227 168.085C58.5348 174.191 53.4828 179.059 47.3398 178.908C41.1968 178.756 36.2966 173.645 36.9079 167.531C39.6403 140.203 49.9168 114.09 66.6909 92.1608C85.7247 67.2774 112.148 49.0584 142.172 40.1151C143.175 39.8164 144.18 39.5285 145.187 39.2516C145.258 39.2306 145.329 39.2103 145.401 39.1908C164.328 34.0166 184.131 32.6388 203.661 35.1798C226.877 38.2004 249.048 46.6724 268.362 59.9034C287.675 73.1343 303.584 90.7484 314.786 111.306C324.21 128.6 330.078 147.563 332.089 167.081C332.719 173.194 327.834 178.319 321.692 178.49C315.549 178.66 310.483 173.807 309.772 167.704C307.908 151.698 302.989 136.163 295.246 121.953C291.364 114.83 286.817 108.122 281.681 101.913Z"/>
</mask>
<g filter="url(#filter0_ii)">
<path fill-rule="evenodd" clip-rule="evenodd" d="M281.681 101.913C281.661 101.889 281.641 101.865 281.622 101.842C267.095 84.3078 248.039 70.9775 226.434 63.3634C201.318 54.5125 174.046 53.8397 148.525 61.4416C123.004 69.0434 100.544 84.5296 84.3656 105.68C70.4475 123.876 61.7922 145.46 59.227 168.085C58.5348 174.191 53.4828 179.059 47.3398 178.908C41.1968 178.756 36.2966 173.645 36.9079 167.531C39.6403 140.203 49.9168 114.09 66.6909 92.1608C85.7247 67.2774 112.148 49.0584 142.172 40.1151C143.175 39.8164 144.18 39.5285 145.187 39.2516C145.258 39.2306 145.329 39.2103 145.401 39.1908C164.328 34.0166 184.131 32.6388 203.661 35.1798C226.877 38.2004 249.048 46.6724 268.362 59.9034C287.675 73.1343 303.584 90.7484 314.786 111.306C324.21 128.6 330.078 147.563 332.089 167.081C332.719 173.194 327.834 178.319 321.692 178.49C315.549 178.66 310.483 173.807 309.772 167.704C307.908 151.698 302.989 136.163 295.246 121.953C291.364 114.83 286.817 108.122 281.681 101.913Z" fill="#E3EDF7"/>
</g>
<path d="M281.681 101.913L283.222 100.638L283.217 100.632L283.212 100.625L281.681 101.913ZM281.622 101.842L283.162 100.566L283.162 100.566L281.622 101.842ZM226.434 63.3634L227.098 61.4771L226.434 63.3634ZM84.3656 105.68L85.9541 106.896L84.3656 105.68ZM59.227 168.085L61.2143 168.311L59.227 168.085ZM47.3398 178.908L47.2905 180.907L47.2905 180.907L47.3398 178.908ZM36.9079 167.531L38.898 167.73L36.9079 167.531ZM66.6909 92.1608L68.2795 93.3759L68.2795 93.3759L66.6909 92.1608ZM142.172 40.1151L141.601 38.1983L141.601 38.1983L142.172 40.1151ZM145.187 39.2516L145.718 41.18L145.737 41.1748L145.756 41.1692L145.187 39.2516ZM145.401 39.1908L145.928 41.12L145.928 41.12L145.401 39.1908ZM203.661 35.1798L203.919 33.1965L203.661 35.1798ZM268.362 59.9034L267.231 61.5533L268.362 59.9034ZM314.786 111.306L316.542 110.349L314.786 111.306ZM332.089 167.081L334.079 166.876L332.089 167.081ZM309.772 167.704L307.785 167.935L307.785 167.935L309.772 167.704ZM295.246 121.953L297.002 120.996L297.002 120.996L295.246 121.953ZM283.212 100.625C283.195 100.605 283.178 100.586 283.162 100.566L280.082 103.118C280.104 103.145 280.127 103.173 280.15 103.2L283.212 100.625ZM283.162 100.566C268.404 82.7537 249.047 69.212 227.098 61.4771L225.769 65.2497C247.032 72.7431 265.785 85.8619 280.082 103.118L283.162 100.566ZM227.098 61.4771C201.585 52.4858 173.88 51.8024 147.954 59.5248L149.096 63.3584C174.212 55.8771 201.052 56.5392 225.769 65.2497L227.098 61.4771ZM147.954 59.5248C122.028 67.2472 99.2124 82.979 82.777 104.465L85.9541 106.896C101.876 86.0801 123.979 70.8396 149.096 63.3584L147.954 59.5248ZM82.777 104.465C68.6381 122.95 59.8456 144.876 57.2398 167.86L61.2143 168.311C63.7387 146.044 72.2568 124.803 85.9541 106.896L82.777 104.465ZM57.2398 167.86C56.6516 173.048 52.3877 177.032 47.3891 176.909L47.2905 180.907C54.578 181.087 60.418 175.335 61.2143 168.311L57.2398 167.86ZM47.3891 176.909C42.3069 176.783 38.4124 172.587 38.898 167.73L34.9178 167.332C34.1808 174.704 40.0868 180.73 47.2905 180.907L47.3891 176.909ZM38.898 167.73C41.5935 140.771 51.7315 115.01 68.2795 93.3759L65.1024 90.9457C48.1021 113.171 37.687 139.636 34.9178 167.332L38.898 167.73ZM68.2795 93.3759C87.0567 68.828 113.123 50.8546 142.743 42.0318L141.601 38.1983C111.172 47.2622 84.3928 65.7268 65.1024 90.9457L68.2795 93.3759ZM142.743 42.0318C143.733 41.7372 144.724 41.4532 145.718 41.18L144.657 37.3232C143.636 37.6039 142.618 37.8956 141.601 38.1983L142.743 42.0318ZM145.756 41.1692C145.813 41.1522 145.87 41.1358 145.928 41.12L144.874 37.2615C144.788 37.2848 144.704 37.309 144.619 37.334L145.756 41.1692ZM145.928 41.12C164.6 36.0155 184.136 34.6563 203.403 37.1631L203.919 33.1965C184.126 30.6212 164.056 32.0176 144.874 37.2615L145.928 41.12ZM203.403 37.1631C226.306 40.1429 248.178 48.5008 267.231 61.5533L269.492 58.2534C249.918 44.8441 227.448 36.2578 203.919 33.1965L203.403 37.1631ZM267.231 61.5533C286.285 74.6059 301.979 91.9825 313.03 112.263L316.542 110.349C305.189 89.5143 289.066 71.6627 269.492 58.2534L267.231 61.5533ZM313.03 112.263C322.326 129.323 328.115 148.031 330.1 167.286L334.079 166.876C332.04 147.095 326.093 127.876 316.542 110.349L313.03 112.263ZM330.1 167.286C330.6 172.142 326.718 176.35 321.637 176.49L321.747 180.489C328.95 180.289 334.838 174.246 334.079 166.876L330.1 167.286ZM321.637 176.49C316.638 176.629 312.362 172.658 311.758 167.472L307.785 167.935C308.603 174.956 314.461 180.691 321.747 180.489L321.637 176.49ZM311.758 167.472C309.865 151.213 304.868 135.431 297.002 120.996L293.49 122.91C301.11 136.894 305.951 152.183 307.785 167.935L311.758 167.472ZM297.002 120.996C293.059 113.76 288.44 106.945 283.222 100.638L280.14 103.187C285.195 109.298 289.67 115.9 293.49 122.91L297.002 120.996Z" fill="url(#paint0_linear)" fill-opacity="0.46" mask="url(#path-6-outside-1)"/>
<path d="M47.344 178.906C41.201 178.754 36.3007 173.643 36.9119 167.529C40.3689 132.946 55.8847 100.538 80.9303 76.1031C108.64 49.0695 145.82 33.9384 184.532 33.9399C223.244 33.9415 260.423 49.0755 288.13 76.1113C313.174 100.548 328.687 132.958 332.141 167.541C332.752 173.655 327.851 178.766 321.708 178.917C315.565 179.068 310.514 174.199 309.822 168.093C306.563 139.321 293.476 112.418 272.59 92.0381C249.038 69.0577 217.437 56.1937 184.531 56.1924C151.626 56.1911 120.023 69.0525 96.4697 92.0311C75.5821 112.409 62.4924 139.312 59.2311 168.083C58.539 174.189 53.487 179.058 47.344 178.906Z" fill="url(#paint1_linear)"/>
<g filter="url(#filter1_ddd)">
<rect x="148.475" y="104.793" width="77.28" height="77.28" rx="38.64" fill="#BCBCBC"/>
<rect x="147.68" y="103.999" width="78.8682" height="78.8682" rx="39.4341" stroke="url(#paint2_linear)" stroke-opacity="0.46" stroke-width="1.58824"/>
</g>
<g filter="url(#filter2_ddd)">
<path d="M176.177 119.021L87.982 55.0001L162.957 135.777C160.708 144.899 163.521 154.922 171.137 161.52C181.994 170.938 198.48 169.829 207.945 159.042C217.41 148.256 216.281 131.866 205.423 122.448C197.072 115.215 185.425 114.214 176.177 119.021Z" fill="#D7D7D7"/>
<path d="M175.883 119.426L176.133 119.607L176.407 119.465C185.481 114.749 196.905 115.732 205.096 122.826C215.744 132.062 216.85 148.135 207.569 158.712C198.286 169.292 182.115 170.381 171.465 161.143L171.465 161.142C163.995 154.672 161.237 144.843 163.443 135.897L163.507 135.635L163.324 135.437L91.8309 58.412L175.883 119.426Z" stroke="url(#paint3_linear)"/>
</g>
<path d="M175.642 150H166.87V148.26L171.01 143.848C171.578 143.227 171.997 142.685 172.267 142.222C172.542 141.759 172.68 141.319 172.68 140.903C172.68 140.335 172.536 139.89 172.249 139.567C171.962 139.239 171.552 139.075 171.019 139.075C170.444 139.075 169.99 139.274 169.656 139.673C169.328 140.065 169.164 140.584 169.164 141.229H166.615C166.615 140.449 166.8 139.737 167.169 139.093C167.544 138.448 168.071 137.944 168.751 137.581C169.431 137.212 170.201 137.027 171.062 137.027C172.381 137.027 173.403 137.344 174.13 137.977C174.862 138.609 175.229 139.503 175.229 140.657C175.229 141.29 175.064 141.935 174.736 142.591C174.408 143.247 173.846 144.012 173.049 144.885L170.14 147.952H175.642V150ZM185.819 144.709C185.819 146.479 185.453 147.832 184.721 148.77C183.988 149.707 182.916 150.176 181.504 150.176C180.109 150.176 179.043 149.716 178.305 148.796C177.566 147.876 177.188 146.558 177.171 144.841V142.485C177.171 140.698 177.54 139.342 178.278 138.416C179.022 137.49 180.092 137.027 181.486 137.027C182.881 137.027 183.947 137.487 184.686 138.407C185.424 139.321 185.802 140.637 185.819 142.354V144.709ZM183.279 142.125C183.279 141.064 183.133 140.294 182.84 139.813C182.553 139.327 182.102 139.084 181.486 139.084C180.889 139.084 180.446 139.315 180.159 139.778C179.878 140.235 179.729 140.953 179.711 141.932V145.043C179.711 146.086 179.852 146.862 180.133 147.372C180.42 147.876 180.877 148.128 181.504 148.128C182.125 148.128 182.573 147.885 182.849 147.398C183.124 146.912 183.268 146.168 183.279 145.166V142.125ZM196.155 144.709C196.155 146.479 195.789 147.832 195.057 148.77C194.324 149.707 193.252 150.176 191.84 150.176C190.445 150.176 189.379 149.716 188.641 148.796C187.902 147.876 187.524 146.558 187.507 144.841V142.485C187.507 140.698 187.876 139.342 188.614 138.416C189.358 137.49 190.428 137.027 191.822 137.027C193.217 137.027 194.283 137.487 195.021 138.407C195.76 139.321 196.138 140.637 196.155 142.354V144.709ZM193.615 142.125C193.615 141.064 193.469 140.294 193.176 139.813C192.889 139.327 192.438 139.084 191.822 139.084C191.225 139.084 190.782 139.315 190.495 139.778C190.214 140.235 190.064 140.953 190.047 141.932V145.043C190.047 146.086 190.188 146.862 190.469 147.372C190.756 147.876 191.213 148.128 191.84 148.128C192.461 148.128 192.909 147.885 193.185 147.398C193.46 146.912 193.604 146.168 193.615 145.166V142.125ZM206.491 144.709C206.491 146.479 206.125 147.832 205.393 148.77C204.66 149.707 203.588 150.176 202.176 150.176C200.781 150.176 199.715 149.716 198.977 148.796C198.238 147.876 197.86 146.558 197.843 144.841V142.485C197.843 140.698 198.212 139.342 198.95 138.416C199.694 137.49 200.764 137.027 202.158 137.027C203.553 137.027 204.619 137.487 205.357 138.407C206.096 139.321 206.474 140.637 206.491 142.354V144.709ZM203.951 142.125C203.951 141.064 203.805 140.294 203.512 139.813C203.225 139.327 202.773 139.084 202.158 139.084C201.561 139.084 201.118 139.315 200.831 139.778C200.55 140.235 200.4 140.953 200.383 141.932V145.043C200.383 146.086 200.523 146.862 200.805 147.372C201.092 147.876 201.549 148.128 202.176 148.128C202.797 148.128 203.245 147.885 203.521 147.398C203.796 146.912 203.939 146.168 203.951 145.166V142.125Z" fill="#4D4D4D"/>
<defs>
<filter id="filter0_ii" x="23.1816" y="19.8442" width="317.3" height="174.577" filterUnits="userSpaceOnUse" color-interpolation-filters="sRGB">
<feFlood flood-opacity="0" result="BackgroundImageFix"/>
<feBlend mode="normal" in="SourceGraphic" in2="BackgroundImageFix" result="shape"/>
<feColorMatrix in="SourceAlpha" type="matrix" values="0 0 0 0 0 0 0 0 0 0 0 0 0 0 0 0 0 0 127 0" result="hardAlpha"/>
<feOffset dx="6" dy="6"/>
<feGaussianBlur stdDeviation="7"/>
<feComposite in2="hardAlpha" operator="arithmetic" k2="-1" k3="1"/>
<feColorMatrix type="matrix" values="0 0 0 0 0.756863 0 0 0 0 0.835294 0 0 0 0 0.933333 0 0 0 1 0"/>
<feBlend mode="normal" in2="shape" result="effect1_innerShadow"/>
<feColorMatrix in="SourceAlpha" type="matrix" values="0 0 0 0 0 0 0 0 0 0 0 0 0 0 0 0 0 0 127 0" result="hardAlpha"/>
<feOffset dx="-8" dy="-8"/>
<feGaussianBlur stdDeviation="4.5"/>
<feComposite in2="hardAlpha" operator="arithmetic" k2="-1" k3="1"/>
<feColorMatrix type="matrix" values="0 0 0 0 1 0 0 0 0 1 0 0 0 0 1 0 0 0 0.88 0"/>
<feBlend mode="normal" in2="effect1_innerShadow" result="effect2_innerShadow"/>
</filter>
<filter id="filter1_ddd" x="117.357" y="73.6757" width="121.986" height="121.986" filterUnits="userSpaceOnUse" color-interpolation-filters="sRGB">
<feFlood flood-opacity="0" result="BackgroundImageFix"/>
<feColorMatrix in="SourceAlpha" type="matrix" values="0 0 0 0 0 0 0 0 0 0 0 0 0 0 0 0 0 0 127 0"/>
<feOffset dx="2" dy="2"/>
<feGaussianBlur stdDeviation="5"/>
<feColorMatrix type="matrix" values="0 0 0 0 0.434896 0 0 0 0 0.548322 0 0 0 0 0.690104 0 0 0 0.05 0"/>
<feBlend mode="normal" in2="BackgroundImageFix" result="effect1_dropShadow"/>
<feColorMatrix in="SourceAlpha" type="matrix" values="0 0 0 0 0 0 0 0 0 0 0 0 0 0 0 0 0 0 127 0"/>
<feOffset dx="-9.52941" dy="-9.52941"/>
<feGaussianBlur stdDeviation="10"/>
<feColorMatrix type="matrix" values="0 0 0 0 1 0 0 0 0 1 0 0 0 0 1 0 0 0 1 0"/>
<feBlend mode="normal" in2="effect1_dropShadow" result="effect2_dropShadow"/>
<feColorMatrix in="SourceAlpha" type="matrix" values="0 0 0 0 0 0 0 0 0 0 0 0 0 0 0 0 0 0 127 0"/>
<feOffset dx="2" dy="2"/>
<feGaussianBlur stdDeviation="3"/>
<feColorMatrix type="matrix" values="0 0 0 0 0.446076 0 0 0 0 0.558333 0 0 0 0 0.67059 0 0 0 0.1 0"/>
<feBlend mode="normal" in2="effect2_dropShadow" result="effect3_dropShadow"/>
<feBlend mode="normal" in="SourceGraphic" in2="effect3_dropShadow" result="shape"/>
</filter>
<filter id="filter2_ddd" x="39.71" y="13.71" width="217.987" height="193.978" filterUnits="userSpaceOnUse" color-interpolation-filters="sRGB">
<feFlood flood-opacity="0" result="BackgroundImageFix"/>
<feColorMatrix in="SourceAlpha" type="matrix" values="0 0 0 0 0 0 0 0 0 0 0 0 0 0 0 0 0 0 127 0"/>
<feOffset dx="-9.53" dy="-9.53"/>
<feGaussianBlur stdDeviation="15.88"/>
<feColorMatrix type="matrix" values="0 0 0 0 1 0 0 0 0 1 0 0 0 0 1 0 0 0 1 0"/>
<feBlend mode="normal" in2="BackgroundImageFix" result="effect1_dropShadow"/>
<feColorMatrix in="SourceAlpha" type="matrix" values="0 0 0 0 0 0 0 0 0 0 0 0 0 0 0 0 0 0 127 0"/>
<feOffset dx="3.18" dy="3.18"/>
<feGaussianBlur stdDeviation="2"/>
<feColorMatrix type="matrix" values="0 0 0 0 0.447059 0 0 0 0 0.556863 0 0 0 0 0.670588 0 0 0 0.1 0"/>
<feBlend mode="normal" in2="effect1_dropShadow" result="effect2_dropShadow"/>
<feColorMatrix in="SourceAlpha" type="matrix" values="0 0 0 0 0 0 0 0 0 0 0 0 0 0 0 0 0 0 127 0"/>
<feOffset dx="6.35" dy="6.35"/>
<feGaussianBlur stdDeviation="15.88"/>
<feColorMatrix type="matrix" values="0 0 0 0 0.435294 0 0 0 0 0.54902 0 0 0 0 0.690196 0 0 0 0.41 0"/>
<feBlend mode="normal" in2="effect2_dropShadow" result="effect3_dropShadow"/>
<feBlend mode="normal" in="SourceGraphic" in2="effect3_dropShadow" result="shape"/>
</filter>
<linearGradient id="paint0_linear" x1="307.391" y1="75.1247" x2="262.283" y2="233.194" gradientUnits="userSpaceOnUse">
<stop stop-color="#D6E3F3"/>
<stop offset="1" stop-color="white"/>
</linearGradient>
<linearGradient id="paint1_linear" x1="315.165" y1="91.7432" x2="91.1392" y2="97.9498" gradientUnits="userSpaceOnUse">
<stop stop-color="#FE504C"/>
<stop offset="0.255208" stop-color="#EC8556"/>
<stop offset="0.427083" stop-color="#D9C359"/>
<stop offset="0.614583" stop-color="#B4DD61"/>
<stop offset="0.807292" stop-color="#74BE8A"/>
<stop offset="1" stop-color="#01B55C"/>
</linearGradient>
<linearGradient id="paint2_linear" x1="222.177" y1="177.528" x2="162.332" y2="180.013" gradientUnits="userSpaceOnUse">
<stop stop-color="#D6E3F3"/>
<stop offset="1" stop-color="white"/>
</linearGradient>
<linearGradient id="paint3_linear" x1="228.927" y1="105.193" x2="138.551" y2="184.835" gradientUnits="userSpaceOnUse">
<stop offset="0.202194" stop-color="#C1C1C1"/>
<stop offset="0.706321" stop-color="white" stop-opacity="0"/>
</linearGradient>
</defs>
</svg>