<svg width="202" height="185" viewBox="0 0 202 185" fill="none" xmlns="http://www.w3.org/2000/svg">
<path d="M110.729 171.216L110.399 178.958C111.408 180.008 112.849 181.284 114.805 182.375C115.999 183.055 118.038 184.146 120.92 184.475C123.205 184.722 125.12 184.372 126.438 184.022C126.438 184.022 127.735 182.664 126.808 181.366C125.902 180.069 122.361 176.816 122.361 176.816C122.361 176.816 119.685 174.778 119.685 174.181C119.685 173.584 119.746 170.805 119.746 170.805L110.729 171.216Z" fill="#00154A"/>
<path d="M110.526 176.548C111.494 177.516 112.729 178.628 114.273 179.698C116.064 180.934 117.752 181.757 119.152 182.334C119.152 182.334 121.438 183.013 123.929 182.807C125.144 182.704 125.947 182.416 126.152 182.334C126.585 182.169 126.914 182.004 127.161 181.86C127.202 182.045 127.264 182.457 127.12 182.931C127.079 183.075 126.894 183.61 126.399 183.96C125.967 184.29 125.514 184.331 125.102 184.351C123.394 184.495 122.529 184.557 122.055 184.537C121.273 184.495 120.244 184.392 119.07 184.104C118.802 184.042 118.411 183.94 117.958 183.775C117.547 183.631 117.114 183.466 116.085 182.992C115.199 182.581 114.767 182.375 114.479 182.231C113.511 181.695 112.873 181.16 112.214 180.645C111.699 180.234 111.061 179.657 110.382 178.937C110.444 178.154 110.485 177.351 110.526 176.548Z" fill="#7486B3"/>
<path d="M124.321 178.505C124.321 178.505 124.197 178.484 123.991 178.463C123.785 178.443 123.476 178.422 123.126 178.422C122.941 178.422 122.756 178.443 122.55 178.463C122.344 178.484 122.138 178.525 121.912 178.566C121.809 178.587 121.685 178.628 121.582 178.649C121.479 178.69 121.356 178.711 121.253 178.752C121.15 178.793 121.026 178.834 120.924 178.875C120.821 178.916 120.718 178.978 120.594 179.019C120.388 179.122 120.182 179.246 119.976 179.369C119.791 179.493 119.606 179.637 119.441 179.781C119.276 179.925 119.132 180.09 118.988 180.234C118.844 180.378 118.721 180.543 118.618 180.687C118.412 180.975 118.247 181.222 118.144 181.428C118.041 181.613 118 181.716 118 181.716C118 181.716 118.041 181.593 118.124 181.408C118.206 181.222 118.329 180.934 118.535 180.625C118.638 180.461 118.741 180.316 118.885 180.152C119.029 179.987 119.174 179.822 119.338 179.658C119.503 179.493 119.688 179.349 119.894 179.205C120.079 179.061 120.306 178.937 120.512 178.834C120.615 178.793 120.738 178.731 120.841 178.69C120.965 178.649 121.068 178.608 121.191 178.566C121.315 178.525 121.418 178.505 121.541 178.463C121.665 178.443 121.768 178.422 121.891 178.381C122.015 178.361 122.118 178.34 122.221 178.34C122.324 178.34 122.447 178.319 122.55 178.319C122.756 178.319 122.962 178.319 123.147 178.319C123.518 178.34 123.806 178.402 124.012 178.443C124.197 178.463 124.321 178.505 124.321 178.505Z" fill="#CCCCCC"/>
<path d="M116.455 176.754L117.32 177.969C119.07 177.639 120.82 177.31 122.549 176.981C122.034 176.548 121.52 176.116 121.026 175.684L116.455 176.754Z" fill="#CCCCCC"/>
<path d="M114.932 174.551L115.632 175.993L119.996 174.696L119.688 173.769L114.932 174.551Z" fill="#CCCCCC"/>
<path d="M106.941 172.514C107.435 175.19 107.95 177.846 108.444 180.522C108.444 180.522 94.4236 183.302 92.7766 183.59C91.1295 183.878 87.4854 184.228 86.7031 183.59C85.9207 182.952 85.2825 181.799 85.406 181.222C85.9413 179.061 88.2472 177.517 88.556 177.352C89.2148 177.022 90.3883 176.755 92.6942 176.199C93.3119 176.055 94.3825 175.808 95.2677 174.984C95.6795 174.593 95.906 174.222 95.9883 174.099C96.3795 173.419 96.4619 172.781 96.4825 172.411C99.9825 172.452 103.462 172.472 106.941 172.514Z" fill="#00154A"/>
<path d="M89.3809 94.0706C90.925 120.424 92.4485 146.838 93.9926 173.191H108.363L102.146 116.594L110.298 171.688L120.16 171.235C116.701 144.574 113.243 117.932 109.763 91.25C102.969 92.1765 96.175 93.1441 89.3809 94.0706Z" fill="black"/>
<path d="M91.9343 36.0752C91.9343 36.0752 91.9343 38.2987 92.8608 40.8723C93.8078 43.487 95.1461 45.2987 95.1461 45.2987C95.1461 45.2987 92.902 48.634 91.6461 49.437C90.699 50.0546 88.6402 50.4458 88.6402 50.4458C88.6402 50.4458 88.7637 48.4899 88.4961 46.0811C88.1049 42.6017 86.499 39.8634 86.499 39.8634C86.499 39.8634 88.2696 39.8223 89.7931 38.7928C91.3373 37.7428 91.9343 36.0752 91.9343 36.0752Z" fill="#EEC795"/>
<path d="M86.785 96.9336C86.785 96.9336 87.2997 89.9748 86.4967 78.0542C86.1056 72.1454 85.2614 68.7483 85.0761 67.9042C84.3761 64.7954 84.1497 64.9395 83.9232 63.3336C83.5732 60.6983 83.7585 55.3866 86.8261 51.1042C87.5673 50.0748 88.7203 48.4483 90.7997 47.2336C92.4879 46.2454 95.185 45.2983 95.2056 45.2983C95.2056 45.2983 97.7791 46.0395 99.5291 47.8719C104.306 52.8748 105.006 59.6483 105.397 61.4601C109.597 80.8954 111.264 89.913 111.264 89.913C111.058 90.613 108.897 97.4483 101.835 99.9189C96.6879 101.731 90.9232 100.557 86.785 96.9336Z" fill="#00154A"/>
<path d="M70.3369 55.0371C68.0104 56.4989 65.6634 57.94 63.3369 59.4018C65.4987 63.3548 67.681 67.3283 69.8428 71.2812C72.2516 71.4048 73.5487 70.7459 74.2693 70.1283C75.4634 69.0989 76.5546 66.9989 76.5546 66.9989C74.4751 63.0048 72.4163 59.0106 70.3369 55.0371Z" fill="#999999"/>
<path d="M82.196 46.3071C79.6225 50.6924 78.4695 53.0395 77.9136 54.3777C77.7078 54.8718 77.3166 55.7983 76.6578 57.116C75.7931 58.8454 75.3401 59.4424 74.2695 62.2012C72.9107 65.7012 72.1489 67.7395 72.1283 70.5807C72.1078 72.7218 72.1078 75.7895 74.496 77.2101C76.1431 78.1777 78.0783 77.8895 78.2431 77.8483C80.4666 77.4777 81.8048 75.8101 82.5254 74.8012C84.5019 72.1454 93.4783 59.6689 90.0401 56.2512C88.9078 55.1189 86.5813 55.1189 85.3254 56.0248C83.946 57.013 84.4607 58.6395 83.0813 62.3248C82.2578 64.4865 80.9813 66.8336 80.5695 66.7306C80.0754 66.6071 80.7342 63.1277 81.496 60.5954C81.6813 59.9777 82.1754 58.6601 83.1842 56.0248C83.946 54.0071 84.4195 52.8336 85.1607 51.3924C85.5725 50.5689 85.9636 49.8895 86.2313 49.4365C84.8725 48.3865 83.5342 47.3571 82.196 46.3071Z" fill="#00154A"/>
<path d="M86.5862 41.9007C91.7741 40.9405 94.8808 34.2253 93.5253 26.902C92.1698 19.5786 86.8654 14.4203 81.6776 15.3805C76.4897 16.3407 73.383 23.0559 74.7385 30.3792C76.094 37.7026 81.3984 42.8609 86.5862 41.9007Z" fill="#EEC795"/>
<path d="M68.6891 13.6331C67.9891 13.386 65.5391 16.0213 65.5391 19.2125C65.5391 19.5213 65.5802 22.3213 67.7626 24.0713C68.2361 24.4625 69.142 25.0595 71.2626 25.3683C72.6214 25.5742 78.2626 26.3772 82.7714 22.8566C85.1185 21.0448 86.0244 18.9242 87.0538 19.2742C87.8773 19.5625 87.4243 20.9213 88.4743 22.486C90.1832 25.0183 93.1685 24.133 94.1155 26.2742C94.4243 26.9742 94.2802 28.1683 93.9714 30.5566C93.8479 31.5242 93.7655 32.5125 93.6214 33.4801C93.4361 34.6536 93.3744 34.8801 93.4773 35.2713C93.7861 36.4036 95.1038 37.433 96.4008 37.3507C97.9449 37.2272 98.7685 35.5801 99.1802 34.7154C100.663 31.7095 99.6538 28.1683 99.1185 28.1478C98.789 28.1272 98.6655 29.4036 98.1096 29.4448C97.5538 29.486 97.0185 28.2507 96.5449 26.9331C95.392 23.8242 95.3096 22.4654 94.4038 19.7066C93.8891 18.1419 93.292 16.6801 92.0361 15.3419C90.8008 14.0036 90.1008 14.0242 89.8949 14.0448C88.7214 14.1683 88.2685 15.7742 87.6714 15.6095C87.1155 15.4654 87.4449 14.0448 86.6626 12.686C85.9214 11.3889 84.6243 10.8331 84.0891 10.6066C81.4538 9.49482 77.9949 10.4625 76.0802 12.2536C73.8773 14.3125 73.2185 15.1772 73.2185 15.1772C72.9096 15.5889 72.5391 16.1036 71.8596 16.3919C71.2214 16.6595 70.2126 16.7419 69.5744 16.2478C68.5861 15.486 69.2038 13.8183 68.6891 13.6331Z" fill="#42210B"/>
<path d="M79.849 26.7076C79.2725 26.7899 78.7784 27.2223 78.5519 27.7164C78.2225 28.4164 78.6548 28.8076 78.6137 29.7135C78.5725 30.9694 77.7078 31.9164 76.9048 32.7811C75.8342 33.9341 75.3401 33.8723 74.9078 34.7782C74.7842 35.0458 74.2695 36.2399 74.846 37.2899C75.546 38.587 77.3372 38.6488 77.6254 38.6488C79.746 38.7105 81.1872 37.0017 81.496 36.6517C82.8548 35.0252 82.896 33.1517 82.9166 31.937C82.9372 30.9076 82.9784 28.9929 81.7019 27.6546C81.4137 27.3252 80.7137 26.5841 79.849 26.7076Z" fill="#EEB995"/>
<path d="M87.3428 38.2983C87.3428 38.2983 87.5075 38.0306 87.7545 37.6189C88.0222 37.2277 88.3928 36.713 88.8045 36.2395C88.9075 36.1159 89.0104 35.9924 89.1339 35.8895C89.2575 35.7865 89.381 35.663 89.5251 35.6012C89.6075 35.5806 89.6898 35.5601 89.7722 35.5601C89.8134 35.5601 89.8339 35.5601 89.8751 35.5806C89.9163 35.6012 89.9575 35.6012 89.9987 35.6218C90.1428 35.6836 90.2457 35.7865 90.3281 35.8689C90.4928 36.0542 90.5751 36.2395 90.6369 36.363C90.6987 36.4865 90.7192 36.5689 90.7192 36.5689C90.7192 36.5689 90.6781 36.5071 90.6163 36.3836C90.5339 36.2601 90.431 36.0954 90.2663 35.9512C90.1839 35.8689 90.081 35.8071 89.9781 35.7659C89.9575 35.7454 89.9163 35.7454 89.8957 35.7454C89.8751 35.7454 89.8339 35.7454 89.7928 35.7248C89.7516 35.7248 89.6692 35.7454 89.6281 35.7659C89.5045 35.8071 89.4016 35.9101 89.2987 36.013C89.1957 36.1159 89.0928 36.2395 88.9898 36.363C88.5781 36.8365 88.1869 37.3306 87.8781 37.6806C87.734 37.8659 87.5898 38.0101 87.5075 38.113C87.4045 38.2365 87.3428 38.2983 87.3428 38.2983Z" fill="#C69C6D"/>
<path d="M76.5417 31.4913C76.8848 31.4102 77.0484 30.8601 76.9071 30.2625C76.7659 29.6649 76.3734 29.2463 76.0303 29.3273C75.6873 29.4084 75.5237 29.9585 75.6649 30.5561C75.8061 31.1536 76.1987 31.5723 76.5417 31.4913Z" fill="#42210B"/>
<path d="M75.833 29.4869C75.833 29.4869 75.8948 29.3428 76.0389 29.1986C76.1212 29.1163 76.2242 29.0339 76.3477 28.9722C76.4712 28.9104 76.6154 28.8692 76.7595 28.8486C76.8007 28.8486 76.8418 28.8486 76.883 28.8486C76.9242 28.8486 76.9448 28.8486 76.9859 28.8486C77.0683 28.8486 77.1301 28.8692 77.1918 28.8898C77.3359 28.931 77.4389 28.9928 77.5418 29.0545C77.7271 29.178 77.8095 29.3016 77.8095 29.3016C77.8095 29.3016 77.6859 29.2192 77.5006 29.1575C77.3977 29.1163 77.2948 29.0957 77.1712 29.0751C77.1095 29.0545 77.0477 29.0545 76.9859 29.0545C76.9654 29.0545 76.9242 29.0545 76.883 29.0545C76.8624 29.0545 76.8212 29.0545 76.7801 29.0545C76.6565 29.0545 76.533 29.0957 76.4095 29.1369C76.2859 29.178 76.183 29.2398 76.1007 29.281C75.9565 29.4045 75.833 29.4869 75.833 29.4869Z" fill="#C69C6D"/>
<path d="M84.375 27.5507C84.375 27.5507 84.4574 27.4272 84.6426 27.3242C84.725 27.2625 84.8485 27.2213 84.9926 27.1801C85.1368 27.1389 85.2809 27.1389 85.425 27.1595C85.4662 27.1595 85.4868 27.1801 85.5279 27.1801C85.5691 27.1801 85.5897 27.2007 85.6309 27.2007C85.7132 27.2213 85.775 27.2625 85.8368 27.283C85.9603 27.3448 86.0632 27.4272 86.125 27.5095C86.2691 27.6742 86.3309 27.8183 86.3309 27.8183C86.3309 27.8183 86.2279 27.7154 86.0632 27.6125C85.9809 27.5507 85.8779 27.5095 85.775 27.4478C85.7132 27.4272 85.6515 27.4066 85.6103 27.386C85.5897 27.386 85.5485 27.3654 85.5074 27.3654C85.4868 27.3654 85.4456 27.3654 85.425 27.3448C85.3015 27.3242 85.1779 27.3242 85.0544 27.3448C84.9309 27.3654 84.8279 27.386 84.725 27.4272C84.4985 27.4683 84.375 27.5507 84.375 27.5507Z" fill="#C69C6D"/>
<path d="M85.1072 29.5601C85.4502 29.479 85.6138 28.9289 85.4726 28.3313C85.3314 27.7338 84.9388 27.3151 84.5957 27.3962C84.2527 27.4772 84.0891 28.0274 84.2303 28.6249C84.3715 29.2225 84.7641 29.6412 85.1072 29.5601Z" fill="#42210B"/>
<path d="M82.1356 46.3075C82.1356 46.3075 82.8356 45.4017 82.7944 44.6605C82.7738 44.1252 82.3003 43.6928 81.3532 42.8281C80.3032 41.8811 79.665 41.5517 79.7474 41.1605C79.8091 40.8928 80.1797 40.7693 80.3444 40.7281C81.2915 40.4193 82.5062 41.1399 83.1856 41.9634C83.5768 42.437 83.515 42.6222 83.8856 42.8693C84.5856 43.3428 85.5121 43.1369 85.7179 43.0752C86.3356 42.9311 86.7474 42.6017 86.9532 42.4369C87.5297 41.9634 87.8179 41.3869 88.0856 40.8722C88.6003 39.8634 88.4973 39.4517 88.9503 39.2046C89.3415 38.9987 89.8973 39.0193 90.2473 39.3075C90.7209 39.7193 90.6179 40.4399 90.5768 40.7075C90.4738 41.3252 90.1238 41.7164 89.8768 42.0046C89.2179 42.7458 88.3532 43.0958 88.3738 43.1369C88.3944 43.1575 88.8679 42.7869 89.3003 42.9311C89.5473 43.0134 89.6915 43.2399 89.7944 43.4046C89.8768 43.5487 90.1032 43.8987 90.0003 44.2899C89.9179 44.6811 89.5679 44.8664 89.6503 45.0105C89.7121 45.1134 89.8768 45.0105 90.0826 45.1134C90.3503 45.2369 90.515 45.6075 90.4944 45.9164C90.4738 46.184 90.3297 46.3899 90.2473 46.4928C90.1032 46.6781 89.9385 46.7811 89.9591 46.8222C89.9797 46.8634 90.4121 46.5134 90.6591 46.6369C90.8856 46.7399 90.9062 47.234 90.8032 47.584C90.6385 48.2634 90.0209 48.634 89.6297 48.8811C88.8474 49.3546 88.5591 49.1899 87.3444 49.7458C86.5621 50.0958 86.3356 50.2193 86.3356 50.2193C86.3356 50.2193 85.265 49.2722 83.7209 47.934C82.6915 46.9869 82.1356 46.3075 82.1356 46.3075Z" fill="#EEC795"/>
<path d="M101.712 52.9153C100.395 52.5241 98.9328 53.9653 98.8092 54.0888C97.4916 55.427 97.6563 56.9711 97.3063 60.2035C97.0387 62.6123 96.6681 65.7623 95.2681 68.8917C94.3416 70.93 93.621 72.5564 91.9534 73.2976C89.5651 74.327 86.8063 72.8653 85.4063 72.1241C81.2475 69.9006 78.324 66.8741 78.324 66.8741C78.324 66.8741 78.0769 68.4388 76.924 69.6535C75.6887 70.9711 73.9181 71.2594 73.9181 71.2594C73.9181 71.2594 73.8151 72.3917 79.9298 76.5094C83.5534 78.9388 84.8093 79.5153 85.6122 79.8241C87.3828 80.5241 88.7828 81.1005 90.6563 81.1211C94.4034 81.1417 97.1416 78.9388 97.8416 78.3417C100.045 76.427 100.847 73.8535 102.453 68.6858C104.203 63.0447 104.121 60.327 104.059 59.3594C103.997 57.877 103.75 53.5123 101.712 52.9153Z" fill="#00154A"/>
<path d="M78.3464 66.9981C76.5758 65.7628 75.7729 64.4451 75.4229 63.6834C74.7435 62.2422 74.5582 60.9657 74.5582 60.9657C74.3317 59.4834 74.5994 58.701 74.0641 58.3304C73.6729 58.0422 72.9935 58.0834 72.6435 58.3922C72.3141 58.6804 72.2935 59.1539 72.2935 59.4628C72.2729 60.8216 73.1994 61.4598 72.9317 61.8922C72.6435 62.3863 71.2229 62.0363 70.9347 61.9539C69.6582 61.6451 69.3288 61.0687 68.0111 60.8834C67.1258 60.7598 66.8582 60.8834 66.7141 61.0275C66.4464 61.3157 66.4464 61.8304 66.57 62.1804C66.7552 62.7363 67.2699 62.9834 67.2082 63.0863C67.1464 63.1687 66.817 62.9216 66.467 63.0451C66.1582 63.1481 65.8905 63.5186 65.8905 63.8686C65.9111 64.4657 66.7347 64.7539 66.6317 65.0216C66.5494 65.2275 66.0552 65.0422 65.6641 65.351C65.3347 65.6187 65.1494 66.1745 65.3141 66.5657C65.5611 67.1834 66.4876 67.101 66.6111 67.5951C66.6935 67.9863 66.1788 68.2128 66.2199 68.6245C66.2611 69.0569 66.817 69.3451 67.517 69.6334C68.6905 70.1069 69.617 70.251 71.7376 70.6628C72.0052 70.7039 72.6023 70.8275 73.3641 71.0539C73.6317 71.1363 73.8582 71.1981 73.9817 71.2598C74.7229 71.0745 75.2788 70.8069 75.6699 70.601C76.0611 70.3745 76.617 70.0451 77.1317 69.4481C77.5023 69.0157 77.6876 68.6039 77.8935 68.1922C78.0994 67.7392 78.2435 67.3069 78.3464 66.9981Z" fill="#EEC795"/>
<path d="M71.325 64.3221C71.325 64.3221 71.2632 64.3221 71.1397 64.3427C71.0162 64.3427 70.8515 64.3633 70.625 64.3427C70.2132 64.3221 69.6368 64.2398 69.1015 64.0957C68.9574 64.0545 68.8338 64.0133 68.7103 63.9721C68.5868 63.931 68.4632 63.8692 68.3397 63.828C68.0926 63.7251 67.8868 63.6015 67.7015 63.4986C67.3309 63.2721 67.125 63.1074 67.125 63.1074C67.125 63.1074 67.1868 63.128 67.2897 63.1898C67.3927 63.2515 67.5574 63.3133 67.7426 63.3957C68.1132 63.5604 68.6279 63.7663 69.1632 63.9104C69.6985 64.0751 70.2338 64.178 70.6456 64.2398C70.8515 64.281 71.0162 64.3015 71.1397 64.3221C71.2632 64.3221 71.325 64.3221 71.325 64.3221Z" fill="#C69C6D"/>
<path d="M69.3693 65.8859C69.3693 65.8859 69.184 65.9271 68.8957 65.9271C68.6075 65.9271 68.2369 65.8859 67.8869 65.783C67.7016 65.7212 67.5369 65.6595 67.3722 65.5977C67.2075 65.5154 67.0634 65.4536 66.9604 65.3712C66.7134 65.2271 66.5898 65.083 66.5898 65.083C66.5898 65.083 66.7546 65.1448 67.0222 65.2477C67.1457 65.2889 67.2898 65.3507 67.4546 65.4124C67.6193 65.4742 67.784 65.5359 67.9693 65.5771C68.3193 65.6801 68.6693 65.7624 68.9369 65.8036C69.184 65.8448 69.3693 65.8859 69.3693 65.8859Z" fill="#C69C6D"/>
<path d="M70.069 68.6458C70.069 68.6458 69.8219 68.6458 69.4514 68.584C69.0808 68.5428 68.6072 68.4193 68.1337 68.2546C67.6602 68.0899 67.2278 67.884 66.919 67.6781C66.6102 67.4928 66.4043 67.3281 66.4043 67.3281C66.4043 67.3281 66.6308 67.4311 66.9602 67.5752C67.2896 67.7193 67.7425 67.9046 68.1955 68.0487C68.6484 68.2134 69.1014 68.3575 69.4514 68.4605C69.8219 68.584 70.069 68.6458 70.069 68.6458Z" fill="#C69C6D"/>
<path d="M85.4688 181.798C86.6423 181.778 88.207 181.736 90.0187 181.592C90.8217 181.531 93.1893 181.325 96.5246 180.769C99.2423 180.316 103.154 179.513 107.992 178.092C108.157 178.895 108.322 179.698 108.466 180.501C105.398 181.098 102.948 181.592 101.239 181.942C99.1805 182.354 97.1217 182.725 95.0629 183.157C94.8158 183.219 93.9511 183.404 92.7776 183.589C91.8923 183.733 91.1511 183.857 90.1835 183.919C88.3511 184.042 87.4452 184.083 86.6629 183.569C86.3129 183.301 85.7776 182.828 85.4688 181.798Z" fill="#7486B3"/>
<path d="M95.2275 175.107C95.8246 175.992 96.4011 176.878 96.9981 177.763L98.2334 176.857L95.7834 174.469C95.5981 174.675 95.4128 174.881 95.2275 175.107Z" fill="#CCCCCC"/>
<path d="M104.328 179.102C104.163 178.257 104.225 177.557 104.308 177.125C104.411 176.549 104.822 174.799 106.346 173.852C106.655 173.666 106.943 173.543 107.149 173.481C107.416 175.046 107.684 176.61 107.952 178.175C106.737 178.484 105.522 178.793 104.328 179.102Z" fill="#CCCCCC"/>
<path d="M90.3506 176.898C90.3506 176.898 90.4329 176.919 90.5771 176.98C90.7212 177.042 90.9065 177.124 91.1329 177.269C91.3388 177.413 91.5859 177.577 91.8123 177.824C91.9153 177.948 92.0388 178.071 92.1212 178.216C92.2241 178.36 92.3065 178.504 92.3888 178.648C92.4712 178.792 92.5329 178.977 92.5741 179.121C92.6359 179.286 92.6565 179.451 92.6771 179.595C92.7182 179.904 92.7182 180.213 92.6976 180.46C92.6771 180.707 92.6153 180.913 92.5947 181.057C92.5535 181.201 92.5123 181.283 92.5123 181.283C92.5123 181.283 92.5329 181.201 92.5535 181.057C92.5741 180.913 92.5947 180.707 92.5947 180.46C92.5947 180.336 92.5947 180.192 92.5741 180.069C92.5535 179.924 92.5329 179.78 92.5123 179.636C92.4918 179.492 92.43 179.327 92.3888 179.183C92.3476 179.039 92.2859 178.895 92.2035 178.73C92.1212 178.586 92.0594 178.442 91.9565 178.298C91.8741 178.174 91.7712 178.03 91.6682 177.927C91.4623 177.701 91.2565 177.495 91.0712 177.351C90.8653 177.207 90.7006 177.083 90.5771 177.021C90.4329 176.939 90.3506 176.898 90.3506 176.898Z" fill="#CCCCCC"/>
<path d="M72.3338 56.4579C72.8073 56.5814 74.2279 53.6991 74.7014 50.4461C74.9073 49.0256 75.2573 46.452 74.1661 45.8344C72.869 45.0932 70.6455 47.6873 69.5543 46.905C69.0191 46.5344 69.3691 45.8138 68.8132 43.6932C68.4426 42.3138 68.2367 41.5109 67.6396 41.2226C66.8779 40.852 65.869 41.4903 64.0985 42.7256C59.672 45.8138 58.622 46.905 57.9838 46.5962C57.1808 46.1844 57.8602 43.9814 57.9838 41.655C57.9838 41.655 58.2926 35.4991 53.9073 29.8579C49.2338 23.8462 40.8749 23.4962 35.7485 23.2903C27.1014 22.9197 18.2753 24.6649 15.4547 26.0031C12.0371 27.5884 6.19074 30.7936 1.8878 39.1936C0.920156 41.0877 0.0655517 45.5667 0.00378697 48.5932C-0.160919 55.4491 5.09259 59.8138 6.86318 61.4814C16.3338 70.3755 29.8602 68.7491 32.022 68.4814C35.7896 68.0285 45.3632 66.8756 51.4779 59.8961C52.7338 58.4756 56.8102 53.4108 62.6367 48.305C63.172 47.8314 65.972 45.4226 67.0632 46.1638C68.0926 46.8432 66.9191 49.7667 67.9279 50.302C68.9573 50.8579 70.8102 48.0991 71.922 48.5932C73.5485 49.3138 71.6132 56.252 72.3338 56.4579Z" fill="#C7D5DB"/>
<path d="M41.8828 43.9183C45.7534 43.8153 49.6034 43.7124 53.474 43.5889C53.6799 47.5624 53.9063 51.5153 54.1122 55.4889L42.6446 56.1271L42.0887 47.0683L41.8828 43.9183Z" fill="#B3B3B3"/>
<path fill-rule="evenodd" clip-rule="evenodd" d="M47.971 46.6126C49.8514 46.5468 51.7342 46.4809 53.6132 46.4102L53.6209 46.6159C51.7363 46.6868 49.8555 46.7526 47.9773 46.8183C46.0336 46.8864 44.0927 46.9543 42.1533 47.0277L42.1455 46.8219C44.0804 46.7487 46.0244 46.6807 47.971 46.6126Z" fill="#FF7070"/>
<path fill-rule="evenodd" clip-rule="evenodd" d="M47.9621 49.1994C46.0475 49.2869 44.1327 49.3744 42.2178 49.4567L42.209 49.251C44.1235 49.1687 46.0381 49.0812 47.9528 48.9937C49.8675 48.9062 51.7824 48.8187 53.6972 48.7363L53.7061 48.942C51.7915 49.0244 49.877 49.1119 47.9622 49.1994L47.9621 49.1994Z" fill="#FF7070"/>
<path fill-rule="evenodd" clip-rule="evenodd" d="M53.9359 52.2569L42.427 52.8745L42.416 52.6689L53.9248 52.0513L53.9359 52.2569Z" fill="#FF7070"/>
<path fill-rule="evenodd" clip-rule="evenodd" d="M11.3123 56.1692L7.60645 38.3192L7.80803 38.2773L11.5139 56.1273L11.3123 56.1692Z" fill="#4D4D4D"/>
<path fill-rule="evenodd" clip-rule="evenodd" d="M40.598 50.5487L5.98923 53.8428L5.96973 53.6379L40.5785 50.3438L40.598 50.5487Z" fill="#4D4D4D"/>
<path fill-rule="evenodd" clip-rule="evenodd" d="M39.9584 45.1957L5.34959 48.4898L5.33008 48.2848L39.9389 44.9907L39.9584 45.1957Z" fill="#4D4D4D"/>
<path fill-rule="evenodd" clip-rule="evenodd" d="M38.8891 39.183L4.28025 42.4771L4.26074 42.2721L38.8696 38.978L38.8891 39.183Z" fill="#4D4D4D"/>
<path fill-rule="evenodd" clip-rule="evenodd" d="M26.8343 37.9637C26.5699 37.8003 26.2861 37.702 26.0112 37.7586L26.0101 37.7588C25.6925 37.8223 25.467 38.0748 25.1322 38.577L25.1313 38.5783C24.3687 39.704 23.8984 40.6989 23.6293 41.2681C23.5972 41.336 23.568 41.3978 23.5415 41.453L23.5274 41.4839C22.8829 42.8937 22.5441 43.6348 22.0763 44.2305C22.0659 44.2439 22.0554 44.2575 22.0449 44.2712C21.777 44.6186 21.4628 45.0262 21.1182 45.3397C20.7633 45.6626 20.3351 45.9241 19.854 45.8734C19.588 45.8454 19.3451 45.681 19.0862 45.4379C18.8239 45.1917 18.5126 44.8323 18.1131 44.3612C17.8898 44.1014 17.7093 43.8781 17.5559 43.688L17.5507 43.6816C17.3984 43.4929 17.2759 43.3411 17.1621 43.2151C16.9386 42.9676 16.7637 42.8364 16.5055 42.7582C16.0161 42.6326 15.5761 42.7758 15.4549 42.8161C14.9036 43.0159 14.5392 43.4764 14.2261 44.1125C14.0699 44.43 13.9307 44.7824 13.7875 45.1562C13.7657 45.2131 13.7438 45.2705 13.7218 45.3283C13.6 45.6477 13.4736 45.9794 13.3322 46.3063L13.3314 46.3082C12.8294 47.4377 11.9927 48.9427 10.3859 50.5496L10.0947 50.2584C11.658 48.6951 12.4684 47.2357 12.9547 46.1419C13.092 45.8244 13.2146 45.5026 13.3363 45.1834C13.3586 45.1251 13.3807 45.067 13.403 45.0089C13.5461 44.6351 13.6912 44.2669 13.8567 43.9307C14.1866 43.2603 14.6142 42.6816 15.3175 42.4279L15.3199 42.4271L15.3239 42.4257C15.4561 42.3817 15.9976 42.2011 16.6126 42.3606L16.6163 42.3615L16.6201 42.3627C16.9774 42.4699 17.2136 42.6577 17.4677 42.9392C17.5892 43.0737 17.718 43.2333 17.8658 43.4164L17.8763 43.4294C18.0297 43.6194 18.2068 43.8386 18.4258 44.0933L18.4268 44.0944C18.8301 44.57 19.1259 44.9105 19.368 45.1377C19.6135 45.3681 19.772 45.4508 19.8972 45.4639C20.1984 45.4956 20.5114 45.3351 20.8411 45.0351C21.1582 44.7466 21.4529 44.3646 21.7274 44.0086L21.7519 43.9768C22.1861 43.4242 22.5045 42.731 23.1678 41.2801L23.1686 41.2784L23.1694 41.2766C23.1956 41.222 23.2248 41.1603 23.257 41.0921C23.5261 40.5226 24.0089 39.5011 24.7901 38.3479C25.1138 37.8624 25.4234 37.4565 25.9287 37.3551C26.3537 37.2679 26.749 37.4269 27.0508 37.6134C27.3204 37.7801 27.542 37.986 27.6708 38.1057C27.6869 38.1206 27.7016 38.1343 27.7147 38.1463L27.718 38.1493L27.7212 38.1525C28.4548 38.8861 28.6882 39.6511 29.0146 40.7211C29.093 40.978 29.1768 41.2526 29.2741 41.5485L29.275 41.551L29.2757 41.5536C29.3757 41.8867 29.6748 42.6061 30.2419 43.9699C30.3531 44.2374 30.4746 44.5296 30.6069 44.8486L30.6071 44.8489C31.3381 46.6198 31.7859 47.5589 32.0833 48.0538C32.2328 48.3024 32.3351 48.423 32.4047 48.4812C32.4624 48.5295 32.4911 48.5304 32.5168 48.5304H32.5207L32.5247 48.5306C32.5898 48.5331 32.6693 48.5089 32.7755 48.4162C32.8844 48.3211 33.0062 48.1668 33.1476 47.9402C33.4308 47.4866 33.7595 46.7996 34.2045 45.8682L34.2048 45.8675C34.5789 45.0911 34.8204 44.5009 35.0157 44.0237C35.1047 43.8061 35.1841 43.612 35.2621 43.4344C35.51 42.8701 35.7391 42.4873 36.2025 42.1477C36.7631 41.7222 37.6603 41.3622 39.1258 41.5109L39.0842 41.9206C37.7099 41.7811 36.9191 42.1204 36.4502 42.4767L36.4487 42.4778L36.4472 42.4789C36.0675 42.7568 35.8748 43.0635 35.6391 43.6C35.5673 43.7635 35.491 43.9498 35.4041 44.1622C35.207 44.6437 34.9551 45.259 34.5758 46.0461C34.5758 46.0462 34.5759 46.0461 34.5758 46.0461L34.5714 46.0554C34.1334 46.9721 33.7944 47.6818 33.4969 48.1582C33.3476 48.3974 33.2004 48.5918 33.0462 48.7264C32.8903 48.8625 32.7137 48.9487 32.5128 48.9422C32.3956 48.9415 32.2737 48.9084 32.1405 48.7971C32.0178 48.6945 31.8872 48.5268 31.7304 48.2659C31.4153 47.7417 30.9573 46.7765 30.2265 45.0062C30.0952 44.6898 29.9742 44.3987 29.863 44.1314C29.2994 42.7762 28.9895 42.0309 28.8821 41.6746C28.8824 41.6755 28.8827 41.6763 28.883 41.6771L29.0785 41.6128L28.8813 41.672C28.8816 41.6728 28.8819 41.6737 28.8821 41.6746C28.7769 41.3545 28.6884 41.0659 28.6076 40.8025C28.2853 39.7513 28.0859 39.101 27.4331 38.4468C27.4342 38.4478 27.4354 38.4488 27.4365 38.4499L27.5756 38.2981L27.43 38.4437C27.431 38.4447 27.4321 38.4457 27.4331 38.4468C27.4194 38.4342 27.4048 38.4206 27.3893 38.4063C27.2589 38.2854 27.0671 38.1076 26.8343 37.9637Z" fill="#39B54A"/>
<path fill-rule="evenodd" clip-rule="evenodd" d="M12.2715 47.7564L12.4519 47.6572L18.878 59.3429L23.9475 58.0248L23.9994 58.2241L18.7748 59.5825L12.2715 47.7564Z" fill="#2E3192"/>
<path d="M23.9717 57.2189L24.4452 58.9277L33.6276 57.4866L33.2981 55.5513L23.9717 57.2189Z" fill="#2E3192"/>
<path fill-rule="evenodd" clip-rule="evenodd" d="M30.8426 31.9731L35.0994 31.6065L35.0817 31.4014L30.7326 31.7759L26.4844 37.4955L26.6497 37.6183L30.8426 31.9731Z" fill="#FF7070"/>
<path d="M34.9268 30.517V32.6582L42.9562 32.2258C42.9562 31.5052 42.9562 30.764 42.9562 30.0435C40.2797 30.1876 37.8091 30.3523 34.9268 30.517Z" fill="#FF7070"/>
<path d="M78.449 27.3254C77.6872 27.0372 75.9784 26.5225 73.9402 27.0372C73.0137 27.2637 72.2725 27.6343 71.7578 27.9637C71.7784 28.6225 71.8608 29.6313 72.2931 30.7431C72.6843 31.7725 73.2196 32.5343 73.6108 33.0284C74.1666 33.1519 75.0108 33.296 75.999 33.2137C76.9666 33.1313 77.7284 32.8842 78.2431 32.6784C78.4902 32.246 79.0049 31.2784 79.0255 29.9401C79.0666 28.7048 78.6755 27.7784 78.449 27.3254ZM77.8725 32.246C77.4402 32.4313 76.7813 32.6372 75.9578 32.699C75.1137 32.7607 74.3931 32.6578 73.9196 32.5548C73.5902 32.1431 73.1372 31.4842 72.7872 30.599C72.4166 29.6313 72.3343 28.7872 72.3343 28.2313C72.7872 27.9431 73.4049 27.6343 74.1872 27.449C75.9166 27.0166 77.3784 27.4695 78.0166 27.696C78.2019 28.0666 78.5519 28.8695 78.5313 29.899C78.5313 31.0313 78.099 31.8754 77.8725 32.246Z" fill="black"/>
<path d="M88.4129 25.595C87.6511 25.3067 85.9423 24.792 83.904 25.3067C82.9776 25.5332 82.2364 25.9038 81.7217 26.2332C81.7423 26.892 81.8246 27.9008 82.257 29.0126C82.6482 30.042 83.1834 30.8038 83.5746 31.2979C84.1305 31.4214 84.9746 31.5655 85.9629 31.4832C86.9305 31.4008 87.6923 31.1538 88.207 30.9479C88.454 30.5155 88.9687 29.5479 88.9893 28.2097C89.0511 26.9538 88.6393 26.0273 88.4129 25.595ZM87.8364 30.495C87.404 30.6802 86.7452 30.8861 85.9217 30.9479C85.0776 31.0097 84.357 30.9067 83.8834 30.8038C83.554 30.392 83.1011 29.7332 82.7511 28.8479C82.3805 27.8803 82.2982 27.0361 82.2982 26.4803C82.7511 26.192 83.3687 25.8832 84.1511 25.6979C85.8805 25.2655 87.3423 25.7185 87.9805 25.945C88.1658 26.3155 88.5158 27.1185 88.4952 28.1479C88.4952 29.3008 88.0629 30.1244 87.8364 30.495Z" fill="black"/>
<path d="M87.5674 41.8797C87.5674 41.8797 87.6086 41.8179 87.6909 41.6944C87.7733 41.5709 87.8762 41.3856 87.9997 41.1385C88.1233 40.8915 88.2468 40.5826 88.3291 40.2326C88.3703 40.0473 88.4115 39.862 88.4733 39.6562C88.5144 39.5532 88.5556 39.4503 88.638 39.3473C88.6791 39.3062 88.7203 39.265 88.7615 39.2238C88.8027 39.1826 88.8644 39.162 88.9056 39.1209C89.1321 39.0179 89.3791 38.9767 89.6468 38.9973C89.9144 39.0385 90.1821 39.162 90.3468 39.3885C90.5321 39.615 90.5938 39.9032 90.6144 40.1914C90.635 40.4797 90.5733 40.7885 90.4703 41.0562C90.2438 41.612 89.7909 42.0856 89.3174 42.4562C89.0703 42.6414 88.8233 42.8267 88.5556 42.9914L88.4733 43.0532L88.4321 43.0944L88.4115 43.115C88.4115 43.0944 88.4115 43.0738 88.4115 43.0532C88.4115 43.0326 88.3291 42.9709 88.3703 42.9914C88.3703 42.9914 88.3909 42.9914 88.3703 42.9914C88.3497 42.9914 88.3497 42.9914 88.3291 42.9914C88.3086 42.9914 88.3086 42.9914 88.3086 42.9914H88.3291L88.3703 42.9709C88.4115 42.9503 88.4527 42.9297 88.4733 42.9297C88.638 42.8679 88.8027 42.8267 88.988 42.8679C89.338 42.9091 89.6262 43.1562 89.7909 43.4444C89.8733 43.5885 89.935 43.7532 89.9556 43.9179C89.9762 44.0826 89.9556 44.2679 89.8733 44.412C89.7909 44.5562 89.6674 44.6797 89.5644 44.7826C89.5233 44.8238 89.4615 44.9267 89.4615 44.9267V44.9473C89.4409 44.9473 89.4615 44.9267 89.4615 44.9062V44.8856C89.4821 44.8856 89.5027 44.9062 89.5438 44.9062C89.688 44.9267 89.8527 44.9473 89.9968 45.0503C90.1409 45.1326 90.2439 45.2562 90.3262 45.4003C90.738 45.9562 90.1821 46.7797 89.8115 46.8003H89.7909C89.7909 46.8003 89.8115 46.8003 89.8115 46.7797L89.8527 46.7591L89.935 46.6973C89.9968 46.6562 90.0586 46.615 90.1203 46.5944C90.1821 46.5738 90.2439 46.5326 90.3262 46.5326C90.388 46.512 90.4909 46.5326 90.5527 46.5738C90.6968 46.6562 90.738 46.8003 90.7791 46.9238C90.7997 46.9856 90.7997 47.0473 90.8203 47.1091C90.8203 47.1709 90.8409 47.2326 90.8203 47.2944C90.8203 47.5414 90.7174 47.7679 90.6144 47.9532C90.5115 48.1385 90.3674 48.3032 90.2439 48.4473C89.9762 48.7356 89.688 48.9003 89.4409 49.0032C89.1938 49.1061 88.9674 49.1473 88.8438 49.1679C88.6997 49.1885 88.6174 49.1885 88.6174 49.1885C88.6174 49.1885 88.6997 49.1885 88.8438 49.1473C88.988 49.1062 89.1938 49.065 89.4409 48.9414C89.688 48.8179 89.9762 48.6532 90.2233 48.365C90.3468 48.2209 90.4703 48.0767 90.5733 47.8914C90.6762 47.7062 90.738 47.5003 90.738 47.2738C90.738 47.212 90.738 47.1709 90.7174 47.1091C90.7174 47.0473 90.6968 47.0062 90.6762 46.9444C90.6556 46.8414 90.5938 46.7179 90.5115 46.6767C90.4291 46.615 90.3262 46.6562 90.2027 46.7179C90.1409 46.7385 90.0997 46.7797 90.038 46.8209L89.9556 46.8826L89.9144 46.9032L89.8939 46.9238H89.8733C89.8733 46.9238 89.8527 46.9444 89.8321 46.9444C89.8115 46.9444 89.7909 46.9444 89.7909 46.9444C89.7291 46.9032 89.7497 46.9032 89.7291 46.862C89.7291 46.8209 89.7497 46.8003 89.7497 46.8003C89.7703 46.7797 89.7703 46.7591 89.7909 46.7591L89.8527 46.6767C89.8938 46.6356 89.9556 46.5738 89.9968 46.5326C90.0791 46.4297 90.1615 46.3267 90.2233 46.2032C90.285 46.0797 90.3056 45.9767 90.3056 45.8326C90.3056 45.7091 90.2438 45.5856 90.1821 45.462C90.1203 45.3591 90.0174 45.2562 89.9144 45.1738C89.8115 45.112 89.6674 45.0709 89.5233 45.0503C89.4821 45.0503 89.4409 45.0297 89.3791 45.0091C89.3586 45.0091 89.3586 44.9885 89.338 44.9885C89.3174 44.9679 89.2968 44.9473 89.2968 44.9473V44.9267C89.2968 44.9267 89.2968 44.9267 89.2968 44.9062V44.8856C89.2968 44.865 89.2968 44.8444 89.2968 44.8238C89.2968 44.7414 89.338 44.7003 89.3586 44.6591C89.3791 44.6179 89.4203 44.5973 89.4409 44.5767C89.5438 44.4738 89.6468 44.3709 89.7086 44.2473C89.8321 44.0003 89.7703 43.712 89.6262 43.465C89.4821 43.2179 89.235 43.0326 88.9674 42.9914C88.8439 42.9709 88.6997 42.9914 88.5556 43.0532C88.5144 43.0738 88.4939 43.0738 88.4527 43.0944L88.3909 43.115C88.3909 43.115 88.3703 43.115 88.3497 43.1356C88.3497 43.1356 88.288 43.1562 88.2674 43.1356C88.2468 43.1356 88.2468 43.1356 88.2468 43.1356C88.2674 43.1562 88.2056 43.0944 88.2056 43.0738C88.2056 43.0532 88.2056 43.012 88.2056 42.9914C88.2056 42.9914 88.2056 42.9709 88.2262 42.9709C88.2262 42.9503 88.2468 42.9503 88.2468 42.9503L88.2674 42.9297L88.3086 42.8885L88.4115 42.8267C88.6791 42.662 88.9262 42.4767 89.1527 42.2915C89.6262 41.9209 90.038 41.4885 90.2644 40.9738C90.3674 40.7267 90.4086 40.4385 90.4086 40.1709C90.4086 39.9032 90.3468 39.6356 90.1821 39.4503C90.038 39.2444 89.8115 39.1415 89.5644 39.1003C89.338 39.0591 89.0909 39.1003 88.885 39.1826C88.6791 39.2856 88.5556 39.4503 88.4733 39.6356C88.4115 39.8209 88.3497 40.0267 88.3086 40.212C88.2056 40.5826 88.0615 40.8709 87.938 41.1179C87.8144 41.365 87.6909 41.5297 87.6086 41.6532C87.6086 41.8179 87.5674 41.8797 87.5674 41.8797Z" fill="#C69C6D"/>
<path d="M81.001 40.624C81.001 40.624 81.1451 40.624 81.3304 40.6652C81.4333 40.6858 81.5363 40.727 81.6598 40.7681C81.7833 40.8093 81.9069 40.8711 82.0304 40.9328C82.2774 41.077 82.4833 41.2417 82.6275 41.3858C82.7716 41.5299 82.8539 41.6534 82.8539 41.6534C82.8539 41.6534 82.7304 41.5917 82.5657 41.4887C82.401 41.3858 82.1745 41.2417 81.948 41.1181C81.7216 40.9946 81.4951 40.8711 81.3098 40.7681C81.1245 40.6858 81.001 40.624 81.001 40.624Z" fill="#C69C6D"/>
<path d="M90.4521 39.6569C90.4521 39.6569 90.5551 39.5128 90.6992 39.3275C90.8639 39.1422 91.0698 38.8745 91.2757 38.6275C91.4816 38.3804 91.6874 38.1128 91.8521 37.9275C92.0169 37.7422 92.1198 37.6187 92.1198 37.6187C92.1198 37.6187 92.058 37.7834 91.9345 37.9892C91.811 38.2157 91.6257 38.4834 91.4198 38.751C91.2139 39.0187 90.9668 39.2451 90.7816 39.4098C90.5963 39.5745 90.4521 39.6569 90.4521 39.6569Z" fill="#C69C6D"/>
<path d="M92.2246 25.6371C92.6364 24.9989 93.2746 24.6077 93.8923 24.6695C94.9217 24.7724 95.3334 26.1106 95.3952 26.3371C95.8276 27.7783 94.9011 29.0548 94.6952 29.343C94.1805 30.043 93.5628 30.4342 93.1923 30.6401" fill="#EEC795"/>
<path d="M92.8193 26.6452C92.8193 26.6452 92.8605 26.604 92.9429 26.5628C93.0252 26.5216 93.1282 26.4599 93.2723 26.3981C93.4164 26.3569 93.6017 26.2952 93.8076 26.3363C93.9105 26.3569 94.034 26.3981 94.1164 26.501C94.1576 26.5422 94.1987 26.604 94.1987 26.6657C94.2193 26.7275 94.2399 26.7687 94.2399 26.8304C94.2605 27.0569 94.2193 27.2628 94.1576 27.4481C94.1164 27.5304 94.0752 27.6334 94.034 27.6952C93.9929 27.7775 93.9311 27.8393 93.8899 27.901C93.787 28.0246 93.7046 28.1069 93.6223 28.1687C93.5605 28.2304 93.5193 28.251 93.5193 28.251C93.5193 28.251 93.5399 28.2099 93.6017 28.1481C93.6223 28.1069 93.6635 28.0657 93.684 28.0246C93.7252 27.9834 93.7458 27.9216 93.787 27.8599C93.8282 27.7981 93.8487 27.7157 93.8899 27.654C93.9311 27.5716 93.9517 27.4893 93.9723 27.4069C93.9929 27.3246 94.0134 27.2422 94.034 27.1393C94.034 27.0569 94.0546 26.954 94.034 26.8716C94.0134 26.7893 93.9929 26.7069 93.9517 26.6452C93.9105 26.5834 93.8487 26.5422 93.7664 26.5216C93.6017 26.4804 93.437 26.501 93.2929 26.5216C93.1487 26.5422 93.0252 26.5834 92.9429 26.604C92.8605 26.6246 92.8193 26.6452 92.8193 26.6452Z" fill="#C69C6D"/>
<path d="M73.8379 71.7554C73.8379 71.7554 73.9614 71.8789 74.1879 72.0848C74.4144 72.2907 74.7232 72.5789 75.1144 72.9289C75.5055 73.2789 75.9585 73.6701 76.4732 74.0818C76.9673 74.4936 77.5232 74.926 78.0791 75.3171C78.6349 75.7289 79.2114 76.1201 79.7467 76.4701C80.3026 76.8201 80.8173 77.1495 81.2702 77.3966C81.7232 77.6642 82.0938 77.8701 82.3614 78.0142C82.6291 78.1583 82.7732 78.2407 82.7732 78.2407C82.7732 78.2407 82.6085 78.1789 82.3408 78.0554C82.0732 77.9318 81.6614 77.7466 81.2085 77.4995C80.7555 77.2524 80.2202 76.9642 79.6644 76.6142C79.1085 76.2642 78.532 75.8936 77.9555 75.4818C77.3997 75.0701 76.8438 74.6377 76.3497 74.2054C75.8555 73.773 75.4026 73.3613 75.032 72.9907C74.6614 72.6201 74.3732 72.3113 74.1673 72.0848C73.9408 71.8995 73.8379 71.7554 73.8379 71.7554Z" fill="#000512"/>
<path d="M78.6348 67.1836C78.6348 67.1836 79.0465 67.513 79.7877 68.0894C80.5289 68.6659 81.5789 69.4688 82.8759 70.4159C83.5142 70.8894 84.2142 71.4041 84.9965 71.8983C85.3877 72.1453 85.7789 72.3718 86.2112 72.5777C86.6436 72.7836 87.0965 72.9483 87.5701 73.1336C88.0436 73.2983 88.5171 73.4424 89.0318 73.5247C89.5259 73.6071 90.0406 73.6277 90.5554 73.5453C90.6789 73.5247 90.8024 73.5041 90.9259 73.463C91.0495 73.4424 91.173 73.4012 91.2965 73.36C91.5436 73.2777 91.7701 73.1747 91.9965 73.0306C92.4495 72.7836 92.8612 72.4336 93.2112 72.063C93.5818 71.6718 93.8906 71.26 94.2201 70.8277C94.5289 70.3953 94.7965 69.9424 95.0024 69.4689C95.4348 68.5218 95.6818 67.513 95.9083 66.5453C96.1348 65.5777 96.3612 64.6306 96.4848 63.7247C96.6289 62.8188 96.7524 61.9541 96.8759 61.1718C97.1436 59.5865 97.4318 58.2894 97.6377 57.363C97.8436 56.4571 97.9671 55.9424 97.9671 55.9424C97.9671 55.9424 97.8436 56.4571 97.6583 57.3836C97.473 58.2894 97.2259 59.6071 96.9789 61.1924C96.8554 61.9747 96.7318 62.8394 96.6083 63.7453C96.4848 64.6512 96.2583 65.5983 96.0524 66.5865C95.8259 67.5541 95.5789 68.5836 95.1465 69.5512C94.9201 70.0453 94.6524 70.4983 94.3436 70.9512C94.0348 71.3836 93.7054 71.8159 93.3348 72.2071C92.9642 72.5983 92.5318 72.9483 92.0583 73.2159C91.8318 73.36 91.5642 73.463 91.3171 73.5453C91.0701 73.6277 90.8024 73.6894 90.5348 73.7306C89.9995 73.813 89.4642 73.7924 88.9495 73.71C88.4348 73.6277 87.9406 73.463 87.4671 73.2983C86.9936 73.113 86.5406 72.9483 86.0877 72.7424C85.6554 72.5365 85.2436 72.2894 84.8524 72.0218C84.0906 71.5071 83.3906 70.9718 82.7524 70.4983C81.4759 69.5306 80.4259 68.6865 79.7054 68.0894C79.0465 67.5336 78.6348 67.1836 78.6348 67.1836Z" fill="#000512"/>
<path d="M86.7051 80.3395C86.7051 80.3395 86.808 80.3807 86.9933 80.4631C87.1786 80.5454 87.4668 80.6278 87.8374 80.7513C88.208 80.8543 88.661 80.9572 89.1963 81.0396C89.7315 81.1219 90.3286 81.1631 90.9874 81.1425C91.6463 81.1219 92.3463 81.0395 93.0874 80.8543C93.808 80.669 94.5698 80.4013 95.2904 80.0307C95.661 79.8454 96.011 79.6395 96.3815 79.4131C96.7315 79.1866 97.0815 78.919 97.411 78.6513C98.0698 78.116 98.6668 77.4572 99.1815 76.7572C100.211 75.3366 100.89 73.6896 101.446 72.1454C101.714 71.3631 101.961 70.6013 102.208 69.8807C102.434 69.1601 102.661 68.4807 102.826 67.8425C103.176 66.566 103.423 65.4954 103.567 64.7337C103.711 63.9719 103.773 63.5396 103.773 63.5396C103.773 63.5396 103.732 63.9719 103.587 64.7337C103.464 65.4954 103.258 66.5866 102.929 67.8631C102.764 68.5013 102.558 69.2013 102.332 69.9219C102.105 70.6425 101.879 71.4043 101.59 72.1866C101.034 73.7513 100.376 75.3984 99.3257 76.8601C98.811 77.5807 98.1933 78.2395 97.5139 78.7954C97.1639 79.0631 96.8345 79.3307 96.4639 79.5572C96.0933 79.7837 95.7433 79.9895 95.3521 80.1748C94.611 80.5454 93.8286 80.8131 93.0874 80.9778C92.3463 81.1425 91.6257 81.2248 90.9668 81.2248C90.308 81.2454 89.6904 81.1631 89.1551 81.0807C88.6198 80.9778 88.1668 80.8748 87.7963 80.7513C87.4257 80.6278 87.1374 80.5248 86.9521 80.4425C86.808 80.3807 86.7051 80.3395 86.7051 80.3395Z" fill="#000512"/>
<path d="M84.4599 56.8901C84.4599 56.8901 84.4599 57.1372 84.4599 57.549C84.4599 57.9813 84.4804 58.5784 84.5216 59.299C84.5628 60.0195 84.6452 60.8637 84.7481 61.749C84.8716 62.6548 85.0363 63.6019 85.2216 64.5284C85.4069 65.4754 85.5922 66.4225 85.7363 67.3284C85.8804 68.2342 85.9422 69.0784 86.004 69.799C86.0246 70.1695 86.0246 70.499 86.0246 70.7872C86.0246 71.0754 86.0452 71.3431 86.0452 71.549C86.0452 71.9813 86.0452 72.2078 86.0452 72.2078C86.0452 72.2078 86.0246 71.9607 86.004 71.549C85.9834 71.1372 85.9422 70.5195 85.8804 69.799C85.8393 69.449 85.7981 69.0578 85.7569 68.646C85.6952 68.2343 85.6334 67.8019 85.5716 67.349C85.4275 66.4637 85.2216 65.5166 85.0363 64.5695C84.851 63.6225 84.6863 62.6548 84.5834 61.7695C84.4805 60.8637 84.4393 60.0195 84.4187 59.299C84.3981 58.5784 84.4187 57.9607 84.4393 57.549C84.4393 57.3431 84.4599 57.1784 84.4599 57.0548C84.4599 56.9519 84.4599 56.8901 84.4599 56.8901Z" fill="#000512"/>
<path d="M133.953 151.327C134.694 153.633 135.106 155.548 135.353 156.907C135.353 156.907 135.559 158.06 136.156 163.186H139.903C139.615 160.201 139.203 157.813 138.894 156.166C138.4 153.613 137.556 150.01 137.556 149.989L133.953 151.327Z" fill="#EEC795"/>
<path d="M120.222 152.151C120.222 152.151 121.642 156.413 121.745 158.472C121.848 160.53 122.425 165.533 122.425 165.533H126.172C126.172 165.533 125.739 159.233 125.636 157.298C125.533 155.363 123.804 150.627 123.804 150.627L120.222 152.151Z" fill="#EEC795"/>
<path d="M137.228 109.986C138.978 114.371 139.801 116.636 141.304 120.61L150.198 143.236C150.198 143.236 147.234 144.327 145.689 146.674C145.092 147.601 145.175 147.91 144.516 148.61C143.384 149.783 141.881 150.133 139.904 150.545C137.989 150.957 137.989 150.668 136.589 151.08C135.416 151.41 135.086 151.698 132.945 152.686C131.092 153.53 130.166 153.962 129.404 154.189C128.004 154.601 125.945 155.198 123.928 154.395C122.939 154.004 123.125 153.736 121.56 152.995C120.325 152.418 118.019 152.254 118.019 152.254C118.019 152.254 117.236 152.912 116.413 153.324C114.807 154.127 112.954 153.427 112.131 153.118C110.236 152.418 107.951 149.577 107.951 149.577C108.569 146.901 109.475 142.639 110.092 137.348C110.978 129.936 110.669 126.127 111.266 117.398C111.492 114.042 111.925 109.101 112.769 103.027C112.769 103.027 115.507 103.624 120.284 103.46C127.284 103.233 133.686 101.318 133.686 101.318C134.51 103.295 135.766 106.301 137.228 109.986Z" fill="#B3B3B3"/>
<path d="M109.084 62.9627C107.642 65.248 109.289 68.1304 110.298 71.548C110.978 73.8127 110.36 72.948 111.019 84.5598C111.184 87.6892 111.348 89.851 111.492 91.4363C111.657 93.3715 111.76 94.3392 111.822 96.0892C111.904 98.2098 111.966 99.5892 111.801 101.36C111.678 102.677 111.431 104.51 110.792 106.651L114.231 107.433L114.725 102.719C114.725 102.719 116.001 104.016 116.29 105.724C116.578 107.351 116.495 108.586 116.495 108.586C118.74 108.627 120.345 108.689 121.498 108.73C122.837 108.772 123.598 108.813 124.648 108.669C124.916 108.627 125.122 108.586 126.707 108.319C127.572 108.174 127.984 108.113 128.066 108.092C131.298 107.392 135.931 104.222 135.931 104.222C135.931 104.222 135.375 100.907 133.954 97.7568C131.278 91.7245 131.072 86.248 130.948 82.851C130.66 75.1921 133.151 74.1833 131.587 69.6539C129.734 64.2804 124.854 61.7686 124.072 61.398C119.666 59.2157 114.704 59.5245 111.307 61.1921C109.763 61.9539 109.269 62.6745 109.084 62.9627Z" fill="#00B1D9"/>
<path d="M110.092 61.46C109.269 62.0364 107.889 63.0041 106.304 63.1688C104.842 63.3335 102.66 62.9011 101.939 61.5217C101.342 60.3894 101.445 58.4541 101.445 58.4541C101.445 58.4541 100.272 58.0011 99.2218 57.157C98.9541 56.9511 97.6159 55.8806 97.5747 54.5835C97.5335 52.6894 100.086 50.4453 100.086 50.4453C100.086 50.4453 98.9953 49.7658 98.2335 48.4482C97.9865 48.0159 97.4306 46.8835 97.7394 45.5247C97.8012 45.257 98.1306 43.8364 99.2424 43.3011C100.086 42.91 101.034 42.8688 101.034 42.8688C101.034 42.8688 100.498 42.2511 100.313 41.4482C100.189 40.9129 100.334 40.2541 100.663 39.8011C101.445 38.7717 103.298 38.5864 103.298 38.5864C103.298 38.5864 102.639 37.7217 102.516 36.6511C102.413 35.8688 102.722 34.9011 103.381 34.3659C104.575 33.3776 106.736 33.5835 106.736 33.5835C106.736 33.5835 106.098 32.5335 106.16 31.2982C106.201 30.3306 106.839 29.61 107.231 29.157C107.622 28.7041 108.157 28.0864 109.022 27.86C110.463 27.4894 112.028 28.1482 112.028 28.1482C112.028 28.1482 111.657 26.9953 112.028 25.9247C112.439 24.71 113.963 24.2982 114.025 24.2776C114.107 24.257 115.486 23.9276 116.536 24.71C117.401 25.3482 117.875 26.2747 117.875 26.2747C117.875 26.2747 118.472 25.2864 119.378 24.9364C119.913 24.7306 120.613 24.8129 121.086 25.1423C121.786 25.6364 122.095 26.5423 122.095 26.5423C122.095 26.5423 122.507 26.1306 123.104 25.5335C123.289 25.3482 123.784 24.8747 124.401 24.6276C125.348 24.257 126.645 24.4629 127.531 25.2453C128.128 25.76 128.354 26.3982 128.457 26.7482C128.457 26.7482 129.486 25.9659 130.454 25.9659C131.278 25.9659 132.184 26.6659 132.389 27.4688C132.678 28.6629 131.607 30.1864 131.607 30.1864C131.607 30.1864 132.554 29.9188 133.46 30.1864C134.448 30.4747 135.21 31.5659 135.313 32.6982C135.334 32.8629 135.457 34.1806 134.592 34.9835C133.707 35.8482 132.307 35.9923 132.307 35.9923C132.307 35.9923 133.378 36.5894 133.666 37.4953C134.016 38.5864 133.089 40.1306 133.089 40.1306C133.089 40.1306 134.242 40.0482 135.313 40.4188C136.672 40.8923 137.784 42.5806 137.454 43.7129C137.104 44.9688 135.169 45.5658 135.169 45.5658C135.169 45.5658 136.672 45.0511 138.319 45.2158C138.586 45.2364 141.263 45.5453 142.395 47.7276C143.548 49.91 142.231 52.257 141.901 52.8747C141.51 53.5747 140.707 55.0364 139.184 55.4482C137.578 55.8806 135.684 55.4482 135.684 55.4482C135.684 55.4482 135.828 57.0335 135.189 58.0835C134.531 59.1747 132.781 59.607 131.463 59.3806C130.001 59.1129 128.684 58.3717 128.684 58.3717C128.684 58.3717 128.004 59.2776 127.036 60.0188C126.069 60.7394 124.71 61.007 123.598 60.8011C121.91 60.4717 120.448 59.2982 120.448 59.2982C120.139 59.7511 119.398 60.6982 118.081 61.2953C117.545 61.5423 116.475 62.0364 115.075 61.7894C113.469 61.5217 112.501 60.4923 112.213 60.1423C112.234 60.1011 111.307 60.6158 110.092 61.46Z" fill="#871B20"/>
<path d="M120.388 27.6548C117.444 28.0665 115.591 29.8783 114.52 30.9489C111.494 33.9342 110.711 37.5165 110.155 40.2342C109.291 44.4342 108.261 49.4783 111.308 53.1018C113.573 55.7989 116.97 56.3548 118.535 56.6018C120.017 56.8489 123.538 57.4254 126.832 55.3048C127.491 54.8724 130.703 52.8342 130.908 49.8077C131.011 48.2018 130.188 47.7901 129.838 44.5165C129.755 43.8165 129.632 42.5607 129.776 40.9342C130.003 38.2577 130.682 37.7636 130.703 36.0754C130.744 33.3165 128.973 31.1959 128.623 30.7842C126.585 28.3754 123.353 27.243 120.388 27.6548Z" fill="#EEC795"/>
<path d="M123.66 40.7272C123.145 40.9537 123.021 41.6331 122.96 41.9625C122.836 42.7243 122.98 43.7537 123.68 44.536C124.545 45.5037 126.171 45.9978 127.263 45.3184C127.901 44.9272 128.477 44.0831 128.271 43.3831C128.086 42.786 127.345 42.4978 127.057 42.3743C126.171 42.0243 125.76 42.3743 125.307 41.9831C124.874 41.5919 125.08 41.0772 124.607 40.7684C124.318 40.6037 123.927 40.6037 123.66 40.7272Z" fill="#EEB995"/>
<path d="M119.831 43.1364C120.195 43.1364 120.49 42.5096 120.49 41.7364C120.49 40.9632 120.195 40.3364 119.831 40.3364C119.467 40.3364 119.172 40.9632 119.172 41.7364C119.172 42.5096 119.467 43.1364 119.831 43.1364Z" fill="black"/>
<path d="M127.695 41.8191C128.024 41.8191 128.292 41.2476 128.292 40.5426C128.292 39.8376 128.024 39.2661 127.695 39.2661C127.365 39.2661 127.098 39.8376 127.098 40.5426C127.098 41.2476 127.365 41.8191 127.695 41.8191Z" fill="black"/>
<path d="M117.854 41.3054C117.854 41.3054 117.854 41.1201 117.978 40.8936C118.04 40.7701 118.122 40.6465 118.246 40.523C118.307 40.4612 118.369 40.3995 118.452 40.3583C118.534 40.3171 118.616 40.2554 118.699 40.2348C118.74 40.2142 118.781 40.2142 118.822 40.1936C118.863 40.173 118.904 40.173 118.946 40.1524C119.028 40.1318 119.131 40.1318 119.213 40.1318C119.378 40.1318 119.543 40.1524 119.666 40.2142C119.913 40.2965 120.057 40.4201 120.057 40.4201C120.057 40.4201 119.893 40.3583 119.646 40.3377C119.584 40.3377 119.522 40.3171 119.44 40.3171C119.378 40.3171 119.296 40.3171 119.213 40.3171C119.131 40.3171 119.069 40.3377 118.987 40.3583C118.946 40.3789 118.925 40.3789 118.884 40.3995C118.843 40.4201 118.802 40.4201 118.76 40.4407C118.472 40.5642 118.225 40.7907 118.081 40.9759C117.937 41.1407 117.854 41.3054 117.854 41.3054Z" fill="#C69C6D"/>
<path d="M125.926 39.5952C125.926 39.5952 125.988 39.4717 126.152 39.307C126.235 39.2246 126.338 39.1628 126.461 39.1011C126.585 39.0393 126.729 38.9981 126.873 38.9775C126.955 38.9775 127.017 38.9775 127.099 38.9775C127.182 38.9775 127.243 38.9981 127.305 38.9981C127.449 39.0187 127.552 39.0805 127.655 39.1217C127.84 39.2246 127.943 39.3481 127.943 39.3481C127.943 39.3481 127.82 39.2864 127.614 39.2246C127.511 39.204 127.408 39.1834 127.285 39.1628C127.223 39.1628 127.161 39.1628 127.099 39.1628C127.038 39.1628 126.976 39.1628 126.893 39.1834C126.77 39.204 126.646 39.2246 126.523 39.2658C126.399 39.3069 126.296 39.3481 126.214 39.4099C126.049 39.5128 125.926 39.5952 125.926 39.5952Z" fill="#C69C6D"/>
<path d="M116.476 50.2388C116.476 50.2388 116.497 50.3005 116.518 50.3829C116.559 50.4858 116.6 50.6094 116.682 50.7535C116.765 50.8976 116.868 51.0623 117.012 51.227C117.073 51.3094 117.156 51.3711 117.238 51.4535C117.321 51.5152 117.423 51.5976 117.506 51.6388C117.547 51.6594 117.588 51.7005 117.65 51.7211C117.691 51.7417 117.753 51.7623 117.794 51.7829C117.897 51.8241 118 51.8652 118.103 51.8858C118.309 51.9476 118.494 51.9682 118.659 51.9682C118.823 51.9682 118.968 51.9682 119.071 51.9682C119.173 51.9682 119.235 51.9476 119.235 51.9476C119.235 51.9476 119.029 52.0505 118.679 52.0711C118.515 52.0917 118.288 52.0917 118.082 52.0505C117.979 52.0299 117.856 52.0094 117.753 51.9476C117.691 51.927 117.65 51.9064 117.588 51.8858C117.526 51.8652 117.485 51.8447 117.423 51.8035C117.321 51.7417 117.238 51.6594 117.135 51.5976C117.053 51.5152 116.971 51.4329 116.909 51.3505C116.765 51.1652 116.682 50.9799 116.621 50.8152C116.456 50.4652 116.476 50.2388 116.476 50.2388Z" fill="#C69C6D"/>
<path d="M110.895 43.0539C110.628 42.1686 109.887 41.551 109.063 41.4892C107.91 41.4069 107.231 42.5186 107.128 42.6627C106.51 43.6716 106.84 44.8039 107.025 45.401C107.231 46.0804 107.601 47.3569 108.795 47.7686C109.907 48.1598 110.957 47.5216 111.163 47.398" fill="#EEC795"/>
<path d="M110.299 46.4932C110.114 46.6784 109.846 46.802 109.578 46.7814C109.517 46.7814 109.434 46.7608 109.372 46.7608C109.311 46.7402 109.249 46.7196 109.187 46.6784C109.064 46.6167 108.961 46.5343 108.858 46.4314C108.817 46.3696 108.775 46.3284 108.734 46.2461C108.714 46.2049 108.714 46.1843 108.693 46.1432V46.1226V46.102V46.0814V46.0402C108.672 45.9784 108.672 45.8961 108.672 45.8343C108.672 45.7726 108.693 45.6902 108.693 45.6284C108.714 45.4843 108.755 45.3608 108.796 45.2373C108.837 45.1137 108.899 44.9902 108.961 44.8667L109.002 45.0108C108.837 44.9079 108.693 44.7843 108.549 44.6608C108.487 44.599 108.425 44.5167 108.364 44.4343C108.343 44.3932 108.302 44.352 108.281 44.3108L108.24 44.249L108.22 44.1873C108.137 44.002 108.096 43.7961 108.117 43.6108C108.117 43.4255 108.178 43.2196 108.302 43.0343C108.364 42.952 108.446 42.8696 108.528 42.8284C108.631 42.7873 108.734 42.7667 108.817 42.7461C109.022 42.7461 109.208 42.7873 109.372 42.849C109.558 42.9108 109.702 43.0343 109.846 43.1579C109.97 43.2814 110.093 43.4461 110.155 43.6108C110.052 43.4667 109.928 43.3226 109.805 43.199C109.661 43.0755 109.496 42.9932 109.352 42.952C109.187 42.9108 109.002 42.8696 108.837 42.8902C108.755 42.8902 108.672 42.9314 108.611 42.952C108.528 42.9932 108.487 43.0549 108.446 43.1167C108.364 43.2402 108.322 43.4255 108.322 43.5902C108.322 43.7549 108.364 43.9402 108.425 44.0843L108.446 44.1461L108.467 44.1873C108.487 44.2284 108.508 44.249 108.528 44.2902C108.57 44.352 108.631 44.4137 108.693 44.4755C108.817 44.599 108.961 44.702 109.105 44.8049L109.187 44.8667L109.146 44.949C109.084 45.052 109.022 45.1755 108.981 45.2784C108.94 45.402 108.899 45.5049 108.858 45.6284C108.837 45.6902 108.837 45.752 108.837 45.8137C108.837 45.8755 108.837 45.9167 108.837 45.9784V46.0196V46.0402V46.0608C108.837 46.0814 108.858 46.1226 108.858 46.1432C108.878 46.2049 108.92 46.2461 108.94 46.2873C109.022 46.3902 109.105 46.4726 109.208 46.5343C109.311 46.5961 109.434 46.6373 109.558 46.6579C109.681 46.6784 109.805 46.6579 109.928 46.6167C110.072 46.6167 110.196 46.5755 110.299 46.4932Z" fill="#C69C6D"/>
<path d="M110.297 37.0223C110.545 37.7223 111.43 38.8546 112.583 38.9576C113.509 39.0193 114.209 38.4017 114.374 38.237C115.383 37.2899 115.197 35.9105 115.177 35.7664C115.3 36.0134 115.774 36.9193 116.845 37.3311C117.833 37.7223 119.13 37.5987 119.809 36.8781L120.674 34.8811C120.674 34.8811 120.818 36.1781 121.6 36.6723C122.136 37.0017 122.939 36.8576 123.453 36.5281C124.503 35.8487 124.812 34.387 124.812 34.387C124.812 34.387 124.997 35.8281 125.883 36.6105C126.747 37.3517 128.415 37.3105 129.527 36.4664C130.412 35.8076 130.824 34.6752 130.824 33.8311C130.824 30.784 125.553 26.934 120.53 27.2634C114.312 27.6134 109.33 34.2634 110.297 37.0223Z" fill="#871B20"/>
<path d="M116.373 41.0155C116.373 41.0155 116.373 40.9332 116.394 40.7891C116.414 40.6449 116.455 40.4391 116.538 40.192C116.62 39.9449 116.744 39.6773 116.929 39.4302C116.97 39.3685 117.032 39.3067 117.073 39.2449C117.094 39.2038 117.114 39.1832 117.155 39.142L117.238 39.0596C117.341 38.9361 117.485 38.8332 117.629 38.7302L117.835 38.5861C117.917 38.5449 117.979 38.5038 118.061 38.4626C118.205 38.3802 118.37 38.3185 118.514 38.2773C118.658 38.2361 118.823 38.1949 118.967 38.1744C119.111 38.1538 119.255 38.1332 119.379 38.1332C119.626 38.1126 119.832 38.1332 119.997 38.1332C120.141 38.1538 120.223 38.1744 120.223 38.1744C120.223 38.1744 120.141 38.1744 119.997 38.1744C119.914 38.1744 119.832 38.1743 119.729 38.1949C119.626 38.2155 119.523 38.2155 119.4 38.2361C119.152 38.2773 118.885 38.3391 118.597 38.4626C118.452 38.5244 118.308 38.5861 118.164 38.6479C118.102 38.6891 118.02 38.7302 117.958 38.7714L117.752 38.9155C117.629 39.0185 117.505 39.1008 117.382 39.2243L117.3 39.3067C117.279 39.3273 117.238 39.3685 117.217 39.3891C117.155 39.4508 117.114 39.5126 117.073 39.5538C116.888 39.8008 116.744 40.0273 116.641 40.2538C116.538 40.4802 116.455 40.6655 116.435 40.8096C116.394 40.9332 116.373 41.0155 116.373 41.0155Z" fill="#C69C6D"/>
<path d="M129.322 38.7922C129.322 38.7922 129.281 38.7304 129.219 38.6069C129.178 38.5451 129.137 38.4833 129.075 38.4216C129.014 38.3392 128.952 38.2774 128.869 38.1951C128.787 38.1127 128.705 38.0304 128.602 37.948C128.499 37.8657 128.396 37.7833 128.272 37.7216C128.046 37.5775 127.778 37.4539 127.49 37.3922C127.346 37.351 127.202 37.351 127.058 37.3304C126.996 37.3304 126.914 37.3304 126.831 37.3304C126.769 37.3304 126.687 37.351 126.625 37.351C126.358 37.3922 126.111 37.4951 125.905 37.598C125.699 37.701 125.555 37.8039 125.452 37.8863C125.349 37.9686 125.287 38.0098 125.287 38.0098C125.287 38.0098 125.328 37.948 125.431 37.8451C125.534 37.7422 125.658 37.6186 125.864 37.4951C125.967 37.4333 126.069 37.3716 126.193 37.3098C126.317 37.248 126.461 37.2069 126.605 37.1863C126.667 37.1657 126.749 37.1657 126.831 37.1451C126.914 37.1451 126.975 37.1245 127.058 37.1245C127.222 37.1245 127.367 37.1451 127.531 37.1657C127.696 37.2069 127.84 37.248 127.984 37.3098C128.128 37.3716 128.252 37.4539 128.375 37.5363C128.499 37.6186 128.602 37.7216 128.705 37.8039C128.808 37.9069 128.89 37.9892 128.952 38.0922C129.014 38.1951 129.075 38.2775 129.117 38.3598C129.158 38.4422 129.199 38.5245 129.219 38.5863C129.302 38.7304 129.322 38.7922 129.322 38.7922Z" fill="#C69C6D"/>
<path d="M112.873 53.3491C112.873 53.3491 113.409 55.0785 113.306 57.7962C113.223 59.8962 112.771 61.5021 112.771 61.5021C112.771 61.5021 115.571 66.6903 117.815 66.1756C119.873 65.7021 120.388 61.0903 120.388 61.0903C120.388 61.0903 118.762 60.5962 118.021 59.5874C117.073 58.2903 117.691 55.305 117.691 55.305L112.873 53.3491Z" fill="#EEC795"/>
<path d="M118.884 68.0488C118.596 67.0194 118.143 65.8047 117.422 64.5077C116.043 62.0371 114.313 60.4106 113.099 59.4224C111.781 60.3282 110.463 61.2341 109.125 62.14C111.678 62.7577 112.44 63.2106 112.419 63.54C112.399 63.8282 111.801 64.2194 111.801 64.2194C111.801 64.2194 113.449 64.9812 114.622 65.3724C115.734 65.7224 117.237 66.4429 118.884 68.0488Z" fill="#B3B3B3"/>
<path d="M118.987 68.0481C118.987 68.0481 118.307 66.0922 118.019 63.704C117.587 60.0187 118.081 59.3599 118.081 59.3599L123.393 60.3275L121.725 61.5628L123.393 62.6334C123.393 62.6334 122.054 63.3128 120.922 64.3422C119.254 65.8657 118.987 68.0481 118.987 68.0481Z" fill="#B3B3B3"/>
<path d="M120.696 68.4192C120.696 68.4192 120.737 68.4398 120.82 68.4809C120.861 68.5015 120.902 68.5221 120.964 68.5221C121.026 68.5427 121.087 68.5427 121.149 68.5427C121.293 68.5427 121.458 68.5221 121.602 68.4398C121.685 68.3986 121.746 68.3368 121.787 68.2956C121.829 68.2545 121.849 68.2339 121.87 68.1927C121.89 68.1515 121.911 68.1103 121.932 68.0692C121.993 67.9045 122.014 67.7192 121.973 67.575C121.932 67.4103 121.829 67.3074 121.705 67.225C121.582 67.1633 121.458 67.1221 121.376 67.1221C121.293 67.1221 121.232 67.1221 121.232 67.1221C121.232 67.1221 121.273 67.1015 121.376 67.0809C121.458 67.0809 121.602 67.0603 121.746 67.1221C121.911 67.1839 122.055 67.3074 122.137 67.5133C122.22 67.7192 122.199 67.9456 122.117 68.1515C122.096 68.1927 122.076 68.2545 122.035 68.2956C121.993 68.3368 121.973 68.3986 121.932 68.4192C121.849 68.5015 121.767 68.5633 121.664 68.6045C121.479 68.6868 121.273 68.6868 121.129 68.6456C121.046 68.6251 120.985 68.6045 120.923 68.5633C120.861 68.5427 120.82 68.5015 120.779 68.4809C120.737 68.4603 120.717 68.4398 120.696 68.4192C120.696 68.4192 120.717 68.4192 120.696 68.4192Z" fill="#008BAB"/>
<path d="M121.561 71.8572C121.561 71.8572 121.602 71.8777 121.684 71.9189C121.725 71.9395 121.766 71.9601 121.828 71.9601C121.89 71.9807 121.952 71.9807 122.013 71.9807C122.158 71.9807 122.322 71.9601 122.466 71.8777C122.549 71.8366 122.611 71.7748 122.652 71.7336C122.693 71.6925 122.713 71.6719 122.734 71.6307C122.755 71.5895 122.775 71.5483 122.796 71.5072C122.858 71.3425 122.878 71.1572 122.837 71.013C122.796 70.8483 122.693 70.7454 122.569 70.663C122.446 70.6013 122.322 70.5601 122.24 70.5601C122.158 70.5601 122.096 70.5601 122.096 70.5601C122.096 70.5601 122.137 70.5395 122.24 70.5189C122.322 70.5189 122.466 70.4983 122.611 70.5601C122.775 70.6219 122.919 70.7454 123.002 70.9513C123.084 71.1572 123.063 71.3836 122.981 71.5895C122.961 71.6307 122.94 71.6925 122.899 71.7336C122.858 71.7748 122.837 71.8366 122.796 71.8572C122.713 71.9395 122.631 72.0013 122.528 72.0425C122.343 72.1248 122.137 72.1248 121.993 72.0836C121.911 72.063 121.849 72.0424 121.787 72.0013C121.725 71.9807 121.684 71.9395 121.643 71.9189C121.602 71.8983 121.581 71.8777 121.561 71.8572C121.561 71.8572 121.581 71.8572 121.561 71.8572Z" fill="#008BAB"/>
<path d="M116.25 91.2104V93.9899L131.279 95.2046V91.8487L116.25 91.2104Z" fill="#CCCCCC"/>
<path d="M131.381 95.2248C139.617 93.3925 147.749 91.5395 155.984 89.7072C155.984 88.9454 155.984 88.1836 155.984 87.4219C147.749 88.9042 139.514 90.3866 131.258 91.8483C131.278 92.9807 131.361 94.113 131.381 95.2248Z" fill="#B3B3B3"/>
<path d="M116.351 91.1483L125.101 87.6689C135.477 87.5866 145.833 87.5042 156.209 87.4219C147.954 88.9042 139.718 90.3866 131.462 91.8483C126.439 91.6219 121.395 91.3748 116.351 91.1483Z" fill="#B3B3B3"/>
<path d="M127.573 71.4863L128.211 90.4481L131.341 90.6334L131.32 90.0363L130.456 71.4863H127.573Z" fill="#B3B3B3"/>
<path d="M156.046 85.8368C147.832 87.4427 139.596 89.0485 131.382 90.6544L130.435 71.3427C133.708 70.0044 137.846 68.6456 142.746 67.6985C147.502 66.7721 151.764 66.5044 155.243 66.525C155.511 72.9691 155.779 79.4132 156.046 85.8368Z" fill="#CCCCCC"/>
<path d="M133.544 89.5017V92.487C133.544 92.487 134.182 92.8575 134.882 92.8575C135.582 92.8575 136.632 92.487 136.632 92.487V89.2752C136.632 89.2752 136.056 89.0075 135.088 89.0693C134.12 89.1105 133.544 89.5017 133.544 89.5017Z" fill="#666666"/>
<path d="M149.458 86.2488C149.479 87.2783 149.499 88.3077 149.52 89.3371C149.932 89.4606 150.611 89.6253 151.414 89.5018C152.052 89.3988 152.546 89.193 152.896 88.9871C152.896 87.8959 152.876 86.7841 152.876 85.693C152.587 85.5488 151.908 85.2812 151.023 85.4459C150.22 85.59 149.684 86.0224 149.458 86.2488Z" fill="#666666"/>
<path d="M130.454 70.0868C131.401 69.6956 132.513 69.2839 134.777 68.6662C137.886 67.8015 140.336 67.328 141.036 67.1839C143.61 66.7103 145.751 66.2986 148.613 66.1956C150.321 66.1339 152.565 66.1544 155.221 66.5044C153.698 66.5044 151.701 66.5662 149.354 66.7927C144.227 67.2662 140.46 68.1721 139.327 68.4603C135.663 69.3868 133.048 70.3956 132.163 70.7662C131.442 71.0544 130.865 71.3015 130.433 71.5074C129.465 71.5074 128.518 71.528 127.551 71.528C128.251 71.0956 129.239 70.6015 130.454 70.0868Z" fill="#B3B3B3"/>
<path d="M143.549 81.7596C145.266 81.7596 146.658 80.3678 146.658 78.6508C146.658 76.9339 145.266 75.542 143.549 75.542C141.832 75.542 140.44 76.9339 140.44 78.6508C140.44 80.3678 141.832 81.7596 143.549 81.7596Z" fill="black"/>
<path d="M139.802 158.719C140.214 157.916 140.914 157.895 140.935 157.36C140.955 156.866 140.358 156.331 139.782 156.207C139.535 156.145 139.267 156.166 137.847 156.804C136.508 157.401 136.591 157.484 136.138 157.587C134.985 157.854 134.47 157.36 133.997 157.772C133.502 158.184 133.461 159.192 133.852 159.522C134.223 159.851 134.861 159.398 135.314 159.769C135.582 159.995 135.602 160.345 135.644 160.675C135.808 162.24 135.891 163.166 136.282 163.619C137.085 164.545 139.679 164.134 140.111 163.084C140.297 162.631 139.926 162.445 139.72 161.045C139.576 160.016 139.473 159.357 139.802 158.719Z" fill="#E6E6E6"/>
<path d="M135.251 163.062C135.251 163.062 136.013 162.836 138.833 162.342C140.583 162.033 141.695 162.198 141.695 162.198C141.695 162.198 142.086 163.33 142.704 164.133C143.177 164.751 143.857 164.998 145.998 165.43C149.827 166.171 150.054 165.862 150.939 166.439C152.504 167.448 153.019 169.239 153.224 170.021C153.513 171.071 153.286 172.801 153.286 172.801C153.286 172.801 152.689 173.439 149.066 173.583C148.757 173.604 146.883 173.665 144.413 173.377C143.363 173.254 142.107 173.109 141.901 172.43C141.798 172.08 141.839 171.565 141.839 171.565H140.542C140.542 171.565 140.748 172.101 140.604 172.286C140.419 172.554 139.554 172.224 138.175 171.751C136.033 171.03 135.745 170.804 135.745 170.804C135.745 170.804 135.869 169.198 135.807 167.159C135.766 164.73 135.251 163.062 135.251 163.062Z" fill="#B3B3B3"/>
<path d="M135.828 169.343C136.261 169.569 136.92 169.878 137.743 170.207C139.864 171.031 141.614 171.319 143.405 171.587C144.764 171.793 146.143 171.999 148.017 172.04C150.199 172.081 152.011 171.855 153.349 171.607C153.328 171.999 153.328 172.41 153.308 172.802C152.999 172.946 152.567 173.152 151.99 173.296C151.558 173.419 150.981 173.543 149.17 173.584C148.243 173.605 147.646 173.625 146.761 173.584C145.876 173.543 144.784 173.46 143.549 173.255C142.973 173.11 142.417 172.966 141.84 172.822C141.84 172.39 141.82 172.163 141.82 171.546C141.428 171.546 141.037 171.546 140.646 171.546C140.646 171.957 140.626 172.184 140.626 172.513C139.802 172.266 138.999 171.999 138.176 171.752L135.746 170.805L135.828 169.343Z" fill="#999999"/>
<path d="M142.005 164.381C140.996 164.361 139.802 164.917 139.72 165.596C139.658 166.234 140.584 166.811 141.284 167.243C142.334 167.881 143.137 168.067 146.617 168.787C147.07 168.89 148.593 169.24 150.055 169.117C150.487 169.076 151.023 168.993 151.558 168.643C151.929 168.417 152.176 168.149 152.34 167.943C151.743 166.852 151.023 166.44 150.673 166.276C150.508 166.193 150.364 166.152 150.24 166.111C149.767 165.987 149.355 166.049 148.14 165.884C147.831 165.843 146.679 165.678 145.279 165.267C144.373 164.999 143.179 164.649 143.179 164.649C142.911 164.546 142.52 164.402 142.005 164.381Z" fill="#808080"/>
<path d="M140.893 166.995C140.893 166.995 140.934 166.954 140.996 166.892C141.057 166.83 141.16 166.727 141.263 166.604C141.49 166.377 141.819 166.089 142.148 165.801C142.478 165.533 142.828 165.266 143.096 165.08C143.219 164.977 143.343 164.916 143.425 164.854C143.507 164.792 143.548 164.771 143.548 164.771C143.548 164.771 143.507 164.813 143.446 164.874C143.384 164.936 143.281 165.039 143.178 165.163C142.951 165.389 142.622 165.677 142.293 165.945C141.963 166.213 141.613 166.48 141.346 166.666C141.222 166.769 141.098 166.83 141.016 166.892C140.934 166.974 140.893 166.995 140.893 166.995Z" fill="white"/>
<path d="M142.665 167.88C142.665 167.88 142.706 167.839 142.768 167.756C142.83 167.674 142.912 167.571 143.036 167.427C143.262 167.159 143.571 166.83 143.9 166.5C144.23 166.171 144.559 165.862 144.827 165.636C144.95 165.512 145.074 165.43 145.156 165.368C145.239 165.306 145.28 165.265 145.28 165.265C145.28 165.265 145.239 165.306 145.177 165.389C145.115 165.471 145.033 165.574 144.909 165.718C144.683 165.986 144.374 166.315 144.044 166.645C143.715 166.974 143.386 167.283 143.118 167.509C142.994 167.633 142.871 167.715 142.789 167.777C142.727 167.839 142.665 167.88 142.665 167.88Z" fill="white"/>
<path d="M144.557 168.354C144.557 168.354 144.598 168.313 144.66 168.231C144.721 168.149 144.824 168.046 144.927 167.902C145.154 167.634 145.483 167.304 145.813 166.975C146.142 166.646 146.492 166.337 146.76 166.11C146.883 165.987 147.007 165.904 147.089 165.843C147.171 165.781 147.213 165.74 147.213 165.74C147.213 165.74 147.171 165.781 147.11 165.863C147.048 165.946 146.945 166.049 146.842 166.193C146.615 166.46 146.286 166.79 145.957 167.119C145.627 167.449 145.277 167.757 145.01 167.984C144.886 168.107 144.763 168.19 144.68 168.252C144.598 168.313 144.557 168.354 144.557 168.354Z" fill="white"/>
<path d="M126.462 161.354C126.956 160.613 127.677 160.675 127.759 160.14C127.841 159.645 127.306 159.048 126.75 158.842C126.524 158.76 126.235 158.74 124.753 159.192C123.353 159.625 123.415 159.707 122.962 159.769C121.788 159.892 121.335 159.357 120.821 159.707C120.285 160.057 120.121 161.045 120.471 161.416C120.8 161.787 121.5 161.416 121.891 161.848C122.138 162.095 122.118 162.445 122.097 162.775C122.077 164.36 122.056 165.287 122.385 165.781C123.065 166.81 125.7 166.687 126.256 165.719C126.483 165.287 126.153 165.06 126.112 163.64C126.071 162.631 126.05 161.951 126.462 161.354Z" fill="#E6E6E6"/>
<path d="M121.416 165.596C121.416 165.596 122.198 165.452 125.04 165.246C126.81 165.122 127.901 165.39 127.901 165.39C127.901 165.39 128.169 166.564 128.704 167.408C129.116 168.067 129.754 168.396 131.854 169.014C135.581 170.146 135.848 169.858 136.651 170.517C138.093 171.69 138.422 173.522 138.566 174.305C138.751 175.375 138.36 177.084 138.36 177.084C138.36 177.084 137.701 177.661 134.078 177.434C133.769 177.414 131.895 177.29 129.487 176.755C128.457 176.528 127.222 176.24 127.098 175.561C127.037 175.19 127.119 174.675 127.119 174.675L125.843 174.552C125.843 174.552 125.987 175.108 125.843 175.293C125.637 175.54 124.793 175.108 123.475 174.511C121.416 173.584 121.148 173.317 121.148 173.317C121.148 173.317 121.437 171.731 121.601 169.693C121.766 167.305 121.416 165.596 121.416 165.596Z" fill="#B3B3B3"/>
<path d="M121.355 171.895C121.767 172.163 122.385 172.533 123.188 172.945C125.226 173.974 126.914 174.427 128.685 174.901C130.023 175.251 131.361 175.601 133.235 175.807C135.396 176.054 137.229 176.013 138.588 175.93C138.546 176.321 138.485 176.713 138.443 177.104C138.135 177.227 137.661 177.371 137.085 177.454C136.632 177.536 136.055 177.577 134.264 177.454C133.358 177.392 132.74 177.33 131.855 177.207C130.99 177.083 129.92 176.877 128.705 176.548C128.149 176.342 127.593 176.157 127.038 175.951C127.079 175.519 127.099 175.086 127.141 174.674C126.749 174.633 126.358 174.592 125.988 174.551C125.946 174.88 125.905 175.189 125.864 175.519C125.082 175.189 124.279 174.839 123.496 174.51L121.17 173.316L121.355 171.895Z" fill="#999999"/>
<path d="M128.004 167.614C126.996 167.49 125.76 167.923 125.596 168.581C125.452 169.22 126.337 169.879 126.996 170.373C127.963 171.114 128.746 171.381 132.143 172.452C132.596 172.596 134.078 173.111 135.519 173.131C135.952 173.131 136.487 173.111 137.063 172.823C137.454 172.637 137.743 172.39 137.907 172.205C137.434 171.052 136.754 170.579 136.425 170.373C136.26 170.29 136.137 170.208 136.013 170.167C135.56 170.002 135.128 170.002 133.934 169.714C133.646 169.631 132.493 169.343 131.154 168.808C130.269 168.458 129.116 167.984 129.116 167.984C128.89 167.861 128.499 167.676 128.004 167.614Z" fill="#808080"/>
<path d="M126.625 170.084C126.625 170.084 126.666 170.042 126.728 169.981C126.81 169.919 126.913 169.837 127.037 169.734C127.284 169.528 127.634 169.281 128.004 169.034C128.354 168.787 128.725 168.56 129.013 168.416C129.157 168.334 129.281 168.272 129.363 168.231C129.446 168.19 129.507 168.169 129.507 168.169C129.507 168.169 129.466 168.21 129.404 168.272C129.322 168.334 129.24 168.416 129.096 168.519C128.849 168.725 128.499 168.972 128.128 169.219C127.778 169.466 127.407 169.692 127.119 169.837C126.975 169.919 126.851 169.981 126.769 170.022C126.666 170.063 126.625 170.084 126.625 170.084Z" fill="white"/>
<path d="M128.312 171.155C128.312 171.155 128.354 171.114 128.415 171.031C128.498 170.97 128.58 170.846 128.704 170.743C128.951 170.496 129.301 170.208 129.651 169.92C130.001 169.631 130.371 169.364 130.66 169.158C130.804 169.055 130.927 168.973 131.01 168.931C131.092 168.87 131.154 168.849 131.154 168.849C131.154 168.849 131.113 168.89 131.051 168.973C130.968 169.034 130.886 169.158 130.763 169.261C130.515 169.508 130.165 169.796 129.815 170.084C129.465 170.373 129.095 170.64 128.807 170.846C128.663 170.949 128.539 171.031 128.457 171.073C128.354 171.114 128.312 171.155 128.312 171.155Z" fill="white"/>
<path d="M130.126 171.813C130.126 171.813 130.167 171.772 130.229 171.689C130.311 171.628 130.394 171.504 130.538 171.401C130.785 171.154 131.135 170.866 131.505 170.557C131.876 170.269 132.247 169.98 132.535 169.795C132.679 169.692 132.802 169.61 132.885 169.569C132.967 169.507 133.029 169.486 133.029 169.486C133.029 169.486 132.988 169.527 132.926 169.61C132.844 169.672 132.761 169.795 132.617 169.898C132.37 170.145 132.02 170.433 131.649 170.742C131.279 171.03 130.908 171.319 130.62 171.504C130.476 171.607 130.352 171.689 130.27 171.73C130.188 171.772 130.126 171.813 130.126 171.813Z" fill="white"/>
<path d="M95.9278 137.864C94.6307 137.925 93.3542 138.008 92.0572 138.069C91.8513 135.105 91.6454 132.119 91.4189 129.155H95.9072V137.864H95.9278Z" fill="#4D4D4D"/>
<path fill-rule="evenodd" clip-rule="evenodd" d="M92.9642 126.179L92.5936 130.111L92.3887 130.092L92.7593 126.16L92.9642 126.179Z" fill="#4D4D4D"/>
<path fill-rule="evenodd" clip-rule="evenodd" d="M94.6673 126.573L93.3085 130.629L93.1133 130.563L94.4721 126.507L94.6673 126.573Z" fill="#4D4D4D"/>
<path fill-rule="evenodd" clip-rule="evenodd" d="M95.7342 127.278L94.3754 130.634L94.1846 130.557L95.5434 127.201L95.7342 127.278Z" fill="#4D4D4D"/>
<path fill-rule="evenodd" clip-rule="evenodd" d="M97.7178 132.427H94.2178V132.221H97.7178V132.427Z" fill="#4D4D4D"/>
<path fill-rule="evenodd" clip-rule="evenodd" d="M97.1001 133.869H94.2178V133.663H97.1001V133.869Z" fill="#4D4D4D"/>
<path fill-rule="evenodd" clip-rule="evenodd" d="M97.6218 135.206L94.9453 134.856L94.972 134.652L97.6485 135.002L97.6218 135.206Z" fill="#4D4D4D"/>
<path d="M116.805 151.843C116.805 151.843 116.826 149.454 116.867 145.851C116.888 144.06 116.929 141.96 116.97 139.716C116.991 138.584 117.011 137.431 117.011 136.257C117.011 135.084 117.032 133.89 117.032 132.675C117.052 130.287 117.052 127.878 117.011 125.634C116.991 124.501 116.97 123.431 116.929 122.401C116.888 121.372 116.847 120.404 116.785 119.499C116.682 117.707 116.579 116.204 116.497 115.154C116.414 114.104 116.373 113.507 116.373 113.507C116.373 113.507 116.435 114.104 116.538 115.154C116.641 116.204 116.785 117.687 116.908 119.478C117.032 121.269 117.155 123.369 117.197 125.613C117.238 127.857 117.258 130.266 117.258 132.654C117.238 133.848 117.238 135.043 117.217 136.237C117.197 137.41 117.176 138.584 117.155 139.696C117.094 141.94 117.032 144.04 116.991 145.831C116.888 149.454 116.805 151.843 116.805 151.843Z" fill="#666666"/>
<path d="M122.241 152.707C122.241 152.707 122.303 152.11 122.385 151.081C122.467 150.051 122.529 148.569 122.529 146.778C122.529 145.892 122.508 144.925 122.447 143.916C122.385 142.907 122.303 141.836 122.138 140.725C121.973 139.634 121.747 138.501 121.582 137.328C121.417 136.175 121.273 134.981 121.17 133.807C121.067 132.634 120.964 131.439 120.903 130.266C120.841 129.092 120.779 127.96 120.717 126.848C120.655 125.736 120.553 124.666 120.347 123.678C120.244 123.184 120.141 122.689 120.017 122.236C119.914 121.763 119.832 121.31 119.75 120.878C119.441 119.128 119.379 117.625 119.358 116.595C119.358 116.081 119.358 115.669 119.358 115.381C119.358 115.092 119.379 114.948 119.379 114.948C119.379 114.948 119.379 115.092 119.379 115.381C119.379 115.669 119.379 116.06 119.4 116.595C119.441 117.625 119.564 119.107 119.873 120.857C119.955 121.289 120.058 121.742 120.161 122.216C120.264 122.689 120.408 123.163 120.491 123.657C120.697 124.666 120.82 125.736 120.903 126.848C120.964 127.96 121.026 129.113 121.108 130.266C121.191 131.439 121.273 132.613 121.397 133.786C121.5 134.96 121.644 136.154 121.808 137.307C121.973 138.46 122.179 139.592 122.344 140.704C122.508 141.816 122.57 142.886 122.611 143.916C122.653 144.945 122.673 145.892 122.653 146.798C122.632 148.589 122.508 150.072 122.426 151.101C122.323 152.11 122.241 152.707 122.241 152.707Z" fill="#666666"/>
<path d="M132.615 152.027C132.615 152.027 132.657 151.883 132.739 151.636C132.821 151.368 132.945 150.998 133.048 150.483C133.151 149.989 133.254 149.371 133.315 148.671C133.357 147.971 133.357 147.168 133.233 146.304C133.109 145.439 132.883 144.512 132.574 143.565C132.265 142.618 131.895 141.61 131.586 140.56C131.257 139.51 130.968 138.418 130.701 137.286C130.433 136.174 130.186 135.021 129.939 133.889C129.692 132.757 129.445 131.604 129.259 130.471C129.074 129.339 128.909 128.207 128.745 127.136C128.58 126.045 128.415 125.015 128.251 124.007C128.107 123.018 127.921 122.071 127.777 121.207C127.201 117.748 126.83 115.442 126.83 115.442C126.83 115.442 127.262 117.748 127.901 121.186C128.045 122.051 128.23 122.977 128.395 123.965C128.559 124.954 128.745 126.004 128.909 127.074C129.074 128.165 129.239 129.277 129.445 130.41C129.63 131.542 129.877 132.674 130.145 133.827C130.639 136.112 131.112 138.398 131.771 140.477C132.08 141.527 132.43 142.515 132.739 143.483C133.048 144.451 133.274 145.377 133.377 146.242C133.439 146.674 133.459 147.107 133.459 147.498C133.459 147.91 133.439 148.28 133.418 148.63C133.357 149.351 133.233 149.948 133.109 150.442C132.986 150.936 132.862 151.327 132.78 151.574C132.657 151.883 132.615 152.027 132.615 152.027Z" fill="#666666"/>
<path d="M136.465 150.834C136.465 150.834 136.465 150.69 136.465 150.422C136.465 150.154 136.465 149.743 136.424 149.228C136.383 148.198 136.239 146.757 135.93 145.028C135.765 144.163 135.539 143.237 135.251 142.29C134.962 141.322 134.592 140.334 134.242 139.304C133.892 138.275 133.542 137.184 133.212 136.093C132.883 134.981 132.574 133.869 132.286 132.716C131.998 131.584 131.73 130.451 131.483 129.319C131.215 128.207 130.968 127.096 130.742 126.025C130.268 123.884 129.877 121.866 129.568 120.157C129.486 119.725 129.403 119.313 129.342 118.922C129.28 118.531 129.218 118.16 129.156 117.81C129.053 117.11 128.951 116.493 128.868 115.978C128.703 114.969 128.621 114.393 128.621 114.393C128.621 114.393 128.724 114.969 128.909 115.978C128.992 116.472 129.115 117.09 129.239 117.79C129.362 118.49 129.506 119.272 129.671 120.137C130.001 121.866 130.433 123.863 130.906 126.004C131.153 127.075 131.401 128.166 131.668 129.298C131.936 130.41 132.203 131.563 132.492 132.696C132.78 133.828 133.068 134.96 133.398 136.051C133.727 137.163 134.077 138.234 134.427 139.263C134.777 140.293 135.127 141.301 135.415 142.269C135.703 143.237 135.909 144.163 136.074 145.028C136.383 146.757 136.465 148.219 136.506 149.248C136.527 149.763 136.527 150.154 136.527 150.443C136.465 150.69 136.465 150.834 136.465 150.834Z" fill="#666666"/>
<path d="M143.015 65.6807C143.488 65.6189 142.747 63.0042 144.085 59.8954C145.115 57.4866 146.865 56.0454 147.524 55.4895C149.974 53.4925 150.962 54.2337 153.638 52.2778C156.253 50.3631 155.924 49.1895 158.044 47.9954C160.227 46.7601 162.141 47.0895 165.127 47.1307C165.127 47.1307 169.553 47.1925 176.388 45.8336C178.777 45.3601 184.603 44.1454 190.327 39.7189C192.221 38.2572 195.927 35.0454 198.685 29.7542C200.538 26.2131 202.474 22.5278 201.897 17.7513C201.115 11.2866 196.297 7.31307 194.383 5.74837C190.183 2.28955 185.88 1.30131 183.224 0.704253C176.656 -0.736923 171.468 0.436606 170.356 0.704253C164.838 2.04249 161.235 4.76014 160.391 5.41896C155.368 9.35131 153.247 14.1278 152.033 17.0101C151.641 17.916 150.077 21.6837 149.562 26.8719C149.233 30.2484 148.985 33.0484 150.303 36.0954C151.044 37.8042 151.477 37.7219 152.341 39.7395C153.103 41.5513 154.462 44.7219 153.412 47.4601C153.206 48.016 153 48.2836 148.697 51.9689C145.547 54.666 144.415 55.5925 143.221 57.4454C141.965 59.4013 141.78 60.6366 141.718 61.1925C141.512 63.5395 142.562 65.7425 143.015 65.6807Z" fill="#C7D5DB"/>
<path d="M165.065 42.5185C169.238 42.5185 172.621 39.1356 172.621 34.9626C172.621 30.7896 169.238 27.4067 165.065 27.4067C160.892 27.4067 157.509 30.7896 157.509 34.9626C157.509 39.1356 160.892 42.5185 165.065 42.5185Z" fill="#F2F2F2"/>
<path d="M163.045 27.6745L163.354 35.7245L168.027 27.9833C167.451 27.7568 166.586 27.4892 165.495 27.4274C164.466 27.3656 163.621 27.5303 163.045 27.6745Z" fill="#2E3192"/>
<path d="M168.048 28.0654C166.483 30.6801 164.918 33.2948 163.374 35.9095C166.092 34.2419 168.789 32.5742 171.506 30.9066C171.198 30.4948 170.786 30.0007 170.25 29.5066C169.448 28.786 168.645 28.3331 168.048 28.0654Z" fill="#FF7070"/>
<path d="M171.447 30.8447C168.688 32.533 165.93 34.2212 163.191 35.8888C166.321 35.7653 169.471 35.6624 172.6 35.5388C172.683 35.0035 172.744 34.0771 172.456 33.0065C172.209 31.9977 171.756 31.2771 171.447 30.8447Z" fill="#ED619F"/>
<path fill-rule="evenodd" clip-rule="evenodd" d="M166.872 24.3768L168.549 24.2979L168.539 24.0923L166.716 24.1781L165.769 27.3984L165.966 27.4565L166.872 24.3768Z" fill="#2E3192"/>
<path fill-rule="evenodd" clip-rule="evenodd" d="M171.778 27.5098H175.234V27.7156H171.855L169.001 30.1615L168.867 30.0051L171.778 27.5098Z" fill="#FF7070"/>
<path fill-rule="evenodd" clip-rule="evenodd" d="M174.487 31.9333L177.32 31.7499L177.307 31.5444L174.416 31.7316L171.613 33.7041L171.732 33.8725L174.487 31.9333Z" fill="#ED619F"/>
<path d="M168.542 23.2886L168.583 24.8944L176.304 24.7297C176.263 24.215 176.201 23.6797 176.16 23.165C173.627 23.2062 171.074 23.2474 168.542 23.2886Z" fill="#2E3192"/>
<path d="M175.132 26.748L175.255 28.1069L181.123 28.2304L180.979 26.748H175.132Z" fill="#FF7070"/>
<path d="M177.253 30.9268L177.418 32.265L183.429 32.7179L183.306 31.2356L177.253 30.9268Z" fill="#ED619F"/>
<path fill-rule="evenodd" clip-rule="evenodd" d="M167.855 11.0978C167.943 8.57053 168.03 6.04342 168.112 3.52148L168.318 3.5282C168.236 6.05035 168.148 8.57762 168.061 11.1048L168.061 11.1049C167.973 13.6321 167.886 16.1592 167.803 18.6811L167.598 18.6744C167.68 16.1523 167.768 13.625 167.855 11.0978L167.855 11.0978Z" fill="#4D4D4D"/>
<path fill-rule="evenodd" clip-rule="evenodd" d="M189.36 18.533L163.995 18.6977L163.994 18.4919L189.359 18.3271L189.36 18.533Z" fill="#4D4D4D"/>
<path d="M171.159 18.5746L170.562 9.59814L173.403 9.63932L173.959 18.5334L171.159 18.5746Z" fill="#2E3192"/>
<path d="M177.149 18.5129L176.388 6.44824L179.476 6.46883L180.073 18.4924L177.149 18.5129Z" fill="#FF7070"/>
<path d="M182.214 18.4721L181.967 10.2368H184.993L185.24 18.4515L182.214 18.4721Z" fill="#ED619F"/>
<path d="M136.734 90.8808C136.734 90.8808 136.92 90.8396 137.27 90.7573C137.62 90.6749 138.093 90.572 138.69 90.4485C139.287 90.3249 139.967 90.1808 140.708 90.0367C141.449 89.8926 142.231 89.7485 143.014 89.5838C143.796 89.4397 144.599 89.2955 145.32 89.172C146.061 89.0279 146.761 88.9249 147.337 88.822C147.934 88.7191 148.428 88.6573 148.778 88.5955C149.128 88.5338 149.314 88.5132 149.314 88.5132C149.314 88.5132 149.128 88.5544 148.778 88.6367C148.428 88.7191 147.955 88.822 147.358 88.9455C146.761 89.0691 146.081 89.2132 145.34 89.3573C144.599 89.5014 143.817 89.6455 143.034 89.8102C142.252 89.9544 141.449 90.0985 140.728 90.222C139.987 90.3661 139.287 90.4691 138.711 90.572C138.114 90.6749 137.62 90.7367 137.27 90.7985C136.94 90.8602 136.734 90.8808 136.734 90.8808Z" fill="#4D4D4D"/>
<path d="M131.381 90.6753C131.114 90.6753 130.846 90.6753 130.578 90.6547C130.311 90.6547 130.043 90.6341 129.775 90.6341C129.24 90.6135 128.725 90.5929 128.19 90.5518H128.108V90.4694C128.087 90.0576 128.067 89.6253 128.067 89.2135C128.046 88.8018 128.046 88.3694 128.046 87.9576C128.046 87.5459 128.046 87.1135 128.025 86.7018C128.025 86.4959 128.025 86.29 128.025 86.0635C128.025 85.8576 128.025 85.6518 128.046 85.4253C128.067 85.6312 128.087 85.8371 128.108 86.0429C128.128 86.2488 128.149 86.4547 128.149 86.6606C128.17 87.0724 128.211 87.5047 128.231 87.9165C128.252 88.3282 128.272 88.7606 128.293 89.1724C128.314 89.5841 128.314 90.0165 128.334 90.4282L128.252 90.3253C128.787 90.3665 129.302 90.4076 129.837 90.4694C130.105 90.49 130.372 90.5106 130.62 90.5518C130.846 90.6135 131.114 90.6341 131.381 90.6753Z" fill="#4D4D4D"/>
<path d="M118.72 82.4595C119.091 81.7183 119.05 81.7183 119.194 81.4713C119.4 81.1419 119.647 80.7301 120.141 80.4213C120.367 80.2772 120.964 79.9066 121.5 80.1536C121.829 80.2977 121.973 80.6066 121.973 80.6272C122.097 80.8742 122.055 81.1213 121.994 81.4919C121.952 81.8007 121.87 82.0889 121.808 82.2124C121.335 83.3036 118.597 83.6742 118.37 83.1801C118.37 83.1183 118.411 83.0772 118.72 82.4595Z" fill="#EEC795"/>
<path d="M112.17 66.1135C111.347 65.0018 110.153 63.3547 108.876 63.4782C108.547 63.5194 107.847 63.7047 106.467 66.2165C105.397 68.1724 104.82 69.8812 104.038 72.4135C103.235 75.0694 102.823 76.4077 102.453 78.0135C101.979 80.0312 101.485 82.1929 101.279 85.0547C101.053 88.0606 100.929 89.5635 101.485 91.2723C101.794 92.2194 102.864 95.5341 105.994 96.7694C109.432 98.1488 112.87 96.0282 113.509 95.6165C113.982 95.3076 114.435 94.8959 114.435 94.8959C115.3 94.1547 115.691 93.64 116.35 92.9606C117.173 92.0959 117.297 92.1371 118.285 91.2106C118.862 90.6547 119.685 89.8106 120.612 88.6782C120.323 88.0194 119.809 87.0312 118.923 86.0635C117.997 85.0547 117.029 84.4371 116.391 84.0871C116.391 84.0871 114.847 84.5194 112.953 86.0841C110.07 88.4929 109.762 88.8635 109.453 88.7194C108.506 88.3282 109.062 84.2106 110.029 80.9988C110.379 79.8047 111.182 77.7665 112.747 73.7106C113.426 71.94 113.982 70.5606 113.612 68.8518C113.323 67.6782 112.685 66.8135 112.17 66.1135Z" fill="#00B1D9"/>
<path d="M120.635 88.6575C120.635 88.6575 121.232 87.4634 122.076 87.2986C122.838 87.1339 123.723 87.8751 123.826 87.9369C124.258 88.2869 124.238 88.5134 124.608 88.6369C125.247 88.8428 125.905 88.3692 126.029 88.2869C126.235 88.1428 126.42 87.9986 126.482 87.7516C126.585 87.2986 126.235 86.7634 126.235 86.7634C126.235 86.7634 126.544 86.9281 126.873 86.9075C127.223 86.8869 127.511 86.5781 127.655 86.3104C127.902 85.8369 127.779 85.281 127.511 84.9104C127.202 84.4575 126.667 84.3134 126.708 84.1898C126.75 84.0869 127.058 84.1898 127.244 84.0045C127.429 83.8192 127.367 83.4486 127.347 83.3869C127.305 83.2016 127.182 82.8722 126.379 82.3369C125.947 82.0487 125.514 81.7604 124.855 81.5957C123.847 81.3281 123.023 81.5134 121.952 81.7604C120.82 82.0281 120.8 82.1928 118.597 82.9957C116.908 83.6134 116.373 84.0457 116.373 84.0457C116.373 84.0457 117.526 84.6839 118.679 85.8986C119.955 87.2163 120.635 88.6575 120.635 88.6575Z" fill="#EEC795"/>
<path d="M125.637 88.452C125.637 88.452 125.719 88.4108 125.863 88.3285C126.007 88.2461 126.193 88.102 126.316 87.8549C126.378 87.7314 126.419 87.5873 126.399 87.4432C126.399 87.2991 126.357 87.1343 126.275 86.9902C126.213 86.8461 126.11 86.702 126.007 86.5579C125.884 86.4138 125.781 86.2902 125.637 86.1667C125.369 85.9196 125.04 85.7549 124.731 85.652C124.401 85.5491 124.093 85.4873 123.804 85.4667C123.537 85.4461 123.29 85.4461 123.125 85.4667C122.96 85.4873 122.878 85.5079 122.878 85.5079C122.878 85.5079 122.96 85.4667 123.125 85.4461C123.29 85.4049 123.516 85.3638 123.804 85.3638C123.949 85.3638 124.093 85.3638 124.257 85.3844C124.422 85.4049 124.587 85.4255 124.772 85.4873C125.122 85.5902 125.472 85.7549 125.76 86.0226C125.904 86.1461 126.028 86.2902 126.151 86.4549C126.275 86.5991 126.357 86.7638 126.44 86.9491C126.501 87.1138 126.543 87.2991 126.543 87.4844C126.543 87.6696 126.481 87.8138 126.399 87.9373C126.316 88.0608 126.213 88.1638 126.131 88.2255C126.028 88.2873 125.946 88.3491 125.863 88.3696C125.74 88.4314 125.637 88.452 125.637 88.452Z" fill="#C69C6D"/>
<path d="M127.656 86.2692C127.656 86.2692 127.697 86.1662 127.717 86.0015C127.738 85.8368 127.717 85.5692 127.594 85.3015C127.532 85.178 127.45 85.0339 127.347 84.9104C127.244 84.7868 127.1 84.6633 126.956 84.5398C126.811 84.4163 126.647 84.3133 126.482 84.2104C126.317 84.1074 126.153 84.0045 125.967 83.9221C125.782 83.8398 125.597 83.7574 125.411 83.7163C125.226 83.6545 125.041 83.6133 124.856 83.5927C124.485 83.531 124.135 83.531 123.826 83.5721C123.538 83.6133 123.27 83.6751 123.106 83.7368C122.941 83.7986 122.838 83.8192 122.838 83.8192C122.838 83.8192 122.92 83.7574 123.085 83.6957C123.25 83.6133 123.497 83.531 123.806 83.4692C124.114 83.4074 124.485 83.3662 124.876 83.428C125.061 83.4486 125.267 83.4898 125.473 83.531C125.679 83.5927 125.864 83.6545 126.05 83.7574C126.42 83.9427 126.77 84.1692 127.079 84.4162C127.223 84.5398 127.367 84.6839 127.47 84.828C127.573 84.9721 127.656 85.1368 127.717 85.281C127.841 85.5898 127.8 85.8574 127.758 86.0221C127.738 86.1045 127.717 86.1868 127.697 86.228C127.656 86.2486 127.656 86.2692 127.656 86.2692Z" fill="#C69C6D"/>
<path d="M116.579 83.9221C116.579 83.9221 116.661 83.8603 116.826 83.778C116.991 83.675 117.197 83.5515 117.485 83.4074C117.753 83.2633 118.082 83.0986 118.453 82.9339C118.803 82.7691 119.194 82.6044 119.585 82.4603C119.976 82.3162 120.367 82.1721 120.759 82.0692C121.129 81.9456 121.5 81.8633 121.788 81.8015C122.097 81.7191 122.344 81.678 122.529 81.6574C122.714 81.6162 122.817 81.6162 122.817 81.6162C122.817 81.6162 122.426 81.7397 121.829 81.925C121.52 82.0074 121.191 82.1309 120.82 82.2544C120.45 82.378 120.059 82.5221 119.667 82.6662C119.276 82.8103 118.885 82.975 118.535 83.1191C118.185 83.2633 117.835 83.4074 117.547 83.5309C116.95 83.7368 116.579 83.9221 116.579 83.9221Z" fill="#C69C6D"/>
<path d="M127.551 71.4862C127.551 71.4862 127.736 71.4451 128.004 71.4245C128.271 71.4039 128.642 71.3833 128.992 71.3833C129.363 71.3833 129.713 71.4039 129.98 71.4245C130.248 71.4451 130.433 71.4862 130.433 71.4862C130.433 71.4862 130.248 71.5274 129.98 71.548C129.713 71.5686 129.342 71.5892 128.992 71.5892C128.621 71.5892 128.271 71.5686 128.004 71.548C127.736 71.5274 127.551 71.4862 127.551 71.4862Z" fill="#4D4D4D"/>
<path d="M152.876 87.9772C152.876 87.9772 152.917 87.9566 153 87.936C153.082 87.9154 153.205 87.8743 153.35 87.8331C153.638 87.7507 154.029 87.6684 154.42 87.6066C154.811 87.5448 155.202 87.4831 155.491 87.4625C155.635 87.4419 155.758 87.4419 155.841 87.4419C155.923 87.4419 155.985 87.4419 155.985 87.4419C155.985 87.4419 155.944 87.4625 155.861 87.4831C155.779 87.5037 155.655 87.5448 155.511 87.586C155.223 87.6684 154.832 87.7507 154.441 87.8125C154.05 87.8742 153.658 87.936 153.37 87.9566C153.226 87.9772 153.102 87.9772 153.02 87.9772C152.938 87.9772 152.876 87.9772 152.876 87.9772Z" fill="#4D4D4D"/>
<path d="M131.318 91.8476C131.318 91.8476 131.442 91.7859 131.648 91.7241C131.854 91.6623 132.101 91.6006 132.368 91.5594C132.636 91.5182 132.904 91.4771 133.11 91.4771C133.315 91.4771 133.46 91.4771 133.46 91.4771C133.46 91.4771 133.336 91.5388 133.13 91.6006C132.924 91.6624 132.677 91.7241 132.41 91.7653C132.142 91.8065 131.874 91.8271 131.668 91.8476C131.462 91.8682 131.318 91.8476 131.318 91.8476Z" fill="#4D4D4D"/>
<path d="M113.51 54.6455C113.51 54.6455 113.572 54.6867 113.695 54.7484C113.798 54.8102 113.963 54.8926 114.148 54.9955C114.539 55.2014 115.054 55.4484 115.589 55.6749C116.124 55.9014 116.68 56.0661 117.092 56.1896C117.298 56.2514 117.483 56.2926 117.607 56.3337C117.73 56.3749 117.792 56.3749 117.792 56.3749C117.792 56.3749 117.504 56.3749 117.072 56.3131C116.639 56.2514 116.063 56.1073 115.507 55.8808C114.951 55.6543 114.436 55.3661 114.086 55.119C113.736 54.8308 113.51 54.6455 113.51 54.6455Z" fill="#C69C6D"/>
<path d="M110.937 87.7095C110.937 87.7095 111.019 87.6478 111.142 87.5243C111.287 87.4213 111.472 87.2566 111.698 87.0713C111.945 86.886 112.213 86.6801 112.501 86.4537C112.645 86.3507 112.81 86.2272 112.975 86.1037C113.139 86.0007 113.304 85.8772 113.469 85.7743C113.798 85.5478 114.148 85.3419 114.457 85.1566C114.787 84.9713 115.095 84.8066 115.342 84.6419C115.61 84.4978 115.837 84.3948 115.981 84.3125C116.145 84.2301 116.228 84.189 116.228 84.189C116.228 84.189 116.145 84.2507 116.001 84.3331C115.857 84.436 115.651 84.5801 115.404 84.7243C114.91 85.0537 114.231 85.486 113.572 85.9184C113.407 86.0213 113.242 86.1448 113.078 86.2478C112.913 86.3507 112.748 86.4743 112.604 86.5772C112.295 86.7831 112.007 86.9684 111.76 87.1537C111.513 87.3184 111.287 87.4419 111.142 87.5448C111.039 87.6478 110.937 87.7095 110.937 87.7095Z" fill="#008BAB"/>
<path d="M111.762 96.5631C111.762 96.5631 111.844 96.522 111.988 96.4602C112.132 96.3984 112.338 96.2955 112.565 96.172C112.812 96.0485 113.079 95.8837 113.347 95.6984C113.491 95.6161 113.635 95.5132 113.779 95.4102C113.923 95.3073 114.068 95.2043 114.212 95.1014C114.5 94.8955 114.768 94.6484 115.015 94.4426C115.262 94.2161 115.488 94.0102 115.673 93.8043C115.859 93.619 116.003 93.4543 116.106 93.3308C116.209 93.2073 116.271 93.1455 116.271 93.1455C116.271 93.1455 116.229 93.2279 116.147 93.3514C116.065 93.4749 115.941 93.6808 115.756 93.8867C115.591 94.0926 115.385 94.3396 115.138 94.5867C115.015 94.7102 114.891 94.8337 114.747 94.9367C114.603 95.0602 114.479 95.1631 114.335 95.2867C114.191 95.3896 114.047 95.5131 113.903 95.5955C113.759 95.6984 113.594 95.7808 113.45 95.8632C113.162 96.0279 112.873 96.172 112.626 96.2749C112.379 96.3779 112.153 96.4602 112.009 96.5014C111.865 96.5426 111.762 96.5631 111.762 96.5631Z" fill="#008BAB"/>
</svg>