<svg width="323" height="240" viewBox="0 0 323 240" fill="none" xmlns="http://www.w3.org/2000/svg">
<path d="M1.24805 127.707L1.98633 121.203H9.1582V123.321H4.06934L3.75293 126.072C4.35645 125.75 4.99805 125.589 5.67773 125.589C6.89648 125.589 7.85156 125.967 8.54297 126.723C9.23438 127.479 9.58008 128.536 9.58008 129.896C9.58008 130.722 9.4043 131.463 9.05273 132.119C8.70703 132.77 8.20898 133.276 7.55859 133.64C6.9082 133.997 6.14062 134.176 5.25586 134.176C4.48242 134.176 3.76465 134.021 3.10254 133.71C2.44043 133.394 1.91602 132.951 1.5293 132.383C1.14844 131.814 0.946289 131.167 0.922852 130.44H3.43652C3.48926 130.974 3.67383 131.39 3.99023 131.688C4.3125 131.981 4.73145 132.128 5.24707 132.128C5.82129 132.128 6.26367 131.923 6.57422 131.513C6.88477 131.097 7.04004 130.511 7.04004 129.755C7.04004 129.028 6.86133 128.472 6.50391 128.085C6.14648 127.698 5.63965 127.505 4.9834 127.505C4.37988 127.505 3.89062 127.663 3.51562 127.979L3.26953 128.208L1.24805 127.707ZM19.8193 128.709C19.8193 130.479 19.4531 131.832 18.7207 132.77C17.9883 133.707 16.916 134.176 15.5039 134.176C14.1094 134.176 13.043 133.716 12.3047 132.796C11.5664 131.876 11.1885 130.558 11.1709 128.841V126.485C11.1709 124.698 11.54 123.342 12.2783 122.416C13.0225 121.49 14.0918 121.027 15.4863 121.027C16.8809 121.027 17.9473 121.487 18.6855 122.407C19.4238 123.321 19.8018 124.637 19.8193 126.354V128.709ZM17.2793 126.125C17.2793 125.064 17.1328 124.294 16.8398 123.813C16.5527 123.327 16.1016 123.084 15.4863 123.084C14.8887 123.084 14.4463 123.315 14.1592 123.778C13.8779 124.235 13.7285 124.953 13.7109 125.932V129.043C13.7109 130.086 13.8516 130.862 14.1328 131.372C14.4199 131.876 14.877 132.128 15.5039 132.128C16.125 132.128 16.5732 131.885 16.8486 131.398C17.124 130.912 17.2676 130.168 17.2793 129.166V126.125Z" fill="#4D4D4D"/>
<path d="M63.04 75H60.5V65.209L57.4678 66.1494V64.084L62.7676 62.1855H63.04V75ZM75.8193 69.709C75.8193 71.4785 75.4531 72.832 74.7207 73.7695C73.9883 74.707 72.916 75.1758 71.5039 75.1758C70.1094 75.1758 69.043 74.7158 68.3047 73.7959C67.5664 72.876 67.1885 71.5576 67.1709 69.8408V67.4854C67.1709 65.6982 67.54 64.3418 68.2783 63.416C69.0225 62.4902 70.0918 62.0273 71.4863 62.0273C72.8809 62.0273 73.9473 62.4873 74.6855 63.4072C75.4238 64.3213 75.8018 65.6367 75.8193 67.3535V69.709ZM73.2793 67.125C73.2793 66.0645 73.1328 65.2939 72.8398 64.8135C72.5527 64.3271 72.1016 64.084 71.4863 64.084C70.8887 64.084 70.4463 64.3154 70.1592 64.7783C69.8779 65.2354 69.7285 65.9531 69.7109 66.9316V70.043C69.7109 71.0859 69.8516 71.8623 70.1328 72.3721C70.4199 72.876 70.877 73.1279 71.5039 73.1279C72.125 73.1279 72.5732 72.8848 72.8486 72.3984C73.124 71.9121 73.2676 71.168 73.2793 70.166V67.125ZM86.1553 69.709C86.1553 71.4785 85.7891 72.832 85.0566 73.7695C84.3242 74.707 83.252 75.1758 81.8398 75.1758C80.4453 75.1758 79.3789 74.7158 78.6406 73.7959C77.9023 72.876 77.5244 71.5576 77.5068 69.8408V67.4854C77.5068 65.6982 77.876 64.3418 78.6143 63.416C79.3584 62.4902 80.4277 62.0273 81.8223 62.0273C83.2168 62.0273 84.2832 62.4873 85.0215 63.4072C85.7598 64.3213 86.1377 65.6367 86.1553 67.3535V69.709ZM83.6152 67.125C83.6152 66.0645 83.4688 65.2939 83.1758 64.8135C82.8887 64.3271 82.4375 64.084 81.8223 64.084C81.2246 64.084 80.7822 64.3154 80.4951 64.7783C80.2139 65.2354 80.0645 65.9531 80.0469 66.9316V70.043C80.0469 71.0859 80.1875 71.8623 80.4688 72.3721C80.7559 72.876 81.2129 73.1279 81.8398 73.1279C82.4609 73.1279 82.9092 72.8848 83.1846 72.3984C83.46 71.9121 83.6035 71.168 83.6152 70.166V67.125Z" fill="#4D4D4D"/>
<path d="M146.504 45H143.964V35.209L140.932 36.1494V34.084L146.231 32.1855H146.504V45ZM151.048 38.707L151.786 32.2031H158.958V34.3213H153.869L153.553 37.0723C154.156 36.75 154.798 36.5889 155.478 36.5889C156.696 36.5889 157.651 36.9668 158.343 37.7227C159.034 38.4785 159.38 39.5361 159.38 40.8955C159.38 41.7217 159.204 42.4629 158.853 43.1191C158.507 43.7695 158.009 44.2764 157.358 44.6396C156.708 44.9971 155.94 45.1758 155.056 45.1758C154.282 45.1758 153.564 45.0205 152.902 44.71C152.24 44.3936 151.716 43.9512 151.329 43.3828C150.948 42.8145 150.746 42.167 150.723 41.4404H153.236C153.289 41.9736 153.474 42.3896 153.79 42.6885C154.112 42.9814 154.531 43.1279 155.047 43.1279C155.621 43.1279 156.063 42.9229 156.374 42.5127C156.685 42.0967 156.84 41.5107 156.84 40.7549C156.84 40.0283 156.661 39.4717 156.304 39.085C155.946 38.6982 155.439 38.5049 154.783 38.5049C154.18 38.5049 153.69 38.6631 153.315 38.9795L153.069 39.208L151.048 38.707ZM169.619 39.709C169.619 41.4785 169.253 42.832 168.521 43.7695C167.788 44.707 166.716 45.1758 165.304 45.1758C163.909 45.1758 162.843 44.7158 162.104 43.7959C161.366 42.876 160.988 41.5576 160.971 39.8408V37.4854C160.971 35.6982 161.34 34.3418 162.078 33.416C162.822 32.4902 163.892 32.0273 165.286 32.0273C166.681 32.0273 167.747 32.4873 168.485 33.4072C169.224 34.3213 169.602 35.6367 169.619 37.3535V39.709ZM167.079 37.125C167.079 36.0645 166.933 35.2939 166.64 34.8135C166.353 34.3271 165.901 34.084 165.286 34.084C164.688 34.084 164.246 34.3154 163.959 34.7783C163.678 35.2354 163.528 35.9531 163.511 36.9316V40.043C163.511 41.0859 163.651 41.8623 163.933 42.3721C164.22 42.876 164.677 43.1279 165.304 43.1279C165.925 43.1279 166.373 42.8848 166.648 42.3984C166.924 41.9121 167.067 41.168 167.079 40.166V37.125Z" fill="#4D4D4D"/>
<path d="M248.931 75H240.159V73.2598L244.299 68.8477C244.867 68.2266 245.286 67.6846 245.556 67.2217C245.831 66.7588 245.969 66.3193 245.969 65.9033C245.969 65.335 245.825 64.8896 245.538 64.5674C245.251 64.2393 244.841 64.0752 244.308 64.0752C243.733 64.0752 243.279 64.2744 242.945 64.6729C242.617 65.0654 242.453 65.584 242.453 66.2285H239.904C239.904 65.4492 240.089 64.7373 240.458 64.0928C240.833 63.4482 241.36 62.9443 242.04 62.5811C242.72 62.2119 243.49 62.0273 244.352 62.0273C245.67 62.0273 246.692 62.3438 247.419 62.9766C248.151 63.6094 248.518 64.5029 248.518 65.6572C248.518 66.29 248.354 66.9346 248.025 67.5908C247.697 68.2471 247.135 69.0117 246.338 69.8848L243.429 72.9521H248.931V75ZM259.108 69.709C259.108 71.4785 258.742 72.832 258.01 73.7695C257.277 74.707 256.205 75.1758 254.793 75.1758C253.398 75.1758 252.332 74.7158 251.594 73.7959C250.855 72.876 250.478 71.5576 250.46 69.8408V67.4854C250.46 65.6982 250.829 64.3418 251.567 63.416C252.312 62.4902 253.381 62.0273 254.775 62.0273C256.17 62.0273 257.236 62.4873 257.975 63.4072C258.713 64.3213 259.091 65.6367 259.108 67.3535V69.709ZM256.568 67.125C256.568 66.0645 256.422 65.2939 256.129 64.8135C255.842 64.3271 255.391 64.084 254.775 64.084C254.178 64.084 253.735 64.3154 253.448 64.7783C253.167 65.2354 253.018 65.9531 253 66.9316V70.043C253 71.0859 253.141 71.8623 253.422 72.3721C253.709 72.876 254.166 73.1279 254.793 73.1279C255.414 73.1279 255.862 72.8848 256.138 72.3984C256.413 71.9121 256.557 71.168 256.568 70.166V67.125ZM269.444 69.709C269.444 71.4785 269.078 72.832 268.346 73.7695C267.613 74.707 266.541 75.1758 265.129 75.1758C263.734 75.1758 262.668 74.7158 261.93 73.7959C261.191 72.876 260.813 71.5576 260.796 69.8408V67.4854C260.796 65.6982 261.165 64.3418 261.903 63.416C262.647 62.4902 263.717 62.0273 265.111 62.0273C266.506 62.0273 267.572 62.4873 268.311 63.4072C269.049 64.3213 269.427 65.6367 269.444 67.3535V69.709ZM266.904 67.125C266.904 66.0645 266.758 65.2939 266.465 64.8135C266.178 64.3271 265.727 64.084 265.111 64.084C264.514 64.084 264.071 64.3154 263.784 64.7783C263.503 65.2354 263.354 65.9531 263.336 66.9316V70.043C263.336 71.0859 263.477 71.8623 263.758 72.3721C264.045 72.876 264.502 73.1279 265.129 73.1279C265.75 73.1279 266.198 72.8848 266.474 72.3984C266.749 71.9121 266.893 71.168 266.904 70.166V67.125Z" fill="#4D4D4D"/>
<path d="M301.642 134H292.87V132.26L297.01 127.848C297.578 127.227 297.997 126.685 298.267 126.222C298.542 125.759 298.68 125.319 298.68 124.903C298.68 124.335 298.536 123.89 298.249 123.567C297.962 123.239 297.552 123.075 297.019 123.075C296.444 123.075 295.99 123.274 295.656 123.673C295.328 124.065 295.164 124.584 295.164 125.229H292.615C292.615 124.449 292.8 123.737 293.169 123.093C293.544 122.448 294.071 121.944 294.751 121.581C295.431 121.212 296.201 121.027 297.062 121.027C298.381 121.027 299.403 121.344 300.13 121.977C300.862 122.609 301.229 123.503 301.229 124.657C301.229 125.29 301.064 125.935 300.736 126.591C300.408 127.247 299.846 128.012 299.049 128.885L296.14 131.952H301.642V134ZM303.584 127.707L304.322 121.203H311.494V123.321H306.405L306.089 126.072C306.692 125.75 307.334 125.589 308.014 125.589C309.232 125.589 310.188 125.967 310.879 126.723C311.57 127.479 311.916 128.536 311.916 129.896C311.916 130.722 311.74 131.463 311.389 132.119C311.043 132.77 310.545 133.276 309.895 133.64C309.244 133.997 308.477 134.176 307.592 134.176C306.818 134.176 306.101 134.021 305.438 133.71C304.776 133.394 304.252 132.951 303.865 132.383C303.484 131.814 303.282 131.167 303.259 130.44H305.772C305.825 130.974 306.01 131.39 306.326 131.688C306.648 131.981 307.067 132.128 307.583 132.128C308.157 132.128 308.6 131.923 308.91 131.513C309.221 131.097 309.376 130.511 309.376 129.755C309.376 129.028 309.197 128.472 308.84 128.085C308.482 127.698 307.976 127.505 307.319 127.505C306.716 127.505 306.227 127.663 305.852 127.979L305.605 128.208L303.584 127.707ZM322.155 128.709C322.155 130.479 321.789 131.832 321.057 132.77C320.324 133.707 319.252 134.176 317.84 134.176C316.445 134.176 315.379 133.716 314.641 132.796C313.902 131.876 313.524 130.558 313.507 128.841V126.485C313.507 124.698 313.876 123.342 314.614 122.416C315.358 121.49 316.428 121.027 317.822 121.027C319.217 121.027 320.283 121.487 321.021 122.407C321.76 123.321 322.138 124.637 322.155 126.354V128.709ZM319.615 126.125C319.615 125.064 319.469 124.294 319.176 123.813C318.889 123.327 318.438 123.084 317.822 123.084C317.225 123.084 316.782 123.315 316.495 123.778C316.214 124.235 316.064 124.953 316.047 125.932V129.043C316.047 130.086 316.188 130.862 316.469 131.372C316.756 131.876 317.213 132.128 317.84 132.128C318.461 132.128 318.909 131.885 319.185 131.398C319.46 130.912 319.604 130.168 319.615 129.166V126.125Z" fill="#4D4D4D"/>
<mask id="path-6-outside-1" maskUnits="userSpaceOnUse" x="1.82467" y="57.0475" width="292.96" height="154.947" fill="black">
<rect fill="white" x="1.82467" y="57.0475" width="292.96" height="154.947"/>
<path fill-rule="evenodd" clip-rule="evenodd" d="M243.168 128.188C243.152 128.169 243.136 128.15 243.12 128.131C229.187 111.313 210.91 98.5272 190.186 91.2239C166.096 82.7345 139.937 82.0892 115.459 89.3806C90.9796 96.672 69.4374 111.526 53.9193 131.813C40.5696 149.266 32.2677 169.968 29.8073 191.67C29.1434 197.526 24.2977 202.196 18.4055 202.05C12.5134 201.905 7.81325 197.002 8.39963 191.138C11.0204 164.926 20.8773 139.879 36.9665 118.845C55.223 94.9781 80.5668 77.5031 109.366 68.925C110.323 68.6397 111.283 68.3647 112.245 68.1001C112.317 68.0787 112.389 68.0581 112.462 68.0382C130.616 63.0753 149.61 61.7538 168.343 64.1911C190.611 67.0883 211.876 75.2144 230.401 87.905C248.927 100.596 264.185 117.491 274.93 137.208C283.969 153.796 289.597 171.985 291.527 190.706C292.131 196.569 287.446 201.485 281.554 201.649C275.662 201.812 270.803 197.158 270.121 191.303C268.333 175.951 263.615 161.05 256.188 147.421C252.463 140.584 248.099 134.147 243.168 128.188Z"/>
</mask>
<g filter="url(#filter0_ii)">
<path fill-rule="evenodd" clip-rule="evenodd" d="M243.168 128.188C243.152 128.169 243.136 128.15 243.12 128.131C229.187 111.313 210.91 98.5272 190.186 91.2239C166.096 82.7345 139.937 82.0892 115.459 89.3806C90.9796 96.672 69.4374 111.526 53.9193 131.813C40.5696 149.266 32.2677 169.968 29.8073 191.67C29.1434 197.526 24.2977 202.196 18.4055 202.05C12.5134 201.905 7.81325 197.002 8.39963 191.138C11.0204 164.926 20.8773 139.879 36.9665 118.845C55.223 94.9781 80.5668 77.5031 109.366 68.925C110.323 68.6397 111.283 68.3647 112.245 68.1001C112.317 68.0787 112.389 68.0581 112.462 68.0382C130.616 63.0753 149.61 61.7538 168.343 64.1911C190.611 67.0883 211.876 75.2144 230.401 87.905C248.927 100.596 264.185 117.491 274.93 137.208C283.969 153.796 289.597 171.985 291.527 190.706C292.131 196.569 287.446 201.485 281.554 201.649C275.662 201.812 270.803 197.158 270.121 191.303C268.333 175.951 263.615 161.05 256.188 147.421C252.463 140.584 248.099 134.147 243.168 128.188Z" fill="#E3EDF7"/>
</g>
<path d="M243.168 128.188L244.709 126.913L244.7 126.903L243.168 128.188ZM243.12 128.131L244.661 126.855L244.661 126.855L243.12 128.131ZM190.186 91.2239L190.851 89.3376L190.186 91.2239ZM115.459 89.3806L114.888 87.4638L115.459 89.3806ZM53.9193 131.813L52.3308 130.598L53.9193 131.813ZM29.8073 191.67L31.7946 191.895L29.8073 191.67ZM18.4055 202.05L18.3562 204.05L18.4055 202.05ZM8.39963 191.138L6.40955 190.939L8.39963 191.138ZM36.9665 118.845L38.555 120.061L36.9665 118.845ZM109.366 68.925L108.795 67.0082L108.795 67.0082L109.366 68.925ZM112.245 68.1001L112.776 70.0284L112.796 70.0229L112.816 70.017L112.245 68.1001ZM112.462 68.0382L112.989 69.9674L112.989 69.9674L112.462 68.0382ZM168.343 64.1911L168.085 66.1744L168.343 64.1911ZM274.93 137.208L273.174 138.165L274.93 137.208ZM291.527 190.706L289.537 190.911L291.527 190.706ZM270.121 191.303L268.134 191.535L270.121 191.303ZM256.188 147.421L257.944 146.464L257.944 146.464L256.188 147.421ZM244.7 126.903C244.687 126.887 244.674 126.871 244.661 126.855L241.58 129.407C241.599 129.429 241.617 129.452 241.636 129.474L244.7 126.903ZM244.661 126.855C230.496 109.759 211.917 96.7617 190.851 89.3376L189.521 93.1102C209.902 100.293 227.877 112.867 241.58 129.407L244.661 126.855ZM190.851 89.3376C166.363 80.7078 139.771 80.0519 114.888 87.4638L116.029 91.2974C140.104 84.1266 165.83 84.7611 189.521 93.1102L190.851 89.3376ZM114.888 87.4638C90.0039 94.8758 68.1055 109.975 52.3308 130.598L55.5079 133.028C70.7693 113.076 91.9554 98.4682 116.029 91.2974L114.888 87.4638ZM52.3308 130.598C38.7603 148.339 30.3211 169.384 27.8201 191.444L31.7946 191.895C34.2143 170.553 42.3789 150.192 55.5079 133.028L52.3308 130.598ZM27.8201 191.444C27.2602 196.383 23.2025 200.168 18.4549 200.051L18.3562 204.05C25.3928 204.223 31.0265 198.67 31.7946 191.895L27.8201 191.444ZM18.4549 200.051C13.6235 199.932 9.92905 195.944 10.3897 191.337L6.40955 190.939C5.69744 198.061 11.4034 203.878 18.3562 204.05L18.4549 200.051ZM10.3897 191.337C12.9736 165.494 22.692 140.799 38.555 120.061L35.3779 117.63C19.0626 138.96 9.06717 164.359 6.40955 190.939L10.3897 191.337ZM38.555 120.061C56.5549 96.5287 81.5425 79.2993 109.936 70.8418L108.795 67.0082C79.5911 75.7069 53.8911 93.4275 35.3779 117.63L38.555 120.061ZM109.936 70.8418C110.881 70.5605 111.827 70.2894 112.776 70.0284L111.715 66.1717C110.739 66.4401 109.766 66.7189 108.795 67.0082L109.936 70.8418ZM112.816 70.017C112.873 69.9999 112.931 69.9834 112.989 69.9674L111.935 66.109C111.847 66.1328 111.761 66.1576 111.675 66.1832L112.816 70.017ZM112.989 69.9674C130.888 65.0743 149.616 63.7713 168.085 66.1744L168.601 62.2078C149.605 59.7362 130.344 61.0764 111.935 66.109L112.989 69.9674ZM168.085 66.1744C190.04 69.0308 211.006 77.0427 229.271 89.555L231.532 86.2551C212.746 73.3861 191.182 65.1457 168.601 62.2078L168.085 66.1744ZM229.271 89.555C247.536 102.067 262.58 118.725 273.174 138.165L276.686 136.251C265.79 116.256 250.317 99.1241 231.532 86.2551L229.271 89.555ZM273.174 138.165C282.086 154.52 287.635 172.453 289.537 190.911L293.516 190.501C291.56 171.517 285.852 153.072 276.686 136.251L273.174 138.165ZM289.537 190.911C290.012 195.517 286.33 199.516 281.499 199.649L281.609 203.648C288.562 203.455 294.25 197.621 293.516 190.501L289.537 190.911ZM281.499 199.649C276.751 199.781 272.682 196.008 272.107 191.072L268.134 191.535C268.923 198.307 274.574 203.843 281.609 203.648L281.499 199.649ZM272.107 191.072C270.29 175.466 265.494 160.319 257.944 146.464L254.432 148.378C261.736 161.782 266.376 176.437 268.134 191.535L272.107 191.072ZM257.944 146.464C254.157 139.514 249.721 132.97 244.709 126.913L241.627 129.463C246.476 135.323 250.768 141.654 254.432 148.378L257.944 146.464Z" fill="url(#paint0_linear)" fill-opacity="0.46" mask="url(#path-6-outside-1)"/>
<path d="M18.411 202.048C12.5189 201.903 7.81871 197.001 8.40495 191.136C11.7207 157.965 26.603 126.88 50.6258 103.443C77.2041 77.5136 112.865 63.0005 149.997 63.002C187.128 63.0034 222.788 77.5195 249.365 103.451C273.386 126.89 288.265 157.976 291.579 191.147C292.164 197.012 287.464 201.914 281.572 202.059C275.679 202.204 270.834 197.533 270.171 191.677C267.045 164.08 254.492 138.275 234.459 118.728C211.869 96.6856 181.558 84.347 149.996 84.3458C118.434 84.3445 88.1221 96.6807 65.5306 118.721C45.496 138.267 32.9408 164.071 29.8127 191.667C29.1488 197.524 24.3032 202.194 18.411 202.048Z" fill="url(#paint1_linear)"/>
<g filter="url(#filter1_ddd)">
<rect x="115.412" y="130.962" width="74.1242" height="74.1242" rx="37.0621" fill="#BCBCBC"/>
<rect x="114.618" y="130.168" width="75.7124" height="75.7124" rx="37.8562" stroke="url(#paint2_linear)" stroke-opacity="0.46" stroke-width="1.58824"/>
</g>
<g filter="url(#filter2_ddd)">
<path d="M156.007 142.051L125.732 41.9999L136.191 147.191C129.184 152.857 125.522 162.146 127.517 171.604C130.353 185.095 143.593 193.804 157.079 191.049C170.565 188.295 179.204 175.116 176.368 161.625C174.18 151.256 165.861 143.74 156.007 142.051Z" fill="#D7D7D7"/>
<path d="M155.528 142.196L155.618 142.492L155.922 142.544C165.582 144.199 173.734 151.567 175.879 161.728C178.658 174.949 170.193 187.86 156.979 190.56C143.763 193.259 130.786 184.723 128.006 171.501L128.006 171.501C126.052 162.234 129.639 153.132 136.505 147.579L136.715 147.41L136.689 147.141L126.736 47.0443L155.528 142.196Z" stroke="url(#paint3_linear)"/>
</g>
<path d="M141.04 172H138.5V162.209L135.468 163.149V161.084L140.768 159.186H141.04V172ZM152.721 167.184H154.171V169.231H152.721V172H150.181V169.231H144.934L144.819 167.632L150.154 159.203H152.721V167.184ZM147.351 167.184H150.181V162.666L150.014 162.956L147.351 167.184ZM164.155 166.709C164.155 168.479 163.789 169.832 163.057 170.77C162.324 171.707 161.252 172.176 159.84 172.176C158.445 172.176 157.379 171.716 156.641 170.796C155.902 169.876 155.524 168.558 155.507 166.841V164.485C155.507 162.698 155.876 161.342 156.614 160.416C157.358 159.49 158.428 159.027 159.822 159.027C161.217 159.027 162.283 159.487 163.021 160.407C163.76 161.321 164.138 162.637 164.155 164.354V166.709ZM161.615 164.125C161.615 163.064 161.469 162.294 161.176 161.813C160.889 161.327 160.438 161.084 159.822 161.084C159.225 161.084 158.782 161.315 158.495 161.778C158.214 162.235 158.064 162.953 158.047 163.932V167.043C158.047 168.086 158.188 168.862 158.469 169.372C158.756 169.876 159.213 170.128 159.84 170.128C160.461 170.128 160.909 169.885 161.185 169.398C161.46 168.912 161.604 168.168 161.615 167.166V164.125Z" fill="#4D4D4D"/>
<defs>
<filter id="filter0_ii" x="-5.17676" y="49.0713" width="305.082" height="168.188" filterUnits="userSpaceOnUse" color-interpolation-filters="sRGB">
<feFlood flood-opacity="0" result="BackgroundImageFix"/>
<feBlend mode="normal" in="SourceGraphic" in2="BackgroundImageFix" result="shape"/>
<feColorMatrix in="SourceAlpha" type="matrix" values="0 0 0 0 0 0 0 0 0 0 0 0 0 0 0 0 0 0 127 0" result="hardAlpha"/>
<feOffset dx="6" dy="6"/>
<feGaussianBlur stdDeviation="7"/>
<feComposite in2="hardAlpha" operator="arithmetic" k2="-1" k3="1"/>
<feColorMatrix type="matrix" values="0 0 0 0 0.756863 0 0 0 0 0.835294 0 0 0 0 0.933333 0 0 0 1 0"/>
<feBlend mode="normal" in2="shape" result="effect1_innerShadow"/>
<feColorMatrix in="SourceAlpha" type="matrix" values="0 0 0 0 0 0 0 0 0 0 0 0 0 0 0 0 0 0 127 0" result="hardAlpha"/>
<feOffset dx="-8" dy="-8"/>
<feGaussianBlur stdDeviation="4.5"/>
<feComposite in2="hardAlpha" operator="arithmetic" k2="-1" k3="1"/>
<feColorMatrix type="matrix" values="0 0 0 0 1 0 0 0 0 1 0 0 0 0 1 0 0 0 0.88 0"/>
<feBlend mode="normal" in2="effect1_innerShadow" result="effect2_innerShadow"/>
</filter>
<filter id="filter1_ddd" x="84.2948" y="99.8446" width="118.83" height="118.83" filterUnits="userSpaceOnUse" color-interpolation-filters="sRGB">
<feFlood flood-opacity="0" result="BackgroundImageFix"/>
<feColorMatrix in="SourceAlpha" type="matrix" values="0 0 0 0 0 0 0 0 0 0 0 0 0 0 0 0 0 0 127 0"/>
<feOffset dx="2" dy="2"/>
<feGaussianBlur stdDeviation="5"/>
<feColorMatrix type="matrix" values="0 0 0 0 0.434896 0 0 0 0 0.548322 0 0 0 0 0.690104 0 0 0 0.05 0"/>
<feBlend mode="normal" in2="BackgroundImageFix" result="effect1_dropShadow"/>
<feColorMatrix in="SourceAlpha" type="matrix" values="0 0 0 0 0 0 0 0 0 0 0 0 0 0 0 0 0 0 127 0"/>
<feOffset dx="-9.52941" dy="-9.52941"/>
<feGaussianBlur stdDeviation="10"/>
<feColorMatrix type="matrix" values="0 0 0 0 1 0 0 0 0 1 0 0 0 0 1 0 0 0 1 0"/>
<feBlend mode="normal" in2="effect1_dropShadow" result="effect2_dropShadow"/>
<feColorMatrix in="SourceAlpha" type="matrix" values="0 0 0 0 0 0 0 0 0 0 0 0 0 0 0 0 0 0 127 0"/>
<feOffset dx="2" dy="2"/>
<feGaussianBlur stdDeviation="3"/>
<feColorMatrix type="matrix" values="0 0 0 0 0.446076 0 0 0 0 0.558333 0 0 0 0 0.67059 0 0 0 0.1 0"/>
<feBlend mode="normal" in2="effect2_dropShadow" result="effect3_dropShadow"/>
<feBlend mode="normal" in="SourceGraphic" in2="effect3_dropShadow" result="shape"/>
</filter>
<filter id="filter2_ddd" x="17.71" y="0.71" width="241.664" height="239.202" filterUnits="userSpaceOnUse" color-interpolation-filters="sRGB">
<feFlood flood-opacity="0" result="BackgroundImageFix"/>
<feColorMatrix in="SourceAlpha" type="matrix" values="0 0 0 0 0 0 0 0 0 0 0 0 0 0 0 0 0 0 127 0"/>
<feOffset dx="-9.53" dy="-9.53"/>
<feGaussianBlur stdDeviation="15.88"/>
<feColorMatrix type="matrix" values="0 0 0 0 1 0 0 0 0 1 0 0 0 0 1 0 0 0 1 0"/>
<feBlend mode="normal" in2="BackgroundImageFix" result="effect1_dropShadow"/>
<feColorMatrix in="SourceAlpha" type="matrix" values="0 0 0 0 0 0 0 0 0 0 0 0 0 0 0 0 0 0 127 0"/>
<feOffset dx="3.18" dy="3.18"/>
<feGaussianBlur stdDeviation="2"/>
<feColorMatrix type="matrix" values="0 0 0 0 0.447059 0 0 0 0 0.556863 0 0 0 0 0.670588 0 0 0 0.1 0"/>
<feBlend mode="normal" in2="effect1_dropShadow" result="effect2_dropShadow"/>
<feColorMatrix in="SourceAlpha" type="matrix" values="0 0 0 0 0 0 0 0 0 0 0 0 0 0 0 0 0 0 127 0"/>
<feOffset dx="6.35" dy="6.35"/>
<feGaussianBlur stdDeviation="15.88"/>
<feColorMatrix type="matrix" values="0 0 0 0 0.435294 0 0 0 0 0.54902 0 0 0 0 0.690196 0 0 0 0.41 0"/>
<feBlend mode="normal" in2="effect2_dropShadow" result="effect3_dropShadow"/>
<feBlend mode="normal" in="SourceGraphic" in2="effect3_dropShadow" result="shape"/>
</filter>
<linearGradient id="paint0_linear" x1="267.837" y1="102.505" x2="224.571" y2="254.119" gradientUnits="userSpaceOnUse">
<stop stop-color="#D6E3F3"/>
<stop offset="1" stop-color="white"/>
</linearGradient>
<linearGradient id="paint1_linear" x1="275.296" y1="118.445" x2="60.4179" y2="124.398" gradientUnits="userSpaceOnUse">
<stop stop-color="#FE504C"/>
<stop offset="0.255208" stop-color="#EC8556"/>
<stop offset="0.427083" stop-color="#D9C359"/>
<stop offset="0.614583" stop-color="#B4DD61"/>
<stop offset="0.807292" stop-color="#74BE8A"/>
<stop offset="1" stop-color="#01B55C"/>
</linearGradient>
<linearGradient id="paint2_linear" x1="186.105" y1="200.726" x2="128.703" y2="203.11" gradientUnits="userSpaceOnUse">
<stop stop-color="#D6E3F3"/>
<stop offset="1" stop-color="white"/>
</linearGradient>
<linearGradient id="paint3_linear" x1="204.332" y1="162.066" x2="89.1009" y2="170.527" gradientUnits="userSpaceOnUse">
<stop offset="0.202194" stop-color="#C1C1C1"/>
<stop offset="0.706321" stop-color="white" stop-opacity="0"/>
</linearGradient>
</defs>
</svg>