<svg width="312" height="352" viewBox="0 0 312 352" fill="none" xmlns="http://www.w3.org/2000/svg">
<rect x="0.470703" y="0.1875" width="286" height="324" rx="10" fill="#3DA9FC"/>
<path d="M141.981 97.596C140.591 97.596 139.201 96.9273 138.506 95.5898C138.406 95.3669 138.406 95.0325 138.704 94.8096C138.903 94.6981 139.201 94.6981 139.399 95.0325C140.293 96.7044 142.478 96.8158 143.868 95.9241C145.258 95.0325 146.152 93.1377 146.252 90.9085C146.351 88.9023 145.954 86.7846 145.358 84.7783C144.663 85.1127 143.967 85.2241 143.173 85.2241C141.882 85.2241 140.79 84.8898 140.095 84.1096C139.102 83.2179 138.704 81.6575 139.201 80.4314C139.499 79.6512 140.095 79.0939 140.889 78.871C141.882 78.5367 143.173 78.871 143.967 79.5398C144.961 80.4314 145.556 81.7689 145.954 83.1064C148.337 81.546 149.926 78.2023 150.025 75.0814C150.124 70.1773 147.443 65.9419 145.159 63.1554C144.961 62.9325 144.961 62.5981 145.159 62.3752C145.358 62.1523 145.656 62.1523 145.854 62.3752C148.238 65.2731 151.018 69.8429 150.919 75.0814C150.82 78.6481 149.032 82.4377 146.252 84.221C146.252 84.3325 146.252 84.3325 146.351 84.4439C146.947 86.6731 147.344 88.7908 147.245 91.02C147.046 93.5835 146.053 95.8127 144.365 96.9273C143.57 97.3731 142.776 97.596 141.981 97.596ZM141.683 79.8741C141.485 79.8741 141.286 79.8742 141.088 79.9856C140.69 80.0971 140.293 80.32 139.995 80.9887C139.697 81.7689 139.995 82.7721 140.591 83.3294C141.187 83.8867 142.081 84.221 143.074 84.1096C143.769 84.1096 144.365 83.8866 144.961 83.6637C144.563 82.3262 144.067 81.2116 143.272 80.4314C142.875 80.0971 142.279 79.8741 141.683 79.8741Z" fill="#FF41AA"/>
<path d="M206.828 232.572C206.629 232.572 206.431 232.461 206.431 232.238C206.331 232.015 206.431 231.68 206.629 231.457C209.013 230.12 210.502 226.665 210.502 222.318C210.502 221.203 210.403 220.312 210.204 219.42C209.41 220.534 208.218 221.203 207.126 221.203C206.232 221.203 205.338 220.757 204.643 219.977C204.047 219.308 203.849 218.417 203.948 217.525C204.047 216.411 204.742 215.63 205.735 215.185C207.026 214.627 208.516 214.85 209.509 215.742C209.807 216.076 210.105 216.411 210.403 216.856C211.098 213.958 209.708 210.838 208.715 209.166C208.218 208.386 207.722 207.605 207.324 206.825C206.133 204.93 204.941 203.036 204.246 200.695C203.352 197.351 204.147 193.004 207.225 191.667C207.523 191.555 207.722 191.667 207.821 192.001C207.92 192.336 207.821 192.558 207.523 192.67C205.14 193.673 204.345 197.463 205.14 200.249C205.735 202.367 206.828 204.15 208.02 206.045C208.516 206.825 209.013 207.605 209.509 208.497C210.701 210.615 212.389 214.627 210.899 218.194C211.297 219.308 211.495 220.646 211.495 222.318C211.396 227.111 209.807 230.9 207.126 232.461C207.026 232.572 206.927 232.572 206.828 232.572ZM207.126 216.188C206.729 216.188 206.431 216.299 206.033 216.411C205.636 216.633 205.04 216.968 204.941 217.86C204.842 218.417 205.04 218.974 205.438 219.42C205.835 219.977 206.53 220.312 207.126 220.312C208.317 220.312 209.31 219.308 209.807 218.305C209.509 217.637 209.211 217.191 208.814 216.856C208.417 216.411 207.722 216.188 207.126 216.188Z" fill="#FFAF00"/>
<path d="M89.6471 272.251C89.5478 272.251 89.3491 272.14 89.2498 272.028C89.0512 271.805 89.0512 271.471 89.2498 271.248C91.9311 268.35 93.52 264.115 93.52 259.991C93.52 258.653 93.3214 257.316 93.0234 255.978C92.1297 256.201 91.1366 256.313 90.2429 256.201C88.0582 255.755 86.1714 254.084 85.2776 251.854C84.7811 250.628 84.8804 249.068 85.3769 247.953C85.7741 247.173 86.2707 246.727 86.9658 246.616C87.9589 246.393 88.9519 246.839 89.945 248.065C91.6332 249.848 92.9241 252.189 93.7186 254.641C94.4137 254.306 95.0096 253.749 95.5061 253.192C97.2936 250.963 97.5915 247.396 96.4991 243.384C95.7047 240.709 94.513 238.591 93.0234 237.03C91.3352 235.247 89.0512 234.355 87.0651 234.578C86.7672 234.578 86.5686 234.355 86.5686 234.021C86.5686 233.687 86.7672 233.464 87.0651 233.464C89.4484 233.241 91.8318 234.244 93.8179 236.139C95.5061 237.811 96.6978 240.151 97.5915 242.938C98.8825 247.285 98.3859 251.297 96.3998 253.749C95.804 254.529 95.0096 255.087 94.1158 255.533C94.513 256.981 94.6123 258.43 94.6123 259.991C94.6123 264.561 92.9241 268.908 90.0443 272.028C89.8457 272.14 89.7464 272.251 89.6471 272.251ZM87.363 247.619C87.2637 247.619 87.1644 247.619 87.1644 247.619C86.7672 247.73 86.4693 247.953 86.2707 248.399C85.8734 249.179 85.8734 250.405 86.2707 251.297C86.9658 253.192 88.654 254.641 90.4415 254.975C91.2359 255.087 92.0304 255.087 92.7255 254.864C92.0304 252.523 90.8387 250.405 89.2498 248.734C88.5547 248.065 87.9589 247.619 87.363 247.619Z" fill="#FF0E41"/>
<path d="M231.455 60.9262C231.256 60.9262 231.157 60.8148 231.058 60.7033C230.859 60.4804 230.958 60.146 231.157 59.9231C232.647 58.8085 233.54 56.4679 233.342 54.1273C233.242 53.0127 233.044 51.8981 232.647 50.7835C231.753 51.1179 230.76 51.3408 229.667 51.2293C227.88 51.0064 226.39 50.1148 225.497 48.6658C224.802 47.5512 224.702 46.4366 225 45.4335C225.199 44.7648 225.695 44.2075 226.39 43.8731C227.185 43.4273 228.277 43.4273 229.072 43.8731C230.462 44.5419 231.356 45.9908 232.051 47.2169C232.448 47.9971 232.746 48.6658 233.044 49.3346C233.441 49.1116 233.739 48.7773 234.136 48.4429C236.122 46.1023 236.321 41.9783 234.633 38.8575C233.143 36.071 230.263 34.1762 226.788 33.396C226.49 33.396 226.291 33.0616 226.39 32.7273C226.39 32.3929 226.688 32.17 226.986 32.2814C230.661 33.0616 233.838 35.1794 235.527 38.1887C237.513 41.7554 237.215 46.4366 234.931 49.1116C234.533 49.5575 234.037 50.0033 233.54 50.3377C234.037 51.6752 234.236 52.9012 234.335 54.1273C234.434 56.9137 233.441 59.5887 231.654 60.9262C231.654 60.8148 231.554 60.9262 231.455 60.9262ZM227.781 44.4304C227.483 44.4304 227.086 44.5418 226.788 44.6533C226.49 44.7648 226.093 45.0991 225.894 45.6564C225.695 46.3252 225.795 47.1054 226.291 47.8856C226.986 49.1116 228.277 49.8919 229.667 50.0033C230.561 50.1148 231.356 50.0033 232.15 49.6689C231.852 49.0002 231.554 48.3314 231.157 47.6627C230.561 46.5481 229.767 45.2106 228.575 44.7648C228.476 44.5419 228.079 44.4304 227.781 44.4304Z" fill="#FF0E41"/>
<path d="M61.2456 99.9364C61.0469 99.9364 60.8483 99.825 60.749 99.6021C60.6497 99.2677 60.8483 99.0448 61.0469 98.9333C63.7282 97.9302 65.8136 95.1437 66.0122 91.9114C66.0122 91.4656 66.0122 91.0198 66.0122 90.5739C63.4303 91.3541 60.5504 90.6854 58.6636 88.5677C57.6706 87.4531 56.9754 85.6698 57.6706 84.2208C58.5643 82.4375 60.749 82.326 62.5365 83.3291C64.6219 84.4437 66.2108 86.6729 66.8067 89.2364C67.0053 89.125 67.2039 89.0135 67.4025 88.9021C69.8851 87.2302 71.2754 83.8864 70.9775 80.4312C70.6796 76.8645 68.6935 73.8552 66.5088 70.7343C64.4233 67.725 62.3379 64.6041 61.8414 60.7031C61.3449 56.4677 63.331 51.8979 66.6081 49.6687C66.8067 49.5573 67.1046 49.5573 67.3032 49.8916C67.4025 50.1145 67.4025 50.4489 67.1046 50.6718C64.1254 52.6781 62.3379 56.6906 62.8344 60.5916C63.2317 64.1583 65.2178 66.9448 67.3032 70.0656C69.3886 73.1864 71.5733 76.4187 71.9706 80.3198C72.2685 84.1093 70.6796 87.8989 67.899 89.7937C67.6011 90.0166 67.3032 90.1281 66.906 90.351C67.0053 90.9083 67.0053 91.5771 67.0053 92.1343C66.8067 95.701 64.4233 99.0448 61.3449 100.159C61.3449 99.9364 61.2456 99.9364 61.2456 99.9364ZM60.2525 83.5521C59.4581 83.5521 58.8622 83.8864 58.5643 84.4437C58.0678 85.4468 58.6636 86.6729 59.3588 87.5646C60.9476 89.3479 63.5296 90.0166 65.8136 89.2364C65.3171 87.0073 63.9268 85.001 62.04 83.9979C61.5435 83.775 60.8483 83.5521 60.2525 83.5521Z" fill="#00D339"/>
<path d="M267.205 163.691C267.106 163.691 266.907 163.691 266.808 163.691C266.51 163.691 266.311 163.356 266.411 163.022C266.411 162.687 266.708 162.465 267.006 162.576C268.992 162.799 270.681 160.793 271.078 158.675C271.376 156.669 270.879 154.44 269.588 151.987C269.092 150.984 268.496 150.093 267.9 149.201C267.205 148.086 266.51 146.972 265.914 145.857C264.921 143.962 264.027 141.176 264.722 138.39C265.517 135.046 268.893 132.817 271.872 133.485C272.17 133.597 272.27 133.82 272.27 134.154C272.17 134.488 271.972 134.6 271.674 134.6C269.191 134.043 266.311 135.937 265.616 138.724C265.02 141.176 265.914 143.74 266.708 145.411C267.304 146.526 267.999 147.641 268.595 148.644C269.191 149.535 269.787 150.538 270.383 151.542C271.872 154.217 272.369 156.78 271.972 159.009C271.475 161.238 269.588 163.691 267.205 163.691Z" fill="#FF41AA"/>
<path d="M26.2903 181.078H26.191C25.8931 180.967 25.7938 180.744 25.7938 180.409C26.191 178.515 25.198 176.731 24.2049 174.948C23.2119 173.053 22.1195 170.601 23.0133 168.372C23.1126 168.038 23.3112 167.703 23.5098 167.48C21.8216 164.136 22.2188 159.567 24.1056 156.557C26.3896 152.991 30.3619 150.761 35.1285 150.539C35.4264 150.539 35.6251 150.761 35.6251 151.096C35.6251 151.43 35.4264 151.653 35.1285 151.653C30.7591 151.876 26.9855 153.994 24.9001 157.226C23.3112 159.79 22.8146 163.802 24.2049 166.7C24.7014 166.254 25.2973 165.808 25.7938 165.585C26.5883 165.14 27.5813 164.582 28.773 164.694C29.9646 164.694 31.057 165.363 31.5535 166.477C31.8514 167.257 31.8514 168.149 31.5535 168.929C31.1563 169.932 30.4612 170.713 29.5674 171.047C28.1771 171.493 26.4889 171.047 25.0987 169.821C24.7014 169.486 24.3042 169.041 24.0063 168.595C23.907 168.706 23.907 168.818 23.8077 168.929C23.1126 170.713 24.0063 172.83 24.9001 174.502C25.9924 176.397 27.0848 178.626 26.6876 180.855C26.6876 180.967 26.4889 181.078 26.2903 181.078ZM24.7014 167.48C24.9994 167.926 25.2973 168.372 25.6945 168.706C26.5883 169.486 27.9785 170.155 29.1702 169.709C29.766 169.486 30.2626 168.929 30.5605 168.26C30.7591 167.703 30.7591 167.146 30.5605 166.7C30.1632 165.92 29.3688 165.585 28.6737 165.474C27.7799 165.474 26.8862 165.92 26.191 166.254C25.5952 166.811 25.0987 167.146 24.7014 167.48Z" fill="#FFAF00"/>
<g opacity="0.8">
<path d="M251.738 253.749C251.175 253.414 250.801 252.857 250.332 251.185C249.77 251.519 249.395 252.077 249.021 252.857C249.489 254.083 249.864 254.64 250.707 255.532C250.801 254.752 251.082 254.417 251.738 253.749Z" fill="#FFAF00"/>
<path d="M265.136 248.399C265.604 249.068 265.792 249.848 265.698 251.074C268.228 250.628 269.727 249.959 271.975 248.956C271.975 247.173 271.694 246.281 271.319 245.612C269.165 247.396 267.572 247.841 265.136 248.399Z" fill="#FF0E41"/>
<path d="M10.9473 31.2777C11.4157 32.0579 11.6031 32.7266 11.5094 33.9527C14.0391 33.5068 15.5382 32.8381 17.7869 31.835C17.7869 30.0516 17.5058 29.16 17.131 28.4912C15.0698 30.1631 13.3833 30.7204 10.9473 31.2777Z" fill="#FF0E41"/>
<path d="M226.909 220.088C226.628 220.423 226.628 220.757 226.534 221.314C227.565 221.426 228.595 221.983 229.72 222.652C229.813 222.206 229.907 221.983 230.188 221.649C229.064 220.646 228.314 220.311 226.909 220.088Z" fill="#FFAF00"/>
<path d="M238.901 268.461C239.464 267.681 240.026 267.458 241.056 267.57C240.682 266.343 240.119 265.675 239.089 264.449C238.339 264.337 237.871 264.672 237.309 265.452C238.152 266.455 238.714 267.235 238.901 268.461Z" fill="#FFAF00"/>
<path d="M278.534 170.155C277.784 169.486 277.503 169.152 277.128 168.26C276.847 168.483 276.66 168.595 276.379 168.595C276.66 169.486 277.035 170.044 277.784 170.824C278.065 170.712 278.346 170.378 278.534 170.155Z" fill="#008DF0"/>
<path d="M265.979 178.737C264.667 177.957 263.918 177.4 262.887 176.062C262.325 176.62 261.95 177.289 261.856 178.069C262.512 179.072 263.449 179.964 264.948 181.078C264.948 179.852 265.229 179.183 265.979 178.737Z" fill="#00D339"/>
<path d="M242.649 84.2205C243.493 85.1122 244.43 85.2237 246.022 85.0008C246.022 82.1028 246.21 80.3195 247.147 77.756C246.022 77.8674 245.273 77.533 243.774 76.4185C242.837 79.0935 242.649 81.2112 242.649 84.2205Z" fill="#FFAF00"/>
<path d="M285.561 170.601C286.029 169.486 286.123 168.929 285.842 167.703C284.249 167.257 283.312 166.811 281.813 166.031C281.72 166.7 281.626 167.257 281.438 167.592C283.125 168.483 284.062 169.264 285.561 170.601Z" fill="#FFAF00"/>
<path d="M70.2549 294.988C70.7233 296.103 71.5666 296.66 72.972 297.106C73.8152 294.543 74.4711 293.094 76.0639 291.199C75.0332 290.864 74.4711 290.196 73.5341 288.635C71.9414 290.53 71.0981 292.425 70.2549 294.988Z" fill="#FFAF00"/>
<path d="M259.982 29.2716C260.451 30.3862 261.294 30.9435 262.7 31.3893C263.543 28.8257 264.199 27.3768 265.791 25.482C264.761 25.1476 264.199 24.4789 263.262 22.9185C261.669 24.8132 260.826 26.708 259.982 29.2716Z" fill="#FFAF00"/>
<path d="M98.9244 12.8872C97.8937 12.8872 97.3316 13.1101 96.582 14.0018C97.0505 15.8966 97.1442 17.1226 97.2379 19.1289C97.8 18.7945 98.2685 18.7945 98.6433 18.7945C98.4559 16.4539 98.6433 15.0049 98.9244 12.8872Z" fill="#FF41AA"/>
<path d="M50.0167 13.7788C48.4239 16.5653 47.6743 18.4601 46.9248 21.2465C48.7987 21.8038 50.0167 21.6924 51.141 21.2465C51.2347 19.4632 51.8905 18.3486 52.9212 16.6767C51.4221 16.1194 50.7662 15.3392 50.0167 13.7788Z" fill="#FFAF00"/>
<path d="M10.0097 82.103C9.35384 84.778 9.07276 87.0072 9.54122 89.2364C11.0403 89.7936 12.0709 89.9051 13.1952 89.4593C12.8205 86.6728 12.9142 85.0009 13.6637 82.4374C12.1646 82.9947 11.134 82.9947 10.0097 82.103Z" fill="#FF41AA"/>
<path d="M257.827 53.3465C258.202 53.1236 258.483 53.0121 258.952 52.9007C258.39 51.8975 258.015 51.2288 257.734 50.4486C257.172 50.3371 256.984 50.56 256.609 50.783C256.797 51.3403 257.265 52.2319 257.827 53.3465Z" fill="#00D339"/>
<path d="M268.602 110.636C267.291 111.639 265.604 111.974 261.856 111.194C261.763 113.2 262.231 114.872 263.355 116.989C266.26 117.212 267.946 116.989 270.476 115.763C269.352 114.203 269.071 112.977 268.602 110.636Z" fill="#FF0E41"/>
<path d="M212.48 273.477C213.043 273.923 213.324 274.257 213.605 274.926C213.792 274.703 213.98 274.591 214.167 274.591C213.886 273.923 213.605 273.477 212.949 272.919C212.762 273.031 212.668 273.142 212.48 273.477Z" fill="#FFAF00"/>
<path d="M19.1912 144.743C18.8164 145.523 18.9101 146.303 19.3786 147.529C20.9714 146.972 22.002 146.86 23.5948 147.083C23.3137 146.192 23.4074 145.523 23.6885 144.185C22.0957 144.074 20.784 144.185 19.1912 144.743Z" fill="#FF41AA"/>
<path d="M205.734 317.28C207.421 317.726 208.358 317.726 209.951 316.723C209.951 313.379 210.044 311.373 210.606 308.14C209.576 308.363 208.826 308.252 208.264 307.917C207.796 311.596 207.046 313.825 205.734 317.28Z" fill="#FF0E41"/>
<path d="M230.751 49.111C232.437 49.5569 233.374 49.5569 234.967 48.5537C234.967 45.21 235.061 43.2037 235.623 39.9715C234.592 40.1944 233.843 40.0829 233.281 39.7485C232.719 43.5381 232.063 45.7673 230.751 49.111Z" fill="#FF0E41"/>
<path d="M267.384 199.915C266.447 197.908 265.698 196.905 263.73 196.125C261.294 198.8 259.701 200.138 256.984 202.032C257.921 202.924 258.39 203.704 258.671 204.596C261.763 202.144 263.918 201.252 267.384 199.915Z" fill="#FFAF00"/>
<path d="M58.0742 248.733C58.3553 249.179 58.5427 249.625 58.7301 250.294C59.5733 249.291 60.2292 248.733 60.9787 248.287C60.9787 247.507 60.7913 247.173 60.5102 246.727C59.9481 247.061 59.1048 247.73 58.0742 248.733Z" fill="#FFAF00"/>
<path d="M165.915 54.7954C164.603 54.7954 163.104 54.7954 161.886 55.91C161.605 57.136 161.324 58.0277 160.762 59.1423C161.699 58.9194 162.354 59.2537 163.291 60.4798C163.76 58.585 164.603 56.9131 165.915 54.7954Z" fill="#00D339"/>
<path d="M29.31 262.108C29.6848 261.105 30.1532 260.659 30.9028 260.102C29.6848 259.099 28.2794 258.207 27.6235 258.096C27.155 258.764 26.9677 259.545 26.7803 260.548C27.5298 260.659 28.1857 261.217 29.31 262.108Z" fill="#FF0E41"/>
<path d="M211.355 248.622C211.543 249.513 212.011 249.959 212.761 250.628C213.979 248.622 215.759 246.95 217.914 245.167C217.352 244.609 217.071 244.052 216.883 243.049C214.354 244.721 213.136 245.947 211.355 248.622Z" fill="#008DF0"/>
<path d="M266.541 216.522C266.916 215.741 267.478 215.296 268.415 215.073C267.291 212.509 266.26 211.06 264.668 208.942C263.356 209.5 262.7 210.168 262.325 210.726C264.386 212.398 265.323 213.958 266.541 216.522Z" fill="#FF0E41"/>
<path d="M60.791 113.088C60.791 113.869 60.9784 114.426 61.5406 114.983C62.2901 114.872 62.7586 114.649 63.1333 114.092C62.946 113.2 63.0396 112.531 63.227 111.417C62.3838 112.308 61.8216 112.754 60.791 113.088Z" fill="#00D339"/>
<path d="M45.3319 195.233C45.2382 194.119 44.9572 193.45 44.0202 192.781C43.0833 193.116 42.4274 193.561 41.959 194.342C42.3338 195.568 42.3338 196.459 42.1464 198.02C43.2707 196.682 43.9265 196.014 45.3319 195.233Z" fill="#FF0E41"/>
<path d="M98.55 257.761C98.0816 257.761 97.8005 257.873 97.332 258.207C97.7068 258.764 97.8005 259.21 97.8942 259.656C98.3626 259.656 98.6437 259.656 99.1122 259.433C98.7374 258.876 98.6437 258.43 98.55 257.761Z" fill="#FF41AA"/>
<path d="M224.473 163.022C225.035 162.13 225.223 161.461 225.504 160.569C224.942 160.458 224.473 160.458 224.098 160.569C224.098 161.127 223.911 161.573 223.536 162.13C224.005 162.241 224.286 162.464 224.473 163.022Z" fill="#FF0E41"/>
<path d="M144.177 22.9183C145.395 20.912 145.864 19.4631 146.426 17.4568C145.021 17.1225 144.177 17.1225 143.334 17.4568C143.24 18.7943 142.866 19.5745 142.022 20.8006C143.053 21.2464 143.615 21.8037 144.177 22.9183Z" fill="#FF0E41"/>
<path d="M188.026 251.965C187.37 252.3 186.902 252.3 186.152 252.188C186.433 253.637 186.902 254.975 187.277 255.532C187.839 255.421 188.307 255.086 188.869 254.64C188.495 253.972 188.307 253.191 188.026 251.965Z" fill="#008DF0"/>
<path d="M207.702 49.2227C206.952 51.006 206.484 52.5664 206.671 54.3497C207.702 55.0185 208.358 55.1299 209.295 55.0185C209.295 53.0122 209.576 51.7862 210.419 50.0029C209.107 50.2258 208.451 50.1143 207.702 49.2227Z" fill="#00D339"/>
<path d="M241.431 206.602C241.244 207.717 241.056 208.162 240.588 208.943C240.869 209.166 241.056 209.389 241.15 209.611C241.712 208.943 241.993 208.274 242.274 207.159C241.993 206.825 241.712 206.714 241.431 206.602Z" fill="#00D339"/>
<path d="M172.192 288.747C171.911 289.192 171.817 289.527 172.005 290.196C172.473 290.418 172.848 290.53 173.129 290.418C173.316 289.861 173.597 289.527 174.066 288.969C173.316 288.969 172.848 288.97 172.192 288.747Z" fill="#FF41AA"/>
<path d="M249.771 117.992C250.333 117.881 250.801 117.992 251.363 118.55C252.019 116.543 252.207 115.094 252.394 113.088C251.457 112.419 250.895 112.419 250.426 112.419C250.707 114.537 250.426 115.986 249.771 117.992Z" fill="#FF0E41"/>
<path d="M150.83 43.9844C150.268 44.0958 149.612 44.2073 149.05 44.7646C148.956 45.3219 148.862 45.7677 148.675 46.325C149.05 46.1021 149.331 46.325 149.893 46.7708C149.987 45.7677 150.361 44.9875 150.83 43.9844Z" fill="#008DF0"/>
<path d="M168.726 6.97998C167.508 7.31436 166.196 7.09144 163.573 5.30811C163.105 6.75706 163.105 8.20602 163.479 10.1008C165.634 11.1039 166.946 11.4383 169.101 11.3269C168.539 9.8779 168.445 8.87477 168.726 6.97998Z" fill="#00D339"/>
<path d="M19.4723 73.075C19.6597 72.2948 19.7534 71.849 20.2219 71.2917C19.9408 71.0687 19.8471 70.9573 19.8471 70.7344C19.3786 71.2917 19.0975 71.7375 18.9102 72.6292C19.0038 72.8521 19.1912 72.9635 19.4723 73.075Z" fill="#FFAF00"/>
<path d="M68.3808 67.0561C68.8492 67.279 69.1303 67.1675 69.6925 66.9446C69.3177 65.4956 69.224 63.8238 69.3177 61.8175C68.8492 61.929 68.5681 61.929 68.006 61.7061C67.9123 63.8238 67.9123 65.0498 68.3808 67.0561Z" fill="#FF41AA"/>
<path d="M10.0098 121.448C10.2908 122.005 10.6656 122.674 11.3215 123.008C11.7899 122.897 12.071 122.785 12.6332 122.785C12.3521 122.451 12.3521 122.117 12.4458 121.336C11.6962 121.448 10.9467 121.448 10.0098 121.448Z" fill="#00D339"/>
<path d="M185.59 67.0558C184.372 66.2756 183.623 65.9412 182.124 66.2756C181.468 68.9506 180.906 70.511 179.875 72.8516C180.718 72.9631 181.28 73.2975 181.655 73.6318C182.873 70.9568 183.904 69.3964 185.59 67.0558Z" fill="#008DF0"/>
<path d="M25.1878 94.4746C23.9698 95.4777 23.0329 96.4809 22.4707 97.8184C22.9392 98.8215 23.5013 99.3788 24.1572 99.7132C24.9067 98.1527 25.5626 97.3725 26.8743 96.4809C25.9373 96.035 25.3752 95.4777 25.1878 94.4746Z" fill="#FFAF00"/>
<path d="M235.341 179.964C236.934 179.295 237.777 178.626 238.995 176.843C237.215 175.505 236.465 174.279 235.903 172.719C234.404 173.165 233.467 173.833 232.062 175.059C233.467 176.397 234.31 177.734 235.341 179.964Z" fill="#00D339"/>
<path d="M61.5408 197.797C62.6651 197.351 63.2273 196.905 64.0705 196.236C63.602 195.568 63.1336 195.233 62.6651 195.01C62.2903 195.568 61.8219 195.79 61.166 196.013C61.5408 196.682 61.6345 197.128 61.5408 197.797Z" fill="#FF0E41"/>
<path d="M12.8203 220.868C13.2888 221.203 13.5699 221.203 14.132 221.203C14.0383 220.423 14.132 219.977 14.3194 219.531C13.9446 219.197 13.6635 219.085 13.1014 218.974C13.1014 219.642 13.0077 220.088 12.8203 220.868Z" fill="#FFAF00"/>
<path d="M232.25 123.565C232.437 125.126 232.156 126.018 231.594 127.355C233.749 127.467 235.904 127.244 236.841 126.798C236.934 125.572 236.747 124.569 236.372 123.12C235.341 123.677 234.217 123.677 232.25 123.565Z" fill="#00D339"/>
<path d="M114.852 59.1423C114.289 60.7027 114.383 61.8173 115.133 63.4892C116.632 63.8235 117.662 63.7121 118.693 63.1548C118.88 61.26 119.349 60.034 120.473 58.1392C118.412 58.8079 117.1 59.2537 114.852 59.1423Z" fill="#FF41AA"/>
<path d="M223.536 274.703C222.506 274.703 221.85 275.26 220.819 276.264C222.693 278.939 224.005 282.394 225.223 286.518C226.066 285.738 226.816 285.626 227.94 285.515C226.909 281.056 225.972 278.604 223.536 274.703Z" fill="#008DF0"/>
<path d="M42.9898 57.8048C43.3646 55.0183 43.6457 53.6808 44.8637 51.786C44.0205 51.3402 43.552 50.8943 43.3646 50.2256C41.9592 52.1204 41.3034 53.7923 40.7412 56.6902C41.3971 57.3589 42.1466 57.6933 42.9898 57.8048Z" fill="#008DF0"/>
<path d="M25.6561 215.407C25.1876 216.187 24.6255 216.633 23.7822 217.191C25.375 218.528 26.4056 219.531 27.4363 220.869C28.4669 220.534 28.8416 220.088 29.4038 219.42C28.6543 218.417 27.3426 216.968 25.6561 215.407Z" fill="#008DF0"/>
<path d="M191.024 19.352C191.399 19.9092 191.493 20.578 191.399 21.4697C193.367 21.2467 194.585 20.8009 196.365 20.0207C196.459 18.6832 196.178 17.903 195.99 17.3457C194.21 18.6832 192.992 19.0176 191.024 19.352Z" fill="#FF41AA"/>
<path d="M167.134 277.935C166.384 277.601 165.822 277.043 165.354 275.817C163.292 277.824 162.168 279.384 160.669 281.836C161.418 283.397 162.168 284.065 162.73 284.511C163.855 281.613 165.073 280.053 167.134 277.935Z" fill="#008DF0"/>
<path d="M114.571 305.465C115.133 306.803 115.227 308.475 114.196 312.041C115.508 312.264 116.726 312.041 118.319 311.261C118.787 308.475 118.787 306.803 118.225 304.239C117.101 305.131 116.258 305.354 114.571 305.465Z" fill="#FF0E41"/>
<path d="M232.25 202.812C232.624 201.809 232.718 201.141 232.437 200.026C230.844 199.692 230.001 199.357 228.502 198.688C228.502 199.357 228.314 199.803 228.221 200.249C229.813 200.918 230.75 201.586 232.25 202.812Z" fill="#FF0E41"/>
<path d="M247.241 153.994C247.053 153.213 246.866 152.656 246.304 151.987C245.742 152.768 245.273 153.102 244.617 153.325C244.711 154.105 244.898 154.662 245.179 155.331C245.835 154.774 246.397 154.439 247.241 153.994Z" fill="#00D339"/>
<path d="M251.176 240.151C250.239 240.708 249.77 241.154 249.396 242.38C250.52 243.94 251.082 245.055 251.832 246.838C252.206 246.281 252.675 246.058 253.05 245.835C252.019 243.718 251.644 242.38 251.176 240.151Z" fill="#FF41AA"/>
<path d="M273.381 186.316C274.131 185.425 274.88 184.31 275.067 182.861C274.599 181.969 274.318 181.301 274.037 180.186C273.662 180.966 273.1 181.189 271.976 181.301C272.631 182.638 272.913 184.199 273.381 186.316Z" fill="#FF0E41"/>
<path d="M233.28 96.5927C232.062 95.2552 231.313 94.6979 229.533 94.5864C228.127 97.3729 227.19 98.9333 225.41 101.385C226.347 101.831 226.909 102.389 227.284 102.946C229.252 100.159 230.844 98.7104 233.28 96.5927Z" fill="#FFAF00"/>
<path d="M217.352 71.626C218.382 72.2947 219.6 72.852 220.912 72.6291C221.568 71.7374 222.036 71.1801 222.879 70.5114C222.036 70.2885 221.661 69.6197 221.287 68.2822C220.35 69.6197 219.132 70.3999 217.352 71.626Z" fill="#008DF0"/>
<path d="M18.4427 239.036C17.0374 240.819 16.1004 241.823 14.2266 242.937C14.695 244.052 15.2572 244.832 16.1004 245.389C17.4121 244.721 18.8175 243.494 20.5977 241.711C19.286 240.931 18.6301 240.374 18.4427 239.036Z" fill="#008DF0"/>
<path d="M38.4924 125.906C39.0546 124.791 39.3357 124.011 39.6167 122.896C38.8672 122.785 38.3987 122.785 37.9303 123.008C37.9303 123.677 37.7429 124.122 37.2744 124.791C37.9303 125.014 38.2113 125.349 38.4924 125.906Z" fill="#FFAF00"/>
<path d="M137.995 275.483C136.777 272.808 135.84 271.359 134.341 269.576C133.216 271.136 132.748 272.251 132.561 273.477C133.685 274.257 134.153 275.372 134.903 277.043C135.84 275.817 136.683 275.594 137.995 275.483Z" fill="#FF41AA"/>
<path d="M33.9956 231.234C33.9019 231.011 33.8082 230.788 33.9019 230.342C33.1523 230.342 32.5902 230.454 31.9343 230.677C31.8406 231.234 31.9343 231.568 32.028 231.791C32.6839 231.345 33.246 231.234 33.9956 231.234Z" fill="#FFAF00"/>
<path d="M247.896 239.371C245.929 239.259 244.711 239.482 243.118 240.039C243.587 241.488 244.055 242.38 244.711 242.937C245.648 242.38 246.397 242.38 247.615 242.491C247.241 241.265 247.334 240.485 247.896 239.371Z" fill="#00D339"/>
<path d="M88.9936 27.4883C88.5251 27.0425 88.1504 26.3737 88.0567 25.3706C86.0891 26.3737 84.8711 27.2654 83.2783 28.7144C83.5594 30.1633 84.0279 30.8321 84.4026 31.2779C85.808 29.3831 87.026 28.4914 88.9936 27.4883Z" fill="#00D339"/>
<path d="M250.707 8.54053C250.332 8.98636 250.145 9.43219 250.239 10.2124C250.707 10.5468 251.176 10.7697 251.644 10.7697C251.925 10.1009 252.3 9.76657 252.956 9.32074C252.019 9.09782 251.457 8.98636 250.707 8.54053Z" fill="#FF41AA"/>
<path d="M5.1377 132.705C5.1377 133.931 5.32508 135.157 5.98093 136.272C6.82417 136.495 7.29263 136.606 8.13587 137.163C7.94849 136.272 8.13587 135.826 8.88542 134.823C7.66741 134.488 6.54309 133.708 5.1377 132.705Z" fill="#00D339"/>
<path d="M38.867 298.443C38.9607 297.775 38.7733 297.329 38.3985 296.66C37.1805 297.663 35.5877 298.221 33.7139 298.666C33.9949 299.224 33.9949 299.67 33.9949 300.45C35.9625 300.115 36.9931 299.67 38.867 298.443Z" fill="#00D339"/>
<path d="M243.493 149.981C243.306 150.873 243.399 151.43 243.68 152.322C244.524 151.876 245.086 151.764 245.742 151.876C245.929 151.096 245.929 150.538 245.929 149.535C245.086 149.87 244.524 149.981 243.493 149.981Z" fill="#008DF0"/>
</g>
<g opacity="0.7">
<path d="M279.694 252.84C263.995 225.019 232.329 213.64 203.52 225.457C176.295 236.631 160.596 268.179 166.339 299.537C167.358 305.12 167.482 311.032 167.103 316.718C166.759 321.972 163.805 325.37 158.214 325.239C155.122 325.173 151.934 325.144 148.939 325.838C144.16 326.934 140.945 330.135 140.518 335.579C140.119 340.658 142.253 344.444 146.681 346.432C151.432 348.573 155.563 346.987 158.73 343.055C160.465 340.892 161.56 338.152 162.882 335.638C166.428 328.907 170.126 327.234 176.825 330.325C181.06 332.284 185.191 334.776 188.888 337.706C209.696 354.207 237.452 355.793 259.065 341.462C287.337 322.696 296.619 282.824 279.694 252.84ZM226.483 329.448C203.892 329.448 185.577 310.009 185.577 286.032C185.577 262.055 203.892 242.616 226.483 242.616C249.074 242.616 267.39 262.055 267.39 286.032C267.39 310.009 249.074 329.448 226.483 329.448Z" fill="white"/>
<path d="M306.657 273.341C303.554 274.084 300.458 272.247 299.431 269.17C299.326 268.666 299.215 268.163 299.097 267.667C295.106 250.079 285.541 234.758 272.47 223.885C272.387 223.819 272.31 223.754 272.227 223.681C272.185 223.652 272.137 223.608 272.095 223.571C270.637 222.215 269.922 220.275 270.027 218.357L270.485 216.214C270.693 215.674 270.978 215.156 271.338 214.675C273.303 212.042 276.815 211.437 279.46 213.158C279.856 213.479 280.251 213.807 280.64 214.135C295.786 226.933 306.816 244.894 311.3 265.472C311.307 265.494 311.307 265.509 311.314 265.531C311.321 265.567 311.328 265.604 311.335 265.64C312.036 269.111 309.961 272.539 306.657 273.341Z" fill="white"/>
</g>
</svg>