<svg width="363" height="233" viewBox="0 0 363 233" fill="none" xmlns="http://www.w3.org/2000/svg">
<path d="M1.24805 119.707L1.98633 113.203H9.1582V115.321H4.06934L3.75293 118.072C4.35645 117.75 4.99805 117.589 5.67773 117.589C6.89648 117.589 7.85156 117.967 8.54297 118.723C9.23438 119.479 9.58008 120.536 9.58008 121.896C9.58008 122.722 9.4043 123.463 9.05273 124.119C8.70703 124.77 8.20898 125.276 7.55859 125.64C6.9082 125.997 6.14062 126.176 5.25586 126.176C4.48242 126.176 3.76465 126.021 3.10254 125.71C2.44043 125.394 1.91602 124.951 1.5293 124.383C1.14844 123.814 0.946289 123.167 0.922852 122.44H3.43652C3.48926 122.974 3.67383 123.39 3.99023 123.688C4.3125 123.981 4.73145 124.128 5.24707 124.128C5.82129 124.128 6.26367 123.923 6.57422 123.513C6.88477 123.097 7.04004 122.511 7.04004 121.755C7.04004 121.028 6.86133 120.472 6.50391 120.085C6.14648 119.698 5.63965 119.505 4.9834 119.505C4.37988 119.505 3.89062 119.663 3.51562 119.979L3.26953 120.208L1.24805 119.707ZM19.8193 120.709C19.8193 122.479 19.4531 123.832 18.7207 124.77C17.9883 125.707 16.916 126.176 15.5039 126.176C14.1094 126.176 13.043 125.716 12.3047 124.796C11.5664 123.876 11.1885 122.558 11.1709 120.841V118.485C11.1709 116.698 11.54 115.342 12.2783 114.416C13.0225 113.49 14.0918 113.027 15.4863 113.027C16.8809 113.027 17.9473 113.487 18.6855 114.407C19.4238 115.321 19.8018 116.637 19.8193 118.354V120.709ZM17.2793 118.125C17.2793 117.064 17.1328 116.294 16.8398 115.813C16.5527 115.327 16.1016 115.084 15.4863 115.084C14.8887 115.084 14.4463 115.315 14.1592 115.778C13.8779 116.235 13.7285 116.953 13.7109 117.932V121.043C13.7109 122.086 13.8516 122.862 14.1328 123.372C14.4199 123.876 14.877 124.128 15.5039 124.128C16.125 124.128 16.5732 123.885 16.8486 123.398C17.124 122.912 17.2676 122.168 17.2793 121.166V118.125Z" fill="#4D4D4D"/>
<path d="M49.04 62H46.5V52.209L43.4678 53.1494V51.084L48.7676 49.1855H49.04V62ZM61.8193 56.709C61.8193 58.4785 61.4531 59.832 60.7207 60.7695C59.9883 61.707 58.916 62.1758 57.5039 62.1758C56.1094 62.1758 55.043 61.7158 54.3047 60.7959C53.5664 59.876 53.1885 58.5576 53.1709 56.8408V54.4854C53.1709 52.6982 53.54 51.3418 54.2783 50.416C55.0225 49.4902 56.0918 49.0273 57.4863 49.0273C58.8809 49.0273 59.9473 49.4873 60.6855 50.4072C61.4238 51.3213 61.8018 52.6367 61.8193 54.3535V56.709ZM59.2793 54.125C59.2793 53.0645 59.1328 52.2939 58.8398 51.8135C58.5527 51.3271 58.1016 51.084 57.4863 51.084C56.8887 51.084 56.4463 51.3154 56.1592 51.7783C55.8779 52.2354 55.7285 52.9531 55.7109 53.9316V57.043C55.7109 58.0859 55.8516 58.8623 56.1328 59.3721C56.4199 59.876 56.877 60.1279 57.5039 60.1279C58.125 60.1279 58.5732 59.8848 58.8486 59.3984C59.124 58.9121 59.2676 58.168 59.2793 57.166V54.125ZM72.1553 56.709C72.1553 58.4785 71.7891 59.832 71.0566 60.7695C70.3242 61.707 69.252 62.1758 67.8398 62.1758C66.4453 62.1758 65.3789 61.7158 64.6406 60.7959C63.9023 59.876 63.5244 58.5576 63.5068 56.8408V54.4854C63.5068 52.6982 63.876 51.3418 64.6143 50.416C65.3584 49.4902 66.4277 49.0273 67.8223 49.0273C69.2168 49.0273 70.2832 49.4873 71.0215 50.4072C71.7598 51.3213 72.1377 52.6367 72.1553 54.3535V56.709ZM69.6152 54.125C69.6152 53.0645 69.4688 52.2939 69.1758 51.8135C68.8887 51.3271 68.4375 51.084 67.8223 51.084C67.2246 51.084 66.7822 51.3154 66.4951 51.7783C66.2139 52.2354 66.0645 52.9531 66.0469 53.9316V57.043C66.0469 58.0859 66.1875 58.8623 66.4688 59.3721C66.7559 59.876 67.2129 60.1279 67.8398 60.1279C68.4609 60.1279 68.9092 59.8848 69.1846 59.3984C69.46 58.9121 69.6035 58.168 69.6152 57.166V54.125Z" fill="#4D4D4D"/>
<path d="M157.04 36H154.5V26.209L151.468 27.1494V25.084L156.768 23.1855H157.04V36ZM161.584 29.707L162.322 23.2031H169.494V25.3213H164.405L164.089 28.0723C164.692 27.75 165.334 27.5889 166.014 27.5889C167.232 27.5889 168.188 27.9668 168.879 28.7227C169.57 29.4785 169.916 30.5361 169.916 31.8955C169.916 32.7217 169.74 33.4629 169.389 34.1191C169.043 34.7695 168.545 35.2764 167.895 35.6396C167.244 35.9971 166.477 36.1758 165.592 36.1758C164.818 36.1758 164.101 36.0205 163.438 35.71C162.776 35.3936 162.252 34.9512 161.865 34.3828C161.484 33.8145 161.282 33.167 161.259 32.4404H163.772C163.825 32.9736 164.01 33.3896 164.326 33.6885C164.648 33.9814 165.067 34.1279 165.583 34.1279C166.157 34.1279 166.6 33.9229 166.91 33.5127C167.221 33.0967 167.376 32.5107 167.376 31.7549C167.376 31.0283 167.197 30.4717 166.84 30.085C166.482 29.6982 165.976 29.5049 165.319 29.5049C164.716 29.5049 164.227 29.6631 163.852 29.9795L163.605 30.208L161.584 29.707ZM180.155 30.709C180.155 32.4785 179.789 33.832 179.057 34.7695C178.324 35.707 177.252 36.1758 175.84 36.1758C174.445 36.1758 173.379 35.7158 172.641 34.7959C171.902 33.876 171.524 32.5576 171.507 30.8408V28.4854C171.507 26.6982 171.876 25.3418 172.614 24.416C173.358 23.4902 174.428 23.0273 175.822 23.0273C177.217 23.0273 178.283 23.4873 179.021 24.4072C179.76 25.3213 180.138 26.6367 180.155 28.3535V30.709ZM177.615 28.125C177.615 27.0645 177.469 26.2939 177.176 25.8135C176.889 25.3271 176.438 25.084 175.822 25.084C175.225 25.084 174.782 25.3154 174.495 25.7783C174.214 26.2354 174.064 26.9531 174.047 27.9316V31.043C174.047 32.0859 174.188 32.8623 174.469 33.3721C174.756 33.876 175.213 34.1279 175.84 34.1279C176.461 34.1279 176.909 33.8848 177.185 33.3984C177.46 32.9121 177.604 32.168 177.615 31.166V28.125Z" fill="#4D4D4D"/>
<path d="M264.642 62H255.87V60.2598L260.01 55.8477C260.578 55.2266 260.997 54.6846 261.267 54.2217C261.542 53.7588 261.68 53.3193 261.68 52.9033C261.68 52.335 261.536 51.8896 261.249 51.5674C260.962 51.2393 260.552 51.0752 260.019 51.0752C259.444 51.0752 258.99 51.2744 258.656 51.6729C258.328 52.0654 258.164 52.584 258.164 53.2285H255.615C255.615 52.4492 255.8 51.7373 256.169 51.0928C256.544 50.4482 257.071 49.9443 257.751 49.5811C258.431 49.2119 259.201 49.0273 260.062 49.0273C261.381 49.0273 262.403 49.3438 263.13 49.9766C263.862 50.6094 264.229 51.5029 264.229 52.6572C264.229 53.29 264.064 53.9346 263.736 54.5908C263.408 55.2471 262.846 56.0117 262.049 56.8848L259.14 59.9521H264.642V62ZM274.819 56.709C274.819 58.4785 274.453 59.832 273.721 60.7695C272.988 61.707 271.916 62.1758 270.504 62.1758C269.109 62.1758 268.043 61.7158 267.305 60.7959C266.566 59.876 266.188 58.5576 266.171 56.8408V54.4854C266.171 52.6982 266.54 51.3418 267.278 50.416C268.022 49.4902 269.092 49.0273 270.486 49.0273C271.881 49.0273 272.947 49.4873 273.686 50.4072C274.424 51.3213 274.802 52.6367 274.819 54.3535V56.709ZM272.279 54.125C272.279 53.0645 272.133 52.2939 271.84 51.8135C271.553 51.3271 271.102 51.084 270.486 51.084C269.889 51.084 269.446 51.3154 269.159 51.7783C268.878 52.2354 268.729 52.9531 268.711 53.9316V57.043C268.711 58.0859 268.852 58.8623 269.133 59.3721C269.42 59.876 269.877 60.1279 270.504 60.1279C271.125 60.1279 271.573 59.8848 271.849 59.3984C272.124 58.9121 272.268 58.168 272.279 57.166V54.125ZM285.155 56.709C285.155 58.4785 284.789 59.832 284.057 60.7695C283.324 61.707 282.252 62.1758 280.84 62.1758C279.445 62.1758 278.379 61.7158 277.641 60.7959C276.902 59.876 276.524 58.5576 276.507 56.8408V54.4854C276.507 52.6982 276.876 51.3418 277.614 50.416C278.358 49.4902 279.428 49.0273 280.822 49.0273C282.217 49.0273 283.283 49.4873 284.021 50.4072C284.76 51.3213 285.138 52.6367 285.155 54.3535V56.709ZM282.615 54.125C282.615 53.0645 282.469 52.2939 282.176 51.8135C281.889 51.3271 281.438 51.084 280.822 51.084C280.225 51.084 279.782 51.3154 279.495 51.7783C279.214 52.2354 279.064 52.9531 279.047 53.9316V57.043C279.047 58.0859 279.188 58.8623 279.469 59.3721C279.756 59.876 280.213 60.1279 280.84 60.1279C281.461 60.1279 281.909 59.8848 282.185 59.3984C282.46 58.9121 282.604 58.168 282.615 57.166V54.125Z" fill="#4D4D4D"/>
<path d="M318.642 126H309.87V124.26L314.01 119.848C314.578 119.227 314.997 118.685 315.267 118.222C315.542 117.759 315.68 117.319 315.68 116.903C315.68 116.335 315.536 115.89 315.249 115.567C314.962 115.239 314.552 115.075 314.019 115.075C313.444 115.075 312.99 115.274 312.656 115.673C312.328 116.065 312.164 116.584 312.164 117.229H309.615C309.615 116.449 309.8 115.737 310.169 115.093C310.544 114.448 311.071 113.944 311.751 113.581C312.431 113.212 313.201 113.027 314.062 113.027C315.381 113.027 316.403 113.344 317.13 113.977C317.862 114.609 318.229 115.503 318.229 116.657C318.229 117.29 318.064 117.935 317.736 118.591C317.408 119.247 316.846 120.012 316.049 120.885L313.14 123.952H318.642V126ZM320.584 119.707L321.322 113.203H328.494V115.321H323.405L323.089 118.072C323.692 117.75 324.334 117.589 325.014 117.589C326.232 117.589 327.188 117.967 327.879 118.723C328.57 119.479 328.916 120.536 328.916 121.896C328.916 122.722 328.74 123.463 328.389 124.119C328.043 124.77 327.545 125.276 326.895 125.64C326.244 125.997 325.477 126.176 324.592 126.176C323.818 126.176 323.101 126.021 322.438 125.71C321.776 125.394 321.252 124.951 320.865 124.383C320.484 123.814 320.282 123.167 320.259 122.44H322.772C322.825 122.974 323.01 123.39 323.326 123.688C323.648 123.981 324.067 124.128 324.583 124.128C325.157 124.128 325.6 123.923 325.91 123.513C326.221 123.097 326.376 122.511 326.376 121.755C326.376 121.028 326.197 120.472 325.84 120.085C325.482 119.698 324.976 119.505 324.319 119.505C323.716 119.505 323.227 119.663 322.852 119.979L322.605 120.208L320.584 119.707ZM339.155 120.709C339.155 122.479 338.789 123.832 338.057 124.77C337.324 125.707 336.252 126.176 334.84 126.176C333.445 126.176 332.379 125.716 331.641 124.796C330.902 123.876 330.524 122.558 330.507 120.841V118.485C330.507 116.698 330.876 115.342 331.614 114.416C332.358 113.49 333.428 113.027 334.822 113.027C336.217 113.027 337.283 113.487 338.021 114.407C338.76 115.321 339.138 116.637 339.155 118.354V120.709ZM336.615 118.125C336.615 117.064 336.469 116.294 336.176 115.813C335.889 115.327 335.438 115.084 334.822 115.084C334.225 115.084 333.782 115.315 333.495 115.778C333.214 116.235 333.064 116.953 333.047 117.932V121.043C333.047 122.086 333.188 122.862 333.469 123.372C333.756 123.876 334.213 124.128 334.84 124.128C335.461 124.128 335.909 123.885 336.185 123.398C336.46 122.912 336.604 122.168 336.615 121.166V118.125Z" fill="#4D4D4D"/>
<mask id="path-6-outside-1" maskUnits="userSpaceOnUse" x="3.95065" y="42.4089" width="311.203" height="164.442" fill="black">
<rect fill="white" x="3.95065" y="42.4089" width="311.203" height="164.442"/>
<path fill-rule="evenodd" clip-rule="evenodd" d="M261.169 118.131C261.15 118.109 261.132 118.087 261.114 118.065C246.252 100.127 226.758 86.4895 204.654 78.6998C178.96 69.645 151.059 68.9567 124.949 76.7338C98.8402 84.5108 75.8632 100.354 59.3115 121.992C45.0727 140.607 36.2179 162.689 33.5936 185.836C32.8854 192.082 27.717 197.062 21.4324 196.907C15.1479 196.752 10.1347 191.524 10.7601 185.268C13.5554 157.311 24.0688 130.596 41.2296 108.161C60.702 82.7041 87.7338 64.0652 118.451 54.9157C119.464 54.6139 120.48 54.3229 121.497 54.0427C121.582 54.0173 121.667 53.9929 121.753 53.9694C141.116 48.676 161.375 47.2664 181.356 49.8661C205.106 52.9562 227.788 61.6235 247.547 75.1594C267.306 88.6953 283.581 106.715 295.042 127.746C304.683 145.439 310.686 164.84 312.744 184.807C313.388 191.061 308.391 196.305 302.107 196.479C295.823 196.653 290.639 191.688 289.912 185.444C288.005 169.07 282.973 153.176 275.052 138.639C271.079 131.349 266.426 124.485 261.169 118.131Z"/>
</mask>
<g filter="url(#filter0_ii)">
<path fill-rule="evenodd" clip-rule="evenodd" d="M261.169 118.131C261.15 118.109 261.132 118.087 261.114 118.065C246.252 100.127 226.758 86.4895 204.654 78.6998C178.96 69.645 151.059 68.9567 124.949 76.7338C98.8402 84.5108 75.8632 100.354 59.3115 121.992C45.0727 140.607 36.2179 162.689 33.5936 185.836C32.8854 192.082 27.717 197.062 21.4324 196.907C15.1479 196.752 10.1347 191.524 10.7601 185.268C13.5554 157.311 24.0688 130.596 41.2296 108.161C60.702 82.7041 87.7338 64.0652 118.451 54.9157C119.464 54.6139 120.48 54.3229 121.497 54.0427C121.582 54.0173 121.667 53.9929 121.753 53.9694C141.116 48.676 161.375 47.2664 181.356 49.8661C205.106 52.9562 227.788 61.6235 247.547 75.1594C267.306 88.6953 283.581 106.715 295.042 127.746C304.683 145.439 310.686 164.84 312.744 184.807C313.388 191.061 308.391 196.305 302.107 196.479C295.823 196.653 290.639 191.688 289.912 185.444C288.005 169.07 282.973 153.176 275.052 138.639C271.079 131.349 266.426 124.485 261.169 118.131Z" fill="#E3EDF7"/>
</g>
<path d="M261.169 118.131L262.71 116.856L262.701 116.845L261.169 118.131ZM261.114 118.065L262.654 116.789L262.654 116.789L261.114 118.065ZM204.654 78.6998L203.989 80.5861L204.654 78.6998ZM124.949 76.7338L124.378 74.817L124.949 76.7338ZM59.3115 121.992L57.723 120.777L59.3115 121.992ZM33.5936 185.836L31.6064 185.61L33.5936 185.836ZM21.4324 196.907L21.3831 198.907L21.4324 196.907ZM10.7601 185.268L12.7502 185.467L10.7601 185.268ZM41.2296 108.161L42.8181 109.376L41.2296 108.161ZM118.451 54.9157L119.022 56.8325L118.451 54.9157ZM121.497 54.0427L122.028 55.971L122.05 55.9649L122.073 55.9582L121.497 54.0427ZM121.753 53.9694L122.28 55.8986L122.28 55.8986L121.753 53.9694ZM181.356 49.8661L181.098 51.8493L181.356 49.8661ZM247.547 75.1594L248.678 73.5094L247.547 75.1594ZM295.042 127.746L296.798 126.789L295.042 127.746ZM312.744 184.807L314.733 184.602L312.744 184.807ZM302.107 196.479L302.162 198.478L302.107 196.479ZM289.912 185.444L291.899 185.213L289.912 185.444ZM275.052 138.639L276.808 137.682L275.052 138.639ZM262.701 116.845C262.684 116.826 262.669 116.807 262.654 116.789L259.574 119.341C259.595 119.367 259.616 119.392 259.637 119.416L262.701 116.845ZM262.654 116.789C247.562 98.5729 227.765 84.724 205.319 76.8135L203.989 80.5861C225.75 88.255 244.942 101.681 259.574 119.341L262.654 116.789ZM205.319 76.8135C179.226 67.6183 150.893 66.9194 124.378 74.817L125.52 78.6505C151.225 70.9941 178.693 71.6716 203.989 80.5861L205.319 76.8135ZM124.378 74.817C97.8644 82.7146 74.5312 98.8033 57.723 120.777L60.9001 123.207C77.1951 101.904 99.8159 86.307 125.52 78.6505L124.378 74.817ZM57.723 120.777C43.2633 139.681 34.2713 162.105 31.6064 185.61L35.5809 186.061C38.1644 163.273 46.882 141.534 60.9001 123.207L57.723 120.777ZM31.6064 185.61C31.0023 190.938 26.6219 195.035 21.4818 194.908L21.3831 198.907C28.8121 199.09 34.7686 193.225 35.5809 186.061L31.6064 185.61ZM21.4818 194.908C16.2579 194.779 12.2505 190.465 12.7502 185.467L8.77003 185.069C8.01887 192.582 14.0378 198.726 21.3831 198.907L21.4818 194.908ZM12.7502 185.467C15.5087 157.878 25.8835 131.515 42.8181 109.376L39.641 106.946C22.2541 129.676 11.6022 156.743 8.77003 185.069L12.7502 185.467ZM42.8181 109.376C62.034 84.2547 88.7095 65.8614 119.022 56.8325L117.88 52.999C86.7581 62.269 59.3701 81.1535 39.641 106.946L42.8181 109.376ZM119.022 56.8325C120.022 56.5346 121.024 56.2475 122.028 55.971L120.967 52.1144C119.935 52.3983 118.906 52.6931 117.88 52.999L119.022 56.8325ZM122.073 55.9582C122.141 55.9376 122.211 55.9177 122.28 55.8986L121.226 52.0402C121.124 52.068 121.023 52.097 120.922 52.1272L122.073 55.9582ZM122.28 55.8986C141.388 50.675 161.381 49.284 181.098 51.8493L181.614 47.8828C161.37 45.2489 140.844 46.677 121.226 52.0402L122.28 55.8986ZM181.098 51.8493C204.535 54.8988 226.919 63.4519 246.417 76.8094L248.678 73.5094C228.658 59.7952 205.677 51.0137 181.614 47.8828L181.098 51.8493ZM246.417 76.8094C265.916 90.1669 281.976 107.949 293.285 128.703L296.798 126.789C285.187 105.481 268.697 87.2237 248.678 73.5094L246.417 76.8094ZM293.285 128.703C302.799 146.163 308.724 165.308 310.754 185.013L314.733 184.602C312.648 164.372 306.566 144.715 296.798 126.789L293.285 128.703ZM310.754 185.013C311.269 190.009 307.275 194.335 302.052 194.479L302.162 198.478C309.507 198.274 315.507 192.113 314.733 184.602L310.754 185.013ZM302.052 194.479C296.912 194.622 292.519 190.539 291.899 185.213L287.926 185.676C288.76 192.838 294.734 198.684 302.162 198.478L302.052 194.479ZM291.899 185.213C289.962 168.585 284.852 152.445 276.808 137.682L273.295 139.596C281.094 153.908 286.048 169.555 287.926 185.676L291.899 185.213ZM276.808 137.682C272.774 130.279 268.048 123.308 262.71 116.856L259.628 119.405C264.803 125.661 269.384 132.419 273.295 139.596L276.808 137.682Z" fill="url(#paint0_linear)" fill-opacity="0.46" mask="url(#path-6-outside-1)"/>
<path d="M21.4353 196.905C15.1507 196.75 10.1374 191.521 10.7627 185.266C14.2993 149.886 30.1728 116.73 55.7957 91.7325C84.1441 64.0759 122.18 48.5961 161.785 48.5977C201.39 48.5992 239.425 64.0821 267.771 91.741C293.392 116.741 309.263 149.897 312.796 185.278C313.421 191.533 308.408 196.762 302.123 196.916C295.838 197.071 290.67 192.089 289.963 185.843C286.629 156.408 273.239 128.884 251.872 108.035C227.778 84.5248 195.448 71.3644 161.784 71.363C128.12 71.3617 95.7893 84.5195 71.6932 108.028C50.3242 128.875 36.9328 156.398 33.5963 185.832C32.8882 192.079 27.7198 197.06 21.4353 196.905Z" fill="url(#paint1_linear)"/>
<g filter="url(#filter1_ddd)">
<rect x="124.896" y="121.085" width="79.0611" height="79.0611" rx="39.5305" fill="#BCBCBC"/>
<rect x="124.102" y="120.291" width="80.6493" height="80.6493" rx="40.3246" stroke="url(#paint2_linear)" stroke-opacity="0.46" stroke-width="1.58824"/>
</g>
<g filter="url(#filter2_ddd)">
<path d="M160.519 133.377L97.1571 41.6377L142.071 145.056C136.802 153.094 136.112 163.722 141.22 172.677C148.499 185.453 164.784 189.982 177.582 182.788C190.379 175.594 194.857 159.394 187.579 146.618C181.976 136.801 171.077 131.879 160.519 133.377Z" fill="#D7D7D7"/>
<path d="M160.108 133.661L160.284 133.915L160.59 133.872C170.952 132.402 181.647 137.233 187.144 146.865C194.286 159.401 189.892 175.294 177.337 182.352C164.78 189.411 148.797 184.967 141.655 172.429L141.655 172.429C136.643 163.644 137.319 153.218 142.489 145.33L142.637 145.104L142.529 144.857L99.6549 46.1339L160.108 133.661Z" stroke="url(#paint3_linear)"/>
</g>
<path d="M152.04 167H149.5V157.209L146.468 158.149V156.084L151.768 154.186H152.04V167ZM164.978 167H156.206V165.26L160.346 160.848C160.914 160.227 161.333 159.685 161.603 159.222C161.878 158.759 162.016 158.319 162.016 157.903C162.016 157.335 161.872 156.89 161.585 156.567C161.298 156.239 160.888 156.075 160.354 156.075C159.78 156.075 159.326 156.274 158.992 156.673C158.664 157.065 158.5 157.584 158.5 158.229H155.951C155.951 157.449 156.136 156.737 156.505 156.093C156.88 155.448 157.407 154.944 158.087 154.581C158.767 154.212 159.537 154.027 160.398 154.027C161.717 154.027 162.739 154.344 163.466 154.977C164.198 155.609 164.564 156.503 164.564 157.657C164.564 158.29 164.4 158.935 164.072 159.591C163.744 160.247 163.182 161.012 162.385 161.885L159.476 164.952H164.978V167ZM175.155 161.709C175.155 163.479 174.789 164.832 174.057 165.77C173.324 166.707 172.252 167.176 170.84 167.176C169.445 167.176 168.379 166.716 167.641 165.796C166.902 164.876 166.524 163.558 166.507 161.841V159.485C166.507 157.698 166.876 156.342 167.614 155.416C168.358 154.49 169.428 154.027 170.822 154.027C172.217 154.027 173.283 154.487 174.021 155.407C174.76 156.321 175.138 157.637 175.155 159.354V161.709ZM172.615 159.125C172.615 158.064 172.469 157.294 172.176 156.813C171.889 156.327 171.438 156.084 170.822 156.084C170.225 156.084 169.782 156.315 169.495 156.778C169.214 157.235 169.064 157.953 169.047 158.932V162.043C169.047 163.086 169.188 163.862 169.469 164.372C169.756 164.876 170.213 165.128 170.84 165.128C171.461 165.128 171.909 164.885 172.185 164.398C172.46 163.912 172.604 163.168 172.615 162.166V159.125Z" fill="#4D4D4D"/>
<defs>
<filter id="filter0_ii" x="-3.05078" y="34.4092" width="324.195" height="178.184" filterUnits="userSpaceOnUse" color-interpolation-filters="sRGB">
<feFlood flood-opacity="0" result="BackgroundImageFix"/>
<feBlend mode="normal" in="SourceGraphic" in2="BackgroundImageFix" result="shape"/>
<feColorMatrix in="SourceAlpha" type="matrix" values="0 0 0 0 0 0 0 0 0 0 0 0 0 0 0 0 0 0 127 0" result="hardAlpha"/>
<feOffset dx="6" dy="6"/>
<feGaussianBlur stdDeviation="7"/>
<feComposite in2="hardAlpha" operator="arithmetic" k2="-1" k3="1"/>
<feColorMatrix type="matrix" values="0 0 0 0 0.756863 0 0 0 0 0.835294 0 0 0 0 0.933333 0 0 0 1 0"/>
<feBlend mode="normal" in2="shape" result="effect1_innerShadow"/>
<feColorMatrix in="SourceAlpha" type="matrix" values="0 0 0 0 0 0 0 0 0 0 0 0 0 0 0 0 0 0 127 0" result="hardAlpha"/>
<feOffset dx="-8" dy="-8"/>
<feGaussianBlur stdDeviation="4.5"/>
<feComposite in2="hardAlpha" operator="arithmetic" k2="-1" k3="1"/>
<feColorMatrix type="matrix" values="0 0 0 0 1 0 0 0 0 1 0 0 0 0 1 0 0 0 0.88 0"/>
<feBlend mode="normal" in2="effect1_innerShadow" result="effect2_innerShadow"/>
</filter>
<filter id="filter1_ddd" x="93.7792" y="89.9672" width="123.767" height="123.767" filterUnits="userSpaceOnUse" color-interpolation-filters="sRGB">
<feFlood flood-opacity="0" result="BackgroundImageFix"/>
<feColorMatrix in="SourceAlpha" type="matrix" values="0 0 0 0 0 0 0 0 0 0 0 0 0 0 0 0 0 0 127 0"/>
<feOffset dx="2" dy="2"/>
<feGaussianBlur stdDeviation="5"/>
<feColorMatrix type="matrix" values="0 0 0 0 0.434896 0 0 0 0 0.548322 0 0 0 0 0.690104 0 0 0 0.05 0"/>
<feBlend mode="normal" in2="BackgroundImageFix" result="effect1_dropShadow"/>
<feColorMatrix in="SourceAlpha" type="matrix" values="0 0 0 0 0 0 0 0 0 0 0 0 0 0 0 0 0 0 127 0"/>
<feOffset dx="-9.52941" dy="-9.52941"/>
<feGaussianBlur stdDeviation="10"/>
<feColorMatrix type="matrix" values="0 0 0 0 1 0 0 0 0 1 0 0 0 0 1 0 0 0 1 0"/>
<feBlend mode="normal" in2="effect1_dropShadow" result="effect2_dropShadow"/>
<feColorMatrix in="SourceAlpha" type="matrix" values="0 0 0 0 0 0 0 0 0 0 0 0 0 0 0 0 0 0 127 0"/>
<feOffset dx="2" dy="2"/>
<feGaussianBlur stdDeviation="3"/>
<feColorMatrix type="matrix" values="0 0 0 0 0.446076 0 0 0 0 0.558333 0 0 0 0 0.67059 0 0 0 0.1 0"/>
<feBlend mode="normal" in2="effect2_dropShadow" result="effect3_dropShadow"/>
<feBlend mode="normal" in="SourceGraphic" in2="effect3_dropShadow" result="shape"/>
</filter>
<filter id="filter2_ddd" x="13.1573" y="0.347695" width="246.163" height="232.301" filterUnits="userSpaceOnUse" color-interpolation-filters="sRGB">
<feFlood flood-opacity="0" result="BackgroundImageFix"/>
<feColorMatrix in="SourceAlpha" type="matrix" values="0 0 0 0 0 0 0 0 0 0 0 0 0 0 0 0 0 0 127 0"/>
<feOffset dx="-9.53" dy="-9.53"/>
<feGaussianBlur stdDeviation="15.88"/>
<feColorMatrix type="matrix" values="0 0 0 0 1 0 0 0 0 1 0 0 0 0 1 0 0 0 1 0"/>
<feBlend mode="normal" in2="BackgroundImageFix" result="effect1_dropShadow"/>
<feColorMatrix in="SourceAlpha" type="matrix" values="0 0 0 0 0 0 0 0 0 0 0 0 0 0 0 0 0 0 127 0"/>
<feOffset dx="3.18" dy="3.18"/>
<feGaussianBlur stdDeviation="2"/>
<feColorMatrix type="matrix" values="0 0 0 0 0.447059 0 0 0 0 0.556863 0 0 0 0 0.670588 0 0 0 0.1 0"/>
<feBlend mode="normal" in2="effect1_dropShadow" result="effect2_dropShadow"/>
<feColorMatrix in="SourceAlpha" type="matrix" values="0 0 0 0 0 0 0 0 0 0 0 0 0 0 0 0 0 0 127 0"/>
<feOffset dx="6.35" dy="6.35"/>
<feGaussianBlur stdDeviation="15.88"/>
<feColorMatrix type="matrix" values="0 0 0 0 0.435294 0 0 0 0 0.54902 0 0 0 0 0.690196 0 0 0 0.41 0"/>
<feBlend mode="normal" in2="effect2_dropShadow" result="effect3_dropShadow"/>
<feBlend mode="normal" in="SourceGraphic" in2="effect3_dropShadow" result="shape"/>
</filter>
<linearGradient id="paint0_linear" x1="287.477" y1="90.7316" x2="241.329" y2="252.443" gradientUnits="userSpaceOnUse">
<stop stop-color="#D6E3F3"/>
<stop offset="1" stop-color="white"/>
</linearGradient>
<linearGradient id="paint1_linear" x1="295.429" y1="107.733" x2="66.2398" y2="114.083" gradientUnits="userSpaceOnUse">
<stop stop-color="#FE504C"/>
<stop offset="0.255208" stop-color="#EC8556"/>
<stop offset="0.427083" stop-color="#D9C359"/>
<stop offset="0.614583" stop-color="#B4DD61"/>
<stop offset="0.807292" stop-color="#74BE8A"/>
<stop offset="1" stop-color="#01B55C"/>
</linearGradient>
<linearGradient id="paint2_linear" x1="200.297" y1="195.495" x2="139.073" y2="198.038" gradientUnits="userSpaceOnUse">
<stop stop-color="#D6E3F3"/>
<stop offset="1" stop-color="white"/>
</linearGradient>
<linearGradient id="paint3_linear" x1="216.122" y1="137.95" x2="101.855" y2="184.107" gradientUnits="userSpaceOnUse">
<stop offset="0.202194" stop-color="#C1C1C1"/>
<stop offset="0.706321" stop-color="white" stop-opacity="0"/>
</linearGradient>
</defs>
</svg>