<svg width="347" height="243" viewBox="0 0 347 243" fill="none" xmlns="http://www.w3.org/2000/svg">
<path d="M1.24805 126.707L1.98633 120.203H9.1582V122.321H4.06934L3.75293 125.072C4.35645 124.75 4.99805 124.589 5.67773 124.589C6.89648 124.589 7.85156 124.967 8.54297 125.723C9.23438 126.479 9.58008 127.536 9.58008 128.896C9.58008 129.722 9.4043 130.463 9.05273 131.119C8.70703 131.77 8.20898 132.276 7.55859 132.64C6.9082 132.997 6.14062 133.176 5.25586 133.176C4.48242 133.176 3.76465 133.021 3.10254 132.71C2.44043 132.394 1.91602 131.951 1.5293 131.383C1.14844 130.814 0.946289 130.167 0.922852 129.44H3.43652C3.48926 129.974 3.67383 130.39 3.99023 130.688C4.3125 130.981 4.73145 131.128 5.24707 131.128C5.82129 131.128 6.26367 130.923 6.57422 130.513C6.88477 130.097 7.04004 129.511 7.04004 128.755C7.04004 128.028 6.86133 127.472 6.50391 127.085C6.14648 126.698 5.63965 126.505 4.9834 126.505C4.37988 126.505 3.89062 126.663 3.51562 126.979L3.26953 127.208L1.24805 126.707ZM19.8193 127.709C19.8193 129.479 19.4531 130.832 18.7207 131.77C17.9883 132.707 16.916 133.176 15.5039 133.176C14.1094 133.176 13.043 132.716 12.3047 131.796C11.5664 130.876 11.1885 129.558 11.1709 127.841V125.485C11.1709 123.698 11.54 122.342 12.2783 121.416C13.0225 120.49 14.0918 120.027 15.4863 120.027C16.8809 120.027 17.9473 120.487 18.6855 121.407C19.4238 122.321 19.8018 123.637 19.8193 125.354V127.709ZM17.2793 125.125C17.2793 124.064 17.1328 123.294 16.8398 122.813C16.5527 122.327 16.1016 122.084 15.4863 122.084C14.8887 122.084 14.4463 122.315 14.1592 122.778C13.8779 123.235 13.7285 123.953 13.7109 124.932V128.043C13.7109 129.086 13.8516 129.862 14.1328 130.372C14.4199 130.876 14.877 131.128 15.5039 131.128C16.125 131.128 16.5732 130.885 16.8486 130.398C17.124 129.912 17.2676 129.168 17.2793 128.166V125.125Z" fill="#4D4D4D"/>
<path d="M63.04 74H60.5V64.209L57.4678 65.1494V63.084L62.7676 61.1855H63.04V74ZM75.8193 68.709C75.8193 70.4785 75.4531 71.832 74.7207 72.7695C73.9883 73.707 72.916 74.1758 71.5039 74.1758C70.1094 74.1758 69.043 73.7158 68.3047 72.7959C67.5664 71.876 67.1885 70.5576 67.1709 68.8408V66.4854C67.1709 64.6982 67.54 63.3418 68.2783 62.416C69.0225 61.4902 70.0918 61.0273 71.4863 61.0273C72.8809 61.0273 73.9473 61.4873 74.6855 62.4072C75.4238 63.3213 75.8018 64.6367 75.8193 66.3535V68.709ZM73.2793 66.125C73.2793 65.0645 73.1328 64.2939 72.8398 63.8135C72.5527 63.3271 72.1016 63.084 71.4863 63.084C70.8887 63.084 70.4463 63.3154 70.1592 63.7783C69.8779 64.2354 69.7285 64.9531 69.7109 65.9316V69.043C69.7109 70.0859 69.8516 70.8623 70.1328 71.3721C70.4199 71.876 70.877 72.1279 71.5039 72.1279C72.125 72.1279 72.5732 71.8848 72.8486 71.3984C73.124 70.9121 73.2676 70.168 73.2793 69.166V66.125ZM86.1553 68.709C86.1553 70.4785 85.7891 71.832 85.0566 72.7695C84.3242 73.707 83.252 74.1758 81.8398 74.1758C80.4453 74.1758 79.3789 73.7158 78.6406 72.7959C77.9023 71.876 77.5244 70.5576 77.5068 68.8408V66.4854C77.5068 64.6982 77.876 63.3418 78.6143 62.416C79.3584 61.4902 80.4277 61.0273 81.8223 61.0273C83.2168 61.0273 84.2832 61.4873 85.0215 62.4072C85.7598 63.3213 86.1377 64.6367 86.1553 66.3535V68.709ZM83.6152 66.125C83.6152 65.0645 83.4688 64.2939 83.1758 63.8135C82.8887 63.3271 82.4375 63.084 81.8223 63.084C81.2246 63.084 80.7822 63.3154 80.4951 63.7783C80.2139 64.2354 80.0645 64.9531 80.0469 65.9316V69.043C80.0469 70.0859 80.1875 70.8623 80.4688 71.3721C80.7559 71.876 81.2129 72.1279 81.8398 72.1279C82.4609 72.1279 82.9092 71.8848 83.1846 71.3984C83.46 70.9121 83.6035 70.168 83.6152 69.166V66.125Z" fill="#4D4D4D"/>
<path d="M151.04 39H148.5V29.209L145.468 30.1494V28.084L150.768 26.1855H151.04V39ZM155.584 32.707L156.322 26.2031H163.494V28.3213H158.405L158.089 31.0723C158.692 30.75 159.334 30.5889 160.014 30.5889C161.232 30.5889 162.188 30.9668 162.879 31.7227C163.57 32.4785 163.916 33.5361 163.916 34.8955C163.916 35.7217 163.74 36.4629 163.389 37.1191C163.043 37.7695 162.545 38.2764 161.895 38.6396C161.244 38.9971 160.477 39.1758 159.592 39.1758C158.818 39.1758 158.101 39.0205 157.438 38.71C156.776 38.3936 156.252 37.9512 155.865 37.3828C155.484 36.8145 155.282 36.167 155.259 35.4404H157.772C157.825 35.9736 158.01 36.3896 158.326 36.6885C158.648 36.9814 159.067 37.1279 159.583 37.1279C160.157 37.1279 160.6 36.9229 160.91 36.5127C161.221 36.0967 161.376 35.5107 161.376 34.7549C161.376 34.0283 161.197 33.4717 160.84 33.085C160.482 32.6982 159.976 32.5049 159.319 32.5049C158.716 32.5049 158.227 32.6631 157.852 32.9795L157.605 33.208L155.584 32.707ZM174.155 33.709C174.155 35.4785 173.789 36.832 173.057 37.7695C172.324 38.707 171.252 39.1758 169.84 39.1758C168.445 39.1758 167.379 38.7158 166.641 37.7959C165.902 36.876 165.524 35.5576 165.507 33.8408V31.4854C165.507 29.6982 165.876 28.3418 166.614 27.416C167.358 26.4902 168.428 26.0273 169.822 26.0273C171.217 26.0273 172.283 26.4873 173.021 27.4072C173.76 28.3213 174.138 29.6367 174.155 31.3535V33.709ZM171.615 31.125C171.615 30.0645 171.469 29.2939 171.176 28.8135C170.889 28.3271 170.438 28.084 169.822 28.084C169.225 28.084 168.782 28.3154 168.495 28.7783C168.214 29.2354 168.064 29.9531 168.047 30.9316V34.043C168.047 35.0859 168.188 35.8623 168.469 36.3721C168.756 36.876 169.213 37.1279 169.84 37.1279C170.461 37.1279 170.909 36.8848 171.185 36.3984C171.46 35.9121 171.604 35.168 171.615 34.166V31.125Z" fill="#4D4D4D"/>
<path d="M243.642 74H234.87V72.2598L239.01 67.8477C239.578 67.2266 239.997 66.6846 240.267 66.2217C240.542 65.7588 240.68 65.3193 240.68 64.9033C240.68 64.335 240.536 63.8896 240.249 63.5674C239.962 63.2393 239.552 63.0752 239.019 63.0752C238.444 63.0752 237.99 63.2744 237.656 63.6729C237.328 64.0654 237.164 64.584 237.164 65.2285H234.615C234.615 64.4492 234.8 63.7373 235.169 63.0928C235.544 62.4482 236.071 61.9443 236.751 61.5811C237.431 61.2119 238.201 61.0273 239.062 61.0273C240.381 61.0273 241.403 61.3438 242.13 61.9766C242.862 62.6094 243.229 63.5029 243.229 64.6572C243.229 65.29 243.064 65.9346 242.736 66.5908C242.408 67.2471 241.846 68.0117 241.049 68.8848L238.14 71.9521H243.642V74ZM253.819 68.709C253.819 70.4785 253.453 71.832 252.721 72.7695C251.988 73.707 250.916 74.1758 249.504 74.1758C248.109 74.1758 247.043 73.7158 246.305 72.7959C245.566 71.876 245.188 70.5576 245.171 68.8408V66.4854C245.171 64.6982 245.54 63.3418 246.278 62.416C247.022 61.4902 248.092 61.0273 249.486 61.0273C250.881 61.0273 251.947 61.4873 252.686 62.4072C253.424 63.3213 253.802 64.6367 253.819 66.3535V68.709ZM251.279 66.125C251.279 65.0645 251.133 64.2939 250.84 63.8135C250.553 63.3271 250.102 63.084 249.486 63.084C248.889 63.084 248.446 63.3154 248.159 63.7783C247.878 64.2354 247.729 64.9531 247.711 65.9316V69.043C247.711 70.0859 247.852 70.8623 248.133 71.3721C248.42 71.876 248.877 72.1279 249.504 72.1279C250.125 72.1279 250.573 71.8848 250.849 71.3984C251.124 70.9121 251.268 70.168 251.279 69.166V66.125ZM264.155 68.709C264.155 70.4785 263.789 71.832 263.057 72.7695C262.324 73.707 261.252 74.1758 259.84 74.1758C258.445 74.1758 257.379 73.7158 256.641 72.7959C255.902 71.876 255.524 70.5576 255.507 68.8408V66.4854C255.507 64.6982 255.876 63.3418 256.614 62.416C257.358 61.4902 258.428 61.0273 259.822 61.0273C261.217 61.0273 262.283 61.4873 263.021 62.4072C263.76 63.3213 264.138 64.6367 264.155 66.3535V68.709ZM261.615 66.125C261.615 65.0645 261.469 64.2939 261.176 63.8135C260.889 63.3271 260.438 63.084 259.822 63.084C259.225 63.084 258.782 63.3154 258.495 63.7783C258.214 64.2354 258.064 64.9531 258.047 65.9316V69.043C258.047 70.0859 258.188 70.8623 258.469 71.3721C258.756 71.876 259.213 72.1279 259.84 72.1279C260.461 72.1279 260.909 71.8848 261.185 71.3984C261.46 70.9121 261.604 70.168 261.615 69.166V66.125Z" fill="#4D4D4D"/>
<path d="M305.642 128H296.87V126.26L301.01 121.848C301.578 121.227 301.997 120.685 302.267 120.222C302.542 119.759 302.68 119.319 302.68 118.903C302.68 118.335 302.536 117.89 302.249 117.567C301.962 117.239 301.552 117.075 301.019 117.075C300.444 117.075 299.99 117.274 299.656 117.673C299.328 118.065 299.164 118.584 299.164 119.229H296.615C296.615 118.449 296.8 117.737 297.169 117.093C297.544 116.448 298.071 115.944 298.751 115.581C299.431 115.212 300.201 115.027 301.062 115.027C302.381 115.027 303.403 115.344 304.13 115.977C304.862 116.609 305.229 117.503 305.229 118.657C305.229 119.29 305.064 119.935 304.736 120.591C304.408 121.247 303.846 122.012 303.049 122.885L300.14 125.952H305.642V128ZM307.584 121.707L308.322 115.203H315.494V117.321H310.405L310.089 120.072C310.692 119.75 311.334 119.589 312.014 119.589C313.232 119.589 314.188 119.967 314.879 120.723C315.57 121.479 315.916 122.536 315.916 123.896C315.916 124.722 315.74 125.463 315.389 126.119C315.043 126.77 314.545 127.276 313.895 127.64C313.244 127.997 312.477 128.176 311.592 128.176C310.818 128.176 310.101 128.021 309.438 127.71C308.776 127.394 308.252 126.951 307.865 126.383C307.484 125.814 307.282 125.167 307.259 124.44H309.772C309.825 124.974 310.01 125.39 310.326 125.688C310.648 125.981 311.067 126.128 311.583 126.128C312.157 126.128 312.6 125.923 312.91 125.513C313.221 125.097 313.376 124.511 313.376 123.755C313.376 123.028 313.197 122.472 312.84 122.085C312.482 121.698 311.976 121.505 311.319 121.505C310.716 121.505 310.227 121.663 309.852 121.979L309.605 122.208L307.584 121.707ZM326.155 122.709C326.155 124.479 325.789 125.832 325.057 126.77C324.324 127.707 323.252 128.176 321.84 128.176C320.445 128.176 319.379 127.716 318.641 126.796C317.902 125.876 317.524 124.558 317.507 122.841V120.485C317.507 118.698 317.876 117.342 318.614 116.416C319.358 115.49 320.428 115.027 321.822 115.027C323.217 115.027 324.283 115.487 325.021 116.407C325.76 117.321 326.138 118.637 326.155 120.354V122.709ZM323.615 120.125C323.615 119.064 323.469 118.294 323.176 117.813C322.889 117.327 322.438 117.084 321.822 117.084C321.225 117.084 320.782 117.315 320.495 117.778C320.214 118.235 320.064 118.953 320.047 119.932V123.043C320.047 124.086 320.188 124.862 320.469 125.372C320.756 125.876 321.213 126.128 321.84 126.128C322.461 126.128 322.909 125.885 323.185 125.398C323.46 124.912 323.604 124.168 323.615 123.166V120.125Z" fill="#4D4D4D"/>
<mask id="path-6-outside-1" maskUnits="userSpaceOnUse" x="6.74166" y="58.8819" width="291.933" height="153.92" fill="black">
<rect fill="white" x="6.74166" y="58.8819" width="291.933" height="153.92"/>
<path fill-rule="evenodd" clip-rule="evenodd" d="M247.454 129.834C247.437 129.814 247.421 129.795 247.405 129.775C233.508 113.002 215.279 100.25 194.611 92.9662C170.585 84.4992 144.496 83.8557 120.082 91.1277C95.668 98.3998 74.183 113.214 58.7061 133.447C45.3918 150.854 37.112 171.502 34.6581 193.145C33.9959 198.986 29.1631 203.643 23.2866 203.498C17.4101 203.353 12.7224 198.464 13.3073 192.615C15.9211 166.473 25.7518 141.492 41.7982 120.514C60.0063 96.7104 85.2828 79.2818 114.005 70.7264C114.96 70.4419 115.918 70.1677 116.877 69.9037C116.949 69.8824 117.021 69.8618 117.093 69.842C135.199 64.8923 154.143 63.5743 172.826 66.0051C195.034 68.8946 216.244 76.9991 234.72 89.6561C253.196 102.313 268.414 119.163 279.13 138.828C288.145 155.372 293.758 173.513 295.683 192.184C296.285 198.032 291.612 202.935 285.736 203.098C279.86 203.26 275.013 198.618 274.333 192.78C272.55 177.469 267.845 162.607 260.438 149.014C256.722 142.196 252.37 135.776 247.454 129.834Z"/>
</mask>
<g filter="url(#filter0_ii)">
<path fill-rule="evenodd" clip-rule="evenodd" d="M247.454 129.834C247.437 129.814 247.421 129.795 247.405 129.775C233.508 113.002 215.279 100.25 194.611 92.9662C170.585 84.4992 144.496 83.8557 120.082 91.1277C95.668 98.3998 74.183 113.214 58.7061 133.447C45.3918 150.854 37.112 171.502 34.6581 193.145C33.9959 198.986 29.1631 203.643 23.2866 203.498C17.4101 203.353 12.7224 198.464 13.3073 192.615C15.9211 166.473 25.7518 141.492 41.7982 120.514C60.0063 96.7104 85.2828 79.2818 114.005 70.7264C114.96 70.4419 115.918 70.1677 116.877 69.9037C116.949 69.8824 117.021 69.8618 117.093 69.842C135.199 64.8923 154.143 63.5743 172.826 66.0051C195.034 68.8946 216.244 76.9991 234.72 89.6561C253.196 102.313 268.414 119.163 279.13 138.828C288.145 155.372 293.758 173.513 295.683 192.184C296.285 198.032 291.612 202.935 285.736 203.098C279.86 203.26 275.013 198.618 274.333 192.78C272.55 177.469 267.845 162.607 260.438 149.014C256.722 142.196 252.37 135.776 247.454 129.834Z" fill="#E3EDF7"/>
</g>
<path d="M247.454 129.834L248.995 128.559L248.986 128.548L247.454 129.834ZM247.405 129.775L245.865 131.051L245.865 131.051L247.405 129.775ZM194.611 92.9662L193.946 94.8525L194.611 92.9662ZM120.082 91.1277L120.653 93.0445L120.082 91.1277ZM58.7061 133.447L57.1175 132.232L58.7061 133.447ZM34.6581 193.145L36.6454 193.37L34.6581 193.145ZM23.2866 203.498L23.2373 205.498L23.2866 203.498ZM13.3073 192.615L11.3172 192.416L13.3073 192.615ZM41.7982 120.514L40.2097 119.299L41.7982 120.514ZM114.005 70.7264L113.434 68.8097L113.434 68.8097L114.005 70.7264ZM116.877 69.9037L117.408 71.8321L117.428 71.8265L117.448 71.8206L116.877 69.9037ZM117.093 69.842L116.566 67.9128L116.566 67.9128L117.093 69.842ZM172.826 66.0051L173.084 64.0218L173.084 64.0218L172.826 66.0051ZM234.72 89.6561L235.85 88.0061L234.72 89.6561ZM279.13 138.828L280.886 137.871L279.13 138.828ZM295.683 192.184L293.693 192.389L295.683 192.184ZM274.333 192.78L276.32 192.548L276.32 192.548L274.333 192.78ZM260.438 149.014L258.682 149.971L258.682 149.971L260.438 149.014ZM248.986 128.548C248.972 128.532 248.959 128.516 248.945 128.499L245.865 131.051C245.883 131.074 245.902 131.097 245.922 131.119L248.986 128.548ZM248.945 128.499C234.818 111.448 216.287 98.4845 195.276 91.0799L193.946 94.8525C214.272 102.016 232.198 114.556 245.865 131.051L248.945 128.499ZM195.276 91.0799C170.852 82.4726 144.33 81.8183 119.511 89.211L120.653 93.0445C144.662 85.893 170.319 86.5259 193.946 94.8525L195.276 91.0799ZM119.511 89.211C94.6923 96.6036 72.851 111.664 57.1175 132.232L60.2947 134.663C75.5149 114.765 96.6437 100.196 120.653 93.0445L119.511 89.211ZM57.1175 132.232C43.5825 149.927 35.1654 170.917 32.6709 192.92L36.6454 193.37C39.0586 172.086 47.2011 151.78 60.2947 134.663L57.1175 132.232ZM32.6709 192.92C32.1128 197.843 28.068 201.615 23.3359 201.499L23.2373 205.498C30.2582 205.671 35.8791 200.129 36.6454 193.37L32.6709 192.92ZM23.3359 201.499C18.5202 201.38 14.8383 197.405 15.2974 192.814L11.3172 192.416C10.6066 199.522 16.3001 205.326 23.2373 205.498L23.3359 201.499ZM15.2974 192.814C17.8743 167.04 27.5665 142.412 43.3868 121.729L40.2097 119.299C23.9371 140.573 13.9679 165.905 11.3172 192.416L15.2974 192.814ZM43.3868 121.729C61.3383 98.261 86.2585 81.078 114.576 72.6432L113.434 68.8097C84.3071 77.4856 58.6744 95.1598 40.2097 119.299L43.3868 121.729ZM114.576 72.6432C115.518 72.3627 116.462 72.0923 117.408 71.8321L116.347 67.9753C115.374 68.243 114.403 68.5211 113.434 68.8097L114.576 72.6432ZM117.448 71.8206C117.505 71.8036 117.563 71.7871 117.621 71.7712L116.566 67.9128C116.479 67.9366 116.393 67.9612 116.307 67.9868L117.448 71.8206ZM117.621 71.7712C135.471 66.8913 154.148 65.5918 172.568 67.9884L173.084 64.0218C154.138 61.5567 134.927 62.8934 116.566 67.9128L117.621 71.7712ZM172.568 67.9884C194.463 70.8372 215.374 78.8275 233.589 91.306L235.85 88.0061C217.113 75.1708 195.605 66.952 173.084 64.0218L172.568 67.9884ZM233.589 91.306C251.805 103.785 266.809 120.397 277.374 139.785L280.886 137.871C270.019 117.929 254.586 100.841 235.85 88.0061L233.589 91.306ZM277.374 139.785C286.262 156.096 291.796 173.981 293.693 192.389L297.672 191.979C295.721 173.045 290.028 154.648 280.886 137.871L277.374 139.785ZM293.693 192.389C294.166 196.98 290.496 200.965 285.681 201.098L285.792 205.097C292.728 204.905 298.404 199.084 297.672 191.979L293.693 192.389ZM285.681 201.098C280.949 201.23 276.893 197.469 276.32 192.548L272.347 193.011C273.134 199.768 278.771 205.291 285.792 205.097L285.681 201.098ZM276.32 192.548C274.507 176.983 269.724 161.875 262.194 148.057L258.682 149.971C265.966 163.339 270.593 177.954 272.347 193.011L276.32 192.548ZM262.194 148.057C258.417 141.126 253.993 134.6 248.994 128.559L245.913 131.109C250.748 136.953 255.028 143.266 258.682 149.971L262.194 148.057Z" fill="url(#paint0_linear)" fill-opacity="0.46" mask="url(#path-6-outside-1)"/>
<path d="M23.2906 203.496C17.4141 203.351 12.7264 198.462 13.3111 192.612C16.618 159.53 31.4607 128.527 55.4198 105.153C81.9275 79.292 117.494 64.8174 154.527 64.8188C191.56 64.8203 227.125 79.2978 253.631 105.161C277.588 128.537 292.428 159.541 295.733 192.624C296.317 198.473 291.629 203.362 285.752 203.506C279.876 203.651 275.043 198.993 274.382 193.152C271.264 165.629 258.744 139.892 238.764 120.397C216.235 98.4131 186.004 86.1072 154.526 86.106C123.048 86.1047 92.8166 98.4082 70.285 120.39C50.3036 139.884 37.7818 165.619 34.6619 193.143C33.9999 198.983 29.1671 203.641 23.2906 203.496Z" fill="url(#paint1_linear)"/>
<g filter="url(#filter1_ddd)">
<rect x="120.033" y="132.599" width="73.9273" height="73.9273" rx="36.9637" fill="#BCBCBC"/>
<rect x="119.239" y="131.805" width="75.5156" height="75.5156" rx="37.7578" stroke="url(#paint2_linear)" stroke-opacity="0.46" stroke-width="1.58824"/>
</g>
<g filter="url(#filter2_ddd)">
<path d="M166.533 146.205L159.023 42.222L146.126 146.859C138.066 150.835 132.466 159.069 132.332 168.709C132.132 182.456 143.103 193.834 156.828 194.112C170.553 194.39 181.849 183.463 182.049 169.716C182.195 159.147 175.749 150.01 166.533 146.205Z" fill="#D7D7D7"/>
<path d="M166.034 146.241L166.056 146.549L166.342 146.667C175.376 150.396 181.692 159.353 181.549 169.708C181.354 183.18 170.286 193.884 156.839 193.612C143.389 193.34 132.636 182.189 132.832 168.716L132.832 168.715C132.963 159.271 138.449 151.203 146.347 147.307L146.589 147.188L146.622 146.92L158.893 47.3638L166.034 146.241Z" stroke="url(#paint3_linear)"/>
</g>
<path d="M149.04 175H146.5V165.209L143.468 166.149V164.084L148.768 162.186H149.04V175ZM153.584 168.707L154.322 162.203H161.494V164.321H156.405L156.089 167.072C156.692 166.75 157.334 166.589 158.014 166.589C159.232 166.589 160.188 166.967 160.879 167.723C161.57 168.479 161.916 169.536 161.916 170.896C161.916 171.722 161.74 172.463 161.389 173.119C161.043 173.77 160.545 174.276 159.895 174.64C159.244 174.997 158.477 175.176 157.592 175.176C156.818 175.176 156.101 175.021 155.438 174.71C154.776 174.394 154.252 173.951 153.865 173.383C153.484 172.814 153.282 172.167 153.259 171.44H155.772C155.825 171.974 156.01 172.39 156.326 172.688C156.648 172.981 157.067 173.128 157.583 173.128C158.157 173.128 158.6 172.923 158.91 172.513C159.221 172.097 159.376 171.511 159.376 170.755C159.376 170.028 159.197 169.472 158.84 169.085C158.482 168.698 157.976 168.505 157.319 168.505C156.716 168.505 156.227 168.663 155.852 168.979L155.605 169.208L153.584 168.707ZM172.155 169.709C172.155 171.479 171.789 172.832 171.057 173.77C170.324 174.707 169.252 175.176 167.84 175.176C166.445 175.176 165.379 174.716 164.641 173.796C163.902 172.876 163.524 171.558 163.507 169.841V167.485C163.507 165.698 163.876 164.342 164.614 163.416C165.358 162.49 166.428 162.027 167.822 162.027C169.217 162.027 170.283 162.487 171.021 163.407C171.76 164.321 172.138 165.637 172.155 167.354V169.709ZM169.615 167.125C169.615 166.064 169.469 165.294 169.176 164.813C168.889 164.327 168.438 164.084 167.822 164.084C167.225 164.084 166.782 164.315 166.495 164.778C166.214 165.235 166.064 165.953 166.047 166.932V170.043C166.047 171.086 166.188 171.862 166.469 172.372C166.756 172.876 167.213 173.128 167.84 173.128C168.461 173.128 168.909 172.885 169.185 172.398C169.46 171.912 169.604 171.168 169.615 170.166V167.125Z" fill="#4D4D4D"/>
<defs>
<filter id="filter0_ii" x="-0.259766" y="50.8989" width="304.32" height="167.789" filterUnits="userSpaceOnUse" color-interpolation-filters="sRGB">
<feFlood flood-opacity="0" result="BackgroundImageFix"/>
<feBlend mode="normal" in="SourceGraphic" in2="BackgroundImageFix" result="shape"/>
<feColorMatrix in="SourceAlpha" type="matrix" values="0 0 0 0 0 0 0 0 0 0 0 0 0 0 0 0 0 0 127 0" result="hardAlpha"/>
<feOffset dx="6" dy="6"/>
<feGaussianBlur stdDeviation="7"/>
<feComposite in2="hardAlpha" operator="arithmetic" k2="-1" k3="1"/>
<feColorMatrix type="matrix" values="0 0 0 0 0.756863 0 0 0 0 0.835294 0 0 0 0 0.933333 0 0 0 1 0"/>
<feBlend mode="normal" in2="shape" result="effect1_innerShadow"/>
<feColorMatrix in="SourceAlpha" type="matrix" values="0 0 0 0 0 0 0 0 0 0 0 0 0 0 0 0 0 0 127 0" result="hardAlpha"/>
<feOffset dx="-8" dy="-8"/>
<feGaussianBlur stdDeviation="4.5"/>
<feComposite in2="hardAlpha" operator="arithmetic" k2="-1" k3="1"/>
<feColorMatrix type="matrix" values="0 0 0 0 1 0 0 0 0 1 0 0 0 0 1 0 0 0 0.88 0"/>
<feBlend mode="normal" in2="effect1_innerShadow" result="effect2_innerShadow"/>
</filter>
<filter id="filter1_ddd" x="88.9159" y="101.481" width="118.633" height="118.633" filterUnits="userSpaceOnUse" color-interpolation-filters="sRGB">
<feFlood flood-opacity="0" result="BackgroundImageFix"/>
<feColorMatrix in="SourceAlpha" type="matrix" values="0 0 0 0 0 0 0 0 0 0 0 0 0 0 0 0 0 0 127 0"/>
<feOffset dx="2" dy="2"/>
<feGaussianBlur stdDeviation="5"/>
<feColorMatrix type="matrix" values="0 0 0 0 0.434896 0 0 0 0 0.548322 0 0 0 0 0.690104 0 0 0 0.05 0"/>
<feBlend mode="normal" in2="BackgroundImageFix" result="effect1_dropShadow"/>
<feColorMatrix in="SourceAlpha" type="matrix" values="0 0 0 0 0 0 0 0 0 0 0 0 0 0 0 0 0 0 127 0"/>
<feOffset dx="-9.52941" dy="-9.52941"/>
<feGaussianBlur stdDeviation="10"/>
<feColorMatrix type="matrix" values="0 0 0 0 1 0 0 0 0 1 0 0 0 0 1 0 0 0 1 0"/>
<feBlend mode="normal" in2="effect1_dropShadow" result="effect2_dropShadow"/>
<feColorMatrix in="SourceAlpha" type="matrix" values="0 0 0 0 0 0 0 0 0 0 0 0 0 0 0 0 0 0 127 0"/>
<feOffset dx="2" dy="2"/>
<feGaussianBlur stdDeviation="3"/>
<feColorMatrix type="matrix" values="0 0 0 0 0.446076 0 0 0 0 0.558333 0 0 0 0 0.67059 0 0 0 0.1 0"/>
<feBlend mode="normal" in2="effect2_dropShadow" result="effect3_dropShadow"/>
<feBlend mode="normal" in="SourceGraphic" in2="effect3_dropShadow" result="shape"/>
</filter>
<filter id="filter2_ddd" x="35.9463" y="0.932168" width="235.943" height="241.193" filterUnits="userSpaceOnUse" color-interpolation-filters="sRGB">
<feFlood flood-opacity="0" result="BackgroundImageFix"/>
<feColorMatrix in="SourceAlpha" type="matrix" values="0 0 0 0 0 0 0 0 0 0 0 0 0 0 0 0 0 0 127 0"/>
<feOffset dx="-9.53" dy="-9.53"/>
<feGaussianBlur stdDeviation="15.88"/>
<feColorMatrix type="matrix" values="0 0 0 0 1 0 0 0 0 1 0 0 0 0 1 0 0 0 1 0"/>
<feBlend mode="normal" in2="BackgroundImageFix" result="effect1_dropShadow"/>
<feColorMatrix in="SourceAlpha" type="matrix" values="0 0 0 0 0 0 0 0 0 0 0 0 0 0 0 0 0 0 127 0"/>
<feOffset dx="3.18" dy="3.18"/>
<feGaussianBlur stdDeviation="2"/>
<feColorMatrix type="matrix" values="0 0 0 0 0.447059 0 0 0 0 0.556863 0 0 0 0 0.670588 0 0 0 0.1 0"/>
<feBlend mode="normal" in2="effect1_dropShadow" result="effect2_dropShadow"/>
<feColorMatrix in="SourceAlpha" type="matrix" values="0 0 0 0 0 0 0 0 0 0 0 0 0 0 0 0 0 0 127 0"/>
<feOffset dx="6.35" dy="6.35"/>
<feGaussianBlur stdDeviation="15.88"/>
<feColorMatrix type="matrix" values="0 0 0 0 0.435294 0 0 0 0 0.54902 0 0 0 0 0.690196 0 0 0 0.41 0"/>
<feBlend mode="normal" in2="effect2_dropShadow" result="effect3_dropShadow"/>
<feBlend mode="normal" in="SourceGraphic" in2="effect3_dropShadow" result="shape"/>
</filter>
<linearGradient id="paint0_linear" x1="272.056" y1="104.217" x2="228.905" y2="255.428" gradientUnits="userSpaceOnUse">
<stop stop-color="#D6E3F3"/>
<stop offset="1" stop-color="white"/>
</linearGradient>
<linearGradient id="paint1_linear" x1="279.493" y1="120.114" x2="65.1854" y2="126.052" gradientUnits="userSpaceOnUse">
<stop stop-color="#FE504C"/>
<stop offset="0.255208" stop-color="#EC8556"/>
<stop offset="0.427083" stop-color="#D9C359"/>
<stop offset="0.614583" stop-color="#B4DD61"/>
<stop offset="0.807292" stop-color="#74BE8A"/>
<stop offset="1" stop-color="#01B55C"/>
</linearGradient>
<linearGradient id="paint2_linear" x1="190.538" y1="202.177" x2="133.289" y2="204.555" gradientUnits="userSpaceOnUse">
<stop stop-color="#D6E3F3"/>
<stop offset="1" stop-color="white"/>
</linearGradient>
<linearGradient id="paint3_linear" x1="209.159" y1="176.279" x2="95.1922" y2="159.234" gradientUnits="userSpaceOnUse">
<stop offset="0.202194" stop-color="#C1C1C1"/>
<stop offset="0.706321" stop-color="white" stop-opacity="0"/>
</linearGradient>
</defs>
</svg>