<svg width="81" height="80" viewBox="0 0 81 80" fill="none" xmlns="http://www.w3.org/2000/svg">
<path d="M80.1995 40.1173C80.1995 42.008 77.718 43.6623 77.4817 45.4349C77.2453 47.2665 79.136 49.5708 78.6043 51.3433C78.0725 53.1158 75.2365 54.0021 74.4684 55.7156C73.7003 57.3699 74.882 60.1469 73.8775 61.6831C72.8731 63.2193 69.8598 63.2784 68.6781 64.6964C67.4964 66.1144 67.8509 69.0686 66.4329 70.2503C65.0148 71.432 62.1788 70.6639 60.5835 71.6684C59.0473 72.6728 58.5746 75.627 56.8612 76.3951C55.2068 77.1632 52.6662 75.5679 50.8937 76.0997C49.1211 76.6315 47.8213 79.2903 45.9897 79.5857C44.2171 79.822 42.2082 77.6359 40.3175 77.6359C38.4268 77.6359 36.418 79.8811 34.6454 79.5857C32.8138 79.3493 31.514 76.6315 29.7414 76.0997C27.9689 75.5679 25.4283 77.1632 23.7739 76.3951C22.1195 75.627 21.5878 72.6728 20.0516 71.6684C18.5154 70.6639 15.6202 71.432 14.2022 70.2503C12.7842 69.0686 13.1978 66.0553 11.957 64.6964C10.7753 63.2784 7.76202 63.2193 6.75758 61.6831C5.75315 60.1469 6.93484 57.3699 6.16674 55.7156C5.39864 54.0612 2.56259 53.1749 2.03083 51.3433C1.49907 49.5708 3.44885 47.2665 3.15343 45.4349C2.91709 43.6623 0.435547 41.9489 0.435547 40.1173C0.435547 38.2266 2.91709 36.5722 3.15343 34.7997C3.38977 32.9681 1.49907 30.6638 2.03083 28.8912C2.56259 27.1187 5.39864 26.2324 6.16674 24.519C6.93484 22.8646 5.75315 20.0876 6.75758 18.5514C7.76202 17.0153 10.7753 16.9562 11.957 15.5381C13.1387 14.1201 12.7842 11.1659 14.2022 9.9842C15.5612 8.80251 18.4563 9.57061 20.0516 8.56618C21.5878 7.56174 22.0605 4.60752 23.7739 3.83942C25.4283 3.07132 27.9689 4.6666 29.7414 4.13484C31.514 3.60308 32.8138 0.944284 34.6454 0.648861C36.418 0.412524 38.4268 2.59865 40.3175 2.59865C42.2082 2.59865 44.2171 0.353439 45.9897 0.648861C47.8213 0.885199 49.1211 3.60308 50.8937 4.13484C52.6662 4.6666 55.2068 3.07132 56.8612 3.83942C58.5156 4.60752 59.0473 7.56174 60.5835 8.56618C62.1197 9.57061 65.0148 8.80251 66.4329 9.9842C67.8509 11.1659 67.4373 14.1792 68.6781 15.5381C69.8598 16.9562 72.8731 17.0153 73.8775 18.5514C74.882 20.0876 73.7003 22.8646 74.4684 24.519C75.2365 26.1733 78.0725 27.0596 78.6043 28.8912C79.136 30.6638 77.1862 32.9681 77.4817 34.7997C77.718 36.6313 80.1995 38.2857 80.1995 40.1173Z" fill="#C7D5DB"/>
<path d="M79.6076 46.8526C79.3122 48.6842 76.5943 49.925 76.0035 51.6384C75.4126 53.4109 76.9488 56.0107 76.1217 57.665C75.2945 59.3194 72.3402 59.733 71.3358 61.2692C70.2723 62.8054 70.9813 65.7005 69.7405 67.0594C68.4998 68.4184 65.5455 68.0048 64.1275 69.1274C62.7095 70.3091 62.5913 73.2633 60.996 74.2677C59.4007 75.2131 56.6829 73.9723 55.0285 74.6813C53.3151 75.3903 52.3697 78.2264 50.5972 78.6991C48.8246 79.1718 46.5794 77.222 44.7478 77.3992C42.9162 77.6356 41.2027 80.058 39.312 79.9989C37.4804 79.9398 35.8851 77.3992 34.0535 77.1038C32.2219 76.8084 29.8585 78.64 28.1451 78.1082C26.3725 77.5174 25.5454 74.6813 23.891 73.8541C22.2366 73.027 19.4597 74.1496 17.9235 73.1451C16.3873 72.0816 16.3873 69.1274 15.0283 67.8866C13.6694 66.6459 10.7152 66.9413 9.53348 65.5232C8.35179 64.1052 9.23806 61.2101 8.2927 59.6739C7.34735 58.0786 4.39313 57.5468 3.68412 55.8334C2.9751 54.1199 4.57038 51.6384 4.09771 49.8659C3.62503 48.0933 0.966233 46.7344 0.729896 44.9028C0.493558 43.0712 2.79785 41.1214 2.85694 39.2898C2.91602 37.4581 0.729896 35.3902 1.02532 33.5586C1.32074 31.727 4.03862 30.4862 4.62947 28.7727C5.22031 27.0002 3.68412 24.4005 4.5113 22.7461C5.33848 21.0917 8.29271 20.6782 9.29714 19.142C10.3607 17.6058 9.65165 14.7106 10.8924 13.3517C12.1332 11.9927 15.0874 12.4063 16.5054 11.2837C17.9235 10.102 18.0416 7.14782 19.6369 6.14339C21.2322 5.19804 23.9501 6.43881 25.6044 5.7298C27.3179 5.02078 28.2632 2.18473 30.0358 1.71205C31.8083 1.23938 34.0535 3.18916 35.8851 3.01191C37.7168 2.77557 39.4302 0.353111 41.3209 0.412196C43.1525 0.47128 44.7478 3.01191 46.5794 3.30733C48.411 3.60276 50.7744 1.77114 52.4879 2.3029C54.2604 2.89374 55.0876 5.7298 56.742 6.55698C58.3963 7.38416 61.1733 6.26156 62.7095 7.26599C64.2457 8.32951 64.2457 11.2837 65.6046 12.5245C66.9636 13.7653 69.9178 13.4699 71.0995 14.8879C72.2812 16.3059 71.3949 19.201 72.3402 20.7372C73.2856 22.3325 76.2398 22.8643 76.9488 24.5777C77.6578 26.2912 76.0626 28.7727 76.5352 30.5453C77.0079 32.3178 79.6667 33.6767 79.9031 35.5084C80.1394 37.34 77.8351 39.2898 77.776 41.1214C77.776 42.953 79.9031 44.9619 79.6076 46.8526Z" fill="#F2C444"/>
<path d="M40.3169 75.9224C60.0915 75.9224 76.1221 59.8918 76.1221 40.1172C76.1221 20.3425 60.0915 4.31201 40.3169 4.31201C20.5422 4.31201 4.51172 20.3425 4.51172 40.1172C4.51172 59.8918 20.5422 75.9224 40.3169 75.9224Z" fill="#C7D5DB"/>
<path d="M23.91 35.7C25.11 35.7 25.755 35.1 25.785 33.795C25.38 33.96 24.735 34.11 24.045 34.11C22.575 34.11 22.02 33.765 20.205 33.765C16.5 33.765 15.09 35.67 15.09 37.665C15.09 38.745 15.66 39.12 16.695 39.12C16.68 38.985 16.485 38.865 16.485 38.1C16.485 35.685 17.715 35.07 19.305 35.07H19.485L17.355 45H19.515L21.585 35.37C22.395 35.55 23.175 35.7 23.91 35.7ZM23.2417 37.5L22.2217 42.315C22.1467 42.675 22.1017 43.005 22.1017 43.29C22.1017 44.55 22.8067 45.09 23.7067 45.09C24.3367 45.09 25.1917 44.895 25.9417 43.665C26.0467 44.55 26.5867 45.09 27.4117 45.09C28.2217 45.09 29.0017 44.625 29.0767 43.545C28.9417 43.59 28.8667 43.635 28.5817 43.635C28.1617 43.635 27.9667 43.5 27.9667 43.08C27.9667 42.945 27.9817 42.795 28.0267 42.6L29.1067 37.5H26.9467L25.9267 42.315C25.7017 43.065 25.3117 43.635 24.7267 43.635C24.3817 43.635 24.2767 43.32 24.2767 42.975C24.2767 42.855 24.2917 42.72 24.3217 42.6L25.4017 37.5H23.2417ZM36.5434 39.66C36.7234 39.78 36.9034 39.84 37.0684 39.84C37.5034 39.84 37.8634 39.48 37.8634 38.745C37.8634 38.055 37.5334 37.365 36.1984 37.365C33.1534 37.365 32.1634 40.965 32.1634 42.705C32.1634 44.4 33.0934 45.09 34.5034 45.09C36.4984 45.09 37.7734 43.695 38.6284 42.315H38.1184C37.3684 43.17 36.6484 43.83 35.4634 43.83C34.7434 43.83 34.3834 43.59 34.3834 42.57C34.3834 40.905 35.3584 38.16 36.3034 38.16C36.5884 38.16 36.7234 38.4 36.7234 38.775C36.7234 39.03 36.6634 39.33 36.5434 39.66ZM42.0152 37.365C38.9252 37.365 37.9052 40.965 37.9052 42.69C37.9052 44.4 38.9102 45.06 40.3052 45.06C42.1502 45.06 43.6502 43.32 43.8902 40.545C44.9852 40.365 45.9752 39.915 46.5452 39.3L46.4102 38.895C45.7652 39.345 44.7902 39.795 44.1002 39.795C44.0552 39.795 43.9952 39.795 43.9352 39.765C43.9352 38.19 43.3052 37.365 42.0152 37.365ZM40.9052 43.71C40.3352 43.71 40.1402 43.485 40.1402 42.495C40.1402 41.025 41.0702 38.28 42.1352 38.28C42.5252 38.28 42.6752 38.52 42.7052 39.15C42.4352 39.27 42.2402 39.54 42.2402 39.96C42.2402 40.26 42.3302 40.515 42.6452 40.59C42.4052 42.36 41.6402 43.71 40.9052 43.71ZM52.732 39.57C52.732 40.53 52.057 42.375 52.057 43.395C52.057 44.25 52.522 45.09 53.827 45.09C54.622 45.09 55.777 44.775 56.617 42.315H55.987C55.657 43.095 55.387 43.635 54.727 43.635C54.277 43.635 54.127 43.38 54.127 43.005C54.127 42.165 54.847 40.35 54.847 39.135C54.847 37.935 54.142 37.44 53.182 37.44C52.627 37.44 51.817 37.605 51.097 38.715C50.932 37.785 50.347 37.425 49.552 37.425C49.027 37.425 48.352 37.56 47.722 38.28L47.887 37.5H45.727L44.137 45H46.297L47.317 40.185C47.542 39.435 47.947 38.79 48.532 38.79C48.862 38.79 48.982 39.12 48.982 39.45C48.982 39.585 48.967 39.705 48.937 39.825L47.842 45H50.002L51.022 40.185C51.247 39.435 51.652 38.805 52.192 38.805C52.552 38.805 52.732 39.075 52.732 39.57ZM55.9863 42.315C55.9113 42.63 55.8813 42.915 55.8813 43.17C55.8813 44.37 56.6013 45.09 57.9813 45.09C61.1613 45.09 62.0913 41.775 62.0913 40.02C62.0913 38.115 61.3713 37.455 60.3213 37.455C60.0213 37.455 59.7063 37.5 59.0913 37.875L59.8113 34.5L57.5913 34.8L55.9863 42.315ZM60.5763 39.96C60.5763 41.535 59.7963 43.635 58.8213 43.635C58.2813 43.635 58.0263 43.38 58.0263 42.945C58.0263 42.84 58.0413 42.72 58.0713 42.6L58.8963 38.79C59.0613 38.595 59.5713 38.52 59.7813 38.52C60.3213 38.52 60.5763 39.225 60.5763 39.96ZM66.5064 37.365C63.4164 37.365 62.4414 40.965 62.4414 42.69C62.4414 44.4 63.4464 45.06 64.8414 45.06C66.7314 45.06 68.2314 43.245 68.4114 40.365C69.2064 39.93 69.6564 39 69.9564 38.355H69.4764C69.3114 38.64 68.9364 39.285 68.4114 39.39C68.3214 38.055 67.6914 37.365 66.5064 37.365ZM65.4414 43.71C64.8714 43.71 64.6764 43.485 64.6764 42.495C64.6764 41.025 65.5614 38.28 66.6264 38.28C67.0014 38.28 67.1664 38.505 67.1964 39.135C66.9414 39.255 66.7764 39.51 66.7764 39.915C66.7764 40.29 66.8964 40.5 67.1364 40.59C66.9114 42.36 66.1764 43.71 65.4414 43.71Z" fill="#182130"/>
<path d="M20.0518 51.4023H61.47" stroke="#3D798A" stroke-width="2" stroke-linecap="round" stroke-linejoin="round"/>
<path d="M20.0518 25.0503H61.47" stroke="#3D798A" stroke-width="2" stroke-linecap="round" stroke-linejoin="round"/>
<path d="M51.5439 13.8242L40.3178 20.1463L29.0918 13.8242V21.387L40.3178 20.8553L51.5439 21.387V13.8242Z" fill="#3D798A"/>
<path d="M19.5191 58.6109C20.1391 58.6109 20.6417 58.1083 20.6417 57.4883C20.6417 56.8683 20.1391 56.3657 19.5191 56.3657C18.8991 56.3657 18.3965 56.8683 18.3965 57.4883C18.3965 58.1083 18.8991 58.6109 19.5191 58.6109Z" fill="#3D798A"/>
<path d="M61.1734 58.6104C61.7934 58.6104 62.296 58.1078 62.296 57.4878C62.296 56.8678 61.7934 56.3652 61.1734 56.3652C60.5534 56.3652 60.0508 56.8678 60.0508 57.4878C60.0508 58.1078 60.5534 58.6104 61.1734 58.6104Z" fill="#3D798A"/>
</svg>