<svg width="83" height="82" viewBox="0 0 83 82" fill="none" xmlns="http://www.w3.org/2000/svg">
<path d="M82.8031 41C82.8031 42.9627 80.227 44.6801 79.9816 46.5202C79.7363 48.4216 81.699 50.8137 81.147 52.6538C80.595 54.4938 77.6509 55.4139 76.8535 57.1926C76.0561 58.91 77.2829 61.7928 76.2402 63.3875C75.1975 64.9822 72.0693 65.0436 70.8426 66.5156C69.6159 67.9877 69.9839 71.0545 68.5119 72.2812C67.0398 73.5079 64.0957 72.7105 62.4396 73.7532C60.8449 74.7959 60.3542 77.8627 58.5755 78.6601C56.8581 79.4574 54.2207 77.8014 52.3806 78.3534C50.5405 78.9054 49.1912 81.6655 47.2897 81.9722C45.4497 82.2175 43.3643 79.9481 41.4015 79.9481C39.4388 79.9481 37.3534 82.2789 35.5133 81.9722C33.6119 81.7269 32.2625 78.9054 30.4225 78.3534C28.5824 77.8014 25.945 79.4574 24.2276 78.6601C22.5102 77.8627 21.9581 74.7959 20.3634 73.7532C18.7687 72.7105 15.7633 73.5079 14.2912 72.2812C12.8191 71.0545 13.2485 67.9263 11.9604 66.5156C10.7337 65.1049 7.60562 64.9822 6.56291 63.3875C5.5202 61.7928 6.74692 58.91 5.94955 57.1926C5.15219 55.4752 2.20808 54.5552 1.65606 52.6538C1.10404 50.8137 3.12812 48.4216 2.82144 46.5202C2.5761 44.6801 0 42.9014 0 41C0 39.0373 2.5761 37.3199 2.82144 35.4798C3.06678 33.5784 1.10404 31.1863 1.65606 29.3462C2.20808 27.5062 5.15219 26.5861 5.94955 24.8074C6.74692 23.09 5.5202 20.2072 6.56291 18.6125C7.60562 17.0178 10.7337 16.9564 11.9604 15.4844C13.1872 14.0123 12.8191 10.9455 14.2912 9.71884C15.7633 8.49213 18.7074 9.28949 20.3634 8.24678C21.9581 7.20408 22.4488 4.1373 24.2276 3.33993C25.945 2.54257 28.5824 4.19863 30.4225 3.64661C32.2625 3.09459 33.6119 0.33449 35.5133 0.0278118C37.3534 -0.217531 39.4388 2.05189 41.4015 2.05189C43.3643 2.05189 45.4497 -0.278866 47.2897 0.0278118C49.1912 0.273154 50.5405 3.09459 52.3806 3.64661C54.2207 4.19863 56.8581 2.54257 58.5755 3.33993C60.2929 4.1373 60.8449 7.20408 62.4396 8.24678C64.0344 9.28949 67.0398 8.49213 68.5119 9.71884C69.9839 10.9455 69.5546 14.0737 70.8426 15.4844C72.0693 16.8951 75.1975 17.0178 76.2402 18.6125C77.2829 20.2072 76.0561 23.09 76.8535 24.8074C77.6509 26.5248 80.595 27.4448 81.147 29.3462C81.699 31.1863 79.675 33.5784 79.9816 35.4798C80.227 37.3199 82.8031 39.0986 82.8031 41Z" fill="#C7D5DB"/>
<path d="M78.755 43.9439C79.4297 43.0239 80.1657 42.0425 80.1657 40.9998C80.1657 39.9571 79.4297 38.9757 78.755 38.0557C78.1416 37.2583 77.651 36.5223 77.5283 35.7863C77.4056 35.0502 77.7736 34.1302 78.0803 33.2102C78.4483 32.1675 78.8777 31.0634 78.571 30.0821C78.2643 29.1007 77.3443 28.3647 76.4242 27.69C75.6269 27.0766 74.8909 26.5246 74.5842 25.8499C74.2775 25.1752 74.3388 24.1938 74.4002 23.2125C74.4615 22.0471 74.5842 20.8817 74.0322 20.023C73.4801 19.1643 72.3761 18.735 71.272 18.3056C70.4134 17.9989 69.4933 17.6309 69.0026 17.0789C68.5119 16.5269 68.2666 15.5455 68.0826 14.6255C67.8373 13.5214 67.5919 12.3561 66.7946 11.6814C65.9972 11.0067 64.8318 10.9453 63.6664 10.8227C62.7464 10.7613 61.765 10.7 61.0903 10.2707C60.477 9.8413 59.9863 8.9826 59.5569 8.18524C59.0049 7.20387 58.4529 6.16116 57.4715 5.67048C56.5515 5.24113 55.3861 5.48647 54.2821 5.73181C53.3621 5.91582 52.3807 6.16116 51.6447 5.91582C50.9086 5.73182 50.2953 5.05712 49.5592 4.38243C48.7619 3.58507 47.9032 2.72637 46.8605 2.6037C45.8178 2.48103 44.8364 3.03305 43.7937 3.58507C42.935 4.01442 42.0763 4.5051 41.3403 4.5051C40.5429 4.5051 39.6842 4.01442 38.8869 3.58507C37.9055 3.03305 36.8628 2.48103 35.8814 2.6037C34.8387 2.72637 33.98 3.58507 33.1826 4.38243C32.5079 5.05712 31.8333 5.73182 31.0972 5.91582C30.3612 6.16116 29.3798 5.91582 28.4598 5.73181C27.3558 5.48647 26.1904 5.24113 25.2703 5.67048C24.289 6.09983 23.737 7.14253 23.1849 8.18524C22.7556 8.9826 22.2649 9.8413 21.6515 10.2707C21.0382 10.7 20.0568 10.7613 19.0754 10.8227C17.9101 10.884 16.7447 11.0067 15.9473 11.6814C15.15 12.3561 14.9046 13.5214 14.6593 14.6255C14.4753 15.5455 14.2299 16.5269 13.7393 17.0789C13.2486 17.6309 12.3285 17.9989 11.4698 18.3056C10.3658 18.735 9.26175 19.103 8.70973 20.023C8.15771 20.8817 8.21905 22.0471 8.34172 23.2125C8.40305 24.1325 8.46439 25.1139 8.15771 25.8499C7.85103 26.5246 7.11501 27.0766 6.31764 27.69C5.39761 28.3647 4.41624 29.1007 4.1709 30.0821C3.86422 31.0634 4.29357 32.1675 4.66158 33.2102C4.96826 34.0689 5.33627 34.9889 5.2136 35.7863C5.09093 36.5223 4.53891 37.2583 3.98689 38.0557C3.3122 38.9757 2.57617 39.9571 2.57617 40.9998C2.57617 42.0425 3.3122 43.0239 3.98689 43.9439C4.60025 44.7413 5.09093 45.4773 5.2136 46.2133C5.33627 46.9493 4.96826 47.8694 4.66158 48.7894C4.29357 49.8321 3.86422 50.9362 4.1709 51.9175C4.47758 52.8989 5.39761 53.6349 6.31764 54.3096C7.11501 54.923 7.85103 55.475 8.15771 56.1497C8.46439 56.8244 8.40305 57.8058 8.34172 58.7871C8.28038 59.9525 8.15771 61.1179 8.70973 61.9766C9.26175 62.8353 10.3658 63.2646 11.4698 63.694C12.3285 64.0006 13.2486 64.3687 13.7393 64.9207C14.2299 65.4727 14.4753 66.4541 14.6593 67.3741C14.9046 68.4781 15.15 69.6435 15.9473 70.3182C16.7447 70.9929 17.9101 71.0542 19.0754 71.1769C19.9955 71.2383 20.9769 71.2996 21.6515 71.7289C22.2649 72.1583 22.7556 73.017 23.1849 73.8143C23.737 74.7957 24.289 75.8384 25.2703 76.3291C26.1904 76.7585 27.3558 76.5131 28.4598 76.2678C29.3798 76.0838 30.3612 75.8384 31.0972 76.0838C31.8333 76.2678 32.4466 76.9425 33.1826 77.6171C33.98 78.4145 34.8387 79.2732 35.8814 79.3959C36.8628 79.5186 37.9055 78.9665 38.8869 78.4145C39.7456 77.9852 40.6043 77.4945 41.3403 77.4945C42.1376 77.4945 42.9963 77.9852 43.7937 78.4145C44.6524 78.9052 45.5724 79.3959 46.4925 79.3959C46.6151 79.3959 46.7378 79.3959 46.7991 79.3959C47.8418 79.2732 48.7005 78.4145 49.4979 77.6171C50.1726 76.9425 50.8473 76.2678 51.5833 76.0838C52.3193 75.8384 53.3007 76.0838 54.2208 76.2678C55.3248 76.5131 56.4902 76.7585 57.4102 76.3291C58.3916 75.8997 58.9436 74.8571 59.4956 73.8143C59.925 73.017 60.4156 72.1583 61.029 71.7289C61.6424 71.2996 62.6237 71.2383 63.6051 71.1769C64.7705 71.1156 65.9359 70.9929 66.7332 70.3182C67.5306 69.6435 67.7759 68.4781 68.0213 67.3741C68.2053 66.4541 68.4506 65.4727 68.9413 64.9207C69.432 64.3687 70.352 64.0006 71.2107 63.694C72.3148 63.2646 73.4188 62.8966 73.9708 61.9766C74.5228 61.1179 74.4615 59.9525 74.3388 58.7871C74.2775 57.8671 74.2162 56.8857 74.5228 56.1497C74.8295 55.475 75.5655 54.923 76.3629 54.3096C77.2829 53.6349 78.2643 52.8989 78.5097 51.9175C78.8163 50.9362 78.387 49.8321 78.019 48.7894C77.7123 47.8694 77.3443 47.0107 77.4669 46.2133C77.651 45.4773 78.203 44.7413 78.755 43.9439ZM77.5283 48.9734C77.8963 50.0161 78.2643 50.9362 78.019 51.7335C77.7736 52.5309 76.9149 53.2056 76.0562 53.8189C75.2589 54.4323 74.4002 55.0456 74.0322 55.9043C73.6641 56.763 73.7255 57.8058 73.7868 58.7871C73.8481 59.8912 73.9095 60.8725 73.4801 61.6086C73.0508 62.2832 72.0694 62.6513 71.0267 63.0806C70.0453 63.4486 69.064 63.8166 68.5119 64.4913C67.8986 65.166 67.7146 66.2087 67.4692 67.1901C67.2239 68.2328 67.0399 69.2755 66.3652 69.8275C65.7518 70.3796 64.7091 70.4409 63.6051 70.5022C62.5624 70.5636 61.5197 70.6249 60.7837 71.1769C60.0476 71.6676 59.4956 72.5876 59.0049 73.5077C58.4529 74.489 57.9622 75.4091 57.2262 75.7157C56.4902 76.0838 55.4475 75.8384 54.4048 75.5931C53.4234 75.3477 52.3807 75.1637 51.4607 75.4091C50.602 75.6544 49.8659 76.3904 49.1299 77.1265C48.3939 77.8625 47.5965 78.6599 46.7991 78.7825C46.0018 78.9052 45.0817 78.4145 44.1617 77.8625C43.2417 77.3718 42.3216 76.8811 41.4016 76.8811C40.4816 76.8811 39.5002 77.3718 38.6415 77.8625C37.7215 78.3532 36.8014 78.8439 36.0041 78.7825C35.1454 78.6599 34.4094 77.8625 33.6733 77.1265C32.9373 76.3904 32.2013 75.6544 31.3426 75.4091C31.0359 75.3477 30.7292 75.2864 30.4225 75.2864C29.7478 75.2864 29.0732 75.4091 28.3985 75.5931C27.3558 75.8384 26.3131 76.0224 25.577 75.7157C24.841 75.3477 24.289 74.4277 23.7983 73.5077C23.3076 72.5876 22.8169 71.6676 22.0196 71.1769C21.2222 70.6862 20.1795 70.6249 19.1981 70.5022C18.0941 70.4409 17.0514 70.3182 16.438 69.8275C15.8247 69.2755 15.5793 68.2941 15.334 67.1901C15.0886 66.2087 14.9046 65.166 14.2913 64.4913C13.6779 63.8166 12.6965 63.4486 11.7765 63.0806C10.7338 62.7126 9.75244 62.3446 9.32309 61.6086C8.89374 60.9339 8.95507 59.8912 9.01641 58.7871C9.07775 57.7444 9.13908 56.7017 8.77107 55.9043C8.40305 55.107 7.54436 54.4323 6.74699 53.8189C5.88829 53.2056 5.0296 52.5309 4.78425 51.7335C4.53891 50.9362 4.90692 49.9548 5.27494 48.9734C5.64295 47.9921 6.01097 47.0107 5.88829 46.0906C5.76562 45.1706 5.15227 44.3733 4.53891 43.5759C3.92555 42.7172 3.25086 41.8585 3.25086 40.9998C3.25086 40.1411 3.92555 39.2824 4.53891 38.4237C5.15227 37.6263 5.76562 36.7676 5.88829 35.9089C6.01097 34.9889 5.64295 34.0075 5.27494 33.0262C4.90692 31.9835 4.53891 31.0634 4.78425 30.2661C5.0296 29.4687 5.88829 28.794 6.74699 28.1807C7.54436 27.5673 8.40305 26.9539 8.77107 26.0952C9.13908 25.2365 9.07775 24.1938 9.01641 23.2125C8.95507 22.1084 8.89374 21.1271 9.32309 20.391C9.75244 19.7163 10.7338 19.3483 11.7765 18.919C12.7579 18.551 13.7393 18.1829 14.2913 17.5083C14.9046 16.8336 15.0886 15.7909 15.334 14.8095C15.5793 13.7668 15.7633 12.7241 16.438 12.1721C17.0514 11.62 18.0941 11.5587 19.1981 11.4974C20.2408 11.436 21.2835 11.3747 22.0196 10.8227C22.8169 10.332 23.3076 9.41195 23.7983 8.49192C24.3503 7.51055 24.841 6.59051 25.577 6.28384C26.3131 5.91582 27.3558 6.16116 28.3985 6.40651C29.3798 6.65185 30.4225 6.83586 31.3426 6.59051C32.2013 6.34517 32.9373 5.60914 33.6733 4.87312C34.4094 4.13709 35.2067 3.33973 36.0041 3.21705C36.8014 3.09438 37.7215 3.58507 38.6415 4.13709C39.5615 4.62777 40.4816 5.11846 41.4016 5.11846C42.3216 5.11846 43.303 4.62777 44.1617 4.13709C45.0817 3.6464 46.0018 3.15572 46.7991 3.21705C47.6578 3.33973 48.3939 4.13709 49.1299 4.87312C49.8659 5.60914 50.602 6.34517 51.4607 6.59051C52.3194 6.83586 53.3621 6.65185 54.4048 6.40651C55.4475 6.16116 56.4902 5.97716 57.2262 6.28384C57.9622 6.65185 58.5142 7.57188 59.0049 8.49192C59.4956 9.41195 59.9863 10.332 60.7837 10.8227C61.581 11.3134 62.6237 11.3747 63.6051 11.4974C64.7091 11.5587 65.7518 11.6814 66.3652 12.1721C66.9786 12.7241 67.2239 13.7054 67.4692 14.8095C67.7146 15.7909 67.8986 16.8336 68.5119 17.5083C69.1253 18.1829 70.1067 18.551 71.0267 18.919C72.0694 19.287 73.0508 19.655 73.4801 20.391C73.9095 21.0657 73.8481 22.1084 73.7868 23.2125C73.7255 24.2552 73.6641 25.2979 74.0322 26.0952C74.4002 26.8926 75.2589 27.5673 76.0562 28.1807C76.9149 28.794 77.7736 29.4687 78.019 30.2661C78.2643 31.0634 77.8963 32.0448 77.5283 33.0262C77.1603 34.0075 76.7923 34.9889 76.9149 35.9089C77.0376 36.829 77.651 37.6263 78.2643 38.4237C78.8777 39.2824 79.5524 40.1411 79.5524 40.9998C79.5524 41.8585 78.8777 42.7172 78.2643 43.5759C77.651 44.3733 77.0376 45.2319 76.9149 46.0906C76.7923 47.072 77.1603 48.0534 77.5283 48.9734Z" fill="#3D798A"/>
<path d="M43.1268 36L44.5968 25.696H42.5808L39.5008 33.074L39.8228 25.696C39.4868 25.57 39.1228 25.5 38.7588 25.5C36.6308 25.5 34.3068 27.432 34.3068 29.224C34.3068 30.148 34.8948 30.498 35.8048 30.498C35.7908 30.372 35.6088 30.274 35.6088 29.532C35.6088 27.936 36.4488 26.844 37.8348 26.382L34.2788 36H35.3988L37.7368 29.686L37.4568 36H39.3748L42.0068 29.714L41.1108 36H43.1268ZM45.3124 29L43.8284 36H45.8444L46.9644 30.68C47.3144 30.358 47.5664 30.148 47.9864 30.148C48.4064 30.148 48.0144 31.072 48.7984 31.072C49.4844 31.072 49.8064 30.54 49.8064 30.05C49.8064 29.518 49.4704 29 48.8404 29C48.1684 29 47.6364 29.448 47.1464 29.868L47.3284 29H45.3124ZM21.7623 45.138C21.7623 45.754 22.2523 46.244 22.8683 46.244C23.4843 46.244 23.9883 45.754 23.9883 45.138C23.9883 44.522 23.4843 44.018 22.8683 44.018C22.2523 44.018 21.7623 44.522 21.7623 45.138ZM21.4823 47L20.5303 51.494C20.4603 51.83 20.4183 52.138 20.4183 52.404C20.4183 53.58 21.0763 54.084 21.9163 54.084C22.6723 54.084 24.0583 53.776 24.8563 51.494H24.2683C24.0583 52.194 23.5543 52.726 23.0083 52.726C22.6163 52.726 22.4343 52.6 22.4343 52.208C22.4343 52.082 22.4483 51.942 22.4903 51.76L23.4983 47H21.4823ZM28.2947 48.932C28.2947 49.828 27.6647 51.55 27.6647 52.502C27.6647 53.3 28.0987 54.084 29.3167 54.084C30.0587 54.084 31.1367 53.79 31.9207 51.494H31.3327C31.0247 52.222 30.7727 52.726 30.1567 52.726C29.7367 52.726 29.5967 52.488 29.5967 52.138C29.5967 51.354 30.2687 49.66 30.2687 48.526C30.2687 47.406 29.6107 46.944 28.7147 46.944C28.2807 46.944 27.6647 47.056 27.0767 47.728L27.2307 47H25.2147L23.7307 54H25.7467L26.6987 49.506C26.9087 48.806 27.2867 48.218 27.7907 48.218C28.1267 48.218 28.2947 48.47 28.2947 48.932ZM32.7031 45.068L32.2831 47H31.8211L31.7091 47.56H32.1711L31.3311 51.494C31.2611 51.83 31.2191 52.138 31.2191 52.404C31.2191 53.58 31.8771 54.084 32.7171 54.084C33.4731 54.084 34.8591 53.776 35.6571 51.494H35.0691C34.8591 52.194 34.3551 52.726 33.8091 52.726C33.4171 52.726 33.2351 52.6 33.2351 52.208C33.2351 52.082 33.2491 51.942 33.2911 51.76L34.1871 47.56H35.0271L35.1391 47H34.2991L34.7751 44.788L32.7031 45.068ZM36.9535 51.732C36.9535 51.564 36.9675 51.368 36.9815 51.172C38.6615 51.074 40.2015 49.828 40.2015 48.218C40.2015 47.518 39.9075 46.874 38.6615 46.874C35.7915 46.874 34.8815 50.248 34.8815 51.858C34.8815 53.44 35.7495 54.084 37.0655 54.084C38.9275 54.084 40.1175 52.782 40.9155 51.494H40.4395C39.7395 52.292 39.0675 52.908 37.9615 52.908C37.2895 52.908 36.9535 52.684 36.9535 51.732ZM39.1235 48.19C39.1235 49.352 38.1715 50.43 37.0935 50.5C37.3735 49.114 38.0595 47.616 38.7735 47.616C39.0395 47.616 39.1235 47.84 39.1235 48.19ZM41.9345 44.48L40.4365 51.494C40.3665 51.83 40.3245 52.138 40.3245 52.404C40.3245 53.58 40.9825 54.084 41.8225 54.084C42.5785 54.084 43.9645 53.776 44.7625 51.494H44.1745C43.9645 52.194 43.4605 52.726 42.9145 52.726C42.5225 52.726 42.3405 52.6 42.3405 52.208C42.3405 52.082 42.3545 51.942 42.3965 51.76L44.0065 44.2L41.9345 44.48ZM46.0589 51.732C46.0589 51.564 46.0729 51.368 46.0869 51.172C47.7669 51.074 49.3069 49.828 49.3069 48.218C49.3069 47.518 49.0129 46.874 47.7669 46.874C44.8969 46.874 43.9869 50.248 43.9869 51.858C43.9869 53.44 44.8549 54.084 46.1709 54.084C48.0329 54.084 49.2229 52.782 50.0209 51.494H49.5449C48.8449 52.292 48.1729 52.908 47.0669 52.908C46.3949 52.908 46.0589 52.684 46.0589 51.732ZM48.2289 48.19C48.2289 49.352 47.2769 50.43 46.1989 50.5C46.4789 49.114 47.1649 47.616 47.8789 47.616C48.1449 47.616 48.2289 47.84 48.2289 48.19ZM53.448 49.016C53.616 49.128 53.784 49.184 53.938 49.184C54.344 49.184 54.68 48.848 54.68 48.162C54.68 47.518 54.372 46.874 53.126 46.874C50.284 46.874 49.36 50.234 49.36 51.858C49.36 53.44 50.228 54.084 51.544 54.084C53.406 54.084 54.596 52.782 55.394 51.494H54.918C54.218 52.292 53.546 52.908 52.44 52.908C51.768 52.908 51.432 52.684 51.432 51.732C51.432 50.178 52.342 47.616 53.224 47.616C53.49 47.616 53.616 47.84 53.616 48.19C53.616 48.428 53.56 48.708 53.448 49.016ZM56.287 45.068L55.867 47H55.405L55.293 47.56H55.755L54.915 51.494C54.845 51.83 54.803 52.138 54.803 52.404C54.803 53.58 55.461 54.084 56.301 54.084C57.057 54.084 58.443 53.776 59.241 51.494H58.653C58.443 52.194 57.939 52.726 57.393 52.726C57.001 52.726 56.819 52.6 56.819 52.208C56.819 52.082 56.833 51.942 56.875 51.76L57.771 47.56H58.611L58.723 47H57.883L58.359 44.788L56.287 45.068ZM62.2455 46.874C59.3615 46.874 58.4515 50.234 58.4515 51.844C58.4515 53.44 59.3895 54.056 60.6915 54.056C62.4555 54.056 63.8555 52.362 64.0235 49.674C64.7655 49.268 65.1855 48.4 65.4655 47.798H65.0175C64.8635 48.064 64.5135 48.666 64.0235 48.764C63.9395 47.518 63.3515 46.874 62.2455 46.874ZM61.2515 52.796C60.7195 52.796 60.5375 52.586 60.5375 51.662C60.5375 50.29 61.3635 47.728 62.3575 47.728C62.7075 47.728 62.8615 47.938 62.8895 48.526C62.6515 48.638 62.4975 48.876 62.4975 49.254C62.4975 49.604 62.6095 49.8 62.8335 49.884C62.6235 51.536 61.9375 52.796 61.2515 52.796Z" fill="#182130"/>
<path d="M53.4234 69.7663C52.4421 69.3982 51.338 69.1529 50.1726 69.4596C51.338 69.1529 52.3194 68.5396 52.8101 67.5582C53.3621 66.6381 53.4234 65.5954 53.1167 64.5527C52.6261 64.7367 52.1967 64.9821 51.8287 65.3501C51.4607 65.7181 51.0927 66.0248 50.8473 66.4541C50.2953 67.3128 49.9886 68.3555 50.1726 69.4596C50.3566 70.5023 50.97 71.361 52.0127 71.8517C52.5034 72.097 53.0554 72.281 53.6688 72.281C54.2821 72.281 54.8955 72.1583 55.5702 71.913C55.2022 70.9316 54.3435 70.1956 53.4234 69.7663Z" fill="#F2C444"/>
<path d="M56.7349 68.4168C55.6922 68.1102 54.5882 68.2328 53.4228 68.5395C54.5882 68.1715 55.3855 67.2515 55.8149 66.3314C56.0602 65.8407 56.1216 65.3501 56.1216 64.798C56.1216 64.3074 55.9989 63.7553 55.7536 63.2646C55.5082 63.3873 55.3242 63.5713 55.1402 63.694C54.9562 63.8167 54.7722 64.0007 54.5882 64.1847C54.2202 64.5527 53.9748 64.982 53.7295 65.4727C53.3001 66.3928 53.1161 67.4355 53.4228 68.4782C53.7295 69.5209 54.4655 70.2569 55.5082 70.6249C55.9989 70.7476 56.6122 70.8089 57.2256 70.7476C57.5323 70.6863 57.839 70.6249 58.1456 70.5636C58.4523 70.4409 58.759 70.3182 59.0657 70.1342C58.6363 69.2755 57.7776 68.7235 56.7349 68.4168Z" fill="#F2C444"/>
<path d="M59.9244 66.577C58.8817 66.5156 57.7164 66.6383 56.6737 67.2517C57.7164 66.6383 58.5137 65.7183 58.7591 64.6756C59.0657 63.6329 58.8817 62.5901 58.3297 61.7314C57.471 62.3448 56.919 63.2648 56.551 64.1849C56.2443 65.1662 56.2443 66.2703 56.6123 67.2517C57.0417 68.233 57.839 68.8464 58.9431 69.0304C59.4951 69.0917 60.1085 69.1531 60.6605 68.969C61.2738 68.785 61.8259 68.5397 62.4392 68.1103C61.8872 67.1903 60.9672 66.6996 59.9244 66.577Z" fill="#F2C444"/>
<path d="M59.6788 65.3497C60.7215 64.675 61.2736 63.571 61.4576 62.5283C61.6416 61.4856 61.3349 60.3815 60.6602 59.6455C59.9242 60.4429 59.4335 61.3016 59.2495 62.4056C59.0655 63.387 59.1268 64.4297 59.6788 65.3497C60.2309 66.2698 61.1509 66.8218 62.1936 66.8218C63.2363 66.8218 64.5244 66.3924 65.5057 65.3497C64.831 64.5524 63.8497 64.2457 62.807 64.2457C61.7643 64.307 60.7215 64.7364 59.6788 65.3497Z" fill="#F2C444"/>
<path d="M63.8491 60.075C63.8491 58.971 63.481 58.051 62.745 57.3149C62.009 58.1123 61.7636 59.2163 61.641 60.1977C61.5796 61.2404 61.825 62.2831 62.4383 63.1418C62.8677 62.7125 63.2357 62.2218 63.481 61.6698C63.7877 61.1791 63.8491 60.6271 63.8491 60.075Z" fill="#F2C444"/>
<path d="M65.4451 61.6087C64.4637 61.7927 63.3597 62.2834 62.501 63.1421C63.1757 63.9394 64.0957 64.3688 65.1997 64.2461C66.3038 64.1848 67.4078 63.4488 68.3279 62.3447C67.4692 61.67 66.4265 61.486 65.4451 61.6087Z" fill="#F2C444"/>
<path d="M65.752 58.9709C65.936 58.4189 65.9974 57.8669 65.936 57.3149C65.8134 56.2108 65.2613 55.2908 64.464 54.7388C63.912 55.7201 63.6666 56.7015 63.728 57.7442C63.7893 58.2962 63.8506 58.7869 64.0346 59.2776C64.2186 59.7683 64.464 60.1976 64.832 60.5657C65.016 60.3203 65.2 60.075 65.384 59.8296C65.568 59.5229 65.6907 59.2163 65.752 58.9709Z" fill="#F2C444"/>
<path d="M67.7132 58.6646C67.2225 58.7872 66.6705 59.0326 66.2412 59.3393C65.9958 59.5233 65.8118 59.7073 65.5665 59.8913C65.3211 60.0753 65.1371 60.3206 64.9531 60.5046C65.3211 60.8727 65.7505 61.118 66.2412 61.2407C66.7319 61.3633 67.2839 61.3633 67.7746 61.2407C68.8173 60.934 69.9213 60.198 70.596 58.9099C69.7373 58.3579 68.6946 58.2966 67.7132 58.6646Z" fill="#F2C444"/>
<path d="M69.5538 55.352C69.0631 55.5973 68.6338 55.904 68.2044 56.272C67.7751 56.64 67.3457 57.1307 67.0391 57.6214C67.3457 57.0694 67.5911 56.5174 67.7138 55.9653C67.8364 55.4133 67.7751 54.8 67.6524 54.3093C67.4071 53.2666 66.7937 52.4079 65.8737 51.9785C65.6283 52.4692 65.5057 52.9599 65.4443 53.5119C65.4443 53.7572 65.4443 54.0639 65.4443 54.3093C65.4443 54.5546 65.4443 54.8 65.5057 55.0453C65.6897 56.0267 66.1804 57.008 66.9777 57.6214C67.7751 58.2348 68.8178 58.3574 69.8605 57.9281C70.1058 57.8054 70.3512 57.6827 70.5965 57.5601C70.8419 57.3761 71.0259 57.192 71.2712 56.9467C71.7006 56.456 72.1299 55.904 72.3753 55.2293C71.5779 54.8 70.5352 54.8613 69.5538 55.352Z" fill="#F2C444"/>
<path d="M71.0259 51.7944C70.5966 52.1011 70.1059 52.4691 69.7379 52.8984C69.3699 53.3278 69.0632 53.8798 68.7565 54.4318C69.0632 53.8798 69.1858 53.2665 69.1858 52.6531C69.1858 52.0397 69.1245 51.4877 69.0018 50.997C68.6338 49.9543 67.8978 49.2183 66.9164 48.9116C66.7324 49.4636 66.7324 50.0157 66.7324 50.5064C66.7324 50.997 66.7938 51.5491 66.9778 52.0397C67.0391 52.2851 67.1618 52.5304 67.2844 52.7758C67.4071 53.0211 67.5298 53.2051 67.6525 53.3891C67.9591 53.8185 68.3271 54.1251 68.7565 54.3705C69.1858 54.6158 69.6765 54.7385 70.1672 54.7385C70.4126 54.7385 70.6579 54.6772 70.9032 54.6158C71.1486 54.5545 71.3939 54.4318 71.6393 54.3092C72.13 54.0025 72.5593 53.6345 72.9273 53.0824C73.3567 52.5918 73.602 51.9171 73.786 51.2424C72.9273 50.9357 71.8846 51.181 71.0259 51.7944Z" fill="#F2C444"/>
<path d="M72.008 48.0536C71.5786 48.4216 71.272 48.851 70.9039 49.3416C70.5973 49.8323 70.2906 50.3844 70.1066 50.9977C70.2906 50.3844 70.3519 49.771 70.3519 49.1576C70.2906 48.5443 70.1679 47.9923 69.9226 47.5629C69.4319 46.6429 68.6345 45.9682 67.6531 45.7842C67.5918 46.3362 67.5305 46.8882 67.5918 47.3789C67.6531 47.6242 67.7145 47.8696 67.7758 48.1763C67.8372 48.4216 67.8985 48.667 68.0212 48.9123C68.4505 49.8323 69.1252 50.6297 70.1066 50.9977C71.0266 51.3657 72.0693 51.1817 72.928 50.507C73.1734 50.323 73.3574 50.139 73.5414 49.8937C73.7254 49.6483 73.9094 49.403 74.0321 49.0963C74.3387 48.5443 74.5841 47.8696 74.7067 47.1336C73.848 46.9496 72.8667 47.3789 72.008 48.0536Z" fill="#F2C444"/>
<path d="M71.0871 45.5999C70.9644 45.0479 70.7804 44.4958 70.4737 44.0665C69.8604 43.2078 69.0017 42.6558 67.959 42.6558C67.959 43.7598 68.2043 44.8025 68.7563 45.6612C69.063 46.0906 69.3697 46.4586 69.7377 46.7652C70.1057 47.0719 70.5351 47.3173 71.0258 47.4399C71.5164 47.5626 72.0071 47.5013 72.4978 47.3786C72.9885 47.2559 73.4179 46.9493 73.7859 46.5199C74.5219 45.7225 75.1353 44.4345 75.1966 42.9624C74.2152 42.9011 73.2952 43.4531 72.5592 44.2505C72.1911 44.6798 71.8845 45.1092 71.5778 45.6612C71.3324 46.2132 71.1484 46.7652 71.0258 47.3786C71.2711 46.7652 71.2098 46.1519 71.0871 45.5999Z" fill="#F2C444"/>
<path d="M72.682 40.3865C72.3753 40.8159 72.13 41.3679 71.946 41.9199C71.762 42.4719 71.6393 43.0853 71.578 43.76C71.578 43.1466 71.5166 42.4719 71.394 41.9199C71.2713 41.3679 70.9033 40.8772 70.5966 40.5092C69.9219 39.7118 69.0019 39.3438 68.0205 39.4665C68.0205 40.0185 68.1432 40.5705 68.3885 40.9999C68.5112 41.2452 68.6339 41.4906 68.7565 41.6746C68.8792 41.9199 69.0019 42.1039 69.1859 42.2879C69.7992 43.0853 70.6579 43.6373 71.7006 43.6987C72.682 43.76 73.602 43.3306 74.2767 42.4106C74.4607 42.1653 74.5834 41.9199 74.7674 41.6746C74.8901 41.4292 75.0128 41.1226 75.0741 40.8159C75.2581 40.2025 75.3194 39.4665 75.2581 38.7305C74.1541 38.7918 73.2954 39.4665 72.682 40.3865Z" fill="#F2C444"/>
<path d="M72.3152 36.5222C72.0699 37.0129 71.8246 37.5649 71.7632 38.1783C71.7019 38.4849 71.7019 38.7916 71.6405 39.0983C71.5792 39.405 71.5792 39.7116 71.5792 40.0183C71.5792 39.7116 71.5179 39.405 71.4565 39.0983C71.3952 38.7916 71.2725 38.5463 71.1499 38.2396C70.9045 37.6876 70.5978 37.2582 70.2298 36.9515C69.4938 36.2769 68.4511 36.0315 67.4697 36.2769C67.5311 36.5222 67.5924 36.8289 67.7151 37.0742C67.8377 37.3196 67.8991 37.5649 68.0217 37.8102C68.2671 38.2396 68.5738 38.6689 68.9418 39.037C69.6778 39.7116 70.5365 40.2023 71.5792 40.141C72.5606 40.0797 73.4806 39.4663 74.0326 38.4849C74.278 37.9942 74.5233 37.3809 74.5847 36.7675C74.646 36.4609 74.646 36.0928 74.646 35.7248C74.646 35.3568 74.5847 35.0501 74.5233 34.6821C73.5419 34.7435 72.8059 35.5408 72.3152 36.5222Z" fill="#F2C444"/>
<path d="M71.4561 32.781C71.1494 33.8237 70.904 35.0504 71.2107 36.3384C70.904 35.1117 70.352 34.0077 69.432 33.4556C68.5733 32.9036 67.5919 32.7809 66.6719 33.149C66.9786 34.1917 67.7146 34.989 68.4506 35.6024C69.248 36.1544 70.2293 36.4611 71.2107 36.2771C72.1921 36.0931 72.9894 35.357 73.4188 34.3143C73.9095 33.2103 73.9095 31.8609 73.4801 30.4502C72.4988 30.8182 71.8241 31.7382 71.4561 32.781Z" fill="#F2C444"/>
<path d="M68.2658 30.082C67.3457 29.6527 66.303 29.714 65.4443 30.2047C65.567 30.4501 65.6897 30.6954 65.8737 30.8794C65.9964 31.0634 66.1804 31.3088 66.3644 31.4928C66.7324 31.8608 67.1004 32.1675 67.5297 32.4128C68.3884 32.8421 69.3698 33.0261 70.2898 32.7195C69.9832 31.4314 69.1245 30.5727 68.2658 30.082Z" fill="#F2C444"/>
<path d="M70.3517 32.7192C71.2717 32.4125 72.0078 31.5538 72.3145 30.4498C72.4371 29.8978 72.4985 29.2844 72.4371 28.6097C72.3758 28.303 72.3758 27.935 72.2531 27.6283C72.1304 27.3217 72.0078 26.9537 71.8851 26.647C70.9651 27.1377 70.4744 28.119 70.229 29.2231C69.861 30.2658 69.9837 31.4311 70.3517 32.7192Z" fill="#F2C444"/>
<path d="M66.6712 26.9538C65.6899 26.6471 64.7085 26.8311 63.9111 27.4445C64.4632 28.3645 65.3219 28.9779 66.2419 29.3459C67.1619 29.6526 68.2046 29.7139 69.0633 29.2232C68.5113 28.1192 67.6526 27.2605 66.6712 26.9538Z" fill="#F2C444"/>
<path d="M69.0633 29.223C69.9833 28.7323 70.5353 27.8736 70.7193 26.7083C70.9033 25.5429 70.5966 24.1935 69.7993 22.9668C69.0019 23.5802 68.5726 24.6229 68.4499 25.7269C68.3886 26.8309 68.5112 28.119 69.0633 29.223Z" fill="#F2C444"/>
<path d="M66.1192 24.6842C65.6286 24.3775 65.1992 24.1322 64.7085 24.0708C63.7272 23.8868 62.7458 24.2548 62.0098 24.9909C62.7458 25.7882 63.5432 26.3402 64.5245 26.5242C65.4446 26.7082 66.4259 26.6469 67.2846 26.0336C67.1006 25.7882 66.9166 25.5429 66.7326 25.2975C66.6099 25.0522 66.3646 24.8682 66.1192 24.6842Z" fill="#F2C444"/>
<path d="M66.9171 25.1752C67.0397 25.4819 67.1624 25.7272 67.3464 26.0339C68.1438 25.4819 68.6958 24.4392 68.6958 23.2738C68.6958 22.1697 68.2665 20.759 67.3464 19.7163C66.6104 20.4523 66.3037 21.495 66.3651 22.6604C66.3651 23.2124 66.4264 23.8258 66.6104 24.3778C66.6717 24.6232 66.7944 24.8685 66.9171 25.1752Z" fill="#F2C444"/>
<path d="M65.26 23.0282C64.4627 22.1082 63.42 21.4948 62.4386 21.4948C61.4572 21.4948 60.5372 21.9242 59.9238 22.7215C60.6599 23.4576 61.6412 23.7642 62.6226 23.8869C63.4813 24.0096 64.524 23.7029 65.26 23.0282C65.9961 22.3535 66.3641 21.3108 66.2414 20.1454C66.1801 18.9801 65.5054 17.7533 64.4627 16.772C63.8493 17.6307 63.6653 18.7347 63.788 19.8388C64.0333 20.8815 64.4627 22.0468 65.26 23.0282Z" fill="#F2C444"/>
<path d="M61.7027 18.9799C61.8253 19.2252 62.0094 19.4705 62.1934 19.7159C62.3774 19.9612 62.5614 20.2066 62.8067 20.3906C62.5614 20.1452 62.3774 19.9612 62.132 19.8386C61.8867 19.7159 61.6413 19.5932 61.3347 19.4706C60.844 19.2865 60.292 19.2252 59.8013 19.2865C58.8199 19.4092 57.9612 20.0226 57.4092 20.8813C58.3292 21.4333 59.2492 21.74 60.2306 21.6173C61.212 21.556 62.132 21.1879 62.8067 20.3906C63.4814 19.5932 63.7267 18.4892 63.4814 17.3851C63.2361 16.2811 62.5 15.0544 61.3347 14.3184C60.7826 15.2384 60.7826 16.3424 61.0893 17.3851C61.212 17.9372 61.396 18.4892 61.7027 18.9799Z" fill="#F2C444"/>
<path d="M58.8208 16.8331C59.1888 17.3238 59.6182 17.7531 60.1088 18.0598C59.6182 17.6918 59.0661 17.5078 58.5141 17.3238C58.0234 17.2011 57.4714 17.2624 56.9807 17.3851C55.9994 17.6304 55.2633 18.3051 54.834 19.2865C55.2633 19.5318 55.754 19.7159 56.2447 19.7159C56.49 19.7159 56.7354 19.7159 56.9807 19.7159C57.2261 19.7159 57.4714 19.7159 57.7168 19.6545C58.6368 19.4705 59.5568 18.9185 60.1088 18.0598C60.6609 17.2011 60.7835 16.0971 60.3542 14.993C60.2315 14.7477 60.1088 14.441 59.9862 14.1956C59.8022 13.9503 59.6182 13.705 59.4342 13.4596C59.0048 12.9689 58.4528 12.6009 57.8394 12.2329C57.4101 13.2143 57.5328 14.3797 57.9621 15.361C58.2074 15.913 58.5141 16.3424 58.8208 16.8331Z" fill="#F2C444"/>
<path d="M55.7534 15.1774C55.9374 15.3614 56.1827 15.5454 56.4281 15.7294C56.6734 15.9134 56.9188 16.0974 57.1641 16.2201C56.9188 16.0974 56.6121 15.9748 56.3667 15.8521C56.0601 15.7907 55.8147 15.7294 55.508 15.7294C54.956 15.7294 54.4653 15.7908 53.9746 15.9748C53.0546 16.4041 52.3799 17.2015 52.0732 18.1828C53.0546 18.4895 54.036 18.4895 54.956 18.1215C55.4467 17.9375 55.8147 17.6922 56.2441 17.3855C56.6121 17.0788 56.9188 16.6494 57.1641 16.2201C57.4094 15.7294 57.4708 15.2387 57.4708 14.6867C57.4708 14.1347 57.3481 13.5827 57.0414 13.092C56.4894 12.1106 55.508 11.1292 54.22 10.7612C53.9133 11.8039 54.1586 12.908 54.7107 13.828C54.956 14.3187 55.324 14.748 55.7534 15.1774Z" fill="#F2C444"/>
<path d="M51.3987 17.2627C51.644 17.2014 51.8281 17.0787 52.0734 17.0174C52.9321 16.588 53.6681 15.7907 53.9748 14.8093C54.2815 13.7666 54.0975 12.7239 53.4841 11.7425C53.3001 11.4972 53.1161 11.2518 52.9321 11.0678C52.7481 10.8838 52.5027 10.6998 52.1961 10.5158C51.644 10.2091 51.0307 9.96379 50.4173 9.77979C50.2333 10.8225 50.6013 11.9265 51.276 12.7852C51.5827 13.2146 52.0121 13.5826 52.4414 13.9506C52.8708 14.3186 53.4228 14.564 53.9748 14.8093C53.4228 14.6253 52.8094 14.564 52.3187 14.564C51.7667 14.564 51.276 14.8093 50.8467 15.0546C49.988 15.5453 49.3746 16.404 49.252 17.5081C49.7426 17.6307 50.2333 17.6307 50.724 17.5694C50.908 17.3854 51.1534 17.3241 51.3987 17.2627Z" fill="#F2C444"/>
<path d="M44.5293 12.9689C46.2467 15.361 49.3748 15.7903 51.5829 13.9503C49.8655 11.5582 46.7374 11.1288 44.5293 12.9689Z" fill="#F2C444"/>
<path d="M29.4417 69.7663C30.423 69.3982 31.5271 69.1529 32.6925 69.4596C31.5271 69.1529 30.5457 68.5396 30.055 67.5582C29.503 66.6381 29.4417 65.5954 29.7483 64.5527C30.239 64.7367 30.6684 64.9821 31.0364 65.3501C31.4044 65.7181 31.7724 66.0248 32.0178 66.4541C32.5698 67.3128 32.8765 68.3555 32.6925 69.4596C32.5084 70.5023 31.8951 71.361 30.8524 71.8517C30.3617 72.097 29.8097 72.281 29.1963 72.281C28.583 72.281 27.9696 72.1583 27.2949 71.913C27.6629 70.9316 28.4603 70.1956 29.4417 69.7663Z" fill="#F2C444"/>
<path d="M26.0681 68.4168C27.1108 68.1102 28.2148 68.2328 29.3802 68.5395C28.2148 68.1715 27.4174 67.2515 26.9881 66.3314C26.7428 65.8407 26.6814 65.3501 26.6814 64.798C26.6814 64.3074 26.8041 63.7553 27.0494 63.2646C27.2948 63.3873 27.4788 63.5713 27.6628 63.694C27.8468 63.8167 28.0308 64.0007 28.2148 64.1847C28.5828 64.5527 28.8282 64.982 29.0735 65.4727C29.5029 66.3928 29.6869 67.4355 29.3802 68.4782C29.0735 69.5209 28.3375 70.2569 27.2948 70.6249C26.8041 70.7476 26.1907 70.8089 25.5774 70.7476C25.2707 70.6863 24.964 70.6249 24.6573 70.5636C24.3507 70.4409 24.044 70.3182 23.7373 70.1342C24.1667 69.2755 25.0254 68.7235 26.0681 68.4168Z" fill="#F2C444"/>
<path d="M22.878 66.577C23.9207 66.5156 25.0861 66.6383 26.1288 67.2517C25.0861 66.6383 24.2888 65.7183 24.0434 64.6756C23.7367 63.6329 23.9207 62.5901 24.4728 61.7314C25.3315 62.3448 25.8835 63.2648 26.2515 64.1849C26.5582 65.1662 26.5582 66.2703 26.1902 67.2517C25.7608 68.233 24.9635 68.8464 23.8594 69.0304C23.3074 69.0917 22.694 69.1531 22.142 68.969C21.5287 68.785 20.9766 68.5397 20.3633 68.1103C20.9153 67.1903 21.8967 66.6996 22.878 66.577Z" fill="#F2C444"/>
<path d="M23.1238 65.3497C22.0811 64.675 21.529 63.571 21.345 62.5283C21.161 61.4856 21.4677 60.3815 22.1424 59.6455C22.8784 60.4429 23.3691 61.3016 23.5531 62.4056C23.7371 63.387 23.6758 64.4297 23.1238 65.3497C22.5717 66.2698 21.6517 66.8218 20.609 66.8218C19.5663 66.8218 18.2782 66.3924 17.2969 65.3497C17.9716 64.5524 18.9529 64.2457 19.9956 64.2457C21.0383 64.307 22.0811 64.7364 23.1238 65.3497Z" fill="#F2C444"/>
<path d="M18.9531 60.075C18.9531 58.971 19.3211 58.051 20.0572 57.3149C20.7932 58.1123 21.0385 59.2163 21.1612 60.1977C21.2225 61.2404 20.9772 62.2831 20.3638 63.1418C19.9345 62.7125 19.5665 62.2218 19.3211 61.6698C19.0758 61.1791 18.9531 60.6271 18.9531 60.075Z" fill="#F2C444"/>
<path d="M17.4189 61.6087C18.4003 61.7927 19.5043 62.2834 20.363 63.1421C19.6883 63.9394 18.7683 64.3688 17.6643 64.2461C16.5602 64.1848 15.4562 63.4488 14.5361 62.3447C15.3335 61.67 16.3762 61.486 17.4189 61.6087Z" fill="#F2C444"/>
<path d="M17.0517 58.9709C16.8677 58.4189 16.8064 57.8669 16.8677 57.3149C16.9904 56.2108 17.5424 55.2908 18.3398 54.7388C18.8918 55.7201 19.1371 56.7015 19.0758 57.7442C19.0145 58.2962 18.9531 58.7869 18.7691 59.2776C18.5851 59.7683 18.3398 60.1976 17.9718 60.5657C17.7878 60.3203 17.6038 60.075 17.4197 59.8296C17.2357 59.5229 17.1131 59.2163 17.0517 58.9709Z" fill="#F2C444"/>
<path d="M15.1504 58.6646C15.641 58.7872 16.1931 59.0326 16.6224 59.3393C16.8677 59.5233 17.0518 59.7073 17.2971 59.8913C17.5424 60.0753 17.7264 60.3206 17.9105 60.5046C17.5424 60.8727 17.1131 61.118 16.6224 61.2407C16.1317 61.3633 15.5797 61.3633 15.089 61.2407C14.0463 60.934 12.9423 60.198 12.2676 58.9099C13.1263 58.3579 14.169 58.2966 15.1504 58.6646Z" fill="#F2C444"/>
<path d="M13.2492 55.352C13.7399 55.5973 14.1692 55.904 14.5986 56.272C15.0279 56.64 15.4573 57.1307 15.7639 57.6214C15.4573 57.0694 15.2119 56.5174 15.0892 55.9653C14.9666 55.4133 15.0279 54.8 15.1506 54.3093C15.3959 53.2666 16.0093 52.4079 16.9293 51.9785C17.1747 52.4692 17.2973 52.9599 17.3587 53.5119C17.3587 53.7572 17.3587 54.0639 17.3587 54.3093C17.3587 54.5546 17.3587 54.8 17.2973 55.0453C17.1133 56.0267 16.6226 57.008 15.8253 57.6214C15.0279 58.2348 13.9852 58.3574 12.9425 57.9281C12.6972 57.8054 12.4518 57.6827 12.2065 57.5601C11.9611 57.3761 11.7771 57.192 11.5318 56.9467C11.1024 56.456 10.6731 55.904 10.4277 55.2293C11.2251 54.8 12.3291 54.8613 13.2492 55.352Z" fill="#F2C444"/>
<path d="M11.7767 51.7944C12.2061 52.1011 12.6967 52.4691 13.0648 52.8984C13.4328 53.3278 13.7394 53.8798 14.0461 54.4318C13.7394 53.8798 13.6168 53.2665 13.6168 52.6531C13.6168 52.0397 13.6781 51.4877 13.8008 50.997C14.1688 49.9543 14.9048 49.2183 15.8862 48.9116C16.0702 49.4636 16.0702 50.0157 16.0702 50.5064C16.0702 50.997 16.0089 51.5491 15.8249 52.0397C15.7635 52.2851 15.6408 52.5304 15.5182 52.7758C15.3955 53.0211 15.2728 53.2051 15.1502 53.3891C14.8435 53.8185 14.4755 54.1251 14.0461 54.3705C13.6168 54.6158 13.1261 54.7385 12.6354 54.7385C12.3901 54.7385 12.1447 54.6772 11.8994 54.6158C11.654 54.5545 11.4087 54.4318 11.1633 54.3092C10.6727 54.0025 10.2433 53.6345 9.8753 53.0824C9.44595 52.5918 9.20061 51.9171 9.0166 51.2424C9.8753 50.9357 10.918 51.181 11.7767 51.7944Z" fill="#F2C444"/>
<path d="M10.7954 48.0536C11.2248 48.4216 11.5315 48.851 11.8995 49.3416C12.2062 49.8323 12.5128 50.3844 12.6968 50.9977C12.5128 50.3844 12.4515 49.771 12.4515 49.1576C12.5128 48.5443 12.6355 47.9923 12.8809 47.5629C13.3715 46.6429 14.1689 45.9682 15.1503 45.7842C15.2116 46.3362 15.2729 46.8882 15.2116 47.3789C15.1503 47.6242 15.0889 47.8696 15.0276 48.1763C14.9663 48.4216 14.9049 48.667 14.7823 48.9123C14.3529 49.8323 13.6782 50.6297 12.6968 50.9977C11.7768 51.3657 10.7341 51.1817 9.87541 50.507C9.63007 50.323 9.44606 50.139 9.26206 49.8937C9.07805 49.6483 8.89404 49.403 8.77137 49.0963C8.46469 48.5443 8.21935 47.8696 8.09668 47.1336C8.95538 46.9496 9.93675 47.3789 10.7954 48.0536Z" fill="#F2C444"/>
<path d="M11.7159 45.5999C11.8386 45.0479 12.0226 44.4958 12.3293 44.0665C12.9426 43.2078 13.8013 42.6558 14.844 42.6558C14.844 43.7598 14.5987 44.8025 14.0467 45.6612C13.74 46.0906 13.4333 46.4586 13.0653 46.7652C12.6973 47.0719 12.268 47.3173 11.7773 47.4399C11.2866 47.5626 10.7959 47.5013 10.3052 47.3786C9.81453 47.2559 9.38518 46.9493 9.01716 46.5199C8.28114 45.7225 7.66778 44.4345 7.60645 42.9624C8.58781 42.9011 9.50785 43.4531 10.2439 44.2505C10.6119 44.6798 10.9186 45.1092 11.2252 45.6612C11.4706 46.2132 11.6546 46.7652 11.7773 47.3786C11.5933 46.7652 11.5933 46.1519 11.7159 45.5999Z" fill="#F2C444"/>
<path d="M10.1206 40.3865C10.4273 40.8159 10.6726 41.3679 10.8566 41.9199C11.0406 42.4719 11.1633 43.0853 11.2246 43.76C11.2246 43.1466 11.286 42.4719 11.4086 41.9199C11.5313 41.3679 11.8993 40.8772 12.206 40.5092C12.8807 39.7118 13.8007 39.3438 14.7821 39.4665C14.7821 40.0185 14.6594 40.5705 14.4141 40.9999C14.2914 41.2452 14.1687 41.4906 14.0461 41.6746C13.9234 41.9199 13.8007 42.1039 13.6167 42.2879C13.0034 43.0853 12.1447 43.6373 11.102 43.6987C10.1206 43.76 9.20055 43.3306 8.52585 42.4106C8.34185 42.1653 8.21918 41.9199 8.03517 41.6746C7.9125 41.4292 7.78983 41.1226 7.72849 40.8159C7.54448 40.2025 7.48315 39.4665 7.54449 38.7305C8.64853 38.7918 9.50722 39.4665 10.1206 40.3865Z" fill="#F2C444"/>
<path d="M10.488 36.5222C10.7333 37.0129 10.9787 37.5649 11.04 38.1783C11.1013 38.4849 11.1013 38.7916 11.1627 39.0983C11.224 39.405 11.224 39.7116 11.224 40.0183C11.224 39.7116 11.2853 39.405 11.3467 39.0983C11.408 38.7916 11.5307 38.5463 11.6534 38.2396C11.8987 37.6876 12.2054 37.2582 12.5734 36.9515C13.3094 36.2769 14.3521 36.0315 15.3335 36.2769C15.2722 36.5222 15.2108 36.8289 15.0882 37.0742C14.9655 37.3196 14.9041 37.5649 14.7815 37.8102C14.5361 38.2396 14.2295 38.6689 13.8614 39.037C13.1254 39.7116 12.2667 40.2023 11.224 40.141C10.2426 40.0797 9.3226 39.4663 8.77058 38.4849C8.52524 37.9942 8.2799 37.3809 8.21856 36.7675C8.15723 36.4609 8.15723 36.0928 8.15723 35.7248C8.15723 35.3568 8.21856 35.0501 8.2799 34.6821C9.26127 34.7435 9.99729 35.5408 10.488 36.5222Z" fill="#F2C444"/>
<path d="M11.3476 32.781C11.6543 33.8237 11.8996 35.0504 11.5929 36.3384C11.8996 35.1117 12.4516 34.0077 13.3717 33.4556C14.2304 32.9036 15.2117 32.7809 16.1318 33.149C15.8251 34.1917 15.0891 34.989 14.353 35.6024C13.5557 36.1544 12.5743 36.4611 11.5929 36.2771C10.6116 36.0931 9.8142 35.357 9.38485 34.3143C8.89417 33.2103 8.89417 31.8609 9.32352 30.4502C10.3049 30.8182 10.9796 31.7382 11.3476 32.781Z" fill="#F2C444"/>
<path d="M14.5368 30.082C15.4568 29.6527 16.4995 29.714 17.3582 30.2047C17.2355 30.4501 17.1129 30.6954 16.9289 30.8794C16.8062 31.0634 16.6222 31.3088 16.4382 31.4928C16.0702 31.8608 15.7021 32.1675 15.2728 32.4128C14.4141 32.8421 13.4327 33.0261 12.5127 32.7195C12.8194 31.4314 13.6781 30.5727 14.5368 30.082Z" fill="#F2C444"/>
<path d="M12.5128 32.7192C11.5928 32.4125 10.8567 31.5538 10.5501 30.4498C10.4274 29.8978 10.366 29.2844 10.4274 28.6097C10.4887 28.303 10.4887 27.935 10.6114 27.6283C10.7341 27.3217 10.8567 26.9537 10.9794 26.647C11.8994 27.1377 12.3901 28.119 12.6355 29.2231C12.9421 30.2658 12.8195 31.4311 12.5128 32.7192Z" fill="#F2C444"/>
<path d="M16.1323 26.9538C17.1137 26.6471 18.0951 26.8311 18.8924 27.4445C18.3404 28.3645 17.4817 28.9779 16.5617 29.3459C15.6416 29.6526 14.5989 29.7139 13.7402 29.2232C14.3536 28.1192 15.151 27.2605 16.1323 26.9538Z" fill="#F2C444"/>
<path d="M13.74 29.223C12.82 28.7323 12.268 27.8736 12.084 26.7083C11.9 25.5429 12.2066 24.1935 13.004 22.9668C13.8014 23.5802 14.2307 24.6229 14.3534 25.7269C14.4761 26.8309 14.3534 28.119 13.74 29.223Z" fill="#F2C444"/>
<path d="M16.683 24.6842C17.1736 24.3775 17.603 24.1322 18.0937 24.0708C19.075 23.8868 20.0564 24.2548 20.7924 24.9909C20.0564 25.7882 19.2591 26.3402 18.2777 26.5242C17.3576 26.7082 16.3763 26.6469 15.5176 26.0336C15.7016 25.7882 15.8856 25.5429 16.0696 25.2975C16.1923 25.0522 16.4376 24.8682 16.683 24.6842Z" fill="#F2C444"/>
<path d="M15.8862 25.1752C15.7635 25.4819 15.6408 25.7272 15.4568 26.0339C14.6594 25.4819 14.1074 24.4392 14.1074 23.2738C14.1074 22.1697 14.5368 20.759 15.4568 19.7163C16.1928 20.4523 16.4995 21.495 16.4382 22.6604C16.4382 23.2124 16.3768 23.8258 16.1928 24.3778C16.1315 24.6232 16.0088 24.8685 15.8862 25.1752Z" fill="#F2C444"/>
<path d="M17.5417 23.0282C18.3391 22.1082 19.3818 21.4948 20.3632 21.4948C21.3445 21.4948 22.2646 21.9242 22.8779 22.7215C22.1419 23.4576 21.1605 23.7642 20.1792 23.8869C19.3205 24.0096 18.2778 23.7029 17.5417 23.0282C16.8057 22.3535 16.4377 21.3108 16.5604 20.1454C16.6217 18.9801 17.2964 17.7533 18.3391 16.772C18.9524 17.6307 19.1365 18.7347 19.0138 19.8388C18.7684 20.8815 18.3391 22.0468 17.5417 23.0282Z" fill="#F2C444"/>
<path d="M21.0993 18.9799C20.9766 19.2252 20.7926 19.4705 20.6086 19.7159C20.4246 19.9612 20.2406 20.2066 19.9952 20.3906C20.2406 20.1452 20.4246 19.9612 20.6699 19.8386C20.9152 19.7159 21.1606 19.5932 21.4673 19.4706C21.958 19.2865 22.51 19.2252 23.0007 19.2865C23.982 19.4092 24.8407 20.0226 25.3927 20.8813C24.4727 21.4333 23.5527 21.74 22.5713 21.6173C21.5899 21.556 20.6699 21.1879 19.9952 20.3906C19.3205 19.5932 19.0752 18.4892 19.3205 17.3851C19.5659 16.2811 20.3019 15.0544 21.4673 14.3184C22.0193 15.2384 22.0193 16.3424 21.7126 17.3851C21.5899 17.9372 21.4059 18.4892 21.0993 18.9799Z" fill="#F2C444"/>
<path d="M23.983 16.8331C23.615 17.3238 23.1856 17.7531 22.6949 18.0598C23.1856 17.6918 23.7376 17.5078 24.2897 17.3238C24.7803 17.2011 25.3324 17.2624 25.823 17.3851C26.8044 17.6304 27.5404 18.3051 27.9698 19.2865C27.5404 19.5318 27.0498 19.7159 26.5591 19.7159C26.3137 19.7159 26.0684 19.7159 25.823 19.7159C25.5777 19.7159 25.3324 19.7159 25.087 19.6545C24.167 19.4705 23.247 18.9185 22.6949 18.0598C22.1429 17.2011 22.0202 16.0971 22.4496 14.993C22.5723 14.7477 22.6949 14.441 22.8176 14.1956C23.0016 13.9503 23.1856 13.705 23.3696 13.4596C23.799 12.9689 24.351 12.6009 24.9643 12.2329C25.3937 13.2143 25.271 14.3797 24.8417 15.361C24.6577 15.913 24.2897 16.3424 23.983 16.8331Z" fill="#F2C444"/>
<path d="M27.111 15.1774C26.9269 15.3614 26.6816 15.5454 26.4363 15.7294C26.1909 15.9134 25.9456 16.0974 25.7002 16.2201C25.9456 16.0974 26.2523 15.9748 26.4976 15.8521C26.8043 15.7907 27.0496 15.7294 27.3563 15.7294C27.9083 15.7294 28.399 15.7908 28.8897 15.9748C29.8097 16.4041 30.4844 17.2015 30.7911 18.1828C29.8097 18.4895 28.8284 18.4895 27.9083 18.1215C27.4176 17.9375 27.0496 17.6922 26.6203 17.3855C26.2523 17.0788 25.9456 16.6494 25.7002 16.2201C25.4549 15.7294 25.3936 15.2387 25.3936 14.6867C25.3936 14.1347 25.5162 13.5827 25.8229 13.092C26.3749 12.1106 27.3563 11.1292 28.6443 10.7612C28.951 11.8039 28.7057 12.908 28.1537 13.828C27.847 14.3187 27.479 14.748 27.111 15.1774Z" fill="#F2C444"/>
<path d="M31.4044 17.2627C31.1591 17.2014 30.975 17.0787 30.7297 17.0174C29.871 16.588 29.135 15.7907 28.8283 14.8093C28.5216 13.7666 28.7056 12.7239 29.319 11.7425C29.503 11.4972 29.687 11.2518 29.871 11.0678C30.055 10.8838 30.3004 10.6998 30.607 10.5158C31.1591 10.2091 31.7724 9.96379 32.3858 9.77979C32.5698 10.8225 32.2018 11.9265 31.5271 12.7852C31.2204 13.2146 30.791 13.5826 30.3617 13.9506C29.9323 14.3186 29.3803 14.564 28.8283 14.8093C29.3803 14.6253 29.9937 14.564 30.4844 14.564C31.0364 14.564 31.5271 14.8093 31.9564 15.0546C32.8151 15.5453 33.4285 16.404 33.5511 17.5081C33.0605 17.6307 32.5698 17.6307 32.0791 17.5694C31.8951 17.3854 31.6497 17.3241 31.4044 17.2627Z" fill="#F2C444"/>
<path d="M38.3348 12.9689C36.6174 15.361 33.4893 15.7903 31.2812 13.9503C32.9373 11.5582 36.1268 11.1288 38.3348 12.9689Z" fill="#F2C444"/>
<path d="M44.4691 68.6006C44.6531 68.4779 44.5304 68.1712 44.3464 68.1712L42.629 67.9259C42.5677 67.9259 42.445 67.8646 42.445 67.8032L41.709 66.2698C41.5863 66.0858 41.341 66.0858 41.2183 66.2698L40.4823 67.8032C40.421 67.8646 40.3596 67.9259 40.2983 67.9259L38.5809 68.1712C38.3969 68.2326 38.2742 68.4779 38.4582 68.6006L39.6849 69.8273C39.7463 69.8886 39.7463 69.95 39.7463 70.0726L39.4396 71.79C39.3782 71.9741 39.6236 72.1581 39.8076 72.0354L41.341 71.238C41.4023 71.1767 41.525 71.1767 41.5863 71.238L43.1197 72.0354C43.3037 72.1581 43.5491 71.9741 43.4877 71.79L43.1811 70.0726C43.1811 70.0113 43.1811 69.8886 43.2424 69.8273L44.4691 68.6006Z" fill="#3D798A"/>
<path d="M48.3336 70.3177C48.395 70.2564 48.395 70.1337 48.2723 70.0724L47.4136 69.9497C47.3523 69.9497 47.3523 69.8884 47.2909 69.8884L46.9229 69.091C46.8616 68.9684 46.7389 68.9684 46.6776 69.091L46.3096 69.8884C46.3096 69.9497 46.2482 69.9497 46.1869 69.9497L45.3282 70.0724C45.2055 70.0724 45.2055 70.1951 45.2668 70.3177L45.8802 70.9311C45.8802 70.9311 45.9415 70.9924 45.9415 71.0538L45.8189 71.9125C45.8189 72.0351 45.9415 72.0965 46.0029 72.0351L46.7389 71.6058C46.8002 71.6058 46.8002 71.6058 46.8616 71.6058L47.5976 72.0351C47.7203 72.0965 47.7816 71.9738 47.7816 71.9125L47.6589 71.0538C47.6589 70.9924 47.6589 70.9924 47.7203 70.9311L48.3336 70.3177Z" fill="#3D798A"/>
<path d="M37.3541 70.3182C37.4155 70.2569 37.4155 70.1342 37.2928 70.0729L36.4341 69.9502C36.3728 69.9502 36.3728 69.8889 36.3114 69.8889L35.9434 69.0915C35.8821 68.9688 35.7594 68.9688 35.6981 69.0915L35.3301 69.8889C35.3301 69.9502 35.2687 69.9502 35.2074 69.9502L34.3487 70.0729C34.226 70.0729 34.226 70.1956 34.2874 70.3182L34.9007 70.9316C34.9621 70.9316 34.9621 70.9929 34.9621 71.0543L34.8394 71.913C34.8394 72.0356 34.962 72.097 35.0234 72.0356L35.7594 71.6063C35.8207 71.6063 35.8207 71.6063 35.8821 71.6063L36.6181 72.0356C36.7408 72.097 36.8021 71.9743 36.8021 71.913L36.6794 71.0543C36.6794 70.9929 36.6794 70.9929 36.7408 70.9316L37.3541 70.3182Z" fill="#3D798A"/>
</svg>