<svg width="87" height="84" viewBox="0 0 87 84" fill="none" xmlns="http://www.w3.org/2000/svg">
<path d="M85.4313 56.2723C84.8879 58.0108 81.99 58.8801 81.2051 60.5608C80.4203 62.1834 81.6277 64.9072 80.6014 66.414C79.5751 67.9208 76.496 67.9787 75.2886 69.3696C74.0811 70.7604 74.4433 73.6581 72.9944 74.8171C71.5454 75.9762 68.6475 75.2228 67.0174 76.208C65.4477 77.1932 64.9647 80.0908 63.2139 80.8442C61.5234 81.5976 58.9274 80.0329 57.0558 80.5545C55.2446 81.076 53.9164 83.6839 52.0448 83.9737C50.2337 84.2055 48.181 82.0612 46.249 82.0612C44.3171 82.0612 42.2644 84.2634 40.4532 83.9737H40.3928C38.5816 83.626 37.2534 81.076 35.4422 80.5545C35.1403 80.4965 34.7781 80.4386 34.4159 80.4386C32.7254 80.4965 30.6727 81.4238 29.2841 80.7863C27.8352 80.1488 27.2314 77.9466 26.1447 76.7296C25.9636 76.4978 25.7825 76.3239 25.541 76.208C23.9713 75.2228 21.013 75.9762 19.564 74.8171C18.1755 73.6581 18.5377 70.7025 17.2699 69.3696C16.7869 68.848 16.0624 68.5582 15.2775 68.2105C14.0097 67.7469 12.5607 67.3412 11.957 66.414C10.9307 64.9072 12.1381 62.1834 11.3533 60.5608C10.5684 58.9381 7.67051 58.0688 7.12715 56.2723C6.58379 54.5337 8.57611 52.3315 8.27424 50.477C8.03275 48.7384 5.49707 47.0578 5.49707 45.2612C5.49707 43.4067 8.03275 41.7841 8.27424 40.0455C8.51573 38.2489 6.58379 35.9888 7.12715 34.2502C7.67051 32.5116 10.5684 31.6423 11.3533 29.9617C12.1381 28.339 10.9307 25.6152 11.957 24.1085C12.9834 22.6017 16.002 22.5437 17.2699 21.1529C18.4773 19.762 18.1151 16.8644 19.564 15.7053C21.013 14.5463 23.9109 15.2996 25.541 14.3144C27.1107 13.3293 27.5937 10.4316 29.3445 9.67823C31.035 8.92484 33.631 10.4896 35.4422 9.96799C37.2534 9.44642 38.5816 6.83854 40.4532 6.54878C41.6003 6.37492 42.8681 7.18626 44.0756 7.82374C44.8001 8.17146 45.5245 8.51917 46.249 8.51917C48.181 8.51917 50.2337 6.31697 52.0448 6.60673C53.9164 6.83854 55.2446 9.50437 57.0558 10.0259C57.3577 10.0839 57.5992 10.1418 57.9011 10.1418C59.5915 10.1418 61.7046 9.0987 63.1535 9.73618C64.6025 10.3737 65.1458 12.46 66.2326 13.7349C66.4741 13.9667 66.6552 14.1985 66.957 14.3724C68.5267 15.3576 71.4247 14.6042 72.8736 15.7633C72.8736 15.7633 72.8736 15.7633 72.934 15.7633C74.3829 16.9803 73.9603 19.8779 75.2282 21.2108C76.4356 22.6017 79.5147 22.6596 80.541 24.1664C81.5674 25.6732 80.3599 28.397 81.1448 30.0196C81.9296 31.6423 84.8275 32.5116 85.3709 34.3082C85.9142 36.0467 83.9219 38.2489 84.2238 40.1034C84.4653 41.9 87.001 43.5226 87.001 45.3192C87.001 47.1737 84.4653 48.7963 84.2238 50.5349C84.0427 52.2735 85.9746 54.5337 85.4313 56.2723Z" fill="#F2C444"/>
<path d="M58.021 10.084L26.2646 76.7297C26.0835 76.4979 25.9024 76.324 25.6609 76.2081C24.0912 75.2229 21.1329 75.9763 19.684 74.8173C18.2954 73.6582 18.6576 70.7026 17.3898 69.3697C16.9068 68.8481 16.1823 68.5584 15.3975 68.2106L44.1955 7.82385C44.92 8.17157 45.6445 8.51929 46.3689 8.51929C48.3009 8.51929 50.3536 6.31708 52.1648 6.60684C54.0363 6.83866 55.3646 9.50448 57.1758 10.0261C57.4776 10.0261 57.7191 10.084 58.021 10.084Z" fill="#E08E2B"/>
<path d="M72.9939 15.705L40.5131 83.9154C38.7019 83.5676 37.3737 81.0177 35.5625 80.4961C35.2606 80.4382 34.8984 80.3802 34.5361 80.3802L66.3528 13.6187C66.5943 13.8505 66.7755 14.0823 67.0773 14.2561C68.647 15.2993 71.5449 14.5459 72.9939 15.705Z" fill="#FFED8A"/>
<path d="M46.3698 78.0632C65.3754 78.0632 80.7825 63.2738 80.7825 45.0301C80.7825 26.7865 65.3754 11.9971 46.3698 11.9971C27.3641 11.9971 11.957 26.7865 11.957 45.0301C11.957 63.2738 27.3641 78.0632 46.3698 78.0632Z" fill="#C7D5DB"/>
<path d="M30.21 43.9743C30.1367 44.2743 30.02 44.541 29.86 44.7743C29.7 45.0076 29.5067 45.2043 29.28 45.3643C29.0533 45.5243 28.8033 45.6443 28.53 45.7243C28.2567 45.811 27.97 45.8543 27.67 45.8543C27.29 45.8543 26.96 45.7943 26.68 45.6743C26.4 45.5476 26.1633 45.381 25.97 45.1743C25.7833 44.9676 25.6433 44.731 25.55 44.4643C25.4567 44.1976 25.41 43.921 25.41 43.6343C25.41 43.4143 25.4367 43.191 25.49 42.9643C25.55 42.7376 25.6367 42.5276 25.75 42.3343C25.8633 42.1343 26.0033 41.961 26.17 41.8143C26.3433 41.6676 26.5433 41.5643 26.77 41.5043C26.45 41.3043 26.2167 41.0743 26.07 40.8143C25.93 40.5543 25.86 40.281 25.86 39.9943C25.86 39.7676 25.9033 39.5443 25.99 39.3243C26.0767 39.0976 26.2033 38.901 26.37 38.7343C26.5433 38.561 26.7533 38.421 27 38.3143C27.2533 38.2076 27.54 38.1543 27.86 38.1543C28.0533 38.1543 28.2367 38.1776 28.41 38.2243C28.5833 38.2643 28.7367 38.3343 28.87 38.4343C29.0033 38.5343 29.11 38.6643 29.19 38.8243C29.27 38.9776 29.31 39.1676 29.31 39.3943C29.31 39.6276 29.2667 39.831 29.18 40.0043C29.0933 40.1776 28.9633 40.2643 28.79 40.2643C28.7167 40.2643 28.6367 40.2476 28.55 40.2143C28.4633 40.1743 28.3733 40.1076 28.28 40.0143C28.3733 39.981 28.4467 39.8976 28.5 39.7643C28.56 39.6243 28.59 39.4843 28.59 39.3443C28.59 39.2176 28.5667 39.1143 28.52 39.0343C28.48 38.9543 28.4267 38.8943 28.36 38.8543C28.2933 38.8076 28.2233 38.7776 28.15 38.7643C28.0767 38.751 28.01 38.7443 27.95 38.7443C27.8033 38.7443 27.6767 38.7743 27.57 38.8343C27.4633 38.8943 27.3767 38.9743 27.31 39.0743C27.2433 39.1743 27.1933 39.291 27.16 39.4243C27.1267 39.5576 27.11 39.6943 27.11 39.8343C27.11 40.021 27.1367 40.201 27.19 40.3743C27.2433 40.5476 27.3233 40.7076 27.43 40.8543C27.5433 41.001 27.6833 41.131 27.85 41.2443C28.0167 41.351 28.2133 41.4343 28.44 41.4943C28.2267 41.5476 28.0367 41.6443 27.87 41.7843C27.7033 41.9176 27.5633 42.081 27.45 42.2743C27.3433 42.461 27.26 42.6643 27.2 42.8843C27.1467 43.1043 27.12 43.3176 27.12 43.5243C27.12 43.7043 27.1433 43.8776 27.19 44.0443C27.2367 44.211 27.3067 44.3576 27.4 44.4843C27.5 44.6043 27.6233 44.7043 27.77 44.7843C27.9233 44.8576 28.1067 44.8943 28.32 44.8943C28.48 44.8943 28.6467 44.871 28.82 44.8243C28.9933 44.7776 29.1533 44.711 29.3 44.6243C29.4533 44.5376 29.5867 44.431 29.7 44.3043C29.82 44.1776 29.9067 44.0343 29.96 43.8743L30.21 43.9743ZM31.3827 38.6743V44.0743C31.3827 44.3543 31.4193 44.541 31.4927 44.6343C31.5727 44.721 31.7093 44.7643 31.9027 44.7643C31.976 44.7643 32.0327 44.7576 32.0727 44.7443C32.1193 44.7243 32.156 44.7043 32.1827 44.6843C32.1893 44.7176 32.1927 44.7543 32.1927 44.7943C32.1927 44.8276 32.1927 44.861 32.1927 44.8943C32.1927 45.1743 32.1093 45.3843 31.9427 45.5243C31.7827 45.6643 31.5793 45.7343 31.3327 45.7343C30.8193 45.7343 30.4593 45.5943 30.2527 45.3143C30.046 45.0276 29.9427 44.651 29.9427 44.1843V38.8743L31.3827 38.6743ZM36.2655 40.3043V41.0543C36.3788 40.9343 36.5221 40.8343 36.6955 40.7543C36.8688 40.6676 37.0788 40.6243 37.3255 40.6243C37.5521 40.6243 37.7655 40.6676 37.9655 40.7543C38.1721 40.841 38.3521 40.981 38.5055 41.1743C38.6655 41.361 38.7921 41.611 38.8855 41.9243C38.9788 42.2376 39.0255 42.6176 39.0255 43.0643C39.0255 43.3843 38.9955 43.7043 38.9355 44.0243C38.8821 44.3443 38.7855 44.631 38.6455 44.8843C38.5055 45.1376 38.3155 45.3443 38.0755 45.5043C37.8421 45.6576 37.5488 45.7343 37.1955 45.7343C36.9421 45.7343 36.7421 45.701 36.5955 45.6343C36.4488 45.561 36.3388 45.4776 36.2655 45.3843V47.8143L34.8255 48.1743V40.3043H36.2655ZM36.7155 44.8643C36.8888 44.8643 37.0355 44.8076 37.1555 44.6943C37.2755 44.5743 37.3688 44.421 37.4355 44.2343C37.5088 44.0476 37.5588 43.841 37.5855 43.6143C37.6188 43.381 37.6355 43.151 37.6355 42.9243C37.6355 42.5576 37.6021 42.2676 37.5355 42.0543C37.4755 41.841 37.4021 41.6843 37.3155 41.5843C37.2288 41.4776 37.1421 41.411 37.0555 41.3843C36.9755 41.3576 36.9121 41.3443 36.8655 41.3443C36.7455 41.3443 36.6288 41.3876 36.5155 41.4743C36.4021 41.5543 36.3188 41.6776 36.2655 41.8443V44.6343C36.2988 44.6876 36.3521 44.741 36.4255 44.7943C36.4988 44.841 36.5955 44.8643 36.7155 44.8643ZM40.9432 40.6743V41.2943C41.0899 41.121 41.2532 40.9676 41.4332 40.8343C41.6132 40.6943 41.8099 40.6243 42.0232 40.6243C42.1499 40.6243 42.2632 40.651 42.3632 40.7043C42.4699 40.7576 42.5599 40.8276 42.6332 40.9143C42.7132 41.001 42.7732 41.0976 42.8132 41.2043C42.8599 41.3043 42.8832 41.4076 42.8832 41.5143C42.8832 41.661 42.8365 41.7976 42.7432 41.9243C42.6565 42.0443 42.5099 42.1043 42.3032 42.1043C42.1499 42.1043 42.0432 42.071 41.9832 42.0043C41.9232 41.9376 41.8765 41.8676 41.8432 41.7943C41.8099 41.7143 41.7732 41.641 41.7332 41.5743C41.6999 41.5076 41.6365 41.4743 41.5432 41.4743C41.4432 41.4743 41.3432 41.5143 41.2432 41.5943C41.1499 41.6676 41.0499 41.761 40.9432 41.8743V45.6743H39.5032V40.6743H40.9432ZM45.233 40.6243C45.693 40.6243 46.0596 40.751 46.333 41.0043C46.6063 41.251 46.783 41.651 46.863 42.2043H46.933C47.0263 42.2043 47.1296 42.1876 47.243 42.1543C47.363 42.121 47.4863 42.0776 47.613 42.0243C47.7396 41.971 47.863 41.9076 47.983 41.8343C48.103 41.761 48.2096 41.6843 48.303 41.6043L48.453 41.8743C48.3796 41.981 48.2863 42.0776 48.173 42.1643C48.0663 42.251 47.943 42.331 47.803 42.4043C47.663 42.471 47.5163 42.531 47.363 42.5843C47.2096 42.631 47.0563 42.6676 46.903 42.6943C46.9096 42.741 46.913 42.7876 46.913 42.8343C46.913 42.8743 46.913 42.9176 46.913 42.9643C46.913 43.351 46.8796 43.7143 46.813 44.0543C46.7463 44.3876 46.633 44.681 46.473 44.9343C46.3196 45.181 46.1196 45.3776 45.873 45.5243C45.6263 45.6643 45.323 45.7343 44.963 45.7343C44.7163 45.7343 44.4796 45.6976 44.253 45.6243C44.033 45.5443 43.8363 45.4176 43.663 45.2443C43.4896 45.0643 43.3496 44.831 43.243 44.5443C43.143 44.251 43.093 43.8943 43.093 43.4743C43.093 43.1876 43.123 42.881 43.183 42.5543C43.243 42.221 43.353 41.911 43.513 41.6243C43.673 41.3376 43.8896 41.101 44.163 40.9143C44.443 40.721 44.7996 40.6243 45.233 40.6243ZM45.243 44.7943C45.383 44.7943 45.503 44.7476 45.603 44.6543C45.7096 44.5543 45.7963 44.421 45.863 44.2543C45.9296 44.081 45.9763 43.8776 46.003 43.6443C46.0363 43.411 46.053 43.1576 46.053 42.8843V42.7343C45.8863 42.701 45.7796 42.6376 45.733 42.5443C45.6863 42.451 45.663 42.3476 45.663 42.2343C45.663 42.0943 45.6863 41.9876 45.733 41.9143C45.7796 41.841 45.8396 41.791 45.913 41.7643C45.8396 41.5376 45.7496 41.391 45.643 41.3243C45.543 41.2576 45.4563 41.2243 45.383 41.2243C45.2363 41.2243 45.1096 41.2943 45.003 41.4343C44.903 41.5676 44.8196 41.741 44.753 41.9543C44.6863 42.161 44.6363 42.391 44.603 42.6443C44.5763 42.8976 44.563 43.141 44.563 43.3743C44.563 43.6743 44.583 43.9176 44.623 44.1043C44.6696 44.291 44.7263 44.4343 44.793 44.5343C44.8596 44.6343 44.933 44.7043 45.013 44.7443C45.093 44.7776 45.1696 44.7943 45.243 44.7943ZM52.6775 42.6543C52.6775 42.2543 52.6308 41.971 52.5375 41.8043C52.4442 41.631 52.3175 41.5443 52.1575 41.5443C51.9642 41.5443 51.8208 41.6376 51.7275 41.8243C51.6408 42.0043 51.5875 42.2176 51.5675 42.4643V45.6743H50.1275V42.2243C50.1275 42.1443 50.1208 42.0643 50.1075 41.9843C50.0942 41.8976 50.0708 41.8243 50.0375 41.7643C50.0042 41.6976 49.9575 41.6443 49.8975 41.6043C49.8442 41.5576 49.7742 41.5343 49.6875 41.5343C49.5075 41.5343 49.3675 41.6276 49.2675 41.8143C49.1742 41.9943 49.1175 42.211 49.0975 42.4643V45.6743H47.6575V40.6743H49.0975V41.1943C49.2575 40.9543 49.4342 40.801 49.6275 40.7343C49.8275 40.661 50.0142 40.6243 50.1875 40.6243C50.4342 40.6243 50.6642 40.6843 50.8775 40.8043C51.0908 40.9243 51.2642 41.151 51.3975 41.4843C51.4775 41.3043 51.5675 41.1576 51.6675 41.0443C51.7742 40.931 51.8808 40.8443 51.9875 40.7843C52.1008 40.7243 52.2108 40.6843 52.3175 40.6643C52.4308 40.6443 52.5375 40.6343 52.6375 40.6343C52.8242 40.6343 53.0008 40.6643 53.1675 40.7243C53.3408 40.7843 53.4908 40.8876 53.6175 41.0343C53.7508 41.1743 53.8542 41.3643 53.9275 41.6043C54.0008 41.8376 54.0375 42.1276 54.0375 42.4743C54.0375 42.561 54.0342 42.671 54.0275 42.8043C54.0275 42.931 54.0242 43.061 54.0175 43.1943C54.0108 43.3276 54.0042 43.4576 53.9975 43.5843C53.9975 43.711 53.9975 43.8176 53.9975 43.9043C53.9975 44.191 54.0308 44.4076 54.0975 44.5543C54.1708 44.6943 54.3108 44.7643 54.5175 44.7643C54.6308 44.7643 54.7242 44.7443 54.7975 44.7043C54.8708 44.6576 54.9308 44.5943 54.9775 44.5143C55.0242 44.4343 55.0608 44.341 55.0875 44.2343C55.1208 44.1276 55.1508 44.011 55.1775 43.8843H55.5975C55.5442 44.2776 55.4642 44.5976 55.3575 44.8443C55.2508 45.0843 55.1308 45.271 54.9975 45.4043C54.8642 45.5376 54.7175 45.6276 54.5575 45.6743C54.4042 45.7143 54.2508 45.7343 54.0975 45.7343C53.5975 45.7343 53.2308 45.5643 52.9975 45.2243C52.7708 44.8843 52.6575 44.431 52.6575 43.8643C52.6575 43.8043 52.6575 43.721 52.6575 43.6143C52.6642 43.501 52.6675 43.3843 52.6675 43.2643C52.6675 43.1443 52.6675 43.0276 52.6675 42.9143C52.6742 42.801 52.6775 42.7143 52.6775 42.6543ZM57.147 40.6243C57.607 40.6243 57.9737 40.751 58.247 41.0043C58.5204 41.251 58.697 41.651 58.777 42.2043H58.847C58.9404 42.2043 59.0437 42.1876 59.157 42.1543C59.277 42.121 59.4004 42.0776 59.527 42.0243C59.6537 41.971 59.777 41.9076 59.897 41.8343C60.017 41.761 60.1237 41.6843 60.217 41.6043L60.367 41.8743C60.2937 41.981 60.2004 42.0776 60.087 42.1643C59.9804 42.251 59.857 42.331 59.717 42.4043C59.577 42.471 59.4304 42.531 59.277 42.5843C59.1237 42.631 58.9704 42.6676 58.817 42.6943C58.8237 42.741 58.827 42.7876 58.827 42.8343C58.827 42.8743 58.827 42.9176 58.827 42.9643C58.827 43.351 58.7937 43.7143 58.727 44.0543C58.6604 44.3876 58.547 44.681 58.387 44.9343C58.2337 45.181 58.0337 45.3776 57.787 45.5243C57.5404 45.6643 57.237 45.7343 56.877 45.7343C56.6304 45.7343 56.3937 45.6976 56.167 45.6243C55.947 45.5443 55.7504 45.4176 55.577 45.2443C55.4037 45.0643 55.2637 44.831 55.157 44.5443C55.057 44.251 55.007 43.8943 55.007 43.4743C55.007 43.1876 55.037 42.881 55.097 42.5543C55.157 42.221 55.267 41.911 55.427 41.6243C55.587 41.3376 55.8037 41.101 56.077 40.9143C56.357 40.721 56.7137 40.6243 57.147 40.6243ZM57.157 44.7943C57.297 44.7943 57.417 44.7476 57.517 44.6543C57.6237 44.5543 57.7104 44.421 57.777 44.2543C57.8437 44.081 57.8904 43.8776 57.917 43.6443C57.9504 43.411 57.967 43.1576 57.967 42.8843V42.7343C57.8004 42.701 57.6937 42.6376 57.647 42.5443C57.6004 42.451 57.577 42.3476 57.577 42.2343C57.577 42.0943 57.6004 41.9876 57.647 41.9143C57.6937 41.841 57.7537 41.791 57.827 41.7643C57.7537 41.5376 57.6637 41.391 57.557 41.3243C57.457 41.2576 57.3704 41.2243 57.297 41.2243C57.1504 41.2243 57.0237 41.2943 56.917 41.4343C56.817 41.5676 56.7337 41.741 56.667 41.9543C56.6004 42.161 56.5504 42.391 56.517 42.6443C56.4904 42.8976 56.477 43.141 56.477 43.3743C56.477 43.6743 56.497 43.9176 56.537 44.1043C56.5837 44.291 56.6404 44.4343 56.707 44.5343C56.7737 44.6343 56.847 44.7043 56.927 44.7443C57.007 44.7776 57.0837 44.7943 57.157 44.7943ZM61.0116 39.0943V40.6743H61.6216V41.0743H61.0116V44.0743C61.0116 44.3543 61.0482 44.541 61.1216 44.6343C61.2016 44.721 61.3382 44.7643 61.5316 44.7643C61.7249 44.7643 61.8849 44.681 62.0116 44.5143C62.1449 44.3476 62.2216 44.1376 62.2416 43.8843H62.6616C62.6082 44.291 62.5149 44.6176 62.3816 44.8643C62.2482 45.1043 62.0982 45.291 61.9316 45.4243C61.7649 45.551 61.5949 45.6343 61.4216 45.6743C61.2482 45.7143 61.0949 45.7343 60.9616 45.7343C60.4482 45.7343 60.0882 45.5943 59.8816 45.3143C59.6749 45.0276 59.5716 44.651 59.5716 44.1843V41.0743H59.2516V40.6743H59.5716V39.2943L61.0116 39.0943ZM64.2076 40.6243C64.6676 40.6243 65.0342 40.751 65.3076 41.0043C65.5809 41.251 65.7576 41.651 65.8376 42.2043H65.9076C66.0009 42.2043 66.1042 42.1876 66.2176 42.1543C66.3376 42.121 66.4609 42.0776 66.5876 42.0243C66.7142 41.971 66.8376 41.9076 66.9576 41.8343C67.0776 41.761 67.1842 41.6843 67.2776 41.6043L67.4276 41.8743C67.3542 41.981 67.2609 42.0776 67.1476 42.1643C67.0409 42.251 66.9176 42.331 66.7776 42.4043C66.6376 42.471 66.4909 42.531 66.3376 42.5843C66.1842 42.631 66.0309 42.6676 65.8776 42.6943C65.8842 42.741 65.8876 42.7876 65.8876 42.8343C65.8876 42.8743 65.8876 42.9176 65.8876 42.9643C65.8876 43.351 65.8542 43.7143 65.7876 44.0543C65.7209 44.3876 65.6076 44.681 65.4476 44.9343C65.2942 45.181 65.0942 45.3776 64.8476 45.5243C64.6009 45.6643 64.2976 45.7343 63.9376 45.7343C63.6909 45.7343 63.4542 45.6976 63.2276 45.6243C63.0076 45.5443 62.8109 45.4176 62.6376 45.2443C62.4642 45.0643 62.3242 44.831 62.2176 44.5443C62.1176 44.251 62.0676 43.8943 62.0676 43.4743C62.0676 43.1876 62.0976 42.881 62.1576 42.5543C62.2176 42.221 62.3276 41.911 62.4876 41.6243C62.6476 41.3376 62.8642 41.101 63.1376 40.9143C63.4176 40.721 63.7742 40.6243 64.2076 40.6243ZM64.2176 44.7943C64.3576 44.7943 64.4776 44.7476 64.5776 44.6543C64.6842 44.5543 64.7709 44.421 64.8376 44.2543C64.9042 44.081 64.9509 43.8776 64.9776 43.6443C65.0109 43.411 65.0276 43.1576 65.0276 42.8843V42.7343C64.8609 42.701 64.7542 42.6376 64.7076 42.5443C64.6609 42.451 64.6376 42.3476 64.6376 42.2343C64.6376 42.0943 64.6609 41.9876 64.7076 41.9143C64.7542 41.841 64.8142 41.791 64.8876 41.7643C64.8142 41.5376 64.7242 41.391 64.6176 41.3243C64.5176 41.2576 64.4309 41.2243 64.3576 41.2243C64.2109 41.2243 64.0842 41.2943 63.9776 41.4343C63.8776 41.5676 63.7942 41.741 63.7276 41.9543C63.6609 42.161 63.6109 42.391 63.5776 42.6443C63.5509 42.8976 63.5376 43.141 63.5376 43.3743C63.5376 43.6743 63.5576 43.9176 63.5976 44.1043C63.6442 44.291 63.7009 44.4343 63.7676 44.5343C63.8342 44.6343 63.9076 44.7043 63.9876 44.7443C64.0676 44.7776 64.1442 44.7943 64.2176 44.7943ZM68.0721 40.6743V41.2943C68.2188 41.121 68.3821 40.9676 68.5621 40.8343C68.7421 40.6943 68.9388 40.6243 69.1521 40.6243C69.2788 40.6243 69.3921 40.651 69.4921 40.7043C69.5988 40.7576 69.6888 40.8276 69.7621 40.9143C69.8421 41.001 69.9021 41.0976 69.9421 41.2043C69.9888 41.3043 70.0121 41.4076 70.0121 41.5143C70.0121 41.661 69.9654 41.7976 69.8721 41.9243C69.7854 42.0443 69.6388 42.1043 69.4321 42.1043C69.2788 42.1043 69.1721 42.071 69.1121 42.0043C69.0521 41.9376 69.0054 41.8676 68.9721 41.7943C68.9388 41.7143 68.9021 41.641 68.8621 41.5743C68.8288 41.5076 68.7654 41.4743 68.6721 41.4743C68.5721 41.4743 68.4721 41.5143 68.3721 41.5943C68.2788 41.6676 68.1788 41.761 68.0721 41.8743V45.6743H66.6321V40.6743H68.0721Z" fill="#182130"/>
<path d="M26.8086 50.2446H66.8361" stroke="#182130" stroke-width="2" stroke-linecap="round" stroke-linejoin="round"/>
<path d="M53.4311 69.0806C53.1292 69.1385 52.8274 69.3124 52.5859 69.4862C52.3444 69.6601 52.1029 69.8919 51.9218 70.1237C51.5595 70.6453 51.3784 71.3407 51.4992 72.0362C52.2236 71.9203 52.8274 71.5725 53.1896 70.993C53.4915 70.4714 53.6122 69.776 53.4311 69.0806Z" fill="#F2C444"/>
<path d="M54.6986 74.1225C54.3364 74.2384 53.9138 74.2384 53.5515 74.1804C53.1893 74.1225 52.8271 73.9486 52.5252 73.7747C51.9215 73.3691 51.5592 72.7895 51.4385 72.0941C52.163 71.9782 52.8874 72.21 53.4308 72.5577C54.0345 72.9055 54.5175 73.427 54.6986 74.1225Z" fill="#F2C444"/>
<path d="M55.2414 68.6172C54.9396 68.7331 54.6377 68.849 54.3962 69.0808C54.1547 69.2547 53.9736 69.5444 53.7925 69.7762C53.4906 70.3558 53.3699 71.0512 53.4906 71.7466C54.2151 71.5728 54.7584 71.1092 55.0603 70.5876C55.4225 70.0081 55.4829 69.2547 55.2414 68.6172Z" fill="#F2C444"/>
<path d="M56.9317 73.5428C56.5694 73.6587 56.1468 73.7166 55.7846 73.6587C55.4224 73.6007 55.0601 73.4848 54.7582 73.311C54.1545 72.9632 53.7319 72.4417 53.5508 71.6883C54.2753 71.5144 54.9394 71.6303 55.6035 71.978C56.2072 72.3837 56.6902 72.8473 56.9317 73.5428Z" fill="#F2C444"/>
<path d="M57.0523 67.98C56.4485 68.2118 55.9656 68.6754 55.7241 69.2549C55.4826 69.8345 55.3618 70.5299 55.6033 71.2253C56.3278 70.9935 56.8108 70.4719 57.0523 69.8924C57.2938 69.3129 57.2938 68.6175 57.0523 67.98Z" fill="#F2C444"/>
<path d="M59.1061 72.7893C58.3817 73.0791 57.5968 73.0211 56.9327 72.7314C56.329 72.4416 55.7856 71.92 55.6045 71.2246C56.2686 70.9928 56.9931 71.0507 57.6572 71.3405C58.2609 71.6302 58.8043 72.0939 59.1061 72.7893Z" fill="#F2C444"/>
<path d="M58.7431 67.2261C58.1393 67.5158 57.7771 68.0374 57.5356 68.6169C57.2941 69.1965 57.2941 69.8919 57.5356 70.5873C57.8979 70.4714 58.1997 70.2976 58.3808 70.0658C58.6223 69.8339 58.8035 69.5442 58.8638 69.1965C59.1657 68.559 59.1053 67.8636 58.7431 67.2261Z" fill="#F2C444"/>
<path d="M61.1576 71.8627C60.4331 72.2104 59.6482 72.2684 58.9841 71.9786C58.32 71.6889 57.7766 71.2252 57.5352 70.5298C57.8974 70.4139 58.2596 70.356 58.5615 70.356C58.9237 70.356 59.2256 70.4139 59.5878 70.5298C60.252 70.7616 60.8557 71.2252 61.1576 71.8627Z" fill="#F2C444"/>
<path d="M60.4327 66.2988C60.1309 66.4727 59.9498 66.7045 59.7686 66.9363C59.5875 67.1681 59.4064 67.4579 59.346 67.7476C59.1649 68.3272 59.2253 69.0806 59.5271 69.718C59.829 69.5442 60.1309 69.3703 60.3724 69.0806C60.6139 68.8487 60.7346 68.559 60.795 68.2113C60.9157 67.6317 60.795 66.9363 60.4327 66.2988Z" fill="#F2C444"/>
<path d="M63.2119 70.7613C62.8497 70.9351 62.4874 71.109 62.1252 71.167C61.7629 71.2249 61.4007 71.167 61.0385 71.0511C60.3743 70.8192 59.7706 70.3556 59.4688 69.7181C59.7706 69.5443 60.1329 69.4863 60.4951 69.4863C60.8573 69.4863 61.2196 69.5443 61.5214 69.6022C62.1855 69.7761 62.8497 70.1818 63.2119 70.7613Z" fill="#F2C444"/>
<path d="M62.0637 65.314C61.8222 65.4878 61.5807 65.7196 61.3996 66.0094C61.2185 66.2412 61.0977 66.531 61.0374 66.8787C60.9166 67.5162 60.977 68.2116 61.3996 68.8491C62.0033 68.5014 62.4259 67.9218 62.5467 67.2844C62.6674 66.6469 62.4863 65.8935 62.0637 65.314Z" fill="#F2C444"/>
<path d="M65.1445 69.6025C64.8426 69.8343 64.4804 69.9502 64.1182 70.0082C63.7559 70.0661 63.3937 70.0661 63.0314 70.0082C62.3673 69.8343 61.7636 69.4287 61.4014 68.8491C62.0051 68.5014 62.7296 68.3855 63.4541 68.5594C64.1182 68.6753 64.7219 69.023 65.1445 69.6025Z" fill="#F2C444"/>
<path d="M63.5725 64.2715C63.0292 64.6192 62.7273 65.1987 62.6669 65.8362C62.6065 66.4737 62.7273 67.1691 63.1499 67.7487C63.7536 67.343 64.1159 66.7055 64.1763 66.068C64.2366 65.4305 64.0555 64.7931 63.5725 64.2715Z" fill="#F2C444"/>
<path d="M67.0143 68.269C66.3502 68.7326 65.6257 68.9064 64.9012 68.8485C64.1767 68.7326 63.573 68.3849 63.1504 67.8053C64.2975 66.936 66.0483 67.1679 67.0143 68.269Z" fill="#F2C444"/>
<path d="M64.9622 62.9956C64.4793 63.4013 64.2378 64.0388 64.2378 64.6762C64.1774 65.3137 64.3585 65.9512 64.8415 66.5307C65.4452 66.1251 65.6867 65.4296 65.7471 64.7921C65.7471 64.2126 65.5056 63.5172 64.9622 62.9956Z" fill="#F2C444"/>
<path d="M68.7049 66.8206C68.1011 67.3422 67.3767 67.574 66.7126 67.574C65.9881 67.5161 65.324 67.1684 64.9014 66.5888C65.5051 66.1832 66.1692 65.9513 66.8333 66.0093C67.4974 66.0093 68.2219 66.2991 68.7049 66.8206Z" fill="#F2C444"/>
<path d="M66.3508 61.7212C65.9282 62.1848 65.7471 62.8223 65.7471 63.4598C65.7471 64.0973 65.9886 64.7347 66.5319 65.2563C67.0753 64.7927 67.3771 64.1552 67.3168 63.5177C67.196 62.8223 66.8942 62.1848 66.3508 61.7212Z" fill="#F2C444"/>
<path d="M70.3356 65.1975C69.7922 65.777 69.1281 66.0668 68.3432 66.0668C67.6188 66.0668 66.9547 65.777 66.4717 65.2555C67.015 64.7918 67.7395 64.56 68.4036 64.56C69.0677 64.5021 69.7922 64.7339 70.3356 65.1975Z" fill="#F2C444"/>
<path d="M67.5589 60.3301C67.1966 60.8517 67.0155 61.4312 67.0759 62.0687C67.1363 62.7061 67.4381 63.3436 67.9815 63.8652C68.4645 63.3436 68.706 62.7061 68.6456 62.0687C68.5249 61.3732 68.1626 60.7357 67.5589 60.3301Z" fill="#F2C444"/>
<path d="M71.8463 63.5173C71.3633 64.1548 70.6388 64.4446 69.9144 64.5025C69.1899 64.5605 68.5258 64.3286 67.9824 63.8071C68.4654 63.2855 69.1295 62.9957 69.854 62.9957C70.5181 62.9378 71.2426 63.1116 71.8463 63.5173Z" fill="#F2C444"/>
<path d="M68.7048 58.8228C67.92 59.808 68.2218 61.3727 69.3689 62.2999C70.2745 61.1988 69.9727 59.6341 68.7048 58.8228Z" fill="#F2C444"/>
<path d="M73.1725 61.7785C72.6895 62.416 72.0254 62.7637 71.3009 62.8796C70.6368 62.9955 69.9123 62.8216 69.3086 62.358C70.2142 61.2569 71.965 60.9671 73.1725 61.7785Z" fill="#F2C444"/>
<path d="M69.6711 57.2583C69.3089 57.7799 69.3089 58.4174 69.4296 59.0548C69.6108 59.6923 69.973 60.2718 70.5767 60.6775C70.8182 60.3877 70.939 60.098 70.939 59.7503C70.9993 59.4026 70.939 59.1128 70.8786 58.7651C70.7578 58.1855 70.3352 57.664 69.6711 57.2583Z" fill="#F2C444"/>
<path d="M74.3797 59.8663C73.9571 60.5038 73.3533 60.9674 72.6289 61.1413C71.9648 61.3151 71.1799 61.1413 70.5762 60.7356C70.8177 60.4458 71.0592 60.214 71.3006 60.0402C71.6025 59.8663 71.9044 59.6924 72.2062 59.6345C72.9911 59.4606 73.7156 59.5186 74.3797 59.8663Z" fill="#F2C444"/>
<path d="M70.5765 55.6353C70.4557 55.925 70.3953 56.2148 70.335 56.5045C70.335 56.7943 70.3953 57.142 70.4557 57.4318C70.6368 58.0113 71.0594 58.5908 71.7235 58.9386C71.9047 58.6488 72.0254 58.3011 72.0858 58.0113C72.1462 57.6636 72.0254 57.3738 71.965 57.0261C71.7235 56.5045 71.2406 55.983 70.5765 55.6353Z" fill="#F2C444"/>
<path d="M75.4661 57.8952C75.285 58.2429 75.0435 58.5327 74.802 58.7645C74.5605 58.9963 74.1983 59.1702 73.8964 59.2861C73.2323 59.4599 72.4475 59.402 71.8438 58.9963C72.0249 58.7065 72.2664 58.4747 72.5682 58.2429C72.8701 58.0111 73.1116 57.8952 73.4738 57.7793C74.0172 57.6054 74.802 57.6054 75.4661 57.8952Z" fill="#F2C444"/>
<path d="M71.3014 53.9551C71.1807 54.2448 71.1807 54.5926 71.1807 54.8823C71.1807 55.1721 71.241 55.4618 71.3618 55.7516C71.6033 56.3311 72.0863 56.8527 72.7504 57.2004C73.0522 56.563 73.1126 55.8675 72.8107 55.288C72.5692 54.7085 72.0259 54.2448 71.3014 53.9551Z" fill="#F2C444"/>
<path d="M76.3716 55.8678C76.2508 56.2155 76.0697 56.5632 75.7679 56.795C75.466 57.0268 75.1641 57.2007 74.8623 57.3745C74.1982 57.6063 73.4737 57.6063 72.8096 57.2586C73.1114 56.6211 73.7152 56.2155 74.3189 55.9257C74.9226 55.6359 75.6471 55.578 76.3716 55.8678Z" fill="#F2C444"/>
<path d="M71.9661 52.2749C71.785 52.8544 71.8454 53.4919 72.1473 54.0714C72.4491 54.651 72.9925 55.1725 73.6566 55.4044C73.8981 54.7669 73.8377 54.0714 73.5358 53.4919C73.234 52.9124 72.6906 52.4488 71.9661 52.2749Z" fill="#F2C444"/>
<path d="M77.1579 53.7805C76.9164 54.5339 76.373 55.0555 75.7089 55.3453C75.0448 55.635 74.3204 55.693 73.6562 55.4032C73.8977 54.7657 74.4411 54.2442 75.0448 53.9544C75.7089 53.6646 76.4334 53.5487 77.1579 53.7805Z" fill="#F2C444"/>
<path d="M72.449 50.478C72.2679 51.1155 72.449 51.695 72.8112 52.2746C73.1735 52.7961 73.7168 53.2598 74.4413 53.4916C74.562 53.1439 74.562 52.7961 74.5017 52.5064C74.4413 52.1587 74.3206 51.8689 74.1394 51.5791C73.7772 51.0576 73.1735 50.6519 72.449 50.478Z" fill="#F2C444"/>
<path d="M77.7014 51.6371C77.5203 52.3904 77.0373 52.97 76.4336 53.3177C75.8298 53.6654 75.1053 53.7234 74.3809 53.4915C74.5016 53.1438 74.6827 52.8541 74.8638 52.6223C75.045 52.3904 75.3468 52.1586 75.6487 51.9848C76.2524 51.6371 76.9769 51.4632 77.7014 51.6371Z" fill="#F2C444"/>
<path d="M72.7492 48.6816C72.6284 49.3191 72.8699 49.8986 73.2322 50.4202C73.5944 50.9418 74.1981 51.3475 74.9226 51.5213C75.0434 51.1736 75.0434 50.8259 74.983 50.5361C74.9226 50.1884 74.7415 49.8986 74.5604 49.6668C74.1378 49.1453 73.534 48.7975 72.7492 48.6816Z" fill="#F2C444"/>
<path d="M78.1246 49.4346C78.0038 50.188 77.6416 50.8255 76.9775 51.2312C76.3738 51.5789 75.6493 51.7527 74.9248 51.5789C75.0456 51.2312 75.1663 50.9414 75.4078 50.6516C75.5889 50.3619 75.8304 50.1301 76.1323 49.9562C76.6756 49.5505 77.4001 49.3187 78.1246 49.4346Z" fill="#F2C444"/>
<path d="M39.3644 69.0806C39.6663 69.1385 39.9681 69.3124 40.2096 69.4862C40.4511 69.6601 40.6926 69.8919 40.8737 70.1237C41.236 70.6453 41.4171 71.3407 41.2963 72.0362C40.5719 71.9203 39.9681 71.5725 39.6059 70.993C39.304 70.4714 39.1833 69.776 39.3644 69.0806Z" fill="#F2C444"/>
<path d="M38.0977 74.1225C38.4599 74.2384 38.8825 74.2384 39.2447 74.1804C39.607 74.1225 39.9692 73.9486 40.2711 73.7747C40.8748 73.3691 41.2371 72.7895 41.3578 72.0941C40.6333 71.9782 39.9089 72.21 39.3655 72.5577C38.7014 72.9055 38.2184 73.427 38.0977 74.1225Z" fill="#F2C444"/>
<path d="M37.493 68.6172C37.7949 68.7331 38.0967 68.849 38.3382 69.0808C38.5797 69.2547 38.7608 69.5444 38.942 69.7762C39.2438 70.3558 39.3646 71.0512 39.2438 71.7466C38.5193 71.5728 37.976 71.1092 37.6741 70.5876C37.3119 70.0081 37.3119 69.2547 37.493 68.6172Z" fill="#F2C444"/>
<path d="M35.8633 73.5428C36.2255 73.6587 36.6481 73.7166 37.0104 73.6587C37.3726 73.6007 37.7349 73.4848 38.0367 73.311C38.6405 72.9632 39.0631 72.4417 39.2442 71.6883C38.5197 71.5144 37.8556 71.6303 37.1915 71.978C36.5878 72.3837 36.1048 72.8473 35.8633 73.5428Z" fill="#F2C444"/>
<path d="M35.742 67.98C36.3458 68.2118 36.8287 68.6754 37.0702 69.2549C37.3117 69.8345 37.4325 70.5299 37.191 71.2253C36.4665 70.9935 35.9835 70.4719 35.742 69.8924C35.4402 69.3129 35.4402 68.6175 35.742 67.98Z" fill="#F2C444"/>
<path d="M33.6885 72.7893C34.413 73.0791 35.1978 73.0211 35.8619 72.7314C36.4656 72.4416 37.009 71.92 37.1901 71.2246C36.526 70.9928 35.8015 71.0507 35.1374 71.3405C34.5337 71.6302 33.93 72.0939 33.6885 72.7893Z" fill="#F2C444"/>
<path d="M33.9914 67.2261C34.5952 67.5158 34.9574 68.0374 35.1989 68.6169C35.4404 69.1965 35.4404 69.8919 35.1989 70.5873C34.8367 70.4714 34.5348 70.2976 34.3537 70.0658C34.1122 69.8339 33.9311 69.5442 33.8707 69.1965C33.6292 68.559 33.6896 67.8636 33.9914 67.2261Z" fill="#F2C444"/>
<path d="M31.5742 71.8627C32.2987 72.2104 33.0835 72.2684 33.7477 71.9786C34.4118 71.6889 34.9551 71.2252 35.1966 70.5298C34.8344 70.4139 34.4721 70.356 34.1703 70.356C33.808 70.356 33.5062 70.4139 33.1439 70.5298C32.4798 70.7616 31.9365 71.2252 31.5742 71.8627Z" fill="#F2C444"/>
<path d="M32.3011 66.2988C32.6029 66.4727 32.7841 66.7045 32.9652 66.9363C33.1463 67.1681 33.3274 67.4579 33.3878 67.7476C33.5689 68.3272 33.5085 69.0806 33.2067 69.718C32.9048 69.5442 32.6029 69.3703 32.3614 69.0806C32.12 68.8487 31.9992 68.559 31.9388 68.2113C31.8181 67.6317 31.9388 66.9363 32.3011 66.2988Z" fill="#F2C444"/>
<path d="M29.583 70.7613C29.9452 70.9351 30.3075 71.109 30.6697 71.167C31.032 71.2249 31.3942 71.167 31.7564 71.0511C32.4205 70.8192 33.0243 70.3556 33.3261 69.7181C33.0243 69.5443 32.662 69.4863 32.2998 69.4863C31.9376 69.4863 31.5753 69.5443 31.2735 69.6022C30.549 69.7761 29.9452 70.1818 29.583 70.7613Z" fill="#F2C444"/>
<path d="M30.7306 65.314C30.9721 65.4878 31.2136 65.7196 31.3948 66.0094C31.5759 66.2412 31.6966 66.531 31.757 66.8787C31.8777 67.5162 31.8174 68.2116 31.3948 68.8491C30.791 68.5014 30.3684 67.9218 30.2477 67.2844C30.1269 66.6469 30.308 65.8935 30.7306 65.314Z" fill="#F2C444"/>
<path d="M27.5908 69.6025C27.8927 69.8343 28.2549 69.9502 28.6172 70.0082C28.9794 70.0661 29.3416 70.0661 29.7039 70.0082C30.368 69.8343 30.9717 69.4287 31.334 68.8491C30.7302 68.5014 30.0058 68.3855 29.2813 68.5594C28.6775 68.6753 28.0738 69.023 27.5908 69.6025Z" fill="#F2C444"/>
<path d="M29.1617 64.2715C29.7051 64.6192 30.007 65.1987 30.0673 65.8362C30.1277 66.4737 30.007 67.1691 29.5844 67.7487C28.9806 67.343 28.6184 66.7055 28.558 66.068C28.4976 65.4305 28.7391 64.7931 29.1617 64.2715Z" fill="#F2C444"/>
<path d="M25.7793 68.269C26.4434 68.7326 27.1679 68.9064 27.8924 68.8485C28.6168 68.7326 29.2206 68.3849 29.6432 67.8053C28.4357 66.936 26.7453 67.1679 25.7793 68.269Z" fill="#F2C444"/>
<path d="M27.7731 62.9956C28.2561 63.4013 28.4976 64.0388 28.4976 64.6762C28.558 65.3137 28.3769 65.9512 27.8939 66.5307C27.2901 66.1251 27.0487 65.4296 26.9883 64.7921C26.9883 64.2126 27.2298 63.5172 27.7731 62.9956Z" fill="#F2C444"/>
<path d="M24.0293 66.8206C24.633 67.3422 25.3575 67.574 26.0216 67.574C26.7461 67.5161 27.4102 67.1684 27.8328 66.5888C27.2291 66.1832 26.565 65.9513 25.9009 66.0093C25.2368 66.0093 24.5727 66.2991 24.0293 66.8206Z" fill="#F2C444"/>
<path d="M26.4433 61.7212C26.8659 62.1848 27.0471 62.8223 27.0471 63.4598C27.0471 64.0973 26.8056 64.7347 26.2622 65.2563C25.7188 64.7927 25.417 64.1552 25.4773 63.5177C25.5981 62.8223 25.9 62.1848 26.4433 61.7212Z" fill="#F2C444"/>
<path d="M22.46 65.1975C23.0033 65.777 23.6674 66.0668 24.4523 66.0668C25.1768 66.0668 25.8409 65.777 26.3238 65.2555C25.7805 64.7918 25.056 64.56 24.3919 64.56C23.7278 64.5021 23.0033 64.7339 22.46 65.1975Z" fill="#F2C444"/>
<path d="M25.1759 60.3301C25.5382 60.8517 25.7193 61.4312 25.6589 62.0687C25.5985 62.7061 25.2967 63.3436 24.7533 63.8652C24.2703 63.3436 24.0288 62.7061 24.0892 62.0687C24.2099 61.3732 24.6326 60.7357 25.1759 60.3301Z" fill="#F2C444"/>
<path d="M20.9502 63.5173C21.4332 64.1548 22.1577 64.4446 22.8821 64.5025C23.6066 64.5605 24.2707 64.3286 24.8141 63.8071C24.3311 63.2855 23.667 62.9957 22.9425 62.9957C22.2784 62.9378 21.5539 63.1116 20.9502 63.5173Z" fill="#F2C444"/>
<path d="M24.0903 58.8228C24.8752 59.808 24.5733 61.3727 23.4262 62.2999C22.5206 61.1988 22.8225 59.6341 24.0903 58.8228Z" fill="#F2C444"/>
<path d="M19.5625 61.7785C20.0455 62.416 20.7096 62.7637 21.4341 62.8796C22.0982 62.9955 22.8227 62.8216 23.4264 62.358C22.5208 61.2569 20.8303 60.9671 19.5625 61.7785Z" fill="#F2C444"/>
<path d="M23.0634 57.2583C23.4256 57.7799 23.4256 58.4174 23.3048 59.0548C23.1237 59.6923 22.7615 60.2718 22.1578 60.6775C21.9163 60.3877 21.7955 60.098 21.7955 59.7503C21.7351 59.4026 21.7955 59.1128 21.8559 58.7651C21.9766 58.1855 22.3992 57.664 23.0634 57.2583Z" fill="#F2C444"/>
<path d="M18.3545 59.8663C18.7771 60.5038 19.3808 60.9674 20.1053 61.1413C20.7694 61.3151 21.5543 61.1413 22.158 60.7356C21.9165 60.4458 21.675 60.214 21.4335 60.0402C21.1317 59.8663 20.8298 59.6924 20.5279 59.6345C19.7431 59.4606 19.0186 59.5186 18.3545 59.8663Z" fill="#F2C444"/>
<path d="M22.2182 55.6353C22.3389 55.925 22.3993 56.2148 22.4597 56.5045C22.4597 56.7943 22.3993 57.142 22.3389 57.4318C22.1578 58.0113 21.7352 58.5908 21.0711 58.9386C20.89 58.6488 20.7692 58.3011 20.7088 58.0113C20.6485 57.6636 20.7692 57.3738 20.8296 57.0261C21.0107 56.5045 21.5541 55.983 22.2182 55.6353Z" fill="#F2C444"/>
<path d="M17.3271 57.8952C17.5083 58.2429 17.7498 58.5327 17.9913 58.7645C18.2327 58.9963 18.595 59.1702 18.8969 59.2861C19.561 59.4599 20.3458 59.402 20.9495 58.9963C20.7684 58.7065 20.5269 58.4747 20.2251 58.2429C19.9232 58.0111 19.6817 57.8952 19.3195 57.7793C18.7157 57.6054 17.9913 57.6054 17.3271 57.8952Z" fill="#F2C444"/>
<path d="M21.4324 53.9551C21.5532 54.2448 21.5531 54.5926 21.5531 54.8823C21.5531 55.1721 21.4928 55.4618 21.372 55.7516C21.1305 56.3311 20.6476 56.8527 19.9834 57.2004C19.6816 56.563 19.6212 55.8675 19.9231 55.288C20.2249 54.7085 20.7683 54.2448 21.4324 53.9551Z" fill="#F2C444"/>
<path d="M16.4238 55.8678C16.5446 56.2155 16.7257 56.5632 17.0276 56.795C17.3294 57.0268 17.6313 57.2007 17.9332 57.3745C18.5973 57.6063 19.3217 57.6063 19.9858 57.2586C19.684 56.6211 19.0803 56.2155 18.4765 55.9257C17.8124 55.6359 17.0879 55.578 16.4238 55.8678Z" fill="#F2C444"/>
<path d="M20.8287 52.2749C21.0098 52.8544 20.9495 53.4919 20.6476 54.0714C20.3457 54.651 19.8024 55.1725 19.1383 55.4044C18.8968 54.7669 18.9571 54.0714 19.259 53.4919C19.5005 52.9124 20.1042 52.4488 20.8287 52.2749Z" fill="#F2C444"/>
<path d="M15.6377 53.7805C15.8792 54.5339 16.4225 55.0555 17.0867 55.3453C17.7508 55.635 18.4752 55.693 19.1393 55.4032C18.8979 54.7657 18.3545 54.2442 17.7508 53.9544C17.0867 53.6646 16.3018 53.5487 15.6377 53.7805Z" fill="#F2C444"/>
<path d="M20.3472 50.478C20.5283 51.1155 20.3472 51.695 19.985 52.2746C19.6228 52.7961 19.0794 53.2598 18.3549 53.4916C18.2342 53.1439 18.2342 52.7961 18.2945 52.5064C18.3549 52.1587 18.4757 51.8689 18.6568 51.5791C19.019 51.0576 19.6227 50.6519 20.3472 50.478Z" fill="#F2C444"/>
<path d="M15.0342 51.6371C15.2153 52.3904 15.6983 52.97 16.302 53.3177C16.9058 53.6654 17.6302 53.7234 18.3547 53.4915C18.234 53.1438 18.0528 52.8541 17.8717 52.6223C17.6906 52.3904 17.3887 52.1586 17.0869 51.9848C16.5435 51.6371 15.7587 51.4632 15.0342 51.6371Z" fill="#F2C444"/>
<path d="M19.9844 48.6816C20.1052 49.3191 19.8637 49.8986 19.5014 50.4202C19.1392 50.9418 18.5354 51.3475 17.811 51.5213C17.6902 51.1736 17.6902 50.8259 17.7506 50.5361C17.811 50.1884 17.9921 49.8986 18.1732 49.6668C18.5958 49.1453 19.2599 48.7975 19.9844 48.6816Z" fill="#F2C444"/>
<path d="M14.6113 49.4346C14.7321 50.188 15.0943 50.8255 15.7584 51.2312C16.3622 51.5789 17.0866 51.7527 17.8111 51.5789C17.6904 51.2312 17.5696 50.9414 17.3281 50.6516C17.147 50.3619 16.9055 50.1301 16.6036 49.9562C16.1207 49.5505 15.3962 49.3187 14.6113 49.4346Z" fill="#F2C444"/>
<path d="M49.6276 70.7607C49.8087 70.5868 49.6879 70.355 49.4464 70.2971L47.6352 70.0653C47.5145 70.0653 47.4541 70.0073 47.4541 69.8914L46.6089 68.3267C46.4881 68.1528 46.1863 68.1528 46.1259 68.3267L45.2807 69.8914C45.2203 69.9494 45.1599 70.0073 45.0996 70.0653L43.2884 70.2971C43.0469 70.355 42.9865 70.5868 43.1072 70.7607L44.4355 71.9777C44.4958 72.0357 44.5562 72.1516 44.4958 72.2095L44.194 73.9481C44.1336 74.1799 44.3751 74.3538 44.6166 74.2379L46.2467 73.4265C46.307 73.3686 46.4278 73.3686 46.4882 73.4265L48.1182 74.2379C48.2993 74.3538 48.5408 74.1799 48.5408 73.9481L48.239 72.2095C48.239 72.0936 48.239 72.0357 48.2993 71.9777L49.6276 70.7607Z" fill="#F2C444"/>
<path d="M39.8462 21.4219C40.1481 21.3639 40.45 21.1901 40.6915 21.0162C40.9329 20.8423 41.1744 20.6105 41.3556 20.3787C41.7178 19.8571 41.8989 19.1617 41.7782 18.4663C41.0537 18.5822 40.45 18.9299 40.0877 19.5094C39.7859 20.031 39.6651 20.7264 39.8462 21.4219Z" fill="#F2C444"/>
<path d="M38.5787 16.38C38.941 16.2641 39.3636 16.2641 39.7258 16.322C40.088 16.38 40.4503 16.5538 40.7521 16.7277C41.3559 17.1334 41.7181 17.7129 41.8389 18.4083C41.1144 18.5242 40.3899 18.2924 39.8465 17.9447C39.2428 17.597 38.7598 17.0754 38.5787 16.38Z" fill="#F2C444"/>
<path d="M38.0359 21.8857C38.3378 21.7698 38.6396 21.6539 38.8811 21.4221C39.1226 21.2483 39.3038 20.9585 39.4849 20.7267C39.7867 20.1472 39.9075 19.4517 39.7867 18.7563C39.0623 18.9302 38.5189 19.3938 38.217 19.9153C37.8548 20.4949 37.7944 21.2483 38.0359 21.8857Z" fill="#F2C444"/>
<path d="M36.3457 16.9602C36.7079 16.8443 37.1305 16.7863 37.4927 16.8443C37.855 16.9022 38.2172 17.0181 38.5191 17.192C39.1228 17.5397 39.5454 18.0613 39.7266 18.8147C39.0021 18.9885 38.338 18.8726 37.6739 18.5249C37.0701 18.1192 36.5872 17.6556 36.3457 16.9602Z" fill="#F2C444"/>
<path d="M36.2251 22.5229C36.8288 22.2911 37.3118 21.8275 37.5533 21.248C37.7948 20.6685 37.9155 19.973 37.674 19.2776C36.9496 19.5094 36.4666 20.031 36.2251 20.6105C35.9836 21.19 35.9836 21.8855 36.2251 22.5229Z" fill="#F2C444"/>
<path d="M34.1712 17.7131C34.8957 17.4234 35.6805 17.4813 36.3446 17.7711C36.9484 18.0609 37.4917 18.5824 37.6729 19.2779C37.0087 19.5097 36.2843 19.4517 35.6202 19.162C35.0164 18.8722 34.4731 18.4086 34.1712 17.7131Z" fill="#F2C444"/>
<path d="M34.5343 23.2764C35.138 22.9866 35.5002 22.465 35.7417 21.8855C35.9832 21.306 35.9832 20.6105 35.7417 19.9151C35.3795 20.031 35.0776 20.2049 34.8965 20.4367C34.655 20.6685 34.4739 20.9583 34.4135 21.306C34.1117 21.9435 34.172 22.6389 34.5343 23.2764Z" fill="#F2C444"/>
<path d="M32.1198 18.6402C32.8443 18.2925 33.6291 18.2345 34.2932 18.5243C34.9573 18.8141 35.5007 19.2777 35.7422 19.9731C35.3799 20.089 35.0177 20.147 34.7158 20.147C34.3536 20.147 34.0517 20.089 33.6895 19.9731C33.0254 19.7413 32.4217 19.2777 32.1198 18.6402Z" fill="#F2C444"/>
<path d="M32.8446 24.2036C33.1465 24.0298 33.3276 23.7979 33.5087 23.5661C33.6898 23.3343 33.871 23.0446 33.9313 22.7548C34.1124 22.1753 34.0521 21.4219 33.7502 20.7844C33.4483 20.9583 33.1465 21.1321 32.905 21.4219C32.6635 21.6537 32.5427 21.9435 32.4824 22.2912C32.3616 22.8707 32.4824 23.5661 32.8446 24.2036Z" fill="#F2C444"/>
<path d="M30.0655 19.7412C30.4277 19.5673 30.7899 19.3934 31.1522 19.3355C31.5144 19.2775 31.8767 19.3355 32.2389 19.4514C32.903 19.6832 33.5067 20.1468 33.8086 20.7843C33.5067 20.9582 33.1445 21.0161 32.7823 21.0161C32.42 21.0161 32.0578 20.9582 31.7559 20.9002C31.0918 20.7264 30.4277 20.3207 30.0655 19.7412Z" fill="#F2C444"/>
<path d="M31.2136 25.189C31.4551 25.0151 31.6966 24.7833 31.8777 24.4935C32.0589 24.2617 32.1796 23.972 32.24 23.6242C32.3607 22.9868 32.3004 22.2913 31.8777 21.6538C31.274 22.0016 30.8514 22.5811 30.7307 23.2186C30.6099 23.8561 30.791 24.6094 31.2136 25.189Z" fill="#F2C444"/>
<path d="M28.1338 20.8999C28.4357 20.6681 28.7979 20.5522 29.1602 20.4943C29.5224 20.4363 29.8846 20.4363 30.2469 20.4943C30.911 20.6681 31.5147 21.0738 31.877 21.6533C31.2732 22.001 30.5487 22.1169 29.8243 21.9431C29.1602 21.8272 28.5564 21.4795 28.1338 20.8999Z" fill="#F2C444"/>
<path d="M29.7048 26.2314C30.2482 25.8837 30.5501 25.3042 30.6104 24.6667C30.6708 24.0292 30.55 23.3338 30.1274 22.7543C29.5237 23.1599 29.1615 23.7974 29.1011 24.4349C29.0407 25.0724 29.2218 25.7099 29.7048 26.2314Z" fill="#F2C444"/>
<path d="M26.2631 22.234C26.9272 21.7704 27.6516 21.5965 28.3761 21.6544C29.1006 21.7704 29.7043 22.1181 30.127 22.6976C28.9799 23.5669 27.229 23.3351 26.2631 22.234Z" fill="#F2C444"/>
<path d="M28.3161 27.5068C28.7991 27.1012 29.0406 26.4637 29.0406 25.8262C29.1009 25.1887 28.9198 24.5512 28.4368 23.9717C27.8331 24.3774 27.5916 25.0728 27.5312 25.7103C27.5312 26.2898 27.7727 26.9853 28.3161 27.5068Z" fill="#F2C444"/>
<path d="M24.5725 23.6823C25.1762 23.1607 25.9007 22.9289 26.5648 22.9289C27.2893 22.9869 27.9534 23.3346 28.376 23.9141C27.7722 24.3198 27.1081 24.5516 26.444 24.4936C25.7799 24.4936 25.0555 24.2039 24.5725 23.6823Z" fill="#F2C444"/>
<path d="M26.9275 28.7817C27.3501 28.3181 27.5313 27.6806 27.5313 27.0432C27.5313 26.4057 27.2898 25.7682 26.7464 25.2466C26.203 25.7102 25.9012 26.3477 25.9615 26.9852C26.0823 27.6806 26.3842 28.3181 26.9275 28.7817Z" fill="#F2C444"/>
<path d="M22.9418 25.3049C23.4851 24.7254 24.1492 24.4356 24.9341 24.4356C25.6586 24.4356 26.3227 24.7254 26.8057 25.247C26.2623 25.7106 25.5378 25.9424 24.8737 25.9424C24.2096 26.0004 23.4851 25.7686 22.9418 25.3049Z" fill="#F2C444"/>
<path d="M25.7185 30.1724C26.0807 29.6508 26.2618 29.0713 26.2015 28.4338C26.1411 27.7963 25.8392 27.1588 25.2959 26.6372C24.8129 27.1588 24.5714 27.7963 24.6317 28.4338C24.7525 29.1292 25.1147 29.7667 25.7185 30.1724Z" fill="#F2C444"/>
<path d="M21.432 26.9856C21.915 26.3481 22.6395 26.0584 23.364 26.0004C24.0884 25.9425 24.7525 26.1743 25.2959 26.6959C24.8129 27.2174 24.1488 27.5072 23.4243 27.5072C22.7602 27.5652 22.0357 27.3913 21.432 26.9856Z" fill="#F2C444"/>
<path d="M24.5725 31.6792C25.3574 30.694 25.0555 29.1293 23.9084 28.202C23.0028 29.3031 23.3047 30.8679 24.5725 31.6792Z" fill="#F2C444"/>
<path d="M20.1049 28.724C20.5878 28.0865 21.252 27.7388 21.9764 27.6229C22.6405 27.5069 23.365 27.6808 23.9688 28.1444C23.0632 29.2455 21.3123 29.5353 20.1049 28.724Z" fill="#F2C444"/>
<path d="M23.6062 33.2446C23.9685 32.7231 23.9685 32.0856 23.8477 31.4481C23.6666 30.8106 23.3043 30.2311 22.7006 29.8254C22.4591 30.1152 22.3384 30.4049 22.3384 30.7527C22.278 31.1004 22.3384 31.3901 22.3987 31.7379C22.5195 32.3174 22.9421 32.839 23.6062 33.2446Z" fill="#F2C444"/>
<path d="M18.8977 30.6366C19.3203 29.9992 19.924 29.5355 20.6485 29.3617C21.3126 29.1878 22.0974 29.3617 22.7012 29.7673C22.4597 30.0571 22.2182 30.2889 21.9767 30.4628C21.6748 30.6366 21.373 30.8105 21.0711 30.8684C20.2862 31.0423 19.5618 30.9843 18.8977 30.6366Z" fill="#F2C444"/>
<path d="M22.7009 34.8672C22.8216 34.5774 22.882 34.2877 22.9424 33.9979C22.9424 33.7081 22.882 33.3604 22.8216 33.0707C22.6405 32.4911 22.2179 31.9116 21.5538 31.5639C21.3727 31.8536 21.2519 32.2014 21.1916 32.4911C21.1312 32.8388 21.2519 33.1286 21.3123 33.4763C21.5538 33.9979 22.0368 34.5195 22.7009 34.8672Z" fill="#F2C444"/>
<path d="M17.8112 32.6072C17.9923 32.2595 18.2338 31.9698 18.4753 31.7379C18.7168 31.5061 19.079 31.3323 19.3809 31.2164C20.045 31.0425 20.8299 31.1005 21.4336 31.5061C21.2525 31.7959 21.011 32.0277 20.7091 32.2595C20.4073 32.4913 20.1658 32.6072 19.8035 32.7231C19.2602 32.897 18.4753 32.897 17.8112 32.6072Z" fill="#F2C444"/>
<path d="M21.9759 36.5479C22.0967 36.2581 22.0967 35.9104 22.0967 35.6206C22.0967 35.3308 22.0363 35.0411 21.9156 34.7513C21.6741 34.1718 21.1911 33.6502 20.527 33.3025C20.2251 33.94 20.1647 34.6354 20.4666 35.2149C20.7081 35.7945 21.2515 36.2581 21.9759 36.5479Z" fill="#F2C444"/>
<path d="M16.9058 34.6352C17.0265 34.2875 17.2076 33.9397 17.5095 33.7079C17.8113 33.4761 18.1132 33.3023 18.4151 33.1284C19.0792 32.8966 19.8037 32.8966 20.4678 33.2443C20.1659 33.8818 19.5622 34.2875 18.9584 34.5772C18.3547 34.867 17.6302 34.9249 16.9058 34.6352Z" fill="#F2C444"/>
<path d="M21.3122 38.228C21.4933 37.6485 21.4329 37.011 21.1311 36.4315C20.8292 35.852 20.2858 35.3304 19.6217 35.0986C19.3802 35.7361 19.4406 36.4315 19.7425 37.011C20.0443 37.5905 20.5877 38.0542 21.3122 38.228Z" fill="#F2C444"/>
<path d="M16.1194 36.7219C16.3609 35.9685 16.9043 35.4469 17.5684 35.1572C18.2325 34.8674 18.957 34.8095 19.6211 35.0992C19.3796 35.7367 18.8362 36.2583 18.2325 36.548C17.5684 36.8378 16.8439 36.9537 16.1194 36.7219Z" fill="#F2C444"/>
<path d="M20.8293 40.0244C21.0105 39.3869 20.8293 38.8074 20.4671 38.2279C20.1049 37.7063 19.5615 37.2427 18.837 37.0109C18.7163 37.3586 18.7163 37.7063 18.7766 37.9961C18.837 38.3438 18.9578 38.6335 19.1389 38.9233C19.5011 39.4449 20.1049 39.8506 20.8293 40.0244Z" fill="#F2C444"/>
<path d="M15.576 38.8654C15.7571 38.112 16.2401 37.5325 16.8438 37.1848C17.4475 36.837 18.172 36.7791 18.8965 37.0109C18.7757 37.3586 18.5946 37.6484 18.4135 37.8802C18.2324 38.112 17.9305 38.3438 17.6286 38.5177C17.0249 38.8654 16.3004 39.0392 15.576 38.8654Z" fill="#F2C444"/>
<path d="M20.5282 41.8213C20.6489 41.1838 20.4074 40.6043 20.0452 40.0827C19.6829 39.5611 19.0792 39.1555 18.3547 38.9816C18.234 39.3293 18.234 39.677 18.2944 39.9668C18.3547 40.3145 18.5358 40.6043 18.717 40.8361C19.1396 41.3577 19.7433 41.7054 20.5282 41.8213Z" fill="#F2C444"/>
<path d="M15.1528 41.0678C15.2735 40.3144 15.6357 39.677 16.2998 39.2713C16.9036 38.9236 17.6281 38.7497 18.3525 38.9236C18.2318 39.2713 18.111 39.561 17.8696 39.8508C17.6884 40.1406 17.4469 40.3724 17.1451 40.5462C16.6017 40.9519 15.8772 41.1837 15.1528 41.0678Z" fill="#F2C444"/>
<path d="M53.9149 21.4219C53.613 21.3639 53.3112 21.1901 53.0697 21.0162C52.8282 20.8423 52.5867 20.6105 52.4056 20.3787C52.0433 19.8571 51.8622 19.1617 51.983 18.4663C52.7074 18.5822 53.3112 18.9299 53.6734 19.5094C53.9753 20.031 54.096 20.7264 53.9149 21.4219Z" fill="#F2C444"/>
<path d="M55.1816 16.38C54.8194 16.2641 54.3968 16.2641 54.0345 16.322C53.6723 16.38 53.3101 16.5538 53.0082 16.7277C52.4045 17.1334 52.0422 17.7129 51.9215 18.4083C52.646 18.5242 53.3704 18.2924 53.9138 17.9447C54.5779 17.597 55.0609 17.0754 55.1816 16.38Z" fill="#F2C444"/>
<path d="M55.7863 21.8857C55.4844 21.7698 55.1826 21.6539 54.9411 21.4221C54.6996 21.2483 54.5185 20.9585 54.3373 20.7267C54.0355 20.1472 53.9147 19.4517 54.0355 18.7563C54.76 18.9302 55.3033 19.3938 55.6052 19.9153C55.9674 20.4949 55.9674 21.2483 55.7863 21.8857Z" fill="#F2C444"/>
<path d="M57.416 16.9602C57.0538 16.8443 56.6312 16.7863 56.2689 16.8443C55.9067 16.9022 55.5444 17.0181 55.2426 17.192C54.6388 17.5397 54.2162 18.0613 54.0351 18.8147C54.7596 18.9885 55.4237 18.8726 56.0878 18.5249C56.6915 18.1192 57.1745 17.6556 57.416 16.9602Z" fill="#F2C444"/>
<path d="M57.5373 22.5229C56.9335 22.2911 56.4506 21.8275 56.2091 21.248C55.9676 20.6685 55.8468 19.973 56.0883 19.2776C56.8128 19.5094 57.2958 20.031 57.5373 20.6105C57.8391 21.19 57.8391 21.8855 57.5373 22.5229Z" fill="#F2C444"/>
<path d="M59.5908 17.7131C58.8663 17.4234 58.0815 17.4813 57.4174 17.7711C56.8137 18.0609 56.2703 18.5824 56.0892 19.2779C56.7533 19.5097 57.4778 19.4517 58.1419 19.162C58.7456 18.8722 59.3493 18.4086 59.5908 17.7131Z" fill="#F2C444"/>
<path d="M59.2879 23.2764C58.6841 22.9866 58.3219 22.465 58.0804 21.8855C57.8389 21.306 57.8389 20.6105 58.0804 19.9151C58.4426 20.031 58.7445 20.2049 58.9256 20.4367C59.1671 20.6685 59.3482 20.9583 59.4086 21.306C59.6501 21.9435 59.5897 22.6389 59.2879 23.2764Z" fill="#F2C444"/>
<path d="M61.7051 18.6402C60.9806 18.2925 60.1957 18.2345 59.5316 18.5243C58.8675 18.8141 58.3242 19.2777 58.0827 19.9731C58.4449 20.089 58.8072 20.147 59.109 20.147C59.4713 20.147 59.7731 20.089 60.1354 19.9731C60.7995 19.7413 61.3428 19.2777 61.7051 18.6402Z" fill="#F2C444"/>
<path d="M60.9782 24.2036C60.6764 24.0298 60.4952 23.7979 60.3141 23.5661C60.133 23.3343 59.9519 23.0446 59.8915 22.7548C59.7104 22.1753 59.7708 21.4219 60.0726 20.7844C60.3745 20.9583 60.6764 21.1321 60.9178 21.4219C61.1593 21.6537 61.2801 21.9435 61.3405 22.2912C61.4612 22.8707 61.3405 23.5661 60.9782 24.2036Z" fill="#F2C444"/>
<path d="M63.6963 19.7412C63.334 19.5673 62.9718 19.3934 62.6096 19.3355C62.2473 19.2775 61.8851 19.3355 61.5229 19.4514C60.8587 19.6832 60.255 20.1468 59.9531 20.7843C60.255 20.9582 60.6173 21.0161 60.9795 21.0161C61.3417 21.0161 61.704 20.9582 62.0058 20.9002C62.7303 20.7264 63.334 20.3207 63.6963 19.7412Z" fill="#F2C444"/>
<path d="M62.5487 25.189C62.3072 25.0151 62.0657 24.7833 61.8845 24.4935C61.7034 24.2617 61.5827 23.972 61.5223 23.6242C61.4016 22.9868 61.4619 22.2913 61.8845 21.6538C62.4883 22.0016 62.9109 22.5811 63.0316 23.2186C63.1524 23.8561 62.9713 24.6094 62.5487 25.189Z" fill="#F2C444"/>
<path d="M65.6885 20.8999C65.3866 20.6681 65.0244 20.5522 64.6621 20.4943C64.2999 20.4363 63.9377 20.4363 63.5754 20.4943C62.9113 20.6681 62.3076 21.0738 61.9453 21.6533C62.5491 22.001 63.2735 22.1169 63.998 21.9431C64.6018 21.8272 65.2055 21.4795 65.6885 20.8999Z" fill="#F2C444"/>
<path d="M64.1176 26.2314C63.5742 25.8837 63.2723 25.3042 63.212 24.6667C63.1516 24.0292 63.2723 23.3338 63.6949 22.7543C64.2987 23.1599 64.6609 23.7974 64.7213 24.4349C64.7817 25.0724 64.5402 25.7099 64.1176 26.2314Z" fill="#F2C444"/>
<path d="M67.5 22.234C66.8359 21.7704 66.1114 21.5965 65.3869 21.6544C64.6625 21.7704 64.0587 22.1181 63.6361 22.6976C64.8436 23.5669 66.534 23.3351 67.5 22.234Z" fill="#F2C444"/>
<path d="M65.5062 27.5068C65.0232 27.1012 64.7817 26.4637 64.7817 25.8262C64.7213 25.1887 64.9024 24.5512 65.3854 23.9717C65.9891 24.3774 66.2306 25.0728 66.291 25.7103C66.291 26.2898 66.0495 26.9853 65.5062 27.5068Z" fill="#F2C444"/>
<path d="M69.25 23.6823C68.6463 23.1607 67.9218 22.9289 67.2577 22.9289C66.5332 22.9869 65.8691 23.3346 65.4465 23.9141C66.0502 24.3198 66.7143 24.5516 67.3784 24.4936C68.0425 24.4936 68.7066 24.2039 69.25 23.6823Z" fill="#F2C444"/>
<path d="M66.836 28.7817C66.4134 28.3181 66.2322 27.6806 66.2322 27.0432C66.2322 26.4057 66.4737 25.7682 67.0171 25.2466C67.5605 25.7102 67.8623 26.3477 67.802 26.9852C67.6812 27.6806 67.3793 28.3181 66.836 28.7817Z" fill="#F2C444"/>
<path d="M70.8203 25.3049C70.277 24.7254 69.6128 24.4356 68.828 24.4356C68.1035 24.4356 67.4394 24.7254 66.9564 25.247C67.4998 25.7106 68.2243 25.9424 68.8884 25.9424C69.5525 26.0004 70.277 25.7686 70.8203 25.3049Z" fill="#F2C444"/>
<path d="M68.1034 30.1724C67.7411 29.6508 67.56 29.0713 67.6204 28.4338C67.6808 27.7963 67.9826 27.1588 68.526 26.6372C69.009 27.1588 69.2505 27.7963 69.1901 28.4338C69.0694 29.1292 68.6467 29.7667 68.1034 30.1724Z" fill="#F2C444"/>
<path d="M72.3291 26.9856C71.8461 26.3481 71.1216 26.0584 70.3972 26.0004C69.6727 25.9425 69.0086 26.1743 68.4652 26.6959C68.9482 27.2174 69.6123 27.5072 70.3368 27.5072C71.0009 27.5652 71.7254 27.3913 72.3291 26.9856Z" fill="#F2C444"/>
<path d="M69.189 31.6792C68.4041 30.694 68.706 29.1293 69.8531 28.202C70.7587 29.3031 70.4568 30.8679 69.189 31.6792Z" fill="#F2C444"/>
<path d="M73.7168 28.724C73.2338 28.0865 72.5697 27.7388 71.8452 27.6229C71.1811 27.5069 70.4566 27.6808 69.8529 28.1444C70.7585 29.2455 72.449 29.5353 73.7168 28.724Z" fill="#F2C444"/>
<path d="M70.2159 33.2446C69.8537 32.7231 69.8537 32.0856 69.9745 31.4481C70.1556 30.8106 70.5178 30.2311 71.1215 29.8254C71.363 30.1152 71.4838 30.4049 71.4838 30.7527C71.5442 31.1004 71.4838 31.3901 71.4234 31.7379C71.3027 32.3174 70.88 32.839 70.2159 33.2446Z" fill="#F2C444"/>
<path d="M74.9248 30.6366C74.5022 29.9992 73.8985 29.5355 73.174 29.3617C72.5099 29.1878 71.725 29.3617 71.1213 29.7673C71.3628 30.0571 71.6043 30.2889 71.8458 30.4628C72.1476 30.6366 72.4495 30.8105 72.7514 30.8684C73.5362 31.0423 74.2607 30.9843 74.9248 30.6366Z" fill="#F2C444"/>
<path d="M71.0611 34.8672C70.9404 34.5774 70.88 34.2877 70.8196 33.9979C70.8196 33.7081 70.88 33.3604 70.9404 33.0707C71.1215 32.4911 71.5441 31.9116 72.2082 31.5639C72.3893 31.8536 72.5101 32.2014 72.5705 32.4911C72.6308 32.8388 72.5101 33.1286 72.4497 33.4763C72.2686 33.9979 71.7252 34.5195 71.0611 34.8672Z" fill="#F2C444"/>
<path d="M75.9521 32.6072C75.771 32.2595 75.5295 31.9698 75.288 31.7379C75.0465 31.5061 74.6843 31.3323 74.3824 31.2164C73.7183 31.0425 72.9335 31.1005 72.3298 31.5061C72.5109 31.7959 72.7524 32.0277 73.0542 32.2595C73.3561 32.4913 73.5976 32.6072 73.9598 32.7231C74.5636 32.897 75.288 32.897 75.9521 32.6072Z" fill="#F2C444"/>
<path d="M71.8469 36.5479C71.7261 36.2581 71.7261 35.9104 71.7261 35.6206C71.7261 35.3308 71.7865 35.0411 71.9073 34.7513C72.1488 34.1718 72.6317 33.6502 73.2959 33.3025C73.5977 33.94 73.6581 34.6354 73.3562 35.2149C73.0544 35.7945 72.511 36.2581 71.8469 36.5479Z" fill="#F2C444"/>
<path d="M76.8564 34.6352C76.7357 34.2875 76.5546 33.9397 76.2527 33.7079C75.9508 33.4761 75.649 33.3023 75.3471 33.1284C74.683 32.8966 73.9585 32.8966 73.2944 33.2443C73.5963 33.8818 74.2 34.2875 74.8038 34.5772C75.4679 34.867 76.1923 34.9249 76.8564 34.6352Z" fill="#F2C444"/>
<path d="M72.4506 38.228C72.2695 37.6485 72.3298 37.011 72.6317 36.4315C72.9336 35.852 73.4769 35.3304 74.141 35.0986C74.3825 35.7361 74.3221 36.4315 74.0203 37.011C73.7788 37.5905 73.1751 38.0542 72.4506 38.228Z" fill="#F2C444"/>
<path d="M77.6416 36.7219C77.4001 35.9685 76.8567 35.4469 76.1926 35.1572C75.5285 34.8674 74.8041 34.8095 74.14 35.0992C74.3814 35.7367 74.9248 36.2583 75.5285 36.548C76.1926 36.8378 76.9775 36.9537 77.6416 36.7219Z" fill="#F2C444"/>
<path d="M72.933 40.0244C72.7519 39.3869 72.933 38.8074 73.2953 38.2279C73.6575 37.7063 74.2009 37.2427 74.9254 37.0109C75.0461 37.3586 75.0461 37.7063 74.9857 37.9961C74.9254 38.3438 74.8046 38.6335 74.6235 38.9233C74.2613 39.4449 73.6575 39.8506 72.933 40.0244Z" fill="#F2C444"/>
<path d="M78.2451 38.8654C78.064 38.112 77.581 37.5325 76.9773 37.1848C76.3735 36.837 75.6491 36.7791 74.9246 37.0109C75.0453 37.3586 75.2265 37.6484 75.4076 37.8802C75.5887 38.112 75.8906 38.3438 76.1924 38.5177C76.7358 38.8654 77.5206 39.0392 78.2451 38.8654Z" fill="#F2C444"/>
<path d="M73.2949 41.8213C73.1741 41.1838 73.4156 40.6043 73.7779 40.0827C74.1401 39.5611 74.7439 39.1555 75.4683 38.9816C75.5891 39.3293 75.5891 39.677 75.5287 39.9668C75.4683 40.3145 75.2872 40.6043 75.1061 40.8361C74.6835 41.3577 74.0194 41.7054 73.2949 41.8213Z" fill="#F2C444"/>
<path d="M78.668 41.0678C78.5472 40.3144 78.185 39.677 77.5209 39.2713C76.9171 38.9236 76.1927 38.7497 75.4682 38.9236C75.5889 39.2713 75.7097 39.561 75.9512 39.8508C76.1323 40.1406 76.3738 40.3724 76.6757 40.5462C77.1586 40.9519 77.8831 41.1837 78.668 41.0678Z" fill="#F2C444"/>
<path d="M43.6517 19.7417C43.4706 19.9156 43.5914 20.1474 43.8329 20.2054L45.6441 20.4372C45.7648 20.4372 45.8252 20.4951 45.8252 20.611L46.6704 22.1758C46.7911 22.3496 47.093 22.3496 47.1534 22.1758L47.9986 20.611C48.059 20.5531 48.1194 20.4951 48.1797 20.4372L49.9909 20.2054C50.2324 20.1474 50.2928 19.9156 50.172 19.7417L48.8438 18.5247C48.7835 18.4668 48.7231 18.3509 48.7835 18.2929L49.0853 16.5543C49.1457 16.3225 48.9042 16.1487 48.6627 16.2646L47.0326 17.0759C46.9723 17.1339 46.8515 17.1339 46.7911 17.0759L45.1611 16.2646C44.98 16.1487 44.7385 16.3225 44.7385 16.5543L45.0403 18.2929C45.0403 18.4088 45.0403 18.4668 44.9799 18.5247L43.6517 19.7417Z" fill="#F2C444"/>
</svg>