<svg width="84" height="81" viewBox="0 0 84 81" fill="none" xmlns="http://www.w3.org/2000/svg">
<ellipse cx="41" cy="41" rx="40" ry="38" fill="#C4C4C4"/>
<path d="M81.9394 40.5C81.9394 41.7868 80.6527 43.0736 80.5172 44.3604C80.3818 45.6472 81.3976 47.1371 81.1267 48.4239C80.8558 49.7107 79.3659 50.6589 79.0273 51.9456C78.6209 53.2324 79.3659 54.8579 78.8241 56.0092C78.35 57.2283 76.6568 57.9055 76.0473 58.9891C75.4378 60.1405 75.7764 61.9013 75.0992 62.9849C74.3542 64.0686 72.5933 64.4072 71.7806 65.4231C70.9679 66.439 70.9679 68.1998 70.0874 69.148C69.1393 70.0961 67.3784 70.0284 66.3625 70.8411C65.3466 71.6538 65.008 73.4147 63.9244 74.1597C62.8408 74.9047 61.0799 74.4983 59.9286 75.1079C58.7773 75.7174 58.1 77.4105 56.9487 77.8846C55.7296 78.3587 54.1042 77.6814 52.8851 78.0878C51.666 78.4941 50.6502 79.9841 49.3634 80.1873C48.0766 80.4582 46.6543 79.4423 45.2998 79.5778C44.013 79.7132 42.794 81 41.4395 81C40.1527 81 38.8659 79.7132 37.5791 79.5778C36.2923 79.4423 34.8023 80.4582 33.5155 80.1873C32.2288 79.9164 31.2806 78.4264 29.9938 78.0878C28.707 77.6814 27.0816 78.4264 25.9303 77.8846C24.7112 77.4105 24.0339 75.7174 22.9503 75.1079C21.799 74.4983 20.0381 74.837 18.9545 74.1597C17.8709 73.4147 17.5323 71.6538 16.5164 70.8411C15.5005 70.0284 13.7396 70.0284 12.7915 69.148C11.8433 68.1998 11.911 66.439 11.0983 65.4231C10.2856 64.4072 8.52474 64.0686 7.77975 62.9849C7.03477 61.9013 7.44113 60.1405 6.83159 58.9891C6.22206 57.8378 4.52892 57.1605 4.05484 56.0092C3.58076 54.7901 4.25802 53.1647 3.85166 51.9456C3.44531 50.7266 1.95534 49.7107 1.75216 48.4239C1.48126 47.1371 2.49715 45.7149 2.36169 44.3604C2.22624 43.0736 0.939453 41.8545 0.939453 40.5C0.939453 39.2132 2.22624 37.9264 2.36169 36.6396C2.49715 35.3528 1.48126 33.8629 1.75216 32.5761C2.02307 31.2893 3.51303 30.3411 3.85166 29.0543C4.25802 27.7676 3.51303 26.1421 4.05484 24.9908C4.52892 23.7717 6.22206 23.0945 6.83159 22.0109C7.44113 20.8595 7.1025 19.0987 7.77975 18.015C8.52474 16.9314 10.2856 16.5928 11.0983 15.5769C11.911 14.561 11.911 12.8002 12.7915 11.852C13.7396 10.9038 15.5005 10.9716 16.5164 10.1589C17.5323 9.34615 17.8709 7.58528 18.9545 6.8403C20.0381 6.09532 21.799 6.50167 22.9503 5.89214C24.1017 5.28261 24.7789 3.58946 25.9303 3.11538C27.1493 2.6413 28.7747 3.31856 29.9938 2.91221C31.2129 2.50585 32.2288 1.01589 33.5155 0.812709C34.8023 0.541806 36.2246 1.55769 37.5791 1.42224C38.8659 1.28679 40.0849 0 41.4395 0C42.7262 0 44.013 1.28679 45.2998 1.42224C46.5866 1.55769 48.0766 0.541806 49.3634 0.812709C50.6502 1.08361 51.5983 2.57358 52.8851 2.91221C54.1719 3.31856 55.7973 2.57358 56.9487 3.11538C58.1677 3.58946 58.845 5.28261 59.9286 5.89214C61.0799 6.50167 62.8408 6.16304 63.9244 6.8403C65.008 7.58528 65.3466 9.34615 66.3625 10.1589C67.3784 10.9716 69.1393 10.9716 70.0874 11.852C71.0356 12.8002 70.9679 14.561 71.7806 15.5769C72.5933 16.5928 74.3542 16.9314 75.0992 18.015C75.8441 19.0987 75.4378 20.8595 76.0473 22.0109C76.6568 23.1622 78.35 23.8395 78.8241 24.9908C79.2981 26.2099 78.6209 27.8353 79.0273 29.0543C79.4336 30.2734 80.9236 31.2893 81.1267 32.5761C81.3976 33.8629 80.3818 35.2851 80.5172 36.6396C80.6527 37.9264 81.9394 39.1455 81.9394 40.5Z" fill="#C7D5DB"/>
<path d="M78.7561 40.5C78.7561 61.0886 62.0956 77.7492 41.507 77.7492C39.8138 77.7492 38.1884 77.6137 36.563 77.4105C34.1926 77.0719 31.8899 76.5301 29.655 75.7851C26.675 74.7692 23.8983 73.4147 21.3247 71.7893C17.1934 69.148 13.6717 65.694 10.8949 61.6981C6.69594 55.6706 4.25781 48.3562 4.25781 40.4323C4.25781 21.1982 18.8188 5.35033 37.5112 3.38628C38.7979 3.25083 40.1525 3.18311 41.4392 3.18311C45.0964 3.18311 48.6182 3.72491 51.9367 4.67307C54.9167 5.55351 57.7612 6.77257 60.4025 8.33026C62.4342 9.54932 64.3983 10.9038 66.1591 12.5293C73.8799 19.4373 78.7561 29.393 78.7561 40.5Z" fill="#F2C444"/>
<path d="M40.8964 29.0545L52.0035 4.74094C48.6849 3.79278 45.1632 3.25098 41.506 3.25098C40.1515 3.25098 38.8647 3.3187 37.5779 3.45415L25.8613 29.0545H40.8964Z" fill="#E08E2B"/>
<path d="M15.0935 52.623L10.8945 61.766C13.6713 65.7618 17.193 69.2159 21.3243 71.8572L30.1286 52.6908H15.0935V52.623Z" fill="#E08E2B"/>
<path d="M58.6413 29.0548L66.1588 12.5974C64.398 11.0397 62.5017 9.6175 60.4022 8.39844L50.9883 29.0548H58.6413Z" fill="#FFED8A"/>
<path d="M40.2872 52.623L29.6543 75.853C31.8892 76.598 34.1919 77.1398 36.5623 77.4784L47.8725 52.6908H40.2872V52.623Z" fill="#FFED8A"/>
<path d="M71.7131 30.6117C67.5819 17.8793 55.5944 8.73633 41.5074 8.73633C27.4205 8.73633 15.5008 17.8793 11.3018 30.6117H71.7131Z" fill="white"/>
<path d="M11.3018 50.3203C15.433 63.0528 27.4205 72.1957 41.5074 72.1957C55.5944 72.1957 67.5819 62.985 71.7131 50.3203H11.3018Z" fill="white"/>
<path d="M13.186 35.732H13.018C12.1873 35.732 11.5387 35.942 11.072 36.362C10.6147 36.7727 10.386 37.5053 10.386 38.56C10.386 38.9053 10.4187 39.148 10.484 39.288C10.5493 39.4187 10.582 39.4933 10.582 39.512C10.078 39.512 9.7 39.4093 9.448 39.204C9.20533 38.9893 9.084 38.6393 9.084 38.154C9.084 37.4913 9.24733 36.8893 9.574 36.348C9.90067 35.7973 10.4187 35.354 11.128 35.018C11.8467 34.682 12.7567 34.514 13.858 34.514C14.474 34.514 15.1367 34.57 15.846 34.682C16.4433 34.7847 16.9753 34.836 17.442 34.836C18.0393 34.836 18.5807 34.738 19.066 34.542C19.0473 35.1487 18.8933 35.5967 18.604 35.886C18.3147 36.1753 17.8853 36.32 17.316 36.32C17.0173 36.32 16.7187 36.2967 16.42 36.25C16.1213 36.2033 15.6967 36.124 15.146 36.012L13.214 45H11.198L13.186 35.732ZM17.7842 45.056C17.0936 45.056 16.5476 44.8787 16.1462 44.524C15.7449 44.1693 15.5442 43.6093 15.5442 42.844C15.5442 42.2093 15.6749 41.5047 15.9362 40.73C16.1976 39.9553 16.6176 39.288 17.1962 38.728C17.7749 38.1587 18.5029 37.874 19.3802 37.874C20.5749 37.874 21.1722 38.6207 21.1722 40.114V40.128C21.2002 40.1373 21.2516 40.142 21.3262 40.142C21.6342 40.142 21.9889 40.0627 22.3902 39.904C22.7916 39.736 23.1556 39.5353 23.4822 39.302L23.6082 39.68C23.3376 39.9693 22.9829 40.2167 22.5442 40.422C22.1149 40.618 21.6436 40.758 21.1302 40.842C21.0556 41.6913 20.8642 42.4333 20.5562 43.068C20.2482 43.7027 19.8516 44.1927 19.3662 44.538C18.8809 44.8833 18.3536 45.056 17.7842 45.056ZM18.3442 43.796C18.5682 43.796 18.7922 43.67 19.0162 43.418C19.2402 43.1567 19.4362 42.8067 19.6042 42.368C19.7722 41.92 19.8936 41.4253 19.9682 40.884C19.7162 40.828 19.5902 40.632 19.5902 40.296C19.5902 39.9133 19.7349 39.6613 20.0242 39.54C20.0056 39.232 19.9589 39.022 19.8842 38.91C19.8096 38.7887 19.6789 38.728 19.4922 38.728C19.1842 38.728 18.8856 38.952 18.5962 39.4C18.3069 39.848 18.0736 40.3847 17.8962 41.01C17.7189 41.6353 17.6302 42.186 17.6302 42.662C17.6302 43.11 17.6816 43.4133 17.7842 43.572C17.8869 43.7213 18.0736 43.796 18.3442 43.796ZM23.5726 45.084C23.0406 45.084 22.5972 44.902 22.2426 44.538C21.8879 44.174 21.7106 43.6047 21.7106 42.83C21.7106 42.1393 21.8459 41.416 22.1166 40.66C22.3966 39.8947 22.8072 39.2507 23.3486 38.728C23.8992 38.196 24.5526 37.93 25.3086 37.93C25.6912 37.93 25.9759 37.9953 26.1626 38.126C26.3492 38.2567 26.4426 38.4293 26.4426 38.644V38.7L27.1286 35.48L29.2006 35.2L27.5906 42.76C27.5532 42.9 27.5346 43.0493 27.5346 43.208C27.5346 43.3947 27.5766 43.53 27.6606 43.614C27.7539 43.6887 27.9032 43.726 28.1086 43.726C28.3699 43.726 28.5939 43.614 28.7806 43.39C28.9766 43.166 29.1306 42.8673 29.2426 42.494H29.8306C29.2612 44.1647 28.3232 45 27.0166 45C26.6339 45 26.3212 44.8973 26.0786 44.692C25.8452 44.4867 25.7006 44.188 25.6446 43.796C25.4019 44.1693 25.1079 44.4773 24.7626 44.72C24.4266 44.9627 24.0299 45.084 23.5726 45.084ZM24.4826 43.726C24.7066 43.726 24.9306 43.6233 25.1546 43.418C25.3879 43.2127 25.5466 42.928 25.6306 42.564V42.494L26.3166 39.288C26.2326 38.9613 26.0412 38.798 25.7426 38.798C25.3692 38.798 25.0332 39.0173 24.7346 39.456C24.4359 39.8853 24.2026 40.408 24.0346 41.024C23.8666 41.6307 23.7826 42.1673 23.7826 42.634C23.7826 43.1007 23.8479 43.3993 23.9786 43.53C24.1186 43.6607 24.2866 43.726 24.4826 43.726ZM31.292 45.056C30.6014 45.056 30.0554 44.8787 29.654 44.524C29.2527 44.1693 29.052 43.6093 29.052 42.844C29.052 42.2093 29.1827 41.5047 29.444 40.73C29.7054 39.9553 30.1254 39.288 30.704 38.728C31.2827 38.1587 32.0107 37.874 32.888 37.874C34.0827 37.874 34.68 38.6207 34.68 40.114V40.128C34.708 40.1373 34.7594 40.142 34.834 40.142C35.142 40.142 35.4967 40.0627 35.898 39.904C36.2994 39.736 36.6634 39.5353 36.99 39.302L37.116 39.68C36.8454 39.9693 36.4907 40.2167 36.052 40.422C35.6227 40.618 35.1514 40.758 34.638 40.842C34.5634 41.6913 34.372 42.4333 34.064 43.068C33.756 43.7027 33.3594 44.1927 32.874 44.538C32.3887 44.8833 31.8614 45.056 31.292 45.056ZM31.852 43.796C32.076 43.796 32.3 43.67 32.524 43.418C32.748 43.1567 32.944 42.8067 33.112 42.368C33.28 41.92 33.4014 41.4253 33.476 40.884C33.224 40.828 33.098 40.632 33.098 40.296C33.098 39.9133 33.2427 39.6613 33.532 39.54C33.5134 39.232 33.4667 39.022 33.392 38.91C33.3174 38.7887 33.1867 38.728 33 38.728C32.692 38.728 32.3934 38.952 32.104 39.4C31.8147 39.848 31.5814 40.3847 31.404 41.01C31.2267 41.6353 31.138 42.186 31.138 42.662C31.138 43.11 31.1894 43.4133 31.292 43.572C31.3947 43.7213 31.5814 43.796 31.852 43.796ZM36.7864 45.084C36.3384 45.084 35.9744 44.944 35.6944 44.664C35.4237 44.384 35.2884 43.964 35.2884 43.404C35.2884 43.1707 35.3257 42.8673 35.4004 42.494L36.2404 38.56H35.7784L35.8904 38H36.3524L36.7724 36.068L38.8444 35.788L38.3684 38H39.2084L39.0964 38.56H38.2564L37.3604 42.76C37.3231 42.9 37.3044 43.0493 37.3044 43.208C37.3044 43.3947 37.3464 43.53 37.4304 43.614C37.5237 43.6887 37.6731 43.726 37.8784 43.726C38.1491 43.726 38.4011 43.614 38.6344 43.39C38.8677 43.1567 39.0357 42.858 39.1384 42.494H39.7264C39.3811 43.502 38.9377 44.188 38.3964 44.552C37.8551 44.9067 37.3184 45.084 36.7864 45.084ZM41.1348 45.084C40.4441 45.084 39.9075 44.9067 39.5248 44.552C39.1421 44.188 38.9508 43.6233 38.9508 42.858C38.9508 42.214 39.0768 41.5047 39.3288 40.73C39.5808 39.9553 39.9915 39.288 40.5608 38.728C41.1301 38.1587 41.8535 37.874 42.7308 37.874C43.7575 37.874 44.2708 38.322 44.2708 39.218C44.2708 39.7407 44.1215 40.2213 43.8228 40.66C43.5241 41.0987 43.1275 41.4533 42.6328 41.724C42.1381 41.9853 41.6108 42.1347 41.0508 42.172C41.0321 42.452 41.0228 42.6387 41.0228 42.732C41.0228 43.1893 41.1021 43.502 41.2608 43.67C41.4195 43.8287 41.6761 43.908 42.0308 43.908C42.5348 43.908 42.9641 43.7913 43.3188 43.558C43.6828 43.3247 44.0795 42.97 44.5088 42.494H44.9848C43.9488 44.2207 42.6655 45.084 41.1348 45.084ZM41.1628 41.5C41.5081 41.4813 41.8348 41.36 42.1428 41.136C42.4601 40.912 42.7121 40.6273 42.8988 40.282C43.0948 39.9367 43.1928 39.5727 43.1928 39.19C43.1928 38.8073 43.0761 38.616 42.8428 38.616C42.5068 38.616 42.1755 38.91 41.8488 39.498C41.5315 40.086 41.3028 40.7533 41.1628 41.5ZM45.4579 38H47.4739L47.2919 38.868C47.6092 38.588 47.8939 38.3733 48.1459 38.224C48.4072 38.0747 48.6872 38 48.9859 38C49.2845 38 49.5179 38.1027 49.6859 38.308C49.8632 38.5133 49.9519 38.7607 49.9519 39.05C49.9519 39.3207 49.8632 39.5587 49.6859 39.764C49.5085 39.9693 49.2612 40.072 48.9439 40.072C48.7385 40.072 48.5985 40.0253 48.5239 39.932C48.4585 39.8293 48.4072 39.6847 48.3699 39.498C48.3419 39.3767 48.3139 39.288 48.2859 39.232C48.2579 39.176 48.2065 39.148 48.1319 39.148C47.9359 39.148 47.7679 39.19 47.6279 39.274C47.4972 39.3487 47.3245 39.484 47.1099 39.68L45.9899 45H43.9739L45.4579 38ZM50.7215 38H52.7375L52.5555 38.868C52.8729 38.588 53.1575 38.3733 53.4095 38.224C53.6709 38.0747 53.9509 38 54.2495 38C54.5482 38 54.7815 38.1027 54.9495 38.308C55.1269 38.5133 55.2155 38.7607 55.2155 39.05C55.2155 39.3207 55.1269 39.5587 54.9495 39.764C54.7722 39.9693 54.5249 40.072 54.2075 40.072C54.0022 40.072 53.8622 40.0253 53.7875 39.932C53.7222 39.8293 53.6709 39.6847 53.6335 39.498C53.6055 39.3767 53.5775 39.288 53.5495 39.232C53.5215 39.176 53.4702 39.148 53.3955 39.148C53.1995 39.148 53.0315 39.19 52.8915 39.274C52.7609 39.3487 52.5882 39.484 52.3735 39.68L51.2535 45H49.2375L50.7215 38ZM57.0352 45.084C56.3445 45.084 55.8079 44.9067 55.4252 44.552C55.0425 44.188 54.8512 43.6233 54.8512 42.858C54.8512 42.214 54.9772 41.5047 55.2292 40.73C55.4812 39.9553 55.8919 39.288 56.4612 38.728C57.0305 38.1587 57.7539 37.874 58.6312 37.874C59.6579 37.874 60.1712 38.322 60.1712 39.218C60.1712 39.7407 60.0219 40.2213 59.7232 40.66C59.4245 41.0987 59.0279 41.4533 58.5332 41.724C58.0385 41.9853 57.5112 42.1347 56.9512 42.172C56.9325 42.452 56.9232 42.6387 56.9232 42.732C56.9232 43.1893 57.0025 43.502 57.1612 43.67C57.3199 43.8287 57.5765 43.908 57.9312 43.908C58.4352 43.908 58.8645 43.7913 59.2192 43.558C59.5832 43.3247 59.9799 42.97 60.4092 42.494H60.8852C59.8492 44.2207 58.5659 45.084 57.0352 45.084ZM57.0632 41.5C57.4085 41.4813 57.7352 41.36 58.0432 41.136C58.3605 40.912 58.6125 40.6273 58.7992 40.282C58.9952 39.9367 59.0932 39.5727 59.0932 39.19C59.0932 38.8073 58.9765 38.616 58.7432 38.616C58.4072 38.616 58.0759 38.91 57.7492 39.498C57.4319 40.086 57.2032 40.7533 57.0632 41.5ZM65.4603 45.084C64.8909 45.084 64.4709 44.9347 64.2003 44.636C63.9389 44.328 63.8083 43.95 63.8083 43.502C63.8083 43.306 63.8316 43.0867 63.8783 42.844C63.9249 42.592 63.9716 42.3493 64.0183 42.116C64.0743 41.8827 64.1116 41.7333 64.1303 41.668C64.2049 41.3413 64.2749 41.0193 64.3403 40.702C64.4056 40.3847 64.4383 40.128 64.4383 39.932C64.4383 39.456 64.2703 39.218 63.9343 39.218C63.6916 39.218 63.4769 39.3393 63.2903 39.582C63.1036 39.8153 62.9543 40.1233 62.8423 40.506L61.8903 45H59.8742L61.3583 38H63.3743L63.2203 38.728C63.6869 38.2053 64.2329 37.944 64.8583 37.944C65.3343 37.944 65.7123 38.0747 65.9923 38.336C66.2723 38.5973 66.4123 38.994 66.4123 39.526C66.4123 39.7967 66.3796 40.1 66.3143 40.436C66.2489 40.7627 66.1556 41.164 66.0343 41.64C65.9596 41.9293 65.8896 42.214 65.8243 42.494C65.7683 42.7647 65.7403 42.9793 65.7403 43.138C65.7403 43.3247 65.7823 43.4693 65.8663 43.572C65.9503 43.6747 66.0949 43.726 66.3003 43.726C66.5803 43.726 66.8043 43.628 66.9723 43.432C67.1403 43.2267 67.3083 42.914 67.4762 42.494H68.0643C67.7189 43.5207 67.3176 44.2113 66.8603 44.566C66.4123 44.9113 65.9456 45.084 65.4603 45.084ZM69.5186 45.056C68.8279 45.056 68.2819 44.8787 67.8806 44.524C67.4793 44.1693 67.2786 43.6093 67.2786 42.844C67.2786 42.2 67.4046 41.4953 67.6566 40.73C67.9086 39.9553 68.3193 39.288 68.8886 38.728C69.4579 38.1587 70.1859 37.874 71.0726 37.874C72.1739 37.874 72.7666 38.504 72.8506 39.764C73.0559 39.7173 73.2379 39.6053 73.3966 39.428C73.5553 39.2413 73.7046 39.0313 73.8446 38.798H74.2926C74.0406 39.302 73.8166 39.6987 73.6206 39.988C73.4246 40.268 73.1679 40.4967 72.8506 40.674C72.7946 41.5513 72.6126 42.3213 72.3046 42.984C72.0059 43.6467 71.6139 44.16 71.1286 44.524C70.6433 44.8787 70.1066 45.056 69.5186 45.056ZM70.0786 43.796C70.4239 43.796 70.7459 43.516 71.0446 42.956C71.3433 42.396 71.5486 41.7053 71.6606 40.884C71.4366 40.8 71.3246 40.59 71.3246 40.254C71.3246 39.89 71.4553 39.6473 71.7166 39.526C71.6979 39.2273 71.6466 39.022 71.5626 38.91C71.4879 38.7887 71.3619 38.728 71.1846 38.728C70.8766 38.728 70.5826 38.952 70.3026 39.4C70.0226 39.8387 69.7939 40.3753 69.6166 41.01C69.4486 41.6353 69.3646 42.186 69.3646 42.662C69.3646 43.11 69.4159 43.4133 69.5186 43.572C69.6213 43.7213 69.8079 43.796 70.0786 43.796Z" fill="#182130"/>
<path d="M49.2067 18.4618C49.4781 18.1904 49.3424 17.5119 48.9353 17.5119L45.2716 16.9691C45.1359 16.9691 44.8645 16.8334 44.8645 16.6977L43.2361 13.3053C42.9647 12.8982 42.4219 12.8982 42.2862 13.3053L40.6579 16.6977C40.5222 16.8334 40.3865 16.9691 40.2508 16.9691L36.587 17.5119C36.1799 17.5119 35.9085 18.1904 36.3156 18.4618L39.0295 21.04C39.1652 21.1757 39.1652 21.3114 39.1652 21.5828L38.4868 25.2465C38.3511 25.6536 38.8939 26.0607 39.3009 25.7893L42.5576 24.0253C42.6933 23.8896 42.9647 23.8896 43.1004 24.0253L46.3571 25.7893C46.7642 26.0607 47.307 25.6536 47.1713 25.2465L46.4928 21.5828C46.4928 21.4471 46.4928 21.1757 46.6285 21.04L49.2067 18.4618Z" fill="#C7D5DB"/>
<path d="M57.62 22.125C57.7557 21.9893 57.7557 21.7179 57.4843 21.5822L55.5846 21.3109C55.4489 21.3109 55.4489 21.1752 55.3132 21.1752L54.499 19.5468C54.3633 19.2754 54.0919 19.2754 53.9562 19.5468L53.1421 21.1752C53.1421 21.3109 53.0064 21.3109 52.8707 21.3109L50.9709 21.5822C50.6995 21.5822 50.6995 21.8536 50.8352 22.125L52.1922 23.482C52.1922 23.482 52.3279 23.6177 52.3279 23.7534L52.0565 25.6531C52.0565 25.9245 52.1922 26.0602 52.4636 25.9245L54.0919 25.1103C54.2276 25.1103 54.2276 25.1103 54.3633 25.1103L55.9917 25.9245C56.263 26.0602 56.3987 25.9245 56.3987 25.6531L56.1274 23.7534C56.1274 23.6177 56.1274 23.6177 56.2631 23.482L57.62 22.125Z" fill="#C7D5DB"/>
<path d="M33.8739 22.125C34.0096 21.9893 34.0096 21.7179 33.7382 21.5822L31.8385 21.3109C31.7028 21.3109 31.7028 21.1752 31.5671 21.1752L30.7529 19.5468C30.6172 19.2754 30.3458 19.2754 30.2101 19.5468L29.396 21.1752C29.396 21.3109 29.2603 21.3109 29.1246 21.3109L27.2248 21.5822C26.9534 21.5822 26.9534 21.8536 27.0891 22.125L28.4461 23.482C28.4461 23.482 28.5818 23.6177 28.5818 23.7534L28.3104 25.6531C28.3104 25.9245 28.4461 26.0602 28.7175 25.9245L30.3458 25.1103C30.4815 25.1103 30.4815 25.1103 30.6172 25.1103L32.2456 25.9245C32.517 26.0602 32.6527 25.9245 32.6527 25.6531L32.3813 23.7534C32.3813 23.6177 32.3813 23.6177 32.517 23.482L33.8739 22.125Z" fill="#C7D5DB"/>
<path d="M48.6935 58.3357C48.9587 58.0705 48.8261 57.4077 48.4284 57.4077L44.8492 56.8775C44.7167 56.8775 44.4515 56.7449 44.4515 56.6123L42.8608 53.2983C42.5956 52.9006 42.0654 52.9006 41.9328 53.2983L40.3421 56.6123C40.2095 56.7449 40.0769 56.8775 39.9444 56.8775L36.3652 57.4077C35.9675 57.4077 35.7024 58.0705 36.1 58.3357L38.7513 60.8544C38.8839 60.9869 38.8839 61.1195 38.8839 61.3846L38.2211 64.9638C38.0885 65.3615 38.6188 65.7592 39.0164 65.4941L42.198 63.7708C42.3305 63.6382 42.5956 63.6382 42.7282 63.7708L45.9097 65.4941C46.3074 65.7592 46.8377 65.3615 46.7051 64.9638L46.0423 61.3846C46.0423 61.2521 46.0423 60.9869 46.1749 60.8544L48.6935 58.3357Z" fill="#C7D5DB"/>
<path d="M56.9135 61.9143C57.046 61.7818 57.046 61.5166 56.7809 61.3841L54.925 61.1189C54.7925 61.1189 54.7925 60.9864 54.6599 60.9864L53.8645 59.3956C53.732 59.1305 53.4668 59.1305 53.3343 59.3956L52.5389 60.9864C52.5389 61.1189 52.4063 61.1189 52.2738 61.1189L50.4179 61.3841C50.1528 61.3841 50.1528 61.6492 50.2853 61.9143L51.6109 63.24C51.6109 63.24 51.7435 63.3725 51.7435 63.5051L51.4784 65.361C51.4784 65.6261 51.6109 65.7587 51.8761 65.6261L53.4668 64.8307C53.5994 64.8307 53.5994 64.8307 53.732 64.8307L55.3227 65.6261C55.5878 65.7587 55.7204 65.6261 55.7204 65.361L55.4553 63.5051C55.4553 63.3725 55.4553 63.3725 55.5878 63.24L56.9135 61.9143Z" fill="#C7D5DB"/>
<path d="M33.7152 61.9143C33.8478 61.7818 33.8478 61.5166 33.5827 61.3841L31.7268 61.1189C31.5942 61.1189 31.5942 60.9864 31.4617 60.9864L30.6663 59.3956C30.5337 59.1305 30.2686 59.1305 30.136 59.3956L29.3406 60.9864C29.3406 61.1189 29.2081 61.1189 29.0755 61.1189L27.2196 61.3841C26.9545 61.3841 26.9545 61.6492 27.0871 61.9143L28.4127 63.24C28.4127 63.24 28.5453 63.3725 28.5453 63.5051L28.2801 65.361C28.2801 65.6261 28.4127 65.7587 28.6778 65.6261L30.2686 64.8307C30.4012 64.8307 30.4012 64.8307 30.5337 64.8307L32.1245 65.6261C32.3896 65.7587 32.5222 65.6261 32.5222 65.361L32.257 63.5051C32.257 63.3725 32.257 63.3725 32.3896 63.24L33.7152 61.9143Z" fill="#C7D5DB"/>
</svg>