<svg width="158" height="152" viewBox="0 0 158 152" fill="none" xmlns="http://www.w3.org/2000/svg">
<path d="M139.109 23.6713C197.195 103.023 106.975 190.31 24.9217 134.1C22.5937 132.513 20.571 130.556 18.9299 128.305C-39.1562 48.9532 51.0643 -38.334 133.118 17.8767C135.446 19.4638 137.468 21.4199 139.109 23.6713Z" fill="#F2C444"/>
<path d="M100.639 3.22417L54.1169 148.457C46.2551 146.058 38.9275 142.441 32.3633 137.901L76.5194 0.0131836C76.9774 0.0131836 77.4735 0.0131836 77.9315 0.0131836C85.8315 0.0131836 93.4644 1.15733 100.639 3.22417Z" fill="#E08E2B"/>
<path d="M125.637 15.6255L82.0148 151.889C80.6791 151.963 79.3052 152 77.9694 152C75.1071 152 72.3211 151.852 69.5732 151.557L115.218 9.09277C118.843 10.9751 122.355 13.1895 125.637 15.6255Z" fill="#FFED8A"/>
<path d="M132.622 29.3178C184.449 100.107 103.961 177.983 30.7232 127.862C28.6623 126.459 26.8304 124.688 25.3802 122.695C-26.447 51.9055 54.0416 -25.9702 127.279 24.1507C129.34 25.5532 131.172 27.3248 132.622 29.3178Z" fill="#C7D5DB"/>
<path d="M154.413 57.7002H3.5498V89.6993H154.413V57.7002Z" fill="#F2C444"/>
<path d="M22.3021 87.48C20.0421 87.48 18.3821 86.91 17.3221 85.77C16.2621 84.63 15.7321 82.74 15.7321 80.1C15.7321 78 16.0821 75.74 16.7821 73.32C17.5021 70.9 18.6421 68.83 20.2021 67.11C21.7821 65.37 23.7821 64.5 26.2021 64.5C27.7021 64.5 28.9121 64.83 29.8321 65.49C30.7521 66.15 31.2121 67.16 31.2121 68.52C31.2121 69.38 31.0421 70.06 30.7021 70.56C30.3621 71.04 29.8321 71.28 29.1121 71.28C28.3921 71.28 27.8221 71.02 27.4021 70.5C27.7621 70.32 28.0821 69.96 28.3621 69.42C28.6421 68.88 28.7821 68.32 28.7821 67.74C28.7821 67.2 28.6321 66.76 28.3321 66.42C28.0521 66.08 27.5921 65.91 26.9521 65.91C25.8921 65.91 24.8821 66.64 23.9221 68.1C22.9621 69.54 22.1821 71.36 21.5821 73.56C21.0021 75.76 20.7121 77.88 20.7121 79.92C20.7121 81.44 20.9721 82.6 21.4921 83.4C22.0121 84.2 22.9521 84.6 24.3121 84.6C25.4921 84.6 26.5821 84.34 27.5821 83.82C28.5821 83.3 29.4421 82.56 30.1621 81.6L30.8521 81.9C30.3521 83.16 29.6121 84.21 28.6321 85.05C27.6521 85.89 26.6021 86.51 25.4821 86.91C24.3621 87.29 23.3021 87.48 22.3021 87.48ZM34.4542 87.12C32.9742 87.12 31.8042 86.74 30.9442 85.98C30.0842 85.22 29.6542 84.02 29.6542 82.38C29.6542 81.02 29.9342 79.51 30.4942 77.85C31.0542 76.19 31.9542 74.76 33.1942 73.56C34.4342 72.34 35.9942 71.73 37.8742 71.73C40.4342 71.73 41.7142 73.33 41.7142 76.53V76.56C41.7742 76.58 41.8842 76.59 42.0442 76.59C42.7042 76.59 43.4642 76.42 44.3242 76.08C45.1842 75.72 45.9642 75.29 46.6642 74.79L46.9342 75.6C46.3542 76.22 45.5942 76.75 44.6542 77.19C43.7342 77.61 42.7242 77.91 41.6242 78.09C41.4642 79.91 41.0542 81.5 40.3942 82.86C39.7342 84.22 38.8842 85.27 37.8442 86.01C36.8042 86.75 35.6742 87.12 34.4542 87.12ZM35.6542 84.42C36.1342 84.42 36.6142 84.15 37.0942 83.61C37.5742 83.05 37.9942 82.3 38.3542 81.36C38.7142 80.4 38.9742 79.34 39.1342 78.18C38.5942 78.06 38.3242 77.64 38.3242 76.92C38.3242 76.1 38.6342 75.56 39.2542 75.3C39.2142 74.64 39.1142 74.19 38.9542 73.95C38.7942 73.69 38.5142 73.56 38.1142 73.56C37.4542 73.56 36.8142 74.04 36.1942 75C35.5742 75.96 35.0742 77.11 34.6942 78.45C34.3142 79.79 34.1242 80.97 34.1242 81.99C34.1242 82.95 34.2342 83.6 34.4542 83.94C34.6742 84.26 35.0742 84.42 35.6542 84.42ZM54.0878 87.18C52.8678 87.18 51.9678 86.86 51.3878 86.22C50.8278 85.56 50.5478 84.75 50.5478 83.79C50.5478 83.37 50.5978 82.9 50.6978 82.38C50.7978 81.84 50.8978 81.32 50.9978 80.82C51.1178 80.32 51.1978 80 51.2378 79.86C51.3978 79.16 51.5478 78.47 51.6878 77.79C51.8278 77.11 51.8978 76.56 51.8978 76.14C51.8978 75.12 51.5378 74.61 50.8178 74.61C50.2978 74.61 49.8378 74.87 49.4378 75.39C49.0378 75.89 48.7178 76.55 48.4778 77.37L46.4378 87H42.1178L45.2978 72H49.6178L49.2878 73.56C50.2878 72.44 51.4578 71.88 52.7978 71.88C53.8178 71.88 54.6278 72.16 55.2278 72.72C55.8278 73.28 56.1278 74.13 56.1278 75.27C56.1278 75.85 56.0578 76.5 55.9178 77.22C55.7778 77.92 55.5778 78.78 55.3178 79.8C55.1578 80.42 55.0078 81.03 54.8678 81.63C54.7478 82.21 54.6878 82.67 54.6878 83.01C54.6878 83.41 54.7778 83.72 54.9578 83.94C55.1378 84.16 55.4478 84.27 55.8878 84.27C56.4878 84.27 56.9678 84.06 57.3278 83.64C57.6878 83.2 58.0478 82.53 58.4078 81.63H59.6678C58.9278 83.83 58.0678 85.31 57.0878 86.07C56.1278 86.81 55.1278 87.18 54.0878 87.18ZM61.8243 87.18C60.8643 87.18 60.0543 87 59.3943 86.64C58.7343 86.26 58.2443 85.78 57.9243 85.2C57.6043 84.6 57.4443 83.98 57.4443 83.34C57.4443 82.68 57.6043 82.11 57.9243 81.63C58.2243 81.13 58.5943 80.77 59.0343 80.55C59.8143 79.15 60.4943 77.74 61.0743 76.32C61.6543 74.88 62.2043 73.33 62.7243 71.67L67.1643 71.07C67.2643 73.63 67.4343 76.4 67.6743 79.38C67.7743 80.58 67.8243 81.45 67.8243 81.99C67.8243 82.45 67.7843 82.83 67.7043 83.13C68.6443 82.59 69.3643 82.09 69.8643 81.63H71.1243C69.8443 83.11 68.3143 84.36 66.5343 85.38C65.9543 86 65.2343 86.46 64.3743 86.76C63.5343 87.04 62.6843 87.18 61.8243 87.18ZM60.8643 84.81C61.6043 84.81 62.2243 84.59 62.7243 84.15C63.2243 83.71 63.4743 83 63.4743 82.02C63.4743 81.42 63.4143 80.58 63.2943 79.5C63.0943 77.22 62.9643 75.69 62.9043 74.91C62.4243 76.49 61.6143 78.38 60.4743 80.58C60.9343 80.82 61.1643 81.17 61.1643 81.63C61.1643 82.01 61.0343 82.35 60.7743 82.65C60.5343 82.95 60.2243 83.1 59.8443 83.1C59.4243 83.1 59.1543 82.97 59.0343 82.71C59.0343 83.43 59.1743 83.96 59.4543 84.3C59.7543 84.64 60.2243 84.81 60.8643 84.81ZM72.8294 87.18C71.8694 87.18 71.0894 86.88 70.4894 86.28C69.9094 85.68 69.6194 84.78 69.6194 83.58C69.6194 83.08 69.6994 82.43 69.8594 81.63L71.6594 73.2H70.6694L70.9094 72H71.8994L72.7994 67.86L77.2394 67.26L76.2194 72H78.0194L77.7794 73.2H75.9794L74.0594 82.2C73.9794 82.5 73.9394 82.82 73.9394 83.16C73.9394 83.56 74.0294 83.85 74.2094 84.03C74.4094 84.19 74.7294 84.27 75.1694 84.27C75.7494 84.27 76.2894 84.03 76.7894 83.55C77.2894 83.05 77.6494 82.41 77.8694 81.63H79.1294C78.3894 83.79 77.4394 85.26 76.2794 86.04C75.1194 86.8 73.9694 87.18 72.8294 87.18ZM81.4574 87.18C80.3174 87.18 79.3674 86.79 78.6074 86.01C77.8474 85.23 77.4674 84.01 77.4674 82.35C77.4674 80.87 77.7574 79.32 78.3374 77.7C78.9374 76.06 79.8174 74.68 80.9774 73.56C82.1574 72.42 83.5574 71.85 85.1774 71.85C85.9974 71.85 86.6074 71.99 87.0074 72.27C87.4074 72.55 87.6074 72.92 87.6074 73.38V73.59L87.9374 72H92.2574L90.0974 82.2C90.0174 82.5 89.9774 82.82 89.9774 83.16C89.9774 84.02 90.3874 84.45 91.2074 84.45C91.7674 84.45 92.2474 84.19 92.6474 83.67C93.0674 83.15 93.3974 82.47 93.6374 81.63H94.8974C94.1574 83.79 93.2374 85.26 92.1374 86.04C91.0574 86.8 89.9674 87.18 88.8674 87.18C88.0274 87.18 87.3474 86.95 86.8274 86.49C86.3274 86.01 86.0274 85.32 85.9274 84.42C85.3474 85.24 84.6974 85.91 83.9774 86.43C83.2774 86.93 82.4374 87.18 81.4574 87.18ZM83.4074 84.27C83.9074 84.27 84.3974 84.04 84.8774 83.58C85.3774 83.1 85.7174 82.45 85.8974 81.63L87.3374 74.85C87.3374 74.59 87.2374 74.34 87.0374 74.1C86.8374 73.84 86.5274 73.71 86.1074 73.71C85.3074 73.71 84.5874 74.18 83.9474 75.12C83.3074 76.04 82.8074 77.16 82.4474 78.48C82.0874 79.78 81.9074 80.93 81.9074 81.93C81.9074 82.93 82.0474 83.57 82.3274 83.85C82.6274 84.13 82.9874 84.27 83.4074 84.27ZM104.478 87.18C103.258 87.18 102.358 86.86 101.778 86.22C101.218 85.56 100.938 84.75 100.938 83.79C100.938 83.37 100.988 82.9 101.088 82.38C101.188 81.84 101.288 81.32 101.388 80.82C101.508 80.32 101.588 80 101.628 79.86C101.788 79.16 101.938 78.47 102.078 77.79C102.218 77.11 102.288 76.56 102.288 76.14C102.288 75.12 101.928 74.61 101.208 74.61C100.688 74.61 100.228 74.87 99.8284 75.39C99.4284 75.89 99.1084 76.55 98.8684 77.37L96.8284 87H92.5084L95.6884 72H100.008L99.6784 73.56C100.678 72.44 101.848 71.88 103.188 71.88C104.208 71.88 105.018 72.16 105.618 72.72C106.218 73.28 106.518 74.13 106.518 75.27C106.518 75.85 106.448 76.5 106.308 77.22C106.168 77.92 105.968 78.78 105.708 79.8C105.548 80.42 105.398 81.03 105.258 81.63C105.138 82.21 105.078 82.67 105.078 83.01C105.078 83.41 105.168 83.72 105.348 83.94C105.528 84.16 105.838 84.27 106.278 84.27C106.878 84.27 107.358 84.06 107.718 83.64C108.078 83.2 108.438 82.53 108.798 81.63H110.058C109.318 83.83 108.458 85.31 107.478 86.07C106.518 86.81 105.518 87.18 104.478 87.18ZM111.765 87.18C110.805 87.18 110.025 86.88 109.425 86.28C108.845 85.68 108.555 84.78 108.555 83.58C108.555 83.08 108.635 82.43 108.795 81.63L110.595 73.2H109.605L109.845 72H110.835L111.735 67.86L116.175 67.26L115.155 72H116.955L116.715 73.2H114.915L112.995 82.2C112.915 82.5 112.875 82.82 112.875 83.16C112.875 83.56 112.965 83.85 113.145 84.03C113.345 84.19 113.665 84.27 114.105 84.27C114.685 84.27 115.225 84.03 115.725 83.55C116.225 83.05 116.585 82.41 116.805 81.63H118.065C117.325 83.79 116.375 85.26 115.215 86.04C114.055 86.8 112.905 87.18 111.765 87.18ZM121.803 70.38C121.143 70.38 120.583 70.15 120.123 69.69C119.663 69.23 119.433 68.67 119.433 68.01C119.433 67.35 119.663 66.79 120.123 66.33C120.583 65.85 121.143 65.61 121.803 65.61C122.463 65.61 123.023 65.85 123.483 66.33C123.963 66.79 124.203 67.35 124.203 68.01C124.203 68.67 123.963 69.23 123.483 69.69C123.023 70.15 122.463 70.38 121.803 70.38ZM119.763 87.18C118.803 87.18 118.023 86.88 117.423 86.28C116.843 85.68 116.553 84.78 116.553 83.58C116.553 83.08 116.633 82.43 116.793 81.63L118.833 72H123.153L120.993 82.2C120.913 82.5 120.873 82.82 120.873 83.16C120.873 83.56 120.963 83.85 121.143 84.03C121.343 84.19 121.663 84.27 122.103 84.27C122.683 84.27 123.223 84.03 123.723 83.55C124.223 83.05 124.583 82.41 124.803 81.63H126.063C125.323 83.79 124.373 85.26 123.213 86.04C122.053 86.8 120.903 87.18 119.763 87.18ZM135.621 87.18C134.401 87.18 133.501 86.86 132.921 86.22C132.361 85.56 132.081 84.75 132.081 83.79C132.081 83.37 132.131 82.9 132.231 82.38C132.331 81.84 132.431 81.32 132.531 80.82C132.651 80.32 132.731 80 132.771 79.86C132.931 79.16 133.081 78.47 133.221 77.79C133.361 77.11 133.431 76.56 133.431 76.14C133.431 75.12 133.071 74.61 132.351 74.61C131.831 74.61 131.371 74.87 130.971 75.39C130.571 75.89 130.251 76.55 130.011 77.37L127.971 87H123.651L126.831 72H131.151L130.821 73.56C131.821 72.44 132.991 71.88 134.331 71.88C135.351 71.88 136.161 72.16 136.761 72.72C137.361 73.28 137.661 74.13 137.661 75.27C137.661 75.85 137.591 76.5 137.451 77.22C137.311 77.92 137.111 78.78 136.851 79.8C136.691 80.42 136.541 81.03 136.401 81.63C136.281 82.21 136.221 82.67 136.221 83.01C136.221 83.41 136.311 83.72 136.491 83.94C136.671 84.16 136.981 84.27 137.421 84.27C138.021 84.27 138.501 84.06 138.861 83.64C139.221 83.2 139.581 82.53 139.941 81.63H141.201C140.461 83.83 139.601 85.31 138.621 86.07C137.661 86.81 136.661 87.18 135.621 87.18ZM19.5421 125.12C18.0621 125.12 16.8921 124.74 16.0321 123.98C15.1721 123.22 14.7421 122.02 14.7421 120.38C14.7421 119 15.0121 117.49 15.5521 115.85C16.0921 114.19 16.9721 112.76 18.1921 111.56C19.4121 110.34 20.9721 109.73 22.8721 109.73C25.2321 109.73 26.5021 111.08 26.6821 113.78C27.1221 113.68 27.5121 113.44 27.8521 113.06C28.1921 112.66 28.5121 112.21 28.8121 111.71H29.7721C29.2321 112.79 28.7521 113.64 28.3321 114.26C27.9121 114.86 27.3621 115.35 26.6821 115.73C26.5621 117.61 26.1721 119.26 25.5121 120.68C24.8721 122.1 24.0321 123.2 22.9921 123.98C21.9521 124.74 20.8021 125.12 19.5421 125.12ZM20.7421 122.42C21.4821 122.42 22.1721 121.82 22.8121 120.62C23.4521 119.42 23.8921 117.94 24.1321 116.18C23.6521 116 23.4121 115.55 23.4121 114.83C23.4121 114.05 23.6921 113.53 24.2521 113.27C24.2121 112.63 24.1021 112.19 23.9221 111.95C23.7621 111.69 23.4921 111.56 23.1121 111.56C22.4521 111.56 21.8221 112.04 21.2221 113C20.6221 113.94 20.1321 115.09 19.7521 116.45C19.3921 117.79 19.2121 118.97 19.2121 119.99C19.2121 120.95 19.3221 121.6 19.5421 121.94C19.7621 122.26 20.1621 122.42 20.7421 122.42Z" fill="#3D798A"/>
<path d="M122.221 29.6106C119.898 25.784 116.717 24.8637 114.495 24.7183C103.184 24.1371 88.2366 42.8342 86.5197 44.9655L85.0048 46.9514C84.8028 44.5295 82.682 42.592 80.1066 42.592C77.6323 42.592 75.6124 44.3358 75.2084 46.6124L73.946 44.9655C72.2796 42.8342 57.2819 24.1371 45.9706 24.7183C43.7487 24.8637 40.5674 25.784 38.2445 29.6106C35.9216 33.3403 36.6791 36.295 37.689 38.0388C42.8902 47.1936 68.9972 48.453 71.9766 48.5499L75.1579 48.6468V48.6952H85.0553V48.6468L88.4891 48.5014C91.4685 48.4046 117.575 47.1452 122.777 37.9904C123.787 36.295 124.494 33.3888 122.221 29.6106ZM41.7288 35.9075C41.3248 35.181 40.9208 33.97 42.2338 31.8872C43.6477 29.6106 45.1626 29.2715 46.223 29.2231C46.324 29.2231 46.425 29.2231 46.526 29.2231C52.0807 29.2231 60.8167 36.9732 66.8764 43.7545C56.8779 42.8342 44.2537 40.3154 41.7288 35.9075ZM118.686 35.9075C116.162 40.3154 103.588 42.8342 93.5893 43.7545C99.649 36.9732 108.385 29.2231 113.94 29.2231C114.041 29.2231 114.142 29.2231 114.243 29.2231C115.303 29.2715 116.818 29.6106 118.232 31.8872C119.494 34.0185 119.09 35.181 118.686 35.9075Z" fill="#3D798A"/>
<path d="M98.5997 122.58C100.154 122.625 101.57 121.917 102.53 121.033C103.49 120.061 103.947 118.779 103.81 117.542C102.485 117.807 101.296 118.337 100.336 119.265C99.4224 120.149 98.7368 121.254 98.5997 122.58C98.5083 123.862 99.0567 125.056 100.154 125.851C101.251 126.603 102.896 127.089 104.633 126.735C104.496 125.453 103.719 124.437 102.622 123.73C101.57 122.978 100.154 122.625 98.5997 122.58Z" fill="#3D798A"/>
<path d="M106.827 120.238C107.65 119.177 107.97 117.94 107.65 116.702C106.324 117.012 105.228 117.896 104.405 118.824C103.582 119.796 103.034 121.078 103.125 122.36C103.902 122.227 104.633 121.962 105.273 121.653C105.913 121.299 106.416 120.769 106.827 120.238Z" fill="#3D798A"/>
<path d="M107.33 122.89C106.142 122.36 104.679 122.05 103.125 122.315C103.171 123.597 103.902 124.658 105.136 125.321C106.324 126.028 108.015 126.072 109.752 125.675C109.432 124.393 108.518 123.465 107.33 122.89Z" fill="#3D798A"/>
<path d="M109.66 120.459C110.254 120.017 110.711 119.487 111.077 118.957C111.762 117.763 111.899 116.481 111.442 115.288C110.208 115.863 109.157 116.702 108.472 117.807C108.152 118.382 107.877 118.957 107.695 119.531C107.558 120.15 107.512 120.769 107.603 121.388C107.969 121.299 108.335 121.167 108.7 121.034C109.02 120.901 109.34 120.68 109.66 120.459Z" fill="#3D798A"/>
<path d="M111.854 121.52C111.214 121.299 110.528 121.166 109.797 121.166C109.432 121.166 109.066 121.21 108.7 121.254C108.335 121.299 107.923 121.343 107.558 121.431C107.695 122.05 107.969 122.625 108.335 123.067C108.746 123.509 109.294 123.906 109.934 124.127C111.214 124.569 112.951 124.569 114.596 123.818C114.185 122.669 113.134 121.873 111.854 121.52Z" fill="#3D798A"/>
<path d="M116.242 119.486C115.557 119.354 114.871 119.398 114.14 119.442C113.408 119.486 112.677 119.663 111.946 120.017C112.677 119.707 113.317 119.265 113.865 118.779C114.414 118.293 114.78 117.674 115.054 117.055C115.602 115.862 115.557 114.58 114.962 113.475C114.368 113.829 113.82 114.226 113.408 114.713C113.18 114.978 112.997 115.243 112.814 115.508C112.631 115.774 112.449 116.039 112.311 116.304C111.763 117.453 111.534 118.779 111.946 119.973C112.357 121.166 113.317 122.006 114.688 122.315C115.008 122.404 115.374 122.448 115.785 122.448C116.151 122.448 116.516 122.404 116.928 122.315C117.705 122.138 118.527 121.873 119.35 121.431C118.756 120.415 117.568 119.752 116.242 119.486Z" fill="#3D798A"/>
<path d="M120.355 117.012C119.67 116.967 118.939 117.012 118.253 117.233C117.567 117.409 116.836 117.719 116.105 118.072C116.836 117.719 117.385 117.188 117.887 116.614C118.344 116.039 118.71 115.465 118.893 114.802C119.259 113.52 119.03 112.238 118.299 111.266C117.75 111.663 117.339 112.238 116.928 112.724C116.562 113.255 116.242 113.829 116.059 114.448C115.968 114.757 115.876 115.067 115.831 115.376C115.785 115.686 115.739 115.995 115.739 116.304C115.739 116.923 115.876 117.542 116.151 118.072C116.425 118.647 116.836 119.089 117.385 119.443C117.659 119.619 117.933 119.752 118.253 119.84C118.573 119.929 118.893 119.973 119.213 120.017C119.898 120.061 120.675 119.973 121.452 119.752C122.229 119.531 123.006 119.089 123.738 118.514C122.961 117.498 121.681 117.056 120.355 117.012Z" fill="#3D798A"/>
<path d="M124.148 113.961C123.463 114.005 122.777 114.226 122.092 114.492C121.406 114.757 120.72 115.11 120.081 115.597C120.72 115.11 121.269 114.536 121.68 113.961C122.092 113.342 122.32 112.679 122.412 112.016C122.64 110.735 122.274 109.541 121.36 108.657C120.858 109.143 120.446 109.674 120.126 110.248C119.989 110.558 119.852 110.823 119.761 111.132C119.669 111.442 119.578 111.707 119.486 112.016C119.212 113.254 119.395 114.536 120.081 115.552C120.812 116.569 121.955 117.099 123.417 117.055C123.783 117.055 124.148 117.011 124.514 116.923C124.88 116.834 125.245 116.657 125.611 116.525C126.342 116.171 127.119 115.685 127.759 115.066C126.845 114.182 125.519 113.873 124.148 113.961Z" fill="#3D798A"/>
<path d="M125.016 110.823C125.336 110.16 125.473 109.497 125.519 108.879C125.519 107.553 124.971 106.403 123.965 105.696C123.142 106.801 122.64 107.995 122.594 109.276C122.548 109.895 122.64 110.558 122.777 111.089C122.96 111.663 123.234 112.194 123.645 112.68C124.056 113.122 124.605 113.475 125.199 113.652C125.793 113.829 126.479 113.873 127.164 113.741C128.536 113.476 130.089 112.636 131.186 111.177C130.181 110.426 128.81 110.293 127.53 110.647C126.844 110.779 126.159 111.044 125.519 111.398C124.879 111.752 124.285 112.238 123.645 112.768C124.285 112.105 124.696 111.442 125.016 110.823Z" fill="#3D798A"/>
<path d="M130.455 106.713C129.769 106.934 129.221 107.332 128.581 107.73C127.941 108.127 127.393 108.658 126.89 109.277C127.393 108.658 127.758 107.995 127.987 107.288C128.215 106.625 128.261 105.917 128.215 105.299C128.078 104.017 127.393 103 126.296 102.381C125.93 102.956 125.656 103.575 125.519 104.194C125.427 104.503 125.427 104.812 125.382 105.166C125.336 105.475 125.336 105.785 125.336 106.094C125.427 107.332 125.884 108.525 126.844 109.321C127.804 110.116 129.129 110.293 130.501 109.895C130.866 109.807 131.186 109.63 131.552 109.453C131.872 109.277 132.192 109.056 132.512 108.79C133.151 108.26 133.746 107.597 134.248 106.846C133.151 106.183 131.735 106.227 130.455 106.713Z" fill="#3D798A"/>
<path d="M132.923 102.602C132.283 102.912 131.689 103.31 131.14 103.84C130.866 104.105 130.637 104.37 130.363 104.68C130.089 104.945 129.86 105.254 129.632 105.608C129.86 105.254 130.043 104.945 130.18 104.591C130.317 104.238 130.409 103.884 130.454 103.531C130.592 102.823 130.592 102.16 130.454 101.542C130.18 100.304 129.266 99.3758 128.124 98.8896C127.986 99.199 127.895 99.5085 127.804 99.8179C127.712 100.127 127.621 100.437 127.621 100.746C127.529 101.365 127.575 101.984 127.712 102.602C127.986 103.796 128.535 104.901 129.632 105.564C130.683 106.227 132.1 106.271 133.38 105.652C134.019 105.343 134.659 104.901 135.253 104.282C135.528 103.973 135.848 103.663 136.076 103.31C136.305 102.956 136.533 102.558 136.716 102.16C135.482 101.718 134.157 101.939 132.923 102.602Z" fill="#3D798A"/>
<path d="M59.5672 122.581C58.0132 122.625 56.5964 121.918 55.6366 121.034C54.6768 120.062 54.2198 118.78 54.3569 117.542C55.6823 117.808 56.8706 118.338 57.8304 119.266C58.7445 120.15 59.4758 121.255 59.5672 122.581C59.6586 123.863 59.1102 125.056 58.0132 125.852C56.9163 126.603 55.271 127.09 53.5342 126.736C53.6713 125.454 54.4483 124.438 55.5452 123.73C56.6421 122.979 58.0132 122.625 59.5672 122.581Z" fill="#3D798A"/>
<path d="M51.3404 120.239C50.5177 119.178 50.1978 117.94 50.5177 116.703C51.8432 117.012 52.9401 117.896 53.7628 118.824C54.5854 119.797 55.1339 121.078 55.0425 122.36C54.2655 122.228 53.5342 121.962 52.8944 121.653C52.2545 121.299 51.7517 120.769 51.3404 120.239Z" fill="#3D798A"/>
<path d="M50.8833 122.89C52.0716 122.36 53.5342 122.05 55.0881 122.315C55.0424 123.597 54.3111 124.658 53.0771 125.321C51.8888 126.028 50.1977 126.072 48.4609 125.675C48.7352 124.393 49.695 123.465 50.8833 122.89Z" fill="#3D798A"/>
<path d="M48.5537 120.459C47.9596 120.017 47.5025 119.487 47.1369 118.956C46.4513 117.763 46.3142 116.481 46.7712 115.288C48.0053 115.862 49.0565 116.702 49.742 117.807C50.1077 118.382 50.3362 118.956 50.519 119.531C50.6561 120.15 50.7018 120.768 50.6104 121.387C50.2448 121.299 49.8791 121.166 49.5135 121.034C49.1479 120.901 48.8279 120.68 48.5537 120.459Z" fill="#3D798A"/>
<path d="M46.3126 121.52C46.9525 121.299 47.638 121.167 48.3693 121.167C48.7349 121.167 49.1006 121.211 49.4662 121.255C49.8319 121.299 50.2432 121.343 50.6088 121.432C50.4717 122.051 50.1975 122.625 49.8319 123.067C49.4205 123.509 48.8721 123.907 48.2322 124.128C46.9525 124.57 45.2157 124.57 43.5703 123.819C43.9817 122.669 45.0329 121.874 46.3126 121.52Z" fill="#3D798A"/>
<path d="M41.9251 119.487C42.6107 119.355 43.2963 119.399 43.9818 119.443C44.7131 119.487 45.4444 119.664 46.1757 120.018C45.4444 119.708 44.8045 119.266 44.2561 118.78C43.7076 118.294 43.342 117.675 43.0677 117.056C42.5193 115.863 42.565 114.581 43.1591 113.476C43.7533 113.83 44.3018 114.227 44.7131 114.714C44.9416 114.979 45.1244 115.244 45.3073 115.509C45.4901 115.774 45.6729 116.04 45.81 116.305C46.3585 117.454 46.587 118.78 46.1757 119.973C45.7643 121.167 44.8045 122.007 43.4334 122.316C43.1134 122.404 42.7478 122.449 42.3365 122.449C41.9708 122.449 41.6052 122.404 41.1938 122.316C40.4169 122.139 39.5942 121.874 38.7715 121.432C39.4571 120.415 40.5997 119.752 41.9251 119.487Z" fill="#3D798A"/>
<path d="M37.8128 117.012C38.4984 116.967 39.2297 117.012 39.9152 117.233C40.6008 117.409 41.3321 117.719 42.0634 118.072C41.3321 117.719 40.7836 117.188 40.2809 116.614C39.8238 116.039 39.4582 115.465 39.2754 114.802C38.9097 113.52 39.1383 112.238 39.8695 111.266C40.418 111.663 40.8293 112.238 41.2407 112.724C41.6063 113.255 41.9262 113.829 42.1091 114.448C42.2005 114.757 42.2919 115.067 42.3376 115.376C42.3833 115.686 42.429 115.995 42.429 116.304C42.429 116.923 42.2919 117.542 42.0177 118.072C41.7434 118.647 41.3321 119.089 40.7836 119.443C40.5094 119.619 40.2352 119.752 39.9152 119.84C39.5953 119.929 39.2754 119.973 38.9554 120.017C38.2699 120.061 37.4929 119.973 36.7159 119.752C35.9389 119.531 35.1619 119.089 34.4307 118.514C35.2076 117.498 36.4874 117.056 37.8128 117.012Z" fill="#3D798A"/>
<path d="M34.0189 113.962C34.7045 114.006 35.39 114.227 36.0756 114.493C36.7612 114.758 37.4467 115.111 38.0866 115.598C37.4467 115.111 36.8983 114.537 36.4869 113.962C36.0756 113.343 35.8471 112.68 35.7557 112.017C35.5271 110.736 35.8928 109.542 36.8069 108.658C37.3096 109.144 37.721 109.675 38.0409 110.249C38.178 110.559 38.3151 110.824 38.4065 111.133C38.4979 111.443 38.5894 111.708 38.6808 112.017C38.955 113.255 38.7722 114.537 38.0866 115.553C37.3553 116.57 36.2127 117.1 34.7502 117.056C34.3845 117.056 34.0189 117.012 33.6532 116.924C33.2876 116.835 32.922 116.658 32.5563 116.526C31.8251 116.172 31.0481 115.686 30.4082 115.067C31.3223 114.183 32.6934 113.874 34.0189 113.962Z" fill="#3D798A"/>
<path d="M33.1496 110.824C32.8297 110.161 32.6926 109.498 32.6469 108.88C32.6469 107.554 33.1953 106.404 34.2008 105.697C35.0235 106.802 35.5263 107.996 35.572 109.277C35.6177 109.896 35.5263 110.559 35.3892 111.09C35.2063 111.664 34.9321 112.195 34.5208 112.681C34.1094 113.123 33.561 113.476 32.9668 113.653C32.3727 113.83 31.6871 113.874 31.0015 113.742C29.6304 113.476 28.0764 112.637 26.9795 111.178C27.985 110.427 29.3561 110.294 30.6359 110.648C31.3214 110.78 32.007 111.045 32.6469 111.399C33.2868 111.753 33.8809 112.239 34.5208 112.769C33.9266 112.106 33.4696 111.443 33.1496 110.824Z" fill="#3D798A"/>
<path d="M27.7124 106.713C28.398 106.934 28.9465 107.332 29.5863 107.73C30.2262 108.127 30.7747 108.658 31.2774 109.277C30.7747 108.658 30.409 107.995 30.1805 107.288C29.952 106.625 29.9063 105.917 29.952 105.299C30.0891 104.017 30.7747 103 31.8716 102.381C32.2372 102.956 32.5114 103.575 32.6486 104.194C32.74 104.503 32.74 104.812 32.7857 105.166C32.8314 105.475 32.8314 105.785 32.8314 106.094C32.74 107.332 32.2829 108.525 31.3231 109.321C30.3633 110.116 29.0379 110.293 27.6667 109.895C27.3011 109.807 26.9812 109.63 26.6155 109.453C26.2956 109.277 25.9757 109.056 25.6557 108.79C25.0159 108.26 24.4217 107.597 23.9189 106.846C25.0159 106.183 26.4327 106.227 27.7124 106.713Z" fill="#3D798A"/>
<path d="M25.2437 102.603C25.8836 102.912 26.4777 103.31 27.0262 103.841C27.3004 104.106 27.5289 104.371 27.8032 104.68C28.0774 104.946 28.3059 105.255 28.5344 105.609C28.3059 105.255 28.1231 104.946 27.986 104.592C27.8489 104.238 27.7574 103.885 27.7117 103.531C27.5746 102.824 27.5746 102.161 27.7117 101.542C27.986 100.305 28.9001 99.3763 30.0427 98.8901C30.1798 99.1995 30.2712 99.5089 30.3626 99.8183C30.454 100.128 30.5454 100.437 30.5454 100.747C30.6368 101.365 30.5911 101.984 30.454 102.603C30.1798 103.796 29.6313 104.901 28.5344 105.564C27.4832 106.227 26.0664 106.272 24.7866 105.653C24.1468 105.343 23.5069 104.901 22.9127 104.283C22.6385 103.973 22.3186 103.664 22.0901 103.31C21.8615 102.957 21.633 102.559 21.4502 102.161C22.6842 101.719 24.0097 101.94 25.2437 102.603Z" fill="#3D798A"/>
<path d="M84.9357 128.083C85.1647 127.862 85.0502 127.493 84.7067 127.419L82.1497 127.05C82.0352 127.05 81.9207 126.939 81.8444 126.828L80.6995 124.577C80.5468 124.282 80.127 124.282 80.0125 124.577L78.8676 126.828C78.7912 126.939 78.7149 127.013 78.5623 127.05L76.0053 127.419C75.6999 127.456 75.5473 127.862 75.7763 128.083L77.6463 129.818C77.7226 129.892 77.799 130.039 77.7608 130.15L77.341 132.623C77.3028 132.918 77.6082 133.176 77.9135 133.029L80.2033 131.848C80.3178 131.774 80.4705 131.774 80.585 131.848L82.8748 133.029C83.1801 133.176 83.4855 132.955 83.4473 132.623L83.0275 130.15C82.9893 130.039 83.0657 129.892 83.142 129.818L84.9357 128.083Z" fill="#3D798A"/>
<path d="M90.8107 130.592C90.9252 130.482 90.8489 130.297 90.6962 130.26L89.3986 130.076C89.3223 130.076 89.2841 130.039 89.246 129.965L88.6735 128.858C88.5972 128.71 88.4064 128.71 88.33 128.858L87.7576 129.965C87.7194 130.039 87.6812 130.076 87.6049 130.076L86.3073 130.26C86.1547 130.297 86.0783 130.482 86.1928 130.592L87.1088 131.478C87.1469 131.515 87.1851 131.589 87.1469 131.663L86.9179 132.881C86.8798 133.028 87.0706 133.139 87.1851 133.065L88.33 132.475C88.4064 132.438 88.4445 132.438 88.5208 132.475L89.6658 133.065C89.8184 133.139 89.9711 133.028 89.9329 132.881L89.7039 131.663C89.7039 131.589 89.7039 131.552 89.7421 131.478L90.8107 130.592Z" fill="#3D798A"/>
<path d="M74.2101 130.593C74.3246 130.482 74.2483 130.298 74.0956 130.261L72.798 130.076C72.7217 130.076 72.6835 130.039 72.6454 129.966L72.0729 128.858C71.9966 128.711 71.8058 128.711 71.7294 128.858L71.157 129.966C71.1188 130.039 71.0806 130.076 71.0043 130.076L69.7067 130.261C69.5541 130.298 69.4777 130.482 69.5922 130.593L70.5082 131.479C70.5463 131.516 70.5845 131.589 70.5463 131.663L70.3174 132.881C70.2792 133.029 70.47 133.14 70.5845 133.066L71.7294 132.475C71.8058 132.438 71.8439 132.438 71.9203 132.475L73.0652 133.066C73.2178 133.14 73.3705 133.029 73.3323 132.881L73.1034 131.663C73.1034 131.589 73.1033 131.553 73.1415 131.479L74.2101 130.593Z" fill="#3D798A"/>
</svg>