<svg width="126" height="108" viewBox="0 0 126 108" fill="none" xmlns="http://www.w3.org/2000/svg">
<path d="M120.53 20.3166L95.4702 7.83748C74.4688 -2.61249 50.6266 -2.61249 29.6252 7.83748L4.66698 20.3166C1.82621 21.737 0 24.9836 0 28.5345V79.4655C0 83.0164 1.82621 86.263 4.66698 87.6834L29.7266 100.163C50.728 110.612 74.5702 110.612 95.5716 100.163L120.631 87.6834C123.472 86.263 125.298 83.0164 125.298 79.4655V28.5345C125.298 24.9836 123.472 21.737 120.53 20.3166Z" fill="#657590"/>
<path d="M106.833 18.1864V89.8143L93.035 96.7134C73.6568 106.453 51.5394 106.453 32.0599 96.7134L18.3633 89.8143V18.1864L32.0599 11.2873C51.438 1.64901 73.5554 1.64901 93.035 11.2873L106.833 18.1864Z" fill="#C7D5DB"/>
<path d="M26.1647 44.8532C25.258 45.1732 24.5647 45.6799 24.0847 46.3732C23.618 47.0532 23.3847 47.8799 23.3847 48.8532C23.3847 49.2799 23.4314 49.6732 23.5247 50.0332C23.618 50.3799 23.7514 50.6666 23.9247 50.8932C23.0714 50.8932 22.438 50.7199 22.0247 50.3732C21.6247 50.0132 21.4247 49.4666 21.4247 48.7332C21.4247 47.7999 21.698 46.9332 22.2447 46.1332C22.7914 45.3199 23.5314 44.6732 24.4647 44.1932C25.398 43.7132 26.4114 43.4732 27.5047 43.4732C27.8114 43.4732 28.078 43.4932 28.3047 43.5332C28.5314 43.5732 28.7914 43.6466 29.0847 43.7532L31.4847 54.4532L33.7247 43.5932H35.6647L32.4047 58.5532H29.6447L27.3247 48.6332L25.0447 58.5532H23.1447L26.1647 44.8532ZM37.0641 58.6732C36.3041 58.6732 35.6707 58.4132 35.1641 57.8932C34.6574 57.3732 34.4041 56.5599 34.4041 55.4532C34.4041 54.4666 34.5974 53.4332 34.9841 52.3532C35.3841 51.2599 35.9707 50.3399 36.7441 49.5932C37.5307 48.8332 38.4641 48.4532 39.5441 48.4532C40.0907 48.4532 40.4974 48.5466 40.7641 48.7332C41.0307 48.9199 41.1641 49.1666 41.1641 49.4732V49.6132L41.3841 48.5532H44.2641L42.8241 55.3532C42.7707 55.5532 42.7441 55.7666 42.7441 55.9932C42.7441 56.5666 43.0174 56.8532 43.5641 56.8532C43.9374 56.8532 44.2574 56.6799 44.5241 56.3332C44.8041 55.9866 45.0241 55.5332 45.1841 54.9732H46.0241C45.5307 56.4132 44.9174 57.3932 44.1841 57.9132C43.4641 58.4199 42.7374 58.6732 42.0041 58.6732C41.4441 58.6732 40.9907 58.5199 40.6441 58.2132C40.3107 57.8932 40.1107 57.4332 40.0441 56.8332C39.6574 57.3799 39.2241 57.8266 38.7441 58.1732C38.2774 58.5066 37.7174 58.6732 37.0641 58.6732ZM38.3641 56.7332C38.6974 56.7332 39.0241 56.5799 39.3441 56.2732C39.6774 55.9532 39.9041 55.5199 40.0241 54.9732L40.9841 50.4532C40.9841 50.2799 40.9174 50.1132 40.7841 49.9532C40.6507 49.7799 40.4441 49.6932 40.1641 49.6932C39.6307 49.6932 39.1507 50.0066 38.7241 50.6332C38.2974 51.2466 37.9641 51.9932 37.7241 52.8732C37.4841 53.7399 37.3641 54.5066 37.3641 55.1732C37.3641 55.8399 37.4574 56.2666 37.6441 56.4532C37.8441 56.6399 38.0841 56.7332 38.3641 56.7332ZM48.5314 47.4732C48.0914 47.4732 47.7181 47.3199 47.4114 47.0132C47.1047 46.7066 46.9514 46.3332 46.9514 45.8932C46.9514 45.4532 47.1047 45.0799 47.4114 44.7732C47.7181 44.4532 48.0914 44.2932 48.5314 44.2932C48.9714 44.2932 49.3447 44.4532 49.6514 44.7732C49.9714 45.0799 50.1314 45.4532 50.1314 45.8932C50.1314 46.3332 49.9714 46.7066 49.6514 47.0132C49.3447 47.3199 48.9714 47.4732 48.5314 47.4732ZM47.1714 58.6732C46.5314 58.6732 46.0114 58.4732 45.6114 58.0732C45.2247 57.6732 45.0314 57.0732 45.0314 56.2732C45.0314 55.9399 45.0847 55.5066 45.1914 54.9732L46.5514 48.5532H49.4314L47.9914 55.3532C47.9381 55.5532 47.9114 55.7666 47.9114 55.9932C47.9114 56.2599 47.9714 56.4532 48.0914 56.5732C48.2247 56.6799 48.4381 56.7332 48.7314 56.7332C49.1181 56.7332 49.4781 56.5732 49.8114 56.2532C50.1447 55.9199 50.3847 55.4932 50.5314 54.9732H51.3714C50.8781 56.4132 50.2447 57.3932 49.4714 57.9132C48.6981 58.4199 47.9314 58.6732 47.1714 58.6732ZM51.8834 48.5532H54.7634L54.5034 49.7932C54.9568 49.3932 55.3634 49.0866 55.7234 48.8732C56.0968 48.6599 56.4968 48.5532 56.9234 48.5532C57.3501 48.5532 57.6834 48.6999 57.9234 48.9932C58.1768 49.2866 58.3034 49.6399 58.3034 50.0532C58.3034 50.4399 58.1768 50.7799 57.9234 51.0732C57.6701 51.3666 57.3168 51.5132 56.8634 51.5132C56.5701 51.5132 56.3701 51.4466 56.2634 51.3132C56.1701 51.1666 56.0968 50.9599 56.0434 50.6932C56.0034 50.5199 55.9634 50.3932 55.9234 50.3132C55.8834 50.2332 55.8101 50.1932 55.7034 50.1932C55.4234 50.1932 55.1834 50.2532 54.9834 50.3732C54.7968 50.4799 54.5501 50.6732 54.2434 50.9532L52.6434 58.5532H49.7634L51.8834 48.5532ZM60.963 58.6332C59.9763 58.6332 59.1963 58.3799 58.623 57.8732C58.0496 57.3666 57.763 56.5666 57.763 55.4732C57.763 54.5666 57.9496 53.5599 58.323 52.4532C58.6963 51.3466 59.2963 50.3932 60.123 49.5932C60.9496 48.7799 61.9896 48.3732 63.243 48.3732C64.9496 48.3732 65.803 49.4399 65.803 51.5732V51.5932C65.843 51.6066 65.9163 51.6132 66.023 51.6132C66.463 51.6132 66.9696 51.4999 67.543 51.2732C68.1163 51.0332 68.6363 50.7466 69.103 50.4132L69.283 50.9532C68.8963 51.3666 68.3896 51.7199 67.763 52.0132C67.1496 52.2932 66.4763 52.4932 65.743 52.6132C65.6363 53.8266 65.363 54.8866 64.923 55.7932C64.483 56.6999 63.9163 57.3999 63.223 57.8932C62.5296 58.3866 61.7763 58.6332 60.963 58.6332ZM61.763 56.8332C62.083 56.8332 62.403 56.6532 62.723 56.2932C63.043 55.9199 63.323 55.4199 63.563 54.7932C63.803 54.1532 63.9763 53.4466 64.083 52.6732C63.723 52.5932 63.543 52.3132 63.543 51.8332C63.543 51.2866 63.7496 50.9266 64.163 50.7532C64.1363 50.3132 64.0696 50.0132 63.963 49.8532C63.8563 49.6799 63.6696 49.5932 63.403 49.5932C62.963 49.5932 62.5363 49.9132 62.123 50.5532C61.7096 51.1932 61.3763 51.9599 61.123 52.8532C60.8696 53.7466 60.743 54.5332 60.743 55.2132C60.743 55.8532 60.8163 56.2866 60.963 56.5132C61.1096 56.7266 61.3763 56.8332 61.763 56.8332ZM78.992 58.6732C78.1787 58.6732 77.5787 58.4599 77.192 58.0332C76.8187 57.5932 76.632 57.0532 76.632 56.4132C76.632 56.1332 76.6654 55.8199 76.732 55.4732C76.7987 55.1132 76.8654 54.7666 76.932 54.4332C77.012 54.0999 77.0654 53.8866 77.092 53.7932C77.1987 53.3266 77.2987 52.8666 77.392 52.4132C77.4854 51.9599 77.532 51.5932 77.532 51.3132C77.532 50.6332 77.292 50.2932 76.812 50.2932C76.4654 50.2932 76.1587 50.4666 75.892 50.8132C75.6254 51.1466 75.412 51.5866 75.252 52.1332L73.892 58.5532H71.012L72.472 51.6532C72.512 51.4932 72.532 51.3266 72.532 51.1532C72.532 50.5666 72.332 50.2732 71.932 50.2732C71.5587 50.2732 71.232 50.4466 70.952 50.7932C70.6854 51.1266 70.472 51.5732 70.312 52.1332L68.952 58.5532H66.072L68.192 48.5532H71.072L70.852 49.5932C71.532 48.8332 72.3454 48.4532 73.292 48.4532C74.4654 48.4532 75.152 49.0266 75.352 50.1732C76.0854 49.0399 77.012 48.4732 78.132 48.4732C78.812 48.4732 79.352 48.6599 79.752 49.0332C80.152 49.4066 80.352 49.9732 80.352 50.7332C80.352 51.1199 80.3054 51.5532 80.212 52.0332C80.1187 52.4999 79.9854 53.0732 79.812 53.7532C79.7054 54.1666 79.6054 54.5732 79.512 54.9732C79.432 55.3599 79.392 55.6666 79.392 55.8932C79.392 56.1599 79.452 56.3666 79.572 56.5132C79.692 56.6599 79.8987 56.7332 80.192 56.7332C80.592 56.7332 80.912 56.5932 81.152 56.3132C81.392 56.0199 81.632 55.5732 81.872 54.9732H82.712C82.2187 56.4399 81.6454 57.4266 80.992 57.9332C80.352 58.4266 79.6854 58.6732 78.992 58.6732ZM84.2711 58.6732C83.5111 58.6732 82.8778 58.4132 82.3711 57.8932C81.8644 57.3732 81.6111 56.5599 81.6111 55.4532C81.6111 54.4666 81.8044 53.4332 82.1911 52.3532C82.5911 51.2599 83.1778 50.3399 83.9511 49.5932C84.7378 48.8332 85.6711 48.4532 86.7511 48.4532C87.2978 48.4532 87.7044 48.5466 87.9711 48.7332C88.2378 48.9199 88.3711 49.1666 88.3711 49.4732V49.6132L88.5911 48.5532H91.4711L90.0311 55.3532C89.9778 55.5532 89.9511 55.7666 89.9511 55.9932C89.9511 56.5666 90.2244 56.8532 90.7711 56.8532C91.1444 56.8532 91.4644 56.6799 91.7311 56.3332C92.0111 55.9866 92.2311 55.5332 92.3911 54.9732H93.2311C92.7378 56.4132 92.1244 57.3932 91.3911 57.9132C90.6711 58.4199 89.9444 58.6732 89.2111 58.6732C88.6511 58.6732 88.1978 58.5199 87.8511 58.2132C87.5178 57.8932 87.3178 57.4332 87.2511 56.8332C86.8644 57.3799 86.4311 57.8266 85.9511 58.1732C85.4844 58.5066 84.9244 58.6732 84.2711 58.6732ZM85.5711 56.7332C85.9044 56.7332 86.2311 56.5799 86.5511 56.2732C86.8844 55.9532 87.1111 55.5199 87.2311 54.9732L88.1911 50.4532C88.1911 50.2799 88.1244 50.1132 87.9911 49.9532C87.8578 49.7799 87.6511 49.6932 87.3711 49.6932C86.8378 49.6932 86.3578 50.0066 85.9311 50.6332C85.5044 51.2466 85.1711 51.9932 84.9311 52.8732C84.6911 53.7399 84.5711 54.5066 84.5711 55.1732C84.5711 55.8399 84.6644 56.2666 84.8511 56.4532C85.0511 56.6399 85.2911 56.7332 85.5711 56.7332ZM99.2784 58.6732C98.5718 58.6732 98.0584 58.4599 97.7384 58.0332C97.4184 57.6066 97.2584 57.0666 97.2584 56.4132C97.2584 56.1332 97.2918 55.8199 97.3584 55.4732C97.4251 55.1132 97.4918 54.7666 97.5584 54.4332C97.6384 54.0999 97.6918 53.8866 97.7184 53.7932C97.8251 53.3266 97.9251 52.8666 98.0184 52.4132C98.1118 51.9599 98.1584 51.5932 98.1584 51.3132C98.1584 50.6332 97.9184 50.2932 97.4384 50.2932C97.0918 50.2932 96.7851 50.4666 96.5184 50.8132C96.2518 51.1466 96.0384 51.5866 95.8784 52.1332L94.5184 58.5532H91.6384L93.7584 48.5532H96.6384L96.4184 49.5932C97.0851 48.8466 97.8651 48.4732 98.7584 48.4732C99.4384 48.4732 99.9784 48.6599 100.378 49.0332C100.778 49.4066 100.978 49.9732 100.978 50.7332C100.978 51.1199 100.932 51.5532 100.838 52.0332C100.745 52.4999 100.612 53.0732 100.438 53.7532C100.332 54.1666 100.232 54.5732 100.138 54.9732C100.058 55.3599 100.018 55.6666 100.018 55.8932C100.018 56.1599 100.078 56.3666 100.198 56.5132C100.318 56.6599 100.525 56.7332 100.818 56.7332C101.138 56.7332 101.358 56.6932 101.478 56.6132C101.398 57.2932 101.152 57.8066 100.738 58.1532C100.338 58.4999 99.8518 58.6732 99.2784 58.6732Z" fill="#182130"/>
<path d="M13.9971 37.2602C14.0985 37.1588 14.0985 36.9558 13.8956 36.9558L12.5767 36.7529C12.4752 36.7529 12.4752 36.6515 12.3738 36.6515L11.765 35.434C11.6636 35.3325 11.4607 35.3325 11.3592 35.434L10.7505 36.6515C10.7505 36.7529 10.649 36.7529 10.5476 36.7529L9.22865 36.9558C9.02573 36.9558 9.02573 37.1588 9.12719 37.2602L10.0403 38.1733C10.0403 38.1733 10.1417 38.2748 10.1417 38.3762L9.93884 39.6952C9.93884 39.8981 10.0403 39.9995 10.2432 39.8981L11.4607 39.2893C11.5621 39.2893 11.5621 39.2893 11.6636 39.2893L12.8811 39.8981C12.9825 39.9995 13.1854 39.8981 13.1854 39.6952L12.9825 38.3762C12.9825 38.2748 12.9825 38.2748 13.084 38.1733L13.9971 37.2602Z" fill="#F2C444"/>
<path d="M13.9981 54.6093C14.0995 54.5079 14.0995 54.305 13.8966 54.305L12.5777 54.1021C12.4762 54.1021 12.4762 54.0006 12.3748 54.0006L11.766 52.7831C11.6646 52.6817 11.4617 52.6817 11.3602 52.7831L10.7515 54.0006C10.7515 54.102 10.65 54.1021 10.5485 54.1021L9.22962 54.305C9.02671 54.305 9.02671 54.5079 9.12817 54.6093L10.0413 55.5224C10.0413 55.5224 10.1427 55.6239 10.1427 55.7254L9.93981 57.0443C9.93981 57.2472 10.0413 57.3486 10.2442 57.2472L11.4617 56.6385C11.5631 56.6385 11.5631 56.6385 11.6646 56.6385L12.882 57.2472C12.9835 57.3486 13.1864 57.2472 13.1864 57.0443L12.9835 55.7254C12.9835 55.6239 12.9835 55.6239 13.085 55.5224L13.9981 54.6093Z" fill="#F2C444"/>
<path d="M13.9981 72.059C14.0995 71.9576 14.0995 71.7547 13.8966 71.7547L12.5777 71.5518C12.4762 71.5518 12.4762 71.4503 12.3748 71.4503L11.766 70.2328C11.6646 70.1314 11.4617 70.1314 11.3602 70.2328L10.7515 71.4503C10.7515 71.5518 10.65 71.5518 10.5485 71.5518L9.22962 71.7547C9.02671 71.7547 9.02671 71.9576 9.12817 72.059L10.0413 72.9721C10.0413 72.9721 10.1427 73.0736 10.1427 73.1751L9.93981 74.494C9.93981 74.6969 10.0413 74.7984 10.2442 74.6969L11.4617 74.0882C11.5631 74.0882 11.5631 74.0882 11.6646 74.0882L12.882 74.6969C12.9835 74.7984 13.1864 74.6969 13.1864 74.494L12.9835 73.1751C12.9835 73.0736 12.9835 73.0736 13.085 72.9721L13.9981 72.059Z" fill="#F2C444"/>
<path d="M115.958 37.2602C116.059 37.1588 116.059 36.9558 115.857 36.9558L114.538 36.7529C114.436 36.7529 114.436 36.6515 114.335 36.6515L113.726 35.434C113.625 35.3325 113.422 35.3325 113.32 35.434L112.711 36.6515C112.711 36.7529 112.61 36.7529 112.509 36.7529L111.19 36.9558C110.987 36.9558 110.987 37.1588 111.088 37.2602L112.001 38.1733C112.001 38.1733 112.103 38.2748 112.103 38.3762L111.9 39.6952C111.9 39.8981 112.001 39.9995 112.204 39.8981L113.422 39.2893C113.523 39.2893 113.523 39.2893 113.625 39.2893L114.842 39.8981C114.943 39.9995 115.146 39.8981 115.146 39.6952L114.943 38.3762C114.943 38.2748 114.943 38.2748 115.045 38.1733L115.958 37.2602Z" fill="#F2C444"/>
<path d="M115.959 54.6093C116.06 54.5079 116.06 54.305 115.858 54.305L114.539 54.1021C114.437 54.1021 114.437 54.0006 114.336 54.0006L113.727 52.7831C113.626 52.6817 113.423 52.6817 113.321 52.7831L112.712 54.0006C112.712 54.102 112.611 54.1021 112.509 54.1021L111.191 54.305C110.988 54.305 110.988 54.5079 111.089 54.6093L112.002 55.5224C112.002 55.5224 112.104 55.6239 112.104 55.7254L111.901 57.0443C111.901 57.2472 112.002 57.3486 112.205 57.2472L113.423 56.6385C113.524 56.6385 113.524 56.6385 113.626 56.6385L114.843 57.2472C114.944 57.3486 115.147 57.2472 115.147 57.0443L114.944 55.7254C114.944 55.6239 114.944 55.6239 115.046 55.5224L115.959 54.6093Z" fill="#F2C444"/>
<path d="M115.959 72.059C116.06 71.9576 116.06 71.7547 115.858 71.7547L114.539 71.5518C114.437 71.5518 114.437 71.4503 114.336 71.4503L113.727 70.2328C113.626 70.1314 113.423 70.1314 113.321 70.2328L112.712 71.4503C112.712 71.5518 112.611 71.5518 112.509 71.5518L111.191 71.7547C110.988 71.7547 110.988 71.9576 111.089 72.059L112.002 72.9721C112.002 72.9721 112.104 73.0736 112.104 73.1751L111.901 74.494C111.901 74.6969 112.002 74.7984 112.205 74.6969L113.423 74.0882C113.524 74.0882 113.524 74.0882 113.626 74.0882L114.843 74.6969C114.944 74.7984 115.147 74.6969 115.147 74.494L114.944 73.1751C114.944 73.0736 114.944 73.0736 115.046 72.9721L115.959 72.059Z" fill="#F2C444"/>
<path d="M116.674 21.9396L93.5423 10.3736C73.8598 0.532365 51.3366 0.532365 31.6541 10.3736L8.52213 21.9396C5.5799 23.4614 3.55078 26.8095 3.55078 30.4619V77.5375C3.55078 81.19 5.47845 84.538 8.52213 86.0599L31.6541 97.6258C41.4954 102.496 52.0468 105.032 62.5982 105.032C73.1497 105.032 83.7011 102.597 93.5423 97.6258L116.674 86.0599C119.617 84.538 121.646 81.19 121.646 77.5375V30.4619C121.646 26.8095 119.718 23.4614 116.674 21.9396ZM119.617 77.5375C119.617 80.4798 118.095 83.1176 115.863 84.2336L92.7307 95.7996C73.6569 105.337 51.7424 105.337 32.6687 95.7996L9.43523 84.2336C7.10174 83.1176 5.68136 80.4798 5.68136 77.5375V30.4619C5.68136 27.5197 7.2032 24.8818 9.43523 23.7658L32.5672 12.1998C42.1041 7.43138 52.3512 5.09789 62.5982 5.09789C72.8453 5.09789 83.0924 7.43138 92.6292 12.1998L115.761 23.7658C118.095 24.8818 119.515 27.5197 119.515 30.4619V77.5375H119.617Z" fill="#3D798A"/>
</svg>