<svg width="106" height="109" viewBox="0 0 106 109" fill="none" xmlns="http://www.w3.org/2000/svg">
<path d="M2.07812 17.6651V64.9464C2.07812 89.2849 24.8464 109 52.9997 109C81.153 109 103.921 89.2849 103.921 64.9464V17.6651C75.4845 -5.88836 30.6093 -5.88836 2.07812 17.6651Z" fill="#657591"/>
<path d="M6.3291 20.7184V64.0741C6.3291 86.4062 27.2079 104.464 52.9993 104.464C78.7908 104.464 99.6696 86.4062 99.6696 64.0741V20.7184C73.5947 -0.828649 32.404 -0.828649 6.3291 20.7184Z" fill="#C7D5DB"/>
<path d="M100.237 20.1949C73.7846 -1.70104 32.3104 -1.70104 5.85764 20.1949L5.57422 20.4566V64.0741C5.57422 86.7551 26.8309 105.249 53.0947 105.249C79.2641 105.249 100.615 86.7551 100.615 64.0741V20.4566L100.237 20.1949ZM98.6313 64.0741C98.6313 85.7956 78.1304 103.504 53.0002 103.504C27.8701 103.504 7.36923 85.7956 7.36923 64.0741V21.2417C33.0662 0.305364 72.9343 0.305364 98.6313 21.2417V64.0741Z" fill="white"/>
<path d="M106 96.3507C100.238 94.6933 94.4746 93.3847 88.6172 92.2507C88.6172 87.4528 88.6172 82.6549 88.6172 77.8569C94.4746 78.9038 100.238 80.2995 106 81.957C104.205 83.8761 102.41 85.7953 100.615 87.7145C102.505 90.5932 104.3 93.472 106 96.3507Z" fill="#E08E2B"/>
<path d="M0 81.957C5.76292 80.2995 11.5258 78.991 17.3832 77.8569C17.3832 82.6549 17.3832 87.4528 17.3832 92.2507C11.5258 93.2975 5.76292 94.6933 0 96.3507C1.79501 93.472 3.59002 90.5932 5.38503 87.7145C3.59002 85.7953 1.79501 83.7889 0 81.957Z" fill="#E08E2B"/>
<path d="M96.5524 88.5C67.8323 82.3935 38.1674 82.3935 9.44727 88.5C9.44727 83.702 9.44727 78.9041 9.44727 74.1062C38.1674 67.9998 67.8323 67.9998 96.5524 74.1062C96.5524 78.9041 96.5524 83.702 96.5524 88.5Z" fill="#F2C444"/>
<path d="M39.7532 58.4876C38.4932 60.7976 35.4132 62.0576 33.2782 62.0576C30.8982 62.0576 29.9532 60.4826 29.9532 58.5226C29.9532 55.3026 32.4732 50.9976 36.2182 50.1576C33.6982 49.4926 32.6832 47.4976 32.6832 45.4676C32.6832 43.0176 34.1882 40.5326 36.2532 40.5326C37.1982 40.5326 38.1782 41.0576 38.1782 42.4926C38.1782 43.6826 37.5132 45.2576 36.6382 45.5376C37.1282 46.2026 37.6882 46.4826 38.2832 46.4826C39.6832 46.4826 40.8732 44.9426 40.8732 42.8426C40.8732 39.9726 38.6332 38.4676 35.8682 38.4676C31.3882 38.4676 28.2032 42.3876 28.2032 45.9926C28.2032 47.5676 28.8332 49.1076 30.3382 50.1926C26.3132 51.1726 23.8632 55.5826 23.8632 59.2576C23.8632 62.5476 25.8232 65.4176 30.3032 65.4176C34.4682 65.4176 38.7382 62.9676 40.5582 58.8376L39.7532 58.4876ZM48.5376 40.2176L43.3576 40.9176L39.6126 58.4526C39.4376 59.2926 39.3326 60.0626 39.3326 60.7276C39.3326 63.7026 40.9776 64.9976 43.0776 64.9976C44.9676 64.9976 46.7526 63.8076 46.9276 61.3226C46.7176 61.4276 46.4376 61.5326 45.8076 61.5326C44.7226 61.5326 44.3726 60.9376 44.3726 60.1326C44.3726 59.8176 44.4426 59.4676 44.5126 59.1176L48.5376 40.2176ZM65.8566 38.6076C61.6216 41.1276 58.8916 41.3376 56.9666 41.3376L56.5466 42.9476H59.8716L55.2516 64.7876H60.2916L65.8566 38.6076ZM79.1618 38.5376C71.6368 38.5376 67.0168 46.3426 67.0168 55.8976C67.0168 61.7076 68.2418 65.1026 74.2618 65.1026C81.4368 65.1026 85.3918 54.6376 85.3918 47.6726C85.3918 41.7926 83.5368 38.5376 79.1618 38.5376ZM72.5468 53.4126C73.1418 45.5376 76.8168 40.3576 78.9168 40.3576C80.5618 40.3576 80.8068 42.5626 80.8068 45.4326C80.8068 53.5526 78.4268 62.1626 74.4368 62.1626C72.7568 62.1626 72.3718 59.4676 72.3718 56.8776C72.3718 55.5826 72.4768 54.3576 72.5468 53.4126Z" fill="#182130"/>
<path d="M58.2904 16.7058C58.5738 16.4441 58.3849 16.0952 58.007 16.008L55.1727 15.659C54.9838 15.659 54.8893 15.5718 54.8893 15.3973L53.6611 13.042C53.4722 12.7803 52.9998 12.7803 52.9053 13.042L51.6772 15.3973C51.5827 15.4846 51.4882 15.5718 51.3938 15.659L48.5595 16.008C48.1816 16.0952 48.0872 16.4441 48.2761 16.7058L50.3545 18.5378C50.449 18.625 50.5435 18.7995 50.449 18.8867L49.9767 21.5038C49.8822 21.8527 50.2601 22.1144 50.638 21.9399L53.1888 20.7187C53.2832 20.6314 53.4722 20.6314 53.5667 20.7187L56.1175 21.9399C56.4009 22.1144 56.7788 21.8527 56.7788 21.5038L56.3064 18.8867C56.3064 18.7995 56.3064 18.625 56.4009 18.5378L58.2904 16.7058Z" fill="#182130"/>
<path d="M67.171 18.7998C67.36 18.6254 67.2655 18.4509 66.9821 18.3637L65.2816 18.102C65.1871 18.102 65.0926 18.0147 65.0926 17.9275L64.3368 16.5317C64.2423 16.3573 63.9589 16.3573 63.8645 16.5317L63.1087 17.9275C63.1087 18.0147 63.0142 18.0147 62.9197 18.102L61.2192 18.3637C61.0302 18.3637 60.9358 18.6254 61.0302 18.7998L62.2584 19.9339C62.3529 20.0211 62.3529 20.1084 62.3529 20.1084L62.0694 21.6786C62.0694 21.8531 62.2584 22.0275 62.4473 21.9403L63.9589 21.1552C64.0534 21.1552 64.1479 21.1552 64.2423 21.1552L65.7539 21.9403C65.9429 22.0275 66.1318 21.8531 66.1318 21.6786L65.8484 20.1084C65.8484 20.0211 65.8484 19.9339 65.9429 19.9339L67.171 18.7998Z" fill="#182130"/>
<path d="M44.9689 18.7998C45.1578 18.6254 45.0634 18.4509 44.7799 18.3637L43.0794 18.102C42.9849 18.102 42.8905 18.0147 42.8905 17.9275L42.1347 16.5317C42.0402 16.3573 41.7568 16.3573 41.6623 16.5317L40.9065 17.9275C40.9065 18.0147 40.812 18.0147 40.7176 18.102L39.017 18.3637C38.8281 18.3637 38.7336 18.6254 38.8281 18.7998L40.0562 19.9339C40.1507 20.0211 40.1507 20.1084 40.1507 20.1084L39.8673 21.6786C39.8673 21.8531 40.0562 22.0275 40.2452 21.9403L41.7568 21.1552C41.8513 21.1552 41.9457 21.1552 42.0402 21.1552L43.5518 21.9403C43.7407 22.0275 43.9297 21.8531 43.9297 21.6786L43.6463 20.1084C43.6463 20.0211 43.6463 19.9339 43.7407 19.9339L44.9689 18.7998Z" fill="#182130"/>
<path d="M59.3306 93.5596C59.0472 93.6468 58.7637 93.734 58.5748 93.9085C58.3858 94.083 58.1024 94.2574 58.0079 94.5192C57.7245 94.9553 57.5356 95.566 57.63 96.1766C58.2914 96.0894 58.8582 95.7404 59.1416 95.3043C59.4251 94.6936 59.5195 94.1702 59.3306 93.5596Z" fill="#182130"/>
<path d="M60.4641 97.9212C60.0862 98.0084 59.8028 98.0084 59.4249 98.0084C59.1415 97.9212 58.7636 97.834 58.5746 97.6595C58.0078 97.3106 57.7244 96.7871 57.6299 96.1765C58.2912 96.0893 58.9525 96.2637 59.4249 96.5254C59.8973 96.7871 60.2752 97.3106 60.4641 97.9212Z" fill="#182130"/>
<path d="M60.9374 93.123C60.654 93.2103 60.3705 93.2975 60.1816 93.472C59.9926 93.6465 59.8037 93.8209 59.6147 94.0826C59.3313 94.606 59.2369 95.2167 59.3313 95.7401C59.9926 95.5656 60.465 95.2167 60.7484 94.6933C61.1263 94.3443 61.2208 93.7337 60.9374 93.123Z" fill="#182130"/>
<path d="M62.4487 97.3978C62.0708 97.485 61.7874 97.485 61.4095 97.485C61.0316 97.485 60.7482 97.3105 60.4647 97.2233C59.8979 96.9616 59.52 96.4382 59.3311 95.8276C59.9924 95.6531 60.5592 95.8276 61.1261 96.0893C61.7874 96.351 62.2597 96.7871 62.4487 97.3978Z" fill="#182130"/>
<path d="M62.5428 92.6001C61.976 92.7746 61.5981 93.2107 61.3147 93.7341C61.1257 94.2576 61.0312 94.8682 61.2202 95.4788C61.8815 95.3044 62.3539 94.8682 62.5428 94.3448C62.8262 93.7342 62.8262 93.1235 62.5428 92.6001Z" fill="#182130"/>
<path d="M64.4318 96.7001C63.7705 96.9618 63.0147 96.8746 62.4479 96.7001C61.881 96.4384 61.4087 96.0023 61.2197 95.3916C61.881 95.2171 62.4479 95.2171 63.0147 95.4788C63.6761 95.7406 64.1484 96.1767 64.4318 96.7001Z" fill="#182130"/>
<path d="M64.1484 91.9019C63.5816 92.1636 63.2982 92.5997 63.0148 93.1231C62.8258 93.6466 62.8258 94.2572 63.0148 94.7806C63.2982 94.6934 63.5816 94.5189 63.7705 94.3444C63.9595 94.17 64.1484 93.9083 64.2429 93.6466C64.4319 93.0359 64.4319 92.4253 64.1484 91.9019Z" fill="#182130"/>
<path d="M66.3215 95.915C65.6602 96.1767 64.9989 96.2639 64.432 96.0022C63.8652 95.7405 63.3928 95.3043 63.1094 94.7809C63.3928 94.6937 63.7707 94.6064 64.0541 94.6064C64.3375 94.6064 64.621 94.6064 64.9989 94.7809C65.4712 94.9554 65.9436 95.3916 66.3215 95.915Z" fill="#182130"/>
<path d="M65.661 91.1172C65.3775 91.2917 65.1886 91.4661 64.9996 91.6406C64.8107 91.8151 64.7162 92.0768 64.6217 92.3385C64.4328 92.8619 64.5273 93.4725 64.8107 93.9959C65.0941 93.9087 65.3775 93.647 65.5665 93.4725C65.7554 93.2981 65.9444 93.0364 65.9444 92.6874C66.0389 92.2512 65.9444 91.7278 65.661 91.1172Z" fill="#182130"/>
<path d="M68.1171 95.0424C67.8337 95.2169 67.4558 95.3041 67.1724 95.3914C66.889 95.3914 66.5111 95.3914 66.2277 95.3041C65.6608 95.1297 65.094 94.6935 64.8105 94.1701C65.094 94.0828 65.3774 93.9956 65.7553 93.9956C66.0387 93.9956 66.4166 93.9956 66.7 94.0828C67.1724 94.1701 67.7392 94.4318 68.1171 95.0424Z" fill="#182130"/>
<path d="M67.0771 90.332C66.8882 90.5065 66.6047 90.681 66.5103 90.9427C66.3213 91.2044 66.2268 91.3788 66.2268 91.6406C66.1324 92.164 66.2268 92.7746 66.5103 93.298C67.0771 92.9491 67.455 92.5129 67.5495 91.9895C67.6439 91.4661 67.455 90.7682 67.0771 90.332Z" fill="#182130"/>
<path d="M69.8171 93.9958C69.5337 94.1703 69.2502 94.3448 68.8723 94.3448C68.5889 94.432 68.211 94.432 67.9276 94.3448C67.2663 94.2575 66.7939 93.8214 66.416 93.298C66.9829 92.949 67.6442 92.949 68.211 93.0363C68.8723 93.2107 69.4392 93.4724 69.8171 93.9958Z" fill="#182130"/>
<path d="M68.399 89.3726C67.9266 89.7215 67.6432 90.1577 67.6432 90.7683C67.5487 91.2917 67.7377 91.9024 68.1156 92.4258C68.6824 92.0768 68.9659 91.5534 69.0603 90.9428C69.0603 90.4194 68.8714 89.8087 68.399 89.3726Z" fill="#182130"/>
<path d="M71.5183 92.8616C70.9514 93.2978 70.2901 93.385 69.6288 93.2978C68.9675 93.2106 68.4951 92.9489 68.1172 92.4255C69.0619 91.7276 70.668 91.9021 71.5183 92.8616Z" fill="#182130"/>
<path d="M69.7238 88.3252C69.2515 88.6741 69.0625 89.1975 69.0625 89.8082C69.0625 90.3316 69.157 90.9422 69.6294 91.3784C70.1962 91.0295 70.3851 90.4188 70.3851 89.8954C70.3851 89.2848 70.1962 88.7614 69.7238 88.3252Z" fill="#182130"/>
<path d="M73.03 91.5532C72.4631 91.9894 71.8018 92.2511 71.235 92.1638C70.5736 92.0766 70.0068 91.8149 69.6289 91.2915C70.1958 90.9425 70.7626 90.7681 71.4239 90.7681C71.9908 90.8553 72.5576 91.117 73.03 91.5532Z" fill="#182130"/>
<path d="M70.8559 87.1914C70.478 87.6276 70.2891 88.151 70.2891 88.6744C70.2891 89.1978 70.478 89.8085 70.9504 90.2446C71.4227 89.8085 71.7062 89.285 71.6117 88.7616C71.7062 88.151 71.4228 87.6276 70.8559 87.1914Z" fill="#182130"/>
<path d="M74.4477 90.1572C73.9753 90.6806 73.314 90.9423 72.6527 90.9423C71.9914 90.9423 71.4245 90.6806 70.9521 90.2444C71.4245 89.8083 72.0858 89.6338 72.6527 89.6338C73.314 89.6338 73.9753 89.8083 74.4477 90.1572Z" fill="#182130"/>
<path d="M46.7653 93.5596C47.0487 93.6468 47.3321 93.734 47.5211 93.9085C47.71 94.083 47.9935 94.2574 48.0879 94.5192C48.3714 94.9553 48.5603 95.566 48.4658 96.1766C47.8045 96.0894 47.2377 95.7404 46.9542 95.3043C46.6708 94.6936 46.5763 94.1702 46.7653 93.5596Z" fill="#182130"/>
<path d="M45.5381 97.9212C45.916 98.0084 46.1994 98.0084 46.5773 98.0084C46.8607 97.9212 47.2386 97.834 47.4276 97.6595C47.9944 97.3106 48.2778 96.7871 48.3723 96.1765C47.711 96.0893 47.0497 96.2637 46.5773 96.5254C46.1994 96.7871 45.727 97.3106 45.5381 97.9212Z" fill="#182130"/>
<path d="M45.0636 93.123C45.347 93.2103 45.6304 93.2975 45.8194 93.472C46.0083 93.6465 46.1972 93.8209 46.3862 94.0826C46.6696 94.606 46.7641 95.2167 46.6696 95.7401C46.0083 95.5656 45.5359 95.2167 45.2525 94.6933C44.8746 94.3443 44.8746 93.7337 45.0636 93.123Z" fill="#182130"/>
<path d="M43.5518 97.3978C43.9297 97.485 44.2131 97.485 44.591 97.485C44.9689 97.485 45.2523 97.3105 45.5357 97.2233C46.1026 96.9616 46.4805 96.4382 46.6694 95.8276C46.0081 95.6531 45.4412 95.8276 44.8744 96.0893C44.2131 96.351 43.7407 96.7871 43.5518 97.3978Z" fill="#182130"/>
<path d="M43.4587 92.6001C44.0255 92.7746 44.4034 93.2107 44.6868 93.7341C44.8758 94.2576 44.9702 94.8682 44.7813 95.4788C44.12 95.3044 43.6476 94.8682 43.4587 94.3448C43.1752 93.7342 43.1752 93.1235 43.4587 92.6001Z" fill="#182130"/>
<path d="M41.6631 96.7001C42.3244 96.9618 43.0802 96.8746 43.647 96.7001C44.2139 96.4384 44.6863 96.0023 44.8752 95.3916C44.2139 95.2171 43.647 95.2171 43.0802 95.4788C42.4189 95.7406 41.852 96.1767 41.6631 96.7001Z" fill="#182130"/>
<path d="M41.9472 91.9019C42.5141 92.1636 42.7975 92.5997 43.0809 93.1231C43.2699 93.6466 43.2699 94.2572 43.0809 94.7806C42.7975 94.6934 42.5141 94.5189 42.3251 94.3444C42.1362 94.17 41.9472 93.9083 41.8528 93.6466C41.5693 93.0359 41.6638 92.4253 41.9472 91.9019Z" fill="#182130"/>
<path d="M39.7734 95.915C40.4348 96.1767 41.0961 96.2639 41.6629 96.0022C42.2298 95.7405 42.7021 95.3043 42.9856 94.7809C42.7021 94.6937 42.3242 94.6064 42.0408 94.6064C41.7574 94.6064 41.474 94.6064 41.0961 94.7809C40.6237 94.9554 40.0569 95.3916 39.7734 95.915Z" fill="#182130"/>
<path d="M40.4355 91.1172C40.7189 91.2917 40.9079 91.4661 41.0968 91.6406C41.2858 91.8151 41.3803 92.0768 41.4747 92.3385C41.6637 92.8619 41.5692 93.4725 41.2858 93.9959C41.0024 93.9087 40.7189 93.647 40.53 93.4725C40.341 93.2981 40.1521 93.0364 40.1521 92.6874C39.9631 92.2512 40.0576 91.7278 40.4355 91.1172Z" fill="#182130"/>
<path d="M37.9795 95.0424C38.2629 95.2169 38.6408 95.3041 38.9242 95.3914C39.2077 95.3914 39.5856 95.3914 39.869 95.3041C40.4358 95.1297 41.0027 94.6935 41.2861 94.1701C41.0027 94.0828 40.7192 93.9956 40.3413 93.9956C40.0579 93.9956 39.68 93.9956 39.3966 94.0828C38.8298 94.1701 38.2629 94.4318 37.9795 95.0424Z" fill="#182130"/>
<path d="M39.0189 90.332C39.2079 90.5065 39.4913 90.681 39.5858 90.9427C39.7747 91.2044 39.8692 91.3788 39.8692 91.6406C39.9636 92.164 39.8692 92.7746 39.5858 93.298C39.0189 92.9491 38.641 92.5129 38.5465 91.9895C38.4521 91.4661 38.641 90.7682 39.0189 90.332Z" fill="#182130"/>
<path d="M36.1846 93.9958C36.468 94.1703 36.7514 94.3448 37.1293 94.3448C37.4127 94.432 37.7906 94.432 38.0741 94.3448C38.7354 94.2575 39.2077 93.8214 39.5856 93.298C39.0188 92.949 38.3575 92.949 37.7906 93.0363C37.1293 93.2107 36.5625 93.4724 36.1846 93.9958Z" fill="#182130"/>
<path d="M37.6008 89.3726C38.0731 89.7215 38.3566 90.1577 38.3566 90.7683C38.451 91.2917 38.2621 91.9024 37.8842 92.4258C37.3173 92.0768 37.0339 91.5534 36.9395 90.9428C37.0339 90.4194 37.2229 89.8087 37.6008 89.3726Z" fill="#182130"/>
<path d="M34.5771 92.8616C35.144 93.2978 35.8053 93.385 36.4666 93.2978C37.128 93.2106 37.6003 92.9489 37.9782 92.4255C36.939 91.7276 35.4274 91.9021 34.5771 92.8616Z" fill="#182130"/>
<path d="M36.3728 88.3252C36.8451 88.6741 37.0341 89.1975 37.0341 89.8082C37.0341 90.3316 36.9396 90.9422 36.4673 91.3784C35.9004 91.0295 35.7115 90.4188 35.7115 89.8954C35.617 89.2848 35.9004 88.7614 36.3728 88.3252Z" fill="#182130"/>
<path d="M32.9717 91.5532C33.5385 91.9894 34.1998 92.2511 34.7667 92.1638C35.428 92.0766 35.9949 91.8149 36.3727 91.2915C35.8059 90.9425 35.2391 90.7681 34.5777 90.7681C34.1054 90.8553 33.4441 91.117 32.9717 91.5532Z" fill="#182130"/>
<path d="M35.144 87.1914C35.5219 87.6276 35.7109 88.151 35.7109 88.6744C35.7109 89.1978 35.5219 89.8085 35.0495 90.2446C34.5772 89.8085 34.2937 89.285 34.3882 88.7616C34.3882 88.151 34.6716 87.6276 35.144 87.1914Z" fill="#182130"/>
<path d="M31.5547 90.1572C32.0271 90.6806 32.6884 90.9423 33.3497 90.9423C34.011 90.9423 34.5779 90.6806 35.0502 90.2444C34.5779 89.8083 33.9165 89.6338 33.3497 89.6338C32.6884 89.6338 32.0271 89.8083 31.5547 90.1572Z" fill="#182130"/>
<path d="M55.9294 95.0427C56.1183 94.8682 56.0239 94.6937 55.8349 94.6065L54.2289 94.3448C54.1344 94.3448 54.0399 94.2576 54.0399 94.2576L53.2841 92.8618C53.1896 92.6873 52.9062 92.6873 52.8117 92.8618L52.056 94.2576C52.056 94.3448 51.9615 94.3448 51.867 94.3448L50.2609 94.6065C50.072 94.6065 49.9775 94.8682 50.1665 95.0427L51.3946 96.0895C51.4891 96.1767 51.4891 96.1767 51.4891 96.264L51.2057 97.747C51.2057 97.9214 51.3946 98.0959 51.5836 98.0087L53.0007 97.3108C53.0952 97.3108 53.1896 97.3108 53.1896 97.3108L54.6068 98.0087C54.7957 98.0959 54.9847 97.9214 54.9847 97.747L54.7012 96.264C54.7012 96.1767 54.7012 96.0895 54.7957 96.0895L55.9294 95.0427Z" fill="#182130"/>
</svg>