<svg width="135" height="130" viewBox="0 0 135 130" fill="none" xmlns="http://www.w3.org/2000/svg">
<path d="M132.117 87.0881C131.276 89.7788 126.791 91.1241 125.576 93.7251C124.362 96.2364 126.231 100.452 124.642 102.784C123.054 105.116 118.289 105.205 116.42 107.358C114.551 109.51 115.112 113.995 112.869 115.789C110.627 117.582 106.142 116.416 103.619 117.941C101.19 119.466 100.443 123.95 97.7329 125.116C95.1167 126.282 91.099 123.861 88.2026 124.668C85.3995 125.475 83.3439 129.511 80.4475 129.959C77.6444 130.318 74.4676 127 71.4777 127C68.4878 127 65.311 130.408 62.508 129.959H62.4145C59.6115 129.421 57.5559 125.475 54.7529 124.668C54.2857 124.578 53.7251 124.488 53.1645 124.488C50.5483 124.578 47.3715 126.013 45.2225 125.027C42.9801 124.04 42.0457 120.632 40.3639 118.748C40.0836 118.39 39.8033 118.12 39.4296 117.941C37.0002 116.416 32.4219 117.582 30.1795 115.789C28.0305 113.995 28.5911 109.421 26.629 107.358C25.8815 106.551 24.7603 106.102 23.5456 105.564C21.5835 104.847 19.3411 104.219 18.4067 102.784C16.8183 100.452 18.687 96.2364 17.4724 93.7251C16.2577 91.2138 11.7728 89.8685 10.9319 87.0881C10.091 84.3975 13.1744 80.9893 12.7072 78.1192C12.3334 75.4286 8.40918 72.8276 8.40918 70.0472C8.40918 67.1772 12.3334 64.6659 12.7072 61.9753C13.0809 59.1949 10.091 55.697 10.9319 53.0064C11.7728 50.3157 16.2577 48.9704 17.4724 46.3694C18.687 43.8581 16.8183 39.6427 18.4067 37.3108C19.9951 34.9789 24.6668 34.8892 26.629 32.7367C28.4977 30.5842 27.9371 26.0997 30.1795 24.3059C32.4219 22.5122 36.9068 23.6781 39.4296 22.1534C41.8589 20.6287 42.6063 16.1442 45.316 14.9783C47.9321 13.8123 51.9498 16.2339 54.7529 15.4267C57.5559 14.6195 59.6115 10.5835 62.508 10.1351C64.2832 9.86603 66.2454 11.1217 68.1141 12.1083C69.2353 12.6464 70.3565 13.1845 71.4777 13.1845C74.4676 13.1845 77.6444 9.77634 80.4475 10.2248C83.3439 10.5835 85.3995 14.7092 88.2026 15.5164C88.6697 15.6061 89.0435 15.6958 89.5106 15.6958C92.1268 15.6958 95.397 14.0814 97.6395 15.068C99.8819 16.0546 100.723 19.2834 102.405 21.2565C102.778 21.6153 103.059 21.974 103.526 22.2431C105.955 23.7678 110.44 22.6018 112.682 24.3956C112.682 24.3956 112.682 24.3956 112.776 24.3956C115.018 26.2791 114.364 30.7635 116.326 32.8264C118.195 34.9789 122.96 35.0686 124.549 37.4005C126.137 39.7324 124.268 43.9478 125.483 46.4591C126.698 48.9704 131.183 50.3157 132.024 53.0961C132.864 55.7867 129.781 59.1949 130.248 62.0649C130.622 64.8453 134.546 67.3566 134.546 70.1369C134.546 73.007 130.622 75.5183 130.248 78.2089C129.968 80.8996 132.958 84.3975 132.117 87.0881Z" fill="#F2C444"/>
<path d="M89.6984 15.6061L40.5517 118.748C40.2714 118.39 39.9911 118.12 39.6173 117.941C37.188 116.416 32.6097 117.582 30.3673 115.789C28.2183 113.995 28.7789 109.421 26.8168 107.358C26.0693 106.551 24.9481 106.102 23.7334 105.564L68.3018 12.1082C69.423 12.6463 70.5443 13.1845 71.6655 13.1845C74.6554 13.1845 77.8322 9.77631 80.6352 10.2248C83.5317 10.5835 85.5873 14.7092 88.3903 15.5164C88.8575 15.5164 89.2312 15.6061 89.6984 15.6061Z" fill="#E08E2B"/>
<path d="M112.871 24.3055L62.6026 129.869C59.7995 129.331 57.744 125.385 54.9409 124.578C54.4738 124.488 53.9131 124.398 53.3525 124.398L102.593 21.0767C102.966 21.4354 103.247 21.7942 103.714 22.0632C106.143 23.6776 110.628 22.5117 112.871 24.3055Z" fill="#FFED8A"/>
<path d="M71.6651 120.811C101.079 120.811 124.923 97.9228 124.923 69.6886C124.923 41.4543 101.079 18.5659 71.6651 18.5659C42.2516 18.5659 18.4072 41.4543 18.4072 69.6886C18.4072 97.9228 42.2516 120.811 71.6651 120.811Z" fill="#C7D5DB"/>
<path d="M58.71 61.46V73.94C58.71 74.7 58.61 75.45 58.41 76.19C58.23 76.93 57.9 77.6 57.42 78.2C56.96 78.8 56.34 79.28 55.56 79.64C54.78 80.02 53.8 80.21 52.62 80.21C51.68 80.21 50.88 80.09 50.22 79.85C49.56 79.61 49.02 79.29 48.6 78.89C48.18 78.49 47.87 78.03 47.67 77.51C47.49 77.01 47.4 76.49 47.4 75.95C47.4 75.51 47.46 75.05 47.58 74.57C47.72 74.11 47.93 73.69 48.21 73.31C48.49 72.91 48.86 72.59 49.32 72.35C49.8 72.09 50.38 71.96 51.06 71.96C51.24 71.96 51.47 71.99 51.75 72.05C52.05 72.09 52.34 72.21 52.62 72.41C52.92 72.61 53.17 72.92 53.37 73.34C53.57 73.74 53.67 74.3 53.67 75.02C53.39 74.74 53.12 74.56 52.86 74.48C52.6 74.42 52.37 74.39 52.17 74.39C51.39 74.39 50.85 74.58 50.55 74.96C50.25 75.34 50.1 75.76 50.1 76.22C50.1 76.52 50.15 76.82 50.25 77.12C50.35 77.42 50.5 77.68 50.7 77.9C50.92 78.14 51.17 78.33 51.45 78.47C51.75 78.63 52.1 78.71 52.5 78.71C53.16 78.71 53.7 78.46 54.12 77.96C54.56 77.48 54.78 76.7 54.78 75.62V68.18C54.32 69.02 53.71 69.66 52.95 70.1C52.19 70.52 51.29 70.73 50.25 70.73C49.23 70.73 48.28 70.52 47.4 70.1C46.52 69.68 45.75 69.07 45.09 68.27C44.43 67.47 43.91 66.49 43.53 65.33C43.17 64.17 42.99 62.86 42.99 61.4C42.99 60 43.17 58.7 43.53 57.5C43.91 56.28 44.46 55.23 45.18 54.35C45.9 53.47 46.79 52.78 47.85 52.28C48.93 51.76 50.18 51.5 51.6 51.5C52.38 51.5 53.16 51.59 53.94 51.77C54.72 51.93 55.42 52.2 56.04 52.58C56.68 52.96 57.19 53.45 57.57 54.05C57.97 54.65 58.17 55.38 58.17 56.24C58.17 56.86 58.04 57.36 57.78 57.74C57.54 58.1 57.12 58.28 56.52 58.28C56.28 58.28 55.94 58.24 55.5 58.16C55.06 58.06 54.66 57.84 54.3 57.5C54.58 57.4 54.79 57.14 54.93 56.72C55.07 56.28 55.14 55.9 55.14 55.58C55.14 55.4 55.11 55.17 55.05 54.89C54.99 54.61 54.87 54.34 54.69 54.08C54.53 53.8 54.28 53.57 53.94 53.39C53.62 53.19 53.19 53.09 52.65 53.09C51.85 53.09 51.13 53.32 50.49 53.78C49.87 54.22 49.34 54.82 48.9 55.58C48.48 56.32 48.16 57.18 47.94 58.16C47.72 59.14 47.61 60.17 47.61 61.25C47.61 62.43 47.73 63.45 47.97 64.31C48.23 65.17 48.55 65.89 48.93 66.47C49.33 67.03 49.77 67.45 50.25 67.73C50.73 67.99 51.21 68.12 51.69 68.12C52.67 68.12 53.47 67.56 54.09 66.44C54.73 65.32 55.09 63.65 55.17 61.43L58.71 61.46ZM73.5532 59V69.2C73.5532 70.04 73.6632 70.6 73.8832 70.88C74.1232 71.14 74.5332 71.27 75.1132 71.27C75.6932 71.27 76.1732 71.02 76.5532 70.52C76.9532 70.02 77.1832 69.39 77.2432 68.63H78.5032C78.3432 69.85 78.0632 70.83 77.6632 71.57C77.2632 72.29 76.8132 72.85 76.3132 73.25C75.8132 73.63 75.3032 73.88 74.7832 74C74.2632 74.12 73.8032 74.18 73.4032 74.18C72.3432 74.18 71.5332 73.94 70.9732 73.46C70.4332 72.96 70.0532 72.28 69.8332 71.42C69.6732 71.76 69.4832 72.1 69.2632 72.44C69.0432 72.76 68.7732 73.05 68.4532 73.31C68.1532 73.57 67.7932 73.78 67.3732 73.94C66.9732 74.1 66.5032 74.18 65.9632 74.18C65.3232 74.18 64.6932 74.06 64.0732 73.82C63.4532 73.58 62.8832 73.19 62.3632 72.65C61.8632 72.11 61.4532 71.4 61.1332 70.52C60.8332 69.62 60.6832 68.52 60.6832 67.22C60.6832 66.3 60.7832 65.35 60.9832 64.37C61.2032 63.39 61.5332 62.49 61.9732 61.67C62.4332 60.85 63.0232 60.18 63.7432 59.66C64.4832 59.12 65.3732 58.85 66.4132 58.85C66.6532 58.85 66.9132 58.87 67.1932 58.91C67.4732 58.93 67.7432 59 68.0032 59.12C68.2632 59.22 68.5032 59.38 68.7232 59.6C68.9432 59.8 69.1132 60.08 69.2332 60.44V59H73.5532ZM69.2332 61.88C69.2132 61.8 69.1732 61.7 69.1132 61.58C69.0532 61.44 68.9632 61.31 68.8432 61.19C68.7232 61.05 68.5732 60.94 68.3932 60.86C68.2132 60.76 68.0032 60.71 67.7632 60.71C67.2832 60.71 66.8632 60.92 66.5032 61.34C66.1632 61.74 65.8832 62.25 65.6632 62.87C65.4632 63.47 65.3132 64.14 65.2132 64.88C65.1132 65.6 65.0632 66.29 65.0632 66.95C65.0632 68.01 65.1432 68.84 65.3032 69.44C65.4632 70.02 65.6532 70.45 65.8732 70.73C66.1132 70.99 66.3632 71.15 66.6232 71.21C66.8832 71.25 67.1032 71.27 67.2832 71.27C67.5032 71.27 67.7232 71.22 67.9432 71.12C68.1832 71 68.3932 70.83 68.5732 70.61C68.7732 70.39 68.9332 70.12 69.0532 69.8C69.1732 69.46 69.2332 69.07 69.2332 68.63V61.88ZM76.9842 53.6L81.3042 53V59.75C81.8442 59.37 82.2842 59.13 82.6242 59.03C82.9642 58.91 83.3042 58.85 83.6442 58.85C84.3642 58.85 85.0142 59.01 85.5942 59.33C86.1942 59.63 86.7042 60.08 87.1242 60.68C87.5642 61.28 87.9042 62.03 88.1442 62.93C88.3842 63.81 88.5042 64.82 88.5042 65.96C88.5042 66.84 88.4142 67.77 88.2342 68.75C88.0542 69.71 87.7142 70.6 87.2142 71.42C86.7342 72.22 86.0642 72.88 85.2042 73.4C84.3642 73.92 83.2742 74.18 81.9342 74.18C80.2342 74.18 78.9742 73.76 78.1542 72.92C77.3542 72.08 76.9542 70.95 76.9542 69.53L76.9842 53.6ZM85.4142 66.23C85.4142 64.61 85.1842 63.34 84.7242 62.42C84.2642 61.5 83.6442 61.04 82.8642 61.04C82.6242 61.04 82.3442 61.09 82.0242 61.19C81.7042 61.27 81.4642 61.4 81.3042 61.58V69.5C81.3042 70.14 81.4442 70.6 81.7242 70.88C82.0042 71.14 82.3642 71.27 82.8042 71.27C83.3242 71.27 83.7542 71.12 84.0942 70.82C84.4342 70.5 84.6942 70.1 84.8742 69.62C85.0742 69.12 85.2142 68.58 85.2942 68C85.3742 67.4 85.4142 66.81 85.4142 66.23ZM96.2243 58.85C97.4643 58.85 98.4743 59.16 99.2543 59.78C100.034 60.38 100.594 61.34 100.934 62.66C101.114 62.56 101.274 62.43 101.414 62.27C101.574 62.09 101.704 61.91 101.804 61.73C101.924 61.53 102.024 61.34 102.104 61.16C102.184 60.98 102.244 60.83 102.284 60.71H103.244C103.164 61.01 103.064 61.34 102.944 61.7C102.844 62.06 102.714 62.42 102.554 62.78C102.414 63.12 102.234 63.45 102.014 63.77C101.794 64.09 101.524 64.37 101.204 64.61C101.224 64.81 101.234 65.02 101.234 65.24C101.254 65.44 101.264 65.65 101.264 65.87C101.264 67.03 101.164 68.12 100.964 69.14C100.764 70.14 100.424 71.02 99.9443 71.78C99.4843 72.52 98.8843 73.11 98.1443 73.55C97.4043 73.97 96.4943 74.18 95.4143 74.18C94.6743 74.18 93.9643 74.07 93.2843 73.85C92.6243 73.61 92.0343 73.23 91.5143 72.71C90.9943 72.17 90.5743 71.47 90.2543 70.61C89.9543 69.73 89.8043 68.66 89.8043 67.4C89.8043 66.54 89.8943 65.62 90.0743 64.64C90.2543 63.64 90.5843 62.71 91.0643 61.85C91.5443 60.99 92.1943 60.28 93.0143 59.72C93.8543 59.14 94.9243 58.85 96.2243 58.85ZM96.2543 71.36C96.6743 71.36 97.0343 71.22 97.3343 70.94C97.6543 70.64 97.9143 70.24 98.1143 69.74C98.3143 69.22 98.4543 68.61 98.5343 67.91C98.6343 67.21 98.6843 66.45 98.6843 65.63V65.21C97.8843 65.03 97.4843 64.44 97.4843 63.44C97.4843 62.8 97.7443 62.38 98.2643 62.18C98.0443 61.54 97.7743 61.13 97.4543 60.95C97.1543 60.75 96.8943 60.65 96.6743 60.65C96.2343 60.65 95.8543 60.86 95.5343 61.28C95.2343 61.68 94.9843 62.2 94.7843 62.84C94.5843 63.46 94.4343 64.15 94.3343 64.91C94.2543 65.67 94.2143 66.4 94.2143 67.1C94.2143 68 94.2743 68.73 94.3943 69.29C94.5343 69.85 94.7043 70.28 94.9043 70.58C95.1043 70.88 95.3243 71.09 95.5643 71.21C95.8043 71.31 96.0343 71.36 96.2543 71.36Z" fill="#182130"/>
<path d="M41.3926 83H103.34" stroke="#182130" stroke-width="2" stroke-linecap="round" stroke-linejoin="round"/>
<path d="M82.5935 106.91C82.1263 107 81.6591 107.269 81.2854 107.538C80.9116 107.807 80.5379 108.166 80.2576 108.525C79.697 109.332 79.4167 110.408 79.6036 111.484C80.7248 111.305 81.6591 110.767 82.2197 109.87C82.6869 109.063 82.8738 107.986 82.5935 106.91Z" fill="#F2C444"/>
<path d="M84.5572 114.713C83.9966 114.892 83.3425 114.892 82.7819 114.802C82.2213 114.713 81.6607 114.444 81.1935 114.174C80.2592 113.547 79.6986 112.65 79.5117 111.574C80.6329 111.394 81.7542 111.753 82.5951 112.291C83.5294 112.829 84.2769 113.636 84.5572 114.713Z" fill="#F2C444"/>
<path d="M85.3965 106.192C84.9293 106.372 84.4621 106.551 84.0884 106.91C83.7146 107.179 83.4343 107.627 83.154 107.986C82.6868 108.883 82.5 109.959 82.6868 111.036C83.8081 110.767 84.649 110.049 85.1161 109.242C85.6768 108.345 85.7702 107.179 85.3965 106.192Z" fill="#F2C444"/>
<path d="M88.0136 113.816C87.453 113.995 86.799 114.085 86.2383 113.995C85.6777 113.906 85.1171 113.726 84.6499 113.457C83.7156 112.919 83.0616 112.112 82.7812 110.946C83.9025 110.677 84.9303 110.856 85.958 111.394C86.8924 112.022 87.6399 112.74 88.0136 113.816Z" fill="#F2C444"/>
<path d="M88.2001 105.206C87.2657 105.564 86.5182 106.282 86.1445 107.179C85.7708 108.076 85.5839 109.152 85.9576 110.228C87.0788 109.869 87.8263 109.062 88.2001 108.165C88.5738 107.268 88.5738 106.192 88.2001 105.206Z" fill="#F2C444"/>
<path d="M91.3772 112.65C90.256 113.098 89.0414 113.009 88.0136 112.56C87.0792 112.112 86.2383 111.304 85.958 110.228C86.9858 109.869 88.107 109.959 89.1348 110.408C90.0691 110.856 90.9101 111.574 91.3772 112.65Z" fill="#F2C444"/>
<path d="M90.817 104.04C89.8826 104.488 89.322 105.296 88.9483 106.193C88.5745 107.089 88.5745 108.166 88.9483 109.242C89.5089 109.063 89.9761 108.794 90.2564 108.435C90.6301 108.076 90.9104 107.628 91.0038 107.089C91.471 106.103 91.3776 105.027 90.817 104.04Z" fill="#F2C444"/>
<path d="M94.5534 111.215C93.4321 111.753 92.2175 111.843 91.1897 111.394C90.1619 110.946 89.321 110.228 88.9473 109.152C89.5079 108.972 90.0685 108.883 90.5357 108.883C91.0963 108.883 91.5634 108.972 92.1241 109.152C93.1518 109.511 94.0862 110.228 94.5534 111.215Z" fill="#F2C444"/>
<path d="M93.4323 102.604C92.9651 102.874 92.6848 103.232 92.4045 103.591C92.1242 103.95 91.8439 104.398 91.7504 104.847C91.4701 105.744 91.5636 106.91 92.0308 107.896C92.4979 107.627 92.9651 107.358 93.3388 106.91C93.7126 106.551 93.8994 106.102 93.9929 105.564C94.1798 104.667 93.9929 103.591 93.4323 102.604Z" fill="#F2C444"/>
<path d="M97.7314 109.511C97.1708 109.78 96.6102 110.049 96.0496 110.139C95.489 110.228 94.9284 110.139 94.3678 109.959C93.34 109.6 92.4057 108.883 91.9385 107.896C92.4057 107.627 92.9663 107.538 93.5269 107.538C94.0875 107.538 94.6481 107.627 95.1153 107.717C96.143 107.986 97.1708 108.614 97.7314 109.511Z" fill="#F2C444"/>
<path d="M95.9556 101.081C95.5819 101.35 95.2082 101.709 94.9279 102.157C94.6476 102.516 94.4607 102.965 94.3672 103.503C94.1804 104.489 94.2738 105.566 94.9279 106.552C95.8622 106.014 96.5162 105.117 96.7031 104.13C96.89 103.144 96.6097 101.978 95.9556 101.081Z" fill="#F2C444"/>
<path d="M100.722 107.717C100.255 108.076 99.6939 108.255 99.1333 108.345C98.5727 108.435 98.0121 108.435 97.4515 108.345C96.4237 108.076 95.4893 107.448 94.9287 106.551C95.8631 106.013 96.9843 105.834 98.1055 106.103C99.1333 106.282 100.068 106.82 100.722 107.717Z" fill="#F2C444"/>
<path d="M98.2913 99.4663C97.4504 100.004 96.9832 100.901 96.8897 101.888C96.7963 102.874 96.9832 103.951 97.6372 104.848C98.5716 104.22 99.1322 103.233 99.2256 102.247C99.3191 101.26 99.0387 100.274 98.2913 99.4663Z" fill="#F2C444"/>
<path d="M103.618 105.654C102.59 106.372 101.469 106.641 100.347 106.551C99.2261 106.372 98.2917 105.834 97.6377 104.937C99.413 103.592 102.123 103.95 103.618 105.654Z" fill="#F2C444"/>
<path d="M100.442 97.4927C99.6948 98.1205 99.3211 99.1071 99.3211 100.094C99.2276 101.08 99.5079 102.067 100.255 102.964C101.19 102.336 101.563 101.26 101.657 100.273C101.657 99.3761 101.283 98.2999 100.442 97.4927Z" fill="#F2C444"/>
<path d="M106.235 103.412C105.301 104.219 104.179 104.578 103.152 104.578C102.03 104.488 101.003 103.95 100.349 103.053C101.283 102.425 102.311 102.067 103.339 102.156C104.366 102.156 105.488 102.605 106.235 103.412Z" fill="#F2C444"/>
<path d="M102.591 95.52C101.937 96.2375 101.656 97.2241 101.656 98.2107C101.656 99.1973 102.03 100.184 102.871 100.991C103.712 100.274 104.179 99.287 104.086 98.3004C103.899 97.2241 103.432 96.2375 102.591 95.52Z" fill="#F2C444"/>
<path d="M108.757 100.901C107.916 101.798 106.888 102.246 105.674 102.246C104.553 102.246 103.525 101.798 102.777 100.991C103.618 100.273 104.739 99.9144 105.767 99.9144C106.795 99.8247 107.916 100.183 108.757 100.901Z" fill="#F2C444"/>
<path d="M104.46 93.3672C103.899 94.1744 103.619 95.0713 103.712 96.0579C103.805 97.0444 104.273 98.031 105.114 98.8382C105.861 98.031 106.235 97.0444 106.141 96.0579C105.954 94.9816 105.394 93.995 104.46 93.3672Z" fill="#F2C444"/>
<path d="M111.094 98.3001C110.347 99.2867 109.225 99.7351 108.104 99.8248C106.983 99.9145 105.955 99.5557 105.114 98.7485C105.862 97.9413 106.89 97.4929 108.011 97.4929C109.039 97.4032 110.16 97.6723 111.094 98.3001Z" fill="#F2C444"/>
<path d="M106.234 91.0342C105.02 92.5589 105.487 94.9805 107.262 96.4155C108.664 94.7114 108.196 92.2898 106.234 91.0342Z" fill="#F2C444"/>
<path d="M113.148 95.6088C112.4 96.5953 111.373 97.1335 110.251 97.3129C109.224 97.4922 108.102 97.2232 107.168 96.5057C108.569 94.8016 111.279 94.3531 113.148 95.6088Z" fill="#F2C444"/>
<path d="M107.729 88.6138C107.168 89.421 107.168 90.4075 107.355 91.3941C107.635 92.3807 108.196 93.2776 109.13 93.9054C109.504 93.457 109.691 93.0085 109.691 92.4704C109.784 91.9323 109.691 91.4838 109.597 90.9457C109.41 90.0488 108.756 89.2416 107.729 88.6138Z" fill="#F2C444"/>
<path d="M115.016 92.6502C114.362 93.6368 113.428 94.3543 112.307 94.6234C111.279 94.8924 110.064 94.6234 109.13 93.9955C109.504 93.5471 109.877 93.1883 110.251 92.9193C110.718 92.6502 111.185 92.3811 111.653 92.2915C112.867 92.0224 113.988 92.1121 115.016 92.6502Z" fill="#F2C444"/>
<path d="M109.131 86.1016C108.944 86.55 108.85 86.9985 108.757 87.4469C108.757 87.8953 108.85 88.4335 108.944 88.8819C109.224 89.7788 109.878 90.6757 110.906 91.2138C111.186 90.7654 111.373 90.2272 111.466 89.7788C111.56 89.2407 111.373 88.7922 111.28 88.2541C110.906 87.4469 110.158 86.6397 109.131 86.1016Z" fill="#F2C444"/>
<path d="M116.698 89.5993C116.418 90.1375 116.044 90.5859 115.67 90.9447C115.296 91.3034 114.736 91.5725 114.269 91.7519C113.241 92.0209 112.026 91.9312 111.092 91.3034C111.372 90.855 111.746 90.4962 112.213 90.1375C112.68 89.7787 113.054 89.5993 113.615 89.42C114.455 89.1509 115.67 89.1509 116.698 89.5993Z" fill="#F2C444"/>
<path d="M110.251 83.5015C110.064 83.9499 110.064 84.488 110.064 84.9365C110.064 85.3849 110.158 85.8334 110.345 86.2818C110.718 87.1787 111.466 87.9859 112.494 88.524C112.961 87.5375 113.054 86.4612 112.587 85.5643C112.213 84.6674 111.373 83.9499 110.251 83.5015Z" fill="#F2C444"/>
<path d="M118.101 86.4613C117.914 86.9995 117.633 87.5376 117.166 87.8964C116.699 88.2551 116.232 88.5242 115.765 88.7932C114.737 89.152 113.616 89.152 112.588 88.6139C113.055 87.6273 113.989 86.9995 114.924 86.551C115.858 86.1026 116.979 86.0129 118.101 86.4613Z" fill="#F2C444"/>
<path d="M111.28 80.9009C110.999 81.7978 111.093 82.7844 111.56 83.6812C112.027 84.5781 112.868 85.3853 113.896 85.7441C114.27 84.7575 114.176 83.6812 113.709 82.7844C113.242 81.8875 112.401 81.1699 111.28 80.9009Z" fill="#F2C444"/>
<path d="M119.315 83.2319C118.941 84.3978 118.1 85.205 117.072 85.6535C116.045 86.1019 114.923 86.1916 113.896 85.7431C114.269 84.7566 115.11 83.9494 116.045 83.5009C117.072 83.0525 118.194 82.8731 119.315 83.2319Z" fill="#F2C444"/>
<path d="M112.027 78.1201C111.747 79.1067 112.027 80.0036 112.588 80.9005C113.148 81.7077 113.989 82.4252 115.11 82.7839C115.297 82.2458 115.297 81.7077 115.204 81.2592C115.11 80.7211 114.923 80.2727 114.643 79.8242C114.083 79.017 113.148 78.3892 112.027 78.1201Z" fill="#F2C444"/>
<path d="M120.156 79.9137C119.875 81.0796 119.128 81.9765 118.193 82.5146C117.259 83.0528 116.138 83.1425 115.017 82.7837C115.203 82.2456 115.484 81.7971 115.764 81.4384C116.044 81.0796 116.512 80.7209 116.979 80.4518C117.913 79.9137 119.034 79.6446 120.156 79.9137Z" fill="#F2C444"/>
<path d="M112.494 75.3398C112.307 76.3264 112.681 77.2233 113.241 78.0305C113.802 78.8377 114.736 79.4655 115.858 79.7346C116.044 79.1965 116.044 78.6583 115.951 78.2099C115.858 77.6718 115.577 77.2233 115.297 76.8646C114.643 76.0574 113.709 75.5192 112.494 75.3398Z" fill="#F2C444"/>
<path d="M120.81 76.5052C120.624 77.6711 120.063 78.6577 119.035 79.2855C118.101 79.8236 116.98 80.0927 115.858 79.8236C116.045 79.2855 116.232 78.8371 116.606 78.3886C116.886 77.9402 117.26 77.5814 117.727 77.3124C118.568 76.6845 119.689 76.3258 120.81 76.5052Z" fill="#F2C444"/>
<path d="M60.8251 106.91C61.2922 107 61.7594 107.269 62.1331 107.538C62.5069 107.807 62.8806 108.166 63.1609 108.525C63.7215 109.332 64.0018 110.408 63.815 111.484C62.6938 111.305 61.7594 110.767 61.1988 109.87C60.7316 109.063 60.5448 107.986 60.8251 106.91Z" fill="#F2C444"/>
<path d="M58.8633 114.713C59.4239 114.892 60.0779 114.892 60.6385 114.802C61.1992 114.713 61.7598 114.444 62.2269 114.174C63.1613 113.547 63.7219 112.65 63.9088 111.574C62.7875 111.394 61.6663 111.753 60.8254 112.291C59.7976 112.829 59.0502 113.636 58.8633 114.713Z" fill="#F2C444"/>
<path d="M57.9292 106.192C58.3964 106.372 58.8636 106.551 59.2373 106.91C59.6111 107.179 59.8914 107.627 60.1717 107.986C60.6388 108.883 60.8257 109.959 60.6388 111.036C59.5176 110.767 58.6767 110.049 58.2095 109.242C57.6489 108.345 57.6489 107.179 57.9292 106.192Z" fill="#F2C444"/>
<path d="M55.4053 113.816C55.9659 113.995 56.6199 114.085 57.1805 113.995C57.7411 113.906 58.3018 113.726 58.7689 113.457C59.7033 112.919 60.3573 112.112 60.6376 110.946C59.5164 110.677 58.4886 110.856 57.4608 111.394C56.5265 112.022 55.779 112.74 55.4053 113.816Z" fill="#F2C444"/>
<path d="M55.2185 105.206C56.1529 105.564 56.9004 106.282 57.2741 107.179C57.6479 108.076 57.8347 109.152 57.461 110.228C56.3398 109.869 55.5923 109.062 55.2185 108.165C54.7514 107.268 54.7514 106.192 55.2185 105.206Z" fill="#F2C444"/>
<path d="M52.041 112.65C53.1622 113.098 54.3769 113.009 55.4047 112.56C56.339 112.112 57.1799 111.304 57.4602 110.228C56.4325 109.869 55.3112 109.959 54.2835 110.408C53.3491 110.856 52.4148 111.574 52.041 112.65Z" fill="#F2C444"/>
<path d="M52.5093 104.04C53.4436 104.488 54.0042 105.296 54.378 106.193C54.7517 107.089 54.7517 108.166 54.378 109.242C53.8174 109.063 53.3502 108.794 53.0699 108.435C52.6961 108.076 52.4158 107.628 52.3224 107.089C51.9487 106.103 52.0421 105.027 52.5093 104.04Z" fill="#F2C444"/>
<path d="M48.7695 111.215C49.8907 111.753 51.1054 111.843 52.1332 111.394C53.161 110.946 54.0019 110.228 54.3756 109.152C53.815 108.972 53.2544 108.883 52.7872 108.883C52.2266 108.883 51.7594 108.972 51.1988 109.152C50.1711 109.511 49.3301 110.228 48.7695 111.215Z" fill="#F2C444"/>
<path d="M49.8924 102.604C50.3596 102.874 50.6399 103.232 50.9202 103.591C51.2005 103.95 51.4808 104.398 51.5742 104.847C51.8545 105.744 51.7611 106.91 51.2939 107.896C50.8268 107.627 50.3596 107.358 49.9858 106.91C49.6121 106.551 49.4252 106.102 49.3318 105.564C49.1449 104.667 49.3318 103.591 49.8924 102.604Z" fill="#F2C444"/>
<path d="M45.6865 109.511C46.2471 109.78 46.8077 110.049 47.3684 110.139C47.929 110.228 48.4896 110.139 49.0502 109.959C50.078 109.6 51.0123 108.883 51.4795 107.896C51.0123 107.627 50.4517 107.538 49.8911 107.538C49.3305 107.538 48.7699 107.627 48.3027 107.717C47.1815 107.986 46.2471 108.614 45.6865 109.511Z" fill="#F2C444"/>
<path d="M47.4635 101.081C47.8372 101.35 48.211 101.709 48.4913 102.157C48.7716 102.516 48.9584 102.965 49.0519 103.503C49.2388 104.489 49.1453 105.566 48.4913 106.552C47.5569 106.014 46.9029 105.117 46.716 104.13C46.5291 103.144 46.8094 101.978 47.4635 101.081Z" fill="#F2C444"/>
<path d="M42.6035 107.717C43.0707 108.076 43.6313 108.255 44.1919 108.345C44.7525 108.435 45.3131 108.435 45.8737 108.345C46.9015 108.076 47.8359 107.448 48.3965 106.551C47.4621 106.013 46.3409 105.834 45.2197 106.103C44.2853 106.282 43.351 106.82 42.6035 107.717Z" fill="#F2C444"/>
<path d="M45.0345 99.4663C45.8754 100.004 46.3426 100.901 46.436 101.888C46.5295 102.874 46.3426 103.951 45.6885 104.848C44.7542 104.22 44.1936 103.233 44.1001 102.247C44.0067 101.26 44.3805 100.274 45.0345 99.4663Z" fill="#F2C444"/>
<path d="M39.8018 105.654C40.8295 106.372 41.9508 106.641 43.072 106.551C44.1932 106.372 45.1275 105.834 45.7816 104.937C43.9129 103.592 41.2967 103.95 39.8018 105.654Z" fill="#F2C444"/>
<path d="M42.8856 97.4927C43.633 98.1205 44.0068 99.1071 44.0068 100.094C44.1002 101.08 43.8199 102.067 43.0724 102.964C42.1381 102.336 41.7643 101.26 41.6709 100.273C41.6709 99.3761 42.0446 98.2999 42.8856 97.4927Z" fill="#F2C444"/>
<path d="M37.0918 103.412C38.0261 104.219 39.1474 104.578 40.1751 104.578C41.2964 104.488 42.3241 103.95 42.9782 103.053C42.0438 102.425 41.0161 102.067 39.9883 102.156C38.9605 102.156 37.9327 102.605 37.0918 103.412Z" fill="#F2C444"/>
<path d="M40.829 95.52C41.4831 96.2375 41.7634 97.2241 41.7634 98.2107C41.7634 99.1973 41.3896 100.184 40.5487 100.991C39.7078 100.274 39.2406 99.287 39.3341 98.3004C39.5209 97.2241 39.9881 96.2375 40.829 95.52Z" fill="#F2C444"/>
<path d="M34.6631 100.901C35.504 101.798 36.5318 102.246 37.7464 102.246C38.8677 102.246 39.8954 101.798 40.6429 100.991C39.802 100.273 38.6808 99.9144 37.653 99.9144C36.6252 99.8247 35.504 100.183 34.6631 100.901Z" fill="#F2C444"/>
<path d="M38.8668 93.3672C39.4274 94.1744 39.7078 95.0713 39.6143 96.0579C39.5209 97.0444 39.0537 98.031 38.2128 98.8382C37.4653 98.031 37.0916 97.0444 37.185 96.0579C37.3719 94.9816 38.0259 93.995 38.8668 93.3672Z" fill="#F2C444"/>
<path d="M32.3262 98.3001C33.0737 99.2867 34.1949 99.7351 35.3161 99.8248C36.4373 99.9145 37.4651 99.5557 38.306 98.7485C37.5585 97.9413 36.5307 97.4929 35.4095 97.4929C34.3817 97.4032 33.2605 97.6723 32.3262 98.3001Z" fill="#F2C444"/>
<path d="M37.1857 91.0342C38.4003 92.5589 37.9332 94.9805 36.1579 96.4155C34.7564 94.7114 35.2235 92.2898 37.1857 91.0342Z" fill="#F2C444"/>
<path d="M30.1787 95.6088C30.9262 96.5953 31.954 97.1335 33.0752 97.3129C34.103 97.4922 35.2242 97.2232 36.1585 96.5057C34.757 94.8016 32.1408 94.3531 30.1787 95.6088Z" fill="#F2C444"/>
<path d="M35.5965 88.6138C36.1571 89.421 36.1571 90.4075 35.9703 91.3941C35.69 92.3807 35.1294 93.2776 34.195 93.9054C33.8213 93.457 33.6344 93.0085 33.6344 92.4704C33.541 91.9323 33.6344 91.4838 33.7278 90.9457C33.9147 90.0488 34.5688 89.2416 35.5965 88.6138Z" fill="#F2C444"/>
<path d="M28.3096 92.6502C28.9636 93.6368 29.898 94.3543 31.0192 94.6234C32.047 94.8924 33.2616 94.6234 34.196 93.9955C33.8222 93.5471 33.4485 93.1883 33.0748 92.9193C32.6076 92.6502 32.1404 92.3811 31.6732 92.2915C30.4586 92.0224 29.3374 92.1121 28.3096 92.6502Z" fill="#F2C444"/>
<path d="M34.2881 86.1016C34.475 86.55 34.5684 86.9985 34.6618 87.4469C34.6618 87.8953 34.5684 88.4335 34.475 88.8819C34.1947 89.7788 33.5406 90.6757 32.5128 91.2138C32.2325 90.7654 32.0457 90.2272 31.9522 89.7788C31.8588 89.2407 32.0457 88.7922 32.1391 88.2541C32.4194 87.4469 33.2603 86.6397 34.2881 86.1016Z" fill="#F2C444"/>
<path d="M26.7207 89.5993C27.001 90.1375 27.3747 90.5859 27.7485 90.9447C28.1222 91.3034 28.6828 91.5725 29.15 91.7519C30.1778 92.0209 31.3924 91.9312 32.3268 91.3034C32.0465 90.855 31.6728 90.4962 31.2056 90.1375C30.7384 89.7787 30.3647 89.5993 29.8041 89.42C28.8697 89.1509 27.7485 89.1509 26.7207 89.5993Z" fill="#F2C444"/>
<path d="M33.0747 83.5015C33.2615 83.9499 33.2615 84.488 33.2615 84.9365C33.2615 85.3849 33.1681 85.8334 32.9812 86.2818C32.6075 87.1787 31.86 87.9859 30.8322 88.524C30.365 87.5375 30.2716 86.4612 30.7388 85.5643C31.206 84.6674 32.0469 83.9499 33.0747 83.5015Z" fill="#F2C444"/>
<path d="M25.3203 86.4613C25.5072 86.9995 25.7875 87.5376 26.2547 87.8964C26.7218 88.2551 27.189 88.5242 27.6562 88.7932C28.684 89.152 29.8052 89.152 30.833 88.6139C30.3658 87.6273 29.4314 86.9995 28.4971 86.551C27.4693 86.1026 26.3481 86.0129 25.3203 86.4613Z" fill="#F2C444"/>
<path d="M32.1407 80.9009C32.421 81.7978 32.3276 82.7844 31.8604 83.6812C31.3933 84.5781 30.5523 85.3853 29.5246 85.7441C29.1508 84.7575 29.2443 83.6812 29.7114 82.7844C30.0852 81.8875 31.0195 81.1699 32.1407 80.9009Z" fill="#F2C444"/>
<path d="M24.1055 83.2319C24.4792 84.3978 25.3201 85.205 26.3479 85.6535C27.3757 86.1019 28.4969 86.1916 29.5247 85.7431C29.151 84.7566 28.31 83.9494 27.3757 83.5009C26.3479 83.0525 25.1333 82.8731 24.1055 83.2319Z" fill="#F2C444"/>
<path d="M31.3925 78.1201C31.6728 79.1067 31.3925 80.0036 30.8318 80.9005C30.2712 81.7077 29.4303 82.4252 28.3091 82.7839C28.1222 82.2458 28.1222 81.7077 28.2157 81.2592C28.3091 80.7211 28.496 80.2727 28.7763 79.8242C29.3369 79.017 30.2712 78.3892 31.3925 78.1201Z" fill="#F2C444"/>
<path d="M23.1709 79.9137C23.4512 81.0796 24.1987 81.9765 25.133 82.5146C26.0674 83.0528 27.1886 83.1425 28.3098 82.7837C28.1229 82.2456 27.8426 81.7971 27.5623 81.4384C27.282 81.0796 26.8149 80.7209 26.3477 80.4518C25.5068 79.9137 24.2921 79.6446 23.1709 79.9137Z" fill="#F2C444"/>
<path d="M30.8319 75.3398C31.0188 76.3264 30.6451 77.2233 30.0845 78.0305C29.5239 78.8377 28.5895 79.4655 27.4683 79.7346C27.2814 79.1965 27.2814 78.6583 27.3748 78.2099C27.4683 77.6718 27.7486 77.2233 28.0289 76.8646C28.6829 76.0574 29.7107 75.5192 30.8319 75.3398Z" fill="#F2C444"/>
<path d="M22.5166 76.5052C22.7035 77.6711 23.2641 78.6577 24.2919 79.2855C25.2262 79.8236 26.3474 80.0927 27.4686 79.8236C27.2818 79.2855 27.0949 78.8371 26.7212 78.3886C26.4409 77.9402 26.0671 77.5814 25.6 77.3124C24.8525 76.6845 23.7313 76.3258 22.5166 76.5052Z" fill="#F2C444"/>
<path d="M76.7078 109.511C76.9881 109.242 76.8013 108.883 76.4275 108.793L73.6245 108.434C73.4376 108.434 73.3442 108.345 73.3442 108.165L72.0361 105.744C71.8492 105.475 71.3821 105.475 71.2886 105.744L69.9805 108.165C69.8871 108.255 69.7937 108.345 69.7002 108.434L66.8972 108.793C66.5234 108.883 66.43 109.242 66.6169 109.511L68.6724 111.394C68.7659 111.484 68.8593 111.663 68.7659 111.753L68.2987 114.444C68.2053 114.802 68.579 115.071 68.9527 114.892L71.4755 113.636C71.5689 113.547 71.7558 113.547 71.8492 113.636L74.372 114.892C74.6523 115.071 75.026 114.802 75.026 114.444L74.5588 111.753C74.5588 111.574 74.5588 111.484 74.6523 111.394L76.7078 109.511Z" fill="#F2C444"/>
<path d="M61.5735 33.1523C62.0407 33.0627 62.5079 32.7936 62.8816 32.5245C63.2553 32.2555 63.6291 31.8967 63.9094 31.5379C64.47 30.7307 64.7503 29.6545 64.5634 28.5782C63.4422 28.7576 62.5079 29.2957 61.9473 30.1926C61.4801 30.9998 61.2932 32.0761 61.5735 33.1523Z" fill="#F2C444"/>
<path d="M59.6098 25.3499C60.1704 25.1705 60.8244 25.1705 61.3851 25.2602C61.9457 25.3499 62.5063 25.6189 62.9734 25.888C63.9078 26.5158 64.4684 27.4127 64.6553 28.489C63.5341 28.6684 62.4128 28.3096 61.5719 27.7715C60.6376 27.2333 59.8901 26.4261 59.6098 25.3499Z" fill="#F2C444"/>
<path d="M58.7705 33.8706C59.2377 33.6912 59.7049 33.5119 60.0786 33.1531C60.4524 32.884 60.7327 32.4356 61.013 32.0768C61.4801 31.1799 61.667 30.1037 61.4801 29.0274C60.3589 29.2965 59.518 30.014 59.0508 30.8212C58.4902 31.7181 58.3968 32.884 58.7705 33.8706Z" fill="#F2C444"/>
<path d="M56.1534 26.2471C56.714 26.0677 57.368 25.978 57.9286 26.0677C58.4893 26.1574 59.0499 26.3367 59.517 26.6058C60.4514 27.1439 61.1054 27.9512 61.3857 29.1171C60.2645 29.3862 59.2367 29.2068 58.209 28.6687C57.2746 28.0408 56.5271 27.3233 56.1534 26.2471Z" fill="#F2C444"/>
<path d="M55.9669 34.8569C56.9013 34.4982 57.6488 33.7807 58.0225 32.8838C58.3962 31.9869 58.5831 30.9106 58.2094 29.8344C57.0881 30.1931 56.3407 31.0003 55.9669 31.8972C55.5932 32.7941 55.5932 33.8704 55.9669 34.8569Z" fill="#F2C444"/>
<path d="M52.7898 27.4127C53.911 26.9643 55.1256 27.0539 56.1534 27.5024C57.0878 27.9508 57.9287 28.758 58.209 29.8343C57.1812 30.1931 56.06 30.1034 55.0322 29.6549C54.0978 29.2065 53.2569 28.489 52.7898 27.4127Z" fill="#F2C444"/>
<path d="M53.35 36.0225C54.2844 35.574 54.845 34.7668 55.2187 33.8699C55.5925 32.973 55.5925 31.8968 55.2187 30.8205C54.6581 30.9999 54.1909 31.2689 53.9106 31.6277C53.5369 31.9865 53.2566 32.4349 53.1631 32.973C52.696 33.9596 52.7894 35.0359 53.35 36.0225Z" fill="#F2C444"/>
<path d="M49.6136 28.8473C50.7349 28.3092 51.9495 28.2195 52.9773 28.6679C54.0051 29.1164 54.846 29.8339 55.2197 30.9101C54.6591 31.0895 54.0985 31.1792 53.6313 31.1792C53.0707 31.1792 52.6035 31.0895 52.0429 30.9101C51.0152 30.5514 50.0808 29.8339 49.6136 28.8473Z" fill="#F2C444"/>
<path d="M50.7347 37.458C51.2019 37.1889 51.4822 36.8302 51.7625 36.4714C52.0428 36.1127 52.3231 35.6642 52.4165 35.2158C52.6969 34.3189 52.6034 33.1529 52.1362 32.1664C51.6691 32.4354 51.2019 32.7045 50.8282 33.1529C50.4544 33.5117 50.2675 33.9601 50.1741 34.4983C49.9872 35.3952 50.1741 36.4714 50.7347 37.458Z" fill="#F2C444"/>
<path d="M46.4356 30.5513C46.9962 30.2822 47.5568 30.0131 48.1174 29.9234C48.678 29.8337 49.2386 29.9234 49.7992 30.1028C50.827 30.4616 51.7613 31.1791 52.2285 32.1657C51.7613 32.4347 51.2007 32.5244 50.6401 32.5244C50.0795 32.5244 49.5189 32.4347 49.0517 32.345C48.0239 32.076 46.9962 31.4482 46.4356 30.5513Z" fill="#F2C444"/>
<path d="M48.2114 38.9819C48.5851 38.7129 48.9588 38.3541 49.2391 37.9057C49.5194 37.5469 49.7063 37.0985 49.7997 36.5603C49.9866 35.5738 49.8932 34.4975 49.2391 33.5109C48.3048 34.049 47.6507 34.9459 47.4639 35.9325C47.277 36.9191 47.5573 38.085 48.2114 38.9819Z" fill="#F2C444"/>
<path d="M43.4463 32.3455C43.9135 31.9867 44.4741 31.8073 45.0347 31.7177C45.5953 31.628 46.1559 31.628 46.7165 31.7177C47.7443 31.9867 48.6786 32.6145 49.2393 33.5114C48.3049 34.0496 47.1837 34.2289 46.0625 33.9599C45.0347 33.7805 44.1003 33.2424 43.4463 32.3455Z" fill="#F2C444"/>
<path d="M45.8757 40.5967C46.7166 40.0585 47.1838 39.1617 47.2772 38.1751C47.3707 37.1885 47.1838 36.1122 46.5298 35.2153C45.5954 35.8432 45.0348 36.8297 44.9414 37.8163C44.8479 38.8029 45.1282 39.7895 45.8757 40.5967Z" fill="#F2C444"/>
<path d="M40.5495 34.4086C41.5772 33.6911 42.6985 33.4221 43.8197 33.5117C44.9409 33.6911 45.8753 34.2293 46.5293 35.1261C44.754 36.4715 42.0444 36.1127 40.5495 34.4086Z" fill="#F2C444"/>
<path d="M43.7267 42.5698C44.4742 41.942 44.8479 40.9554 44.8479 39.9688C44.9413 38.9823 44.661 37.9957 43.9135 37.0988C42.9792 37.7266 42.6055 38.8029 42.512 39.7895C42.512 40.6864 42.8858 41.7626 43.7267 42.5698Z" fill="#F2C444"/>
<path d="M37.9339 36.6511C38.8683 35.8439 39.9895 35.4852 41.0173 35.4852C42.1385 35.5749 43.1663 36.113 43.8203 37.0099C42.886 37.6377 41.8582 37.9965 40.8304 37.9068C39.8026 37.9068 38.6814 37.4583 37.9339 36.6511Z" fill="#F2C444"/>
<path d="M41.5774 44.543C42.2314 43.8255 42.5117 42.8389 42.5117 41.8523C42.5117 40.8657 42.138 39.8791 41.2971 39.0719C40.4562 39.7895 39.989 40.776 40.0824 41.7626C40.2693 42.8389 40.7365 43.8255 41.5774 44.543Z" fill="#F2C444"/>
<path d="M35.4098 39.161C36.2507 38.2641 37.2785 37.8157 38.4932 37.8157C39.6144 37.8157 40.6422 38.2641 41.3896 39.0713C40.5487 39.7888 39.4275 40.1476 38.3997 40.1476C37.372 40.2373 36.2507 39.8785 35.4098 39.161Z" fill="#F2C444"/>
<path d="M39.7075 46.6948C40.2681 45.8876 40.5484 44.9907 40.455 44.0042C40.3615 43.0176 39.8943 42.031 39.0534 41.2238C38.3059 42.031 37.9322 43.0176 38.0256 44.0042C38.2125 45.0804 38.7731 46.067 39.7075 46.6948Z" fill="#F2C444"/>
<path d="M33.0749 41.7629C33.8223 40.7763 34.9436 40.3279 36.0648 40.2382C37.186 40.1485 38.2138 40.5073 39.0547 41.3145C38.3072 42.1217 37.2794 42.5701 36.1582 42.5701C35.1304 42.6598 34.0092 42.3907 33.0749 41.7629Z" fill="#F2C444"/>
<path d="M37.9327 49.0278C39.1473 47.5031 38.6802 45.0815 36.9049 43.6465C35.5034 45.3506 35.9706 47.7722 37.9327 49.0278Z" fill="#F2C444"/>
<path d="M31.0192 44.4532C31.7667 43.4667 32.7945 42.9285 33.9157 42.7492C34.9435 42.5698 36.0647 42.8388 36.999 43.5564C35.5975 45.2604 32.8879 45.7089 31.0192 44.4532Z" fill="#F2C444"/>
<path d="M36.4383 51.4492C36.9989 50.642 36.9989 49.6554 36.8121 48.6689C36.5318 47.6823 35.9712 46.7854 35.0368 46.1576C34.6631 46.606 34.4762 47.0545 34.4762 47.5926C34.3828 48.1307 34.4762 48.5792 34.5696 49.1173C34.7565 50.0142 35.4105 50.8214 36.4383 51.4492Z" fill="#F2C444"/>
<path d="M29.1507 47.4128C29.8048 46.4262 30.7391 45.7087 31.8603 45.4396C32.8881 45.1706 34.1028 45.4396 35.0371 46.0674C34.6634 46.5159 34.2896 46.8746 33.9159 47.1437C33.4487 47.4128 32.9815 47.6818 32.5144 47.7715C31.2997 48.0406 30.1785 47.9509 29.1507 47.4128Z" fill="#F2C444"/>
<path d="M35.0364 53.9604C35.2233 53.512 35.3167 53.0636 35.4102 52.6151C35.4102 52.1667 35.3167 51.6285 35.2233 51.1801C34.943 50.2832 34.2889 49.3863 33.2612 48.8482C32.9809 49.2966 32.794 49.8348 32.7005 50.2832C32.6071 50.8213 32.794 51.2698 32.8874 51.8079C33.2612 52.6151 34.0086 53.4223 35.0364 53.9604Z" fill="#F2C444"/>
<path d="M27.4691 50.4627C27.7494 49.9245 28.1231 49.4761 28.4969 49.1173C28.8706 48.7586 29.4312 48.4895 29.8984 48.3101C30.9262 48.0411 32.1408 48.1308 33.0752 48.7586C32.7949 49.207 32.4212 49.5658 31.954 49.9245C31.4868 50.2833 31.1131 50.4627 30.5525 50.6421C29.7115 50.9111 28.4969 50.9111 27.4691 50.4627Z" fill="#F2C444"/>
<path d="M33.9157 56.5615C34.1025 56.1131 34.1025 55.5749 34.1025 55.1265C34.1025 54.6781 34.0091 54.2296 33.8222 53.7812C33.4485 52.8843 32.701 52.0771 31.6732 51.5389C31.2061 52.5255 31.1126 53.6018 31.5798 54.4987C31.9535 55.3956 32.7945 56.1131 33.9157 56.5615Z" fill="#F2C444"/>
<path d="M26.0664 53.6017C26.2533 53.0635 26.5336 52.5254 27.0008 52.1666C27.468 51.8079 27.9351 51.5388 28.4023 51.2697C29.4301 50.911 30.5513 50.911 31.5791 51.4491C31.1119 52.4357 30.1776 53.0635 29.2432 53.512C28.3089 53.9604 27.1877 54.0501 26.0664 53.6017Z" fill="#F2C444"/>
<path d="M32.8873 59.1621C33.1676 58.2652 33.0741 57.2786 32.6069 56.3817C32.1398 55.4849 31.2989 54.6777 30.2711 54.3189C29.8973 55.3055 29.9908 56.3817 30.4579 57.2786C30.9251 58.1755 31.766 58.893 32.8873 59.1621Z" fill="#F2C444"/>
<path d="M24.8523 56.8306C25.226 55.6647 26.0669 54.8575 27.0947 54.409C28.1225 53.9606 29.2437 53.8709 30.2715 54.3194C29.8977 55.3059 29.0568 56.1131 28.1225 56.5616C27.0947 57.01 25.9735 57.1894 24.8523 56.8306Z" fill="#F2C444"/>
<path d="M32.141 61.9424C32.4213 60.9558 32.141 60.0589 31.5804 59.162C31.0198 58.3548 30.1789 57.6373 29.0577 57.2786C28.8708 57.8167 28.8708 58.3548 28.9642 58.8033C29.0577 59.3414 29.2445 59.7898 29.5248 60.2383C30.0854 61.0455 31.0198 61.6733 32.141 61.9424Z" fill="#F2C444"/>
<path d="M24.0115 60.1488C24.2918 58.9829 25.0393 58.086 25.9736 57.5479C26.908 57.0097 28.0292 56.92 29.1504 57.2788C28.9635 57.8169 28.6832 58.2654 28.4029 58.6241C28.1226 58.9829 27.6554 59.3416 27.1883 59.6107C26.2539 60.1488 25.1327 60.4179 24.0115 60.1488Z" fill="#F2C444"/>
<path d="M31.6731 64.7231C31.8599 63.7366 31.4862 62.8397 30.9256 62.0325C30.365 61.2253 29.4306 60.5975 28.3094 60.3284C28.1225 60.8665 28.1225 61.4047 28.216 61.8531C28.3094 62.3912 28.5897 62.8397 28.87 63.1984C29.5241 64.0056 30.4584 64.5438 31.6731 64.7231Z" fill="#F2C444"/>
<path d="M23.3565 63.5573C23.5434 62.3914 24.104 61.4048 25.1318 60.777C26.0662 60.2389 27.1874 59.9698 28.3086 60.2389C28.1217 60.777 27.9349 61.2254 27.5611 61.6739C27.2808 62.1223 26.9071 62.4811 26.4399 62.7501C25.599 63.378 24.4778 63.7367 23.3565 63.5573Z" fill="#F2C444"/>
<path d="M83.3419 33.1523C82.8748 33.0627 82.4076 32.7936 82.0338 32.5245C81.6601 32.2555 81.2864 31.8967 81.0061 31.5379C80.4455 30.7307 80.1651 29.6545 80.352 28.5782C81.4732 28.7576 82.4076 29.2957 82.9682 30.1926C83.4354 30.9998 83.6222 32.0761 83.3419 33.1523Z" fill="#F2C444"/>
<path d="M85.3037 25.3499C84.7431 25.1705 84.0891 25.1705 83.5284 25.2602C82.9678 25.3499 82.4072 25.6189 81.9401 25.888C81.0057 26.5158 80.4451 27.4127 80.2582 28.489C81.3794 28.6684 82.5007 28.3096 83.3416 27.7715C84.3694 27.2333 85.1168 26.4261 85.3037 25.3499Z" fill="#F2C444"/>
<path d="M86.2378 33.8706C85.7706 33.6912 85.3034 33.5119 84.9297 33.1531C84.5559 32.884 84.2756 32.4356 83.9953 32.0768C83.5281 31.1799 83.3413 30.1037 83.5281 29.0274C84.6494 29.2965 85.4903 30.014 85.9575 30.8212C86.5181 31.7181 86.5181 32.884 86.2378 33.8706Z" fill="#F2C444"/>
<path d="M88.7617 26.2471C88.2011 26.0677 87.5471 25.978 86.9865 26.0677C86.4258 26.1574 85.8652 26.3367 85.3981 26.6058C84.4637 27.1439 83.8097 27.9511 83.5294 29.1171C84.6506 29.3862 85.6784 29.2068 86.7062 28.6687C87.6405 28.0408 88.388 27.3233 88.7617 26.2471Z" fill="#F2C444"/>
<path d="M88.9484 34.8569C88.0141 34.4982 87.2666 33.7807 86.8929 32.8838C86.5191 31.9869 86.3323 30.9106 86.706 29.8344C87.8272 30.1931 88.5747 31.0003 88.9484 31.8972C89.4156 32.7941 89.4156 33.8704 88.9484 34.8569Z" fill="#F2C444"/>
<path d="M92.126 27.4127C91.0048 26.9643 89.7901 27.0539 88.7623 27.5024C87.828 27.9508 86.9871 28.758 86.7068 29.8343C87.7345 30.193 88.8558 30.1034 89.8835 29.6549C90.8179 29.2065 91.7522 28.489 92.126 27.4127Z" fill="#F2C444"/>
<path d="M91.6577 36.0225C90.7234 35.574 90.1628 34.7668 89.789 33.8699C89.4153 32.973 89.4153 31.8968 89.789 30.8205C90.3496 30.9999 90.8168 31.2689 91.0971 31.6277C91.4708 31.9865 91.7511 32.4349 91.8446 32.973C92.2183 33.9596 92.1249 35.0359 91.6577 36.0225Z" fill="#F2C444"/>
<path d="M95.3975 28.8473C94.2762 28.3092 93.0616 28.2195 92.0338 28.6679C91.006 29.1164 90.1651 29.8339 89.7914 30.9101C90.352 31.0895 90.9126 31.1792 91.3798 31.1792C91.9404 31.1792 92.4075 31.0895 92.9682 30.9101C93.9959 30.5514 94.8369 29.8339 95.3975 28.8473Z" fill="#F2C444"/>
<path d="M94.2746 37.458C93.8074 37.1889 93.5271 36.8302 93.2468 36.4714C92.9665 36.1127 92.6862 35.6642 92.5928 35.2158C92.3125 34.3189 92.4059 33.1529 92.8731 32.1664C93.3402 32.4354 93.8074 32.7045 94.1812 33.1529C94.5549 33.5117 94.7418 33.9601 94.8352 34.4983C95.0221 35.3952 94.8352 36.4714 94.2746 37.458Z" fill="#F2C444"/>
<path d="M98.4805 30.5513C97.9199 30.2822 97.3593 30.0131 96.7986 29.9234C96.238 29.8337 95.6774 29.9234 95.1168 30.1028C94.089 30.4616 93.1547 31.1791 92.6875 32.1657C93.1547 32.4347 93.7153 32.5244 94.2759 32.5244C94.8365 32.5244 95.3971 32.4347 95.8643 32.345C96.9855 32.076 97.9199 31.4482 98.4805 30.5513Z" fill="#F2C444"/>
<path d="M96.7035 38.9819C96.3298 38.7129 95.956 38.3541 95.6757 37.9057C95.3954 37.5469 95.2085 37.0985 95.1151 36.5603C94.9282 35.5738 95.0217 34.4975 95.6757 33.5109C96.6101 34.049 97.2641 34.9459 97.451 35.9325C97.6379 36.9191 97.3575 38.085 96.7035 38.9819Z" fill="#F2C444"/>
<path d="M101.563 32.3455C101.096 31.9867 100.536 31.8073 99.9751 31.7177C99.4145 31.628 98.8539 31.628 98.2933 31.7177C97.2655 31.9867 96.3311 32.6145 95.7705 33.5114C96.7049 34.0496 97.8261 34.2289 98.9473 33.9599C99.8816 33.7805 100.816 33.2424 101.563 32.3455Z" fill="#F2C444"/>
<path d="M99.1325 40.5967C98.2916 40.0585 97.8244 39.1617 97.731 38.1751C97.6375 37.1885 97.8244 36.1122 98.4785 35.2153C99.4128 35.8432 99.9734 36.8297 100.067 37.8163C100.16 38.8029 99.7865 39.7895 99.1325 40.5967Z" fill="#F2C444"/>
<path d="M104.365 34.4086C103.337 33.6911 102.216 33.4221 101.095 33.5117C99.9738 33.6911 99.0394 34.2293 98.3854 35.1261C100.254 36.4715 102.87 36.1127 104.365 34.4086Z" fill="#F2C444"/>
<path d="M101.281 42.5698C100.534 41.942 100.16 40.9554 100.16 39.9688C100.067 38.9823 100.347 37.9957 101.095 37.0988C102.029 37.7266 102.403 38.8029 102.496 39.7895C102.496 40.6864 102.122 41.7626 101.281 42.5698Z" fill="#F2C444"/>
<path d="M107.075 36.6511C106.141 35.8439 105.02 35.4852 103.992 35.4852C102.871 35.5749 101.843 36.113 101.189 37.0099C102.123 37.6377 103.151 37.9965 104.179 37.9068C105.206 37.9068 106.234 37.4583 107.075 36.6511Z" fill="#F2C444"/>
<path d="M103.338 44.543C102.684 43.8255 102.404 42.8389 102.404 41.8523C102.404 40.8657 102.777 39.8791 103.618 39.0719C104.459 39.7895 104.926 40.776 104.833 41.7626C104.646 42.8389 104.179 43.8255 103.338 44.543Z" fill="#F2C444"/>
<path d="M109.505 39.161C108.664 38.2641 107.636 37.8157 106.422 37.8157C105.3 37.8157 104.273 38.2641 103.525 39.0713C104.366 39.7888 105.487 40.1476 106.515 40.1476C107.543 40.2373 108.664 39.8785 109.505 39.161Z" fill="#F2C444"/>
<path d="M105.3 46.6948C104.74 45.8876 104.459 44.9907 104.553 44.0042C104.646 43.0176 105.113 42.031 105.954 41.2238C106.702 42.031 107.075 43.0176 106.982 44.0042C106.795 45.0804 106.141 46.067 105.3 46.6948Z" fill="#F2C444"/>
<path d="M111.841 41.7629C111.093 40.7763 109.972 40.3279 108.851 40.2382C107.73 40.1485 106.702 40.5073 105.861 41.3145C106.608 42.1217 107.636 42.5701 108.757 42.5701C109.785 42.6598 110.906 42.3907 111.841 41.7629Z" fill="#F2C444"/>
<path d="M106.981 49.0278C105.767 47.5031 106.234 45.0815 108.009 43.6465C109.411 45.3506 108.943 47.7722 106.981 49.0278Z" fill="#F2C444"/>
<path d="M113.988 44.4532C113.241 43.4667 112.213 42.9285 111.092 42.7492C110.064 42.5698 108.943 42.8388 108.008 43.5564C109.41 45.2604 112.026 45.7089 113.988 44.4532Z" fill="#F2C444"/>
<path d="M108.57 51.4492C108.01 50.642 108.01 49.6554 108.197 48.6689C108.477 47.6823 109.038 46.7854 109.972 46.1576C110.346 46.606 110.533 47.0545 110.533 47.5926C110.626 48.1307 110.533 48.5792 110.439 49.1173C110.252 50.0142 109.598 50.8214 108.57 51.4492Z" fill="#F2C444"/>
<path d="M115.857 47.4128C115.203 46.4262 114.269 45.7087 113.148 45.4396C112.12 45.1706 110.905 45.4396 109.971 46.0674C110.345 46.5159 110.719 46.8746 111.092 47.1437C111.559 47.4128 112.027 47.6818 112.494 47.7715C113.708 48.0406 114.83 47.9509 115.857 47.4128Z" fill="#F2C444"/>
<path d="M109.879 53.9604C109.692 53.512 109.599 53.0636 109.505 52.6151C109.505 52.1667 109.599 51.6285 109.692 51.1801C109.972 50.2832 110.626 49.3863 111.654 48.8482C111.934 49.2966 112.121 49.8348 112.215 50.2832C112.308 50.8213 112.121 51.2698 112.028 51.8079C111.748 52.6151 110.907 53.4223 109.879 53.9604Z" fill="#F2C444"/>
<path d="M117.446 50.4627C117.166 49.9245 116.792 49.4761 116.419 49.1173C116.045 48.7586 115.484 48.4895 115.017 48.3101C113.989 48.0411 112.775 48.1308 111.84 48.7586C112.121 49.207 112.494 49.5658 112.961 49.9245C113.429 50.2833 113.802 50.4627 114.363 50.6421C115.297 50.9111 116.419 50.9111 117.446 50.4627Z" fill="#F2C444"/>
<path d="M111.092 56.5615C110.905 56.1131 110.905 55.5749 110.905 55.1265C110.905 54.6781 110.999 54.2296 111.186 53.7812C111.56 52.8843 112.307 52.0771 113.335 51.5389C113.802 52.5255 113.895 53.6018 113.428 54.4987C112.961 55.3956 112.12 56.1131 111.092 56.5615Z" fill="#F2C444"/>
<path d="M118.848 53.6017C118.661 53.0635 118.38 52.5254 117.913 52.1666C117.446 51.8079 116.979 51.5388 116.512 51.2697C115.484 50.911 114.363 50.911 113.335 51.4491C113.802 52.4357 114.737 53.0635 115.671 53.512C116.699 53.9604 117.82 54.0501 118.848 53.6017Z" fill="#F2C444"/>
<path d="M112.026 59.1621C111.746 58.2652 111.839 57.2786 112.307 56.3817C112.774 55.4849 113.615 54.6777 114.642 54.3189C115.016 55.3055 114.923 56.3817 114.456 57.2786C114.082 58.1755 113.147 58.893 112.026 59.1621Z" fill="#F2C444"/>
<path d="M120.062 56.8306C119.688 55.6647 118.847 54.8575 117.819 54.409C116.791 53.9606 115.67 53.8709 114.642 54.3194C115.016 55.3059 115.857 56.1131 116.791 56.5616C117.819 57.01 119.034 57.1894 120.062 56.8306Z" fill="#F2C444"/>
<path d="M112.776 61.9424C112.495 60.9558 112.776 60.0589 113.336 59.162C113.897 58.3548 114.738 57.6373 115.859 57.2786C116.046 57.8167 116.046 58.3548 115.952 58.8033C115.859 59.3414 115.672 59.7898 115.392 60.2383C114.831 61.0455 113.897 61.6733 112.776 61.9424Z" fill="#F2C444"/>
<path d="M120.996 60.1488C120.716 58.9829 119.968 58.086 119.034 57.5479C118.1 57.0097 116.978 56.92 115.857 57.2788C116.044 57.8169 116.324 58.2654 116.605 58.6241C116.885 58.9829 117.352 59.3416 117.819 59.6107C118.66 60.1488 119.875 60.4179 120.996 60.1488Z" fill="#F2C444"/>
<path d="M113.335 64.7231C113.148 63.7366 113.522 62.8397 114.083 62.0325C114.643 61.2253 115.577 60.5975 116.699 60.3284C116.886 60.8665 116.886 61.4047 116.792 61.8531C116.699 62.3912 116.418 62.8397 116.138 63.1984C115.484 64.0056 114.456 64.5438 113.335 64.7231Z" fill="#F2C444"/>
<path d="M121.65 63.5573C121.464 62.3914 120.903 61.4048 119.875 60.777C118.941 60.2389 117.82 59.9698 116.698 60.2389C116.885 60.777 117.072 61.2254 117.446 61.6739C117.726 62.1223 118.1 62.4811 118.567 62.7501C119.315 63.378 120.436 63.7367 121.65 63.5573Z" fill="#F2C444"/>
<path d="M67.4592 30.5523C67.1789 30.8213 67.3657 31.1801 67.7395 31.2698L70.5425 31.6285C70.7294 31.6285 70.8228 31.7182 70.8228 31.8976L72.1309 34.3192C72.3178 34.5883 72.7849 34.5883 72.8784 34.3192L74.1865 31.8976C74.2799 31.8079 74.3733 31.7182 74.4668 31.6285L77.2698 31.2698C77.6436 31.1801 77.737 30.8213 77.5501 30.5523L75.4946 28.6688C75.4011 28.5791 75.3077 28.3997 75.4011 28.31L75.8683 25.6194C75.9617 25.2606 75.588 24.9916 75.2142 25.1709L72.6915 26.4266C72.5981 26.5163 72.4112 26.5163 72.3178 26.4266L69.795 25.1709C69.5147 24.9915 69.141 25.2606 69.141 25.6194L69.6082 28.31C69.6082 28.4894 69.6082 28.5791 69.5147 28.6688L67.4592 30.5523Z" fill="#F2C444"/>
</svg>