<svg width="241" height="237" viewBox="0 0 241 237" fill="none" xmlns="http://www.w3.org/2000/svg">
<path d="M141.416 151.203C142.556 154.201 145.195 155.489 148.173 157.179C157.527 162.521 159.871 165.942 162.595 164.633C163.44 164.232 164.327 163.366 164.348 162.458C164.39 160.98 162.194 159.966 158.583 157.96C158.583 157.96 155.395 156.186 150.073 152.829C144.456 149.281 142.239 147.106 141.268 147.824C140.402 148.479 141.331 150.992 141.416 151.203Z" fill="#B3B3B3"/>
<path d="M139.156 130.297C139.389 134.056 139.621 137.815 139.853 141.552C140.719 146.367 141.585 151.16 142.45 155.975C142.915 147.549 143.38 139.124 143.844 130.699C142.281 130.572 140.719 130.424 139.156 130.297Z" fill="#B3B3B3"/>
<path d="M151.932 129.727C150.939 131.543 148.553 131.818 147.497 131.945C145.639 132.156 145.111 131.607 141.057 130.889C138.396 130.424 137.066 130.171 135.883 130.361C133.603 130.699 133.286 131.649 130.393 132.367C129.379 132.62 126.233 133.38 125.642 132.367C125.135 131.501 126.592 129.58 128.07 128.46C129.548 127.341 131.132 127.067 134.194 126.56C137.572 126.011 137.847 126.349 140.212 125.715C142.535 125.103 144.435 124.237 144.435 124.237C146.99 123.097 147.582 122.316 148.764 122.548C150.306 122.843 151.171 124.448 151.509 125.082C151.742 125.525 152.987 127.806 151.932 129.727Z" fill="#666666"/>
<path d="M131.195 192.865C131.913 194.787 132.694 195.124 133.37 196.666C133.729 197.468 134.468 199.2 133.855 200.319C133.285 201.375 131.786 201.396 127.457 201.586C123.213 201.776 121.08 201.839 116.836 201.945C113.056 202.029 111.62 202.114 111.071 201.164C110.501 200.171 111.198 198.609 111.916 197.722C112.444 197.067 113.098 196.624 117.047 195.336C120.341 194.259 121.439 194.069 122.537 192.865C123.34 191.999 123.804 191.112 123.804 191.112L130.625 191.176C130.646 191.176 130.772 191.704 131.195 192.865Z" fill="#071709"/>
<path fill-rule="evenodd" clip-rule="evenodd" d="M186.82 117.354C181.468 122.307 178.363 127.217 176.601 130.51C174.062 135.293 172.845 139.489 171.981 142.588L171.98 142.589C170.74 146.983 170.109 150.851 169.773 153.836L169.144 153.765C169.483 150.753 170.119 146.85 171.371 142.417C172.238 139.308 173.47 135.058 176.041 130.213L176.042 130.212C177.827 126.874 180.973 121.902 186.39 116.889L186.82 117.354Z" fill="#754C24"/>
<path fill-rule="evenodd" clip-rule="evenodd" d="M175.178 115.529C173.56 119.523 172.593 122.991 171.983 125.576C170.838 130.489 170.518 134.574 169.895 142.528L169.879 142.739L169.879 142.739C169.668 145.333 169.436 148.855 169.246 153.075L168.613 153.047C168.803 148.82 169.036 145.29 169.247 142.689C169.247 142.688 169.247 142.688 169.247 142.688L169.267 142.44C169.887 134.521 170.211 130.392 171.366 125.432L171.367 125.431C171.982 122.822 172.957 119.322 174.591 115.292L175.178 115.529Z" fill="#754C24"/>
<path fill-rule="evenodd" clip-rule="evenodd" d="M162.875 113.214C164.043 115.423 165.53 118.587 166.804 122.557L166.804 122.557C168.716 128.527 169.161 133.287 169.563 137.936L169.563 137.936C169.902 141.94 170.113 147.32 169.669 153.716L169.037 153.673C169.479 147.315 169.268 141.968 168.931 137.99C168.531 133.348 168.089 128.648 166.2 122.75C164.94 118.823 163.47 115.694 162.315 113.511L162.875 113.214Z" fill="#754C24"/>
<path fill-rule="evenodd" clip-rule="evenodd" d="M154.463 116.292C155.995 117.632 157.973 119.568 159.994 122.141L159.994 122.142C163.93 127.184 165.759 131.779 166.797 134.47C169.58 141.65 170.387 148.339 170.514 153.475L169.881 153.491C169.755 148.407 168.956 141.793 166.207 134.699L166.206 134.698C165.175 132.026 163.373 127.499 159.495 122.532C157.504 119.995 155.554 118.088 154.046 116.768L154.463 116.292Z" fill="#754C24"/>
<path d="M174.864 144.171C159.639 144.171 147.286 156.524 147.286 171.749C147.286 186.974 159.639 199.327 174.864 199.327C190.089 199.327 202.442 186.974 202.442 171.749C202.442 156.524 190.11 144.171 174.864 144.171ZM174.885 194.069C162.511 194.069 152.46 184.038 152.46 171.643C152.46 159.248 162.49 149.218 174.885 149.218C187.28 149.218 197.311 159.248 197.311 171.643C197.311 184.038 187.259 194.069 174.885 194.069Z" fill="black"/>
<path d="M91.9194 136.231C93.0597 136.316 100.345 136.822 105.645 138.237C107.778 138.807 109.594 139.483 109.594 139.483C109.889 139.589 118.167 143.115 119.181 143.537C119.73 143.77 120.363 144.065 121.292 144.572C125.346 146.789 127.627 147.951 127.627 147.951L126.93 142.883C126.592 142.756 126.064 142.566 125.41 142.313C123.974 141.785 123.404 141.595 122.221 141.151C121.63 140.898 120.743 140.497 119.645 140.032C119.033 139.757 116.562 138.617 114.472 137.751C111.895 136.674 109.953 135.978 109.446 135.788C107.355 135.049 106.321 134.69 104.948 134.352C102.583 133.803 100.767 133.676 98.571 133.549C97.7686 133.507 95.8259 133.401 93.3553 133.486C92.743 133.507 92.2151 133.528 91.835 133.549C91.8772 134.457 91.8983 135.344 91.9194 136.231Z" fill="#B3B3B3"/>
<path d="M117.195 122.611L138.312 117.818L142.957 160.198L158.858 182.581C158.013 183.996 156.746 185.77 154.909 187.502C153.726 188.621 152.565 189.508 151.53 190.183C145.576 180.934 139.621 171.685 133.645 162.458C132.716 156.165 131.766 149.872 130.836 143.601C131.407 159.691 131.956 175.782 132.526 191.894C131.554 192.274 129.865 192.802 127.732 192.738C125.135 192.654 123.192 191.725 122.242 191.197C120.574 168.328 118.885 145.48 117.195 122.611Z" fill="black"/>
<path d="M88.6245 116.699C87.6953 116.677 86.7451 116.614 85.816 116.635C83.8099 116.656 83.5354 116.804 83.1342 116.487C82.2473 115.791 82.543 114.038 82.6485 113.383C82.8386 112.243 83.3243 111.462 83.4932 111.208C84.2534 110.047 85.2458 109.498 86.2383 108.949C87.1674 108.442 87.1885 108.59 88.7723 107.893C90.6305 107.091 90.6094 106.858 92.1931 106.204C93.9035 105.507 94.8115 105.401 97.4933 104.008C98.3591 103.564 99.8161 103.438 99.8161 103.438L100.513 105.866C100.513 105.866 99.8583 107.048 96.6486 108.336C91.4963 110.385 89.9548 110.87 89.9548 110.87C89.1312 111.124 88.4133 111.335 88.4133 111.652C88.3922 112.264 91.0951 112.792 92.0664 112.982C96.4375 113.848 98.7603 114.186 98.7603 114.186C98.4013 115.748 98.0634 117.332 97.7045 118.895C96.2686 119.021 95.2339 118.747 94.537 118.472C93.1433 117.902 92.9744 117.248 91.5807 116.846C91.3062 116.783 90.3982 116.741 88.6245 116.699Z" fill="#808080"/>
<path d="M123.066 64.5415C122.982 65.6395 123.172 66.4842 123.341 67.0332C123.763 68.4058 124.312 68.5325 124.565 69.8839C124.734 70.813 124.713 72.1011 124.734 72.1011C124.354 72.5868 123.678 73.347 122.623 73.9594C121.419 74.6562 120.3 74.8462 119.666 74.9096C119.73 74.7195 119.835 74.445 119.92 74.1283C120.046 73.6215 120.194 72.9247 120.258 72.0589C120.426 69.2082 118.674 66.3997 118.674 66.3997L123.066 64.5415Z" fill="#EEC795"/>
<path d="M120.996 91.6122C120.151 91.1476 119.053 91.211 118.251 91.6122C117.301 92.0979 117.047 92.9003 116.076 95.0964C114.872 97.7993 114.26 99.1507 113.479 100.164C112.212 101.769 110.755 102.635 110.1 102.973C107.608 104.303 105.138 104.324 104.399 104.303C102.013 104.261 100.176 104.24 100.176 104.24C100.176 104.24 99.8165 104.704 99.7532 107.133C99.711 109.181 99.901 110.511 99.901 110.511C102.118 110.68 105.433 110.68 109.192 109.603C111.642 108.906 115.548 107.724 118.842 104.176C119.771 103.163 122.749 99.9531 122.643 95.7299C122.601 94.7796 122.538 92.478 120.996 91.6122Z" fill="#E69876"/>
<path d="M126.972 70.9188C128.872 70.771 131.069 75.6066 132.251 80.2522C134.109 87.5585 132.019 88.8677 133.666 95.4559C134.722 99.7214 136.622 103.29 138.882 107.556C142.049 113.531 142.957 116.424 142.957 116.424C142.957 116.424 141.796 119.317 128.598 123.329C117.934 126.581 115.084 125.167 115.084 125.167C114.851 123.963 114.577 122.252 114.387 120.162C114.133 117.48 114.091 115.369 114.112 113.468C114.133 106.838 114.492 106.31 114.746 98.0532C114.83 95.2025 114.851 92.9009 115.4 89.9868C115.506 89.4378 115.675 88.6143 116.097 86.3337C116.583 83.7786 116.731 82.934 116.878 82.1527C117.195 80.4845 117.744 78.0984 118.673 75.121C118.673 75.121 121.017 75.3744 122.897 74.6564C125.473 73.664 125.599 71.0244 126.972 70.9188Z" fill="#F9A580"/>
<path fill-rule="evenodd" clip-rule="evenodd" d="M174.631 170.271C174.106 170.271 173.681 170.696 173.681 171.221C173.681 171.746 174.106 172.171 174.631 172.171C175.156 172.171 175.581 171.746 175.581 171.221C175.581 170.696 175.156 170.271 174.631 170.271ZM173.47 171.221C173.47 170.58 173.99 170.06 174.631 170.06C175.273 170.06 175.793 170.58 175.793 171.221C175.793 171.862 175.273 172.382 174.631 172.382C173.99 172.382 173.47 171.862 173.47 171.221Z" fill="black"/>
<path fill-rule="evenodd" clip-rule="evenodd" d="M172.857 171.254L152.597 169.193L152.618 168.983L174.294 171.188L152.775 175.4L152.735 175.193L172.857 171.254Z" fill="black"/>
<path fill-rule="evenodd" clip-rule="evenodd" d="M155.904 183.593L173.515 171.135L173.637 171.307L156.026 183.766L155.904 183.593Z" fill="black"/>
<path fill-rule="evenodd" clip-rule="evenodd" d="M156.488 158.801L174.517 170.952L153.882 163.803L153.951 163.604L173.057 170.223L156.37 158.976L156.488 158.801Z" fill="black"/>
<path fill-rule="evenodd" clip-rule="evenodd" d="M159.56 188.023L173.496 172.123L173.655 172.262L159.718 188.162L159.56 188.023Z" fill="black"/>
<path fill-rule="evenodd" clip-rule="evenodd" d="M174.883 171.438L171.082 193.432L170.874 193.396L174.379 173.116L166.007 192.232L165.813 192.147L174.883 171.438Z" fill="black"/>
<path fill-rule="evenodd" clip-rule="evenodd" d="M177.716 193.894L174.527 172.292L174.736 172.261L177.925 193.863L177.716 193.894Z" fill="black"/>
<path fill-rule="evenodd" clip-rule="evenodd" d="M184.608 191.853L175.592 172.236L175.784 172.148L184.8 191.765L184.608 191.853Z" fill="black"/>
<path fill-rule="evenodd" clip-rule="evenodd" d="M174.594 169.826L178.773 149.555L178.979 149.598L174.67 170.504L165.814 150.993L166.007 150.905L174.594 169.826Z" fill="black"/>
<path fill-rule="evenodd" clip-rule="evenodd" d="M183.424 150.908L183.618 150.991L175.568 169.728L190.417 155.456L190.563 155.608L174.962 170.603L183.424 150.908Z" fill="black"/>
<path fill-rule="evenodd" clip-rule="evenodd" d="M173.184 169.377L162.991 152.63L163.171 152.52L174.39 170.953L159.562 155.351L159.716 155.205L173.184 169.377Z" fill="black"/>
<path fill-rule="evenodd" clip-rule="evenodd" d="M191.878 185.766L175.471 171.829L175.607 171.668L192.015 185.605L191.878 185.766Z" fill="black"/>
<path fill-rule="evenodd" clip-rule="evenodd" d="M174.729 170.982L197.177 174.073L197.149 174.282L176.647 171.46L196.207 178.618L196.134 178.816L174.729 170.982Z" fill="black"/>
<path fill-rule="evenodd" clip-rule="evenodd" d="M196.928 167.524L175.706 171.325L175.669 171.117L196.891 167.316L196.928 167.524Z" fill="black"/>
<path fill-rule="evenodd" clip-rule="evenodd" d="M194.865 161.455L175.733 170.683L175.642 170.492L194.773 161.265L194.865 161.455Z" fill="black"/>
<path d="M92.9333 144.171C77.7085 144.171 65.3555 156.524 65.3555 171.749C65.3555 186.974 77.7085 199.327 92.9333 199.327C108.158 199.327 120.511 186.974 120.511 171.749C120.511 156.524 108.179 144.171 92.9333 144.171ZM92.9544 194.069C80.5803 194.069 70.529 184.038 70.529 171.643C70.529 159.248 80.5592 149.218 92.9544 149.218C105.35 149.218 115.38 159.248 115.38 171.643C115.38 184.038 105.329 194.069 92.9544 194.069Z" fill="black"/>
<path fill-rule="evenodd" clip-rule="evenodd" d="M156.423 183.604L160.396 186.699L156.102 192.606L151.675 188.025L156.423 183.604ZM156.435 183.881L151.976 188.033L156.079 192.279L160.105 186.741L156.435 183.881Z" fill="black"/>
<path d="M125.368 57.7209C125.304 56.6229 125.156 54.6802 124.164 52.4418C123.763 51.5127 121.841 47.1205 117.196 45.3257C116.182 44.9244 114.155 44.1854 111.705 44.7555C110.987 44.9244 108.453 45.5368 107.334 47.6484C106.68 48.8943 106.68 50.3091 106.701 51.5972C106.701 52.7375 106.87 53.0331 106.849 54.3423C106.806 55.7571 106.595 56.4328 106.49 57.2352C106.236 59.368 106.996 61.1417 107.545 62.3665C108.242 63.9502 109.573 67.0121 112.888 68.279C116.731 69.7572 120.257 67.7089 120.849 67.371C121.524 66.9909 123.594 65.7451 124.713 63.2111C125.6 61.2684 125.473 59.558 125.368 57.7209Z" fill="#EEC795"/>
<path d="M109.445 43.721C109.445 43.721 106.658 42.8341 104.652 43.1508C102.35 43.5309 101.083 46.2338 100.703 47.0151C99.6264 49.2745 100.218 52.083 100.218 52.083L102.266 50.1825C102.266 50.1825 102.076 51.365 102.329 52.9277C102.435 53.54 103.237 54.8915 103.237 54.8915C103.237 54.8915 105.117 53.899 105.708 52.7798C106.827 50.6682 106.552 48.3454 106.552 48.3454L107.608 51.5762C107.608 51.5762 108.284 50.816 108.727 49.7391C109.509 47.8809 109.931 46.4238 109.931 46.4238C109.931 46.4238 109.868 47.2263 110.079 48.3243C110.227 49.1267 110.924 50.1614 110.924 50.1614C110.924 50.1614 111.156 49.6335 111.557 48.7466C111.642 48.5566 112.972 46.9095 112.972 46.9095C112.972 46.9095 113.289 47.9231 113.88 49.4435C114.492 50.9638 115.569 51.9774 115.569 51.9774C115.569 51.9774 115.316 51.175 115.421 50.0136C115.464 49.6335 116.055 48.4721 116.055 48.4721C116.055 48.4721 117.343 49.1478 117.744 49.9503C118.462 51.4284 118.103 53.0543 118.103 53.0543L119.096 50.1614C119.096 50.1614 119.602 51.7451 119.666 52.5476C119.835 54.617 119.518 55.9895 119.518 55.9895C119.518 55.9895 120.658 55.3771 121.144 54.5747C121.777 53.54 121.925 52.6109 121.925 52.6109C121.925 52.6109 121.967 54.2791 122.77 55.9262C123.741 57.9322 125.135 57.7844 125.452 59.2414C125.832 61.0574 123.826 62.3244 124.459 63.4013C124.734 63.8659 125.494 63.9926 126.993 64.246C128.513 64.4994 129.949 64.3093 129.949 64.3093C129.949 64.3093 128.598 64.1404 127.69 63.1057C126.951 62.261 127.056 60.9307 127.056 60.9307C127.056 60.9307 127.563 61.4797 128.535 62.0499C129.252 62.4722 130.287 62.5356 130.287 62.5356C130.287 62.5356 129.928 62.0499 129.506 61.2052C129.105 60.4028 129.147 59.2414 129.147 59.2414C129.147 59.2414 129.506 59.4315 130.266 59.8116C130.604 59.9805 131.47 60.1705 131.47 60.1705C131.47 60.1705 130.794 59.2203 130.266 58.2701C129.506 56.8764 129.675 55.5038 129.78 54.3213C129.823 53.709 130.118 49.6969 129.569 47.2051C128.577 42.6651 124.227 40.2157 123.868 40.0256C123.192 39.6666 119.771 37.8084 115.907 38.9064C115.105 39.1387 112.528 39.8567 110.839 42.0739C110.248 42.8974 109.445 43.721 109.445 43.721Z" fill="black"/>
<path d="M122.791 54.8278C122.791 53.9409 123.256 53.1385 124.016 52.7162C124.691 52.3361 125.578 52.2727 126.233 52.6528C127.31 53.2863 127.331 54.8278 127.352 55.9892C127.373 57.1928 127.373 58.5654 126.339 59.3678C125.283 60.1913 123.868 59.8535 123.593 59.7901" fill="#EEC795"/>
<path d="M122.411 55.3979C122.411 55.3979 120.046 56.4749 117.153 57.7207C114.303 58.9455 112.17 59.8535 110.122 59.0933C108.559 58.502 107.757 57.2139 106.257 57.5096C106.11 57.5307 105.349 57.6785 104.927 58.312C104.505 58.9244 104.674 59.6423 104.864 60.5926C105.455 63.401 105.751 64.7947 106.131 66.4629C106.384 67.582 106.469 68.0044 106.87 68.5323C107.398 69.1869 108.158 69.5881 109.404 69.8626C111.748 70.3694 113.817 70.0104 114.978 69.7359C117.09 69.2502 120.49 68.49 123.214 65.6605C123.826 65.0059 125.156 61.7117 125.156 61.7117C125.156 61.7117 124.945 61.4161 123.53 59.8746C122.369 58.6076 122.263 58.4598 122.2 58.2486C121.736 56.8761 122.411 55.3979 122.411 55.3979Z" fill="#4D4D4D"/>
<path d="M113.31 72.4388L111.642 70.0738C112.191 69.1236 113.204 67.6877 114.851 66.3573C116.351 65.1537 117.829 64.4991 118.821 64.1401L120.996 65.6394L113.31 72.4388Z" fill="#5C5C5C"/>
<path d="M113.814 73.1284C114.928 74.2409 117.474 73.497 119.501 71.467C121.529 69.437 122.269 66.8895 121.155 65.777C120.041 64.6645 117.494 65.4084 115.467 67.4384C113.44 69.4684 112.7 72.0159 113.814 73.1284Z" fill="#333333"/>
<path d="M118.948 64.1616C118.525 63.8026 117.829 63.3169 116.836 63.0213C116.477 62.9157 113.648 62.1555 111.747 64.056C111.536 64.2672 110.311 65.5341 110.438 67.4346C110.543 68.9761 111.473 69.9474 111.726 70.2008C114.133 68.1948 116.54 66.1676 118.948 64.1616Z" fill="#858585"/>
<path d="M116.287 72.122C116.567 72.122 116.794 71.8951 116.794 71.6152C116.794 71.3353 116.567 71.1084 116.287 71.1084C116.007 71.1084 115.78 71.3353 115.78 71.6152C115.78 71.8951 116.007 72.122 116.287 72.122Z" fill="#E6E6E6"/>
<path d="M118.609 70.0107C118.889 70.0107 119.116 69.7837 119.116 69.5039C119.116 69.224 118.889 68.9971 118.609 68.9971C118.329 68.9971 118.103 69.224 118.103 69.5039C118.103 69.7837 118.329 70.0107 118.609 70.0107Z" fill="#E6E6E6"/>
<path d="M119.666 67.8988C119.946 67.8988 120.173 67.6719 120.173 67.392C120.173 67.1121 119.946 66.8853 119.666 66.8853C119.386 66.8853 119.159 67.1121 119.159 67.392C119.159 67.6719 119.386 67.8988 119.666 67.8988Z" fill="#E6E6E6"/>
<path d="M116.709 68.1102C116.989 68.1102 117.216 67.8833 117.216 67.6035C117.216 67.3236 116.989 67.0967 116.709 67.0967C116.429 67.0967 116.202 67.3236 116.202 67.6035C116.202 67.8833 116.429 68.1102 116.709 68.1102Z" fill="#E6E6E6"/>
<path d="M115.231 70.433C115.511 70.433 115.738 70.2061 115.738 69.9262C115.738 69.6463 115.511 69.4194 115.231 69.4194C114.952 69.4194 114.725 69.6463 114.725 69.9262C114.725 70.2061 114.952 70.433 115.231 70.433Z" fill="#E6E6E6"/>
<path d="M104.927 60.9308C104.927 60.9308 105.771 60.4873 106.215 60.6351C106.616 60.783 106.848 61.1208 107.271 62.1133C107.545 62.7679 107.735 63.2324 107.862 63.6125C108.052 64.1616 108.115 64.4572 108.348 64.9429C108.538 65.3018 108.622 65.4919 108.791 65.6608C109.256 66.1465 109.72 66.1465 110.016 66.6955C110.058 66.78 110.1 66.8644 110.142 67.0334C110.227 67.3501 110.206 67.5613 110.375 68.0681C110.839 69.3984 111.536 70.0741 111.536 70.0741C110.565 70.1164 109.784 69.9685 109.256 69.8207C108.495 69.6096 107.862 69.4406 107.292 68.8916C106.722 68.3637 106.489 67.7302 106.363 67.4346C106.278 67.2445 106.215 66.8644 106.025 66.1254C105.983 65.9353 105.856 65.3652 105.666 64.4783C105.518 63.7181 105.497 63.5703 105.391 63.0213C105.307 62.5356 105.159 61.8177 104.927 60.9308Z" fill="#333333"/>
<path d="M108.459 68.0669C108.657 67.9988 108.702 67.6038 108.558 67.1846C108.415 66.7654 108.137 66.4807 107.939 66.5487C107.74 66.6167 107.696 67.0117 107.839 67.431C107.983 67.8502 108.26 68.1349 108.459 68.0669Z" fill="#E6E6E6"/>
<path d="M106.742 64.0979C106.952 64.0927 107.113 63.7294 107.102 63.2863C107.091 62.8433 106.912 62.4883 106.702 62.4935C106.492 62.4987 106.331 62.8621 106.342 63.3051C106.353 63.7481 106.532 64.1031 106.742 64.0979Z" fill="#E6E6E6"/>
<path d="M108.749 58.0799C108.749 58.0799 108.812 57.9321 108.854 57.6998C108.875 57.5942 108.896 57.4675 108.896 57.3197C108.896 57.2564 108.896 57.1719 108.875 57.1085C108.875 57.0663 108.875 57.0452 108.854 57.003V56.9818V56.9607L108.833 56.8974C108.812 56.8129 108.791 56.7707 108.77 56.6862C108.749 56.6229 108.706 56.5595 108.685 56.4962C108.622 56.3695 108.537 56.2639 108.474 56.1794C108.326 56.0105 108.221 55.8838 108.221 55.8838C108.221 55.8838 108.369 55.926 108.559 56.0738C108.643 56.1583 108.749 56.2639 108.833 56.3906C108.875 56.4539 108.918 56.5173 108.939 56.6017C108.981 56.6651 109.002 56.7707 109.023 56.834L109.044 56.8974V56.9185V56.9396V56.9607C109.044 57.003 109.065 57.0452 109.065 57.0874C109.065 57.1719 109.065 57.2564 109.065 57.3197C109.044 57.4675 109.002 57.6153 108.96 57.7209C108.875 57.9532 108.749 58.0799 108.749 58.0799Z" fill="#C69C6D"/>
<path d="M111.409 56.6863C111.713 56.6863 111.958 56.0434 111.958 55.2504C111.958 54.4573 111.713 53.8145 111.409 53.8145C111.106 53.8145 110.86 54.4573 110.86 55.2504C110.86 56.0434 111.106 56.6863 111.409 56.6863Z" fill="black"/>
<path d="M111.367 53.7719C111.367 53.7719 111.409 53.7508 111.473 53.7086C111.536 53.6874 111.642 53.6452 111.768 53.6241C111.895 53.603 112.043 53.5819 112.212 53.603C112.296 53.603 112.381 53.6241 112.465 53.6452C112.55 53.6663 112.613 53.6874 112.719 53.7297C112.803 53.7719 112.866 53.8141 112.951 53.8564C113.014 53.8986 113.099 53.962 113.141 54.0042C113.268 54.1098 113.352 54.2365 113.415 54.342C113.542 54.5532 113.584 54.7221 113.584 54.7221C113.584 54.7221 113.479 54.5743 113.31 54.4054C113.225 54.3209 113.12 54.2153 113.014 54.1309C112.951 54.0887 112.888 54.0464 112.824 54.0042C112.761 53.962 112.698 53.9197 112.613 53.8986C112.55 53.8775 112.465 53.8353 112.402 53.8141C112.339 53.793 112.254 53.7719 112.191 53.7508C112.043 53.7297 111.916 53.7086 111.79 53.7086C111.663 53.7086 111.557 53.7086 111.494 53.7297C111.409 53.7719 111.367 53.7719 111.367 53.7719Z" fill="#C69C6D"/>
<path d="M109.446 50.6683C109.383 50.8161 109.256 51.1117 109.256 51.5129C109.256 51.8297 109.34 52.0831 109.425 52.2309C109.784 52.0408 110.438 51.8297 111.283 51.8297C112.423 51.8297 113.31 52.6954 113.585 52.9699C114.429 53.7935 114.746 54.5537 114.746 54.5537C114.809 54.2369 114.957 53.1389 114.303 52.0619C113.542 50.8161 112.212 50.5205 111.874 50.4571C110.713 50.2248 109.805 50.5205 109.446 50.6683Z" fill="black"/>
<path d="M123.53 54.659C123.699 54.4056 123.953 54.1944 124.269 54.0889C124.354 54.0677 124.417 54.0466 124.502 54.0255C124.586 54.0044 124.671 54.0044 124.734 54.0044C124.903 54.0044 125.051 54.0255 125.22 54.0889C125.304 54.11 125.367 54.1522 125.452 54.1944C125.515 54.2367 125.6 54.3211 125.621 54.4056C125.642 54.469 125.642 54.469 125.642 54.5323C125.642 54.5745 125.642 54.6379 125.642 54.6801C125.642 54.7646 125.621 54.849 125.6 54.9335C125.557 55.0813 125.473 55.2291 125.41 55.377C125.325 55.5248 125.241 55.6515 125.156 55.7782L125.093 55.6092C125.262 55.6515 125.431 55.7148 125.6 55.7993C125.684 55.8415 125.747 55.8837 125.832 55.926C125.874 55.9471 125.916 55.9682 125.938 56.0104L126.001 56.0527L126.043 56.0949C126.106 56.1583 126.17 56.2427 126.212 56.3061C126.254 56.3905 126.296 56.4539 126.339 56.5383C126.402 56.7073 126.444 56.8762 126.444 57.0663C126.444 57.1507 126.423 57.2563 126.402 57.3408C126.381 57.4252 126.339 57.5097 126.296 57.5942C126.275 57.6364 126.254 57.6575 126.212 57.6997C126.191 57.742 126.149 57.7631 126.128 57.8053C126.064 57.8687 126.001 57.932 125.916 57.9743C125.6 58.1432 125.22 58.1643 124.903 58.0587C125.241 58.1221 125.6 58.0587 125.853 57.8687C125.916 57.8264 125.98 57.7631 126.043 57.7209C126.064 57.6997 126.085 57.6575 126.106 57.6364C126.128 57.5942 126.149 57.5519 126.17 57.5308C126.212 57.4675 126.233 57.383 126.254 57.3196C126.275 57.2352 126.275 57.1718 126.275 57.0874C126.254 56.7706 126.106 56.4539 125.895 56.2427L125.853 56.2005L125.811 56.1583C125.79 56.1371 125.747 56.116 125.705 56.0949C125.642 56.0527 125.557 56.0104 125.494 55.9682C125.346 55.9049 125.198 55.8415 125.051 55.7993L124.903 55.757L124.987 55.6303C125.156 55.3981 125.325 55.1236 125.41 54.849C125.431 54.7857 125.452 54.7012 125.452 54.6379C125.452 54.5956 125.452 54.5745 125.452 54.5534C125.452 54.5323 125.431 54.469 125.431 54.4478C125.389 54.3423 125.283 54.2578 125.135 54.1944C125.008 54.1522 124.861 54.11 124.713 54.11C124.649 54.11 124.565 54.11 124.481 54.11C124.417 54.11 124.333 54.1311 124.269 54.1522C123.995 54.2367 123.741 54.4267 123.53 54.659Z" fill="#C69C6D"/>
<path d="M124.438 68.4901C123.72 68.849 124.269 70.0315 123.424 71.5097C123.277 71.7842 122.601 72.9456 121.355 73.3679C120.489 73.6635 120.025 73.3257 118.927 73.7902C118.483 73.9803 117.892 74.2337 117.807 74.6982C117.723 75.2684 118.462 75.8385 118.927 76.0708C120.172 76.7465 121.587 76.282 122.2 76.0708C123.973 75.4795 124.945 74.2548 125.43 73.6424C125.958 72.9667 126.803 71.8687 126.697 70.475C126.676 70.1582 126.613 69.5881 126.169 69.1024C125.747 68.6168 124.945 68.2367 124.438 68.4901Z" fill="#5097C7"/>
<path d="M119.624 201.903C119.708 201.291 119.793 200.108 119.307 198.778C118.631 196.898 117.28 195.885 116.773 195.547C116.372 195.652 115.759 195.8 115.041 196.033C113.605 196.518 112.888 196.751 112.233 197.405C111.599 198.017 111.346 198.651 111.219 198.989C110.987 199.58 110.649 200.446 111.05 201.1C111.24 201.417 111.536 201.565 111.789 201.692C112.55 202.072 113.246 202.008 114.176 201.966C115.147 201.924 116.097 201.945 117.069 201.924C117.639 201.924 118.526 201.903 119.624 201.903Z" fill="white"/>
<path d="M132.377 194.977C131.892 195.124 129.822 195.8 128.766 197.701C128.091 198.904 127.985 200.298 127.964 200.636C127.943 201.016 127.943 201.333 127.964 201.565C128.112 201.565 128.344 201.586 128.619 201.586C129.252 201.586 129.59 201.544 130.646 201.459C131.892 201.354 132.145 201.354 132.61 201.227C133.243 201.058 133.454 200.889 133.581 200.784C134.109 200.319 134.172 199.643 134.193 199.538C134.214 199.326 134.193 199.179 134.172 199.052C134.024 197.996 133.539 197.004 133.243 196.455C133.032 196.053 132.736 195.547 132.377 194.977Z" fill="white"/>
<path d="M118.42 194.934C118.694 194.955 119.666 195.061 120.51 195.842C121.313 196.581 121.524 197.489 121.566 197.764L122.495 196.792C122.453 196.518 122.284 195.842 121.735 195.23C121.165 194.596 120.51 194.385 120.236 194.301C119.602 194.512 119.011 194.723 118.42 194.934Z" fill="white"/>
<path d="M121.165 193.921C121.313 193.879 122.411 193.604 123.403 194.322C124.206 194.892 124.396 195.737 124.417 195.948C124.797 195.568 125.156 195.188 125.536 194.808C125.409 194.533 125.093 193.942 124.438 193.456C123.699 192.928 122.96 192.844 122.643 192.823C122.157 193.203 121.672 193.562 121.165 193.921Z" fill="white"/>
<path d="M158.9 185.686C159.808 185.728 161.307 185.918 162.954 186.678C164.496 187.375 165.552 188.304 166.185 188.937C166.185 188.937 165.699 191.514 163.799 194.153C161.941 196.687 158.456 199.496 158.456 199.496C158.456 199.496 155.521 200.573 154.508 200.763C152.312 201.164 149.545 201.649 147.603 200.066C146.737 199.348 145.681 197.933 146.061 196.835C146.42 195.758 147.856 196.138 150.855 194.301C152.375 193.372 153.22 192.527 153.473 192.253C154.191 191.514 154.634 190.922 154.634 190.922C154.634 190.922 157.021 189.972 157.907 189.17C158.435 188.684 159.005 187.755 158.9 185.686Z" fill="#071709"/>
<path fill-rule="evenodd" clip-rule="evenodd" d="M161.815 185.96L161.881 185.991C162.687 186.373 163.579 186.861 164.513 187.498C165.193 187.945 165.767 188.412 166.274 188.835L166.319 188.873L166.311 188.931C166.289 189.084 166.246 189.299 166.182 189.554L166.182 189.556L166.181 189.558C166.179 189.567 166.176 189.576 166.173 189.586C166.09 189.879 165.995 190.212 165.543 191.218C165.503 191.309 165.466 191.394 165.431 191.474C165.207 191.989 165.069 192.306 164.883 192.623C164.671 192.982 164.501 193.259 164.373 193.451L164.372 193.453C164.363 193.465 164.355 193.477 164.346 193.49C164.116 193.824 163.806 194.276 163.416 194.748L163.357 194.819L163.279 194.77C163.102 194.66 162.864 194.465 162.591 194.234L162.574 194.22L162.564 194.2C162.564 194.198 162.561 194.194 162.545 194.18C162.543 194.178 162.539 194.175 162.534 194.171C162.52 194.159 162.499 194.142 162.48 194.124C161.134 192.884 160.555 191.588 160.313 190.599C160.192 190.105 160.155 189.688 160.149 189.393C160.146 189.246 160.151 189.13 160.156 189.049C160.159 189.009 160.162 188.978 160.164 188.957C160.165 188.946 160.166 188.938 160.167 188.932L160.168 188.925L160.168 188.923L160.168 188.923C160.168 188.923 160.168 188.923 160.168 188.923C160.363 187.537 161.185 186.566 161.762 186.011L161.815 185.96ZM160.377 188.952L160.377 188.953L160.377 188.958C160.376 188.963 160.375 188.97 160.374 188.979C160.372 188.998 160.37 189.026 160.367 189.063C160.362 189.138 160.358 189.249 160.361 189.389C160.366 189.67 160.401 190.072 160.518 190.549C160.751 191.502 161.311 192.761 162.625 193.97L162.626 193.971L162.628 193.973C162.639 193.984 162.648 193.992 162.66 194.001C162.667 194.007 162.674 194.012 162.683 194.02C162.7 194.035 162.722 194.055 162.741 194.084C162.969 194.277 163.163 194.436 163.313 194.54C163.669 194.102 163.955 193.686 164.173 193.369C164.181 193.357 164.189 193.345 164.197 193.334C164.322 193.146 164.49 192.874 164.701 192.516C164.88 192.211 165.012 191.907 165.237 191.39C165.272 191.31 165.31 191.225 165.35 191.133L165.35 191.132C165.796 190.139 165.889 189.813 165.969 189.53C165.972 189.521 165.975 189.511 165.978 189.501C166.032 189.283 166.071 189.098 166.093 188.959C165.598 188.548 165.046 188.101 164.396 187.674L164.394 187.673C163.496 187.06 162.637 186.587 161.856 186.214C161.298 186.762 160.557 187.675 160.377 188.952L160.377 188.952Z" fill="black"/>
<path d="M150.833 194.28L152.945 196.941L154.824 195.61C154.043 194.808 153.283 193.985 152.501 193.182C151.952 193.541 151.403 193.9 150.833 194.28Z" fill="white"/>
<path d="M153.262 192.485C153.916 193.203 154.592 193.942 155.247 194.66L156.408 193.414C155.648 192.759 154.888 192.126 154.127 191.471C153.853 191.809 153.557 192.147 153.262 192.485Z" fill="white"/>
<path d="M148.912 195.167C149.355 195.314 150.052 195.631 150.664 196.286C150.876 196.518 151.805 197.679 151.826 199.369C151.826 199.875 151.298 201.079 151.298 201.079C151.298 201.079 150.918 201.206 150.453 201.142C149.672 201.037 148.912 200.91 148.046 200.34C147.075 199.707 146.61 198.904 146.399 198.566C146.124 198.081 145.871 197.616 145.977 197.067C146.061 196.602 146.378 196.286 146.483 196.201C146.737 195.948 146.969 195.884 147.877 195.547C148.321 195.378 148.68 195.251 148.912 195.167Z" fill="white"/>
<path d="M124.649 78.7741C124.269 78.8797 123.255 79.302 122.474 82.6384C121.735 85.7213 122.009 87.8119 122.052 90.0291C122.094 92.3519 122.157 96.6596 120.362 100.376C118.525 104.177 115.273 106.162 114.027 106.922C107.692 110.702 100.302 111.568 100.302 111.568C100.302 111.568 101.21 112.645 101.421 114.313C101.695 116.424 100.64 118.325 100.64 118.325C101.442 118.388 102.582 118.452 103.913 118.325C104.504 118.283 105.834 118.135 107.608 117.628C112.613 116.192 118.039 112.835 118.039 112.835C122.073 110.385 124.079 109.16 125.641 107.197C128.429 103.67 129.041 99.8904 129.506 96.913C129.632 96.1739 129.506 96.7018 129.231 86.1437C129.168 83.7998 129.125 81.6881 127.605 80.0833C127.373 79.851 125.979 78.4151 124.649 78.7741Z" fill="#F9A580"/>
<path d="M83.1348 116.635L85.7954 132.261H90.1665L87.2102 116.635H83.1348Z" fill="#B3B3B3"/>
<path d="M92.0669 132.156H85.2041V136.379H92.0669V132.156Z" fill="#808080"/>
<path d="M153.516 159.924C154.529 174.283 155.564 188.874 156.577 203.381C158.731 204.669 163.335 206.95 169.564 207.161C176.976 207.414 182.403 204.585 184.557 203.297C185.042 188.832 185.549 174.304 186.035 159.945H153.516V159.924Z" fill="#8C6239"/>
<path d="M151.615 154.222V160.135L187.787 160.029C187.724 158.065 187.619 156.081 187.555 154.117C175.582 154.159 163.652 154.18 151.615 154.222Z" fill="#7D5733"/>
<path d="M171.253 147.36C171.253 147.36 169.923 147.212 168.508 146.938C167.727 146.79 165.847 146.41 164.39 146.832C162.215 147.444 160.167 150.084 160.484 152.428C160.737 154.307 162.469 155.384 165.024 156.968C168.086 158.868 169.057 158.488 172.52 160.452C175.223 161.972 176.933 162.986 177.799 164.992C178.918 167.589 178.327 170.165 178.327 170.165C178.327 170.165 181.135 166.702 182.445 163.408C184.24 158.91 184.408 155.743 184.451 154.962C184.577 152.174 184.641 150.443 183.5 148.732C181.769 146.156 178.644 145.607 177.799 145.459C176.574 145.248 175.244 145.016 173.893 145.671C172.668 146.262 171.253 147.36 171.253 147.36Z" fill="#31993D"/>
<path d="M184.239 148.415C185.105 146.705 186.625 145.987 187.301 145.67C189.349 144.741 192.411 144.488 194.164 146.093C195.346 147.17 194.67 147.951 196.064 149.999C197.479 152.069 199.506 153.209 200.393 153.694C202.695 154.983 204.088 155.595 204.088 155.595C204.088 155.595 201.766 158.066 199.443 158.657C196.085 159.501 193.235 158.488 189.518 157.179C185.675 155.827 184.894 154.793 184.661 154.434C183.563 152.829 183.204 150.421 184.239 148.415Z" fill="#31993D"/>
<path d="M162.279 143.559C162.279 143.559 164.876 144.467 165.552 145.776C166.249 147.127 165.024 149.028 164.602 149.682C163.44 151.477 161.751 152.216 161.012 152.533C160.315 152.829 158.33 153.673 156.05 153.061C154.614 152.681 153.579 151.836 152.46 150.949C150.834 149.64 150.982 149.218 150.031 148.838C148.511 148.225 146.885 148.859 145.28 149.471C142.789 150.421 141.585 151.16 141.585 151.16C141.585 151.16 142.261 147.254 144.224 144.614C145.154 143.369 146.927 141.025 150.243 139.546C150.792 139.293 154.635 137.625 158.9 138.702C159.998 138.976 161.392 139.356 161.962 140.497C162.532 141.637 162.279 143.559 162.279 143.559Z" fill="#31993D"/>
<path d="M177.313 146.599C177.313 146.599 176.067 147.634 175.033 148.141C173.322 148.964 170.239 147.761 169.373 145.881C168.107 143.136 171.696 139.293 173.808 137.646C176.236 135.746 178.665 135.218 182.951 134.267C186.203 133.549 188.547 133.465 190.236 133.402C191.271 133.359 196.698 134.098 196.698 134.098C196.698 134.098 195.579 134.774 193.763 135.999C192.749 136.675 190.448 138.448 189.033 141.13C187.639 143.77 188.632 144.445 187.217 146.283C186.098 147.761 183.965 149.281 181.727 149.028C180.058 148.838 178.918 147.951 178.918 147.951C178.095 147.296 177.313 146.599 177.313 146.599Z" fill="#31993D"/>
<path d="M192.73 111.123C192.016 110.387 189.889 111.289 187.979 113.14C186.07 114.99 185.101 117.087 185.815 117.824C186.529 118.561 188.656 117.659 190.566 115.808C192.475 113.958 193.444 111.86 192.73 111.123Z" fill="#42210B"/>
<path fill-rule="evenodd" clip-rule="evenodd" d="M196.287 108.998L192.824 111.3L192.59 110.948L196.053 108.646L196.287 108.998Z" fill="#261306"/>
<path d="M173.787 110.913C173.238 113.51 173.787 115.749 174.99 115.939C176.194 116.108 177.609 114.144 178.158 111.547C178.707 108.949 178.158 106.711 176.954 106.521C175.75 106.331 174.315 108.316 173.787 110.913Z" fill="#42210B"/>
<path fill-rule="evenodd" clip-rule="evenodd" d="M178.655 102.614L177.388 106.668L176.985 106.542L178.252 102.488L178.655 102.614Z" fill="#261306"/>
<path d="M158.499 110.934C159.956 113.151 161.919 114.376 162.891 113.637C163.862 112.898 163.482 110.512 162.025 108.294C160.568 106.077 158.604 104.852 157.633 105.592C156.661 106.331 157.042 108.717 158.499 110.934Z" fill="#42210B"/>
<path fill-rule="evenodd" clip-rule="evenodd" d="M156.088 101.629L158.052 105.388L157.678 105.584L155.714 101.825L156.088 101.629Z" fill="#261306"/>
<path d="M150.052 114.101C151.509 116.319 153.473 117.543 154.445 116.804C155.416 116.065 155.036 113.679 153.579 111.462C152.122 109.245 150.158 108.02 149.187 108.759C148.215 109.498 148.595 111.884 150.052 114.101Z" fill="#42210B"/>
<path fill-rule="evenodd" clip-rule="evenodd" d="M147.642 104.797L149.606 108.556L149.231 108.751L147.268 104.992L147.642 104.797Z" fill="#261306"/>
<path d="M162.278 143.453C162.278 143.453 161.919 143.411 161.286 143.368C160.652 143.305 159.744 143.284 158.667 143.284C157.59 143.305 156.323 143.39 154.972 143.622C154.296 143.727 153.62 143.854 152.924 144.023C152.227 144.171 151.53 144.361 150.854 144.593C150.178 144.825 149.503 145.079 148.848 145.374C148.215 145.67 147.581 145.987 147.011 146.346C146.42 146.705 145.892 147.043 145.385 147.423C144.878 147.782 144.435 148.162 144.012 148.521C143.189 149.239 142.555 149.893 142.133 150.358C141.711 150.822 141.479 151.118 141.479 151.118C141.479 151.118 141.521 151.034 141.626 150.907C141.732 150.759 141.88 150.569 142.07 150.316C142.26 150.062 142.513 149.767 142.809 149.429C143.104 149.091 143.442 148.732 143.844 148.352C144.245 147.972 144.688 147.571 145.174 147.19C145.66 146.81 146.209 146.409 146.8 146.05C147.391 145.691 148.003 145.332 148.658 145.037C149.313 144.72 149.988 144.445 150.685 144.213C151.382 143.981 152.1 143.791 152.797 143.643C153.515 143.495 154.191 143.368 154.887 143.284C156.26 143.094 157.527 143.052 158.625 143.073C159.723 143.094 160.631 143.221 161.264 143.305C161.581 143.347 161.835 143.39 162.004 143.432C162.194 143.432 162.278 143.453 162.278 143.453Z" fill="#24702D"/>
<path d="M171.316 147.423C171.316 147.423 171.401 147.486 171.57 147.592C171.739 147.697 171.971 147.845 172.246 148.056C172.816 148.479 173.639 149.112 174.505 149.978C174.948 150.421 175.392 150.907 175.835 151.456C176.279 152.005 176.743 152.596 177.166 153.251C177.588 153.884 178.01 154.581 178.369 155.32C178.728 156.038 179.045 156.82 179.298 157.601C179.425 158.002 179.531 158.403 179.636 158.783C179.721 159.185 179.826 159.586 179.869 159.987C180.016 160.789 180.059 161.592 180.08 162.373C180.101 163.154 180.037 163.894 179.953 164.611C179.869 165.308 179.742 165.984 179.573 166.575C179.425 167.167 179.256 167.716 179.087 168.18C178.918 168.645 178.749 169.046 178.602 169.384C178.454 169.722 178.327 169.954 178.243 170.123C178.158 170.292 178.095 170.376 178.095 170.376C178.095 170.376 178.137 170.292 178.221 170.102C178.306 169.933 178.39 169.658 178.538 169.342C178.792 168.666 179.108 167.694 179.362 166.512C179.488 165.921 179.594 165.266 179.657 164.569C179.721 163.872 179.763 163.133 179.721 162.394C179.7 161.634 179.615 160.853 179.488 160.072C179.425 159.67 179.341 159.29 179.256 158.889C179.151 158.509 179.045 158.108 178.918 157.728C178.665 156.967 178.369 156.207 178.01 155.489C177.651 154.771 177.271 154.096 176.87 153.462C176.046 152.195 175.16 151.055 174.336 150.168C173.513 149.281 172.752 148.584 172.203 148.141C171.633 147.655 171.316 147.423 171.316 147.423Z" fill="#24702D"/>
<path d="M184.239 148.627C184.239 148.627 184.324 148.585 184.45 148.479C184.598 148.394 184.809 148.247 185.084 148.099C185.358 147.951 185.717 147.782 186.14 147.634C186.562 147.486 187.048 147.339 187.597 147.275C188.146 147.212 188.758 147.212 189.392 147.381C189.476 147.402 189.539 147.423 189.624 147.444C189.708 147.465 189.772 147.486 189.856 147.508C190.004 147.571 190.173 147.634 190.321 147.698C190.637 147.845 190.933 148.014 191.208 148.226C191.778 148.627 192.285 149.134 192.791 149.661C193.045 149.915 193.277 150.189 193.53 150.464C193.784 150.738 194.016 151.034 194.206 151.351C194.417 151.667 194.586 152.005 194.755 152.28C194.945 152.575 195.177 152.829 195.41 153.082C195.917 153.589 196.444 154.011 197.015 154.37C197.585 154.729 198.176 155.004 198.746 155.215C199.316 155.426 199.886 155.574 200.414 155.68C200.942 155.785 201.428 155.849 201.871 155.87C202.315 155.891 202.695 155.87 203.012 155.827C203.328 155.785 203.582 155.764 203.751 155.722C203.92 155.68 204.004 155.68 204.004 155.68C204.004 155.68 203.92 155.701 203.751 155.743C203.582 155.785 203.349 155.849 203.033 155.891C202.716 155.933 202.336 155.996 201.892 155.996C201.449 155.996 200.942 155.975 200.393 155.891C199.844 155.806 199.253 155.68 198.662 155.468C198.07 155.257 197.437 155.004 196.846 154.645C196.254 154.286 195.642 153.842 195.156 153.336C194.882 153.061 194.65 152.787 194.438 152.47C194.227 152.153 194.058 151.836 193.868 151.541C193.488 150.95 192.981 150.443 192.496 149.915C192.01 149.387 191.524 148.901 190.996 148.5C190.722 148.31 190.447 148.12 190.173 147.993C190.025 147.93 189.898 147.867 189.751 147.803C189.666 147.782 189.603 147.74 189.518 147.719C189.455 147.698 189.371 147.677 189.307 147.655C188.716 147.486 188.146 147.465 187.618 147.486C187.09 147.529 186.604 147.634 186.182 147.74C185.76 147.867 185.401 148.014 185.126 148.141C184.831 148.268 184.619 148.394 184.472 148.479C184.324 148.585 184.239 148.627 184.239 148.627Z" fill="#24702D"/>
<path d="M177.482 146.684C177.482 146.684 177.504 146.599 177.525 146.409C177.567 146.24 177.609 145.966 177.694 145.649C177.863 145.016 178.158 144.086 178.707 143.073C178.982 142.566 179.298 142.017 179.742 141.51C180.164 141.003 180.671 140.497 181.22 140.053C181.769 139.589 182.381 139.145 183.015 138.744C183.648 138.343 184.324 137.942 185 137.604C185.676 137.245 186.372 136.928 187.069 136.611C187.766 136.316 188.463 136.041 189.139 135.809C190.49 135.323 191.799 134.985 192.918 134.732C193.489 134.605 193.995 134.5 194.46 134.436C194.924 134.352 195.326 134.31 195.642 134.246C195.98 134.204 196.234 134.183 196.403 134.162C196.572 134.141 196.677 134.141 196.677 134.141C196.677 134.141 196.297 134.204 195.642 134.352C195.326 134.415 194.924 134.5 194.46 134.605C194.228 134.647 193.995 134.711 193.742 134.774C193.489 134.837 193.235 134.901 192.94 134.985C191.842 135.281 190.575 135.682 189.244 136.168C188.568 136.421 187.893 136.696 187.217 136.991C186.541 137.287 185.844 137.625 185.19 137.984C184.514 138.322 183.86 138.702 183.226 139.103C182.593 139.504 182.001 139.927 181.452 140.37C180.903 140.813 180.396 141.278 179.974 141.764C179.552 142.249 179.214 142.756 178.918 143.242C178.348 144.213 177.989 145.1 177.778 145.733C177.567 146.304 177.482 146.684 177.482 146.684Z" fill="#24702D"/>
<path fill-rule="evenodd" clip-rule="evenodd" d="M90.9267 171.254L70.666 169.193L70.6874 168.983L92.3636 171.188L70.8448 175.4L70.8042 175.193L90.9267 171.254Z" fill="black"/>
<path fill-rule="evenodd" clip-rule="evenodd" d="M73.9727 183.593L91.5836 171.135L91.7056 171.307L74.0946 183.766L73.9727 183.593Z" fill="black"/>
<path fill-rule="evenodd" clip-rule="evenodd" d="M74.5576 158.801L92.586 170.952L71.9512 163.803L72.0203 163.604L91.1262 170.223L74.4396 158.976L74.5576 158.801Z" fill="black"/>
<path fill-rule="evenodd" clip-rule="evenodd" d="M77.6289 188.023L91.5657 172.123L91.7244 172.262L77.7877 188.162L77.6289 188.023Z" fill="black"/>
<path fill-rule="evenodd" clip-rule="evenodd" d="M92.9527 171.438L89.1515 193.432L88.9434 193.396L92.4484 173.116L84.0762 192.232L83.8828 192.147L92.9527 171.438Z" fill="black"/>
<path fill-rule="evenodd" clip-rule="evenodd" d="M95.7843 193.894L92.5957 172.292L92.8046 172.261L95.9932 193.863L95.7843 193.894Z" fill="black"/>
<path fill-rule="evenodd" clip-rule="evenodd" d="M102.677 191.853L93.6602 172.236L93.852 172.148L102.869 191.765L102.677 191.853Z" fill="black"/>
<path fill-rule="evenodd" clip-rule="evenodd" d="M92.663 169.826L96.8419 149.555L97.0487 149.598L92.7389 170.504L83.8838 150.993L84.0761 150.905L92.663 169.826Z" fill="black"/>
<path fill-rule="evenodd" clip-rule="evenodd" d="M101.494 150.908L101.688 150.991L93.6372 169.728L108.486 155.456L108.632 155.608L93.0312 170.603L101.494 150.908Z" fill="black"/>
<path fill-rule="evenodd" clip-rule="evenodd" d="M91.2531 169.377L81.0601 152.63L81.2405 152.52L92.4595 170.953L77.6318 155.351L77.7849 155.205L91.2531 169.377Z" fill="black"/>
<path fill-rule="evenodd" clip-rule="evenodd" d="M109.947 185.766L93.54 171.829L93.6767 171.668L110.084 185.605L109.947 185.766Z" fill="black"/>
<path fill-rule="evenodd" clip-rule="evenodd" d="M92.7969 170.982L115.246 174.073L115.217 174.282L94.7153 171.46L114.275 178.618L114.203 178.816L92.7969 170.982Z" fill="black"/>
<path fill-rule="evenodd" clip-rule="evenodd" d="M114.996 167.524L93.7745 171.325L93.7373 171.117L114.959 167.316L114.996 167.524Z" fill="black"/>
<path fill-rule="evenodd" clip-rule="evenodd" d="M112.933 161.455L93.8017 170.683L93.71 170.492L112.841 161.265L112.933 161.455Z" fill="black"/>
<path fill-rule="evenodd" clip-rule="evenodd" d="M92.4813 113.604C92.0472 114.059 91.5926 114.72 91.3448 115.567L91.3446 115.568L91.3446 115.568C91.1589 116.187 91.1379 116.724 91.1379 117.121C91.1379 117.956 91.2631 118.643 91.3876 119.099L91.1839 119.155C91.055 118.682 90.9268 117.976 90.9268 117.121C90.9268 116.716 90.948 116.155 91.1423 115.507C91.4013 114.623 91.8757 113.933 92.3285 113.458L92.4813 113.604Z" fill="#005187"/>
<path fill-rule="evenodd" clip-rule="evenodd" d="M93.5881 115.811C93.8276 115.492 94.1277 115.311 94.3315 115.209L94.237 115.021C94.0187 115.13 93.6857 115.329 93.4185 115.685L93.4184 115.685L93.417 115.687C92.8587 116.469 93.042 117.445 93.1881 118.197C93.2741 118.648 93.4675 119.379 93.9401 120.173L94.1216 120.066C93.6651 119.298 93.4784 118.592 93.3955 118.157L93.3954 118.157C93.246 117.388 93.0916 116.507 93.5881 115.811Z" fill="#005187"/>
<path d="M99.9857 104.346C99.9857 104.346 99.1411 103.881 97.8741 103.543C97.0717 103.332 97.0928 103.417 96.586 103.227C96.0159 103.015 95.7414 102.825 95.3613 102.931C95.1924 102.994 94.9601 103.121 94.8334 103.353C94.6645 103.649 94.7912 103.881 94.6433 103.966C94.4322 104.071 94.1365 103.543 93.6931 103.586C93.4186 103.628 93.1441 103.881 93.0807 104.135C93.0385 104.409 93.2285 104.62 93.1652 104.684C93.0807 104.768 92.8485 104.578 92.5739 104.472C92.0671 104.282 91.4125 104.43 90.9902 104.789C90.4834 105.212 90.2089 106.056 90.5045 106.436C90.6735 106.626 91.0113 106.732 91.2014 106.605C91.4337 106.457 91.2647 106.12 91.497 105.866C91.7504 105.57 92.405 105.507 92.8273 105.866C93.1018 106.098 93.2919 106.521 93.1441 106.816C92.9118 107.26 91.9827 107.196 91.4759 107.091C90.8213 106.943 90.6735 106.647 90.2089 106.711C89.8077 106.774 89.3432 107.07 89.3009 107.429C89.2376 107.914 89.9344 108.316 90.2723 108.506C91.0325 108.949 91.5815 108.97 92.6584 109.16C93.9254 109.393 93.6086 109.456 95.129 109.752C96.1637 109.963 97.0084 110.11 98.1486 110.153C98.5498 110.174 99.0989 110.174 99.7746 110.11C99.6901 109.287 99.669 108.379 99.6901 107.386C99.7535 106.267 99.8591 105.254 99.9857 104.346Z" fill="#EEC795"/>
<path d="M100.893 112.264C100.682 112.095 100.492 112.053 99.8373 111.948C98.2114 111.694 97.3879 111.567 96.6066 111.567C94.516 111.567 93.228 111.546 91.8554 112.307C91.2642 112.644 89.786 113.447 89.2159 115.157C88.9202 116.002 88.6457 117.691 89.4693 118.388C89.9761 118.831 90.6518 118.641 91.412 119.38C91.5598 119.528 91.7287 119.718 92.0454 119.908C92.1933 119.993 92.5522 120.204 93.0379 120.267C93.6081 120.331 93.7347 120.12 94.136 120.267C94.4527 120.394 94.4105 120.542 94.7694 120.753C95.2762 121.049 95.8253 120.985 95.9942 120.964C96.2265 120.943 96.9022 120.859 96.9866 120.542C97.0922 120.141 96.0364 119.908 95.5719 118.958C95.2974 118.388 95.3818 117.839 95.5085 117.121C95.6352 116.34 95.8675 114.798 96.9444 114.313C97.5146 114.059 98.2536 114.101 98.4859 114.101C98.8026 114.123 98.9505 114.123 99.1616 114.207C99.8162 114.481 100.07 115.221 100.196 115.58C100.323 115.917 100.344 116.192 100.344 116.234C100.386 116.614 100.302 116.804 100.302 117.058C100.302 117.332 100.386 117.712 100.745 118.177C100.766 118.135 100.809 118.05 100.872 117.945C100.999 117.67 101.062 117.438 101.104 117.311C101.379 116.382 101.442 115.685 101.442 115.685C101.548 114.397 101.696 112.919 100.893 112.264Z" fill="#EEC795"/>
<path d="M115.02 106.077C115.02 106.077 115.083 106.035 115.21 105.95C115.337 105.866 115.506 105.76 115.738 105.591C116.202 105.275 116.857 104.789 117.596 104.071C118.335 103.353 119.201 102.403 119.94 101.157C120.679 99.9112 121.292 98.3697 121.608 96.6171C121.777 95.7513 121.862 94.8222 121.925 93.8508C121.988 92.9006 122.052 91.887 122.031 90.8734C122.009 89.8598 121.946 88.804 121.946 87.7271C121.946 86.6502 121.967 85.5521 122.009 84.433C122.031 83.8839 122.073 83.3138 122.115 82.7437C122.178 82.1735 122.263 81.6034 122.453 81.0544C122.622 80.5053 122.939 79.9563 123.382 79.5551C123.825 79.1539 124.375 78.8794 124.987 78.7738C125.578 78.6682 126.233 78.7949 126.74 79.1117C126.993 79.2595 127.225 79.4706 127.436 79.6818C127.648 79.9141 127.838 80.1464 128.007 80.3998C128.344 80.9065 128.598 81.4556 128.809 82.0046C129.041 82.5747 129.126 83.1871 129.168 83.7784C129.252 84.982 129.273 86.1645 129.295 87.347C129.316 88.5295 129.337 89.712 129.358 90.8945C129.379 92.0771 129.4 93.2385 129.464 94.3787C129.485 94.9489 129.548 95.519 129.611 96.0891C129.632 96.3848 129.632 96.6593 129.611 96.9549C129.59 97.2294 129.569 97.525 129.548 97.7996C129.316 100.038 128.598 102.128 127.711 103.966C127.246 104.874 126.803 105.782 126.317 106.605C125.832 107.429 125.261 108.189 124.628 108.843C123.994 109.477 123.319 110.026 122.622 110.448C121.925 110.871 121.228 111.208 120.595 111.567C119.328 112.264 118.209 112.877 117.301 113.362C115.463 114.355 114.429 114.925 114.429 114.925C114.429 114.925 115.463 114.334 117.279 113.32C118.187 112.813 119.285 112.201 120.552 111.483C121.186 111.124 121.862 110.765 122.558 110.343C123.255 109.92 123.91 109.392 124.543 108.738C125.156 108.104 125.726 107.344 126.212 106.521C126.697 105.697 127.141 104.789 127.584 103.881C128.471 102.044 129.168 99.9745 129.4 97.7573C129.442 97.4828 129.442 97.2083 129.464 96.9127C129.485 96.6382 129.485 96.3637 129.464 96.068C129.4 95.519 129.358 94.9278 129.316 94.3576C129.252 93.2173 129.231 92.0348 129.21 90.8734C129.189 89.6909 129.147 88.5295 129.126 87.3259C129.105 86.1434 129.062 84.9398 128.978 83.7572C128.936 83.166 128.872 82.5747 128.64 82.0468C128.429 81.4978 128.175 80.9699 127.859 80.4842C127.69 80.2308 127.521 80.0197 127.331 79.8085C127.12 79.5973 126.908 79.4073 126.676 79.2595C126.191 78.9639 125.599 78.8372 125.05 78.9427C124.501 79.0483 123.952 79.3017 123.551 79.6818C123.129 80.0619 122.833 80.5687 122.664 81.0966C122.495 81.6245 122.39 82.1946 122.326 82.7648C122.263 83.3349 122.242 83.8839 122.2 84.433C122.157 85.5521 122.115 86.6502 122.115 87.7271C122.115 88.804 122.157 89.8387 122.178 90.8734C122.178 91.9081 122.115 92.9006 122.052 93.8508C121.988 94.8222 121.883 95.7513 121.714 96.6171C121.397 98.3908 120.764 99.9323 120.003 101.178C119.243 102.424 118.377 103.374 117.638 104.092C116.878 104.81 116.202 105.296 115.759 105.613C115.527 105.782 115.337 105.887 115.231 105.972C115.083 106.035 115.02 106.077 115.02 106.077Z" fill="#065F99"/>
<path d="M106.151 110.153C106.151 110.153 106.299 110.11 106.531 110.047C106.785 109.984 107.123 109.899 107.545 109.772C107.967 109.667 108.453 109.498 108.96 109.329C109.467 109.16 110.016 108.97 110.565 108.738C110.839 108.632 111.093 108.527 111.367 108.4C111.62 108.273 111.895 108.168 112.127 108.062C112.613 107.83 113.077 107.597 113.458 107.386C113.838 107.175 114.154 107.006 114.387 106.879C114.598 106.753 114.725 106.689 114.725 106.689C114.725 106.689 114.619 106.774 114.408 106.922C114.197 107.07 113.901 107.281 113.521 107.492C113.141 107.724 112.697 107.978 112.212 108.231C111.726 108.484 111.198 108.717 110.649 108.949C110.1 109.16 109.551 109.35 109.023 109.519C108.495 109.688 108.01 109.794 107.566 109.899C107.144 110.005 106.785 110.047 106.531 110.089C106.299 110.153 106.151 110.153 106.151 110.153Z" fill="#065F99"/>
<path d="M98.6767 118.916C99.5747 118.916 100.303 117.838 100.303 116.509C100.303 115.179 99.5747 114.102 98.6767 114.102C97.7787 114.102 97.0508 115.179 97.0508 116.509C97.0508 117.838 97.7787 118.916 98.6767 118.916Z" fill="#4D4D4D"/>
<path d="M86.6396 136.273L90.1661 170.482C90.1661 170.482 90.2717 174.388 92.8056 174.177C95.3396 173.966 95.0228 170.165 95.0228 170.165L90.8418 136.273H86.6396Z" fill="#B3B3B3"/>
<path d="M92.7003 172.277C93.2834 172.277 93.7561 171.804 93.7561 171.221C93.7561 170.638 93.2834 170.165 92.7003 170.165C92.1172 170.165 91.6445 170.638 91.6445 171.221C91.6445 171.804 92.1172 172.277 92.7003 172.277Z" fill="#808080"/>
<path d="M170.915 143.706C170.915 143.706 172.287 143.094 172.857 142.461C173.977 141.236 172.9 138.406 172.139 137.055C171.781 136.4 170.619 134.521 168.296 133.444C166.755 132.726 166.417 133.148 162.996 132.451C161.18 132.092 159.66 131.776 157.802 130.952C155.648 129.981 153.916 128.714 153.726 128.587C151.847 127.193 150.981 126.581 150.981 126.581C150.981 126.581 150.706 130.635 152.016 133.761C153.093 136.379 154.465 138.026 156.725 140.75C159.427 144.023 161.075 145.185 161.814 145.67C164.707 147.571 166.396 147.528 166.945 147.486C167.346 147.465 169.648 147.296 170.366 145.86C170.809 145.058 170.915 143.706 170.915 143.706Z" fill="#31993D"/>
<path d="M170.746 143.453C170.746 143.453 170.683 143.368 170.598 143.178C170.493 143.009 170.345 142.756 170.134 142.439C169.712 141.827 169.036 140.982 168.043 140.159C167.917 140.053 167.79 139.948 167.663 139.863C167.537 139.758 167.389 139.673 167.241 139.589C166.945 139.42 166.629 139.251 166.291 139.103C165.636 138.786 164.918 138.491 164.158 138.195C163.419 137.899 162.638 137.604 161.835 137.308C161.033 137.012 160.23 136.717 159.428 136.442C159.027 136.295 158.604 136.168 158.203 135.999C157.802 135.83 157.401 135.64 157.042 135.45C156.282 135.07 155.543 134.647 154.867 134.183C154.191 133.718 153.6 133.169 153.114 132.599C152.861 132.325 152.65 132.008 152.46 131.733C152.27 131.438 152.101 131.142 151.953 130.847C151.362 129.664 151.171 128.587 151.066 127.848C151.024 127.468 151.003 127.172 150.981 126.982C150.981 126.771 150.981 126.666 150.981 126.666C150.981 126.666 151.003 126.771 151.024 126.982C151.045 127.172 151.087 127.468 151.15 127.848C151.298 128.587 151.573 129.622 152.185 130.741C152.333 131.015 152.523 131.311 152.713 131.586C152.924 131.86 153.135 132.156 153.368 132.409C153.853 132.958 154.445 133.444 155.099 133.887C155.754 134.331 156.493 134.711 157.232 135.091C157.612 135.281 157.992 135.471 158.372 135.64C158.752 135.788 159.175 135.936 159.576 136.062C161.202 136.632 162.807 137.245 164.306 137.878C165.045 138.195 165.763 138.512 166.439 138.85C166.776 139.019 167.093 139.187 167.389 139.378C167.537 139.483 167.684 139.568 167.811 139.673C167.938 139.779 168.065 139.884 168.191 139.99C169.163 140.856 169.796 141.764 170.176 142.397C170.366 142.714 170.514 142.988 170.598 143.157C170.704 143.347 170.746 143.453 170.746 143.453Z" fill="#24702D"/>
<path d="M160.483 152.639C160.483 152.639 160.441 152.47 160.42 152.132C160.398 151.815 160.377 151.35 160.483 150.801C160.525 150.527 160.61 150.231 160.715 149.936C160.779 149.788 160.842 149.64 160.905 149.492C160.99 149.344 161.074 149.197 161.159 149.049C161.37 148.774 161.581 148.479 161.855 148.225C162.109 147.972 162.405 147.74 162.721 147.528C163.038 147.317 163.376 147.169 163.714 147.022C164.052 146.874 164.389 146.768 164.727 146.684C164.896 146.641 165.065 146.599 165.234 146.578C165.403 146.557 165.572 146.536 165.72 146.515C166.036 146.494 166.332 146.494 166.607 146.494C167.156 146.515 167.62 146.62 167.916 146.705C168.064 146.747 168.19 146.789 168.275 146.81C168.359 146.832 168.402 146.853 168.402 146.853C168.402 146.853 168.233 146.81 167.916 146.747C167.599 146.684 167.156 146.62 166.607 146.599C166.332 146.599 166.036 146.599 165.741 146.641C165.593 146.663 165.424 146.684 165.276 146.726C165.107 146.768 164.96 146.789 164.791 146.832C164.136 147.022 163.46 147.296 162.869 147.676C162.573 147.866 162.278 148.077 162.024 148.331C161.771 148.563 161.539 148.838 161.349 149.112C161.264 149.26 161.18 149.387 161.095 149.534C161.032 149.682 160.947 149.83 160.884 149.957C160.757 150.231 160.673 150.527 160.61 150.78C160.483 151.308 160.462 151.773 160.483 152.089C160.462 152.448 160.483 152.639 160.483 152.639Z" fill="#31993D"/>
<path d="M171.527 146.726C171.527 146.726 171.57 146.684 171.654 146.621C171.739 146.557 171.865 146.473 172.013 146.367C172.33 146.156 172.794 145.86 173.407 145.586C173.702 145.459 174.04 145.311 174.399 145.206C174.758 145.1 175.159 144.995 175.561 144.91C175.962 144.826 176.384 144.762 176.828 144.741C177.271 144.699 177.714 144.72 178.158 144.741C178.601 144.783 179.045 144.868 179.467 144.973C179.889 145.1 180.291 145.248 180.65 145.459C180.734 145.501 180.84 145.565 180.924 145.607C181.009 145.649 181.093 145.713 181.177 145.776C181.262 145.839 181.346 145.881 181.431 145.945C181.515 146.008 181.579 146.072 181.663 146.114C181.959 146.367 182.212 146.621 182.423 146.874C182.846 147.381 183.12 147.866 183.289 148.204C183.374 148.373 183.437 148.521 183.479 148.605C183.521 148.711 183.543 148.753 183.543 148.753C183.543 148.753 183.521 148.711 183.479 148.605C183.437 148.521 183.374 148.373 183.268 148.204C183.078 147.866 182.782 147.402 182.339 146.937C182.128 146.705 181.853 146.452 181.579 146.219C181.494 146.156 181.431 146.114 181.346 146.05C181.262 146.008 181.177 145.945 181.093 145.903C181.009 145.86 180.924 145.797 180.84 145.755C180.755 145.713 180.671 145.67 180.565 145.607C180.206 145.417 179.805 145.269 179.404 145.164C179.003 145.058 178.559 144.973 178.137 144.952C177.714 144.91 177.271 144.91 176.849 144.931C176.426 144.952 176.004 145.016 175.603 145.079C175.202 145.164 174.821 145.227 174.463 145.332C174.104 145.438 173.766 145.544 173.47 145.67C172.858 145.924 172.372 146.177 172.055 146.367C171.717 146.599 171.527 146.726 171.527 146.726Z" fill="#31993D"/>
<path d="M184.155 148.352C184.155 148.352 184.261 148.077 184.493 147.697C184.62 147.507 184.768 147.296 184.937 147.085C185.021 146.979 185.127 146.874 185.232 146.768C185.338 146.663 185.443 146.578 185.57 146.473C186.035 146.114 186.563 145.839 186.985 145.712C187.196 145.649 187.365 145.607 187.492 145.586C187.618 145.565 187.682 145.543 187.682 145.543C187.682 145.543 187.618 145.565 187.492 145.607C187.365 145.649 187.217 145.734 187.006 145.818C186.626 146.008 186.119 146.283 185.676 146.642C185.57 146.726 185.443 146.832 185.359 146.916C185.253 147 185.148 147.106 185.063 147.191C184.873 147.381 184.704 147.571 184.578 147.74C184.451 147.908 184.324 148.056 184.261 148.162C184.198 148.289 184.155 148.352 184.155 148.352Z" fill="#31993D"/>
<path d="M164.39 146.726C164.39 146.726 164.263 146.684 164.031 146.578C163.799 146.473 163.482 146.346 163.102 146.156C162.722 145.966 162.278 145.734 161.814 145.459C161.349 145.185 160.885 144.868 160.42 144.53C159.956 144.192 159.533 143.833 159.132 143.453C158.731 143.094 158.393 142.735 158.097 142.418C157.802 142.102 157.591 141.827 157.422 141.637C157.274 141.447 157.189 141.32 157.189 141.32C157.189 141.32 157.295 141.426 157.464 141.595C157.633 141.785 157.886 142.017 158.182 142.313C158.478 142.608 158.858 142.946 159.238 143.284C159.639 143.622 160.082 143.981 160.526 144.319C160.969 144.657 161.434 144.973 161.877 145.269C162.321 145.565 162.743 145.818 163.123 146.008C163.503 146.219 163.799 146.388 164.031 146.494C164.263 146.663 164.39 146.726 164.39 146.726Z" fill="#31993D"/>
<path d="M171.464 144.234C171.464 144.234 171.591 144.213 171.781 144.15C171.886 144.129 171.992 144.087 172.14 144.023C172.266 143.981 172.414 143.897 172.562 143.833C172.71 143.749 172.879 143.664 173.026 143.538C173.174 143.411 173.322 143.263 173.47 143.094C173.597 142.925 173.723 142.735 173.808 142.524C173.892 142.334 173.956 142.102 173.998 141.89C174.061 141.447 174.019 140.982 173.913 140.56C173.808 140.138 173.681 139.737 173.554 139.42C173.407 139.103 173.259 138.85 173.153 138.681C173.048 138.512 172.963 138.406 172.963 138.406C172.963 138.406 173.048 138.491 173.174 138.639C173.301 138.807 173.491 139.04 173.66 139.356C173.744 139.504 173.829 139.694 173.892 139.884C173.977 140.074 174.04 140.286 174.103 140.497C174.209 140.94 174.272 141.426 174.209 141.912C174.167 142.144 174.103 142.397 173.998 142.608C173.892 142.82 173.766 143.031 173.618 143.2C173.47 143.369 173.301 143.516 173.132 143.643C172.963 143.77 172.794 143.854 172.625 143.939C172.287 144.087 172.013 144.15 171.802 144.192C171.591 144.234 171.464 144.234 171.464 144.234Z" fill="#31993D"/>
<path d="M96.353 120.838C96.353 120.838 96.2685 120.88 96.0996 120.901C95.9307 120.943 95.6984 120.985 95.4027 120.943C95.2549 120.922 95.1071 120.901 94.9382 120.838C94.8537 120.816 94.7693 120.774 94.7059 120.732L94.6426 120.711H94.6214L94.6003 120.69L94.5792 120.669L94.4736 120.605C94.3258 120.5 94.178 120.352 94.0513 120.204C93.9246 120.056 93.8401 119.866 93.7557 119.697C93.6079 119.338 93.5445 118.937 93.5234 118.578C93.5023 118.409 93.5234 118.219 93.5445 118.05C93.5656 117.881 93.5867 117.733 93.629 117.586C93.6923 117.311 93.7979 117.079 93.8824 116.931C93.9668 116.783 94.0091 116.699 94.0091 116.699C94.0091 116.699 93.9668 116.783 93.9246 116.952C93.8613 117.1 93.7979 117.332 93.7557 117.607C93.7346 117.733 93.7134 117.902 93.7134 118.05C93.7134 118.219 93.7134 118.367 93.7346 118.557C93.7768 118.895 93.8401 119.275 93.9668 119.613C94.0302 119.782 94.1147 119.951 94.2202 120.077C94.3258 120.225 94.4525 120.352 94.5792 120.436L94.6848 120.521L94.7059 120.542C94.7059 120.542 94.727 120.542 94.7059 120.542H94.727L94.7693 120.563C94.8326 120.605 94.9171 120.647 94.9804 120.669C95.1282 120.732 95.276 120.774 95.4027 120.795C95.6773 120.838 95.9095 120.838 96.0785 120.816C96.2685 120.859 96.353 120.838 96.353 120.838Z" fill="#C69C6D"/>
<path d="M92.595 120.141C92.595 120.141 92.5105 120.12 92.3838 120.078C92.2572 120.035 92.0671 119.972 91.8348 119.845C91.6237 119.719 91.3914 119.55 91.2013 119.296C91.1169 119.17 91.0113 119.043 90.948 118.874L90.9057 118.747C90.8846 118.705 90.8846 118.663 90.8635 118.642C90.8424 118.557 90.8213 118.473 90.8213 118.388C90.779 118.05 90.8213 117.712 90.9057 117.417C90.9902 117.121 91.1169 116.847 91.2436 116.657C91.3703 116.446 91.5181 116.298 91.6237 116.213C91.7292 116.108 91.7926 116.065 91.7926 116.065C91.7926 116.065 91.7504 116.129 91.6659 116.234C91.5814 116.34 91.4759 116.509 91.3703 116.72C91.2647 116.931 91.1591 117.185 91.0958 117.459C91.0324 117.755 90.9902 118.05 91.0324 118.346C91.0324 118.43 91.0535 118.494 91.0746 118.557C91.0746 118.599 91.0958 118.642 91.1169 118.663L91.1591 118.768C91.2013 118.916 91.2858 119.043 91.3703 119.148C91.4547 119.254 91.5392 119.381 91.6448 119.465C91.7292 119.55 91.8348 119.634 91.9404 119.719C92.1305 119.845 92.2994 119.951 92.4261 120.014C92.5105 120.12 92.595 120.141 92.595 120.141Z" fill="#C69C6D"/>
<path d="M95.0651 103.1C95.0651 103.1 95.044 103.142 95.0018 103.184C94.9596 103.247 94.9173 103.332 94.8751 103.416C94.8329 103.522 94.7906 103.649 94.7906 103.775C94.7906 103.839 94.7906 103.902 94.8117 103.944C94.8329 103.986 94.854 104.029 94.9173 104.05C95.0229 104.134 95.1707 104.198 95.2974 104.282C95.4241 104.345 95.5297 104.409 95.6353 104.472C95.8253 104.599 95.952 104.683 95.952 104.683C95.952 104.683 95.8042 104.662 95.5719 104.578C95.4664 104.536 95.3397 104.493 95.213 104.43C95.0863 104.367 94.9384 104.303 94.8117 104.219C94.7695 104.198 94.7484 104.177 94.7062 104.134C94.6851 104.113 94.6639 104.092 94.6639 104.071C94.6639 104.05 94.6428 104.05 94.6428 104.029L94.6217 103.986C94.6006 103.902 94.6006 103.796 94.6006 103.733C94.6217 103.649 94.6428 103.585 94.6639 103.522C94.685 103.459 94.7273 103.395 94.7484 103.353C94.8118 103.247 94.8962 103.184 94.9384 103.142C95.0229 103.121 95.0651 103.1 95.0651 103.1Z" fill="#C69C6D"/>
<path d="M93.3766 103.733C93.3766 103.733 93.3554 103.755 93.3132 103.818C93.271 103.86 93.2287 103.945 93.2076 104.05C93.1865 104.156 93.1654 104.261 93.1865 104.388C93.1865 104.451 93.2076 104.515 93.2499 104.557C93.271 104.62 93.3132 104.663 93.3554 104.705C93.4399 104.789 93.5455 104.874 93.6722 104.937C93.7778 105 93.9045 105.064 93.9889 105.127C94.0312 105.148 94.0734 105.19 94.1156 105.212C94.1579 105.233 94.179 105.254 94.2212 105.275C94.2846 105.317 94.3057 105.338 94.3057 105.338C94.3057 105.338 94.2635 105.338 94.2001 105.317C94.179 105.317 94.1368 105.296 94.0945 105.296C94.0523 105.275 94.0101 105.275 93.9467 105.254C93.8411 105.212 93.7144 105.169 93.5877 105.106C93.461 105.043 93.3343 104.958 93.2076 104.853C93.1443 104.789 93.102 104.705 93.0809 104.641C93.0598 104.557 93.0387 104.494 93.0387 104.409C93.0176 104.261 93.0598 104.113 93.1232 104.008C93.1865 103.902 93.271 103.839 93.3132 103.797C93.3343 103.755 93.3766 103.733 93.3766 103.733Z" fill="#C69C6D"/>
</svg>