<svg width="137" height="163" viewBox="0 0 137 163" fill="none" xmlns="http://www.w3.org/2000/svg">
<path d="M27.7451 67.6048C28.8295 65.2811 29.5654 63.1898 30.1076 61.4858C31.0758 58.3875 31.5405 56.8384 31.2694 55.4054C31.1919 55.0569 31.192 55.1343 28.4422 49.7124C27.9775 48.8216 27.3966 47.6985 26.7769 46.1107C26.5058 45.491 26.4284 45.2974 26.3896 45.0263C26.3122 44.6003 26.3509 44.4454 26.2735 44.4066C25.8862 44.1355 23.8723 46.2656 23.7561 46.4205C20.4255 49.9835 17.0561 49.2089 13.8804 52.191C10.3949 55.4829 9.34923 61.447 10.9758 64.7777C12.1764 67.295 14.2677 68.4956 14.2677 68.4956C15.0036 68.9216 15.7007 69.154 16.1654 69.2701C19.9995 68.728 23.8723 68.147 27.7451 67.6048Z" fill="#EEC795"/>
<path d="M104.278 68.2636C95.5251 62.6867 81.0407 66.2884 75.6187 74.2664C73.9147 76.7838 73.45 79.1849 73.1014 81.2375C69.5771 101.299 68.7639 114.97 67.6795 126.162C66.2852 140.685 64.7361 157.411 67.6794 162.795C77.3969 162.795 78.8633 162.795 81.5885 162.795C91.581 162.795 93.8549 162.795 104.085 162.795C115.65 162.795 115.206 162.795 124.991 162.795C126.076 160.471 126.159 148.237 125.965 144.752C125.656 139.136 123.874 135.418 122.093 131.003C119.072 123.49 117.135 116.79 116.283 113.382C113.96 103.855 115.935 102.615 114.347 92.6623C112.565 81.5086 111.171 72.6399 104.278 68.2636Z" fill="#EEEEEE"/>
<path d="M95.4429 48.7054C96.4498 48.9765 96.1787 50.9904 97.1082 54.6308C98.6573 60.595 101.02 61.1759 100.71 64.1967C100.206 68.9215 95.0169 71.8649 93.4677 72.7169C87.9296 75.8539 80.3001 76.1637 79.0221 73.6076C78.325 72.2522 80.1065 71.3227 80.5712 67.6822C81.1909 62.8799 78.5961 61.021 79.7967 58.6586C81.0747 56.1025 84.6377 57.8453 89.0914 54.9019C93.1579 52.2297 94.0099 48.3181 95.4429 48.7054Z" fill="#EEC795"/>
<path d="M73.2168 110.863C73.333 113.729 73.5266 116.827 73.9139 120.081C74.3012 123.489 74.8047 126.703 75.3856 129.685C80.4977 130.111 85.5711 130.537 90.6832 130.963C90.3734 128.252 90.1798 125.309 90.1023 122.133C90.0249 118.338 90.1798 114.814 90.4896 111.677C84.6804 111.367 78.9486 111.134 73.2168 110.863Z" fill="white"/>
<path d="M79.4876 60.7498C90.7168 60.7498 99.8199 48.4736 99.8199 33.3302C99.8199 18.1868 90.7168 5.91064 79.4876 5.91064C68.2584 5.91064 59.1553 18.1868 59.1553 33.3302C59.1553 48.4736 68.2584 60.7498 79.4876 60.7498Z" fill="#EEC795"/>
<path d="M91.4153 15.1294C90.3696 13.9289 86.2257 17.608 79.5257 19.0023C72.3997 20.4739 66.8616 18.4213 64.3056 17.4531C61.2073 16.2526 58.7287 15.3231 58.109 13.193C57.1021 9.63003 61.9819 5.25374 65.0801 3.23987C72.7483 -1.67861 81.6945 0.257799 85.2188 1.03236C88.7431 1.80693 92.7321 2.7364 96.3338 6.18321C100.09 9.78494 101.175 14.045 101.485 15.478C101.911 17.3757 102.569 20.4739 101.214 23.882C99.7806 27.5225 96.0627 31.3178 93.5841 30.582C90.8344 29.7687 89.3627 23.3785 90.602 18.5762C91.1442 16.7173 91.9188 15.7104 91.4153 15.1294Z" fill="#D9A666"/>
<path d="M97.3049 26.6296C99.1251 25.0031 100.481 25.1967 100.79 25.2742C103.308 25.7776 104.16 29.9215 104.082 32.4389C104.044 33.1747 103.927 35.9631 101.836 37.8608C101.294 38.3643 99.8997 39.6423 98.428 39.2163C97.4986 38.9452 96.9951 38.1319 96.7627 37.7446" fill="#EEC795"/>
<path d="M97.4951 31.1221C97.6113 30.5799 98.076 30.0764 98.657 29.8828C98.9281 29.8053 99.2766 29.8053 99.5477 29.8828C99.8575 29.9603 100.129 30.1152 100.322 30.3863L100.361 30.425L100.4 30.4637V30.5025C100.4 30.5412 100.438 30.5799 100.438 30.5799C100.477 30.6574 100.516 30.7348 100.516 30.8123C100.555 30.9672 100.555 31.1221 100.555 31.277C100.516 31.5868 100.4 31.8967 100.245 32.129C100.167 32.284 100.051 32.3614 99.935 32.4776C99.8188 32.5938 99.7026 32.6712 99.5865 32.7874C99.4703 32.8649 99.3541 32.9423 99.1992 33.0198C99.083 33.0972 98.9281 33.1747 98.7731 33.2134L98.7344 32.8261C98.8893 32.8649 99.0055 32.8649 99.1217 32.9423C99.2379 32.9811 99.3928 33.0198 99.509 33.0972C99.6252 33.1747 99.7413 33.2134 99.8575 33.2909C99.9737 33.3683 100.09 33.4845 100.167 33.562C100.284 33.6782 100.322 33.7943 100.4 33.9493C100.477 34.0654 100.516 34.2204 100.516 34.3365C100.593 34.6076 100.555 34.8787 100.477 35.1498C100.438 35.2273 100.438 35.266 100.4 35.3435L100.361 35.3822V35.4209V35.4597L100.322 35.5371C100.245 35.6533 100.167 35.7695 100.051 35.8857C99.8575 36.0793 99.6252 36.2342 99.3541 36.3117C99.083 36.3891 98.8506 36.4279 98.5795 36.4279C98.4633 36.4279 98.3084 36.3891 98.1922 36.3504C98.076 36.3117 97.9599 36.273 97.8437 36.2342C98.3471 36.3891 98.8506 36.3504 99.3153 36.1568C99.5477 36.0406 99.7414 35.9244 99.8963 35.7308C99.9737 35.6533 100.051 35.5371 100.09 35.4597L100.129 35.3822V35.3435V35.3048C100.167 35.266 100.167 35.1886 100.167 35.1498C100.206 34.9175 100.206 34.6851 100.129 34.4527C100.09 34.3365 100.051 34.2204 100.012 34.1429C99.9737 34.0267 99.8963 33.9493 99.8188 33.8718C99.7414 33.7944 99.6639 33.7169 99.5477 33.6394C99.4703 33.562 99.3541 33.5233 99.2379 33.4845C99.1217 33.4458 99.0055 33.4071 98.8893 33.3683C98.7731 33.3296 98.657 33.2909 98.5408 33.2909L97.8437 33.1747L98.502 32.9036C98.6182 32.8649 98.7344 32.7874 98.8506 32.7487C98.9668 32.6712 99.083 32.5938 99.1992 32.5163C99.3154 32.4389 99.3928 32.3614 99.509 32.2452C99.5864 32.1678 99.7026 32.0516 99.7413 31.9354C99.8963 31.703 99.9737 31.4707 100.012 31.2383C100.012 31.1221 100.012 31.0059 100.012 30.851C100.012 30.7735 99.9737 30.7348 99.9737 30.6961C99.9737 30.6574 99.935 30.6186 99.935 30.6186V30.5799L99.8963 30.5412C99.7801 30.3475 99.5477 30.1926 99.2766 30.1152C99.0055 30.0377 98.7731 29.999 98.502 30.0764C98.2309 30.1152 97.9986 30.2701 97.7662 30.425C97.7662 30.6186 97.6113 30.851 97.4951 31.1221Z" fill="#C69C6D"/>
<path d="M70.696 29.9218C72.1289 30.038 73.0197 31.0449 73.2908 31.3547C73.6393 31.742 74.4526 32.8651 74.4526 35.731C74.4526 37.9385 74.4526 41.9663 71.4705 44.5223C70.7347 45.1807 69.0307 46.6524 66.9006 46.1876C65.3128 45.8391 63.996 44.561 63.6087 43.0894C63.1053 41.2691 64.1509 39.6038 64.8868 38.3645C66.3197 36.0021 67.6364 36.0021 67.9075 34.2981C68.1786 32.7102 67.2105 31.9356 67.8301 30.9287C68.4498 30.038 69.844 29.8443 70.696 29.9218Z" fill="#EEB995"/>
<path d="M79.9906 36.4666C80.5895 36.4666 81.075 35.1835 81.075 33.6007C81.075 32.018 80.5895 30.7349 79.9906 30.7349C79.3917 30.7349 78.9062 32.018 78.9062 33.6007C78.9062 35.1835 79.3917 36.4666 79.9906 36.4666Z" fill="#8C6239"/>
<path d="M62.1742 35.6932C62.7731 35.6932 63.2586 34.4101 63.2586 32.8273C63.2586 31.2445 62.7731 29.9614 62.1742 29.9614C61.5753 29.9614 61.0898 31.2445 61.0898 32.8273C61.0898 34.4101 61.5753 35.6932 62.1742 35.6932Z" fill="#8C6239"/>
<path d="M62.1377 29.9228C62.1377 29.9228 62.3701 29.8066 62.7573 29.7292C62.951 29.6904 63.1834 29.6904 63.4157 29.6904C63.5319 29.6904 63.6868 29.6904 63.803 29.7292C63.9192 29.7679 64.0741 29.7679 64.1903 29.8066C64.4227 29.8841 64.6937 30.0003 64.8874 30.1164C65.081 30.2326 65.2747 30.3875 65.3909 30.5425C65.6619 30.8136 65.7781 31.0459 65.7781 31.0459C65.7781 31.0459 65.5458 30.891 65.236 30.6974C64.9261 30.5037 64.5001 30.2714 64.0354 30.1552C63.9192 30.1164 63.803 30.0777 63.6868 30.039C63.5706 30.0003 63.4544 30.0003 63.3383 29.9615C63.1059 29.9228 62.9123 29.8841 62.7186 29.8841C62.3701 29.9228 62.1377 29.9228 62.1377 29.9228Z" fill="#C69C6D"/>
<path d="M79.8379 30.697C79.8379 30.697 80.109 30.542 80.6125 30.4646C80.8448 30.4259 81.1546 30.4259 81.4645 30.4646C81.7743 30.5033 82.0841 30.5808 82.3939 30.697C82.5489 30.7744 82.7038 30.8131 82.8199 30.8906C82.9749 30.9681 83.091 31.0455 83.2072 31.1617C83.4396 31.3553 83.672 31.549 83.8269 31.7426C84.1367 32.1299 84.2529 32.4397 84.2529 32.4397C84.2529 32.4397 84.0205 32.2074 83.672 31.8975C83.4783 31.7426 83.2847 31.5877 83.0523 31.4328C82.9361 31.3553 82.7812 31.2779 82.665 31.2392L82.4714 31.1617L82.239 31.0842C81.6968 30.8519 81.0772 30.7744 80.6125 30.7357C80.1477 30.6582 79.8379 30.697 79.8379 30.697Z" fill="#C69C6D"/>
<path d="M72.7148 51.6112C72.7148 51.6112 73.2958 51.5725 74.1478 51.5338C74.5738 51.4951 75.0773 51.4563 75.5807 51.3789C75.8518 51.3401 76.1229 51.3014 76.394 51.2627C76.6651 51.224 76.9749 51.1465 77.2073 51.1078C77.4784 51.069 77.7495 50.9916 78.0206 50.9141C78.2917 50.8367 78.5628 50.7979 78.7952 50.7205C79.2986 50.5656 79.7634 50.4107 80.1894 50.2945C81.0027 49.9847 81.5449 49.791 81.5449 49.791C81.5449 49.791 81.4287 49.9072 81.235 50.0621C81.0414 50.217 80.7316 50.4494 80.3443 50.6818C79.957 50.9141 79.4923 51.1465 78.9888 51.3789C78.4854 51.5725 77.9044 51.7662 77.3235 51.8823C77.0137 51.9598 76.7426 51.9985 76.4327 52.0373C76.1229 52.076 75.8518 52.076 75.5807 52.076C75.0385 52.076 74.4963 52.0373 74.0703 51.9985C73.6443 51.9211 73.257 51.8436 73.0247 51.7662C72.8698 51.65 72.7148 51.6112 72.7148 51.6112Z" fill="#C69C6D"/>
<path d="M78.8308 23.6488C78.8308 23.6488 77.3204 25.8951 77.8626 26.6309C78.5984 27.6378 80.651 26.0887 83.4782 26.9407C86.1117 27.754 87.8545 29.6517 87.8545 29.6517C87.8545 29.6517 87.777 28.18 87.4672 27.5217C86.3053 25.1205 83.8267 24.2298 82.8973 23.9199C81.3481 23.3777 78.8308 23.6488 78.8308 23.6488Z" fill="#D9A666"/>
<path d="M67.4462 24.191C67.4462 24.191 68.2594 26.1661 67.7172 26.6696C67.0201 27.3667 65.6647 25.8175 63.3797 26.0886C61.2496 26.3597 59.623 27.599 59.623 27.599C59.623 27.599 59.8941 26.4372 60.2427 25.9725C61.482 24.2684 63.4959 23.9199 64.2704 23.8037C65.5872 23.61 67.4462 24.191 67.4462 24.191Z" fill="#D9A666"/>
<path d="M91.8051 70.0067C90.1785 70.8975 88.4358 71.8269 86.1895 71.672C85.2988 71.5946 83.13 71.2847 81.271 69.8518C80.3028 69.0772 80.0318 68.4576 79.2572 68.4576C78.1341 68.4188 76.856 69.7743 76.7399 71.0136C76.5075 73.3761 80.2254 75.8159 83.3237 76.7067C88.2421 78.1396 92.6959 75.9321 94.2837 75.1188C94.2837 75.1188 99.1248 72.7177 101.913 67.4506C103.153 65.0495 102.92 64.0813 102.61 63.5391C102.068 62.6096 100.674 62.0287 99.5508 62.2998C98.0404 62.6483 98.0791 64.2749 95.9878 66.7148C94.3999 68.5738 92.6184 69.5807 91.8051 70.0067Z" fill="#B3B3B3"/>
<path d="M104.271 67.101C102.064 68.3016 101.793 71.7484 101.56 74.2657C101.328 76.938 101.483 81.4304 104.852 88.2079C107.563 93.6685 109.228 94.2882 115.502 103.893C119.685 110.322 120.343 112.142 119.763 113.962C118.485 118.106 112.094 119.384 110.274 119.771C109.19 120.004 103.264 121.204 97.8811 118.029C94.6279 116.092 92.4592 114.349 92.4592 114.349C91.5297 115.782 89.6707 119.036 89.4771 123.567C89.3222 127.091 90.2517 129.841 90.91 131.39C90.91 131.39 93.621 133.404 103.69 133.133C110.274 132.978 113.527 132.9 117.633 131.777C120.498 131.003 123.79 130.112 127.315 127.711C129.174 126.471 136.803 121.282 136.997 114.156C137.074 111.096 135.719 110.709 131.187 101.569C129.135 97.4252 129.832 98.3547 125.185 88.2079C120.15 77.209 119.182 75.8148 118.02 74.4593C114.457 70.3154 107.873 65.1646 104.271 67.101Z" fill="#C4C4C4"/>
<path d="M77.7444 75.8155C78.2866 80.0756 76.815 83.5612 76.0017 85.304C73.5618 90.6484 71.5092 95.1797 66.3196 100.408C60.5878 106.178 52.2225 114.66 41.9208 113.188C33.4781 111.988 28.1336 104.707 26.2359 102.151C26.081 101.957 21.2787 94.4438 19.1487 87.8213C16.1666 78.604 15.818 69.5416 15.7793 69.4254C15.7793 69.4254 17.7157 69.4254 22.7504 68.4572C26.2359 67.7988 27.785 67.6826 27.785 67.6826C27.785 67.6826 28.9856 72.0589 29.9151 77.5583C30.1862 79.1849 31.0382 83.4063 33.0133 87.2404C34.2527 89.6415 37.8544 96.6126 43.2763 97.1161C47.5364 97.5033 51.022 93.7854 56.2503 88.2086C60.8977 83.2514 61.2075 81.1213 66.3196 76.5901C68.8757 74.3439 73.4843 70.2 76.0017 71.5554C77.3184 72.2525 77.5508 74.189 77.7444 75.8155Z" fill="#C4C4C4"/>
<path d="M90.7584 131.351C90.7584 131.351 88.9382 131.506 83.2839 131.196C78.559 130.925 76.3128 131.312 75.422 129.841C74.8798 128.95 75.3058 128.253 74.3764 126.743C73.6793 125.658 73.0983 125.465 72.9822 124.574C72.8272 123.567 73.5244 123.218 73.292 122.289C73.0596 121.359 72.2463 121.437 72.014 120.546C71.7041 119.462 72.7498 119.036 72.5949 117.719C72.4787 116.596 71.6654 116.518 71.6267 115.395C71.5879 114.582 71.9752 113.614 72.6723 113.188C73.3307 112.762 74.1053 112.955 74.3764 112.994C76.5839 113.42 78.4041 112.762 81.8897 112.684C84.9879 112.607 86.537 112.723 87.6601 112.994C88.0862 113.11 89.6353 113.536 91.4555 114.078C91.8815 114.195 92.2301 114.311 92.5012 114.388C91.5717 115.782 89.5966 119.036 89.4029 123.606C89.2093 127.13 90.1388 129.841 90.7584 131.351Z" fill="#EEC795"/>
<path d="M74.4521 126.859C74.4521 126.859 74.6071 126.898 74.8781 126.937C75.1492 127.014 75.5365 127.053 76.04 127.13C76.5047 127.208 77.0857 127.285 77.6666 127.363C78.2475 127.44 78.9059 127.479 79.5255 127.518C80.1452 127.556 80.8036 127.595 81.3845 127.595C81.9654 127.595 82.5463 127.634 83.0111 127.634C83.9793 127.634 84.6377 127.634 84.6377 127.634C84.6377 127.634 84.4828 127.673 84.2117 127.711C83.9406 127.75 83.5146 127.828 83.0498 127.866C82.5851 127.905 82.0042 127.944 81.3845 127.944C80.7649 127.944 80.1452 127.944 79.4868 127.905C78.8284 127.866 78.2088 127.789 77.5891 127.673C76.9695 127.556 76.4273 127.44 75.9626 127.324C75.4978 127.208 75.1105 127.053 74.8394 126.976C74.6071 126.898 74.4521 126.859 74.4521 126.859Z" fill="#C69C6D"/>
<path d="M72.9023 121.554C72.9023 121.554 73.0185 121.592 73.2122 121.67C73.4058 121.747 73.7156 121.864 74.0642 121.98C74.4127 122.096 74.8387 122.212 75.2648 122.328C75.4971 122.367 75.7295 122.444 75.9619 122.483C76.1943 122.522 76.4653 122.561 76.6977 122.599C77.6659 122.754 78.6728 122.754 79.4087 122.754C79.796 122.754 80.1058 122.716 80.2994 122.716C80.5318 122.716 80.648 122.677 80.648 122.677C80.648 122.677 80.1832 122.832 79.4087 122.987C79.0214 123.064 78.5954 123.103 78.1307 123.103C77.6659 123.103 77.1625 123.064 76.659 123.025C76.3879 122.987 76.1555 122.948 75.9231 122.87C75.6908 122.832 75.4584 122.754 75.226 122.677C74.7613 122.522 74.374 122.367 74.0255 122.212C73.3284 121.864 72.9023 121.554 72.9023 121.554Z" fill="#C69C6D"/>
<path d="M72.3633 116.945C72.3633 116.945 72.4408 116.984 72.5957 117.023C72.7506 117.061 72.9829 117.139 73.2153 117.216C73.7188 117.371 74.4159 117.565 75.1517 117.681C75.8488 117.797 76.5847 117.875 77.1269 117.914C77.398 117.914 77.6303 117.952 77.7852 117.952C77.9401 117.952 78.0563 117.952 78.0563 117.952C78.0563 117.952 77.7078 118.068 77.1269 118.107C76.5847 118.185 75.8101 118.146 75.0743 118.03C74.3384 117.914 73.6413 117.642 73.1378 117.371C72.6344 117.139 72.3633 116.945 72.3633 116.945Z" fill="#C69C6D"/>
<path d="M79.3711 114.739C79.3711 114.739 79.526 114.816 79.6809 115.049C79.8358 115.242 79.9907 115.591 80.0682 115.939C80.0682 116.017 80.0682 116.094 80.1069 116.21C80.1069 116.288 80.1069 116.365 80.1069 116.482C80.1069 116.636 80.0682 116.791 79.9907 116.908C79.9133 117.14 79.7584 117.295 79.7584 117.295C79.7584 117.295 79.7584 117.14 79.7584 116.869C79.7584 116.753 79.7584 116.598 79.7584 116.482C79.7584 116.404 79.7584 116.327 79.7196 116.249C79.7196 116.172 79.7196 116.094 79.6809 116.017C79.6422 115.707 79.5647 115.397 79.4873 115.165C79.4098 114.894 79.3711 114.739 79.3711 114.739Z" fill="#C69C6D"/>
<path d="M79.7588 119.656C79.7588 119.656 79.9137 119.656 80.0686 119.772C80.2235 119.888 80.4559 120.12 80.4946 120.392C80.5333 120.547 80.5333 120.701 80.4946 120.818C80.4559 120.973 80.4172 121.05 80.3397 121.166C80.2235 121.321 80.0686 121.399 80.0686 121.399C80.0686 121.399 80.1073 121.244 80.1461 121.089C80.1461 121.011 80.1848 120.895 80.1848 120.818C80.1848 120.779 80.1848 120.701 80.1848 120.663C80.1848 120.624 80.1848 120.547 80.1461 120.508C80.1073 120.314 80.0299 120.12 79.9137 119.927C79.7975 119.772 79.7588 119.656 79.7588 119.656Z" fill="#C69C6D"/>
<path d="M71.5459 107.186V110.284L92.8464 110.865V107.573L71.5459 107.186Z" fill="#FBB03B"/>
<path d="M92.7715 110.864C94.0495 110.244 95.3663 109.625 96.6443 109.005C95.3663 108.54 94.0883 108.076 92.8102 107.611C92.8102 108.657 92.8102 109.78 92.7715 110.864Z" fill="#FFDEB5"/>
<path d="M75.3011 110.981C75.3011 110.981 75.3398 110.865 75.3786 110.671C75.456 110.478 75.4947 110.168 75.5722 109.819C75.6109 109.471 75.6496 109.084 75.6496 108.619C75.6496 108.387 75.6109 108.193 75.5722 107.961C75.5335 107.728 75.4947 107.496 75.4173 107.302C75.3011 106.837 75.1462 106.411 74.9138 106.063C74.8751 105.985 74.7976 105.869 74.7589 105.83C74.7202 105.753 74.604 105.714 74.6427 105.714C74.6427 105.714 74.5653 105.753 74.5265 105.83C74.4878 105.908 74.4491 105.985 74.4491 106.063C74.3716 106.411 74.2942 106.682 74.2942 106.915C74.2554 107.108 74.2554 107.225 74.2554 107.225C74.2554 107.225 74.2554 107.109 74.2167 106.876C74.2167 106.682 74.178 106.373 74.2554 105.985C74.2554 105.908 74.2942 105.792 74.3329 105.676C74.3329 105.637 74.3716 105.559 74.4104 105.521C74.4491 105.482 74.4491 105.482 74.4878 105.443C74.5265 105.404 74.604 105.366 74.604 105.366C74.6815 105.366 74.7202 105.366 74.7589 105.366C74.7976 105.366 74.8364 105.404 74.8751 105.404C74.9525 105.443 74.9913 105.482 75.03 105.521C75.1075 105.598 75.1849 105.714 75.2624 105.792C75.5335 106.179 75.6884 106.644 75.8433 107.108C75.9207 107.341 75.9595 107.573 75.9982 107.844C76.0369 108.077 76.0369 108.348 76.0369 108.541C76.0369 109.006 75.9595 109.432 75.8433 109.781C75.7271 110.129 75.6109 110.4 75.4947 110.594C75.3398 110.865 75.3011 110.981 75.3011 110.981Z" fill="#666666"/>
<path d="M77.821 111.136C77.821 111.136 77.8598 111.02 77.9372 110.827C78.0147 110.633 78.1309 110.323 78.2083 109.975C78.2858 109.626 78.3632 109.2 78.3632 108.774C78.3632 108.542 78.3632 108.309 78.3245 108.077C78.2858 107.844 78.247 107.612 78.2083 107.38C78.0921 106.915 77.9372 106.45 77.7436 106.063C77.7048 105.986 77.6274 105.869 77.5886 105.792C77.5499 105.714 77.4725 105.676 77.4337 105.637C77.395 105.637 77.395 105.676 77.3563 105.714C77.3176 105.792 77.2788 105.869 77.2788 105.947C77.2014 106.295 77.1239 106.605 77.0852 106.799C77.0465 107.031 77.0465 107.147 77.0465 107.147C77.0465 107.147 77.0465 107.031 77.0077 106.799C77.0077 106.566 76.969 106.257 77.0465 105.908C77.0465 105.831 77.0852 105.714 77.1239 105.598C77.1627 105.559 77.1626 105.482 77.2401 105.443C77.2788 105.405 77.2788 105.405 77.3563 105.366C77.395 105.366 77.4337 105.327 77.4725 105.366C77.6661 105.405 77.7436 105.482 77.8597 105.598C77.9372 105.676 78.0147 105.792 78.0921 105.908C78.3632 106.334 78.5181 106.799 78.6731 107.302C78.7118 107.535 78.7892 107.806 78.7892 108.038C78.828 108.309 78.828 108.542 78.7892 108.774C78.7505 109.239 78.6343 109.665 78.5181 110.052C78.4019 110.401 78.2083 110.672 78.0921 110.865C77.8985 111.02 77.821 111.136 77.821 111.136Z" fill="#666666"/>
<path d="M80.6104 111.251C80.6104 111.251 80.6491 111.135 80.7266 110.941C80.804 110.747 80.8815 110.438 80.9589 110.089C81.0364 109.74 81.0751 109.314 81.0751 108.85C81.0751 108.617 81.0364 108.385 81.0364 108.153C80.9976 107.92 80.9589 107.688 80.9202 107.455C80.804 106.991 80.6491 106.526 80.4555 106.139C80.378 105.945 80.2231 105.751 80.1069 105.713C80.1069 105.713 80.1069 105.713 80.0682 105.713C80.0682 105.713 80.0294 105.751 79.9907 105.79C79.952 105.868 79.9133 105.945 79.8745 106.022C79.7583 106.371 79.7196 106.681 79.6809 106.875C79.6422 107.107 79.6422 107.223 79.6422 107.223C79.6422 107.223 79.6422 107.107 79.6034 106.875C79.6034 106.642 79.5647 106.332 79.6422 105.945C79.6422 105.868 79.6809 105.751 79.7196 105.635C79.7583 105.596 79.7584 105.519 79.8358 105.48C79.9133 105.403 79.9907 105.403 80.1069 105.403C80.3005 105.442 80.378 105.558 80.4555 105.635C80.5329 105.713 80.6104 105.829 80.6878 105.945C80.9589 106.371 81.1138 106.836 81.23 107.339C81.2687 107.572 81.3462 107.843 81.3462 108.075C81.3849 108.346 81.3849 108.579 81.3462 108.811C81.3075 109.276 81.23 109.74 81.0751 110.089C80.9589 110.438 80.804 110.747 80.6878 110.941C80.6878 111.135 80.6104 111.251 80.6104 111.251Z" fill="#666666"/>
<path d="M82.8187 111.252C82.8187 111.252 82.8575 111.135 82.9349 110.942C83.0124 110.748 83.1285 110.438 83.206 110.09C83.2835 109.741 83.3609 109.315 83.3996 108.85C83.3996 108.618 83.3997 108.386 83.3609 108.153C83.3222 107.921 83.2835 107.689 83.2447 107.456C83.1286 106.992 82.9736 106.527 82.78 106.139C82.6638 105.946 82.5476 105.752 82.4314 105.713C82.4314 105.675 82.3927 105.713 82.354 105.791C82.3153 105.868 82.2765 105.946 82.2378 106.023C82.1216 106.372 82.0829 106.682 82.0442 106.914C82.0054 107.146 82.0054 107.263 82.0054 107.263C82.0054 107.263 82.0054 107.146 81.9667 106.914C81.9667 106.682 81.928 106.372 82.0054 105.985C82.0054 105.868 82.0442 105.791 82.0829 105.675C82.1216 105.636 82.1216 105.559 82.1991 105.52C82.1991 105.481 82.3153 105.442 82.3153 105.442C82.3927 105.442 82.4315 105.442 82.4702 105.442C82.78 105.559 82.8962 105.791 83.0124 105.985C83.2835 106.411 83.4384 106.875 83.5546 107.379C83.5933 107.611 83.6707 107.882 83.6707 108.153C83.7095 108.424 83.6707 108.657 83.6707 108.889C83.632 109.354 83.5158 109.819 83.3609 110.167C83.206 110.516 83.0511 110.787 82.9349 110.981C82.8962 111.135 82.8187 111.252 82.8187 111.252Z" fill="#666666"/>
<path d="M85.2178 111.368C85.2178 111.368 85.2565 111.252 85.334 111.058C85.4115 110.864 85.4889 110.555 85.5664 110.167C85.6438 109.819 85.7213 109.393 85.7213 108.928C85.7213 108.463 85.6826 107.96 85.5664 107.495C85.4502 107.03 85.2953 106.565 85.1016 106.139C85.0629 106.023 84.9854 105.946 84.9467 105.868C84.908 105.791 84.8305 105.713 84.7918 105.675H84.7531C84.7531 105.675 84.7144 105.713 84.6756 105.752C84.6369 105.83 84.5982 105.907 84.5594 105.985C84.4432 106.333 84.4045 106.643 84.3658 106.875C84.3271 107.108 84.3271 107.224 84.3271 107.224C84.3271 107.224 84.3271 107.108 84.3271 106.875C84.3271 106.643 84.2883 106.333 84.3658 105.946C84.3658 105.83 84.4045 105.752 84.4432 105.636C84.482 105.597 84.5207 105.52 84.5594 105.481C84.5982 105.481 84.6369 105.442 84.6369 105.442C84.6756 105.442 84.6756 105.442 84.6756 105.442C84.7144 105.442 84.7918 105.442 84.8305 105.481C84.9854 105.559 85.0629 105.636 85.1404 105.752C85.2178 105.83 85.2953 105.946 85.334 106.062C85.6051 106.488 85.76 106.992 85.8762 107.495C85.9537 107.766 85.9924 107.998 85.9924 108.27C86.0311 108.541 85.9924 108.773 85.9924 109.044C85.9536 109.548 85.8375 109.974 85.7213 110.361C85.6051 110.709 85.4502 111.019 85.334 111.213C85.2953 111.29 85.2178 111.368 85.2178 111.368Z" fill="#666666"/>
<path d="M86.9626 111.561C86.9626 111.561 87.0014 111.445 87.1176 111.252C87.195 111.058 87.3112 110.748 87.4274 110.361C87.5436 109.974 87.621 109.548 87.6598 109.083C87.6985 108.85 87.6598 108.618 87.6598 108.347C87.6598 108.115 87.621 107.844 87.5436 107.611C87.4274 107.108 87.2725 106.643 87.0788 106.217C86.9626 106.023 86.8465 105.791 86.7303 105.713C86.7303 105.713 86.6915 105.713 86.6915 105.675C86.6528 105.675 86.6916 105.675 86.6528 105.675C86.6528 105.675 86.6141 105.675 86.6141 105.713C86.5754 105.791 86.5366 105.868 86.4979 105.946C86.3817 106.294 86.343 106.643 86.3043 106.875C86.2655 107.108 86.2655 107.224 86.2655 107.224C86.2655 107.224 86.2655 107.108 86.2655 106.875C86.2655 106.643 86.2268 106.333 86.3043 105.907C86.343 105.791 86.343 105.713 86.4205 105.597C86.4205 105.559 86.4592 105.52 86.4979 105.52C86.4979 105.481 86.6141 105.442 86.6141 105.442C86.6916 105.442 86.7303 105.442 86.769 105.442C86.8077 105.442 86.8465 105.481 86.8852 105.481C87.1176 105.636 87.2725 105.868 87.3887 106.062C87.621 106.527 87.8147 107.03 87.9309 107.534C87.9696 107.805 88.0083 108.076 88.047 108.347C88.047 108.618 88.047 108.889 88.0083 109.122C87.9309 109.625 87.8147 110.09 87.6598 110.438C87.5048 110.787 87.3112 111.097 87.195 111.29C87.0401 111.484 86.9626 111.561 86.9626 111.561Z" fill="#666666"/>
<path d="M23.5244 45.3367C23.292 39.2177 22.6724 38.3269 22.0915 37.8622C21.2394 37.0876 20.4649 37.2038 15.2366 37.2038C9.07879 37.2038 7.56838 37.0489 6.60017 38.2494C5.82561 39.1789 5.90307 40.2633 5.9418 42.1223C6.09671 48.5899 5.28341 48.3575 5.82561 59.8211C5.90307 61.0991 5.94179 62.0673 6.60017 62.9968C8.22676 65.2817 11.9447 65.2043 14.7331 65.1268C18.4897 65.0494 20.6198 64.9719 22.0915 63.4615C23.0209 62.532 23.0984 61.5638 23.3695 54.2829C23.5631 49.7905 23.6019 48.009 23.5244 45.3367Z" fill="#094067"/>
<path d="M3.69703 54.0508C3.73576 52.9664 4.62652 52.2693 4.97507 51.9982C5.24617 51.8045 6.40801 50.9138 7.41494 51.3011C8.22824 51.6496 8.46061 52.6953 8.69298 53.8184C8.92535 54.8641 9.08026 55.6774 8.57679 56.2583C7.95714 57.0329 6.60165 56.9167 5.86581 56.6456C4.78142 56.297 3.61957 55.2901 3.69703 54.0508Z" fill="#EEC795"/>
<path d="M5.05108 59.3566C5.01235 58.4659 5.86437 57.8462 6.21293 57.6138C6.4453 57.4589 7.72334 56.5294 8.84646 57.1104C9.85339 57.6526 10.2407 59.2404 9.54356 60.3248C8.84645 61.3705 7.45224 61.4867 6.52276 61.0994C6.44531 61.0606 5.05108 60.4797 5.05108 59.3566Z" fill="#EEC795"/>
<path d="M4.97624 43.6707C4.66641 43.8256 3.31092 44.484 3.19474 45.8007C3.07855 47.1949 4.39531 48.0857 4.70514 48.3181C5.01496 48.5504 6.13808 49.325 7.02883 48.899C8.03576 48.4342 8.03576 46.7689 8.03576 46.0718C8.03576 45.336 8.03577 43.903 7.10629 43.3996C6.33173 43.0123 5.36352 43.477 4.97624 43.6707Z" fill="#EEC795"/>
<path d="M9.58435 50.6409H21.5901C21.7063 49.8663 22.2872 47.1166 20.3508 44.5218C19.9635 44.0183 18.3757 41.7721 15.5872 41.6946C12.5277 41.5785 10.6687 44.212 10.4364 44.5605C8.53869 47.2328 9.46816 50.2536 9.58435 50.6409Z" fill="#F2F2F2"/>
<path d="M20.2318 53.4312H10.085V57.8849H20.2318V53.4312Z" fill="white"/>
<path d="M20.2332 53.4688H14.8887V57.845H20.2332V53.4688Z" fill="#FFFAB7"/>
<path fill-rule="evenodd" clip-rule="evenodd" d="M17.557 47.1233C18.2928 46.0487 19.0289 44.9736 19.765 43.9082L20.0836 44.1283C19.3481 45.193 18.6125 46.2673 17.8766 47.3421C17.1408 48.4168 16.4047 49.4918 15.6686 50.5572L15.5248 50.7653L15.3615 50.5722C14.5094 49.5652 13.667 48.5679 12.8247 47.5707L12.8242 47.5701C11.982 46.5731 11.1399 45.576 10.2881 44.5694L10.5837 44.3192C11.4358 45.3262 12.2782 46.3235 13.1205 47.3208C13.909 48.2542 14.6974 49.1876 15.4937 50.1289C16.1814 49.1325 16.8691 48.1281 17.557 47.1233Z" fill="#094067"/>
<path fill-rule="evenodd" clip-rule="evenodd" d="M15.7769 45.9946V50.2547H15.3896V45.9946H15.7769Z" fill="#006837"/>
<path d="M15.5473 46.1498C16.0179 46.1498 16.3994 45.7684 16.3994 45.2978C16.3994 44.8273 16.0179 44.4458 15.5473 44.4458C15.0768 44.4458 14.6953 44.8273 14.6953 45.2978C14.6953 45.7684 15.0768 46.1498 15.5473 46.1498Z" fill="#094067"/>
<path d="M24.8047 54.9021C24.8047 54.9021 24.7659 54.7084 24.6885 54.3986C24.611 54.0888 24.4948 53.6241 24.3787 53.1206C24.2625 52.5784 24.1463 51.9587 23.9914 51.2616C23.9139 50.9131 23.8752 50.5645 23.7977 50.216C23.759 49.8674 23.7203 49.4801 23.6815 49.1316C23.6041 48.3957 23.5653 47.6599 23.6428 46.9241C23.6815 46.5755 23.7977 46.227 23.9914 45.9559C24.1463 45.6848 24.3787 45.4524 24.5723 45.2588C24.9983 44.8715 25.4243 44.6778 25.7341 44.5617C26.044 44.4455 26.1989 44.4067 26.1989 44.4067C26.1989 44.4067 26.044 44.4842 25.7341 44.6391C25.463 44.794 25.0758 45.0264 24.6885 45.4137C24.4948 45.6073 24.3399 45.8397 24.185 46.1108C24.0688 46.3819 23.9914 46.6917 23.9526 47.0015C23.8752 47.6599 23.9526 48.3957 24.0301 49.0929C24.0688 49.4414 24.1076 49.8287 24.1463 50.1772C24.185 50.3709 24.185 50.5258 24.2237 50.7194C24.2625 50.8744 24.2625 51.068 24.3012 51.2229C24.4174 51.92 24.4948 52.5397 24.5723 53.0819C24.6497 53.6241 24.6885 54.0888 24.7272 54.3986C24.8047 54.7084 24.8047 54.9021 24.8047 54.9021Z" fill="#C69C6D"/>
<path d="M19.4562 29.1479H9.96777V22.0607C10.5487 19.7757 12.64 18.2266 14.925 18.304C17.055 18.3815 18.9527 19.9306 19.4949 22.0607C19.4562 24.4231 19.4562 26.7855 19.4562 29.1479Z" fill="#4D4D4D"/>
<path d="M17.1751 29.1479H12.7988V37.2034H17.1751V29.1479Z" fill="#E6E6E6"/>
<path d="M8.16016 17.3351C8.16016 17.3351 8.18986 17.2653 8.27898 17.1956C8.33839 17.091 8.45722 16.9515 8.60575 16.7771C8.90281 16.4284 9.3484 15.9401 9.94252 15.4519C10.2396 15.2078 10.5663 14.9637 10.9228 14.7196C11.2793 14.4755 11.6952 14.2662 12.111 14.057C12.5269 13.8826 12.9725 13.6734 13.4478 13.5687C13.9231 13.4292 14.3984 13.3595 14.8737 13.2898C15.1113 13.2549 15.349 13.2549 15.6164 13.2549C15.7352 13.2549 15.854 13.2549 15.9728 13.2549L16.3293 13.2898C16.5669 13.2898 16.8046 13.3246 17.0422 13.3595C17.2799 13.3944 17.5175 13.4292 17.7255 13.499C18.1711 13.6036 18.587 13.7431 18.9731 13.9175C19.3593 14.0918 19.7158 14.2662 20.0425 14.4755C20.3693 14.6498 20.6664 14.8591 20.904 15.0334C21.1417 15.2078 21.3496 15.3822 21.5278 15.5565C21.7061 15.696 21.8249 15.8355 21.914 15.9053C22.0031 15.975 22.0328 16.0448 22.0328 16.0448C22.0328 16.0448 21.8249 15.9053 21.4684 15.6612C21.112 15.417 20.5773 15.1381 19.9237 14.8242C19.597 14.6847 19.2405 14.5452 18.8543 14.4057C18.4681 14.2662 18.0522 14.1616 17.6364 14.0918C17.4284 14.057 17.1908 14.0221 16.9828 13.9872C16.7749 13.9872 16.5372 13.9524 16.2996 13.9175H15.9431C15.854 13.9175 15.7055 13.9175 15.6164 13.9175C15.3787 13.9175 15.1708 13.9175 14.9331 13.9524C14.4875 13.9872 14.0122 14.0918 13.5666 14.1965C13.3587 14.2662 13.1211 14.3011 12.9131 14.3708C12.7052 14.4406 12.4972 14.5103 12.2893 14.6149C11.8734 14.7893 11.4872 14.9637 11.1308 15.1729C10.7743 15.3822 10.4178 15.5914 10.1207 15.7658C9.49692 16.1843 9.02163 16.5679 8.69486 16.8469C8.33839 17.1607 8.16016 17.3351 8.16016 17.3351Z" fill="#4D4D4D"/>
<path d="M5.71191 14.071C5.71191 14.071 5.77029 14.0121 5.85786 13.8941C5.94543 13.7761 6.09138 13.5991 6.29571 13.3927C6.50003 13.1862 6.73355 12.9502 7.02545 12.6553C7.1714 12.5373 7.34654 12.3898 7.49248 12.2423C7.66762 12.0949 7.84276 11.9474 8.04709 11.7999C8.45574 11.5049 8.89359 11.21 9.38981 10.915C9.65252 10.7676 9.88603 10.6201 10.1487 10.5021C10.4114 10.3841 10.7033 10.2366 10.9952 10.1187C11.1412 10.0597 11.2871 10.0007 11.4331 9.94169C11.579 9.88269 11.725 9.8532 11.8709 9.79421C12.0169 9.73522 12.1628 9.70572 12.338 9.64673C12.4839 9.61724 12.659 9.55824 12.805 9.52875C12.9509 9.49925 13.1261 9.44026 13.272 9.41077L13.7683 9.32228L14.2645 9.23379L14.7607 9.2043L15.2569 9.1748C15.4321 9.1748 15.578 9.1748 15.7531 9.1748H16.2494C16.4245 9.1748 16.5705 9.2043 16.7456 9.2043C17.0667 9.2043 17.3878 9.26329 17.7089 9.32228C18.0299 9.35178 18.3218 9.44026 18.6429 9.49925C18.9348 9.55825 19.2267 9.64673 19.5186 9.73522C19.8105 9.8237 20.0732 9.91219 20.3359 10.0302C20.8613 10.2366 21.3576 10.4431 21.7954 10.6791C22.2332 10.915 22.6127 11.151 22.963 11.3575C23.2841 11.5934 23.576 11.7999 23.8095 11.9769C24.043 12.1538 24.1889 12.3013 24.3057 12.4193C24.4225 12.5373 24.4808 12.5668 24.4808 12.5668C24.4808 12.5668 24.4225 12.5078 24.2765 12.4193C24.1598 12.3308 23.9554 12.2128 23.7219 12.0654C23.4884 11.9179 23.1965 11.7409 22.8462 11.5639C22.496 11.387 22.0873 11.1805 21.6495 11.0035C21.2116 10.7971 20.7154 10.6201 20.19 10.4431C19.9273 10.3546 19.6646 10.2956 19.3727 10.2071C19.0808 10.1482 18.8181 10.0597 18.5262 10.0007C17.9424 9.8827 17.3294 9.79421 16.7164 9.76471C16.5705 9.76471 16.3953 9.73522 16.2494 9.73522H15.7531C15.6072 9.73522 15.4321 9.73522 15.2861 9.73522L14.8191 9.76471L14.352 9.79421L13.885 9.8532L13.418 9.91219C13.272 9.94169 13.0969 9.97118 12.9509 10.0007C12.805 10.0302 12.659 10.0597 12.4839 10.0892C12.338 10.1187 12.192 10.1776 12.0461 10.2071C11.9001 10.2366 11.7542 10.2956 11.6082 10.3251C11.4623 10.3841 11.3163 10.4136 11.1704 10.4726C10.8785 10.5611 10.6158 10.6791 10.3531 10.7971C10.0904 10.915 9.82765 11.033 9.59413 11.151C9.09791 11.387 8.66006 11.6524 8.25141 11.9179C7.84275 12.1833 7.49248 12.4193 7.1714 12.6553C6.85031 12.8912 6.5876 13.0977 6.38327 13.3042C6.17894 13.4811 6.00381 13.6286 5.88705 13.7466C5.7703 14.0121 5.71191 14.071 5.71191 14.071Z" fill="#4D4D4D"/>
<path d="M26.1138 8.2979C26.1138 8.2979 26.0261 8.24637 25.88 8.14329C25.7339 8.04021 25.5002 7.88559 25.2372 7.7052C24.945 7.52481 24.6236 7.31866 24.2146 7.08673C24.01 6.98365 23.8055 6.8548 23.5425 6.75172C23.4256 6.70018 23.3088 6.62287 23.1919 6.57133C23.075 6.51979 22.9289 6.46826 22.812 6.39095C22.2861 6.15902 21.7017 5.92709 21.0881 5.69517C20.4453 5.48901 19.7733 5.28285 19.072 5.154C18.8967 5.12823 18.7214 5.07669 18.5461 5.05092C18.3708 5.02515 18.1663 4.99938 17.9909 4.97361C17.6111 4.8963 17.2313 4.87053 16.8514 4.84476L16.5592 4.819H16.267C16.0625 4.819 15.8872 4.79323 15.6827 4.79323H15.5366C15.5073 4.79323 15.4489 4.79323 15.3905 4.79323H15.0983L14.5139 4.819C13.725 4.84477 12.9653 4.92207 12.2056 5.05092C11.4459 5.17977 10.7155 5.36016 10.0142 5.56632C9.31295 5.77247 8.67013 6.0044 8.05654 6.2621C7.44294 6.5198 6.88779 6.80326 6.39107 7.06096C6.1281 7.18981 5.89435 7.34442 5.68982 7.47327C5.45607 7.60212 5.25153 7.73097 5.047 7.85982C4.84247 7.98867 4.66716 8.11752 4.52106 8.2206C4.34575 8.34944 4.19966 8.45252 4.08278 8.52983C3.81981 8.73599 3.61528 8.89061 3.46918 8.99369C3.32309 9.09677 3.26465 9.17408 3.26465 9.17408C3.26465 9.17408 3.32309 9.09677 3.43996 8.99369C3.55684 8.86484 3.73215 8.68445 3.99512 8.47829C4.11199 8.37521 4.25809 8.24636 4.40418 8.11752C4.55028 7.98867 4.72559 7.85982 4.90091 7.7052C5.07622 7.57635 5.28075 7.42174 5.48528 7.26712C5.68981 7.1125 5.92356 6.95788 6.18653 6.80326C6.4495 6.64864 6.68326 6.49403 6.97544 6.33941C7.26763 6.18479 7.5306 6.03017 7.85201 5.90132C8.46561 5.61786 9.13763 5.33439 9.83889 5.10246C10.1895 4.99938 10.5401 4.87054 10.92 4.79323C11.2998 4.71592 11.6797 4.58707 12.0595 4.53553C12.8192 4.38091 13.6666 4.3036 14.4555 4.27783H15.0398H15.332C15.3905 4.27783 15.4197 4.27783 15.5073 4.27783H15.6534C15.858 4.27783 16.0625 4.3036 16.267 4.3036L16.5592 4.32937L16.8514 4.35514C17.2605 4.40668 17.6403 4.43245 18.0202 4.50976C18.2247 4.53553 18.4 4.58707 18.5753 4.61284C18.7506 4.66438 18.9552 4.69015 19.1305 4.74169C19.861 4.8963 20.533 5.154 21.1758 5.38593C21.8186 5.64363 22.403 5.90132 22.8997 6.15902C23.4256 6.41672 23.8639 6.70018 24.273 6.95788C24.6528 7.21558 25.0035 7.4475 25.2664 7.65366C25.5294 7.85982 25.7339 8.01444 25.8508 8.14329C26.0553 8.24637 26.1138 8.2979 26.1138 8.2979Z" fill="#4D4D4D"/>
<path d="M0 5.71404C0 5.71404 0.0879547 5.62962 0.263868 5.48892C0.439781 5.34823 0.703652 5.12311 1.02616 4.84172C1.37798 4.58846 1.78845 4.27893 2.28687 3.91312C2.55074 3.74428 2.81461 3.57545 3.1078 3.40661C3.40098 3.23778 3.69418 3.0408 4.046 2.87197C4.72034 2.50616 5.42399 2.14034 6.24491 1.83081C6.45015 1.74639 6.65537 1.66198 6.8606 1.57756C7.06583 1.49314 7.27107 1.43686 7.50562 1.35244C7.9454 1.18361 8.38518 1.07105 8.82497 0.958491C9.73385 0.705237 10.7014 0.508262 11.6982 0.395705C12.1966 0.311287 12.695 0.311287 13.1935 0.255008C13.6919 0.226869 14.2196 0.22687 14.7181 0.19873H14.894C14.9819 0.19873 15.0112 0.19873 15.0992 0.19873L15.4803 0.226869L16.2426 0.255008C16.741 0.283148 17.2395 0.367567 17.7379 0.423846C18.2363 0.508264 18.7054 0.59268 19.2038 0.677098C19.6729 0.789655 20.142 0.902214 20.6111 1.04291C21.52 1.29616 22.3996 1.6057 23.1912 1.94337C23.3964 2.02779 23.5723 2.1122 23.7776 2.19662C23.9535 2.28104 24.1587 2.36546 24.3346 2.47802C24.7158 2.64685 25.0383 2.84383 25.3608 3.01266C26.0058 3.37847 26.5922 3.74429 27.0906 4.08196C27.589 4.41963 27.9995 4.7573 28.3513 5.01055C28.7031 5.29195 28.9377 5.51706 29.1136 5.65776C29.2895 5.8266 29.3775 5.91101 29.3775 5.91101C29.3775 5.91101 29.2895 5.8266 29.0843 5.6859C28.9084 5.5452 28.6152 5.34823 28.2633 5.09497C27.9115 4.84172 27.4717 4.56033 26.9733 4.25079C26.4456 3.94126 25.8592 3.60359 25.2142 3.29406C24.8917 3.12522 24.5398 2.95638 24.1587 2.81569C23.9828 2.73127 23.7776 2.64685 23.6016 2.56243C23.3964 2.47802 23.2205 2.42174 23.0153 2.33732C22.2237 2.02779 21.3734 1.77453 20.4645 1.52128C20.0248 1.40872 19.5557 1.3243 19.0866 1.21175C18.6175 1.12733 18.1484 1.04291 17.6499 0.986632C17.1808 0.930354 16.6824 0.874075 16.184 0.845936L15.4217 0.817795L15.0406 0.789656C14.9819 0.789656 14.894 0.789656 14.8646 0.789656H14.6887C14.1903 0.789656 13.6919 0.789655 13.2228 0.817795C12.7244 0.874073 12.2553 0.874073 11.7568 0.958491C10.7893 1.07105 9.85112 1.23989 8.94224 1.465C8.50246 1.57756 8.06268 1.69012 7.62289 1.83081C7.41766 1.88709 7.21243 1.97151 6.97788 2.02779C6.77265 2.1122 6.56742 2.16848 6.36219 2.2529C5.95172 2.3936 5.57058 2.56243 5.21876 2.70313C4.83761 2.84383 4.5151 3.01266 4.16328 3.1815C3.48894 3.49103 2.90256 3.8287 2.37483 4.1101C1.84709 4.41963 1.40731 4.70102 1.05548 4.92614C0.703653 5.17939 0.410469 5.37637 0.234556 5.48892C0.117281 5.65776 0 5.71404 0 5.71404Z" fill="#4D4D4D"/>
<path d="M79.6807 60.7114C79.6807 60.7114 79.9905 60.6727 80.5714 60.5952C81.1523 60.5178 81.9269 60.3628 82.8951 60.0917C83.8246 59.8206 84.909 59.4334 86.0321 58.9299C86.5743 58.6975 87.1552 58.3877 87.6974 58.0779C87.9685 57.923 88.2396 57.768 88.5107 57.5744C88.7818 57.3808 89.0529 57.2259 89.324 57.0322C89.8662 56.6449 90.3696 56.2576 90.8344 55.8316C91.2991 55.4056 91.7639 54.9796 92.1899 54.5149C92.3835 54.2825 92.5772 54.0501 92.7708 53.8565C92.9644 53.6241 93.1581 53.4305 93.313 53.1981C93.6616 52.7721 93.9714 52.3074 94.2425 51.9201C94.7847 51.1068 95.172 50.371 95.4431 49.8675C95.7142 49.364 95.8303 49.0542 95.8303 49.0542C95.8303 49.0542 95.7141 49.364 95.4818 49.9062C95.2494 50.4484 94.9009 51.1843 94.3974 52.0363C94.1263 52.4623 93.8552 52.927 93.5066 53.353C93.3517 53.5854 93.1581 53.8178 92.9644 54.0501C92.7708 54.2825 92.5772 54.5149 92.3835 54.7473C91.9575 55.212 91.5315 55.6767 91.028 56.1027C90.5633 56.5288 90.0211 56.9548 89.5176 57.3808C89.2465 57.5744 88.9754 57.7681 88.7043 57.923C88.4332 58.1166 88.1234 58.2715 87.8523 58.4264C87.2714 58.7363 86.7292 59.0461 86.1483 59.2785C85.0252 59.7819 83.902 60.1305 82.9338 60.3241C81.9656 60.5565 81.1523 60.6339 80.5714 60.7114C79.9905 60.7114 79.6807 60.7114 79.6807 60.7114Z" fill="#C69C6D"/>
<path d="M76.9736 113.15C76.9736 113.15 77.1673 113.111 77.4771 113.034C77.8256 112.956 78.2904 112.879 78.8713 112.801C79.4522 112.724 80.1106 112.646 80.8465 112.569C81.5823 112.53 82.3569 112.453 83.1314 112.453C83.906 112.453 84.6805 112.491 85.4164 112.569C86.1522 112.646 86.8106 112.801 87.3528 112.956C87.9337 113.111 88.3597 113.266 88.7083 113.343C89.0181 113.46 89.2117 113.537 89.2117 113.537C89.2117 113.537 89.0181 113.498 88.7083 113.421C88.3985 113.343 87.895 113.266 87.3528 113.15C86.7719 113.034 86.1135 112.956 85.4164 112.917C84.7193 112.879 83.9447 112.84 83.1701 112.84C82.3956 112.84 81.621 112.879 80.9239 112.917C80.1881 112.956 79.5297 112.956 78.9488 113.034C78.3678 113.072 77.9031 113.111 77.5546 113.15C77.1673 113.111 76.9736 113.15 76.9736 113.15Z" fill="#C69C6D"/>
<path d="M95.5596 108.734V109.509L96.644 109.005L95.5596 108.579V108.734Z" fill="black"/>
</svg>