<svg width="50" height="36.98" viewBox="0 0 62 46" fill="none" xmlns="http://www.w3.org/2000/svg">
<path d="M55.5649 0.691895H5.61507C4.12953 0.702664 2.70788 1.29993 1.65742 2.3546C0.606961 3.40927 0.0120725 4.83661 0.00134619 6.3281V40.1865C-0.015026 40.937 0.118083 41.6832 0.392859 42.3813C0.667636 43.0794 1.07854 43.7154 1.60147 44.2519C2.12439 44.7884 2.74879 45.2147 3.43801 45.5056C4.12724 45.7965 4.86741 45.9463 5.61507 45.9461H55.5649C56.3126 45.9463 57.0528 45.7965 57.742 45.5056C58.4312 45.2147 59.0556 44.7884 59.5785 44.2519C60.1015 43.7154 60.5124 43.0794 60.7871 42.3813C61.0619 41.6832 61.195 40.937 61.1787 40.1865V6.3281C61.1679 4.83661 60.573 3.40927 59.5226 2.3546C58.4721 1.29993 57.0505 0.702664 55.5649 0.691895V0.691895ZM5.94288 8.42625C6.15118 7.58556 6.68122 6.86123 7.41802 6.41038C7.85231 6.11212 8.367 5.95423 8.89316 5.95784H52.6966C53.1404 5.9548 53.5727 6.09948 53.9259 6.36924C54.3227 6.5937 54.6624 6.90735 54.9183 7.28564C55.1743 7.66392 55.3395 8.09657 55.401 8.54967C55.416 8.67263 55.416 8.79697 55.401 8.91993V9.45476C55.401 9.45476 55.401 9.45476 55.401 9.66046H55.0732L50.6478 12.2523L32.4544 22.9899C31.81 23.3739 31.073 23.5731 30.3237 23.5658C29.4489 23.5708 28.5927 23.3129 27.8651 22.8253L7.37704 10.689C7.0305 10.5138 6.72627 10.2647 6.48562 9.95912C6.24497 9.65355 6.07373 9.29889 5.98386 8.91993C5.96059 8.81147 5.96059 8.69928 5.98386 8.59081L5.94288 8.42625ZM55.524 21.262C55.524 26.1988 55.524 31.1356 55.524 35.8668C55.5868 36.52 55.5136 37.1791 55.309 37.8024C55.1045 38.4257 54.773 38.9994 54.3356 39.4871C53.8374 39.937 53.2542 40.2817 52.6207 40.5008C51.9872 40.7199 51.3163 40.8089 50.6478 40.7624H23.8085C19.7108 40.7624 15.6132 40.7624 11.5156 40.7624C10.7284 40.8432 9.93297 40.7607 9.17876 40.5201C8.42456 40.2795 7.72763 39.8859 7.13119 39.3637C6.65728 38.7974 6.3008 38.1418 6.08266 37.4353C5.86453 36.7289 5.78915 35.9858 5.86093 35.2497C5.86093 31.1356 6.06581 27.0216 5.86093 21.6734V21.262C5.74319 20.4878 5.83731 19.696 6.13324 18.9713C6.42917 18.2466 6.91576 17.6164 7.54095 17.148C9.22097 16.1195 11.1059 17.148 12.1303 17.8885L20.3255 22.5785C23.3167 24.2652 26.349 25.952 29.2993 27.721C29.722 28.0832 30.2596 28.2822 30.8154 28.2822C31.3711 28.2822 31.9087 28.0832 32.3315 27.721C35.5686 25.7874 38.8877 23.9361 42.0838 22.1259L49.5824 17.7239C50.1779 17.2251 50.9022 16.9061 51.671 16.8042C52.4399 16.7022 53.2218 16.8214 53.9259 17.148C54.5542 17.6103 55.0382 18.2428 55.3213 18.9715C55.6043 19.7001 55.6746 20.4947 55.524 21.262Z" fill="#0A57B5"/>
</svg>