<svg width="164" height="205" viewBox="0 0 164 205" fill="none" xmlns="http://www.w3.org/2000/svg">
<path d="M72.9337 147.385C72.6349 149.317 71.9577 150.751 71.3402 151.906C69.1094 156.129 67.974 158.22 66.4204 158.28C64.7472 158.34 62.8749 156.388 62.9745 154.834C63.0542 153.619 64.3489 153.599 65.5041 151.647C66.022 150.771 66.3009 149.417 66.8387 146.728C67.3964 143.979 67.3167 143.461 67.8944 143.003C69.0695 142.067 71.4797 142.405 72.5353 143.8C73.2922 144.776 73.1329 146.011 72.9337 147.385Z" fill="#E9CBA8"/>
<path d="M76.2606 122.009C74.7668 120.834 70.8628 122.646 68.5522 125.056C66.0226 127.745 65.6242 130.992 64.9669 136.35C64.4889 140.254 64.9271 141.429 65.2259 142.067C66.4409 144.596 69.2295 146.11 71.7392 146.309C72.8944 146.409 74.0099 146.489 74.7867 145.772C76.1013 144.556 74.9859 142.346 74.9261 138.203C74.9062 137.386 74.966 137.485 75.8623 130.893C76.8582 123.483 76.918 122.547 76.2606 122.009Z" fill="#2EC1FF"/>
<path d="M93.5094 111.133C95.7203 111.631 97.0548 112.945 98.9471 114.857C106.317 122.247 107.97 132.744 109.046 140.214C110.161 147.902 109.424 148.739 111.038 153.897C112.213 157.622 113.547 160.092 115.161 165.709C116.037 168.796 116.575 171.366 116.894 173.019C114.384 173.955 110.659 175.33 106.138 176.863C97.4532 179.831 93.0712 181.305 90.2029 181.504C84.1676 181.923 72.2764 178.716 72.2764 178.716C73.0731 177.501 74.0889 175.728 74.9255 173.398C75.9413 170.589 76.26 168.199 76.3795 166.625C77.0169 159.176 75.5231 149.934 75.4434 149.496C73.591 138.062 72.376 130.732 75.4434 123.861C78.8096 116.371 87.0359 109.639 93.5094 111.133Z" fill="#2EC1FF"/>
<path d="M75.3102 93.8578C74.7056 93.779 75.6519 90.4407 73.9434 86.4715C72.629 83.396 70.3947 81.556 69.5536 80.8463C66.4255 78.2965 65.1638 79.2428 61.7466 76.7456C58.4083 74.301 58.8289 72.8027 56.1214 71.2781C53.3351 69.701 50.8905 70.1216 47.079 70.1741C47.079 70.1741 41.4276 70.253 32.7006 68.5181C29.6514 67.9135 22.2125 66.3627 14.9049 60.7112C12.4866 58.8449 7.75514 54.7442 4.23281 47.9887C1.86707 43.4675 -0.603806 38.7623 0.132202 32.664C1.13107 24.4102 7.282 19.337 9.7266 17.3392C15.0889 12.9232 20.5827 11.6614 23.9736 10.8992C32.3589 9.05913 38.9829 10.5574 40.4024 10.8992C47.447 12.6077 52.0471 16.0775 53.1248 16.9187C59.5386 21.9393 62.2461 28.0376 63.797 31.7177C64.2964 32.8743 66.2941 37.6846 66.9513 44.3087C67.3719 48.6196 67.6873 52.1945 66.005 56.0848C65.0587 58.2666 64.5067 58.1614 63.4027 60.7374C62.4301 63.0506 60.6952 67.0987 62.0358 70.5947C62.2986 71.3044 62.5615 71.6461 68.0553 76.3513C72.0771 79.7948 73.5228 80.9777 75.0474 83.3434C76.6508 85.8406 76.8874 87.4178 76.9662 88.1275C77.2291 91.1241 75.8885 93.9367 75.3102 93.8578Z" fill="#C7D5DB"/>
<path d="M47.1577 64.2856C41.8299 64.2856 37.5108 59.9665 37.5108 54.6387C37.5108 49.3108 41.8299 44.9917 47.1577 44.9917C52.4856 44.9917 56.8047 49.3108 56.8047 54.6387C56.8047 59.9665 52.4856 64.2856 47.1577 64.2856Z" fill="#F2F2F2"/>
<path d="M49.7354 45.3336L49.3411 55.6114L43.3741 45.7279C44.1101 45.4387 45.2141 45.097 46.6073 45.0181C47.9216 44.9393 48.9993 45.1496 49.7354 45.3336Z" fill="#2E3192"/>
<path d="M43.3495 45.8328C45.3472 49.1711 47.345 52.5095 49.3164 55.8478C45.8467 53.7186 42.4032 51.5895 38.9334 49.4603C39.3277 48.9346 39.8534 48.3037 40.5369 47.6728C41.562 46.7528 42.5872 46.1745 43.3495 45.8328Z" fill="#FF7070"/>
<path d="M39.0091 49.3813C42.5314 51.5368 46.0538 53.6923 49.5498 55.8214C45.5543 55.6637 41.5326 55.5323 37.5371 55.3746C37.4319 54.6911 37.3531 53.5083 37.7211 52.1414C38.0365 50.8534 38.6148 49.9334 39.0091 49.3813Z" fill="#ED619F"/>
<path fill-rule="evenodd" clip-rule="evenodd" d="M44.8511 41.1242L42.7103 41.0235L42.7227 40.7609L45.0505 40.8705L46.2598 44.982L46.0076 45.0562L44.8511 41.1242Z" fill="#2E3192"/>
<path fill-rule="evenodd" clip-rule="evenodd" d="M38.5868 45.1233H34.1747V45.3862H38.4895L42.1326 48.5088L42.3037 48.3093L38.5868 45.1233Z" fill="#FF7070"/>
<path fill-rule="evenodd" clip-rule="evenodd" d="M35.1282 50.7715L31.5114 50.5373L31.5283 50.275L35.219 50.514L38.7979 53.0324L38.6466 53.2474L35.1282 50.7715Z" fill="#ED619F"/>
<path d="M42.7188 39.7346L42.6662 41.7849L32.8089 41.5746C32.8615 40.9174 32.9404 40.234 32.9929 39.5768C36.2261 39.6294 39.4856 39.682 42.7188 39.7346Z" fill="#2E3192"/>
<path d="M34.3037 44.1506L34.146 45.8855L26.6545 46.0432L26.8385 44.1506H34.3037Z" fill="#FF7070"/>
<path d="M31.5977 49.4866L31.3874 51.1952L23.7118 51.7735L23.8696 49.8809L31.5977 49.4866Z" fill="#ED619F"/>
<path fill-rule="evenodd" clip-rule="evenodd" d="M43.5962 24.1697C43.4845 20.9431 43.3728 17.7166 43.2677 14.4967L43.0049 14.5053C43.1101 17.7254 43.2218 20.9521 43.3335 24.1787L43.3335 24.1788C43.4452 27.4054 43.5569 30.6319 43.6621 33.8518L43.9248 33.8432C43.8197 30.6231 43.7079 27.3963 43.5962 24.1698L43.5962 24.1697Z" fill="#4D4D4D"/>
<path fill-rule="evenodd" clip-rule="evenodd" d="M16.1403 33.6627L48.5247 33.873L48.5264 33.6101L16.142 33.3998L16.1403 33.6627Z" fill="#4D4D4D"/>
<path d="M39.3773 33.715L40.1396 22.2543L36.5122 22.3069L35.8025 33.6625L39.3773 33.715Z" fill="#2E3192"/>
<path d="M31.7276 33.6368L32.7002 18.2332L28.7573 18.2594L27.995 33.6105L31.7276 33.6368Z" fill="#FF7070"/>
<path d="M25.2627 33.5845L25.5781 23.0701H21.7141L21.3987 33.5582L25.2627 33.5845Z" fill="#ED619F"/>
<path d="M81.0994 102.728C81.6173 102.648 81.7169 104.998 83.7884 107.11C85.5412 108.902 86.7164 108.464 88.1704 109.998C90.481 112.408 90.1424 116.153 90.0627 116.969C90.0229 117.507 89.5249 121.989 85.6806 124.638C82.7327 126.67 78.4104 127.188 77.4145 125.733C76.7771 124.797 78.0121 123.722 77.4145 121.551C76.8966 119.698 75.7414 119.579 75.5223 118.264C75.1637 116.113 77.9922 115.177 79.7051 111.99C82.0157 107.667 80.3425 102.847 81.0994 102.728Z" fill="#E9CBA8"/>
<path d="M61.2409 199.89C58.6515 200.846 56.082 201.782 53.2935 202.778C51.4411 203.436 49.1504 204.252 46.1826 204.272C45.7842 204.272 45.5651 204.292 45.2464 204.252C44.5294 204.193 40.2668 203.714 39.012 200.547C37.8766 197.679 40.0677 194.711 40.5258 194.134C40.964 193.576 42.3981 191.803 49.25 189.612C52.2975 188.636 54.8869 188.059 56.6796 187.72C57.1975 189.294 57.6158 190.628 57.9145 191.604C58.7511 194.293 58.9503 195.09 59.4682 196.345C60.0657 197.878 60.7429 199.054 61.2409 199.89Z" fill="#B3B3B3"/>
<path d="M57.3583 190.628C57.1592 191.424 56.9002 192.978 57.4181 194.631C57.8563 196.045 58.8323 197.479 59.1311 197.639C59.151 197.639 59.1908 197.679 59.1908 197.719C59.1908 197.918 58.0356 198.077 58.0356 198.077C57.8364 197.898 57.5575 197.619 57.2986 197.28C57.1392 197.061 56.6413 196.404 56.3226 195.368C56.1035 194.671 56.0636 193.874 55.964 192.341C55.9242 191.763 55.9242 191.265 55.9043 190.946C56.3823 190.847 56.8803 190.747 57.3583 190.628Z" fill="#1A1A1A"/>
<path d="M56.3221 198.695L54.649 199.372C54.0713 198.635 53.3543 197.559 52.8364 196.125C52.2588 194.512 52.1592 193.058 52.1592 192.062C52.7567 191.863 53.3543 191.663 53.9518 191.484C53.8124 192.321 53.6531 193.914 54.3303 195.707C54.888 197.161 55.7445 198.137 56.3221 198.695Z" fill="#1A1A1A"/>
<path d="M52.3597 200.288L50.4874 201.044C49.8699 200.228 49.1529 199.132 48.5752 197.698C47.9777 196.224 47.7187 194.87 47.6191 193.834C48.2764 193.555 48.9138 193.296 49.5711 193.017C49.611 194.073 49.6707 195.348 50.2683 196.901C50.8658 198.495 51.7422 199.63 52.3597 200.288Z" fill="#1A1A1A"/>
<path d="M59.8877 197.619C59.8877 197.619 59.5889 197.739 59.0711 197.938C58.5532 198.137 57.8162 198.436 56.9199 198.774C56.4618 198.934 56.0036 199.133 55.4857 199.332C54.9679 199.531 54.4301 199.75 53.8724 199.969C53.3146 200.189 52.737 200.408 52.1594 200.627C51.5817 200.846 50.9842 201.105 50.3866 201.324C50.0879 201.443 49.7293 201.503 49.4106 201.523C49.072 201.543 48.7533 201.523 48.4346 201.503C47.7973 201.443 47.1599 201.244 46.6221 200.965C46.0644 200.667 45.6062 200.268 45.2676 199.81C44.929 199.352 44.7099 198.854 44.5705 198.376C44.451 197.898 44.4111 197.46 44.4111 197.061C44.4111 196.663 44.451 196.324 44.5107 196.046C44.5705 195.767 44.6502 195.568 44.69 195.428C44.7497 195.289 44.7697 195.209 44.7697 195.209C44.7697 195.209 44.7497 195.289 44.7099 195.428C44.6701 195.568 44.6302 195.787 44.5904 196.065C44.5107 196.603 44.5107 197.42 44.7896 198.316C44.929 198.754 45.168 199.213 45.4867 199.631C45.8253 200.029 46.2635 200.388 46.7814 200.647C47.2993 200.906 47.8769 201.065 48.4745 201.125C48.7733 201.145 49.092 201.165 49.3907 201.145C49.7094 201.125 49.9684 201.065 50.2671 200.965C50.8647 200.766 51.4423 200.507 52.0399 200.288C52.6374 200.069 53.2151 199.87 53.7728 199.651C54.3305 199.452 54.8882 199.252 55.3862 199.073C55.904 198.894 56.402 198.715 56.8402 198.575C57.7564 198.276 58.5133 198.057 59.0511 197.878C59.5889 197.699 59.8877 197.619 59.8877 197.619Z" fill="#F2F2F2"/>
<path d="M57.5968 190.608C57.5968 190.608 56.8598 190.827 55.7444 191.146C55.1867 191.305 54.5493 191.505 53.8521 191.724C53.5135 191.843 53.155 191.943 52.7965 192.062C52.4379 192.182 52.0794 192.301 51.7009 192.441C51.3424 192.56 50.964 192.7 50.6254 192.819C50.2668 192.959 49.9282 193.078 49.5896 193.218C48.9124 193.477 48.2949 193.736 47.7571 193.955C46.6815 194.413 45.9844 194.712 45.9844 194.712C45.9844 194.712 46.1437 194.612 46.4425 194.433C46.7413 194.253 47.1596 194.014 47.6774 193.736C48.1953 193.457 48.8128 193.158 49.4701 192.879C49.8087 192.74 50.1473 192.58 50.5058 192.441C50.8644 192.301 51.2229 192.162 51.6014 192.042C51.9599 191.923 52.3383 191.803 52.6969 191.684C53.0554 191.564 53.4338 191.465 53.7725 191.365C54.131 191.266 54.4696 191.186 54.7883 191.106C55.107 191.027 55.4257 190.967 55.7045 190.907C56.2822 190.788 56.7602 190.708 57.0988 190.668C57.3976 190.628 57.5968 190.608 57.5968 190.608Z" fill="#F2F2F2"/>
<path d="M57.1389 189.114C57.1389 189.114 56.9397 189.214 56.6011 189.373C56.2625 189.513 55.7645 189.732 55.1669 189.951C54.5694 190.17 53.8523 190.409 53.0755 190.608C52.6971 190.708 52.2788 190.807 51.8804 190.907C51.4621 191.007 51.0438 191.086 50.6256 191.166C49.789 191.305 48.9325 191.445 48.1358 191.524C47.339 191.604 46.602 191.644 45.9647 191.664C45.3273 191.684 44.7895 191.664 44.411 191.664C44.2318 191.664 44.0724 191.644 43.9728 191.644C43.8732 191.644 43.8135 191.644 43.8135 191.644C43.8135 191.644 44.0326 191.624 44.3911 191.584C44.7696 191.564 45.2874 191.504 45.9248 191.445C46.5622 191.385 47.2992 191.285 48.076 191.186C48.4744 191.126 48.8727 191.066 49.291 191.007C49.7093 190.947 50.1276 190.867 50.526 190.787C50.9443 190.708 51.3625 190.628 51.7609 190.548C52.1593 190.469 52.5776 190.389 52.956 190.289C53.7328 190.11 54.4499 189.931 55.0474 189.752C55.6649 189.572 56.1629 189.433 56.5214 189.313C56.9198 189.174 57.1389 189.114 57.1389 189.114Z" fill="#F2F2F2"/>
<path d="M48.7347 191.405C48.7347 191.405 48.6351 191.445 48.4558 191.544C48.2765 191.624 48.0375 191.744 47.7387 191.883C47.5993 191.943 47.42 192.022 47.2607 192.102C47.0814 192.182 46.9221 192.261 46.7229 192.361C46.5436 192.461 46.3445 192.54 46.1652 192.64C45.966 192.739 45.7867 192.839 45.5876 192.939C45.3884 193.038 45.2091 193.138 45.0099 193.237C44.8307 193.337 44.6315 193.437 44.4522 193.536C44.0937 193.735 43.775 193.935 43.4762 194.094C42.9185 194.433 42.54 194.672 42.54 194.672C42.54 194.672 42.6197 194.592 42.7591 194.452C42.8986 194.313 43.0978 194.134 43.3567 193.915C43.6156 193.696 43.9343 193.476 44.2729 193.237C44.4522 193.118 44.6315 192.998 44.8107 192.899C45.0099 192.779 45.1892 192.68 45.3884 192.58C45.5876 192.48 45.7867 192.381 45.9859 192.281C46.1851 192.182 46.3843 192.102 46.5835 192.022C46.9619 191.863 47.3404 191.744 47.6591 191.644C47.9778 191.544 48.2566 191.485 48.4359 191.445C48.6351 191.405 48.7347 191.405 48.7347 191.405Z" fill="#F2F2F2"/>
<path d="M60.206 199.153C60.206 199.153 59.9271 199.272 59.4491 199.471C58.9511 199.671 58.254 199.969 57.4174 200.288C56.5609 200.607 55.5849 200.965 54.5093 201.344C53.9715 201.523 53.4138 201.702 52.8561 201.882C52.2785 202.061 51.7008 202.24 51.1232 202.399C50.5456 202.559 49.9679 202.738 49.3903 202.877C48.8127 203.037 48.235 203.156 47.6773 203.256C47.1196 203.355 46.542 203.375 46.0241 203.375C45.4863 203.356 44.9883 203.276 44.5501 203.156C44.1119 203.017 43.7136 202.858 43.3949 202.658C43.0762 202.479 42.8172 202.28 42.5981 202.101C42.399 201.921 42.2595 201.782 42.1599 201.662C42.0603 201.563 42.0205 201.503 42.0205 201.503C42.0205 201.503 42.0803 201.563 42.1799 201.643C42.2794 201.742 42.4388 201.862 42.6579 202.021C42.877 202.18 43.1359 202.34 43.4745 202.499C43.6339 202.579 43.8132 202.658 44.0123 202.718C44.2115 202.798 44.4107 202.838 44.6298 202.897C45.068 202.997 45.5461 203.037 46.044 203.037C46.5619 203.037 47.0798 202.977 47.6375 202.877C48.1952 202.778 48.7529 202.638 49.3106 202.479C49.8883 202.32 50.4659 202.16 51.0435 201.981C52.1988 201.643 53.3541 201.304 54.4297 200.965C54.9675 200.806 55.4853 200.627 55.9833 200.487C56.4812 200.328 56.9394 200.188 57.3776 200.049C59.0706 199.511 60.206 199.153 60.206 199.153Z" fill="#F2F2F2"/>
<path d="M95.7002 133.961C96.1782 134.976 97.0347 136.47 98.5485 137.884C101.357 140.474 104.644 141.051 106.715 141.41C108.03 141.629 109.942 141.828 112.292 141.609C112.292 141.609 111.296 136.789 109.046 134.777C106.396 132.407 102.612 131.212 99.1461 132.188C97.5725 132.626 96.4173 133.403 95.7002 133.961Z" fill="#1B6E91"/>
<path d="M70.6027 157.603C70.1645 157.424 69.6665 157.244 69.2084 156.806C68.6507 156.268 67.9336 155.133 68.3718 154.277C68.5909 153.878 69.069 153.52 69.5271 153.54C70.0051 153.579 70.0649 153.978 70.6624 154.177C71.021 154.296 71.2401 154.217 72.1563 154.038C73.3913 153.818 73.9888 153.699 74.1482 153.878C74.4669 154.217 73.9291 155.193 73.2917 156.308C72.5149 157.683 72.0966 157.822 71.8974 157.862C71.5189 157.961 71.1803 157.822 70.6027 157.603Z" fill="#E9CBA8"/>
<path d="M74.4681 85.5585C76.0217 84.9211 77.3164 84.0646 79.109 82.5109C82.1366 79.9016 83.6703 78.6069 83.3517 77.4716C83.0728 76.4358 81.5391 75.9976 80.822 75.8184C78.7306 75.2407 76.918 75.9578 74.9063 76.7545C72.0779 77.87 70.6039 79.2642 70.2653 79.6029C69.1698 80.6785 68.3531 81.4752 68.3332 82.6504C68.3133 84.2837 69.847 85.8373 71.4604 86.1759C71.7193 86.2158 72.5559 86.3552 74.4681 85.5585Z" fill="#A67C52"/>
<path d="M141.951 44.0684C141.951 44.0684 141.174 41.4193 141.552 38.1925C141.552 38.1925 141.672 37.0771 142.548 27.4366C142.907 23.4529 143.006 21.4611 142.947 20.266C142.767 17.1587 142.508 12.2588 139.162 8.7133C133.943 3.17599 125.08 4.96864 123.924 5.22758C122.371 5.56619 119.104 6.32309 116.256 9.01207C112.451 12.5974 111.774 17.3778 111.177 21.5606C110.619 25.5045 110.778 29.1097 110.978 33.4121C111.256 39.4274 109.982 44.2676 109.982 44.2676C108.109 43.7298 106.117 44.1879 104.803 45.5225C103.349 46.9964 102.811 49.4265 103.707 50.8008C104.504 52.0358 108.946 53.4101 107.591 52.8524C107.253 52.9122 104.444 53.4301 103.11 56.0394C102.851 56.5572 101.875 58.6487 102.911 60.8198C103.747 62.5527 105.361 63.2697 106.098 63.5088C107.074 63.8274 107.91 63.8075 108.448 63.7677C107.293 64.1661 106.476 65.0225 106.396 65.9587C106.317 67.0542 107.253 67.851 107.791 68.3091C109.125 69.4444 110.679 69.6436 111.137 69.7034C119.921 70.759 127.111 69.1058 127.111 69.1058C135.258 67.2335 139.341 66.2774 143.743 63.1303C145.157 62.1145 151.83 57.354 150.814 53.3703C150.555 52.3345 149.579 50.761 148.225 50.4821C146.691 50.1634 145.038 51.4781 145.038 51.4781C147.289 50.6016 148.564 48.7492 148.305 47.1956C148.046 45.7216 146.432 44.905 145.835 44.6062C144.162 43.7298 142.548 43.9489 141.951 44.0684Z" fill="#754C24"/>
<path d="M126.116 46.5583C126.793 45.7616 128.327 45.8811 129.203 45.9607C131.115 46.1201 132.569 46.9965 133.585 47.7534C136.194 49.6656 137.41 51.757 138.465 53.2309C142.827 59.2463 149.6 61.7759 150.516 62.0946C153.265 63.0706 155.017 63.0706 159.081 64.8832C161.451 65.9389 163.025 66.9149 163.662 68.6677C163.762 68.9465 164.299 70.5201 163.562 72.0538C162.686 73.9062 160.575 74.444 159.778 74.6432C156.71 75.4399 154.021 74.2249 150.018 72.3526C142.509 68.847 138.764 67.0941 138.465 66.875C133.565 63.2499 131.394 59.3857 128.008 53.3305C125.976 49.7054 125.259 47.5542 126.116 46.5583Z" fill="#68778A"/>
<path d="M120.039 45.1644C120.039 45.1644 117.809 46.6383 116.753 48.7497C115.598 51.0602 115.558 53.2114 115.558 54.7252C115.538 62.8519 115.518 66.9152 115.558 67.2738C115.916 71.0782 116.514 74.6436 116.554 78.5277C116.594 81.5752 116.255 82.7902 116.056 83.4077C115.578 84.8816 115.08 85.3597 115.259 86.0966C115.598 87.471 117.888 87.9092 121.135 88.5864C126.135 89.6222 131.234 90.2197 136.273 91.0762C137.607 91.2953 139.44 91.6339 140.655 90.5783C141.651 89.7218 141.77 88.3673 141.85 87.1922C142.189 81.6548 141.452 77.4321 141.452 77.4321C140.715 73.2294 140.336 71.118 139.46 67.9709C139.46 67.9311 139.44 67.8912 139.42 67.8315C137.468 60.88 135.476 56.9162 135.476 56.9162C134.241 54.4463 132.369 50.8013 128.525 47.4351C127.23 46.2997 126.035 45.4632 125.159 44.9254C125.218 45.2042 125.298 45.6225 125.338 46.1404C125.378 46.8176 125.398 47.1363 125.238 47.4351C124.78 48.3115 123.147 48.2517 122.948 48.2318C122.649 48.2119 121.015 48.1322 120.298 46.8176C119.96 46.1404 120 45.4831 120.039 45.1644Z" fill="#7A8BA1"/>
<path d="M146.014 186.046C146.292 186.086 148.264 186.385 150.276 185.588C151.571 185.07 151.79 184.533 151.85 184.294C151.969 183.816 151.73 183.338 151.491 182.939C150.396 181.266 148.464 180.35 147.727 180.031C146.93 179.673 144.241 178.338 141.632 177.621C141.353 177.541 140.636 177.342 139.739 176.964C138.883 176.585 138.226 176.207 137.807 175.928C137.748 175.37 137.708 174.812 137.668 174.235C137.628 173.558 137.588 172.92 137.568 172.283C135.477 172.502 133.385 172.721 131.294 172.94L132.131 181.903C132.131 181.903 137.907 184.712 146.014 186.046Z" fill="#A3A3A3"/>
<path d="M119.541 37.3751L120.139 46.9558C120.139 46.9558 121.931 48.5493 123.425 48.3501C124.919 48.1509 125.576 47.2546 125.576 47.2546L124.182 39.4864L119.541 37.3751Z" fill="#EEC795"/>
<path d="M127.51 42.0762C134.771 42.0762 140.657 33.8986 140.657 23.8111C140.657 13.7235 134.771 5.5459 127.51 5.5459C120.25 5.5459 114.364 13.7235 114.364 23.8111C114.364 33.8986 120.25 42.0762 127.51 42.0762Z" fill="#EEC795"/>
<path d="M113.966 18.8716C114.842 14.7485 115.718 11.8005 117.949 9.70911C119.324 8.41441 120.24 8.31482 121.634 6.52217C122.769 5.06812 122.909 4.19172 123.427 3.33523C125.419 0.028775 132.051 -0.787878 136.971 0.745837C142.509 2.45882 145.098 6.8807 145.735 8.01604C146.592 9.52984 149.082 13.9119 147.229 16.8797C146.213 18.4931 144.381 18.9712 141.254 19.7679C139.202 20.2858 136.553 20.963 133.286 20.1663C131.673 19.7679 127.928 18.8516 126.713 15.7842C126.255 14.6289 126.315 13.5135 126.415 12.7965C124.044 13.5534 122.65 14.7485 121.933 15.4854C121.933 15.4854 119.941 17.4972 119.045 20.2658C118.985 20.4252 118.746 21.2418 118.328 22.3374C118.208 22.676 118.089 22.9548 118.029 23.1341C117.949 22.9747 117.391 21.8593 116.196 21.5805C115.559 21.4211 115.021 21.5805 114.902 21.6203C114.304 21.7996 113.926 22.1581 113.766 22.3174C113.607 22.4768 113.507 22.6162 113.428 22.7158C113.487 21.7996 113.627 20.465 113.966 18.8716Z" fill="#754C24"/>
<path d="M118.208 23.9501C117.869 22.6156 116.913 21.6595 115.818 21.5201C114.105 21.3209 113.029 23.2928 112.83 23.6713C112.153 24.9062 111.854 26.9379 113.089 28.5513C114.224 30.0252 116.256 30.5829 118.068 29.9057" fill="#EEC795"/>
<path d="M116.455 24.2496C116.455 24.2496 116.435 24.2098 116.396 24.15C116.356 24.0902 116.296 24.0106 116.216 23.9309C116.137 23.8512 116.017 23.7516 115.858 23.6919C115.718 23.6321 115.519 23.6321 115.34 23.6919C115.161 23.7516 115.001 23.8911 114.862 24.0703C114.722 24.2496 114.623 24.4687 114.583 24.7077C114.563 24.8272 114.563 24.9467 114.603 25.0463C114.603 25.0662 114.643 25.1858 114.663 25.2057C114.683 25.2455 114.723 25.3053 114.742 25.3451C114.882 25.5443 115.101 25.6837 115.36 25.8829C115.42 25.9427 115.499 25.9825 115.559 26.1418C115.559 26.1618 115.579 26.1817 115.579 26.2016C115.579 26.2215 115.579 26.2414 115.579 26.2613V26.3012V26.3211C115.579 26.341 115.599 26.3012 115.559 26.3609L115.539 26.3809V26.4008C115.539 26.4207 115.519 26.4207 115.519 26.4406C115.499 26.4605 115.479 26.4805 115.459 26.5004C115.44 26.5203 115.4 26.5402 115.38 26.5601C115.28 26.6 115.201 26.6199 115.121 26.6199C115.041 26.6398 114.981 26.6398 114.922 26.6597C114.802 26.6796 114.683 26.7195 114.603 26.7792C114.583 26.7991 114.563 26.8191 114.543 26.839L114.523 26.8589C114.523 26.8589 114.503 26.8788 114.523 26.8589V26.8788L114.483 26.9187C114.464 26.9585 114.444 26.9983 114.424 27.0581C114.364 27.2573 114.364 27.5162 114.444 27.7154C114.523 27.9146 114.683 28.054 114.842 28.1536C115.021 28.2532 115.201 28.293 115.38 28.293C115.539 28.3129 115.698 28.293 115.818 28.2731C115.938 28.2532 116.037 28.2133 116.097 28.1934C116.157 28.1735 116.196 28.1536 116.196 28.1536C116.196 28.1536 116.157 28.1735 116.117 28.2133C116.057 28.2532 115.977 28.293 115.838 28.3528C115.718 28.3926 115.559 28.4524 115.38 28.4524C115.201 28.4723 114.981 28.4524 114.762 28.3528C114.643 28.3129 114.543 28.2532 114.444 28.1536C114.384 28.1138 114.344 28.054 114.304 28.0142L114.284 27.9743L114.244 27.9146C114.225 27.8947 114.205 27.8548 114.185 27.815C114.065 27.556 114.005 27.2573 114.085 26.9386C114.105 26.8589 114.145 26.7792 114.185 26.6996L114.205 26.6597V26.6398C114.225 26.6199 114.225 26.6199 114.225 26.6199L114.244 26.6C114.264 26.5601 114.304 26.5402 114.344 26.5004C114.483 26.3809 114.643 26.3211 114.802 26.2813C114.882 26.2613 114.962 26.2414 115.021 26.2414C115.081 26.2215 115.161 26.2215 115.181 26.2016L115.161 26.2215V26.2414C115.161 26.2414 115.161 26.2414 115.161 26.2215L115.181 26.2016C115.161 26.2613 115.181 26.2215 115.161 26.2414V26.2613C115.161 26.2813 115.141 26.2215 115.081 26.1817C114.882 26.0223 114.603 25.8431 114.404 25.5642C114.364 25.5045 114.304 25.4248 114.284 25.3451L114.264 25.2853L114.244 25.2256L114.225 25.1658L114.205 25.126V25.0862C114.165 24.9268 114.185 24.7476 114.205 24.6081C114.264 24.3093 114.424 24.0504 114.603 23.8512C114.782 23.652 115.021 23.4927 115.26 23.4529C115.519 23.3931 115.738 23.4529 115.898 23.5524C116.077 23.652 116.177 23.7716 116.256 23.8711C116.336 23.9707 116.376 24.0703 116.396 24.15C116.455 24.2098 116.455 24.2496 116.455 24.2496Z" fill="#C69C6D"/>
<path d="M128.267 25.7428C128.916 25.7428 129.442 24.8689 129.442 23.7908C129.442 22.7127 128.916 21.8388 128.267 21.8388C127.618 21.8388 127.092 22.7127 127.092 23.7908C127.092 24.8689 127.618 25.7428 128.267 25.7428Z" fill="#754C24"/>
<path d="M138.106 26.1435C138.591 26.3208 139.285 25.6437 139.655 24.6311C140.024 23.6184 139.93 22.6538 139.445 22.4764C138.959 22.2991 138.266 22.9762 137.896 23.9888C137.526 25.0015 137.62 25.9661 138.106 26.1435Z" fill="#754C24"/>
<path d="M124.922 23.4936C124.922 23.4936 124.942 23.414 124.962 23.2944C125.002 23.1749 125.061 22.9957 125.181 22.8164C125.241 22.7168 125.3 22.6172 125.38 22.5176C125.46 22.418 125.559 22.3184 125.659 22.2189C125.758 22.1193 125.878 22.0396 126.017 21.9599C126.077 21.9201 126.137 21.8802 126.217 21.8404L126.416 21.7607C126.555 21.701 126.715 21.6611 126.854 21.6412C126.993 21.6213 127.153 21.6014 127.292 21.6014C127.432 21.6014 127.571 21.6213 127.691 21.6412C127.81 21.6611 127.93 21.6811 128.049 21.7209C128.149 21.7607 128.248 21.7806 128.328 21.8205C128.408 21.8603 128.487 21.9002 128.527 21.9201C128.647 21.9798 128.686 22.0396 128.686 22.0396C128.686 22.0396 128.607 22.0197 128.487 21.9997C128.368 21.9798 128.188 21.9599 127.989 21.94C127.89 21.94 127.77 21.94 127.651 21.94C127.531 21.94 127.412 21.9599 127.292 21.9599C127.173 21.9798 127.033 21.9997 126.914 22.0197C126.774 22.0595 126.675 22.0794 126.535 22.1392L126.336 22.2189C126.276 22.2388 126.217 22.2786 126.177 22.2985C126.057 22.3583 125.958 22.418 125.858 22.4977C125.659 22.6371 125.48 22.7965 125.34 22.9558C125.201 23.1152 125.081 23.2347 125.002 23.3343C124.962 23.4339 124.922 23.4936 124.922 23.4936Z" fill="#C69C6D"/>
<path d="M136.931 22.7559C136.931 22.7559 136.951 22.6962 137.01 22.6165C137.07 22.5368 137.15 22.4173 137.269 22.3177C137.329 22.2579 137.409 22.1982 137.488 22.1584C137.568 22.0986 137.668 22.0588 137.767 22.0189C137.867 21.9791 137.966 21.9393 138.086 21.9193C138.146 21.8994 138.205 21.8994 138.265 21.8994C138.305 21.8994 138.305 21.8994 138.365 21.8994H138.444H138.524L138.624 21.9193C138.683 21.9193 138.743 21.9393 138.803 21.9592C138.863 21.9791 138.923 21.9791 138.962 22.0189C139.022 22.0388 139.062 22.0588 139.122 22.0787C139.221 22.1185 139.301 22.1783 139.381 22.238C139.46 22.2978 139.52 22.3575 139.58 22.4173C139.699 22.5368 139.779 22.6563 139.819 22.736C139.859 22.8157 139.879 22.8754 139.879 22.8754C139.879 22.8754 139.699 22.736 139.44 22.5966C139.381 22.5567 139.301 22.5169 139.221 22.497C139.142 22.4571 139.062 22.4372 138.982 22.3974C138.903 22.3775 138.803 22.3575 138.723 22.3376C138.683 22.3177 138.624 22.3177 138.584 22.3177H138.524H138.444H138.365H138.305C138.265 22.3177 138.205 22.3177 138.166 22.3177C138.066 22.3177 137.986 22.3376 137.887 22.3575C137.707 22.3974 137.548 22.4571 137.409 22.5169C137.269 22.5766 137.15 22.6364 137.07 22.6961C136.99 22.7161 136.931 22.7559 136.931 22.7559Z" fill="#C69C6D"/>
<path d="M133.286 21.7591C132.35 22.018 131.951 23.0538 131.692 23.7509C131.493 24.2887 130.557 26.7188 131.891 29.0691C132.29 29.7663 133.107 31.1606 134.541 31.2602C135.895 31.3398 137.17 30.2443 137.528 29.0691C138.026 27.4358 136.712 25.7228 136.473 25.4241C135.895 24.707 135.377 24.5277 135.138 23.6912C134.919 22.9542 135.178 22.516 134.8 22.0977C134.441 21.6794 133.764 21.6197 133.286 21.7591Z" fill="#EEB995"/>
<path d="M128.168 37.6346C128.168 37.6346 128.088 37.6545 127.929 37.6744C127.769 37.6943 127.55 37.6943 127.291 37.6744C127.152 37.6545 127.013 37.6346 126.873 37.5948C126.714 37.5549 126.574 37.5151 126.415 37.4553C126.256 37.3956 126.096 37.3159 125.937 37.2362C125.857 37.1964 125.778 37.1366 125.718 37.0968L125.499 36.9374C125.359 36.8179 125.22 36.6984 125.1 36.5789C124.981 36.4395 124.861 36.3001 124.782 36.1606C124.583 35.8818 124.463 35.583 124.363 35.344C124.284 35.085 124.244 34.8659 124.224 34.7265C124.204 34.5672 124.204 34.4875 124.204 34.4875C124.204 34.4875 124.244 34.5672 124.304 34.7066C124.363 34.846 124.463 35.0452 124.583 35.2643C124.702 35.4834 124.861 35.7224 125.061 35.9614C125.16 36.081 125.28 36.2005 125.379 36.32C125.499 36.4395 125.618 36.5391 125.758 36.6387L125.957 36.798C126.017 36.8379 126.096 36.8976 126.156 36.9374C126.236 36.9773 126.296 37.0171 126.355 37.057C126.435 37.0968 126.495 37.1366 126.554 37.1765C126.694 37.2362 126.833 37.296 126.973 37.3557C127.112 37.3956 127.232 37.4553 127.351 37.4952C127.59 37.5748 127.809 37.6147 127.949 37.6545C128.088 37.6147 128.168 37.6346 128.168 37.6346Z" fill="#C69C6D"/>
<path d="M119.285 45.522C117.293 45.3826 115.759 47.8525 114.644 49.6451C114.066 50.5614 113.508 51.6768 112.791 53.8877C112.114 55.9592 111.238 58.6482 110.939 62.3929C110.541 67.0936 110.361 69.4241 111.736 71.8143C113.269 74.4634 116.138 76.3357 119.165 76.7341C123.547 77.3117 127.053 74.563 127.67 74.085C129.782 72.4317 130.459 70.7188 133.387 69.3046C134.582 68.7269 135.658 68.4281 136.375 68.2887C135.638 66.8546 135.379 65.6794 135.299 64.8428C135.239 64.2054 135.219 63.3689 135.04 61.7356C135 61.2974 134.941 60.9189 134.921 60.6799C134.542 60.9388 133.925 61.3372 133.128 61.7555C132.451 62.114 131.913 62.3331 131.774 62.4128C131.076 62.7116 129.403 63.5481 125.659 66.6554C123.169 68.7269 122.492 69.683 121.535 69.444C120.241 69.1054 119.783 66.8944 119.683 66.3965C119.364 64.9026 119.683 63.6477 120.34 61.2177C120.599 60.2218 121.615 56.4572 122.332 53.1109C122.85 50.6809 122.91 49.8443 122.591 48.8683C122.153 47.4541 120.898 45.6415 119.285 45.522Z" fill="#68778A"/>
<path d="M135.657 60.3016C136.772 59.5447 136.932 59.1065 137.669 58.9471C138.346 58.8077 138.446 59.1065 139.202 59.0069C140.019 58.9073 140.258 58.489 141.393 57.8118C141.871 57.513 142.927 56.8955 144.242 56.6167C145.039 56.4573 146.214 56.1785 146.632 56.7561C147.05 57.3138 146.433 58.3695 146.373 58.4691C146.214 58.7479 145.835 59.2459 144.521 59.8634C142.828 60.6601 141.573 60.68 141.573 61.0186C141.573 61.2577 142.25 61.1979 142.768 61.7556C143.286 62.2934 143.286 63.0304 143.306 64.4844C143.306 65.8389 143.306 66.5161 143.047 67.0141C142.469 68.0498 141.354 68.3884 140.398 68.6673C139.581 68.9063 138.207 69.3246 136.912 68.6673C136.733 68.5876 136.235 68.3088 135.557 67.4722C134.103 65.6397 133.008 62.5125 134.163 61.1979C134.482 60.7995 134.581 61.0386 135.657 60.3016Z" fill="#EEC795"/>
<path d="M139.143 61.7155C139.143 61.7155 139.302 61.6558 139.541 61.596C139.78 61.5164 140.079 61.4367 140.397 61.3371C140.716 61.2375 141.015 61.1379 141.254 61.0582C141.493 60.9786 141.652 60.9387 141.652 60.9387C141.652 60.9387 141.513 61.0383 141.294 61.1578C141.075 61.2773 140.776 61.4168 140.457 61.5164C140.138 61.6159 139.82 61.6757 139.561 61.6956C139.302 61.7155 139.143 61.7155 139.143 61.7155Z" fill="#C69C6D"/>
<path d="M136.734 67.7712C136.734 67.7712 136.834 67.811 136.993 67.8509C137.153 67.8907 137.392 67.9505 137.69 67.9903C137.989 68.0301 138.328 68.0102 138.686 67.9505C139.045 67.8907 139.423 67.7712 139.742 67.5919C139.921 67.5123 140.081 67.3927 140.22 67.2732C140.36 67.1537 140.499 67.0342 140.618 66.8948C140.857 66.6358 141.017 66.3371 141.097 66.0582C141.176 65.7794 141.216 65.5403 141.216 65.3611C141.216 65.1818 141.216 65.0822 141.216 65.0822C141.216 65.0822 141.236 65.1818 141.256 65.3611C141.276 65.5403 141.276 65.7794 141.216 66.0781C141.156 66.3769 140.997 66.7155 140.758 67.0143C140.519 67.3131 140.2 67.572 139.842 67.7712C139.483 67.9704 139.085 68.0899 138.706 68.1297C138.328 68.1895 137.969 68.1496 137.671 68.1098C137.372 68.07 137.133 67.9704 136.973 67.9106C136.814 67.811 136.734 67.7712 136.734 67.7712Z" fill="#C69C6D"/>
<path d="M154.997 74.2836C154.977 73.7458 157.467 73.8056 158.045 72.3515C158.483 71.256 157.666 69.802 157.447 69.4235C156.75 68.2085 155.894 67.85 156.053 67.2923C156.133 67.0134 156.372 66.9935 157.646 66.2963C158.881 65.6191 158.841 65.5195 159.24 65.4398C160.355 65.1809 161.351 65.7785 161.69 65.9776C162.885 66.6748 163.383 67.7703 163.542 68.1687C163.682 68.4874 164.498 70.4394 163.542 72.3515C162.307 74.8413 159.18 75.0206 158.304 75.0803C156.67 75.1799 155.017 74.7019 154.997 74.2836Z" fill="#68778A"/>
<path d="M151.473 55.6214C152.748 55.9202 154.182 56.3385 155.716 56.9559C157.468 57.6531 158.982 58.41 160.237 59.147C158.325 62.8518 155.417 68.5086 154.52 70.2614C153.624 72.0142 150.198 76.8743 149.342 77.8702C148.485 78.8661 144.362 76.0776 144.362 76.0776L140.657 73.0699C142.39 70.0423 144.103 67.0147 145.836 63.9871C147.051 62.1945 148.266 60.4018 149.481 58.6092C150.158 57.6132 150.816 56.6173 151.473 55.6214Z" fill="#FBB03B"/>
<path d="M151.014 55.5416C150.496 55.442 149.998 55.3623 149.48 55.2627L139.342 71.6954L140.676 73.0697L151.492 55.6212C151.313 55.6013 151.173 55.5615 151.014 55.5416Z" fill="#CC9030"/>
<path d="M141.99 86.9529C133.007 86.7736 124.024 86.5944 115.041 86.4151C114.961 88.9049 115.101 90.9167 115.24 92.3508C115.439 94.243 115.718 95.4979 116.077 96.7328C116.176 97.0714 116.296 97.41 116.455 97.8283C117.053 99.3222 119.642 101.812 119.642 101.812L122.929 155.811C122.929 155.811 121.235 169.355 119.941 170.949C118.646 172.542 122.032 173.737 126.813 174.434C131.593 175.132 141.253 173.339 141.253 173.339C141.253 173.339 139.66 164.674 139.461 160.691C139.262 156.707 139.162 129.917 139.162 129.917C139.162 129.917 138.664 110.994 138.564 108.803C138.465 106.612 138.266 101.832 138.266 101.832C139.082 100.557 139.959 98.9238 140.656 96.9519C142.11 92.8886 142.15 89.2833 141.99 86.9529Z" fill="#2B3138"/>
<path d="M131.892 91.375C132.091 91.355 132.27 91.355 132.469 91.355C132.668 91.355 132.848 91.3351 133.047 91.3351L134.182 91.2953H134.262V91.375C134.282 92.351 134.282 93.327 134.262 94.303C134.262 94.8009 134.242 95.279 134.222 95.7769C134.222 96.0159 134.202 96.2749 134.202 96.5139C134.182 96.7529 134.182 97.0119 134.162 97.2509C134.142 97.0119 134.142 96.7529 134.122 96.5139C134.103 96.2749 134.103 96.0159 134.103 95.7769C134.083 95.279 134.083 94.8009 134.063 94.303C134.063 93.327 134.063 92.351 134.063 91.375L134.142 91.4546L133.007 91.4148C132.808 91.4148 132.629 91.3949 132.429 91.3949C132.27 91.3949 132.091 91.3949 131.892 91.375Z" fill="#7E88A3"/>
<path fill-rule="evenodd" clip-rule="evenodd" d="M131.901 93.8734C131.743 93.6602 131.641 93.362 131.673 93.0179L131.871 93.0365C131.844 93.3299 131.931 93.5794 132.061 93.7546C132.194 93.9334 132.362 94.0232 132.489 94.0232C132.616 94.0232 132.778 93.934 132.907 93.7579C133.032 93.5853 133.115 93.3405 133.087 93.0568L133.285 93.0376C133.318 93.3713 133.221 93.6643 133.068 93.8751C132.917 94.0824 132.701 94.2223 132.489 94.2223C132.278 94.2223 132.057 94.0831 131.901 93.8734Z" fill="#7E88A3"/>
<path d="M137.171 98.6444C136.554 99.6602 135.757 100.576 134.801 101.294C134.323 101.652 133.825 101.971 133.287 102.23C132.75 102.489 132.192 102.708 131.614 102.867L131.634 102.827L131.853 110.974L132.072 119.12L132.491 135.394L132.869 151.687L133.048 159.834C133.108 162.543 133.168 165.271 133.228 167.98L134.403 173.956L133.148 167.98H133.108C133.108 165.271 132.989 162.562 132.909 159.834L132.71 151.687L132.291 135.414L131.933 119.12L131.714 110.974L131.515 102.827V102.807H131.574C132.152 102.648 132.73 102.449 133.267 102.19C133.805 101.931 134.323 101.632 134.801 101.274C135.717 100.557 136.554 99.6602 137.171 98.6444Z" fill="#7E88A3"/>
<path d="M123.428 173.637C123.806 176.446 123.667 178.736 123.388 180.449C123.029 182.7 122.511 183.855 123.129 184.891C123.985 186.345 126.455 186.504 128.746 186.345C128.746 186.345 131.833 186.843 138.008 187.58C143.904 188.297 145.497 188.377 146.234 187.361C147.031 186.245 146.433 184.453 146.234 184.293C145.039 183.357 142.788 180.967 138.924 179.911C135.08 178.856 132.809 178.059 132.809 178.059C132.59 177.621 132.331 176.983 132.271 176.187C132.212 175.211 132.212 174.394 132.212 174.394C131.435 174.494 130.618 174.533 129.722 174.553C127.252 174.533 125.101 174.115 123.428 173.637Z" fill="#CCCCCC"/>
<path d="M127.131 184.494C128 184.494 128.705 183.789 128.705 182.92C128.705 182.051 128 181.346 127.131 181.346C126.262 181.346 125.558 182.051 125.558 182.92C125.558 183.789 126.262 184.494 127.131 184.494Z" fill="#A3A3A3"/>
<path d="M134.002 178.438C133.006 179.493 132.011 180.549 131.015 181.605L132.608 181.863L135.178 178.836C134.799 178.696 134.401 178.577 134.002 178.438Z" fill="black"/>
<path d="M136.155 179.115L133.646 182.003L135.339 182.322L137.291 179.454L136.155 179.115Z" fill="black"/>
<path d="M139.043 179.991C138.266 180.888 137.489 181.804 136.692 182.7C137.31 182.84 137.907 182.979 138.525 183.119C139.182 182.242 139.859 181.366 140.517 180.489C140.318 180.39 140.079 180.29 139.8 180.191C139.521 180.091 139.262 180.031 139.043 179.991Z" fill="black"/>
<path d="M123.647 178.02C125.559 178 127.033 177.98 128.029 177.96C128.846 177.94 129.762 177.92 131.056 177.96C131.813 177.98 132.431 178.04 132.849 178.06C132.75 177.9 132.63 177.661 132.53 177.363C132.451 177.163 132.331 176.745 132.271 176.187C132.252 175.889 132.271 175.849 132.271 175.092C132.271 174.773 132.252 174.514 132.252 174.355C131.913 174.395 131.475 174.454 130.937 174.474C130.638 174.494 129.622 174.554 128.308 174.474C127.232 174.415 126.316 174.275 125.659 174.156C124.802 173.996 124.045 173.797 123.428 173.618C123.507 174.196 123.567 174.813 123.607 175.47C123.667 176.406 123.667 177.243 123.647 178.02Z" fill="white"/>
<path d="M145.219 182.202C145.318 182.103 145.497 181.943 145.936 181.505C146.633 180.848 147.191 180.29 147.549 179.932C147.669 179.991 147.848 180.071 148.047 180.19C148.645 180.489 148.983 180.669 149.063 180.708C150.318 181.346 151.055 182.302 151.055 182.302C151.533 182.939 151.971 183.517 151.851 184.154C151.612 185.429 149.322 185.907 148.864 186.007C148.127 186.166 147.33 186.086 145.717 185.947C143.526 185.768 143.267 185.389 143.267 185.389C143.864 183.875 144.601 182.86 145.219 182.202Z" fill="#8C8C8C"/>
<path d="M142.529 177.88C141.852 178.737 141.174 179.593 140.497 180.43C140.756 180.53 141.015 180.649 141.294 180.789C141.493 180.888 141.692 180.988 141.871 181.087C142.509 180.171 143.146 179.235 143.804 178.319C143.385 178.179 142.967 178.04 142.529 177.88Z" fill="black"/>
<path d="M140.1 177.103C139.443 177.96 138.786 178.796 138.108 179.653C138.606 179.812 139.104 179.971 139.602 180.111C140.18 179.254 140.777 178.398 141.355 177.561C140.937 177.402 140.519 177.262 140.1 177.103Z" fill="black"/>
<path d="M138.306 176.247L135.876 179.035L137.29 179.454L139.421 176.824L138.306 176.247Z" fill="black"/>
<path fill-rule="evenodd" clip-rule="evenodd" d="M117.819 52.528C115.606 51.8032 113.743 52.6259 113.31 52.8228L113.228 52.6415C113.671 52.44 115.593 51.5895 117.881 52.3387C120.492 53.1888 121.563 55.4132 121.725 55.779L121.543 55.8599C121.387 55.5088 120.347 53.3512 117.819 52.5281L117.819 52.528Z" fill="#9FB5D1"/>
<path fill-rule="evenodd" clip-rule="evenodd" d="M117.535 60.101C115.79 59.8266 114.417 60.3554 113.802 60.5934C112.702 61.0256 111.896 61.6545 111.344 62.1671L111.208 62.0211C111.771 61.498 112.598 60.8521 113.729 60.4079L113.73 60.4077C114.35 60.1677 115.765 59.6212 117.565 59.9042C118.779 60.0864 119.689 60.5922 120.193 60.9147L120.086 61.0825C119.594 60.7676 118.711 60.2775 117.535 60.1011L117.535 60.101Z" fill="#9FB5D1"/>
<path fill-rule="evenodd" clip-rule="evenodd" d="M119.534 64.6828C118.923 64.6237 118.076 64.604 117.071 64.7813L117.07 64.7814C115.098 65.1167 113.777 65.9846 113.525 66.1594L113.524 66.16L113.524 66.16C112.244 67.0263 111.476 68.0502 111.063 68.7193L110.894 68.6146C111.317 67.9293 112.102 66.8818 113.412 65.9954C113.678 65.811 115.026 64.927 117.036 64.5851C118.063 64.404 118.929 64.4241 119.553 64.4845L119.534 64.6828Z" fill="#9FB5D1"/>
<path fill-rule="evenodd" clip-rule="evenodd" d="M119.667 67.5691C118.959 67.7462 118.035 68.0803 117.112 68.7482C115.817 69.6902 115.188 70.8481 114.851 71.5018L114.851 71.5027L114.851 71.5027C114.319 72.5073 114.083 73.4133 113.965 74.0634L113.769 74.0277C113.889 73.3633 114.131 72.437 114.675 71.41C115.015 70.749 115.661 69.557 116.995 68.587L116.995 68.5869C117.944 67.9003 118.893 67.5573 119.619 67.3759L119.667 67.5691Z" fill="#9FB5D1"/>
<path fill-rule="evenodd" clip-rule="evenodd" d="M120.706 69.1411C120.015 69.7531 118.93 70.8578 118.141 72.5935L118.141 72.5937C117.51 73.9745 117.313 75.2171 117.253 76.0451L117.055 76.0309C117.115 75.1858 117.316 73.9187 117.96 72.511C118.764 70.7411 119.87 69.6149 120.574 68.992L120.706 69.1411Z" fill="#9FB5D1"/>
<path fill-rule="evenodd" clip-rule="evenodd" d="M121.826 69.4991C121.589 70.1289 121.157 71.5043 121.432 73.233L121.432 73.2334C121.648 74.628 122.238 75.6495 122.61 76.179L122.448 76.2937C122.063 75.7477 121.458 74.6977 121.236 73.264C120.953 71.4871 121.397 70.0741 121.639 69.4291L121.826 69.4991Z" fill="#9FB5D1"/>
<path fill-rule="evenodd" clip-rule="evenodd" d="M125.12 67.3804C125.061 68.1682 125.061 69.6056 125.71 71.2199L125.711 71.2203C126.203 72.4608 126.892 73.3469 127.384 73.8784L127.238 74.0137C126.734 73.4696 126.029 72.5632 125.526 71.294C124.861 69.6418 124.861 68.1712 124.921 67.3655L125.12 67.3804Z" fill="#9FB5D1"/>
<path fill-rule="evenodd" clip-rule="evenodd" d="M129.501 63.9076C129.344 64.6346 129.167 66.0119 129.6 67.6451C129.934 68.8646 130.485 69.7501 130.879 70.3021L130.717 70.4179C130.315 69.8546 129.75 68.9475 129.407 67.6974L129.407 67.6965L129.407 67.6965C128.964 66.0234 129.145 64.6123 129.306 63.8655L129.501 63.9076Z" fill="#9FB5D1"/>
<path fill-rule="evenodd" clip-rule="evenodd" d="M132.189 62.7119C132.051 63.3811 131.933 64.3854 132.091 65.5668L132.091 65.5673C132.288 67.1024 132.878 68.2642 133.272 68.9144L133.102 69.0177C132.699 68.3534 132.095 67.1648 131.893 65.5929C131.732 64.3842 131.853 63.3569 131.994 62.6717L132.189 62.7119Z" fill="#9FB5D1"/>
<path fill-rule="evenodd" clip-rule="evenodd" d="M141.894 82.2025C139.737 83.2207 136.843 84.3586 133.309 85.1971L133.309 85.1971L133.247 85.2117C130.721 85.8037 128.372 86.3544 125.314 86.1955C123.372 86.0954 120.051 85.655 116.211 83.695L116.301 83.5176C120.11 85.4615 123.402 85.8975 125.324 85.9966L125.324 85.9966C128.354 86.154 130.68 85.6088 133.209 85.0161L133.263 85.0033C133.263 85.0032 133.264 85.0032 133.264 85.0032C136.781 84.1685 139.663 83.0357 141.809 82.0223L141.894 82.2025Z" fill="#9FB5D1"/>
<path fill-rule="evenodd" clip-rule="evenodd" d="M140.908 75.0264C138.79 76.3053 135.752 77.7843 131.915 78.6238L131.914 78.6239C130.139 79.0028 126.938 79.6832 122.817 79.1231L122.817 79.1231C120.197 78.7631 118.078 78.0432 116.617 77.423L116.695 77.2397C118.143 77.8545 120.245 78.5686 122.844 78.9257C126.929 79.481 130.102 78.8071 131.873 78.4291C135.684 77.5954 138.701 76.1265 140.805 74.8559L140.908 75.0264Z" fill="#9FB5D1"/>
<path fill-rule="evenodd" clip-rule="evenodd" d="M122.223 67.173C121.256 67.0924 120.451 66.871 119.868 66.6699L119.933 66.4816C120.505 66.6789 121.294 66.8956 122.239 66.9745C123.519 67.0729 124.583 66.8759 125.292 66.679L125.345 66.8709C124.62 67.0724 123.532 67.2737 122.223 67.173L122.223 67.173L122.223 67.173Z" fill="#9FB5D1"/>
<path fill-rule="evenodd" clip-rule="evenodd" d="M135.592 57.1375C132.875 58.9555 130.458 59.9948 128.738 60.5946C126.46 61.3941 125.226 61.5193 124.006 61.2957C122.572 61.033 121.501 60.3664 120.876 59.8822L120.998 59.7247C121.607 60.1966 122.649 60.8446 124.042 61.0998L124.042 61.0998C125.213 61.3145 126.409 61.2007 128.672 60.4067L128.672 60.4066C130.379 59.8113 132.781 58.7791 135.482 56.972L135.592 57.1375Z" fill="#9FB5D1"/>
<path fill-rule="evenodd" clip-rule="evenodd" d="M132.137 51.872C131.313 52.5752 129.101 54.225 125.941 54.3457L125.941 54.3458C124.593 54.386 123.466 54.1446 122.66 53.8828L122.722 53.6934C123.51 53.9495 124.613 54.1861 125.934 54.1467C129.029 54.0283 131.198 52.4116 132.008 51.7205L132.137 51.872Z" fill="#9FB5D1"/>
<path fill-rule="evenodd" clip-rule="evenodd" d="M160.202 69.4766C159.634 67.8131 158.46 66.9123 157.99 66.5993L158.101 66.4335C158.587 66.7579 159.803 67.6896 160.39 69.4121C161.303 72.0674 159.925 74.3535 159.723 74.676L159.554 74.5704C159.751 74.2555 161.083 72.0401 160.202 69.4768L160.202 69.4766Z" fill="#9FB5D1"/>
<path fill-rule="evenodd" clip-rule="evenodd" d="M136.554 54.9417C137.47 53.6795 137.469 52.3172 137.429 51.8278L137.23 51.8443C137.269 52.311 137.269 53.6175 136.392 54.825L136.392 54.825L136.392 54.8257C136.003 55.3704 135.555 55.7208 135.224 55.9353L135.332 56.1025C135.678 55.8788 136.146 55.5123 136.554 54.9417Z" fill="#9FB5D1"/>
<path fill-rule="evenodd" clip-rule="evenodd" d="M133.92 47.9438C134.042 48.353 134.266 49.3917 133.859 50.5938L133.858 50.5949L133.858 50.5949C133.594 51.3478 133.187 51.8781 132.899 52.166L132.758 52.0251C133.028 51.7554 133.417 51.2501 133.67 50.5294C134.059 49.3814 133.845 48.3886 133.729 48.0011L133.92 47.9438Z" fill="#9FB5D1"/>
<path d="M154.499 74.543C153.683 74.6625 153.105 74.5828 151.95 74.3836C151.173 74.2442 149.54 73.9255 147.07 72.9296C144.62 71.9536 144.003 71.3759 143.724 71.0772C143.564 70.9178 142.11 69.3841 142.568 68.5874C142.787 68.2089 143.405 68.0496 143.863 68.0894C144.421 68.1492 144.859 68.4479 144.859 68.4479C144.859 68.4479 144.5 68.0297 144.242 67.3723C144.102 67.0138 143.923 66.6154 144.082 66.1972C144.222 65.8785 144.54 65.6195 144.879 65.5399C145.656 65.3805 146.492 66.237 146.492 66.237C146.492 66.237 145.815 65.8187 145.536 65.0817C145.476 64.9224 145.297 64.4643 145.496 64.2252C145.795 63.8667 146.691 64.2452 146.811 64.3049C147.369 64.5439 147.827 65.1614 147.827 65.1614C147.827 65.1614 147.289 64.6435 147.13 64.4842C146.851 64.2252 146.492 63.9265 146.333 63.5281C146.313 63.4883 146.313 63.4484 146.293 63.4285C146.273 63.3289 146.154 62.8708 146.353 62.6716C146.751 62.3131 147.966 63.0102 148.444 63.309C150.277 64.3846 151.153 65.6394 151.392 65.4602C151.552 65.3606 151.153 64.8427 151.093 63.8667C151.074 63.4484 150.994 62.4525 151.631 61.6757C151.711 61.5761 152.368 60.7794 153.026 60.9188C153.762 61.0582 154.081 62.2533 154.28 63.0501C154.48 63.787 154.32 63.787 154.539 64.8029C154.858 66.2768 155.256 66.735 155.475 66.9341C155.774 67.213 155.914 67.1931 156.312 67.4321C157.487 68.189 158.264 69.8024 158.145 71.3162C158.125 71.6349 158.065 72.1328 157.786 72.6706C156.989 74.1645 155.077 74.4633 154.499 74.543Z" fill="#EEC795"/>
<path d="M148.564 70.2612C148.564 70.2612 148.464 70.2612 148.305 70.2413C148.146 70.2214 147.887 70.1815 147.608 70.1218C147.329 70.0421 146.99 69.9425 146.652 69.7832C146.313 69.6238 145.974 69.4445 145.656 69.2055C145.496 69.086 145.357 68.9466 145.218 68.8072C145.078 68.6677 144.959 68.5283 144.839 68.3689C144.62 68.0702 144.441 67.7714 144.321 67.5125C144.202 67.2535 144.122 67.0145 144.082 66.8352C144.042 66.6759 144.022 66.5763 144.022 66.5763C144.022 66.5763 144.062 66.6759 144.122 66.8352C144.182 66.9946 144.281 67.2137 144.421 67.4726C144.56 67.7316 144.74 68.0104 144.979 68.2694C145.098 68.4088 145.218 68.5482 145.357 68.6677C145.496 68.8072 145.636 68.9267 145.795 69.0462C146.094 69.2852 146.433 69.4645 146.751 69.6238C147.07 69.7832 147.389 69.9226 147.648 70.0023C147.926 70.1018 148.146 70.1616 148.325 70.2014C148.464 70.2413 148.564 70.2612 148.564 70.2612Z" fill="#C69C6D"/>
<path d="M149.48 67.9302C149.48 67.9302 149.38 67.9103 149.221 67.8505C149.062 67.7908 148.823 67.731 148.544 67.6115C148.265 67.492 147.946 67.3526 147.628 67.1534C147.309 66.9741 146.97 66.7351 146.671 66.4961C146.373 66.2372 146.054 65.9981 145.815 65.6994C145.695 65.54 145.616 65.3807 145.536 65.2213C145.476 65.062 145.417 64.9026 145.397 64.7632C145.377 64.6039 145.377 64.4644 145.437 64.3449C145.496 64.2254 145.596 64.1657 145.676 64.1258C145.755 64.1059 145.835 64.1059 145.875 64.1059C145.915 64.1059 145.954 64.1059 145.954 64.1059C145.954 64.1059 145.934 64.1059 145.875 64.1059C145.835 64.1059 145.755 64.1258 145.695 64.1656C145.616 64.2055 145.536 64.2652 145.496 64.3648C145.456 64.4644 145.476 64.6039 145.496 64.7433C145.536 64.8827 145.596 65.0221 145.676 65.1616C145.755 65.301 145.835 65.4603 145.954 65.5998C146.193 65.8587 146.492 66.1176 146.811 66.3567C147.11 66.5957 147.428 66.8347 147.727 67.0339C148.046 67.2331 148.325 67.3924 148.584 67.5319C148.843 67.6713 149.062 67.7709 149.221 67.8306C149.38 67.8904 149.48 67.9302 149.48 67.9302Z" fill="#C69C6D"/>
<path d="M149.361 66.158C149.361 66.158 149.102 66.0783 148.723 65.8791C148.544 65.7795 148.325 65.6401 148.126 65.4808C147.927 65.3214 147.708 65.1421 147.508 64.9629C147.309 64.7836 147.09 64.6044 146.911 64.4251C146.811 64.3255 146.732 64.2458 146.652 64.1263C146.592 64.0267 146.532 63.9271 146.493 63.8275C146.393 63.6284 146.353 63.469 146.313 63.3495C146.273 63.23 146.273 63.1702 146.273 63.1702C146.273 63.1702 146.293 63.23 146.353 63.3495C146.393 63.4491 146.473 63.6084 146.592 63.7877C146.652 63.8674 146.712 63.967 146.771 64.0466C146.831 64.1263 146.931 64.206 147.03 64.3056C147.21 64.4649 147.429 64.6442 147.628 64.8235C147.827 65.0027 148.046 65.182 148.225 65.3413C148.425 65.5007 148.604 65.66 148.763 65.7795C148.923 65.899 149.062 65.9986 149.182 66.0584C149.301 66.1181 149.361 66.158 149.361 66.158Z" fill="#C69C6D"/>
<path fill-rule="evenodd" clip-rule="evenodd" d="M140.974 56.0322C140.933 56.3563 140.831 56.9924 140.4 57.6293C139.763 58.5744 138.839 58.8819 138.552 58.9639L138.497 58.7724C138.768 58.6951 139.637 58.4051 140.234 57.5178L140.235 57.5176C140.64 56.9196 140.737 56.3208 140.776 56.0075L140.974 56.0322Z" fill="#9FB5D1"/>
<path d="M119.643 38.3914C119.643 38.3914 119.702 38.4511 119.822 38.5706C119.941 38.6901 120.101 38.8296 120.32 39.0287C120.519 39.208 120.778 39.4072 121.057 39.6263C121.336 39.8255 121.634 40.0446 121.933 40.2238C122.093 40.3234 122.252 40.423 122.391 40.5027C122.551 40.5824 122.71 40.682 122.849 40.7616C123.148 40.921 123.447 41.0604 123.706 41.16C123.965 41.2596 124.164 41.3592 124.323 41.399C124.483 41.4588 124.562 41.4787 124.562 41.4787C124.562 41.4787 124.463 41.4588 124.323 41.419C124.164 41.3791 123.945 41.3194 123.686 41.2397C123.427 41.16 123.108 41.0405 122.81 40.9011C122.65 40.8214 122.491 40.7417 122.332 40.6621C122.172 40.5824 122.013 40.4828 121.854 40.3832C121.535 40.184 121.236 39.9649 120.977 39.7458C120.698 39.5267 120.479 39.2877 120.28 39.1084C120.081 38.9092 119.941 38.73 119.842 38.6105C119.702 38.471 119.643 38.3914 119.643 38.3914Z" fill="#C69C6D"/>
<path d="M143.723 182.282C143.045 182.541 142.249 182.959 141.472 183.656C140.874 184.194 140.356 184.832 139.978 185.748C139.759 186.286 139.779 187.74 139.779 187.74C139.978 187.78 140.257 187.839 140.556 187.899C140.775 187.939 141.073 187.979 141.492 188.019C141.651 188.039 141.751 188.039 142.388 188.058C143.245 188.078 143.185 188.078 143.225 188.078C144.44 188.118 144.659 188.138 145.077 188.019C145.376 187.919 145.774 187.799 146.113 187.461C146.77 186.784 146.75 185.688 146.511 184.971C146.292 184.294 145.834 183.915 144.977 183.218C144.499 182.78 144.061 182.481 143.723 182.282Z" fill="#A3A3A3"/>
<path d="M132.469 177.282C133.704 177.302 134.74 177.203 135.477 177.103C135.955 177.063 136.313 176.944 136.572 176.864C136.971 176.725 137.728 176.446 137.807 175.948C137.807 175.928 137.807 175.868 137.787 175.709C137.767 175.41 137.747 175.29 137.708 174.852C137.688 174.673 137.688 174.573 137.668 174.474C137.648 174.255 137.648 174.055 137.648 173.936C137.03 173.996 136.393 174.075 135.776 174.135C134.6 174.255 133.445 174.374 132.29 174.494C132.25 174.972 132.25 175.37 132.25 175.689C132.27 176.247 132.31 176.545 132.31 176.645C132.37 176.864 132.429 177.103 132.469 177.282Z" fill="#E0E0E0"/>
<path d="M46.6434 96.6531C48.3165 100.298 49.671 101.254 51.4238 104.222C53.814 108.266 52.7185 108.823 54.8697 112.847C56.5229 115.914 58.3952 119.44 62.2992 121.212C68.5337 124.061 74.9673 120.236 75.3059 120.017C75.9433 119.619 80.1461 116.95 81.6798 111.652C82.7554 107.907 81.879 104.939 80.0864 99.1628C77.5567 91.0361 76.1226 86.4947 71.5812 82.8297C70.1471 81.6745 65.785 78.1688 59.6302 78.5871C54.1327 78.9656 50.5872 82.2322 49.5316 83.2281C48.0974 84.5826 44.9105 87.6301 45.0101 91.7333C45.0898 93.2869 45.6076 94.4023 46.6434 96.6531Z" fill="#E9CBA8"/>
<path d="M46.979 96.7921H47.0188C47.0188 96.7921 56.4203 94.9994 62.117 92.9478C67.9331 90.8564 74.2672 85.5183 74.2672 85.5183C74.2672 85.5183 70.2038 81.196 68.1522 80.2797C66.6583 79.6025 61.2405 77.2521 55.0658 79.5427C53.8907 79.981 50.0663 81.4748 47.4371 85.5183C46.481 86.9723 45.027 89.004 45.1067 91.8921C45.1664 93.8641 45.9233 95.3978 46.4412 96.2344" fill="#A67C52"/>
<path d="M46.8994 91.2753C46.8994 91.2753 45.5848 90.6379 44.2503 90.7176C44.1507 90.7176 42.6767 90.8371 42.0991 92.0123C41.7406 92.7692 41.8402 93.8249 42.3979 94.3627C43.0154 94.9403 44.0511 95.0598 44.0511 95.0598C44.0511 95.0598 43.354 95.5378 43.1946 96.1553C43.0353 96.7529 43.5332 97.45 44.0511 97.8085C44.7283 98.2667 45.6844 98.2667 46.3019 97.8683C47.1385 97.3106 47.3974 96.0756 47.3974 96.0756C47.3775 96.1155 47.1385 96.9919 47.6962 97.5695C48.234 98.1272 49.0905 97.9679 49.5486 97.7687C50.0665 97.5297 50.3254 97.0915 50.5047 96.8126C51.0026 95.9561 50.9628 95.0797 50.903 94.6614C50.903 94.6614 50.9827 95.6574 51.6599 96.2549C52.2376 96.7529 53.0542 96.6931 53.6119 96.6533C54.0501 96.6134 55.2253 96.5338 55.5042 95.8565C55.7233 95.2988 55.3448 94.5618 55.3448 94.5618C55.3448 94.5618 55.803 95.0399 56.4403 95.3187C56.9981 95.5578 57.8147 95.5578 58.4322 95.1196C59.209 94.5818 59.5476 93.4066 59.1891 92.9285C58.7509 92.3708 57.2968 92.3708 57.2968 92.3708C57.2968 92.3708 57.496 91.8928 57.5558 91.3151C57.6155 90.6379 57.257 89.9209 56.6993 89.4627C56.2212 89.0843 55.3648 88.7258 54.7473 89.0644C53.9107 89.5026 53.7912 91.0164 53.7912 91.0164C53.7912 91.0164 54.2095 89.8213 53.6916 89.0644C53.2534 88.4469 52.3372 88.427 52.1977 88.4071C52.0583 88.4071 51.2018 88.3871 50.7039 88.9648C50.0665 89.7018 50.2457 90.9566 50.2457 90.9566C50.2457 90.9566 50.1262 89.9806 49.4888 89.5623C49.0108 89.2436 48.234 89.2835 47.736 89.6619C47.0787 90.1798 46.8994 91.2753 46.8994 91.2753Z" fill="#603813"/>
<path d="M73.9302 93.2659C73.9103 93.0468 73.7908 91.3537 74.9261 90.4773C76.2606 89.4415 78.3521 90.3578 79.4077 91.3736C80.9215 92.8077 80.7423 94.8394 80.7024 95.2577C80.6427 96.0544 80.5232 97.4487 79.4077 98.0463C78.5114 98.5243 77.2964 98.3251 76.3204 97.5483" fill="#E9CBA8"/>
<path d="M76.0212 93.8238C75.9614 93.7442 75.9216 93.6446 75.8817 93.545C75.8419 93.4454 75.822 93.3458 75.802 93.2462C75.7821 93.1466 75.7821 93.0271 75.802 92.9275C75.822 92.8279 75.8419 92.7084 75.8817 92.6088C75.9614 92.4096 76.1008 92.2105 76.3199 92.0909L76.3598 92.071H76.3797C76.3797 92.071 76.3797 92.071 76.3996 92.071H76.4195C76.4394 92.071 76.4594 92.0511 76.4992 92.0511C76.5589 92.0312 76.6386 92.0312 76.6984 92.0312C76.8179 92.0312 76.9374 92.0511 77.0569 92.071C77.276 92.1308 77.4951 92.2503 77.6545 92.4495C77.6943 92.4893 77.7341 92.5491 77.774 92.6088C77.8138 92.6686 77.8337 92.7084 77.8536 92.808C77.8736 92.8877 77.8736 93.0669 77.8536 93.1665C77.8138 93.4056 77.7142 93.6047 77.6146 93.8039C77.5549 93.9035 77.515 93.9832 77.4553 94.0828C77.3955 94.1824 77.3358 94.2621 77.2561 94.3417L77.1167 94.023C77.2163 94.023 77.2959 94.0429 77.3756 94.0629C77.4553 94.0828 77.5349 94.1027 77.6146 94.1226C77.774 94.1824 77.9333 94.262 78.0727 94.3616C78.1126 94.4015 78.1325 94.4214 78.1723 94.4413C78.2122 94.4812 78.252 94.5011 78.2719 94.5409C78.3317 94.6007 78.3914 94.6803 78.4313 94.76C78.5309 94.8994 78.5906 95.0588 78.6305 95.2381C78.6504 95.3177 78.6703 95.4173 78.6703 95.497C78.6703 95.5767 78.6703 95.6762 78.6504 95.7758C78.6305 95.8555 78.5906 95.9551 78.5109 96.0348C78.4512 96.1145 78.3516 96.1543 78.2719 96.1941C78.0927 96.2539 77.9333 96.2539 77.774 96.214C77.6146 96.1742 77.4553 96.1145 77.3158 96.0547C77.4752 96.0945 77.6146 96.1145 77.774 96.1344C77.9333 96.1344 78.0727 96.1145 78.1923 96.0547C78.252 96.0149 78.2918 95.995 78.3317 95.9352C78.3715 95.8954 78.3914 95.8356 78.3914 95.7559C78.3914 95.6962 78.3914 95.6165 78.3914 95.5567C78.3914 95.497 78.3715 95.4173 78.3317 95.3576C78.2918 95.2181 78.2122 95.0986 78.1325 94.9791C78.0927 94.9194 78.0528 94.8795 77.9931 94.8198L77.9333 94.76C77.9134 94.7401 77.8536 94.7003 77.8536 94.7003C77.7341 94.6206 77.5947 94.5807 77.4752 94.5409C77.4154 94.521 77.3358 94.5011 77.2561 94.4811C77.1963 94.4612 77.1167 94.4612 77.0569 94.4413L76.6984 94.4214L76.9175 94.1425C76.9772 94.0629 77.037 93.9832 77.0768 93.9035C77.1366 93.8238 77.1764 93.7442 77.2163 93.6446C77.3158 93.4852 77.3756 93.306 77.4154 93.1267C77.4354 93.0271 77.4752 93.0072 77.4553 92.8877H77.4951C77.4951 92.8678 77.4553 92.9076 77.4553 92.9076H77.4354H77.4154V92.8877V92.8678C77.4154 92.8478 77.3955 92.8279 77.3955 92.8279C77.3756 92.7881 77.3557 92.7682 77.3358 92.7283C77.2362 92.6088 77.0768 92.4893 76.9175 92.4296C76.8378 92.4096 76.7581 92.3897 76.6585 92.3698C76.6187 92.3698 76.5789 92.3698 76.539 92.3698C76.5191 92.3698 76.4992 92.3897 76.4594 92.3897H76.4394C76.4594 92.3897 76.4394 92.3897 76.4394 92.3897L76.4195 92.4096C76.2602 92.4694 76.1407 92.6088 76.0411 92.7682C76.0012 92.8478 75.9614 92.9474 75.9415 93.0271C75.9216 93.1267 75.9016 93.2064 75.9016 93.306C75.9016 93.4056 75.9016 93.5052 75.9216 93.6047C75.9216 93.6446 75.9415 93.7043 75.9614 93.7442L76.0212 93.8238Z" fill="#C69C6D"/>
<path d="M56.8998 98.3455C56.2226 98.6642 55.6649 99.4609 55.6051 100.238C55.5055 101.493 56.7604 101.851 56.8998 103.225C56.9994 104.341 56.2624 104.58 55.6051 106.412C55.2067 107.568 54.5893 109.281 55.3063 110.595C56.1628 112.149 58.5729 112.627 60.3855 112.189C62.9948 111.551 64.0306 109.042 64.17 108.703C65.4647 105.456 63.2139 102.369 62.6761 101.632C61.3217 99.7597 58.6128 97.5488 56.8998 98.3455Z" fill="#EEB995"/>
<path d="M53.9484 105.128C54.4012 104.991 54.5465 104.146 54.2729 103.241C53.9993 102.335 53.4104 101.712 52.9576 101.849C52.5048 101.985 52.3595 102.83 52.6331 103.736C52.9067 104.642 53.4956 105.265 53.9484 105.128Z" fill="#523010"/>
<path d="M66.299 100.746C66.7518 100.609 66.8971 99.764 66.6235 98.8584C66.3499 97.9527 65.761 97.3294 65.3082 97.4662C64.8554 97.603 64.7101 98.4481 64.9837 99.3538C65.2573 100.259 65.8462 100.883 66.299 100.746Z" fill="#523010"/>
<path d="M52.6377 102.11C52.6377 102.11 52.6377 102.07 52.6576 101.99C52.6775 101.91 52.6974 101.811 52.7572 101.711C52.817 101.592 52.9166 101.472 53.0361 101.353C53.0958 101.293 53.1556 101.253 53.2352 101.193C53.3149 101.154 53.3946 101.114 53.4743 101.074C53.534 101.054 53.6336 101.014 53.7332 100.994C53.8129 100.974 53.9125 100.974 53.9921 100.974C54.1515 100.974 54.3108 101.014 54.4303 101.054C54.5499 101.094 54.6495 101.154 54.7092 101.193C54.769 101.233 54.8088 101.273 54.8088 101.273C54.8088 101.273 54.769 101.273 54.6893 101.273C54.6096 101.273 54.51 101.273 54.4104 101.293C54.2909 101.293 54.1714 101.313 54.032 101.333C53.9722 101.353 53.8926 101.353 53.8328 101.373C53.773 101.393 53.7133 101.413 53.6336 101.432C53.5739 101.452 53.5141 101.492 53.4543 101.512C53.3946 101.552 53.3348 101.572 53.2751 101.612C53.1556 101.671 53.056 101.751 52.9763 101.831C52.8966 101.91 52.817 101.97 52.7572 102.01C52.6775 102.07 52.6377 102.11 52.6377 102.11Z" fill="#C69C6D"/>
<path d="M65.0859 97.609C65.0859 97.609 65.1059 97.5691 65.1656 97.5293C65.2054 97.4695 65.2851 97.4098 65.3847 97.3301C65.4843 97.2504 65.6237 97.1907 65.7632 97.1508C65.8428 97.1309 65.9225 97.111 66.0022 97.0911C66.0819 97.0712 66.1615 97.0712 66.2412 97.0712C66.5798 97.0712 66.8985 97.1708 67.0977 97.3102C67.1973 97.3699 67.277 97.4496 67.3367 97.4895C67.3765 97.5492 67.4164 97.5691 67.4164 97.5691C67.4164 97.5691 67.3766 97.5691 67.2969 97.5492C67.2371 97.5492 67.1375 97.5293 67.018 97.5094C66.7989 97.4895 66.5201 97.4496 66.2412 97.4496C66.1814 97.4496 66.1018 97.4496 66.042 97.4496C65.9823 97.4496 65.9026 97.4695 65.8428 97.4695C65.7034 97.4895 65.5839 97.5094 65.4843 97.5094C65.2453 97.5691 65.0859 97.609 65.0859 97.609Z" fill="#C69C6D"/>
<path d="M70.6436 113.782C70.6436 113.782 70.8029 113.703 71.0818 113.543C71.2212 113.464 71.3805 113.364 71.5797 113.245C71.759 113.125 71.9781 112.986 72.1972 112.826C72.4163 112.667 72.6553 112.488 72.8744 112.289C73.1134 112.089 73.3525 111.85 73.5716 111.611C73.8106 111.372 74.0297 111.093 74.2488 110.815C74.4679 110.536 74.687 110.237 74.8862 109.938C75.0854 109.639 75.2845 109.341 75.424 109.022C75.5634 108.703 75.6829 108.385 75.7427 108.066C75.8024 107.747 75.8024 107.428 75.7626 107.13C75.7427 107.05 75.7427 106.99 75.7227 106.911C75.7028 106.851 75.6829 106.771 75.663 106.711C75.6232 106.572 75.5634 106.452 75.5236 106.333C75.3045 105.855 75.0057 105.496 74.7866 105.257C74.5675 105.018 74.428 104.899 74.428 104.899C74.428 104.899 74.4679 104.919 74.5476 104.979C74.6272 105.018 74.7268 105.098 74.8463 105.198C75.1053 105.397 75.4439 105.716 75.7427 106.213C75.8223 106.333 75.8821 106.472 75.9418 106.612C75.9817 106.692 76.0016 106.771 76.0215 106.831C76.0414 106.911 76.0614 106.99 76.0813 107.07C76.1609 107.389 76.1809 107.747 76.1211 108.106C76.0813 108.464 75.9618 108.823 75.8024 109.161C75.6431 109.5 75.4439 109.819 75.2447 110.137C75.0256 110.436 74.8065 110.735 74.5675 111.014C74.3285 111.293 74.0894 111.572 73.8305 111.811C73.3325 112.289 72.7947 112.687 72.3167 112.966C71.8387 113.245 71.4204 113.444 71.1216 113.563C70.9822 113.623 70.8627 113.663 70.7631 113.703C70.6834 113.763 70.6436 113.782 70.6436 113.782Z" fill="#C69C6D"/>
<path fill-rule="evenodd" clip-rule="evenodd" d="M70.6063 100.428C70.4973 100.464 69.5657 100.795 69.2387 101.795L69.2384 101.796C68.9473 102.669 69.3511 103.42 69.4143 103.514L69.0828 103.735C68.9867 103.591 68.5142 102.709 68.8603 101.67C69.2505 100.479 70.3502 100.093 70.4803 100.05L70.6063 100.428Z" fill="#C69C6D"/>
<path d="M75.0256 121.908C74.9459 121.988 74.5675 122.327 74.3285 122.964C73.8106 124.378 74.0496 127.087 75.5833 128.78C78.2922 131.728 83.6702 130.095 84.5466 129.836C90.1436 128.163 92.4741 123.024 92.7131 122.466C94.7647 117.726 93.2509 113.483 92.7131 111.969C91.8168 109.499 90.8408 109.001 90.3229 108.842C89.3668 108.543 88.0721 108.822 87.6738 109.579C87.2953 110.276 87.8929 110.993 88.4107 112.368C88.5103 112.607 89.5262 115.475 88.8689 118.482C88.3709 120.773 87.0762 122.307 86.5384 122.865C85.9209 123.522 84.5067 124.836 82.2958 125.454C81.2401 125.753 78.9495 126.37 77.9735 125.314C76.9378 124.179 78.2922 122.008 77.3162 121.371C76.7386 120.992 75.6431 121.371 75.0256 121.908Z" fill="#1B6E91"/>
<path fill-rule="evenodd" clip-rule="evenodd" d="M77.5859 124.796C77.4207 124.814 76.3813 125.026 75.7671 126.004C75.4029 126.589 75.3399 127.194 75.3761 127.67C75.4125 128.147 75.5485 128.488 75.5725 128.536L75.3944 128.625C75.3586 128.554 75.2158 128.188 75.1775 127.685C75.139 127.179 75.2054 126.529 75.5981 125.899L75.5983 125.899C76.2588 124.846 77.3705 124.619 77.5639 124.598L77.5859 124.796Z" fill="#27A5DB"/>
<path fill-rule="evenodd" clip-rule="evenodd" d="M79.2209 126.06C78.9889 126.311 78.3674 127.068 78.2509 128.253C78.1539 129.262 78.4838 130.019 78.6392 130.33L78.4611 130.419C78.2978 130.092 77.9505 129.296 78.0527 128.234L78.0527 128.233C78.1752 126.988 78.8285 126.191 79.0745 125.925L79.2209 126.06Z" fill="#27A5DB"/>
<path fill-rule="evenodd" clip-rule="evenodd" d="M81.3578 127.731C81.2962 126.559 81.9121 125.718 82.0767 125.513L82.2322 125.637C82.0781 125.83 81.4989 126.622 81.5567 127.721C81.6338 129.186 82.7545 129.998 82.9044 130.092L82.7988 130.261C82.63 130.155 81.4401 129.294 81.3578 127.731Z" fill="#27A5DB"/>
<path fill-rule="evenodd" clip-rule="evenodd" d="M85.0277 124.334C84.3477 125.364 84.2352 126.64 84.7542 127.639L84.7545 127.64C85.1968 128.505 85.9674 128.892 86.2615 129.029L86.1773 129.21C85.8739 129.068 85.0511 128.658 84.5772 127.731C84.0208 126.659 84.1473 125.306 84.8615 124.224L85.0277 124.334Z" fill="#27A5DB"/>
<path fill-rule="evenodd" clip-rule="evenodd" d="M86.9141 122.573C86.8859 122.763 86.6896 124.093 87.6856 125.127L87.6863 125.128L87.6863 125.128C88.6875 126.186 90.0383 126.052 90.191 126.033L90.2157 126.231C90.0497 126.252 88.6122 126.396 87.5419 125.265C86.4771 124.159 86.6874 122.743 86.7168 122.545C86.7175 122.54 86.7181 122.536 86.7186 122.533L86.9158 122.561C86.9153 122.564 86.9148 122.568 86.9141 122.573Z" fill="#27A5DB"/>
<path fill-rule="evenodd" clip-rule="evenodd" d="M88.7017 119.487C88.7793 119.72 89.1465 120.742 90.2444 121.281C90.9377 121.618 91.6175 121.624 92.1434 121.534C92.6705 121.444 93.0379 121.26 93.0992 121.225L93.198 121.398C93.1198 121.442 92.7303 121.636 92.1769 121.73C91.6222 121.825 90.8978 121.82 90.1571 121.46L90.1567 121.46C88.984 120.884 88.5944 119.795 88.5127 119.55L88.7017 119.487Z" fill="#27A5DB"/>
<path fill-rule="evenodd" clip-rule="evenodd" d="M93.6493 114.877C93.4831 115.105 92.6447 116.108 91.1901 116.272C90.1646 116.395 89.3861 116.026 89.0801 115.862L89.1738 115.687C89.4654 115.842 90.2004 116.19 91.1667 116.074L91.1674 116.074L91.1674 116.074C92.5409 115.919 93.3357 114.97 93.4882 114.76L93.6493 114.877Z" fill="#27A5DB"/>
<path fill-rule="evenodd" clip-rule="evenodd" d="M92.29 110.754C92.1333 110.989 91.5132 111.917 90.3028 112.148L90.3014 112.148L90.3014 112.148C89.1281 112.354 88.2438 111.8 88.0732 111.672L88.1928 111.512C88.3408 111.623 89.1693 112.144 90.2663 111.952C91.3892 111.738 91.9659 110.879 92.1257 110.641C92.1379 110.623 92.1477 110.608 92.1551 110.598L92.3172 110.714C92.3107 110.723 92.3016 110.736 92.29 110.754Z" fill="#27A5DB"/>
<path d="M112.571 137.068C112.571 133.442 112.093 130.714 111.595 127.766C111.256 125.714 110.778 123.483 110.081 120.874C109.165 117.488 108.468 115.655 106.994 113.763C105.978 112.449 104.803 111.014 102.711 110.497C100.62 109.979 98.1498 110.497 96.636 111.891C95.4409 112.986 95.2816 114.938 94.943 118.723C94.5047 123.583 94.8035 127.148 94.9031 128.323C95.1222 130.594 95.4409 132.486 95.6998 133.801C96.3173 133.662 97.2136 133.482 98.2892 133.403C99.7234 133.303 101.735 133.323 103.986 133.921C105.221 134.239 106.436 134.578 107.79 135.494C108.109 135.713 108.866 136.251 109.643 137.107C110.539 138.083 111.117 139.099 111.376 139.557C111.674 140.075 112.272 141.25 112.272 141.25C112.272 141.25 112.292 141.33 112.332 141.49C112.451 140.434 112.571 138.9 112.571 137.068Z" fill="#2EC1FF"/>
<path d="M103.965 131.55C103.587 131.511 102.212 131.451 101.376 132.387C100.659 133.184 100.739 134.319 100.818 135.235C101.137 138.96 101.476 142.027 101.476 142.067C101.695 145.812 101.814 147.664 100.938 149.497C99.643 152.226 97.1333 153.54 95.9581 154.138C95.1415 154.576 92.6118 155.751 89.2456 155.592C86.4371 155.452 86.1583 154.496 81.6169 153.461C78.3702 152.724 76.717 152.365 75.0438 153.062C72.4744 154.118 71.3589 156.707 70.861 157.843C70.4825 158.739 69.5065 160.97 70.2634 163.36C70.5821 164.376 71.4187 166.009 72.315 165.949C72.9325 165.91 73.3707 165.093 73.4504 164.954C73.8089 164.296 73.6695 163.778 73.6695 162.703C73.6695 160.99 74.0081 159.854 73.9882 159.854C73.9682 159.854 73.7093 160.95 73.6894 162.344C73.6695 163.4 73.6496 164.037 73.9483 164.774C74.028 164.973 74.765 166.846 76.0597 166.886C76.5576 166.906 77.1353 166.647 77.4141 166.188C77.6332 165.83 77.5735 165.432 77.4938 164.954C77.3743 164.177 77.1552 164.117 76.9759 163.36C76.7568 162.424 76.8962 161.667 76.9361 161.468C77.0954 160.691 77.4739 160.133 77.4938 160.133C77.5336 160.153 76.956 160.99 76.9162 162.205C76.8763 162.982 77.0755 163.599 77.2149 164.037C77.4141 164.695 77.5336 165.053 77.8722 165.332C78.2706 165.671 78.9877 165.969 79.5454 165.69C80.0434 165.451 80.2027 164.914 80.3421 164.436C80.382 164.296 80.5413 163.739 80.4417 162.942C80.3023 161.966 79.9438 161.826 80.0234 161.249C80.1031 160.691 80.5612 160.113 81.1189 159.914C81.7962 159.675 82.3539 160.093 83.5689 160.571C83.5689 160.571 84.1665 160.811 86.3176 161.328C88.8871 161.946 91.3371 161.667 92.8907 161.488C94.7829 161.269 96.8345 161.03 99.2048 159.934C100.42 159.376 103.945 157.683 106.176 153.819C107.571 151.409 107.829 149.298 108.168 146.31C108.447 143.92 108.009 145.035 107.829 137.406C107.79 135.793 107.79 134.339 106.774 133.084C106.535 132.865 105.579 131.69 103.965 131.55Z" fill="#E9CBA8"/>
<path d="M79.3865 164.275C79.3865 164.275 79.3068 164.036 79.267 163.658C79.2471 163.479 79.2471 163.259 79.2471 163.02C79.267 162.781 79.3068 162.522 79.3467 162.283C79.4662 161.785 79.6853 161.327 79.8845 161.029C80.0836 160.71 80.2629 160.531 80.2629 160.531C80.2629 160.531 80.243 160.59 80.1832 160.69C80.1235 160.79 80.0637 160.929 79.984 161.088C79.9044 161.248 79.8247 161.447 79.745 161.666C79.6654 161.885 79.5857 162.104 79.5458 162.343C79.4263 162.821 79.3865 163.299 79.3666 163.658C79.3666 163.837 79.3666 163.996 79.3666 164.096C79.3865 164.216 79.3865 164.275 79.3865 164.275Z" fill="#C69C6D"/>
<path d="M64.8283 138.482C65.625 139.259 67.1587 140.573 69.4693 141.41C71.6802 142.206 73.6123 142.206 74.7078 142.127C74.8273 142.485 74.9468 143.003 75.0066 143.621C75.0663 144.417 75.146 145.354 74.7476 145.911C73.9111 147.086 71.0229 146.35 69.7083 145.852C68.6526 145.453 66.4417 144.637 65.3263 142.306C64.6092 140.693 64.7287 139.159 64.8283 138.482Z" fill="#1B6E91"/>
<path fill-rule="evenodd" clip-rule="evenodd" d="M72.9336 146.449V142.266H73.1328V146.449H72.9336Z" fill="#27A5DB"/>
<path fill-rule="evenodd" clip-rule="evenodd" d="M70.8018 146.208L70.8814 141.846L71.0806 141.849L71.0009 146.211L70.8018 146.208Z" fill="#27A5DB"/>
<path fill-rule="evenodd" clip-rule="evenodd" d="M69.0488 145.748L69.2082 141.326L69.4072 141.333L69.2479 145.755L69.0488 145.748Z" fill="#27A5DB"/>
<path d="M36.284 137.425C36.284 137.425 43.3151 135.951 52.0792 135.493C60.8433 135.035 66.1615 135.493 66.1615 135.493C66.1615 135.493 66.9583 146.727 67.6156 149.117C68.2729 151.507 72.2565 167.98 72.2565 167.98L42.379 168.777C40.6262 165.43 38.6144 160.829 37.3396 155.093C35.7262 147.882 35.8457 141.688 36.284 137.425Z" fill="#CCCCCC"/>
<path d="M36.1844 138.482L63.612 136.769C63.612 136.769 64.0303 147.385 64.5681 149.895C65.1059 152.425 69.3087 168.041 69.3087 168.041L42.399 168.758C41.7217 167.363 40.8254 165.352 39.9092 162.882C38.8535 160.013 37.1803 155.452 36.4234 149.357C36.0848 146.688 35.8259 142.963 36.1844 138.482Z" fill="#E6E6E6"/>
<path d="M74.9255 176.287L95.1427 173.239L94.1468 167.562L73.5312 170.849L74.9255 176.287Z" fill="#E6E6E6"/>
<path d="M107.592 186.285C107.592 186.285 96.8364 185.269 84.2281 181.763C73.7311 178.855 64.7081 173.657 64.7081 173.657C62.7162 172.501 60.0073 170.828 55.944 170.071C53.0558 169.533 47.2396 168.438 43.9929 172.063C41.9414 174.354 41.5031 177.839 42.3995 180.568C43.5348 184.034 46.7018 185.787 49.829 187.34C61.063 192.898 71.1616 195.348 74.3884 196.105C76.2408 196.543 77.1371 196.722 77.9139 196.842C79.2086 197.021 80.1846 197.1 80.5233 197.12C85.8215 197.459 89.9247 198.634 96.5775 198.634C100.442 198.634 105.043 198.236 105.202 198.236C105.919 196.324 106.596 194.013 107.055 191.324C107.373 189.492 107.533 187.799 107.592 186.285Z" fill="#2B3138"/>
<path d="M113.566 169.155C110.12 165.251 103.288 167.064 101.874 167.423C98.6276 168.279 98.2691 169.414 91.6562 173C90.72 173.498 88.509 174.573 84.0872 176.724C76.2194 180.529 72.2158 182.461 69.2081 183.636C64.368 185.508 61.9379 186.465 60.4839 186.684C58.4522 187.002 57.3368 186.923 56.5002 187.879C54.4685 190.209 57.0579 195.328 57.2571 195.707C58.014 197.181 58.9502 198.953 60.8424 199.69C62.4359 200.308 63.5513 199.75 68.2521 198.336C72.0166 197.201 67.9931 198.575 76.5182 196.045C80.4421 194.89 83.4099 193.974 84.2266 193.715C92.8911 191.046 97.2333 189.711 97.5122 189.592C100.958 188.257 105.798 186.086 110.658 182.162C113.606 179.772 114.722 178.218 115.18 176.326C115.698 174.055 115.319 171.147 113.566 169.155Z" fill="#2B3138"/>
<path d="M107.651 186.325C110.141 186.305 112.472 186.385 114.623 186.524C116.933 186.664 118.826 186.863 120.957 187.819C121.275 187.958 121.475 188.038 121.714 188.197C122.271 188.516 125.618 190.568 125.598 193.974C125.578 197.061 122.769 198.993 122.212 199.352C119.802 200.905 117.252 200.646 113.547 200.248C111.555 200.029 108.607 199.531 105.142 198.196C105.42 197.459 105.779 196.483 106.138 195.308C106.875 192.858 107.173 190.966 107.273 190.369C107.452 189.253 107.611 187.899 107.651 186.325Z" fill="#B3B3B3"/>
<path d="M104.306 185.866C104.246 187.54 104.047 189.591 103.509 191.862C102.872 194.571 101.956 196.802 101.119 198.495C102.474 198.415 103.828 198.335 105.163 198.236C106.198 195.607 106.656 193.555 106.895 192.24C107.214 190.368 107.513 187.5 107.553 187.141C107.593 186.803 107.613 186.524 107.632 186.344C106.517 186.185 105.402 186.026 104.306 185.866Z" fill="#46505C"/>
<path d="M64.369 199.432C63.4328 198.675 61.3613 196.763 60.226 193.516C59.2101 190.588 59.4691 188.059 59.6882 186.883C59.25 186.923 58.4732 187.043 57.6366 187.541C56.561 188.158 56.0232 189.035 55.7842 189.433C55.8439 191.146 56.1626 192.52 56.4415 193.476C56.8797 194.95 57.3976 196.763 58.991 198.356C59.7679 199.133 60.5447 199.611 61.0825 199.91C61.5207 199.97 62.1381 200.03 62.8751 199.91C63.4926 199.791 64.0105 199.591 64.369 199.432Z" fill="#46505C"/>
<path d="M107.252 196.245C107.67 195.587 108.407 194.233 108.547 192.5C108.666 191.026 108.347 189.333 108.148 189.054C108.148 189.034 108.108 188.994 108.128 188.955C108.208 188.775 109.204 189.054 109.204 189.054C109.304 189.313 109.443 189.652 109.543 190.07C109.602 190.329 109.782 191.126 109.702 192.221C109.642 192.958 109.423 193.695 108.985 195.169C108.826 195.727 108.666 196.185 108.567 196.484C108.108 196.404 107.67 196.324 107.252 196.245Z" fill="#1A1A1A"/>
<path d="M110.779 189.273H112.373C112.612 190.07 112.831 191.385 112.771 192.918C112.711 194.631 112.313 195.986 111.954 196.922C111.397 196.882 110.839 196.822 110.281 196.763C110.68 196.045 111.337 194.671 111.397 192.739C111.437 191.185 111.058 189.871 110.779 189.273Z" fill="#1A1A1A"/>
<path d="M114.564 189.273H116.356C116.596 190.07 116.815 191.504 116.815 193.038C116.815 194.631 116.576 195.946 116.317 196.942C115.699 196.942 115.062 196.942 114.444 196.962C114.763 195.966 115.141 194.811 115.161 193.137C115.181 191.464 114.843 190.07 114.564 189.273Z" fill="#1A1A1A"/>
<path d="M107.493 188.835C107.493 188.835 107.792 188.835 108.31 188.835C108.828 188.855 109.565 188.855 110.441 188.875C110.879 188.895 111.357 188.875 111.855 188.895C112.353 188.895 112.891 188.915 113.449 188.915C114.006 188.915 114.564 188.935 115.142 188.935C115.441 188.935 115.719 188.935 116.018 188.955C116.317 188.955 116.616 188.955 116.934 189.015C117.094 189.035 117.253 189.094 117.393 189.154C117.532 189.214 117.671 189.274 117.811 189.333C118.09 189.473 118.349 189.632 118.588 189.791C119.066 190.15 119.484 190.588 119.783 191.086L119.882 191.265C119.922 191.345 119.942 191.385 119.982 191.465C120.002 191.524 120.042 191.584 120.062 191.644C120.082 191.704 120.101 191.783 120.141 191.843C120.241 192.102 120.301 192.361 120.341 192.62C120.42 193.138 120.4 193.636 120.341 194.074C120.281 194.512 120.161 194.91 120.022 195.249C119.882 195.588 119.743 195.867 119.604 196.086C119.464 196.305 119.345 196.464 119.265 196.584C119.185 196.683 119.126 196.743 119.126 196.743C119.126 196.743 119.165 196.683 119.245 196.564C119.325 196.444 119.424 196.285 119.544 196.046C119.663 195.827 119.783 195.528 119.882 195.189C119.982 194.851 120.082 194.452 120.121 194.034C120.161 193.596 120.161 193.138 120.062 192.66C120.002 192.421 119.942 192.182 119.843 191.943L119.763 191.763C119.743 191.704 119.703 191.644 119.683 191.584C119.663 191.524 119.623 191.465 119.584 191.405L119.484 191.246C119.205 190.807 118.807 190.409 118.369 190.07C117.93 189.752 117.393 189.493 116.875 189.373C116.616 189.333 116.317 189.333 116.038 189.313C115.739 189.313 115.461 189.294 115.162 189.294C114.584 189.294 114.006 189.254 113.469 189.234C112.911 189.214 112.393 189.174 111.875 189.154C111.377 189.134 110.899 189.114 110.461 189.074C109.585 189.015 108.848 188.935 108.33 188.895C107.792 188.855 107.493 188.835 107.493 188.835Z" fill="#F2F2F2"/>
<path d="M106.196 195.986C106.196 195.986 106.376 196.006 106.694 196.066C107.013 196.126 107.471 196.186 108.029 196.265C108.586 196.345 109.224 196.425 109.901 196.504C110.24 196.544 110.598 196.584 110.957 196.604C111.315 196.644 111.694 196.664 112.052 196.683C112.411 196.703 112.789 196.743 113.148 196.743C113.506 196.763 113.865 196.783 114.203 196.783C114.901 196.803 115.538 196.803 116.096 196.803C116.653 196.803 117.112 196.783 117.43 196.783C117.749 196.783 117.948 196.763 117.948 196.763C117.948 196.763 117.769 196.803 117.45 196.863C117.131 196.922 116.673 196.982 116.116 197.042C115.558 197.102 114.921 197.142 114.203 197.162C113.845 197.162 113.486 197.162 113.128 197.162C112.769 197.142 112.391 197.142 112.012 197.102C111.634 197.082 111.275 197.042 110.897 197.002C110.538 196.962 110.18 196.903 109.841 196.863C109.144 196.763 108.507 196.624 107.969 196.504C107.431 196.385 106.973 196.245 106.674 196.146C106.376 196.046 106.196 195.986 106.196 195.986Z" fill="#F2F2F2"/>
<path d="M105.46 197.898C105.46 197.898 105.52 197.898 105.619 197.878C105.719 197.858 105.858 197.838 106.038 197.818C106.416 197.778 106.934 197.719 107.571 197.699C107.89 197.679 108.249 197.679 108.607 197.699C108.986 197.699 109.364 197.719 109.762 197.758C110.161 197.798 110.579 197.838 110.997 197.898C111.416 197.958 111.834 198.037 112.252 198.137C112.67 198.237 113.089 198.336 113.487 198.456C113.885 198.575 114.284 198.695 114.662 198.814C115.419 199.053 116.136 199.312 116.714 199.571C117.311 199.81 117.789 200.049 118.128 200.208C118.287 200.288 118.427 200.368 118.506 200.408C118.586 200.447 118.646 200.487 118.646 200.487C118.646 200.487 118.447 200.408 118.088 200.288C117.73 200.169 117.232 199.989 116.634 199.79C116.037 199.591 115.32 199.372 114.563 199.173C114.184 199.073 113.786 198.954 113.387 198.854C112.989 198.754 112.571 198.655 112.172 198.555C111.356 198.376 110.519 198.237 109.742 198.137C109.344 198.097 108.966 198.057 108.607 198.017C108.249 197.997 107.91 197.978 107.591 197.958C106.954 197.938 106.436 197.918 106.058 197.938C105.659 197.878 105.46 197.898 105.46 197.898Z" fill="#F2F2F2"/>
<path d="M114.563 198.794C114.563 198.794 114.663 198.794 114.842 198.774C115.022 198.774 115.261 198.755 115.559 198.735C115.699 198.735 115.858 198.715 116.037 198.715C116.197 198.695 116.376 198.695 116.555 198.675C116.735 198.655 116.914 198.635 117.113 198.635C117.312 198.615 117.491 198.595 117.691 198.575C117.89 198.555 118.069 198.535 118.268 198.516C118.448 198.496 118.647 198.456 118.826 198.436C119.185 198.376 119.523 198.316 119.802 198.277C120.101 198.217 120.34 198.177 120.499 198.157C120.678 198.137 120.758 198.117 120.758 198.117C120.758 198.117 120.678 198.157 120.519 198.237C120.36 198.316 120.141 198.416 119.862 198.516C119.583 198.615 119.244 198.715 118.886 198.794C118.707 198.834 118.527 198.874 118.328 198.914C118.129 198.954 117.93 198.974 117.75 198.994C117.551 199.014 117.352 199.033 117.153 199.033C116.954 199.053 116.774 199.053 116.575 199.053C116.197 199.053 115.858 199.033 115.559 198.994C115.261 198.954 115.022 198.914 114.842 198.874C114.663 198.814 114.563 198.794 114.563 198.794Z" fill="#F2F2F2"/>
<path d="M107.752 187.281C107.752 187.281 108.031 187.281 108.509 187.261C108.987 187.261 109.664 187.261 110.481 187.281C111.297 187.301 112.254 187.341 113.269 187.421C113.787 187.461 114.305 187.5 114.843 187.54C115.381 187.6 115.918 187.64 116.456 187.72C116.994 187.779 117.532 187.859 118.07 187.939C118.607 188.018 119.125 188.138 119.623 188.277C120.121 188.417 120.599 188.616 121.018 188.835C121.436 189.054 121.814 189.333 122.113 189.632C122.272 189.771 122.392 189.93 122.511 190.07C122.631 190.209 122.731 190.369 122.83 190.508C123.009 190.787 123.149 191.046 123.248 191.265C123.348 191.484 123.408 191.663 123.448 191.783C123.487 191.902 123.507 191.962 123.507 191.962C123.507 191.962 123.487 191.902 123.428 191.783C123.368 191.663 123.288 191.504 123.189 191.285C123.069 191.086 122.93 190.827 122.731 190.568C122.531 190.309 122.272 190.03 121.974 189.771C121.675 189.512 121.316 189.273 120.898 189.074C120.5 188.875 120.042 188.715 119.544 188.596C119.066 188.476 118.548 188.377 118.03 188.297C117.512 188.217 116.954 188.158 116.416 188.098C115.879 188.038 115.341 187.978 114.803 187.919C114.265 187.859 113.747 187.819 113.249 187.759C112.751 187.72 112.254 187.66 111.795 187.62C111.337 187.58 110.899 187.54 110.481 187.5C108.828 187.381 107.752 187.281 107.752 187.281Z" fill="#F2F2F2"/>
<path d="M74.0904 93.1671C74.0904 93.1671 74.0705 93.0874 74.0306 92.948C74.0107 92.8085 73.9709 92.6093 73.9908 92.3504C74.0107 92.1114 74.0505 91.8126 74.1501 91.5138C74.2099 91.3744 74.2696 91.2151 74.3493 91.0756C74.429 90.9362 74.5286 90.7968 74.6481 90.6573C74.7676 90.5378 74.8871 90.4183 75.0265 90.3187C75.0863 90.2789 75.166 90.2191 75.2456 90.1992C75.2855 90.1793 75.3253 90.1594 75.3652 90.1395L75.4647 90.0996C75.7635 89.9801 76.0623 89.9602 76.3212 89.9602C76.5802 89.9602 76.7794 90.02 76.9188 90.0598C77.0582 90.0996 77.1379 90.1395 77.1379 90.1395C77.1379 90.1395 77.0582 90.1196 76.9188 90.0996C76.7794 90.0797 76.5802 90.0598 76.3412 90.0797C76.2216 90.0797 76.1021 90.0996 75.9627 90.1395C75.8233 90.1594 75.7038 90.2191 75.5643 90.2789L75.4647 90.3187C75.4448 90.3387 75.405 90.3586 75.3652 90.3785C75.3054 90.4183 75.2257 90.4582 75.166 90.498C75.0465 90.5777 74.9269 90.6972 74.8274 90.8167C74.7278 90.9362 74.6282 91.0557 74.5485 91.1951C74.4688 91.3346 74.3891 91.474 74.3294 91.5935C74.2099 91.8724 74.1302 92.1313 74.1103 92.3703C74.0904 92.6094 74.0705 92.8085 74.0904 92.948C74.0705 93.0874 74.0904 93.1671 74.0904 93.1671Z" fill="#C69C6D"/>
<path d="M76.2217 97.6488C76.2217 97.6488 76.2615 97.6886 76.3611 97.7484C76.4408 97.8082 76.5603 97.8878 76.7196 97.9476C77.0184 98.1069 77.4367 98.2663 77.8948 98.2862C78.0143 98.2862 78.1139 98.3061 78.2334 98.2862C78.3529 98.2862 78.4525 98.2663 78.5521 98.2464C78.7513 98.2065 78.9505 98.1667 79.1098 98.1069C79.2692 98.0472 79.4086 97.9874 79.4883 97.9476C79.5879 97.9077 79.6277 97.8679 79.6277 97.8679C79.6277 97.8679 79.5879 97.9077 79.5082 97.9675C79.4285 98.0272 79.309 98.1268 79.1497 98.2065C78.9903 98.2862 78.7911 98.3659 78.572 98.4057C78.4725 98.4256 78.3529 98.4455 78.2334 98.4655C78.1139 98.4655 77.9944 98.4655 77.8749 98.4655C77.6359 98.4455 77.3969 98.3858 77.1977 98.3061C76.9985 98.2264 76.7993 98.1268 76.6599 98.0273C76.5205 97.9277 76.4009 97.8281 76.3412 97.7484C76.2615 97.6886 76.2217 97.6488 76.2217 97.6488Z" fill="#C69C6D"/>
<path d="M95.1631 130.693C96.637 130.434 98.7285 130.235 101.198 130.574C103.111 130.833 105.441 131.131 107.732 132.665C109.544 133.88 111.476 135.952 112.293 136.808C112.432 136.948 112.532 137.067 112.612 137.167C112.612 137.844 112.592 138.541 112.552 139.298C112.512 140.135 112.432 140.931 112.333 141.668C112.054 140.872 111.576 139.816 110.799 138.681C110.5 138.242 109.703 137.067 108.449 136.051C106.019 134.059 103.29 133.741 101.656 133.542C100.342 133.382 98.2305 133.283 95.681 133.9C95.5017 132.805 95.3424 131.749 95.1631 130.693Z" fill="#1B6E91"/>
<path fill-rule="evenodd" clip-rule="evenodd" d="M96.8643 132.037C96.9191 132.54 96.9738 133.043 97.0335 133.55L96.8357 133.573C96.7759 133.065 96.7211 132.562 96.6663 132.059L96.6663 132.059C96.6115 131.556 96.5568 131.053 96.4971 130.546L96.6949 130.522C96.7547 131.031 96.8095 131.534 96.8643 132.037L96.8643 132.037Z" fill="#27A5DB"/>
<path fill-rule="evenodd" clip-rule="evenodd" d="M98.3314 133.425L98.2119 130.398L98.4109 130.39L98.5305 133.418L98.3314 133.425Z" fill="#27A5DB"/>
<path fill-rule="evenodd" clip-rule="evenodd" d="M100.82 133.502V130.514H101.019V133.502H100.82Z" fill="#27A5DB"/>
<path fill-rule="evenodd" clip-rule="evenodd" d="M103.011 133.701V130.912H103.21V133.701H103.011Z" fill="#27A5DB"/>
<path fill-rule="evenodd" clip-rule="evenodd" d="M104.823 134.212L105.003 131.364L105.201 131.377L105.022 134.225L104.823 134.212Z" fill="#27A5DB"/>
<path fill-rule="evenodd" clip-rule="evenodd" d="M107.632 135.487L107.831 132.798L108.03 132.812L107.83 135.501L107.632 135.487Z" fill="#27A5DB"/>
<path fill-rule="evenodd" clip-rule="evenodd" d="M110.26 138.019L110.379 134.951L110.578 134.959L110.459 138.027L110.26 138.019Z" fill="#27A5DB"/>
<path d="M73.8301 153.818C73.8301 153.818 73.7704 153.878 73.6708 153.998C73.5712 154.097 73.4118 154.276 73.2326 154.456C73.0533 154.655 72.8541 154.874 72.6549 155.133C72.4557 155.392 72.2366 155.671 72.0375 155.95C71.8383 156.228 71.659 156.527 71.4797 156.806C71.3204 157.085 71.161 157.344 71.0415 157.583C70.922 157.822 70.8224 158.001 70.7627 158.141C70.7029 158.28 70.6631 158.36 70.6631 158.36C70.6631 158.36 70.683 158.28 70.7228 158.121C70.7627 157.981 70.8424 157.762 70.9419 157.523C71.0415 157.284 71.161 157.005 71.3204 156.707C71.4797 156.408 71.659 156.109 71.8582 155.83C72.0574 155.551 72.2765 155.252 72.4956 155.013C72.7147 154.774 72.9338 154.555 73.133 154.376C73.3321 154.197 73.4915 154.057 73.611 153.958C73.7504 153.878 73.8301 153.818 73.8301 153.818Z" fill="#C69C6D"/>
<path d="M73.1328 165.371C73.1328 165.371 73.1926 165.291 73.2722 165.132C73.3519 164.973 73.4515 164.754 73.5511 164.475C73.5909 164.335 73.6308 164.176 73.6507 164.017C73.6706 163.857 73.6507 163.678 73.6507 163.499C73.6308 163.32 73.6109 163.12 73.5909 162.921C73.571 162.722 73.571 162.523 73.571 162.324C73.571 161.925 73.5909 161.527 73.6507 161.148C73.7104 160.77 73.81 160.431 73.9096 160.153C74.0092 159.874 74.1287 159.655 74.2084 159.495C74.2881 159.336 74.3478 159.256 74.3478 159.256C74.3478 159.256 74.308 159.356 74.2482 159.515C74.1885 159.675 74.1088 159.914 74.0291 160.192C73.9495 160.471 73.8897 160.81 73.8499 161.188C73.81 161.547 73.7901 161.945 73.7901 162.344C73.7901 162.742 73.81 163.12 73.83 163.499C73.8499 163.678 73.83 163.877 73.81 164.057C73.7702 164.236 73.7304 164.395 73.6706 164.535C73.571 164.813 73.4316 165.033 73.332 165.172C73.1926 165.291 73.1328 165.371 73.1328 165.371Z" fill="#C69C6D"/>
<path d="M77.5147 165.869C77.5147 165.869 77.5147 165.769 77.5147 165.61C77.5147 165.451 77.4948 165.212 77.455 164.933C77.4151 164.654 77.3354 164.335 77.2159 164.017C77.1562 163.857 77.0765 163.698 77.0167 163.519C76.9371 163.359 76.8773 163.16 76.8375 162.961C76.7777 162.582 76.7976 162.184 76.8773 161.846C76.9171 161.666 76.957 161.507 76.9968 161.348C77.0367 161.188 77.0964 161.049 77.1363 160.909C77.2358 160.65 77.3354 160.431 77.3952 160.292C77.4749 160.152 77.5147 160.053 77.5147 160.053C77.5147 160.053 77.4948 160.133 77.435 160.292C77.3753 160.451 77.3155 160.67 77.2358 160.929C77.1562 161.188 77.0765 161.507 77.0367 161.846C77.0167 162.025 76.9968 162.184 76.9968 162.363C76.9968 162.543 76.9968 162.722 77.0367 162.901C77.0566 163.08 77.1163 163.24 77.196 163.399C77.2757 163.558 77.3354 163.738 77.3952 163.917C77.5147 164.256 77.5545 164.594 77.5745 164.873C77.5944 165.152 77.5745 165.391 77.5745 165.55C77.5346 165.789 77.5147 165.869 77.5147 165.869Z" fill="#C69C6D"/>
<path d="M94.1462 167.622L72.2759 168.04L42.7568 170.948H73.5307L94.1462 167.622Z" fill="#CCCCCC"/>
<path d="M42.6592 170.949V174.534L74.8871 176.346L73.5327 170.949H42.6592Z" fill="#E6E6E6"/>
<path d="M47.4377 167.761C48.0153 166.746 50.0271 166.387 50.9234 167.164C51.2421 167.443 51.2222 167.682 51.6206 169.753C51.999 171.685 52.0986 171.904 51.9193 172.243C51.3616 173.299 49.1507 173.617 48.2344 172.741C47.9755 172.502 47.9755 172.303 47.6369 170.251C47.3182 168.279 47.2584 168.06 47.4377 167.761Z" fill="#B3B3B3"/>
<path d="M63.4729 167.263C63.3534 167.483 63.3136 167.702 63.5725 169.654C63.8912 171.984 64.0107 172.183 64.17 172.343C65.0863 173.299 67.3172 173.219 68.0541 172.143C68.3728 171.685 68.2932 171.068 68.1537 169.853C67.9346 168.06 67.835 167.164 67.1578 166.666C66.0822 165.849 64.0705 166.248 63.4729 167.263Z" fill="#B3B3B3"/>
<path d="M76.0205 119.16C76.0205 119.16 76.2396 119.001 76.6181 118.722C76.9965 118.443 77.5343 118.005 78.1119 117.427C78.4107 117.149 78.6896 116.81 79.0083 116.471C79.307 116.113 79.6058 115.734 79.8847 115.316C80.0241 115.117 80.1635 114.898 80.303 114.679C80.4225 114.46 80.5619 114.221 80.6814 114.002C80.7412 113.882 80.8009 113.762 80.8607 113.643L80.9005 113.563L80.9204 113.523L80.9404 113.484L81.02 113.304L81.1794 112.926C81.2391 112.806 81.279 112.667 81.3188 112.547C81.3985 112.289 81.4981 112.05 81.5777 111.791C81.6574 111.532 81.7371 111.273 81.7968 111.014C81.8566 110.755 81.9163 110.496 81.9562 110.237C81.996 109.978 82.0558 109.739 82.0757 109.48C82.1354 108.982 82.1753 108.484 82.1952 108.026C82.2151 107.568 82.1952 107.13 82.1753 106.711C82.1554 106.512 82.1554 106.313 82.1355 106.134C82.1155 105.954 82.0956 105.775 82.0757 105.616C82.0359 105.297 81.996 104.998 81.9363 104.759C81.8566 104.301 81.7769 104.022 81.7769 104.022C81.7769 104.022 81.7968 104.082 81.8367 104.202C81.8765 104.321 81.9363 104.5 81.996 104.739C82.0558 104.978 82.1355 105.257 82.1952 105.576C82.2749 105.895 82.3346 106.273 82.3745 106.691C82.4741 107.508 82.5139 108.484 82.3944 109.52C82.3745 109.779 82.3346 110.038 82.2948 110.297C82.255 110.556 82.1952 110.815 82.1355 111.093C82.0757 111.352 81.996 111.631 81.9163 111.89C81.8367 112.149 81.7371 112.408 81.6574 112.687C81.6176 112.826 81.5578 112.946 81.4981 113.065L81.3387 113.444L81.259 113.623L81.2391 113.663L81.2192 113.723L81.1794 113.822C81.1196 113.942 81.0599 114.061 81.0001 114.181C80.8806 114.42 80.7412 114.659 80.6017 114.878C80.4424 115.097 80.3229 115.316 80.1635 115.535C79.8648 115.954 79.5261 116.332 79.2274 116.69C78.9087 117.029 78.59 117.348 78.2713 117.627C77.9725 117.906 77.6538 118.125 77.3949 118.324C77.116 118.523 76.877 118.682 76.6778 118.802C76.4786 118.921 76.3193 119.021 76.1998 119.081C76.0803 119.121 76.0205 119.16 76.0205 119.16Z" fill="#C69C6D"/>
<path d="M95.9011 112.448C95.9011 112.448 95.8414 112.727 95.7617 113.205C95.6621 113.683 95.5625 114.38 95.4231 115.216C95.3036 116.053 95.1641 117.029 95.0645 118.085C95.0048 118.602 94.9649 119.16 94.9251 119.698C94.8853 120.256 94.8654 120.813 94.8454 121.371C94.8255 121.929 94.8056 122.487 94.8056 123.044C94.8056 123.602 94.8056 124.14 94.8255 124.678C94.8454 125.195 94.8654 125.713 94.8853 126.191C94.9052 126.669 94.945 127.128 94.9649 127.546C95.0247 128.382 95.0845 129.099 95.1442 129.577C95.204 130.075 95.2239 130.354 95.2239 130.354C95.2239 130.354 95.204 130.295 95.184 130.155C95.1641 130.016 95.1044 129.836 95.0645 129.597C95.0247 129.358 94.9649 129.06 94.9052 128.721C94.8454 128.382 94.7857 128.004 94.7259 127.566C94.6662 127.147 94.6064 126.689 94.5666 126.211C94.5267 125.733 94.4869 125.215 94.4471 124.678C94.4271 124.14 94.4072 123.602 94.4072 123.044C94.4072 122.487 94.4072 121.929 94.4271 121.351C94.4471 120.793 94.4869 120.216 94.5267 119.658C94.5666 119.1 94.6263 118.563 94.706 118.025C94.8454 116.969 95.0048 115.993 95.184 115.157C95.3633 114.32 95.5426 113.643 95.6621 113.165C95.7218 112.926 95.7816 112.746 95.8214 112.607C95.8812 112.527 95.9011 112.448 95.9011 112.448Z" fill="#28A9DE"/>
<path d="M74.6684 141.668C74.6684 141.668 74.6485 141.609 74.6285 141.509C74.6086 141.409 74.5688 141.25 74.529 141.051C74.4493 140.653 74.3298 140.095 74.2103 139.418C74.1505 139.079 74.0908 138.701 74.0509 138.322C73.9912 137.924 73.9513 137.525 73.9115 137.087C73.8119 136.231 73.7521 135.314 73.7123 134.398C73.6924 133.94 73.6924 133.482 73.6924 133.024C73.6924 132.566 73.6924 132.128 73.7123 131.689C73.7322 130.833 73.792 130.016 73.8517 129.339C73.9115 128.662 73.9912 128.084 74.0509 127.686C74.0708 127.487 74.1107 127.327 74.1306 127.228C74.1505 127.128 74.1505 127.068 74.1505 127.068C74.1505 127.068 74.1505 127.307 74.1306 127.706C74.1107 128.104 74.0908 128.682 74.0908 129.359C74.0708 130.036 74.0708 130.853 74.0708 131.709C74.0708 132.128 74.0708 132.586 74.0908 133.024C74.0908 133.482 74.1107 133.92 74.1306 134.378C74.1505 134.836 74.1704 135.295 74.1903 135.733C74.2103 136.191 74.2302 136.629 74.27 137.047C74.3298 137.904 74.4094 138.701 74.4692 139.378C74.529 140.055 74.5887 140.633 74.6485 141.031C74.6286 141.449 74.6684 141.668 74.6684 141.668Z" fill="#28A9DE"/>
<path d="M60.9834 186.285C60.9834 186.285 61.2423 186.165 61.6805 185.986C62.1187 185.807 62.7561 185.528 63.513 185.209C64.2699 184.89 65.1663 184.532 66.1423 184.153C66.6203 183.954 67.1183 183.775 67.6162 183.576C68.1142 183.376 68.6321 183.177 69.1499 182.978C69.6678 182.799 70.1857 182.6 70.7036 182.42C71.2214 182.241 71.7194 182.062 72.1974 181.883C73.1734 181.544 74.0897 181.225 74.8665 180.966C75.6433 180.707 76.3205 180.508 76.7787 180.349C77.2368 180.209 77.4957 180.13 77.4957 180.13C77.4957 180.13 77.2368 180.249 76.7986 180.429C76.3604 180.608 75.723 180.887 74.9462 181.185C74.1694 181.484 73.273 181.843 72.317 182.221C71.8389 182.4 71.341 182.6 70.8231 182.779C70.3052 182.958 69.8072 183.157 69.2894 183.357C68.7715 183.556 68.2536 183.735 67.7556 183.934C67.2378 184.113 66.7398 184.313 66.2618 184.492C65.2858 184.85 64.3894 185.169 63.5927 185.448C62.8159 185.727 62.1586 185.926 61.7005 186.085C61.2423 186.205 60.9834 186.285 60.9834 186.285Z" fill="#46505C"/>
<path d="M75.5234 196.244C75.5234 196.244 75.9816 196.125 76.7982 195.906C77.6149 195.707 78.7502 195.388 80.1445 194.99C81.5189 194.611 83.1323 194.133 84.8253 193.595C85.6818 193.336 86.5582 193.038 87.4545 192.759C88.3509 192.46 89.2472 192.141 90.1435 191.823C91.0399 191.504 91.9362 191.185 92.8126 190.847C93.689 190.508 94.5455 190.189 95.3821 189.851C96.2186 189.512 97.0154 189.193 97.7723 188.895C98.5292 188.576 99.2462 188.277 99.9035 187.998C100.561 187.719 101.158 187.46 101.696 187.221C102.234 186.982 102.692 186.783 103.071 186.604C103.827 186.265 104.266 186.066 104.266 186.066C104.266 186.066 104.166 186.126 103.967 186.226C103.768 186.325 103.489 186.484 103.11 186.684C102.732 186.863 102.294 187.102 101.756 187.361C101.238 187.62 100.641 187.899 100.003 188.217C98.7084 188.815 97.1747 189.512 95.5215 190.189C93.8683 190.866 92.0756 191.564 90.283 192.201C89.3866 192.52 88.4704 192.818 87.5741 193.117C86.6777 193.396 85.8013 193.675 84.9448 193.934C84.0883 194.193 83.2518 194.432 82.455 194.631C81.6583 194.85 80.9014 195.029 80.2043 195.209C78.81 195.547 77.6348 195.806 76.8181 195.966C76.0015 196.165 75.5234 196.244 75.5234 196.244Z" fill="#46505C"/>
<path d="M69.2881 80.9765C69.2881 80.9765 69.3678 81.0363 69.5271 81.1359C69.6864 81.2354 69.9056 81.3749 70.1446 81.5741C70.4035 81.7533 70.7023 81.9724 71.0011 82.2314C71.2998 82.4704 71.6185 82.7492 71.9372 83.0281C72.2559 83.307 72.5547 83.5858 72.8336 83.8647C73.1124 84.1435 73.3514 84.4025 73.5705 84.6415C73.7896 84.8805 73.949 85.0797 74.0685 85.2191C74.188 85.3585 74.2478 85.4382 74.2478 85.4382C74.2478 85.4382 73.949 85.1594 73.4909 84.7212C73.2718 84.5021 72.9929 84.263 72.714 83.9842C72.4352 83.7252 72.1165 83.4464 71.7978 83.1675C71.4791 82.8887 71.1803 82.6098 70.8816 82.3509C70.5828 82.0919 70.3039 81.8529 70.0649 81.6537C69.6068 81.2554 69.2881 80.9765 69.2881 80.9765Z" fill="#7A5C3D"/>
</svg>