<svg width="50" height="50" viewBox="0 0 64 65" fill="none" xmlns="http://www.w3.org/2000/svg">
<path d="M62.1059 51.0522L52.3394 41.2675C51.3721 40.3206 50.0734 39.7905 48.721 39.7905C47.3687 39.7905 46.07 40.3206 45.1027 41.2675L40.1606 46.3367L39.2192 45.7472C34.8979 43.4948 30.9327 40.6147 27.4523 37.2003C24.0481 33.6965 21.1561 29.7275 18.8624 25.4115L18.2152 24.5273L21.5688 21.1675L23.1573 19.576C23.6305 19.1049 24.006 18.5447 24.2623 17.9276C24.5185 17.3105 24.6505 16.6487 24.6505 15.9804C24.6505 15.312 24.5185 14.6503 24.2623 14.0332C24.006 13.4161 23.6305 12.8559 23.1573 12.3848L13.5084 2.36428C12.5511 1.42112 11.2622 0.892578 9.91951 0.892578C8.57685 0.892578 7.28794 1.42112 6.33059 2.36428L3.56536 5.31149C2.60545 6.51548 1.8501 7.86968 1.32964 9.3197C0.774919 10.6433 0.379893 12.0284 0.152945 13.4458C-0.964916 24.1736 3.9772 34.0173 17.215 47.2798C35.4538 65.7883 50.3978 64.3147 51.045 64.2557C52.4377 64.0762 53.8019 63.7197 55.1046 63.1947C56.5519 62.6733 57.9036 61.9165 59.1054 60.9548L61.9294 58.1845C62.8773 57.2512 63.4256 55.9852 63.4586 54.6541C63.4915 53.3231 63.0064 52.0314 62.1059 51.0522Z" fill="#0A57B5"/>
</svg>