<svg width="251" height="224" viewBox="0 0 251 224" fill="none" xmlns="http://www.w3.org/2000/svg">
<g clip-path="url(#clip0)">
<g opacity="0.3">
<path opacity="0.3" d="M211.432 12.1201C196.009 0.467575 174.676 -3.11543 156.204 2.81989C137.731 8.77079 122.656 24.0842 117.188 42.451C114.66 50.9412 112.384 61.7992 103.646 63.7777C98.7314 64.8993 93.8011 62.4535 89.1079 60.6153C70.6511 53.3558 48.8127 55.0538 31.7464 65.0863C14.6802 75.1031 2.76544 93.2206 0.442538 112.662C-1.76975 131.263 4.44046 150.081 14.2693 166.096C39.2998 206.88 88.3494 222.956 137.099 222.972C197.889 223.003 229.083 186.534 244.632 141.404C260.213 96.2739 246.354 45.0838 211.432 12.1201Z" fill="#6AA6F8"/>
</g>
<g opacity="0.3">
<path opacity="0.3" d="M209.362 199.947C212.712 194.152 214.466 185.865 215.809 178.995C217.152 172.109 214.75 163.993 208.398 160.815C204.747 158.992 200.418 159.07 196.356 159.693C185.532 161.391 175.371 166.968 168.181 175.147C169.651 169.289 170.441 161.703 165.226 158.54C160.391 155.612 154.212 158.992 149.93 162.668C141.223 170.162 134.049 179.4 129.008 189.666C118.61 178.293 102.018 172.794 86.7533 175.661C71.5043 178.543 58.1358 189.697 52.7314 204.06C52.7314 204.06 105.668 230.621 153.738 222.442C199.153 214.715 209.362 199.947 209.362 199.947Z" fill="#284266"/>
</g>
<path d="M132.089 65.0238C132.089 65.0238 128.518 61.4875 128.028 60.9579C125.216 57.8889 128.013 59.6181 129.277 59.9609C130.399 60.2568 127.207 52.6235 128.234 52.9039C129.261 53.1843 130.43 56.8919 130.43 56.8919C130.43 56.8919 129.071 51.7199 130.209 52.7793C131.347 53.8386 132.406 56.7829 132.406 56.7829C132.406 56.7829 131.205 51.3928 132.169 52.5144C133.132 53.6361 133.812 55.6301 133.812 55.6301C133.812 55.6301 133.211 50.9722 134.081 52.2496C134.934 53.5426 140.591 64.0579 140.591 64.0579L132.089 65.0238Z" fill="#D6AEAE"/>
<path d="M126.717 67.3917C126.717 67.3917 130.288 63.8554 130.778 63.3258C133.591 60.2569 130.794 61.986 129.53 62.3288C128.408 62.6247 131.6 54.9914 130.572 55.2718C129.545 55.5522 128.376 59.2598 128.376 59.2598C128.376 59.2598 129.735 54.0879 128.597 55.1472C127.459 56.2065 126.401 59.1508 126.401 59.1508C126.401 59.1508 127.602 53.7607 126.638 54.8824C125.674 56.004 124.994 57.998 124.994 57.998C124.994 57.998 125.595 53.3401 124.726 54.6175C123.872 55.9105 118.215 66.4258 118.215 66.4258L126.717 67.3917Z" fill="#F0D1BB"/>
<path d="M196.483 84.4188C197.842 83.8736 199.454 83.9982 200.702 84.746C201.95 85.4937 202.804 86.849 202.946 88.2978C203.041 89.3727 202.756 90.4476 202.551 91.5225C202.345 92.5818 202.219 93.7191 202.63 94.7317C203.041 95.7442 204.131 96.5543 205.206 96.3206C205.648 96.2272 206.059 95.9623 206.501 96.0091C207.102 96.0714 207.513 96.7257 207.434 97.3176C207.355 97.9096 206.896 98.3925 206.375 98.673C205.838 98.9534 205.237 99.0624 204.653 99.1559C205.3 99.8102 205.838 100.573 206.217 101.415C206.359 101.726 206.486 102.085 206.375 102.396C206.217 102.832 205.68 103.019 205.206 102.941C204.747 102.864 204.352 102.568 203.989 102.287C204.637 102.645 204.463 103.705 203.847 104.125C203.246 104.546 202.44 104.53 201.698 104.484C200.102 104.406 198.411 104.281 197.115 103.346C195.882 102.458 195.25 100.994 194.792 99.5765C193.828 96.5699 193.417 93.3763 193.591 90.2295" fill="#284266"/>
<path d="M176.209 156.889C176.209 156.889 178.216 130.686 177.347 128.692C176.477 126.698 172.638 113.659 172.638 113.659L180.902 100.558L191.616 98.8445L199.612 105.668C204.115 109.5 206.77 115.015 206.944 120.888L207.987 155.845L176.209 156.889Z" fill="#6AA6F8"/>
<path d="M142.298 29.3966L143.894 57.4219H160.154L162.603 66.9869L165.384 57.4219C165.384 57.4219 187.902 57.4219 189.119 57.4219C190.336 57.4219 189.119 20.8752 189.119 20.8752L142.298 29.3966Z" fill="white"/>
<path d="M83.751 115.046C83.5614 114.454 84.7149 102.692 71.0145 103.019C58.1674 103.315 49.6659 107.116 44.1984 113.083L48.8126 131.465L50.456 162.388L86.8324 159.085L83.751 115.046Z" fill="#6AA6F8"/>
<path d="M45.0359 111.837C45.0359 111.837 26.911 138.273 28.6176 159.148C30.3242 180.023 55.4969 160.207 58.2623 157.886C61.0276 155.565 63.8246 151.561 63.8246 151.561L62.1496 141.872L45.0359 149.661L51.3093 137.541L45.0359 111.837Z" fill="#6AA6F8"/>
<path d="M73.8273 102.941C73.8273 102.941 90.0402 94.8095 98.1466 87.2385C106.253 79.6675 120.712 62.4846 120.712 62.4846L127.365 67.8903C127.365 67.8903 112.606 91.7718 103.519 101.633C97.5778 108.082 82.7396 121.978 82.7396 121.978L73.8273 102.941Z" fill="#6AA6F8"/>
<path d="M183.272 99.6078C183.272 99.6078 167.66 91.7719 159.838 84.4813C152.032 77.1906 136.83 58.5435 136.83 58.5435L131.694 65.8341C131.694 65.8341 145.916 88.8432 154.671 98.3459C160.391 104.562 174.692 117.943 174.692 117.943L183.272 99.6078Z" fill="#6AA6F8"/>
<path d="M56.3818 97.6137C52.6368 98.9535 53.9483 94.7317 53.8219 92.9402C53.6955 91.1487 53.7903 89.2793 53.0476 87.6436C52.4471 86.3351 51.3094 85.1823 51.3094 83.7491C51.3094 82.6586 51.9731 81.6927 52.2575 80.6334C52.6368 79.1846 52.2891 77.6268 52.5261 76.1469C53.0002 73.3116 55.9868 71.1151 58.8786 71.489C60.3324 71.6759 61.7229 72.4081 63.1609 72.2056C64.7569 71.9875 65.9421 70.71 67.3327 69.9156C69.2605 68.7939 71.7889 68.607 73.7799 69.6196C75.771 70.6322 77.13 72.8598 76.8771 75.0564C76.6401 77.2529 74.6964 79.2158 72.4525 79.3248C71.141 79.4027 69.8768 78.9042 68.6126 78.5927C67.3485 78.2811 65.8947 78.1565 64.8201 78.8886C63.4612 79.8078 62.8607 81.9264 61.2173 82.0666C60.3482 82.1445 59.5739 81.5993 58.768 81.2565C57.9779 80.9138 56.8559 80.8359 56.3976 81.5837C56.0184 82.1912 56.3344 82.9546 56.4135 83.6712C56.5715 84.9642 56.2554 86.2572 55.0703 86.818C54.5962 90.3854 55.6866 93.797 56.7611 97.2398" fill="#284266"/>
<path d="M55.2599 76.692L54.7858 87.2541C54.7858 87.2541 51.499 87.2074 51.499 90.1984C51.499 93.9372 55.0702 93.314 55.0702 93.314C55.0702 93.314 54.3275 100.449 64.267 101.041C75.8816 101.726 73.4164 83.8269 72.9582 75.4302L55.2599 76.692Z" fill="#F0D1BB"/>
<path d="M195.614 77.2061L195.961 85.1354C195.961 85.1354 199.217 85.0887 199.217 88.0486C199.217 91.7562 195.693 91.1331 195.693 91.1331C195.693 91.1331 196.42 98.19 186.591 98.782C176.604 99.374 177.141 86.1013 177.742 77.1438C177.884 75.103 179.685 73.5608 181.755 73.701L192.959 74.5111C194.413 74.6045 195.551 75.7729 195.614 77.2061Z" fill="#F0D1BB"/>
<path d="M68.2491 92.8L67.6645 105.668C67.5064 109.282 63.6191 111.525 60.3481 109.905C60.3007 109.889 60.2691 109.858 60.2217 109.843C58.4519 108.97 57.3773 107.179 57.4247 105.232C57.5669 100.714 57.6143 92.9091 57.6143 92.9091L68.2491 92.8Z" fill="#F0D1BB"/>
<path d="M65.7839 91.5382C65.7997 91.5226 65.8471 91.6784 66.0684 91.803C66.2738 91.9277 66.7005 91.9588 67.0165 91.6472C67.1745 91.4915 67.3009 91.2734 67.3641 91.0241C67.4274 90.7749 67.4432 90.4945 67.4274 90.1829C67.3799 89.5753 67.3483 88.9055 67.3009 88.2044C67.2061 86.8024 67.1429 85.525 67.0955 84.6059C67.0797 84.1385 67.0639 83.7646 67.0481 83.5154C67.0481 83.2506 67.0481 83.1104 67.0639 83.1104C67.0797 83.1104 67.0955 83.2506 67.1271 83.5154C67.1587 83.7646 67.1903 84.1385 67.2219 84.6059C67.3009 85.525 67.3957 86.8024 67.4906 88.2044C67.538 88.9055 67.5696 89.5753 67.6012 90.1829C67.617 90.4945 67.6012 90.7904 67.5222 91.0708C67.4432 91.3513 67.3009 91.5849 67.1113 91.7407C66.9217 91.9121 66.7005 91.99 66.495 91.99C66.2896 91.99 66.1316 91.9277 66.021 91.8653C65.7997 91.7096 65.7839 91.5382 65.7839 91.5382Z" fill="#CB8D8B"/>
<path d="M66.8586 94.0305C66.8744 94.0461 66.6216 94.2174 66.1633 94.2953C65.7209 94.3888 65.0256 94.3421 64.4093 93.9994C63.793 93.6411 63.4296 93.0647 63.2715 92.644C63.1293 92.1923 63.1451 91.9119 63.1767 91.9119C63.2083 91.9119 63.2399 92.1923 63.4138 92.5817C63.5876 92.9712 63.9352 93.4853 64.5199 93.828C65.0888 94.1551 65.7209 94.2174 66.1633 94.1707C66.5742 94.1084 66.8428 93.9994 66.8586 94.0305Z" fill="#CB8D8B"/>
<path d="M63.6191 91.7563C63.6033 91.803 63.2873 91.7407 62.9554 91.9276C62.6236 92.099 62.513 92.4105 62.4656 92.395C62.4498 92.395 62.434 92.3015 62.4814 92.1613C62.5288 92.0211 62.6552 91.8653 62.8606 91.7563C63.0502 91.6472 63.2715 91.6316 63.4137 91.6472C63.5559 91.6784 63.6191 91.7251 63.6191 91.7563Z" fill="#CB8D8B"/>
<path d="M68.4388 100.2C68.4388 100.215 68.3124 100.309 68.0437 100.433C67.7751 100.573 67.3959 100.745 66.8902 100.916C65.8947 101.259 64.3935 101.524 62.7817 101.29C61.154 101.072 59.7951 100.402 58.926 99.8101C58.4835 99.5141 58.1675 99.2337 57.9462 99.0312C57.7408 98.8287 57.6302 98.7041 57.6302 98.6885C57.6618 98.6573 58.1201 99.1247 58.9892 99.6855C59.8583 100.246 61.2015 100.869 62.7817 101.088C64.3619 101.306 65.8315 101.072 66.827 100.776C67.8541 100.48 68.423 100.168 68.4388 100.2Z" fill="#CB8D8B"/>
<path d="M53.569 91.6472C53.5532 91.6161 53.8376 91.507 53.9798 91.102C54.043 90.915 54.0588 90.6502 53.964 90.401C53.8692 90.1517 53.6164 89.9336 53.3161 89.9803C53.0475 89.9959 52.9053 90.3231 53.0159 90.51L52.8421 90.5723C52.6841 89.6844 52.6051 89.0457 52.6525 89.0457C52.6999 89.0457 52.8421 89.6532 53.0317 90.5412L53.1265 91.0397L52.8579 90.6035C52.6683 90.2919 52.8895 89.8401 53.3003 89.7934C53.5058 89.7623 53.6954 89.8246 53.8376 89.9336C53.9798 90.0427 54.0746 90.1984 54.1378 90.3386C54.2485 90.6346 54.2011 90.9462 54.122 91.1487C54.0272 91.3668 53.885 91.507 53.7744 91.5693C53.6322 91.6472 53.569 91.6628 53.569 91.6472Z" fill="#CB8D8B"/>
<path d="M62.5604 86.2416C62.4498 86.2416 62.355 85.821 62.355 85.2913C62.355 84.7617 62.434 84.3411 62.5446 84.3411C62.6552 84.3411 62.75 84.7617 62.75 85.2913C62.7658 85.8054 62.671 86.2416 62.5604 86.2416Z" fill="#402B72"/>
<path d="M70.7933 85.8365C70.6826 85.8365 70.5878 85.4782 70.572 85.0421C70.5562 84.6059 70.6352 84.2476 70.7459 84.2476C70.8565 84.2476 70.9513 84.6059 70.9671 85.0421C70.9829 85.4782 70.9039 85.8365 70.7933 85.8365Z" fill="#402B72"/>
<path d="M54.9595 87.2697C54.7383 87.9084 54.5329 88.625 54.8015 89.2481C55.0701 89.8712 56.0657 90.1828 56.4449 89.6064C56.5871 89.3883 56.6029 89.1079 56.6029 88.8275C56.6187 87.0048 56.6345 85.1822 56.6503 83.3439C59.3209 82.8766 61.628 80.7735 62.3075 78.1875C63.7139 79.0443 65.5785 79.1066 67.0481 78.3433C67.6486 78.0317 68.2648 77.58 68.9443 77.6734C69.7502 77.7825 70.2401 78.6081 70.9038 79.0755C72.0573 79.8855 73.922 79.387 74.5067 78.094C75.1071 76.7699 74.3012 75.1342 73.0371 74.3864C71.4569 73.4361 69.45 73.6231 67.617 73.8412C64.2195 74.2306 60.8063 74.6357 57.4088 75.0251C56.761 75.103 56.0657 75.1965 55.56 75.6015C55.0227 76.0221 54.7857 76.6764 54.5961 77.3151C53.8376 79.8388 53.4899 82.4715 53.5531 85.1043C53.5689 85.9143 53.727 86.849 54.438 87.2385" fill="#284266"/>
<path d="M63.6824 82.4406C63.7298 82.7054 63.1451 83.0326 62.3866 83.1883C61.6123 83.3285 60.9486 83.2351 60.9012 82.9702C60.8538 82.7054 61.4227 82.3783 62.197 82.2225C62.9713 82.0823 63.635 82.1913 63.6824 82.4406Z" fill="#4D323D"/>
<path d="M71.773 82.3314C71.7572 82.5962 71.2515 82.7832 70.6352 82.7364C70.0348 82.6897 69.5607 82.4405 69.5765 82.1756C69.5923 81.9108 70.098 81.7239 70.7142 81.7706C71.3305 81.8173 71.8046 82.0666 71.773 82.3314Z" fill="#4D323D"/>
<path d="M61.5649 141.949C61.5649 141.949 65.5786 137.665 66.3687 137.775C67.2694 137.899 67.064 137.634 67.4116 139.192C67.6803 140.438 75.7709 137.369 75.3917 138.476C75.0124 139.582 70.7775 140.625 70.7775 140.625C70.7775 140.625 76.6559 139.457 75.4075 140.625C74.1433 141.794 70.7775 142.775 70.7775 142.775C70.7775 142.775 76.8929 141.794 75.5813 142.775C74.2697 143.757 71.9942 144.38 71.9942 144.38C71.9942 144.38 77.2563 144.006 75.7709 144.878C74.2697 145.735 62.1338 151.265 62.1338 151.265L61.5649 141.949Z" fill="#F0D1BB"/>
<path d="M182.656 91.1021L183.225 103.97C183.383 107.584 187.27 109.827 190.541 108.207C190.589 108.191 190.62 108.16 190.668 108.145C192.438 107.272 193.512 105.481 193.465 103.534C193.323 99.0158 193.275 91.2111 193.275 91.2111L182.656 91.1021Z" fill="#F0D1BB"/>
<path d="M185.358 90.3854C185.342 90.3698 185.295 90.5256 185.09 90.6346C184.884 90.7437 184.473 90.7904 184.173 90.4788C184.015 90.3386 183.904 90.1205 183.841 89.8869C183.778 89.6376 183.778 89.3728 183.778 89.0768C183.825 88.4848 183.857 87.8461 183.904 87.1762C183.983 85.8209 184.062 84.6058 184.094 83.7179C184.11 83.2817 184.126 82.9078 184.126 82.6741C184.126 82.4249 184.126 82.2847 184.11 82.2847C184.094 82.2847 184.078 82.4249 184.047 82.6741C184.015 82.9234 183.983 83.2817 183.952 83.7179C183.873 84.6058 183.794 85.8209 183.699 87.1762C183.652 87.8461 183.62 88.4848 183.588 89.0768C183.573 89.3728 183.588 89.6688 183.667 89.9336C183.746 90.1984 183.889 90.4165 184.062 90.5879C184.236 90.7437 184.457 90.8371 184.647 90.8371C184.837 90.8371 184.995 90.7748 185.105 90.7125C185.358 90.5412 185.374 90.3698 185.358 90.3854Z" fill="#CB8D8B"/>
<path d="M184.347 92.7844C184.331 92.8 184.568 92.9558 185.011 93.0492C185.437 93.1271 186.101 93.096 186.701 92.7533C187.302 92.4105 187.649 91.8497 187.792 91.4447C187.934 91.0241 187.902 90.7437 187.887 90.7437C187.855 90.7437 187.823 91.0085 187.665 91.3979C187.507 91.7718 187.16 92.2703 186.607 92.5975C186.053 92.909 185.453 92.9714 185.026 92.9246C184.6 92.8623 184.363 92.7533 184.347 92.7844Z" fill="#CB8D8B"/>
<path d="M187.46 90.5878C187.476 90.6346 187.792 90.5723 188.092 90.7592C188.408 90.9306 188.519 91.2266 188.566 91.211C188.598 91.211 188.598 91.1175 188.55 90.9929C188.503 90.8683 188.376 90.7125 188.187 90.6034C187.997 90.4944 187.792 90.4788 187.665 90.4944C187.523 90.51 187.46 90.5723 187.46 90.5878Z" fill="#CB8D8B"/>
<path d="M182.877 98.4704C182.877 98.4859 183.004 98.5638 183.257 98.704C183.509 98.8287 183.873 99 184.363 99.1714C185.311 99.4985 186.733 99.7478 188.282 99.5297C189.83 99.3116 191.126 98.6885 191.948 98.1121C192.359 97.8317 192.675 97.5668 192.88 97.3643C193.085 97.1774 193.18 97.0527 193.18 97.0372C193.149 97.006 192.722 97.4578 191.885 97.9874C191.047 98.5327 189.783 99.1247 188.266 99.3272C186.749 99.5297 185.358 99.3116 184.41 99.0312C183.43 98.7508 182.893 98.4392 182.877 98.4704Z" fill="#CB8D8B"/>
<path d="M197.147 90.4944C197.162 90.4633 196.894 90.3542 196.752 89.9648C196.688 89.7778 196.673 89.5286 196.767 89.2949C196.846 89.0612 197.099 88.8587 197.384 88.8899C197.636 88.9054 197.779 89.2326 197.684 89.404L197.842 89.4663C197.984 88.6095 198.063 88.0019 198.032 87.9863C197.984 87.9863 197.842 88.5783 197.668 89.4351L197.573 89.918L197.826 89.4974C198.016 89.2014 197.795 88.7497 197.399 88.7185C197.21 88.6874 197.02 88.7497 196.878 88.8587C196.736 88.9678 196.641 89.108 196.594 89.2482C196.483 89.5442 196.53 89.8246 196.609 90.0271C196.704 90.2296 196.831 90.3698 196.941 90.4321C197.068 90.4944 197.147 90.4944 197.147 90.4944Z" fill="#CB8D8B"/>
<path d="M188.471 85.2755C188.582 85.2755 188.661 84.8705 188.677 84.3564C188.677 83.8579 188.598 83.4373 188.487 83.4373C188.376 83.4373 188.297 83.8423 188.297 84.3564C188.282 84.8705 188.361 85.2755 188.471 85.2755Z" fill="#402B72"/>
<path d="M180.554 84.886C180.665 84.886 180.744 84.5433 180.76 84.1227C180.776 83.7021 180.697 83.3593 180.586 83.3438C180.475 83.3438 180.396 83.6865 180.381 84.1071C180.365 84.5433 180.444 84.886 180.554 84.886Z" fill="#402B72"/>
<path d="M195.788 86.2727C195.993 86.8958 196.198 87.5813 195.946 88.1888C195.677 88.7964 194.729 89.0768 194.365 88.5315C194.223 88.3134 194.223 88.0486 194.223 87.7838C194.207 86.0234 194.192 84.2631 194.176 82.5027C191.6 82.051 189.388 80.0258 188.724 77.5488C187.365 78.3745 185.564 78.4212 184.157 77.7046C183.573 77.4086 182.988 76.9724 182.34 77.0503C181.55 77.1594 181.092 77.9539 180.46 78.4057C179.338 79.1846 177.552 78.7016 176.999 77.471C176.43 76.1935 177.204 74.6201 178.421 73.888C179.954 72.9688 181.882 73.1558 183.652 73.3583C186.923 73.7322 190.209 74.1216 193.481 74.5111C194.113 74.589 194.776 74.6669 195.266 75.0563C195.772 75.4614 196.009 76.1001 196.198 76.7076C196.925 79.1378 197.273 81.6771 197.194 84.2008C197.178 84.9797 197.036 85.8832 196.356 86.2571" fill="#284266"/>
<path d="M189.656 81.0385C189.609 81.1319 189.388 81.1164 189.151 81.1164C188.898 81.1164 188.677 81.1319 188.645 81.0385C188.598 80.9606 188.819 80.7736 189.151 80.7581C189.483 80.7581 189.704 80.945 189.656 81.0385Z" fill="#272051"/>
<path d="M180.618 80.8827C180.586 80.9762 180.46 81.0229 180.333 81.0696C180.207 81.1008 180.08 81.1475 180.001 81.0852C179.922 81.0385 179.985 80.8204 180.238 80.7425C180.46 80.6646 180.649 80.7892 180.618 80.8827Z" fill="#272051"/>
<g opacity="0.23">
<g opacity="0.23">
<g opacity="0.23">
<path opacity="0.23" d="M187.887 91.8186C188.297 92.0211 188.218 92.8779 187.428 93.3452C186.622 93.8126 185.816 93.4543 185.832 93.0181C185.832 92.5663 186.196 92.1925 186.575 91.9588C186.97 91.7407 187.476 91.6005 187.887 91.8186Z" fill="#B8658B"/>
</g>
</g>
</g>
<path d="M177.726 131.403C177.631 131.418 176.383 126.885 174.929 121.277C173.475 115.653 172.369 111.089 172.464 111.058C172.559 111.042 173.807 115.575 175.261 121.199C176.714 126.807 177.821 131.387 177.726 131.403Z" fill="#453D5F"/>
<path d="M193.812 100.667C193.812 100.667 193.97 100.901 194.144 101.368C194.302 101.835 194.46 102.552 194.413 103.456C194.35 104.343 194.081 105.418 193.386 106.4C192.706 107.397 191.568 108.207 190.241 108.596C188.898 108.986 187.491 108.892 186.385 108.425C185.263 107.958 184.442 107.21 183.904 106.493C183.367 105.761 183.099 105.076 182.988 104.593C182.861 104.11 182.877 103.829 182.877 103.829C182.956 103.798 183.004 104.967 184.094 106.353C184.631 107.023 185.437 107.724 186.496 108.145C187.555 108.581 188.882 108.659 190.146 108.285C191.41 107.911 192.485 107.148 193.149 106.228C193.812 105.309 194.113 104.281 194.192 103.44C194.318 101.695 193.733 100.683 193.812 100.667Z" fill="#453D5F"/>
<path d="M164.547 30.6738L167.692 36.983L174.234 35.4875L168.971 40.8776L171.468 47.0466L165.621 43.2767L161.292 46.4858L162.271 40.8776L157.72 37.8087L163.551 36.983L164.547 30.6738Z" fill="#6AA6F8"/>
<path d="M191.726 210.774C193.876 202.44 195.835 194.417 198.506 185.662L197.731 182.951C195.424 192.189 193.101 201.786 190.873 211.195C191.158 211.055 191.442 210.914 191.726 210.774Z" fill="#284266"/>
<path d="M191.79 210.743C193.86 209.746 195.882 208.671 197.858 207.534C196.973 204.963 196.104 202.393 195.219 199.823C196.104 202.393 196.973 204.963 197.858 207.534C199.865 206.381 201.84 205.197 203.752 203.935L198.553 185.787L191.79 210.743Z" fill="#284266"/>
<path d="M189.277 211.896L188.993 210.868L196.925 180.132L197.731 182.952C200.307 172.576 202.867 162.653 205.237 153.945L191.063 154.693L177.757 216.32C181.755 215.058 185.579 213.563 189.277 211.896Z" fill="#284266"/>
<path d="M191.031 154.692L178.974 155.331C178.026 161.687 173.602 190.149 168.829 218.719C171.579 218.096 174.265 217.395 176.888 216.585C181.329 195.897 186.038 175.256 191.031 154.692Z" fill="#284266"/>
<path d="M188.977 210.868L189.261 211.896C189.783 211.662 190.32 211.429 190.842 211.195C193.085 201.786 195.408 192.189 197.7 182.952L196.894 180.132L188.977 210.868Z" fill="#284266"/>
<g opacity="0.42">
<path opacity="0.42" d="M191.268 153.711C191.189 154.038 191.11 154.365 191.031 154.693H191.047L191.268 153.711Z" fill="#284266"/>
</g>
<path d="M177.757 216.32L191.063 154.692H191.047C186.054 175.256 181.345 195.897 176.888 216.585C177.173 216.491 177.473 216.414 177.757 216.32Z" fill="#284266"/>
<path d="M199.153 183.497C198.932 184.229 198.711 184.93 198.49 185.662L198.521 185.787L199.153 183.497Z" fill="#284266"/>
<path d="M191.79 210.743L198.537 185.787L198.506 185.662C195.851 194.433 193.876 202.44 191.727 210.774C191.742 210.759 191.758 210.759 191.79 210.743Z" fill="#284266"/>
<path d="M82.471 162.341L88.9815 168.713L86.6902 157.886L52.8264 161.002C53.0002 162.092 54.0589 180.708 55.6391 204.87C58.4677 206.21 61.3595 207.456 64.2986 208.624C63.3505 192.812 62.6236 177.078 62.197 161.874L65.3732 209.061C68.2808 210.182 71.2358 211.226 74.2381 212.192C72.816 191.317 71.8836 173.823 72.7212 173.745C73.7325 173.651 77.9358 192.594 82.4552 214.606C85.0784 215.308 87.7489 215.962 90.4353 216.569L79.6109 161.578C84.0196 179.493 87.7331 198.234 91.178 216.725C93.9117 217.317 96.6613 217.862 99.4424 218.361L88.9815 168.806C85.6472 168.557 82.7081 165.644 82.471 162.341ZM57.9304 167.404C57.0297 168.962 55.4653 170.131 53.6955 170.567L58.5467 162.217C59.0682 163.93 58.8311 165.862 57.9304 167.404ZM72.4367 172.576C72.1207 172.202 72.0417 171.688 71.9627 171.205C71.4728 168.043 70.9829 164.881 70.5089 161.718L74.8386 172.249C74.4436 173.137 73.0372 173.324 72.4367 172.576Z" fill="#284266"/>
<path d="M62.2127 161.874C62.6394 177.078 63.3663 192.812 64.3144 208.624C64.6778 208.765 65.0255 208.92 65.3889 209.061L62.2127 161.874Z" fill="#284266"/>
<path d="M79.6424 161.594L90.4668 216.585C90.7196 216.647 90.9567 216.694 91.2095 216.741C87.7805 198.249 84.0512 179.509 79.6424 161.594Z" fill="#284266"/>
<path d="M53.6955 170.567C55.4653 170.131 57.0297 168.962 57.9304 167.404C58.8312 165.846 59.0682 163.93 58.5467 162.201L53.6955 170.567Z" fill="#284266"/>
<path d="M71.9626 171.205C72.0416 171.688 72.1206 172.187 72.4366 172.576C73.0371 173.324 74.4593 173.137 74.8386 172.265L70.5088 161.734C70.9829 164.881 71.4727 168.043 71.9626 171.205Z" fill="#284266"/>
<path d="M89.1079 168.822L88.9814 168.697L88.9972 168.791C89.0447 168.822 89.0763 168.822 89.1079 168.822Z" fill="#284266"/>
<path d="M89.0131 168.807L88.9973 168.713L82.4868 162.342C82.708 165.644 85.6472 168.557 89.0131 168.807Z" fill="#284266"/>
<path d="M197.621 179.181C197.621 179.181 194.523 182.437 194.112 182.92C191.695 185.74 194.144 184.104 195.25 183.777C196.246 183.481 193.607 190.382 194.508 190.102C195.424 189.821 196.356 186.488 196.356 186.488C196.356 186.488 195.282 191.146 196.262 190.164C197.241 189.183 198.11 186.534 198.11 186.534C198.11 186.534 197.194 191.379 198.016 190.351C198.837 189.323 199.39 187.531 199.39 187.531C199.39 187.531 198.98 191.706 199.722 190.538C200.449 189.37 205.206 179.82 205.206 179.82L197.621 179.181Z" fill="#F0D1BB"/>
<path d="M192.69 115.762C192.69 115.762 204.763 135.36 203.23 146.685C202.061 155.316 195.551 179.649 195.551 179.649L205.474 183.216C205.474 183.216 213.818 157.606 214.292 142.931C214.766 128.256 201.887 107.755 201.887 107.755L192.69 115.762Z" fill="#6AA6F8"/>
<path d="M202.756 108.799C202.756 108.861 201.982 108.518 200.607 108.783C199.264 109.017 197.32 110.014 196.025 112.132C194.713 114.235 194.571 117.351 195.393 120.482C196.198 123.645 197.715 126.932 199.217 130.406C200.734 133.88 202.045 137.291 202.535 140.547C203.041 143.803 202.867 146.794 202.567 149.255C201.903 154.178 200.971 157.122 200.971 157.122C200.955 157.122 200.986 156.936 201.065 156.577C201.16 156.125 201.271 155.611 201.397 155.019C201.666 153.664 202.077 151.701 202.345 149.24C202.614 146.794 202.756 143.834 202.251 140.61C201.745 137.385 200.433 134.004 198.932 130.546C197.431 127.072 195.914 123.785 195.108 120.576C194.286 117.398 194.46 114.189 195.835 112.039C197.178 109.874 199.201 108.877 200.591 108.69C201.287 108.565 201.856 108.643 202.219 108.69C202.582 108.736 202.756 108.799 202.756 108.799Z" fill="#453D5F"/>
<path d="M169.177 101.462C169.082 101.446 169.145 100.823 169.319 100.075C169.477 99.3274 169.683 98.7354 169.777 98.7666C169.872 98.7821 169.809 99.4053 169.635 100.153C169.477 100.901 169.272 101.493 169.177 101.462Z" fill="#453D5F"/>
<path d="M175.008 102.645C174.913 102.645 174.818 102.256 174.787 101.773C174.755 101.29 174.802 100.885 174.897 100.885C174.992 100.885 175.087 101.274 175.118 101.757C175.134 102.24 175.087 102.63 175.008 102.645Z" fill="#453D5F"/>
<path d="M177.031 109.905C176.967 109.967 176.541 109.593 176.067 109.079C175.608 108.565 175.292 108.098 175.356 108.036C175.419 107.973 175.845 108.347 176.319 108.861C176.778 109.375 177.094 109.843 177.031 109.905Z" fill="#453D5F"/>
<path d="M180.223 108.612C180.128 108.596 180.175 108.098 180.302 107.521C180.428 106.945 180.602 106.478 180.697 106.509C180.791 106.524 180.744 107.023 180.618 107.599C180.491 108.176 180.317 108.627 180.223 108.612Z" fill="#453D5F"/>
<path d="M181.187 118.348C181.108 118.395 180.665 117.772 180.207 116.962C179.749 116.152 179.432 115.466 179.512 115.42C179.591 115.373 180.033 115.996 180.491 116.806C180.949 117.616 181.266 118.302 181.187 118.348Z" fill="#453D5F"/>
<path d="M187.002 117.289C186.907 117.258 186.97 116.775 187.144 116.183C187.302 115.607 187.507 115.139 187.602 115.17C187.697 115.202 187.634 115.684 187.46 116.276C187.286 116.853 187.081 117.305 187.002 117.289Z" fill="#453D5F"/>
<path d="M180.712 127.368C180.649 127.43 180.159 127.01 179.638 126.418C179.116 125.842 178.737 125.312 178.816 125.25C178.879 125.187 179.369 125.608 179.891 126.2C180.412 126.792 180.776 127.306 180.712 127.368Z" fill="#453D5F"/>
<path d="M184.031 113.067C183.952 113.036 184.031 112.569 184.236 112.023C184.426 111.478 184.663 111.058 184.742 111.089C184.821 111.12 184.742 111.587 184.536 112.133C184.347 112.678 184.126 113.098 184.031 113.067Z" fill="#453D5F"/>
<path d="M184.868 124.673C184.789 124.72 184.363 124.268 183.904 123.661C183.446 123.053 183.13 122.508 183.209 122.445C183.288 122.399 183.715 122.85 184.173 123.458C184.631 124.081 184.947 124.626 184.868 124.673Z" fill="#453D5F"/>
<path d="M192.39 120.934C192.469 120.981 192.264 121.48 191.916 122.056C191.584 122.633 191.237 123.069 191.158 123.022C191.079 122.975 191.284 122.477 191.632 121.9C191.979 121.324 192.311 120.903 192.39 120.934Z" fill="#453D5F"/>
<path d="M193.307 110.84C193.37 110.902 193.07 111.26 192.643 111.603C192.216 111.961 191.821 112.195 191.758 112.133C191.695 112.07 191.995 111.712 192.422 111.369C192.848 110.995 193.243 110.762 193.307 110.84Z" fill="#453D5F"/>
<path d="M198.426 106.742C198.379 106.82 197.937 106.618 197.447 106.291C196.957 105.964 196.593 105.636 196.641 105.574C196.688 105.496 197.131 105.699 197.621 106.026C198.126 106.337 198.474 106.665 198.426 106.742Z" fill="#453D5F"/>
<path d="M195.077 131.107C194.998 131.076 195.092 130.702 195.282 130.281C195.472 129.861 195.709 129.549 195.788 129.596C195.867 129.627 195.772 130.001 195.582 130.421C195.393 130.842 195.156 131.154 195.077 131.107Z" fill="#453D5F"/>
<path d="M190.699 132.291C190.62 132.338 190.209 131.823 189.783 131.154C189.356 130.468 189.072 129.892 189.151 129.845C189.23 129.798 189.641 130.312 190.067 130.982C190.494 131.652 190.778 132.244 190.699 132.291Z" fill="#453D5F"/>
<path d="M182.372 136.747C182.293 136.793 181.961 136.326 181.629 135.703C181.297 135.095 181.108 134.55 181.187 134.519C181.266 134.472 181.597 134.939 181.929 135.563C182.245 136.17 182.451 136.7 182.372 136.747Z" fill="#453D5F"/>
<path d="M185.216 130.764C185.295 130.795 185.137 131.325 184.868 131.933C184.584 132.54 184.299 133.007 184.22 132.961C184.141 132.93 184.299 132.4 184.568 131.792C184.837 131.185 185.137 130.733 185.216 130.764Z" fill="#453D5F"/>
<path d="M180.776 144.644C180.712 144.707 180.333 144.411 179.954 143.975C179.575 143.554 179.306 143.149 179.369 143.087C179.432 143.024 179.812 143.32 180.191 143.757C180.586 144.193 180.839 144.582 180.776 144.644Z" fill="#453D5F"/>
<path d="M187.255 141.311C187.318 141.373 186.986 141.872 186.48 142.417C185.99 142.962 185.532 143.367 185.469 143.305C185.406 143.243 185.738 142.744 186.243 142.199C186.717 141.654 187.176 141.264 187.255 141.311Z" fill="#453D5F"/>
<path d="M182.956 140.984C182.893 141.046 182.498 140.703 182.103 140.22C181.708 139.737 181.439 139.301 181.503 139.254C181.566 139.192 181.961 139.535 182.356 140.018C182.751 140.485 183.02 140.921 182.956 140.984Z" fill="#453D5F"/>
<path d="M184.521 149.63C184.442 149.661 184.221 149.365 184.031 148.96C183.841 148.555 183.746 148.196 183.841 148.15C183.936 148.103 184.142 148.414 184.331 148.82C184.521 149.24 184.6 149.598 184.521 149.63Z" fill="#453D5F"/>
<path d="M180.823 151.982C180.839 152.075 180.333 152.216 179.749 152.512C179.164 152.792 178.737 153.103 178.674 153.041C178.611 152.979 178.974 152.527 179.606 152.231C180.238 151.92 180.823 151.904 180.823 151.982Z" fill="#453D5F"/>
<path d="M195.93 146.483C195.882 146.56 195.092 146.062 194.444 145.158C193.781 144.239 193.591 143.351 193.67 143.32C193.765 143.289 194.081 144.099 194.713 144.971C195.314 145.828 195.993 146.405 195.93 146.483Z" fill="#453D5F"/>
<path d="M200.086 149.287C200.007 149.225 200.433 148.586 201.034 147.838C201.619 147.09 202.156 146.53 202.235 146.592C202.314 146.654 201.887 147.293 201.287 148.041C200.686 148.773 200.149 149.334 200.086 149.287Z" fill="#453D5F"/>
<path d="M191.885 149.178C191.806 149.24 191.316 148.772 190.668 148.274C190.02 147.76 189.451 147.386 189.498 147.308C189.53 147.23 190.194 147.48 190.873 148.025C191.553 148.539 191.948 149.115 191.885 149.178Z" fill="#453D5F"/>
<path d="M192.833 151.935C192.833 152.029 191.695 152.138 190.288 152.2C188.882 152.262 187.729 152.231 187.729 152.138C187.729 152.044 188.866 151.935 190.273 151.873C191.679 151.826 192.833 151.857 192.833 151.935Z" fill="#453D5F"/>
<path d="M198.727 141.7C198.648 141.654 198.916 140.968 199.343 140.158C199.77 139.348 200.165 138.725 200.244 138.756C200.323 138.787 200.054 139.488 199.628 140.298C199.217 141.124 198.806 141.747 198.727 141.7Z" fill="#453D5F"/>
<path d="M193.307 136.871C193.275 136.949 192.327 136.715 191.173 136.326C190.02 135.936 189.119 135.547 189.151 135.469C189.182 135.391 190.131 135.625 191.284 136.014C192.438 136.403 193.338 136.777 193.307 136.871Z" fill="#453D5F"/>
<path d="M198.142 119.735C198.063 119.704 198.253 118.971 198.569 118.099C198.885 117.227 199.217 116.541 199.311 116.572C199.39 116.603 199.201 117.336 198.885 118.208C198.569 119.08 198.237 119.766 198.142 119.735Z" fill="#453D5F"/>
<path d="M204.842 117.647C204.779 117.71 204.352 117.336 203.894 116.822C203.436 116.307 203.12 115.84 203.183 115.778C203.246 115.715 203.673 116.089 204.131 116.603C204.589 117.118 204.905 117.585 204.842 117.647Z" fill="#453D5F"/>
<path d="M203.23 122.742C203.167 122.804 202.646 122.352 202.077 121.745C201.508 121.137 201.113 120.592 201.176 120.529C201.239 120.467 201.761 120.919 202.33 121.526C202.899 122.15 203.309 122.679 203.23 122.742Z" fill="#453D5F"/>
<path d="M207.102 126.433C207.007 126.418 207.07 125.841 207.244 125.172C207.402 124.486 207.608 123.956 207.702 123.972C207.797 123.988 207.734 124.564 207.56 125.234C207.402 125.919 207.197 126.449 207.102 126.433Z" fill="#453D5F"/>
<path d="M202.583 130.188C202.519 130.25 202.045 129.97 201.524 129.549C201.002 129.128 200.623 128.723 200.67 128.661C200.734 128.599 201.208 128.879 201.729 129.3C202.266 129.72 202.646 130.11 202.583 130.188Z" fill="#453D5F"/>
<path d="M209.362 134.752C209.283 134.783 208.951 134.207 208.619 133.475C208.287 132.727 208.097 132.104 208.176 132.057C208.255 132.011 208.587 132.603 208.919 133.335C209.251 134.082 209.441 134.721 209.362 134.752Z" fill="#453D5F"/>
<path d="M207.102 138.039C207.039 138.102 206.565 137.728 206.027 137.214C205.506 136.699 205.127 136.232 205.19 136.154C205.253 136.092 205.727 136.466 206.264 136.98C206.786 137.51 207.165 137.977 207.102 138.039Z" fill="#453D5F"/>
<path d="M211.495 141.56C211.542 141.638 211.21 141.949 210.752 142.276C210.294 142.604 209.883 142.806 209.82 142.728C209.772 142.65 210.104 142.339 210.563 142.012C211.037 141.685 211.447 141.482 211.495 141.56Z" fill="#453D5F"/>
<path d="M206.169 146.343C206.09 146.389 205.68 145.813 205.253 145.065C204.826 144.318 204.542 143.679 204.621 143.632C204.7 143.585 205.111 144.162 205.537 144.909C205.964 145.673 206.249 146.312 206.169 146.343Z" fill="#453D5F"/>
<path d="M211.511 150.689C211.432 150.736 210.958 149.957 210.689 148.897C210.404 147.838 210.42 146.95 210.515 146.935C210.61 146.935 210.736 147.791 211.005 148.804C211.274 149.848 211.605 150.642 211.511 150.689Z" fill="#453D5F"/>
<path d="M208.666 153.29C208.729 153.353 208.334 153.867 207.639 154.272C206.944 154.677 206.28 154.755 206.264 154.677C206.233 154.583 206.817 154.381 207.465 153.991C208.113 153.618 208.587 153.213 208.666 153.29Z" fill="#453D5F"/>
<path d="M204.495 152.34C204.4 152.356 204.258 152.013 204.163 151.561C204.068 151.109 204.052 150.72 204.147 150.704C204.242 150.689 204.384 151.032 204.479 151.499C204.574 151.935 204.574 152.325 204.495 152.34Z" fill="#453D5F"/>
<path d="M204.131 162.996C204.036 163.011 203.862 162.559 203.736 161.983C203.61 161.407 203.578 160.908 203.657 160.892C203.752 160.877 203.926 161.329 204.052 161.905C204.178 162.497 204.226 162.98 204.131 162.996Z" fill="#453D5F"/>
<path d="M208.777 162.295C208.698 162.326 208.413 161.718 208.145 160.939C207.876 160.16 207.734 159.506 207.829 159.475C207.908 159.444 208.192 160.051 208.461 160.83C208.714 161.609 208.872 162.264 208.777 162.295Z" fill="#453D5F"/>
<path d="M204.605 168.635C204.589 168.728 203.799 168.604 202.82 168.541C201.84 168.479 201.05 168.495 201.034 168.401C201.018 168.323 201.824 168.152 202.835 168.214C203.847 168.277 204.621 168.541 204.605 168.635Z" fill="#453D5F"/>
<path d="M207.086 169.445C206.991 169.445 206.944 168.931 206.975 168.323C207.007 167.716 207.102 167.217 207.197 167.217C207.291 167.217 207.339 167.731 207.307 168.339C207.276 168.962 207.165 169.445 207.086 169.445Z" fill="#453D5F"/>
<path d="M202.108 173.667C202.093 173.76 201.492 173.714 200.765 173.589C200.038 173.464 199.469 173.277 199.485 173.199C199.501 173.106 200.102 173.153 200.828 173.277C201.555 173.402 202.124 173.573 202.108 173.667Z" fill="#453D5F"/>
<path d="M205.885 175.879C205.948 175.941 205.443 176.564 204.747 177.265C204.052 177.966 203.436 178.496 203.373 178.434C203.309 178.371 203.815 177.748 204.51 177.047C205.206 176.331 205.822 175.817 205.885 175.879Z" fill="#453D5F"/>
<path d="M199.849 176.954C199.865 177.047 199.217 177.25 198.395 177.406C197.573 177.561 196.894 177.624 196.878 177.546C196.862 177.468 197.51 177.25 198.332 177.094C199.153 176.923 199.833 176.86 199.849 176.954Z" fill="#453D5F"/>
<path d="M169.525 108.269C169.43 108.254 169.446 107.615 169.54 106.836C169.635 106.057 169.793 105.434 169.888 105.45C169.983 105.465 169.967 106.104 169.872 106.883C169.777 107.662 169.619 108.269 169.525 108.269Z" fill="#453D5F"/>
<path d="M166.443 104.515C166.396 104.593 165.716 104.266 165.021 103.658C164.31 103.066 163.883 102.458 163.946 102.396C164.01 102.334 164.547 102.832 165.226 103.409C165.906 104.001 166.491 104.437 166.443 104.515Z" fill="#453D5F"/>
<path d="M165.606 97.7227C165.511 97.7071 165.527 97.0528 165.621 96.2428C165.716 95.4327 165.874 94.7784 165.969 94.794C166.064 94.8096 166.048 95.4638 165.953 96.2739C165.859 97.084 165.701 97.7227 165.606 97.7227Z" fill="#453D5F"/>
<path d="M160.976 97.2552C160.928 97.3331 160.407 97.0527 159.759 96.7723C159.111 96.4919 158.574 96.2894 158.59 96.1959C158.605 96.118 159.222 96.1648 159.885 96.4763C160.581 96.7723 161.023 97.1774 160.976 97.2552Z" fill="#453D5F"/>
<path d="M171.895 95.4951C171.8 95.4951 171.705 95.09 171.674 94.5604C171.642 94.0463 171.689 93.6257 171.784 93.6101C171.879 93.6101 171.974 94.0151 172.005 94.5448C172.021 95.0589 171.99 95.4795 171.895 95.4951Z" fill="#453D5F"/>
<path d="M176.304 97.5982C176.24 97.6605 175.782 97.3333 175.213 96.9906C174.629 96.6323 174.139 96.3986 174.17 96.3052C174.202 96.2273 174.771 96.3363 175.387 96.7102C176.003 97.0841 176.367 97.5359 176.304 97.5982Z" fill="#453D5F"/>
<path d="M161.924 91.1486C161.845 91.1486 161.75 90.4009 161.955 89.4973C162.145 88.5938 162.54 87.9395 162.619 87.9862C162.698 88.0174 162.461 88.7028 162.271 89.5752C162.082 90.432 162.019 91.1486 161.924 91.1486Z" fill="#453D5F"/>
<path d="M159.522 92.0366C159.49 92.1145 158.827 91.912 158.037 91.5693C157.246 91.2265 156.646 90.8994 156.693 90.8059C156.725 90.728 157.389 90.9306 158.179 91.2733C158.953 91.616 159.553 91.9587 159.522 92.0366Z" fill="#453D5F"/>
<path d="M151.668 89.2637C151.573 89.2481 151.605 88.6873 151.731 88.0019C151.858 87.3164 152.032 86.7868 152.111 86.8023C152.19 86.8179 152.174 87.3787 152.047 88.0642C151.937 88.7496 151.763 89.2793 151.668 89.2637Z" fill="#453D5F"/>
<path d="M155.382 83.2973C155.35 83.3907 154.876 83.3284 154.323 83.157C153.77 83.0013 153.327 82.7988 153.359 82.7053C153.391 82.6118 153.865 82.6741 154.418 82.8455C154.971 83.0168 155.413 83.2194 155.382 83.2973Z" fill="#453D5F"/>
<path d="M147.765 82.939C147.67 82.9079 147.876 82.0043 148.192 80.8983C148.524 79.7922 148.855 78.9198 148.934 78.951C149.014 78.9822 148.824 79.8857 148.508 80.9918C148.192 82.0978 147.86 82.9702 147.765 82.939Z" fill="#453D5F"/>
<path d="M146.817 79.5741C146.77 79.652 146.248 79.3872 145.663 79.0133C145.079 78.6239 144.636 78.25 144.684 78.1721C144.731 78.0942 145.253 78.359 145.837 78.7329C146.422 79.1224 146.864 79.4962 146.817 79.5741Z" fill="#453D5F"/>
<path d="M148.034 74.1527C147.955 74.1995 147.512 73.6698 147.038 72.9688C146.564 72.2678 146.232 71.6602 146.311 71.6135C146.39 71.5667 146.833 72.0964 147.307 72.7974C147.781 73.4829 148.097 74.0904 148.034 74.1527Z" fill="#453D5F"/>
<path d="M142.298 74.8538C142.266 74.9317 141.507 74.6669 140.796 74.0282C140.069 73.3895 139.738 72.6729 139.801 72.6261C139.88 72.5794 140.322 73.1714 141.018 73.7789C141.697 74.4021 142.345 74.7759 142.298 74.8538Z" fill="#453D5F"/>
<path d="M145.158 73.919C145.095 73.9814 144.652 73.6698 144.146 73.218C143.657 72.7662 143.309 72.3456 143.372 72.2833C143.435 72.221 143.878 72.5326 144.383 72.9843C144.873 73.4361 145.221 73.8567 145.158 73.919Z" fill="#453D5F"/>
<path d="M141.476 69.2301C141.397 69.2301 141.397 68.5914 141.744 67.9059C142.092 67.2205 142.598 66.8154 142.645 66.8933C142.708 66.9556 142.345 67.423 142.029 68.0617C141.729 68.6848 141.571 69.2457 141.476 69.2301Z" fill="#453D5F"/>
<path d="M136.814 68.2797C136.735 68.233 137.02 67.6722 137.446 67.0179C137.873 66.3792 138.284 65.8807 138.363 65.943C138.442 65.9897 138.158 66.5506 137.731 67.2048C137.304 67.8435 136.893 68.3265 136.814 68.2797Z" fill="#453D5F"/>
<path d="M136.72 66.8933C136.704 66.9711 136.119 66.94 135.455 66.6284C134.807 66.3324 134.397 65.8963 134.46 65.8339C134.523 65.756 134.997 66.052 135.598 66.3324C136.214 66.6284 136.735 66.7998 136.72 66.8933Z" fill="#453D5F"/>
<path d="M136.957 63.4971C136.862 63.4816 136.846 62.9052 136.909 62.1886C136.972 61.472 137.099 60.9111 137.194 60.9111C137.288 60.9267 137.304 61.5031 137.241 62.2197C137.178 62.9363 137.051 63.4971 136.957 63.4971Z" fill="#453D5F"/>
<path d="M67.0481 102.91C67.0481 102.91 67.4274 102.972 68.0121 103.346C68.5809 103.705 69.3552 104.406 69.7977 105.558C70.2559 106.696 70.1927 108.316 69.2446 109.671C68.3597 111.058 66.416 111.914 64.5356 111.541C63.9983 111.431 63.4769 111.229 63.0344 110.964L63.2398 110.933C61.9915 112.226 59.9846 112.179 58.7678 111.4C57.5037 110.621 56.8716 109.391 56.6346 108.363C56.3975 107.319 56.4765 106.462 56.5714 105.886C56.6662 105.309 56.7926 105.013 56.7926 105.013C56.8874 105.013 56.3817 106.291 56.84 108.316C57.0928 109.297 57.7249 110.45 58.9101 111.167C60.032 111.883 61.8967 111.883 62.987 110.73L63.0818 110.637L63.1924 110.699C63.6033 110.949 64.0773 111.135 64.583 111.229C66.3528 111.587 68.1385 110.793 68.9918 109.515C69.8925 108.254 69.9873 106.727 69.5765 105.652C69.1814 104.546 68.4545 103.845 67.933 103.455C67.3958 103.05 67.0323 102.941 67.0481 102.91Z" fill="#453D5F"/>
<path d="M125.5 71.1305C125.468 71.1617 125.026 70.8657 124.362 70.3516C123.683 69.8219 122.782 69.0586 121.85 68.1395C120.917 67.2204 120.127 66.348 119.59 65.6937C119.053 65.0394 118.753 64.6032 118.784 64.5721C118.863 64.5098 120.222 66.1143 122.087 67.9214C123.92 69.7285 125.563 71.0526 125.5 71.1305Z" fill="#453D5F"/>
<path d="M125.137 67.2206C125.2 67.2829 125.121 67.4855 124.947 67.7036C124.773 67.9061 124.568 68.0307 124.504 67.984C124.441 67.9217 124.52 67.7191 124.694 67.501C124.868 67.2829 125.058 67.1583 125.137 67.2206Z" fill="#453D5F"/>
<path d="M61.4859 142.479C61.5017 142.495 61.2172 142.65 60.7116 142.931C60.0163 143.274 59.3052 143.647 58.5309 144.037C56.6821 144.94 54.0905 146.156 51.1987 147.402C48.307 148.648 45.6522 149.707 43.7244 150.44C42.9185 150.736 42.16 151.016 41.4331 151.281C40.88 151.468 40.5798 151.561 40.5798 151.546C40.564 151.53 40.8642 151.39 41.4015 151.172C42.1126 150.876 42.8553 150.564 43.6612 150.237C45.5732 149.458 48.1964 148.368 51.0881 147.106C53.9799 145.86 56.5714 144.676 58.4519 143.819C59.242 143.461 59.9689 143.133 60.68 142.806C61.1856 142.588 61.4859 142.464 61.4859 142.479Z" fill="#453D5F"/>
<path d="M62.3708 153.773C62.276 153.789 61.9283 151.078 61.5965 147.744C61.2647 144.411 61.0592 141.7 61.1541 141.684C61.2489 141.669 61.5965 144.379 61.9283 147.713C62.2602 151.063 62.4656 153.773 62.3708 153.773Z" fill="#453D5F"/>
<path d="M62.3708 153.773C62.3866 153.789 62.2127 153.992 61.8809 154.35C61.5332 154.693 61.0276 155.191 60.3639 155.752C59.0523 156.889 57.1403 158.369 54.9912 159.942C52.8421 161.5 50.8511 162.856 49.3973 163.821C48.7968 164.211 48.2279 164.569 47.659 164.943C47.2482 165.208 47.0112 165.333 46.9954 165.317C46.9796 165.301 47.185 165.13 47.58 164.834C48.1331 164.445 48.6862 164.04 49.255 163.635C50.9775 162.404 52.7947 161.111 54.7858 159.678C56.9348 158.12 58.8469 156.671 60.2059 155.581C60.8854 155.035 61.4226 154.584 61.7861 154.256C62.1495 153.929 62.355 153.758 62.3708 153.773Z" fill="#453D5F"/>
<path d="M49.0181 128.521C49.0339 128.521 49.0497 128.786 49.0497 129.284C49.0497 129.954 49.0497 130.639 49.0497 131.34C49.0497 133.085 49.0497 135.484 49.1129 138.133C49.1761 140.781 49.2867 143.18 49.3815 144.925C49.4131 145.626 49.4447 146.311 49.4763 146.981C49.4921 147.464 49.4921 147.744 49.4763 147.744C49.4605 147.744 49.4131 147.48 49.3499 146.997C49.2867 146.327 49.2077 145.641 49.1445 144.94C49.0023 143.211 48.8442 140.796 48.781 138.148C48.7178 135.484 48.7494 133.085 48.8126 131.34C48.8442 130.639 48.8916 129.954 48.9233 129.284C48.9707 128.786 49.0023 128.521 49.0181 128.521Z" fill="#453D5F"/>
</g>
<defs>
<clipPath id="clip0">
<rect width="251" height="224" fill="white"/>
</clipPath>
</defs>
</svg>
