<svg width="21" height="16.8" viewBox="0 0 30 24" fill="none" xmlns="http://www.w3.org/2000/svg">
<path d="M30 2.84123C28.8844 3.32308 27.6956 3.64246 26.4562 3.79754C27.7312 3.048 28.7044 1.87015 29.1619 0.450461C27.9731 1.14831 26.6606 1.64123 25.2619 1.91631C24.1331 0.732923 22.5244 0 20.7694 0C17.3644 0 14.6231 2.72123 14.6231 6.05723C14.6231 6.53723 14.6644 6.99877 14.7656 7.43815C9.6525 7.19262 5.12813 4.77969 2.08875 1.104C1.55812 2.01046 1.24688 3.048 1.24688 4.16492C1.24688 6.26215 2.34375 8.12123 3.97875 9.19754C2.99062 9.17908 2.02125 8.89662 1.2 8.45169C1.2 8.47015 1.2 8.49415 1.2 8.51815C1.2 11.4609 3.33187 13.9052 6.1275 14.4683C5.62687 14.6031 5.08125 14.6677 4.515 14.6677C4.12125 14.6677 3.72375 14.6455 3.35062 14.5643C4.1475 16.9625 6.40875 18.7255 9.0975 18.7828C7.005 20.3945 4.34812 21.3655 1.47188 21.3655C0.9675 21.3655 0.48375 21.3434 0 21.2825C2.72438 23.0123 5.95312 24 9.435 24C20.7525 24 26.94 14.7692 26.94 6.768C26.94 6.50031 26.9306 6.24185 26.9175 5.98523C28.1381 5.13231 29.1637 4.06708 30 2.84123Z" fill="white"/>
</svg>