<svg width="202" height="166" viewBox="0 0 202 166" fill="none" xmlns="http://www.w3.org/2000/svg">
<g clip-path="url(#clip0)">
<path d="M134.006 150.744C134.006 150.744 93.3577 160.028 77.0288 144L82.8703 105.72C84.6409 94.7128 83.5815 73.545 92.1773 66.0286C93.842 64.5729 95.431 63.845 95.431 63.845C101.454 60.9929 112.168 59.448 122.459 59.4035C134.959 59.3589 147.823 68.6282 151.107 80.4673L137.562 111.528L134.006 150.744Z" fill="#6AA6F8"/>
<path d="M129.98 85.2505C129.98 85.2505 148.186 119.683 139.151 121.511C109.399 127.541 92.1319 132.488 92.1319 132.488L90.6185 143.822C91.0574 145.53 150.804 144.06 157.871 136.172C162.865 130.616 169.509 117.752 155.374 89.9297L151.076 80.4673L129.98 85.2505Z" fill="#F0D1BB"/>
<path d="M95.7791 67.5142L50.4244 84.7456L49.0018 61.3941L39.2862 57.7102C39.2862 57.7102 25.2122 95.2032 42.8123 102.185C60.4275 109.167 80.2674 96.2727 80.2674 96.2727L95.7791 67.5142Z" fill="#F0D1BB"/>
<path d="M101.393 61.7803C85.5639 66.7269 76.1207 72.535 53.8293 81.6557L65.2701 106.701L85.004 100.491L101.393 61.7803Z" fill="#6AA6F8"/>
<path d="M127.256 80.4823L138.758 106.716L164.711 102.066L147.232 72.5203L126.53 80.4823" fill="#6AA6F8"/>
<path d="M113.682 98.367C119.205 98.0699 124.669 98.3075 130.192 98.367C130.676 98.367 130.646 97.6985 130.192 97.6539C124.744 97.0152 119.13 97.2677 113.682 97.7282C113.273 97.7579 113.258 98.3818 113.682 98.367Z" fill="#1A3066"/>
<path d="M138.425 67.9301C119.75 69.5789 132.523 96.5994 137.305 104.784C137.577 105.245 138.289 104.829 138.016 104.368C133.264 96.1092 120.537 70.9604 138.47 68.3757C138.743 68.346 138.697 67.9152 138.425 67.9301Z" fill="#1A3066"/>
<path d="M86.6839 83.3788C84.3836 92.3807 82.84 101.739 82.2649 111.008C82.2347 111.395 82.9005 111.484 82.961 111.097C84.2928 101.888 85.6397 92.6926 87.153 83.5125C87.1984 83.2154 86.7595 83.0817 86.6839 83.3788Z" fill="#1A3066"/>
<path d="M130.389 33.4673C130.677 29.6051 130.964 25.7281 131.252 21.8659C134.354 21.0043 135.958 17.1124 134.717 14.2009C133.476 11.2894 129.965 9.64058 126.787 10.0862C128.8 8.74931 128.649 5.52586 126.999 3.77302C125.35 2.02018 122.762 1.45571 120.325 1.35172C117.889 1.2626 115.437 1.54483 113.046 1.11405C110.927 0.727831 108.854 -0.222862 106.705 0.0445202C104.556 0.311903 102.513 2.67378 103.663 4.45633C100.576 4.01069 97.2469 3.60962 94.5078 5.06537C91.7687 6.52112 90.3915 10.6804 92.7523 12.6858C91.1936 13.4582 90.8001 15.6715 91.6779 17.157C92.5556 18.6425 94.3413 19.4149 96.0817 19.5486C97.822 19.6674 99.5472 19.2366 101.242 18.8059" fill="#284266"/>
<path d="M129.874 25.9361L129.254 33.9724C129.254 33.9724 136.215 34.8934 134.233 41.1323C132.25 47.3712 127.483 44.638 127.483 44.638C127.483 44.638 126.288 60.6215 109.611 55.5561C96.3389 51.5157 97.141 34.6409 98.8359 20.2616C99.4867 14.706 104.859 10.8735 110.473 11.943L120.507 13.8593C126.303 14.9585 130.328 20.1576 129.874 25.9361Z" fill="#F0D1BB"/>
<path d="M129.254 40.657L124.759 64.1866C123.745 69.4897 118.418 72.8766 113.076 71.6288C108.128 70.4701 104.95 65.7167 105.843 60.7998L108.279 47.3118L129.254 40.657Z" fill="#F0D1BB"/>
<path d="M110.806 40.9244C110.837 40.9095 110.882 41.2512 110.398 41.4888C109.883 41.7117 109.066 41.2215 108.854 40.4342C108.582 39.6617 108.627 38.7407 108.673 37.7752C108.733 36.7651 108.779 35.7253 108.839 34.6409C109.127 30.1845 109.535 26.5897 109.747 26.6045C109.959 26.6194 109.914 30.2439 109.626 34.6854C109.55 35.7698 109.475 36.8096 109.399 37.8198C109.308 38.7853 109.233 39.632 109.399 40.2708C109.52 40.9244 110.004 41.2512 110.322 41.1917C110.64 41.1472 110.746 40.8798 110.806 40.9244Z" fill="#284266"/>
<path d="M105.389 53.9222C105.464 53.8182 106.251 54.353 107.628 54.962C108.99 55.5711 111.003 56.1801 113.288 56.2247C115.573 56.2692 117.601 55.7345 118.994 55.1848C120.401 54.6352 121.203 54.145 121.279 54.2341C121.339 54.3084 120.628 54.9769 119.236 55.675C117.843 56.3732 115.71 57.0268 113.288 56.9823C110.867 56.9377 108.748 56.1801 107.401 55.4374C106.009 54.6946 105.343 53.9965 105.389 53.9222Z" fill="#284266"/>
<path d="M108.657 44.2222C108.748 44.1479 109.111 44.4896 109.823 44.8015C110.504 45.1135 111.593 45.3363 112.653 45.0095C113.727 44.6678 114.469 43.8657 114.832 43.2269C115.225 42.5733 115.316 42.0831 115.437 42.098C115.528 42.098 115.649 42.6476 115.346 43.4646C115.059 44.2668 114.242 45.3214 112.895 45.7522C111.548 46.1681 110.262 45.7819 109.55 45.2917C108.809 44.7867 108.582 44.2816 108.657 44.2222Z" fill="#284266"/>
<path d="M129.784 41.9197C129.768 41.8008 130.192 41.7414 130.646 41.4592C130.873 41.3106 131.07 41.1027 131.146 40.8204C131.221 40.5233 131.13 40.256 130.903 40.1817C130.707 40.1074 130.525 40.1668 130.495 40.2411L129.829 39.8995C130.465 38.622 131.025 37.7455 131.176 37.8198C131.342 37.8941 131.055 38.8893 130.51 40.1965L129.844 39.8549C130.132 39.3795 130.737 39.2756 131.191 39.4538C131.524 39.5578 131.811 39.8846 131.887 40.1817C131.978 40.4936 131.948 40.7907 131.842 41.0284C131.66 41.5335 131.221 41.8305 130.888 41.9345C130.192 42.1871 129.784 42.0088 129.784 41.9197Z" fill="#284266"/>
<path d="M116.935 26.0697C116.845 25.8766 117.722 25.431 118.827 25.7132C119.932 25.9955 120.461 26.7976 120.295 26.9313C120.129 27.0799 119.493 26.6788 118.63 26.456C117.768 26.2331 117.011 26.2777 116.935 26.0697Z" fill="#284266"/>
<path d="M102.513 23.8267C102.407 23.6485 103.285 23.084 104.496 23.188C105.706 23.292 106.463 23.9901 106.327 24.1535C106.206 24.3466 105.419 24.0347 104.42 23.9604C103.436 23.8713 102.604 24.0347 102.513 23.8267Z" fill="#284266"/>
<path d="M129.254 33.9874C124.593 29.531 123.231 22.1037 121.96 15.8499C117.647 18.9397 111.714 19.6973 106.751 17.7959C105.192 19.5933 103.361 21.1679 101.333 22.4454C100.758 22.8019 100.077 23.1584 99.411 22.9653C98.6241 22.7276 98.276 21.8512 98.0944 21.0787C97.5042 18.5832 97.4739 15.9094 98.3668 13.5029C99.2597 11.0965 101.121 8.97226 103.558 8.05127C106.16 7.05602 109.096 7.4868 111.79 8.18496C115.861 9.22479 119.796 10.8142 123.413 12.8939C126.969 14.9438 130.404 17.6473 131.902 21.4204C133.416 25.1935 133.401 32.5168 129.769 34.433" fill="#284266"/>
<path d="M118.192 32.6207C117.98 32.6059 117.843 32.0414 117.889 31.3581C117.934 30.6748 118.161 30.14 118.373 30.1548C118.585 30.1697 118.721 30.7342 118.676 31.4175C118.63 32.1008 118.419 32.6356 118.192 32.6207Z" fill="#284266"/>
<path d="M104.798 30.942C104.587 30.9271 104.45 30.3627 104.496 29.6794C104.541 28.996 104.768 28.4613 104.98 28.4761C105.192 28.491 105.328 29.0555 105.283 29.7388C105.237 30.4221 105.025 30.9568 104.798 30.942Z" fill="#284266"/>
<path d="M38.8019 58.4824C38.8019 58.4824 40.8147 46.3314 43.2209 46.4651C45.6271 46.5988 50.4395 46.4651 50.4395 46.4651C50.4395 46.4651 50.8481 34.9082 52.1798 36.7502C53.5116 38.5922 53.9353 54.1301 48.7748 61.5871L38.8019 58.4824Z" fill="#F0D1BB"/>
<path d="M92.1318 132.488C92.1318 132.488 70.5517 136.202 70.9754 138.95C71.3991 141.698 72.9125 144.476 72.9125 144.476L92.1318 144.03V132.488V132.488Z" fill="#F0D1BB"/>
<path d="M0 146.006L190.816 143.674L201.985 149.437C202 149.422 55.5091 188.891 0 146.006Z" fill="#FFFFFD"/>
<path opacity="0.3" d="M0 146.006L190.816 143.674L201.985 149.437C202 149.422 55.5091 188.891 0 146.006Z" fill="#6AA6F8"/>
<path opacity="0.3" d="M149.26 7.44232C148.685 8.54156 150.577 36.9881 150.577 36.9881L164.848 35.8294L163.183 43.331L170.159 35.6215L184.112 34.032L183.265 6.46191L149.26 7.44232Z" fill="#6AA6F8"/>
<path d="M157.069 20.1725L160.065 30.4073L164.257 29.6052L163.849 27.5404L165.044 26.8422L167.299 29.0258L174.412 27.6592L175.335 24.9854L173.307 24.5397L175.925 23.6782L175.35 20.8112L173.095 21.0043L176.198 20.1725L175.486 16.6222L168.253 18.0037C168.253 18.0037 168.722 13.0423 166.588 11.438L164.954 11.7499C164.954 11.7499 165.498 13.3097 165.453 14.2604C165.408 15.2259 163.985 19.6526 163.985 19.6526L161.76 20.6775L161.231 19.2366L157.069 20.1725Z" fill="white"/>
<path d="M115.558 145.129L115.392 142.203L70.9452 139.529L56.0388 100.387L7.2489 103.017L23.8956 145.352L115.558 145.129Z" fill="#FFFFFD"/>
<path opacity="0.41" d="M34.1409 121.659C34.2469 123.62 35.9569 125.12 37.9545 125.016C39.9521 124.912 41.4806 123.234 41.3747 121.273C41.2687 119.312 39.5587 117.812 37.5611 117.916C35.5635 118.035 34.035 119.699 34.1409 121.659Z" fill="#FFFFFD"/>
<path opacity="0.41" d="M32.7032 121.734C32.8545 124.482 35.2456 126.576 38.0453 126.428C40.8449 126.279 42.9787 123.932 42.8274 121.184C42.6761 118.436 40.285 116.341 37.4853 116.49C34.6857 116.653 32.5519 119 32.7032 121.734Z" fill="#FFFFFD"/>
<g opacity="0.5">
<path opacity="0.5" d="M115.558 145.129L115.392 142.203L70.9452 139.529L56.0388 100.387L7.2489 103.017L23.8956 145.352L115.558 145.129Z" fill="#6AA6F8"/>
<path opacity="0.5" d="M34.1409 121.659C34.2469 123.62 35.9569 125.12 37.9545 125.016C39.9521 124.912 41.4806 123.234 41.3747 121.273C41.2687 119.312 39.5587 117.812 37.5611 117.916C35.5635 118.035 34.035 119.699 34.1409 121.659Z" fill="#FFFFFD"/>
<path opacity="0.5" d="M32.7032 121.734C32.8545 124.482 35.2456 126.576 38.0453 126.428C40.8449 126.279 42.9787 123.932 42.8274 121.184C42.6761 118.436 40.285 116.341 37.4853 116.49C34.6857 116.653 32.5519 119 32.7032 121.734Z" fill="#FFFFFD"/>
</g>
<g opacity="0.3">
<path opacity="0.3" d="M10.0334 1.01001L12.4547 29.3526H65.6333L68.5843 39.3348L71.6867 28.387L81.826 27.8225L77.1498 2.4212L10.0334 1.01001Z" fill="#6AA6F8"/>
<g opacity="0.3">
<g opacity="0.3">
<path opacity="0.3" d="M17.0098 11.0665C35.2909 10.0712 53.6325 10.3535 71.8682 11.9281Z" fill="#6AA6F8"/>
</g>
<g opacity="0.3">
<path opacity="0.3" d="M18.0843 16.6519C36.3654 15.6567 54.707 15.9389 72.9427 17.5135Z" fill="#6AA6F8"/>
</g>
<g opacity="0.3">
<path opacity="0.3" d="M18.1751 21.3458C37.6215 21.8805 35.639 20.3208 54.934 21.8805Z" fill="#6AA6F8"/>
</g>
</g>
</g>
</g>
<defs>
<clipPath id="clip0">
<rect width="202" height="166" fill="white"/>
</clipPath>
</defs>
</svg>
