<svg width="31" height="20" viewBox="0 0 34 24" fill="none" xmlns="http://www.w3.org/2000/svg">
<path d="M24.65 12C26.996 12 28.883 10.08 28.883 7.71429C28.883 5.34857 26.996 3.42857 24.65 3.42857C22.304 3.42857 20.4 5.34857 20.4 7.71429C20.4 10.08 22.304 12 24.65 12ZM11.9 10.2857C14.722 10.2857 16.983 7.98857 16.983 5.14286C16.983 2.29714 14.722 0 11.9 0C9.078 0 6.8 2.29714 6.8 5.14286C6.8 7.98857 9.078 10.2857 11.9 10.2857ZM24.65 15.4286C21.539 15.4286 15.3 17.0057 15.3 20.1429V24H34V20.1429C34 17.0057 27.761 15.4286 24.65 15.4286ZM11.9 13.7143C7.939 13.7143 0 15.72 0 19.7143V24H11.9V20.1429C11.9 18.6857 12.461 16.1314 15.929 14.1943C14.45 13.8857 13.022 13.7143 11.9 13.7143Z" fill="#094067"/>
</svg>