<svg width="334" height="298" viewBox="0 0 334 298" fill="none" xmlns="http://www.w3.org/2000/svg">
<g filter="url(#filter0_d)">
<rect x="3" width="326" height="290" rx="10" fill="#3DA9FC"/>
</g>
<path d="M85.8135 50H81.8635L73.5885 41.675V50H70.3635V32.2H73.5885V40.175L81.5385 32.2H85.4135L76.7635 40.75L85.8135 50ZM101.689 37.05C103.122 37.05 104.189 37.4833 104.889 38.35C105.589 39.2 105.939 40.5 105.939 42.25V50H102.814V42.35C102.814 41.35 102.647 40.6333 102.314 40.2C101.997 39.75 101.464 39.525 100.714 39.525C99.8472 39.525 99.1639 39.8333 98.6639 40.45C98.1805 41.05 97.9389 41.8833 97.9389 42.95V50H94.8139V42.35C94.8139 41.3667 94.6389 40.65 94.2889 40.2C93.9555 39.75 93.4222 39.525 92.6889 39.525C91.8222 39.525 91.1389 39.8333 90.6389 40.45C90.1389 41.05 89.8889 41.8833 89.8889 42.95V50H86.7889V40.95C86.7889 39.6167 86.7222 38.425 86.5889 37.375H89.5139L89.7389 39.375C90.1055 38.625 90.6305 38.05 91.3139 37.65C92.0139 37.25 92.8139 37.05 93.7139 37.05C95.6472 37.05 96.9055 37.85 97.4889 39.45C97.8889 38.7 98.4555 38.1167 99.1889 37.7C99.9389 37.2667 100.772 37.05 101.689 37.05ZM122.935 37.075C123.418 37.075 123.835 37.1417 124.185 37.275L124.16 40.125C123.626 39.9083 123.076 39.8 122.51 39.8C121.443 39.8 120.626 40.1083 120.06 40.725C119.51 41.3417 119.235 42.1583 119.235 43.175V50H116.135V40.95C116.135 39.6167 116.068 38.425 115.935 37.375H118.86L119.11 39.6C119.426 38.7833 119.926 38.1583 120.61 37.725C121.293 37.2917 122.068 37.075 122.935 37.075ZM136.73 43.85H128.03C128.097 45.2 128.43 46.2 129.03 46.85C129.647 47.4833 130.555 47.8 131.755 47.8C133.139 47.8 134.422 47.35 135.605 46.45L136.505 48.6C135.905 49.0833 135.164 49.475 134.28 49.775C133.414 50.0583 132.53 50.2 131.63 50.2C129.564 50.2 127.939 49.6167 126.755 48.45C125.572 47.2833 124.98 45.6833 124.98 43.65C124.98 42.3667 125.239 41.225 125.755 40.225C126.272 39.225 126.997 38.45 127.93 37.9C128.864 37.3333 129.922 37.05 131.105 37.05C132.839 37.05 134.205 37.6167 135.205 38.75C136.222 39.8667 136.73 41.4083 136.73 43.375V43.85ZM131.18 39.3C130.347 39.3 129.664 39.55 129.13 40.05C128.614 40.5333 128.28 41.2417 128.13 42.175H134.005C133.905 41.225 133.614 40.5083 133.13 40.025C132.664 39.5417 132.014 39.3 131.18 39.3ZM145.102 50.2C143.785 50.2 142.643 49.9333 141.677 49.4C140.71 48.8667 139.968 48.1167 139.452 47.15C138.935 46.1667 138.677 45.0167 138.677 43.7C138.677 42.3833 138.943 41.225 139.477 40.225C140.027 39.225 140.793 38.45 141.777 37.9C142.777 37.3333 143.927 37.05 145.227 37.05C146.127 37.05 146.993 37.1917 147.827 37.475C148.677 37.7583 149.352 38.15 149.852 38.65L148.977 40.85C148.443 40.4167 147.877 40.0917 147.277 39.875C146.677 39.6417 146.085 39.525 145.502 39.525C144.368 39.525 143.485 39.8833 142.852 40.6C142.218 41.3 141.902 42.3167 141.902 43.65C141.902 44.9833 142.21 46 142.827 46.7C143.46 47.4 144.352 47.75 145.502 47.75C146.085 47.75 146.677 47.6333 147.277 47.4C147.877 47.1667 148.443 46.8333 148.977 46.4L149.852 48.6C149.318 49.1 148.627 49.4917 147.777 49.775C146.927 50.0583 146.035 50.2 145.102 50.2ZM157.675 50.2C156.392 50.2 155.258 49.9333 154.275 49.4C153.308 48.8667 152.558 48.1083 152.025 47.125C151.508 46.125 151.25 44.9583 151.25 43.625C151.25 42.2917 151.508 41.1333 152.025 40.15C152.558 39.15 153.308 38.3833 154.275 37.85C155.258 37.3167 156.392 37.05 157.675 37.05C158.942 37.05 160.058 37.3167 161.025 37.85C161.992 38.3833 162.733 39.15 163.25 40.15C163.783 41.1333 164.05 42.2917 164.05 43.625C164.05 44.9583 163.783 46.125 163.25 47.125C162.733 48.1083 161.992 48.8667 161.025 49.4C160.058 49.9333 158.942 50.2 157.675 50.2ZM157.65 47.75C158.717 47.75 159.525 47.4083 160.075 46.725C160.642 46.025 160.925 44.9917 160.925 43.625C160.925 42.275 160.642 41.25 160.075 40.55C159.508 39.8333 158.708 39.475 157.675 39.475C156.625 39.475 155.817 39.8333 155.25 40.55C154.683 41.25 154.4 42.275 154.4 43.625C154.4 44.9917 154.675 46.025 155.225 46.725C155.792 47.4083 156.6 47.75 157.65 47.75ZM173.545 37.075C174.028 37.075 174.445 37.1417 174.795 37.275L174.77 40.125C174.237 39.9083 173.687 39.8 173.12 39.8C172.053 39.8 171.237 40.1083 170.67 40.725C170.12 41.3417 169.845 42.1583 169.845 43.175V50H166.745V40.95C166.745 39.6167 166.678 38.425 166.545 37.375H169.47L169.72 39.6C170.037 38.7833 170.537 38.1583 171.22 37.725C171.903 37.2917 172.678 37.075 173.545 37.075ZM183.335 37.075C183.818 37.075 184.235 37.1417 184.585 37.275L184.56 40.125C184.027 39.9083 183.477 39.8 182.91 39.8C181.843 39.8 181.027 40.1083 180.46 40.725C179.91 41.3417 179.635 42.1583 179.635 43.175V50H176.535V40.95C176.535 39.6167 176.468 38.425 176.335 37.375H179.26L179.51 39.6C179.827 38.7833 180.327 38.1583 181.01 37.725C181.693 37.2917 182.468 37.075 183.335 37.075ZM186.325 50V37.375H189.425V50H186.325ZM186.125 31.65H189.6V34.725H186.125V31.65ZM204.919 31.6V50H201.844V47.975C201.46 48.675 200.91 49.225 200.194 49.625C199.477 50.0083 198.66 50.2 197.744 50.2C196.66 50.2 195.694 49.925 194.844 49.375C193.994 48.825 193.327 48.05 192.844 47.05C192.377 46.0333 192.144 44.875 192.144 43.575C192.144 42.275 192.377 41.1333 192.844 40.15C193.31 39.1667 193.969 38.4083 194.819 37.875C195.669 37.325 196.644 37.05 197.744 37.05C198.644 37.05 199.444 37.2417 200.144 37.625C200.86 37.9917 201.41 38.5167 201.794 39.2V31.6H204.919ZM198.569 47.75C199.602 47.75 200.402 47.3917 200.969 46.675C201.552 45.9583 201.844 44.9417 201.844 43.625C201.844 42.3083 201.56 41.2917 200.994 40.575C200.427 39.8583 199.627 39.5 198.594 39.5C197.544 39.5 196.727 39.8583 196.144 40.575C195.577 41.275 195.294 42.275 195.294 43.575C195.294 44.8917 195.577 45.9167 196.144 46.65C196.727 47.3833 197.535 47.75 198.569 47.75ZM214.047 50.2C212.764 50.2 211.63 49.9333 210.647 49.4C209.68 48.8667 208.93 48.1083 208.397 47.125C207.88 46.125 207.622 44.9583 207.622 43.625C207.622 42.2917 207.88 41.1333 208.397 40.15C208.93 39.15 209.68 38.3833 210.647 37.85C211.63 37.3167 212.764 37.05 214.047 37.05C215.314 37.05 216.43 37.3167 217.397 37.85C218.364 38.3833 219.105 39.15 219.622 40.15C220.155 41.1333 220.422 42.2917 220.422 43.625C220.422 44.9583 220.155 46.125 219.622 47.125C219.105 48.1083 218.364 48.8667 217.397 49.4C216.43 49.9333 215.314 50.2 214.047 50.2ZM214.022 47.75C215.089 47.75 215.897 47.4083 216.447 46.725C217.014 46.025 217.297 44.9917 217.297 43.625C217.297 42.275 217.014 41.25 216.447 40.55C215.88 39.8333 215.08 39.475 214.047 39.475C212.997 39.475 212.189 39.8333 211.622 40.55C211.055 41.25 210.772 42.275 210.772 43.625C210.772 44.9917 211.047 46.025 211.597 46.725C212.164 47.4083 212.972 47.75 214.022 47.75ZM227.742 50.2C225.459 50.2 223.642 49.6667 222.292 48.6L223.167 46.4C224.517 47.4 226.059 47.9 227.792 47.9C228.542 47.9 229.117 47.775 229.517 47.525C229.934 47.275 230.142 46.925 230.142 46.475C230.142 46.0917 230 45.7917 229.717 45.575C229.434 45.3417 228.95 45.1417 228.267 44.975L226.167 44.5C223.867 44 222.717 42.825 222.717 40.975C222.717 40.2083 222.934 39.5333 223.367 38.95C223.8 38.35 224.409 37.8833 225.192 37.55C225.975 37.2167 226.884 37.05 227.917 37.05C228.817 37.05 229.684 37.1917 230.517 37.475C231.35 37.7417 232.084 38.1333 232.717 38.65L231.792 40.775C230.525 39.8417 229.225 39.375 227.892 39.375C227.175 39.375 226.617 39.5083 226.217 39.775C225.817 40.0417 225.617 40.4083 225.617 40.875C225.617 41.2417 225.734 41.5333 225.967 41.75C226.217 41.9667 226.634 42.15 227.217 42.3L229.367 42.775C230.617 43.0583 231.525 43.5 232.092 44.1C232.675 44.6833 232.967 45.45 232.967 46.4C232.967 47.5667 232.5 48.4917 231.567 49.175C230.634 49.8583 229.359 50.2 227.742 50.2ZM253.552 43.85H244.852C244.918 45.2 245.252 46.2 245.852 46.85C246.468 47.4833 247.377 47.8 248.577 47.8C249.96 47.8 251.243 47.35 252.427 46.45L253.327 48.6C252.727 49.0833 251.985 49.475 251.102 49.775C250.235 50.0583 249.352 50.2 248.452 50.2C246.385 50.2 244.76 49.6167 243.577 48.45C242.393 47.2833 241.802 45.6833 241.802 43.65C241.802 42.3667 242.06 41.225 242.577 40.225C243.093 39.225 243.818 38.45 244.752 37.9C245.685 37.3333 246.743 37.05 247.927 37.05C249.66 37.05 251.027 37.6167 252.027 38.75C253.043 39.8667 253.552 41.4083 253.552 43.375V43.85ZM248.002 39.3C247.168 39.3 246.485 39.55 245.952 40.05C245.435 40.5333 245.102 41.2417 244.952 42.175H250.827C250.727 41.225 250.435 40.5083 249.952 40.025C249.485 39.5417 248.835 39.3 248.002 39.3ZM263.423 37.05C266.44 37.05 267.948 38.7833 267.948 42.25V50H264.823V42.4C264.823 41.4 264.631 40.675 264.248 40.225C263.865 39.7583 263.273 39.525 262.473 39.525C261.523 39.525 260.756 39.8333 260.173 40.45C259.59 41.05 259.298 41.85 259.298 42.85V50H256.198V40.95C256.198 39.6167 256.131 38.425 255.998 37.375H258.923L259.148 39.45C259.581 38.6833 260.165 38.0917 260.898 37.675C261.648 37.2583 262.49 37.05 263.423 37.05ZM118.925 68.05C120.359 68.05 121.425 68.4833 122.125 69.35C122.825 70.2 123.175 71.5 123.175 73.25V81H120.05V73.35C120.05 72.35 119.884 71.6333 119.55 71.2C119.234 70.75 118.7 70.525 117.95 70.525C117.084 70.525 116.4 70.8333 115.9 71.45C115.417 72.05 115.175 72.8833 115.175 73.95V81H112.05V73.35C112.05 72.3667 111.875 71.65 111.525 71.2C111.192 70.75 110.659 70.525 109.925 70.525C109.059 70.525 108.375 70.8333 107.875 71.45C107.375 72.05 107.125 72.8833 107.125 73.95V81H104.025V71.95C104.025 70.6167 103.959 69.425 103.825 68.375H106.75L106.975 70.375C107.342 69.625 107.867 69.05 108.55 68.65C109.25 68.25 110.05 68.05 110.95 68.05C112.884 68.05 114.142 68.85 114.725 70.45C115.125 69.7 115.692 69.1167 116.425 68.7C117.175 68.2667 118.009 68.05 118.925 68.05ZM137.561 74.85H128.861C128.927 76.2 129.261 77.2 129.861 77.85C130.477 78.4833 131.386 78.8 132.586 78.8C133.969 78.8 135.252 78.35 136.436 77.45L137.336 79.6C136.736 80.0833 135.994 80.475 135.111 80.775C134.244 81.0583 133.361 81.2 132.461 81.2C130.394 81.2 128.769 80.6167 127.586 79.45C126.402 78.2833 125.811 76.6833 125.811 74.65C125.811 73.3667 126.069 72.225 126.586 71.225C127.102 70.225 127.827 69.45 128.761 68.9C129.694 68.3333 130.752 68.05 131.936 68.05C133.669 68.05 135.036 68.6167 136.036 69.75C137.052 70.8667 137.561 72.4083 137.561 74.375V74.85ZM132.011 70.3C131.177 70.3 130.494 70.55 129.961 71.05C129.444 71.5333 129.111 72.2417 128.961 73.175H134.836C134.736 72.225 134.444 71.5083 133.961 71.025C133.494 70.5417 132.844 70.3 132.011 70.3ZM152.282 62.6V81H149.207V78.975C148.824 79.675 148.274 80.225 147.557 80.625C146.84 81.0083 146.024 81.2 145.107 81.2C144.024 81.2 143.057 80.925 142.207 80.375C141.357 79.825 140.69 79.05 140.207 78.05C139.74 77.0333 139.507 75.875 139.507 74.575C139.507 73.275 139.74 72.1333 140.207 71.15C140.674 70.1667 141.332 69.4083 142.182 68.875C143.032 68.325 144.007 68.05 145.107 68.05C146.007 68.05 146.807 68.2417 147.507 68.625C148.224 68.9917 148.774 69.5167 149.157 70.2V62.6H152.282ZM145.932 78.75C146.965 78.75 147.765 78.3917 148.332 77.675C148.915 76.9583 149.207 75.9417 149.207 74.625C149.207 73.3083 148.924 72.2917 148.357 71.575C147.79 70.8583 146.99 70.5 145.957 70.5C144.907 70.5 144.09 70.8583 143.507 71.575C142.94 72.275 142.657 73.275 142.657 74.575C142.657 75.8917 142.94 76.9167 143.507 77.65C144.09 78.3833 144.899 78.75 145.932 78.75ZM155.685 81V68.375H158.785V81H155.685ZM155.485 62.65H158.96V65.725H155.485V62.65ZM167.929 81.2C166.612 81.2 165.471 80.9333 164.504 80.4C163.537 79.8667 162.796 79.1167 162.279 78.15C161.762 77.1667 161.504 76.0167 161.504 74.7C161.504 73.3833 161.771 72.225 162.304 71.225C162.854 70.225 163.621 69.45 164.604 68.9C165.604 68.3333 166.754 68.05 168.054 68.05C168.954 68.05 169.821 68.1917 170.654 68.475C171.504 68.7583 172.179 69.15 172.679 69.65L171.804 71.85C171.271 71.4167 170.704 71.0917 170.104 70.875C169.504 70.6417 168.912 70.525 168.329 70.525C167.196 70.525 166.312 70.8833 165.679 71.6C165.046 72.3 164.729 73.3167 164.729 74.65C164.729 75.9833 165.037 77 165.654 77.7C166.287 78.4 167.179 78.75 168.329 78.75C168.912 78.75 169.504 78.6333 170.104 78.4C170.704 78.1667 171.271 77.8333 171.804 77.4L172.679 79.6C172.146 80.1 171.454 80.4917 170.604 80.775C169.754 81.0583 168.862 81.2 167.929 81.2ZM174.777 81V68.375H177.877V81H174.777ZM174.577 62.65H178.052V65.725H174.577V62.65ZM187.021 81.2C185.737 81.2 184.604 80.9333 183.621 80.4C182.654 79.8667 181.904 79.1083 181.371 78.125C180.854 77.125 180.596 75.9583 180.596 74.625C180.596 73.2917 180.854 72.1333 181.371 71.15C181.904 70.15 182.654 69.3833 183.621 68.85C184.604 68.3167 185.737 68.05 187.021 68.05C188.287 68.05 189.404 68.3167 190.371 68.85C191.337 69.3833 192.079 70.15 192.596 71.15C193.129 72.1333 193.396 73.2917 193.396 74.625C193.396 75.9583 193.129 77.125 192.596 78.125C192.079 79.1083 191.337 79.8667 190.371 80.4C189.404 80.9333 188.287 81.2 187.021 81.2ZM186.996 78.75C188.062 78.75 188.871 78.4083 189.421 77.725C189.987 77.025 190.271 75.9917 190.271 74.625C190.271 73.275 189.987 72.25 189.421 71.55C188.854 70.8333 188.054 70.475 187.021 70.475C185.971 70.475 185.162 70.8333 184.596 71.55C184.029 72.25 183.746 73.275 183.746 74.625C183.746 75.9917 184.021 77.025 184.571 77.725C185.137 78.4083 185.946 78.75 186.996 78.75ZM203.316 68.05C206.332 68.05 207.841 69.7833 207.841 73.25V81H204.716V73.4C204.716 72.4 204.524 71.675 204.141 71.225C203.757 70.7583 203.166 70.525 202.366 70.525C201.416 70.525 200.649 70.8333 200.066 71.45C199.482 72.05 199.191 72.85 199.191 73.85V81H196.091V71.95C196.091 70.6167 196.024 69.425 195.891 68.375H198.816L199.041 70.45C199.474 69.6833 200.057 69.0917 200.791 68.675C201.541 68.2583 202.382 68.05 203.316 68.05ZM222.204 74.85H213.504C213.571 76.2 213.904 77.2 214.504 77.85C215.121 78.4833 216.029 78.8 217.229 78.8C218.612 78.8 219.896 78.35 221.079 77.45L221.979 79.6C221.379 80.0833 220.637 80.475 219.754 80.775C218.887 81.0583 218.004 81.2 217.104 81.2C215.037 81.2 213.412 80.6167 212.229 79.45C211.046 78.2833 210.454 76.6833 210.454 74.65C210.454 73.3667 210.712 72.225 211.229 71.225C211.746 70.225 212.471 69.45 213.404 68.9C214.337 68.3333 215.396 68.05 216.579 68.05C218.312 68.05 219.679 68.6167 220.679 69.75C221.696 70.8667 222.204 72.4083 222.204 74.375V74.85ZM216.654 70.3C215.821 70.3 215.137 70.55 214.604 71.05C214.087 71.5333 213.754 72.2417 213.604 73.175H219.479C219.379 72.225 219.087 71.5083 218.604 71.025C218.137 70.5417 217.487 70.3 216.654 70.3ZM229.475 81.2C227.192 81.2 225.375 80.6667 224.025 79.6L224.9 77.4C226.25 78.4 227.792 78.9 229.525 78.9C230.275 78.9 230.85 78.775 231.25 78.525C231.667 78.275 231.875 77.925 231.875 77.475C231.875 77.0917 231.734 76.7917 231.45 76.575C231.167 76.3417 230.684 76.1417 230 75.975L227.9 75.5C225.6 75 224.45 73.825 224.45 71.975C224.45 71.2083 224.667 70.5333 225.1 69.95C225.534 69.35 226.142 68.8833 226.925 68.55C227.709 68.2167 228.617 68.05 229.65 68.05C230.55 68.05 231.417 68.1917 232.25 68.475C233.084 68.7417 233.817 69.1333 234.45 69.65L233.525 71.775C232.259 70.8417 230.959 70.375 229.625 70.375C228.909 70.375 228.35 70.5083 227.95 70.775C227.55 71.0417 227.35 71.4083 227.35 71.875C227.35 72.2417 227.467 72.5333 227.7 72.75C227.95 72.9667 228.367 73.15 228.95 73.3L231.1 73.775C232.35 74.0583 233.259 74.5 233.825 75.1C234.409 75.6833 234.7 76.45 234.7 77.4C234.7 78.5667 234.234 79.4917 233.3 80.175C232.367 80.8583 231.092 81.2 229.475 81.2Z" fill="white"/>
<path d="M76.2268 180.65H87.0768V188H56.3468V180.65H67.2668V148.52L57.1168 154.61V146.56L70.9768 138.16H76.2268V180.65ZM119.179 162.38C122.119 163.173 124.359 164.62 125.899 166.72C127.486 168.82 128.279 171.41 128.279 174.49C128.279 178.83 126.669 182.26 123.449 184.78C120.276 187.3 115.983 188.56 110.569 188.56C107.209 188.56 103.966 188.047 100.839 187.02C97.7595 185.993 95.2162 184.57 93.2095 182.75L96.2895 176.17C100.723 179.623 105.366 181.35 110.219 181.35C113.393 181.35 115.749 180.72 117.289 179.46C118.876 178.2 119.669 176.287 119.669 173.72C119.669 171.2 118.876 169.357 117.289 168.19C115.703 166.977 113.253 166.37 109.939 166.37H103.359V159.16H108.749C115.189 159.16 118.409 156.71 118.409 151.81C118.409 149.523 117.709 147.773 116.309 146.56C114.909 145.347 112.949 144.74 110.429 144.74C105.949 144.74 101.469 146.467 96.9895 149.92L93.9795 143.34C95.9862 141.567 98.5062 140.167 101.539 139.14C104.619 138.067 107.769 137.53 110.989 137.53C115.889 137.53 119.786 138.743 122.679 141.17C125.619 143.55 127.089 146.747 127.089 150.76C127.043 153.513 126.319 155.917 124.919 157.97C123.566 159.977 121.653 161.447 119.179 162.38ZM170.882 180.65V188H137.422V181.35L154.362 163.08C156.369 160.887 157.839 158.88 158.772 157.06C159.705 155.24 160.172 153.443 160.172 151.67C160.172 149.383 159.495 147.657 158.142 146.49C156.835 145.323 154.945 144.74 152.472 144.74C148.085 144.74 143.582 146.467 138.962 149.92L135.952 143.34C137.912 141.567 140.432 140.167 143.512 139.14C146.592 138.067 149.695 137.53 152.822 137.53C157.815 137.53 161.759 138.767 164.652 141.24C167.592 143.667 169.062 146.957 169.062 151.11C169.062 153.957 168.432 156.64 167.172 159.16C165.959 161.68 163.905 164.503 161.012 167.63L148.762 180.65H170.882Z" fill="white"/>
<g clip-path="url(#clip0)">
<path d="M285.783 175.226L278.634 137.662C278.401 136.439 277.413 135.683 276.427 135.971C275.441 136.259 274.83 137.485 275.063 138.708L282.212 176.271C282.412 177.318 283.165 178.024 283.996 178.024C284.136 178.024 284.277 178.004 284.419 177.963C285.405 177.674 286.016 176.449 285.783 175.226Z" fill="#E8E3DD"/>
<path d="M306.921 286.292L287.176 182.544C286.943 181.321 285.953 180.564 284.969 180.852C283.983 181.141 283.372 182.366 283.605 183.589L303.35 287.337C303.55 288.384 304.303 289.09 305.134 289.09C305.274 289.09 305.415 289.07 305.557 289.029C306.543 288.74 307.154 287.515 306.921 286.292Z" fill="#E8E3DD"/>
<path d="M207.104 269.785C206.12 269.497 205.13 270.254 204.897 271.477L202.078 286.292C201.845 287.515 202.456 288.74 203.442 289.029C203.584 289.07 203.725 289.09 203.865 289.09C204.696 289.09 205.45 288.384 205.649 287.337L208.468 272.522C208.701 271.299 208.09 270.074 207.104 269.785Z" fill="#E8E3DD"/>
<path d="M232.573 135.97C231.588 135.682 230.598 136.439 230.366 137.662L206.722 261.892C206.49 263.115 207.1 264.34 208.087 264.629C208.228 264.67 208.37 264.69 208.509 264.69C209.341 264.69 210.094 263.984 210.294 262.937L233.937 138.707C234.17 137.484 233.559 136.259 232.573 135.97Z" fill="#E8E3DD"/>
<path d="M316.93 286.196L283.041 137.565C282.765 136.356 281.75 135.654 280.776 135.995C279.801 136.337 279.234 137.594 279.51 138.803L313.4 287.434C313.628 288.436 314.364 289.091 315.164 289.091C315.329 289.091 315.497 289.063 315.664 289.004C316.639 288.662 317.206 287.405 316.93 286.196Z" fill="#E8E3DD"/>
<path d="M228.224 135.995C227.25 135.654 226.235 136.356 225.96 137.565L192.07 286.196C191.794 287.405 192.361 288.662 193.336 289.004C193.503 289.063 193.671 289.091 193.836 289.091C194.636 289.091 195.372 288.436 195.6 287.434L229.49 138.803C229.766 137.594 229.199 136.337 228.224 135.995Z" fill="#E8E3DD"/>
<path d="M259.249 138.114C259.218 136.858 258.379 135.868 257.359 135.91C256.346 135.948 255.55 136.998 255.582 138.254L255.798 146.959H253.202L253.418 138.254C253.449 136.998 252.653 135.948 251.641 135.91C250.64 135.872 249.781 136.858 249.75 138.114L249.476 149.164C249.461 149.779 249.647 150.376 249.993 150.818C250.339 151.26 250.814 151.509 251.31 151.509H257.69C258.186 151.509 258.662 151.26 259.007 150.818C259.353 150.376 259.539 149.779 259.524 149.164L259.249 138.114Z" fill="#E8E3DD"/>
<path d="M259.665 154.88C259.635 153.651 258.823 152.675 257.831 152.675H251.168C250.177 152.675 249.365 153.651 249.334 154.88L248.852 174.281C248.837 174.896 249.023 175.492 249.369 175.934C249.715 176.376 250.19 176.626 250.686 176.626H258.313C258.81 176.626 259.285 176.376 259.631 175.934C259.976 175.492 260.162 174.896 260.147 174.281L259.665 154.88ZM252.578 172.076L252.947 157.225H256.052L256.421 172.076H252.578Z" fill="#E8E3DD"/>
<path d="M260.328 181.572C260.298 180.343 259.485 179.367 258.494 179.367H250.505C249.514 179.367 248.702 180.343 248.671 181.572L248.121 203.714C248.106 204.33 248.292 204.926 248.637 205.368C248.983 205.81 249.458 206.06 249.955 206.06H259.045C259.541 206.06 260.016 205.81 260.362 205.368C260.708 204.926 260.894 204.33 260.879 203.714L260.328 181.572ZM251.847 201.51L252.284 183.916H256.715L257.153 201.51H251.847Z" fill="#E8E3DD"/>
<path d="M261.133 214.007C261.102 212.779 260.29 211.802 259.299 211.802H249.7C248.709 211.802 247.897 212.779 247.866 214.007L247.196 241.025C247.181 241.64 247.367 242.236 247.713 242.678C248.058 243.12 248.533 243.37 249.03 243.37H259.969C260.465 243.37 260.941 243.12 261.286 242.679C261.632 242.237 261.818 241.64 261.803 241.025L261.133 214.007ZM250.922 238.82L251.479 216.352H257.52L258.077 238.82H250.922Z" fill="#E8E3DD"/>
<path d="M262.127 254.043C262.096 252.814 261.284 251.838 260.292 251.838H248.707C247.716 251.838 246.904 252.815 246.874 254.043L246.061 286.745C246.03 288.001 246.826 289.05 247.839 289.089C248.843 289.127 249.698 288.141 249.729 286.885L250.486 256.388H258.513L259.271 286.885C259.301 288.117 260.116 289.09 261.104 289.09C261.123 289.09 261.142 289.09 261.161 289.089C262.174 289.05 262.97 288.001 262.938 286.745L262.127 254.043Z" fill="#E8E3DD"/>
</g>
<path d="M110.746 223H107.586L100.966 216.34V223H98.3857V208.76H100.966V215.14L107.326 208.76H110.426L103.506 215.6L110.746 223ZM123.446 212.64C124.593 212.64 125.446 212.987 126.006 213.68C126.566 214.36 126.846 215.4 126.846 216.8V223H124.346V216.88C124.346 216.08 124.213 215.507 123.946 215.16C123.693 214.8 123.266 214.62 122.666 214.62C121.973 214.62 121.426 214.867 121.026 215.36C120.639 215.84 120.446 216.507 120.446 217.36V223H117.946V216.88C117.946 216.093 117.806 215.52 117.526 215.16C117.259 214.8 116.833 214.62 116.246 214.62C115.553 214.62 115.006 214.867 114.606 215.36C114.206 215.84 114.006 216.507 114.006 217.36V223H111.526V215.76C111.526 214.693 111.473 213.74 111.366 212.9H113.706L113.886 214.5C114.179 213.9 114.599 213.44 115.146 213.12C115.706 212.8 116.346 212.64 117.066 212.64C118.613 212.64 119.619 213.28 120.086 214.56C120.406 213.96 120.859 213.493 121.446 213.16C122.046 212.813 122.713 212.64 123.446 212.64Z" fill="white"/>
<defs>
<filter id="filter0_d" x="0" y="0" width="334" height="298" filterUnits="userSpaceOnUse" color-interpolation-filters="sRGB">
<feFlood flood-opacity="0" result="BackgroundImageFix"/>
<feColorMatrix in="SourceAlpha" type="matrix" values="0 0 0 0 0 0 0 0 0 0 0 0 0 0 0 0 0 0 127 0"/>
<feOffset dx="1" dy="4"/>
<feGaussianBlur stdDeviation="2"/>
<feColorMatrix type="matrix" values="0 0 0 0 0 0 0 0 0 0 0 0 0 0 0 0 0 0 0.25 0"/>
<feBlend mode="normal" in2="BackgroundImageFix" result="effect1_dropShadow"/>
<feBlend mode="normal" in="SourceGraphic" in2="effect1_dropShadow" result="shape"/>
</filter>
<clipPath id="clip0">
<rect width="125" height="155" fill="white" transform="translate(192 135)"/>
</clipPath>
</defs>
</svg>