<svg width="334" height="298" viewBox="0 0 334 298" fill="none" xmlns="http://www.w3.org/2000/svg">
<g filter="url(#filter0_d)">
<rect x="3" width="326" height="290" rx="10" fill="#3DA9FC"/>
</g>
<path d="M77.7027 32.2H80.7277V50H78.3277L68.7277 37.525V50H65.7277V32.2H68.1277L77.7027 44.65V32.2ZM87.2998 39.575C86.5998 39.575 85.9581 39.4167 85.3748 39.1C84.7915 38.7667 84.3331 38.3167 83.9998 37.75C83.6665 37.1667 83.4998 36.525 83.4998 35.825C83.4998 35.125 83.6665 34.4917 83.9998 33.925C84.3331 33.3417 84.7915 32.8917 85.3748 32.575C85.9581 32.2417 86.5998 32.075 87.2998 32.075C87.9998 32.075 88.6415 32.2417 89.2248 32.575C89.8081 32.8917 90.2665 33.3417 90.5998 33.925C90.9331 34.4917 91.0998 35.125 91.0998 35.825C91.0998 36.525 90.9331 37.1667 90.5998 37.75C90.2665 38.3167 89.8081 38.7667 89.2248 39.1C88.6415 39.4167 87.9998 39.575 87.2998 39.575ZM87.2998 37.875C87.8665 37.875 88.3331 37.6833 88.6998 37.3C89.0831 36.9167 89.2748 36.425 89.2748 35.825C89.2748 35.225 89.0831 34.7333 88.6998 34.35C88.3331 33.9667 87.8665 33.775 87.2998 33.775C86.7331 33.775 86.2665 33.9667 85.8998 34.35C85.5331 34.7333 85.3498 35.225 85.3498 35.825C85.3498 36.425 85.5331 36.9167 85.8998 37.3C86.2665 37.6833 86.7331 37.875 87.2998 37.875ZM112.587 31.6V50H109.513V47.975C109.129 48.675 108.579 49.225 107.863 49.625C107.146 50.0083 106.329 50.2 105.412 50.2C104.329 50.2 103.363 49.925 102.513 49.375C101.663 48.825 100.996 48.05 100.513 47.05C100.046 46.0333 99.8125 44.875 99.8125 43.575C99.8125 42.275 100.046 41.1333 100.513 40.15C100.979 39.1667 101.638 38.4083 102.487 37.875C103.338 37.325 104.313 37.05 105.412 37.05C106.313 37.05 107.113 37.2417 107.813 37.625C108.529 37.9917 109.079 38.5167 109.463 39.2V31.6H112.587ZM106.238 47.75C107.271 47.75 108.071 47.3917 108.638 46.675C109.221 45.9583 109.513 44.9417 109.513 43.625C109.513 42.3083 109.229 41.2917 108.663 40.575C108.096 39.8583 107.296 39.5 106.263 39.5C105.213 39.5 104.396 39.8583 103.813 40.575C103.246 41.275 102.963 42.275 102.963 43.575C102.963 44.8917 103.246 45.9167 103.813 46.65C104.396 47.3833 105.204 47.75 106.238 47.75ZM127.041 43.85H118.341C118.408 45.2 118.741 46.2 119.341 46.85C119.958 47.4833 120.866 47.8 122.066 47.8C123.449 47.8 124.733 47.35 125.916 46.45L126.816 48.6C126.216 49.0833 125.474 49.475 124.591 49.775C123.724 50.0583 122.841 50.2 121.941 50.2C119.874 50.2 118.249 49.6167 117.066 48.45C115.883 47.2833 115.291 45.6833 115.291 43.65C115.291 42.3667 115.549 41.225 116.066 40.225C116.583 39.225 117.308 38.45 118.241 37.9C119.174 37.3333 120.233 37.05 121.416 37.05C123.149 37.05 124.516 37.6167 125.516 38.75C126.533 39.8667 127.041 41.4083 127.041 43.375V43.85ZM121.491 39.3C120.658 39.3 119.974 39.55 119.441 40.05C118.924 40.5333 118.591 41.2417 118.441 42.175H124.316C124.216 41.225 123.924 40.5083 123.441 40.025C122.974 39.5417 122.324 39.3 121.491 39.3ZM151.448 37.05C152.881 37.05 153.948 37.4833 154.648 38.35C155.348 39.2 155.698 40.5 155.698 42.25V50H152.573V42.35C152.573 41.35 152.406 40.6333 152.073 40.2C151.756 39.75 151.223 39.525 150.473 39.525C149.606 39.525 148.923 39.8333 148.423 40.45C147.939 41.05 147.698 41.8833 147.698 42.95V50H144.573V42.35C144.573 41.3667 144.398 40.65 144.048 40.2C143.714 39.75 143.181 39.525 142.448 39.525C141.581 39.525 140.898 39.8333 140.398 40.45C139.898 41.05 139.648 41.8833 139.648 42.95V50H136.548V40.95C136.548 39.6167 136.481 38.425 136.348 37.375H139.273L139.498 39.375C139.864 38.625 140.389 38.05 141.073 37.65C141.773 37.25 142.573 37.05 143.473 37.05C145.406 37.05 146.664 37.85 147.248 39.45C147.648 38.7 148.214 38.1167 148.948 37.7C149.698 37.2667 150.531 37.05 151.448 37.05ZM170.083 43.85H161.383C161.45 45.2 161.783 46.2 162.383 46.85C163 47.4833 163.908 47.8 165.108 47.8C166.491 47.8 167.775 47.35 168.958 46.45L169.858 48.6C169.258 49.0833 168.516 49.475 167.633 49.775C166.766 50.0583 165.883 50.2 164.983 50.2C162.916 50.2 161.291 49.6167 160.108 48.45C158.925 47.2833 158.333 45.6833 158.333 43.65C158.333 42.3667 158.591 41.225 159.108 40.225C159.625 39.225 160.35 38.45 161.283 37.9C162.216 37.3333 163.275 37.05 164.458 37.05C166.191 37.05 167.558 37.6167 168.558 38.75C169.575 39.8667 170.083 41.4083 170.083 43.375V43.85ZM164.533 39.3C163.7 39.3 163.016 39.55 162.483 40.05C161.966 40.5333 161.633 41.2417 161.483 42.175H167.358C167.258 41.225 166.966 40.5083 166.483 40.025C166.016 39.5417 165.366 39.3 164.533 39.3ZM184.804 31.6V50H181.729V47.975C181.346 48.675 180.796 49.225 180.079 49.625C179.363 50.0083 178.546 50.2 177.629 50.2C176.546 50.2 175.579 49.925 174.729 49.375C173.879 48.825 173.213 48.05 172.729 47.05C172.263 46.0333 172.029 44.875 172.029 43.575C172.029 42.275 172.263 41.1333 172.729 40.15C173.196 39.1667 173.854 38.4083 174.704 37.875C175.554 37.325 176.529 37.05 177.629 37.05C178.529 37.05 179.329 37.2417 180.029 37.625C180.746 37.9917 181.296 38.5167 181.679 39.2V31.6H184.804ZM178.454 47.75C179.488 47.75 180.288 47.3917 180.854 46.675C181.438 45.9583 181.729 44.9417 181.729 43.625C181.729 42.3083 181.446 41.2917 180.879 40.575C180.313 39.8583 179.513 39.5 178.479 39.5C177.429 39.5 176.613 39.8583 176.029 40.575C175.463 41.275 175.179 42.275 175.179 43.575C175.179 44.8917 175.463 45.9167 176.029 46.65C176.613 47.3833 177.421 47.75 178.454 47.75ZM188.208 50V37.375H191.308V50H188.208ZM188.008 31.65H191.483V34.725H188.008V31.65ZM200.451 50.2C199.135 50.2 197.993 49.9333 197.026 49.4C196.06 48.8667 195.318 48.1167 194.801 47.15C194.285 46.1667 194.026 45.0167 194.026 43.7C194.026 42.3833 194.293 41.225 194.826 40.225C195.376 39.225 196.143 38.45 197.126 37.9C198.126 37.3333 199.276 37.05 200.576 37.05C201.476 37.05 202.343 37.1917 203.176 37.475C204.026 37.7583 204.701 38.15 205.201 38.65L204.326 40.85C203.793 40.4167 203.226 40.0917 202.626 39.875C202.026 39.6417 201.435 39.525 200.851 39.525C199.718 39.525 198.835 39.8833 198.201 40.6C197.568 41.3 197.251 42.3167 197.251 43.65C197.251 44.9833 197.56 46 198.176 46.7C198.81 47.4 199.701 47.75 200.851 47.75C201.435 47.75 202.026 47.6333 202.626 47.4C203.226 47.1667 203.793 46.8333 204.326 46.4L205.201 48.6C204.668 49.1 203.976 49.4917 203.126 49.775C202.276 50.0583 201.385 50.2 200.451 50.2ZM207.3 50V37.375H210.4V50H207.3ZM207.1 31.65H210.575V34.725H207.1V31.65ZM219.543 50.2C218.26 50.2 217.126 49.9333 216.143 49.4C215.176 48.8667 214.426 48.1083 213.893 47.125C213.376 46.125 213.118 44.9583 213.118 43.625C213.118 42.2917 213.376 41.1333 213.893 40.15C214.426 39.15 215.176 38.3833 216.143 37.85C217.126 37.3167 218.26 37.05 219.543 37.05C220.81 37.05 221.926 37.3167 222.893 37.85C223.86 38.3833 224.601 39.15 225.118 40.15C225.651 41.1333 225.918 42.2917 225.918 43.625C225.918 44.9583 225.651 46.125 225.118 47.125C224.601 48.1083 223.86 48.8667 222.893 49.4C221.926 49.9333 220.81 50.2 219.543 50.2ZM219.518 47.75C220.585 47.75 221.393 47.4083 221.943 46.725C222.51 46.025 222.793 44.9917 222.793 43.625C222.793 42.275 222.51 41.25 221.943 40.55C221.376 39.8333 220.576 39.475 219.543 39.475C218.493 39.475 217.685 39.8333 217.118 40.55C216.551 41.25 216.268 42.275 216.268 43.625C216.268 44.9917 216.543 46.025 217.093 46.725C217.66 47.4083 218.468 47.75 219.518 47.75ZM235.838 37.05C238.855 37.05 240.363 38.7833 240.363 42.25V50H237.238V42.4C237.238 41.4 237.046 40.675 236.663 40.225C236.28 39.7583 235.688 39.525 234.888 39.525C233.938 39.525 233.171 39.8333 232.588 40.45C232.005 41.05 231.713 41.85 231.713 42.85V50H228.613V40.95C228.613 39.6167 228.546 38.425 228.413 37.375H231.338L231.563 39.45C231.996 38.6833 232.58 38.0917 233.313 37.675C234.063 37.2583 234.905 37.05 235.838 37.05ZM254.727 43.85H246.027C246.093 45.2 246.427 46.2 247.027 46.85C247.643 47.4833 248.552 47.8 249.752 47.8C251.135 47.8 252.418 47.35 253.602 46.45L254.502 48.6C253.902 49.0833 253.16 49.475 252.277 49.775C251.41 50.0583 250.527 50.2 249.627 50.2C247.56 50.2 245.935 49.6167 244.752 48.45C243.568 47.2833 242.977 45.6833 242.977 43.65C242.977 42.3667 243.235 41.225 243.752 40.225C244.268 39.225 244.993 38.45 245.927 37.9C246.86 37.3333 247.918 37.05 249.102 37.05C250.835 37.05 252.202 37.6167 253.202 38.75C254.218 39.8667 254.727 41.4083 254.727 43.375V43.85ZM249.177 39.3C248.343 39.3 247.66 39.55 247.127 40.05C246.61 40.5333 246.277 41.2417 246.127 42.175H252.002C251.902 41.225 251.61 40.5083 251.127 40.025C250.66 39.5417 250.01 39.3 249.177 39.3ZM261.998 50.2C259.715 50.2 257.898 49.6667 256.548 48.6L257.423 46.4C258.773 47.4 260.315 47.9 262.048 47.9C262.798 47.9 263.373 47.775 263.773 47.525C264.19 47.275 264.398 46.925 264.398 46.475C264.398 46.0917 264.256 45.7917 263.973 45.575C263.69 45.3417 263.206 45.1417 262.523 44.975L260.423 44.5C258.123 44 256.973 42.825 256.973 40.975C256.973 40.2083 257.19 39.5333 257.623 38.95C258.056 38.35 258.665 37.8833 259.448 37.55C260.231 37.2167 261.14 37.05 262.173 37.05C263.073 37.05 263.94 37.1917 264.773 37.475C265.606 37.7417 266.34 38.1333 266.973 38.65L266.048 40.775C264.781 39.8417 263.481 39.375 262.148 39.375C261.431 39.375 260.873 39.5083 260.473 39.775C260.073 40.0417 259.873 40.4083 259.873 40.875C259.873 41.2417 259.99 41.5333 260.223 41.75C260.473 41.9667 260.89 42.15 261.473 42.3L263.623 42.775C264.873 43.0583 265.781 43.5 266.348 44.1C266.931 44.6833 267.223 45.45 267.223 46.4C267.223 47.5667 266.756 48.4917 265.823 49.175C264.89 49.8583 263.615 50.2 261.998 50.2ZM112.732 68.075C113.216 68.075 113.632 68.1417 113.982 68.275L113.957 71.125C113.424 70.9083 112.874 70.8 112.307 70.8C111.241 70.8 110.424 71.1083 109.857 71.725C109.307 72.3417 109.032 73.1583 109.032 74.175V81H105.932V71.95C105.932 70.6167 105.866 69.425 105.732 68.375H108.657L108.907 70.6C109.224 69.7833 109.724 69.1583 110.407 68.725C111.091 68.2917 111.866 68.075 112.732 68.075ZM126.528 74.85H117.828C117.895 76.2 118.228 77.2 118.828 77.85C119.445 78.4833 120.353 78.8 121.553 78.8C122.937 78.8 124.22 78.35 125.403 77.45L126.303 79.6C125.703 80.0833 124.962 80.475 124.078 80.775C123.212 81.0583 122.328 81.2 121.428 81.2C119.362 81.2 117.737 80.6167 116.553 79.45C115.37 78.2833 114.778 76.6833 114.778 74.65C114.778 73.3667 115.037 72.225 115.553 71.225C116.07 70.225 116.795 69.45 117.728 68.9C118.662 68.3333 119.72 68.05 120.903 68.05C122.637 68.05 124.003 68.6167 125.003 69.75C126.02 70.8667 126.528 72.4083 126.528 74.375V74.85ZM120.978 70.3C120.145 70.3 119.462 70.55 118.928 71.05C118.412 71.5333 118.078 72.2417 117.928 73.175H123.803C123.703 72.225 123.412 71.5083 122.928 71.025C122.462 70.5417 121.812 70.3 120.978 70.3ZM141.25 68.375V81H138.175V78.975C137.791 79.675 137.241 80.225 136.525 80.625C135.808 81.0083 134.991 81.2 134.075 81.2C132.975 81.2 132 80.9333 131.15 80.4C130.3 79.8667 129.641 79.1083 129.175 78.125C128.708 77.1417 128.475 76 128.475 74.7C128.475 73.4 128.708 72.25 129.175 71.25C129.658 70.2333 130.325 69.45 131.175 68.9C132.025 68.3333 132.991 68.05 134.075 68.05C134.991 68.05 135.808 68.25 136.525 68.65C137.241 69.0333 137.791 69.575 138.175 70.275V68.375H141.25ZM134.925 78.75C135.958 78.75 136.758 78.3917 137.325 77.675C137.891 76.9583 138.175 75.95 138.175 74.65C138.175 73.3167 137.891 72.2917 137.325 71.575C136.758 70.8583 135.95 70.5 134.9 70.5C133.866 70.5 133.058 70.875 132.475 71.625C131.908 72.3583 131.625 73.3833 131.625 74.7C131.625 76 131.908 77 132.475 77.7C133.058 78.4 133.875 78.75 134.925 78.75ZM144.653 81V62.6H147.753V81H144.653ZM151.172 81V68.375H154.272V81H151.172ZM150.972 62.65H154.447V65.725H150.972V62.65ZM160.915 78.625H168.19V81H157.215V78.825L164.19 70.725H157.365V68.375H167.915V70.5L160.915 78.625ZM182.583 68.375V81H179.508V78.975C179.124 79.675 178.574 80.225 177.858 80.625C177.141 81.0083 176.324 81.2 175.408 81.2C174.308 81.2 173.333 80.9333 172.483 80.4C171.633 79.8667 170.974 79.1083 170.508 78.125C170.041 77.1417 169.808 76 169.808 74.7C169.808 73.4 170.041 72.25 170.508 71.25C170.991 70.2333 171.658 69.45 172.508 68.9C173.358 68.3333 174.324 68.05 175.408 68.05C176.324 68.05 177.141 68.25 177.858 68.65C178.574 69.0333 179.124 69.575 179.508 70.275V68.375H182.583ZM176.258 78.75C177.291 78.75 178.091 78.3917 178.658 77.675C179.224 76.9583 179.508 75.95 179.508 74.65C179.508 73.3167 179.224 72.2917 178.658 71.575C178.091 70.8583 177.283 70.5 176.233 70.5C175.199 70.5 174.391 70.875 173.808 71.625C173.241 72.3583 172.958 73.3833 172.958 74.7C172.958 76 173.241 77 173.808 77.7C174.391 78.4 175.208 78.75 176.258 78.75ZM198.061 62.6V81H194.986V78.975C194.603 79.675 194.053 80.225 193.336 80.625C192.619 81.0083 191.803 81.2 190.886 81.2C189.803 81.2 188.836 80.925 187.986 80.375C187.136 79.825 186.469 79.05 185.986 78.05C185.519 77.0333 185.286 75.875 185.286 74.575C185.286 73.275 185.519 72.1333 185.986 71.15C186.453 70.1667 187.111 69.4083 187.961 68.875C188.811 68.325 189.786 68.05 190.886 68.05C191.786 68.05 192.586 68.2417 193.286 68.625C194.003 68.9917 194.553 69.5167 194.936 70.2V62.6H198.061ZM191.711 78.75C192.744 78.75 193.544 78.3917 194.111 77.675C194.694 76.9583 194.986 75.9417 194.986 74.625C194.986 73.3083 194.703 72.2917 194.136 71.575C193.569 70.8583 192.769 70.5 191.736 70.5C190.686 70.5 189.869 70.8583 189.286 71.575C188.719 72.275 188.436 73.275 188.436 74.575C188.436 75.8917 188.719 76.9167 189.286 77.65C189.869 78.3833 190.678 78.75 191.711 78.75ZM213.54 68.375V81H210.465V78.975C210.081 79.675 209.531 80.225 208.815 80.625C208.098 81.0083 207.281 81.2 206.365 81.2C205.265 81.2 204.29 80.9333 203.44 80.4C202.59 79.8667 201.931 79.1083 201.465 78.125C200.998 77.1417 200.765 76 200.765 74.7C200.765 73.4 200.998 72.25 201.465 71.25C201.948 70.2333 202.615 69.45 203.465 68.9C204.315 68.3333 205.281 68.05 206.365 68.05C207.281 68.05 208.098 68.25 208.815 68.65C209.531 69.0333 210.081 69.575 210.465 70.275V68.375H213.54ZM207.215 78.75C208.248 78.75 209.048 78.3917 209.615 77.675C210.181 76.9583 210.465 75.95 210.465 74.65C210.465 73.3167 210.181 72.2917 209.615 71.575C209.048 70.8583 208.24 70.5 207.19 70.5C206.156 70.5 205.348 70.875 204.765 71.625C204.198 72.3583 203.915 73.3833 203.915 74.7C203.915 76 204.198 77 204.765 77.7C205.348 78.4 206.165 78.75 207.215 78.75ZM221.568 81.2C219.285 81.2 217.468 80.6667 216.118 79.6L216.993 77.4C218.343 78.4 219.885 78.9 221.618 78.9C222.368 78.9 222.943 78.775 223.343 78.525C223.76 78.275 223.968 77.925 223.968 77.475C223.968 77.0917 223.826 76.7917 223.543 76.575C223.26 76.3417 222.776 76.1417 222.093 75.975L219.993 75.5C217.693 75 216.543 73.825 216.543 71.975C216.543 71.2083 216.76 70.5333 217.193 69.95C217.626 69.35 218.235 68.8833 219.018 68.55C219.801 68.2167 220.71 68.05 221.743 68.05C222.643 68.05 223.51 68.1917 224.343 68.475C225.176 68.7417 225.91 69.1333 226.543 69.65L225.618 71.775C224.351 70.8417 223.051 70.375 221.718 70.375C221.001 70.375 220.443 70.5083 220.043 70.775C219.643 71.0417 219.443 71.4083 219.443 71.875C219.443 72.2417 219.56 72.5333 219.793 72.75C220.043 72.9667 220.46 73.15 221.043 73.3L223.193 73.775C224.443 74.0583 225.351 74.5 225.918 75.1C226.501 75.6833 226.793 76.45 226.793 77.4C226.793 78.5667 226.326 79.4917 225.393 80.175C224.46 80.8583 223.185 81.2 221.568 81.2Z" fill="white"/>
<path d="M97.8473 164.2V171.27H90.7773V181H81.9573V171.27H60.2573V164.55L83.5673 131.16H90.7773V164.2H97.8473ZM68.7973 164.2H81.9573V145.23L68.7973 164.2ZM118.89 130.53C125.19 130.53 130.043 132.677 133.45 136.97C136.903 141.217 138.63 147.283 138.63 155.17C138.63 160.677 137.813 165.413 136.18 169.38C134.547 173.347 132.19 176.38 129.11 178.48C126.077 180.58 122.46 181.63 118.26 181.63C115.273 181.63 112.357 181.14 109.51 180.16C106.71 179.133 104.283 177.687 102.23 175.82L105.24 169.24C109.673 172.693 113.897 174.42 117.91 174.42C121.597 174.42 124.443 172.857 126.45 169.73C128.503 166.557 129.577 162.03 129.67 156.15C128.597 158.297 126.963 160 124.77 161.26C122.623 162.52 120.173 163.15 117.42 163.15C114.48 163.15 111.843 162.473 109.51 161.12C107.223 159.767 105.427 157.877 104.12 155.45C102.813 153.023 102.16 150.247 102.16 147.12C102.16 143.947 102.86 141.1 104.26 138.58C105.707 136.06 107.69 134.1 110.21 132.7C112.777 131.253 115.67 130.53 118.89 130.53ZM119.38 155.94C121.993 155.94 124.117 155.1 125.75 153.42C127.383 151.74 128.2 149.547 128.2 146.84C128.2 144.133 127.383 141.94 125.75 140.26C124.117 138.533 121.993 137.67 119.38 137.67C116.767 137.67 114.667 138.51 113.08 140.19C111.54 141.87 110.77 144.087 110.77 146.84C110.77 149.593 111.54 151.81 113.08 153.49C114.667 155.123 116.767 155.94 119.38 155.94Z" fill="white"/>
<path d="M307.69 139.535C307.751 138.352 307.334 137.149 306.431 136.246C305.528 135.343 304.325 134.926 303.142 134.987C303.072 134.984 303.004 134.977 302.932 134.977H276.71C274.316 134.977 272.375 136.918 272.375 139.311C272.375 141.705 274.316 143.646 276.71 143.646H292.901L250.053 186.494L233.895 170.336C233.082 169.523 231.979 169.066 230.83 169.066C229.68 169.066 228.578 169.523 227.765 170.336L149.847 248.255C148.154 249.947 148.154 252.692 149.847 254.385C150.693 255.231 151.802 255.654 152.911 255.654C154.021 255.654 155.13 255.231 155.976 254.384L230.83 179.53L246.988 195.688C248.681 197.381 251.425 197.381 253.118 195.688L299.032 149.776V164.43C299.032 166.824 300.972 168.765 303.366 168.765C305.76 168.765 307.7 166.824 307.7 164.43V139.745C307.7 139.674 307.693 139.605 307.69 139.535Z" fill="#FEE99D"/>
<path d="M138.302 270.777C140.696 270.777 142.637 268.836 142.637 266.442C142.637 264.048 140.696 262.108 138.302 262.108C135.908 262.108 133.968 264.048 133.968 266.442C133.968 268.836 135.908 270.777 138.302 270.777Z" fill="#FEE99D"/>
<defs>
<filter id="filter0_d" x="0" y="0" width="334" height="298" filterUnits="userSpaceOnUse" color-interpolation-filters="sRGB">
<feFlood flood-opacity="0" result="BackgroundImageFix"/>
<feColorMatrix in="SourceAlpha" type="matrix" values="0 0 0 0 0 0 0 0 0 0 0 0 0 0 0 0 0 0 127 0"/>
<feOffset dx="1" dy="4"/>
<feGaussianBlur stdDeviation="2"/>
<feColorMatrix type="matrix" values="0 0 0 0 0 0 0 0 0 0 0 0 0 0 0 0 0 0 0.25 0"/>
<feBlend mode="normal" in2="BackgroundImageFix" result="effect1_dropShadow"/>
<feBlend mode="normal" in="SourceGraphic" in2="effect1_dropShadow" result="shape"/>
</filter>
</defs>
</svg>