<svg width="252" height="226" viewBox="0 0 252 226" fill="none" xmlns="http://www.w3.org/2000/svg">
<g clip-path="url(#clip0)">
<g opacity="0.3">
<path opacity="0.3" d="M187.976 212.026C218.852 201.838 245.63 176.507 251.105 145.05C256.58 113.593 236.339 78.155 204.517 71.3306C189.469 68.1134 173.227 70.9894 158.842 65.5786C131.733 55.3746 122.508 20.8303 97.4559 6.41795C73.3327 -7.47449 40.2503 2.53456 22.2657 23.5438C4.28111 44.5531 -0.96163 73.5404 0.133373 100.935C1.75929 141.183 19.213 184.582 56.4763 201.595C87.8995 215.926 154.297 219.988 187.976 212.026Z" fill="#6AA6F8"/>
</g>
<path opacity="0.3" d="M125.461 226C194.055 226 249.661 216.681 249.661 205.186C249.661 193.69 194.055 184.371 125.461 184.371C56.8671 184.371 1.26093 193.69 1.26093 205.186C1.26093 216.681 56.8671 226 125.461 226Z" fill="#6AA6F8"/>
<path d="M192.156 152.378C192.903 108.15 172.728 90.0002 172.728 90.0002C167.801 114.405 175.665 140.533 180.045 152.378H192.156Z" fill="#6AA6F8"/>
<path d="M203.156 152.378C225.156 123.017 221.605 99.9932 221.605 99.9932C202.609 115.51 192.787 141.264 189.369 151.891L189.933 152.378H203.156Z" fill="#6AA6F8"/>
<path d="M216.396 152.378C235.144 133.79 239.009 118.792 239.009 118.792C215.848 127.94 204.467 142.791 198.594 152.378H216.396Z" fill="#284266"/>
<path d="M183.031 152.378C175.848 120.58 158.344 110.977 158.344 110.977C158.726 127.437 166.391 143.149 171.882 152.378H183.031Z" fill="#284266"/>
<path d="M202.459 152.378C211.966 100.594 196.769 80.6411 196.769 80.6411C178.635 98.6607 185.503 141.264 187.677 152.378H202.459Z" fill="#284266"/>
<path d="M198.262 152.053C196.868 132.945 195.923 113.658 195.524 94.5823C195.524 94.3549 195.342 94.1924 195.11 94.1924C194.877 94.1924 194.695 94.3874 194.695 94.6148C195.11 113.691 196.055 132.977 197.432 152.069H198.262V152.053Z" fill="#D7E9FD"/>
<path d="M185.835 152.053H186.698C184.209 144.563 182.617 136.747 181.074 129.143L174.985 99.0832C174.935 98.872 174.719 98.7095 174.504 98.7582C174.288 98.807 174.139 99.0182 174.172 99.2294L180.261 129.289C181.787 136.845 183.38 144.595 185.835 152.053Z" fill="#D7E9FD"/>
<path d="M177.191 152.053C172.164 141.589 167.585 130.865 163.554 120.044C163.471 119.832 163.238 119.719 163.023 119.8C162.807 119.881 162.691 120.109 162.774 120.32C166.772 131.044 171.318 141.67 176.279 152.053H177.191V152.053Z" fill="#D7E9FD"/>
<path d="M200.717 152.053C201.497 150.607 202.244 149.128 202.891 147.617C204.135 144.709 205.014 141.621 205.877 138.648C206.392 136.893 206.906 135.073 207.503 133.302C208.93 129.045 210.821 124.885 212.663 120.84C214.355 117.135 216.097 113.3 217.474 109.401C217.541 109.189 217.441 108.962 217.225 108.881C217.01 108.816 216.777 108.913 216.694 109.124C215.317 112.992 213.592 116.81 211.916 120.498C210.075 124.544 208.167 128.736 206.723 133.026C206.126 134.797 205.595 136.633 205.081 138.404C204.235 141.361 203.339 144.416 202.128 147.292C201.447 148.917 200.634 150.493 199.788 152.037H200.717V152.053Z" fill="#D7E9FD"/>
<path d="M203.621 152.053C205.23 150.282 206.972 148.641 208.698 147.032L231.726 125.552C231.892 125.389 231.892 125.146 231.742 124.983C231.593 124.821 231.328 124.821 231.162 124.967L208.133 146.447C206.226 148.235 204.284 150.071 202.542 152.069H203.621V152.053Z" fill="#D7E9FD"/>
<path d="M171.916 159.998L177.391 193.21C178.17 197.922 182.318 201.383 187.196 201.383H203.886C208.764 201.383 212.912 197.922 213.692 193.21L219.167 159.998H171.916Z" fill="#D7E9FD"/>
<path d="M219.167 159.998H209.859H171.916L172.679 164.597H209.113L204.384 193.21C203.604 197.922 199.457 201.383 194.579 201.383H203.886C208.764 201.383 212.912 197.922 213.692 193.21L218.42 164.597L219.167 159.998Z" fill="#B4CDE2"/>
<path d="M219.697 150.444H171.385C168.664 150.444 166.441 152.622 166.441 155.286C166.441 157.951 168.664 160.128 171.385 160.128H219.697C222.418 160.128 224.642 157.951 224.642 155.286C224.642 152.622 222.418 150.444 219.697 150.444Z" fill="#D7E9FD"/>
<path d="M92.3785 107.695L139.265 124.902L134.785 106.362L146.979 103.324C146.979 103.324 160.086 139.574 150.994 140.549C135.05 142.255 110.927 136.064 110.927 136.064L92.3785 107.695Z" fill="#F0D1BB"/>
<path d="M108.671 149.275L108.571 185.59C96.3603 200.295 53.8543 181.284 53.8543 181.284L53.3566 166.433L52.3777 131.06C53.3566 116.973 66.7123 110.051 66.7123 110.051C72.2371 107.354 80.6653 105.826 88.2473 106.184C96.1778 106.574 98.1189 110.278 101.387 117.363C104.009 123.082 108.671 128.444 108.671 149.275Z" fill="#6AA6F8"/>
<path d="M71.2914 142.661C71.2914 142.661 65.3518 176.946 73.7303 176.101C101.288 173.322 117.696 172.949 117.696 172.949L122.259 182.243C122.358 183.819 70.0637 198.491 61.6687 193.633C55.7291 190.204 46.2888 180.992 50.5693 153.434L51.5814 144.205L71.2914 142.661Z" fill="#F0D1BB"/>
<path d="M56.1272 119.93C56.1272 119.93 49.7065 125.974 48.2631 148.852L73.1495 146.155C73.1329 146.139 77.2806 107.191 56.1272 119.93Z" fill="#6AA6F8"/>
<path d="M68.5871 71.9807L69.1512 79.2438C69.1512 79.2438 62.8466 80.0724 64.6384 85.7107C66.4302 91.3489 70.7439 88.8791 70.7439 88.8791C70.7439 88.8791 71.8223 103.308 86.9201 98.7419C98.9319 95.1023 98.2019 79.8612 96.6756 66.8787C96.0783 61.8416 91.2171 58.3807 86.1403 59.3556L77.065 61.0942C71.8389 62.0691 68.1889 66.7487 68.5871 71.9807Z" fill="#F0D1BB"/>
<path d="M69.1511 85.272L73.2159 106.509C74.1284 111.302 78.9564 114.357 83.7843 113.219C88.2639 112.179 91.1341 107.89 90.3378 103.438L88.1312 91.2677L69.1511 85.272Z" fill="#F0D1BB"/>
<path d="M85.8417 85.4993C85.8914 85.4668 86.0242 85.6943 86.3062 85.7267C86.5717 85.7592 86.9864 85.483 87.086 84.8981C87.2187 84.3294 87.1523 83.582 87.0694 82.7045C87.003 81.7621 86.9201 80.836 86.8537 79.8773C86.6048 75.8639 86.5883 72.5817 86.8205 72.5655C87.0528 72.5492 87.4676 75.7989 87.7164 79.8123C87.7662 80.7872 87.816 81.7134 87.8657 82.6395C87.8989 83.5007 87.9321 84.3456 87.6832 85.0606C87.4842 85.7917 86.7044 86.2467 86.2232 86.0355C85.7587 85.808 85.8085 85.4993 85.8417 85.4993Z" fill="#284266"/>
<path d="M90.7526 97.247C90.8189 97.3282 90.2217 97.9782 88.9773 98.6769C87.7496 99.3755 85.8251 100.058 83.6185 100.107C81.4119 100.155 79.4707 99.5543 78.2098 98.9043C76.9323 98.2544 76.3184 97.637 76.3848 97.5557C76.5009 97.3282 79.4375 99.3755 83.6185 99.2618C87.7662 99.1806 90.6198 97.0195 90.7526 97.247Z" fill="#284266"/>
<path d="M87.7994 88.4889C87.8823 88.5539 87.6832 89.0251 87.0196 89.4801C86.3726 89.9351 85.178 90.3088 83.9337 89.9188C82.6894 89.5126 81.9428 88.5377 81.6939 87.8065C81.4285 87.0428 81.5446 86.5554 81.6607 86.5554C81.7935 86.5391 81.893 86.9778 82.258 87.5465C82.6064 88.1152 83.27 88.8139 84.2157 89.1064C85.1614 89.3989 86.1237 89.2039 86.7376 88.9439C87.3514 88.7002 87.6998 88.4077 87.7994 88.4889Z" fill="#284266"/>
<path d="M68.67 86.4093C68.67 86.5068 68.305 86.6855 67.6414 86.4905C67.3261 86.393 66.9114 86.1168 66.7289 85.6456C66.6459 85.4181 66.5961 85.1257 66.6957 84.8332C66.762 84.5407 67.0441 84.232 67.3593 84.1345C67.7907 83.972 68.3879 84.0695 68.67 84.5245L67.94 84.8982C67.4589 83.712 67.2266 82.8021 67.4091 82.7209C67.5916 82.6396 68.1225 83.4196 68.7032 84.5732L67.9732 84.9469C67.9566 84.9144 67.8404 84.8657 67.6911 84.9307C67.5252 84.9794 67.4588 85.1582 67.5086 85.4181C67.5584 85.6619 67.7243 85.8406 67.9234 85.9706C68.305 86.1981 68.6866 86.2793 68.67 86.4093Z" fill="#284266"/>
<path d="M80.3003 72.0942C80.2339 72.3217 79.5537 72.3217 78.7905 72.5167C78.0273 72.6954 77.4466 73.0366 77.2641 72.8742C77.0816 72.7279 77.5462 71.9642 78.5748 71.7043C79.5869 71.4443 80.3832 71.883 80.3003 72.0942Z" fill="#284266"/>
<path d="M93.3574 70.0632C93.2578 70.2907 92.5112 70.177 91.6319 70.2582C90.7526 70.3232 90.0392 70.5507 89.9064 70.3557C89.7571 70.177 90.4373 69.5108 91.5655 69.4133C92.6771 69.3158 93.4569 69.8682 93.3574 70.0632Z" fill="#284266"/>
<path d="M69.1512 79.2436C73.3653 75.214 74.6096 68.5196 75.7378 62.8651C79.6366 65.6436 85.0121 66.3261 89.5083 64.62C90.9185 66.2448 92.5776 67.6584 94.4192 68.8121C94.9335 69.1371 95.564 69.462 96.1446 69.2833C96.8581 69.0721 97.1733 68.2759 97.3392 67.5772C97.8701 65.3187 97.9033 62.9139 97.0903 60.7366C96.294 58.5593 94.6017 56.642 92.3951 55.8133C90.0392 54.9196 87.3846 55.3096 84.9457 55.927C81.2626 56.8695 77.7121 58.2993 74.4271 60.1841C71.2084 62.0365 68.1059 64.4737 66.7455 67.8859C65.385 71.2981 65.385 77.9112 68.6866 79.6336" fill="#284266"/>
<path d="M94.0209 107.548C89.9396 105.956 121.313 117.379 121.313 117.379L118.128 138.404L106.199 134.57L94.0209 107.548Z" fill="#6AA6F8"/>
<path d="M114.793 172.965C114.793 172.965 128.281 168.821 127.817 170.186C127.352 171.551 125.063 171.6 122.756 173.793C122.756 173.793 137.838 173.956 137.108 175.175C136.378 176.393 126.572 176.702 126.506 176.897C126.44 177.108 137.24 177.368 136.991 178.489C136.743 179.61 126.722 179.334 126.722 179.334C126.722 179.334 136.013 180.309 135.83 181.511C135.648 182.73 127.07 181.853 127.07 181.853C127.07 181.853 134.237 182.649 134.055 183.754C133.939 184.42 113.051 184.582 113.001 185.07C113.001 185.33 114.793 172.965 114.793 172.965Z" fill="#F0D1BB"/>
<path d="M135.681 107.548C135.681 107.548 127.485 96.337 128.945 96.337C130.405 96.337 131.168 98.4493 134.005 99.8954C134.005 99.8954 129.476 85.873 130.886 86.1654C132.28 86.4579 135.631 95.4596 135.847 95.4433C136.062 95.4271 132.96 85.353 134.121 85.223C135.283 85.093 138.136 94.4846 138.136 94.4846C138.136 94.4846 136.179 85.5642 137.423 85.3693C138.651 85.1743 140.476 93.3798 140.476 93.3798C140.476 93.3798 139.032 86.4741 140.144 86.3117C140.824 86.2142 147.012 103.324 147.012 103.324C146.83 103.34 135.681 107.548 135.681 107.548Z" fill="#F0D1BB"/>
<path d="M60.1422 138.388C60.2252 138.372 60.5404 138.908 60.557 139.964C60.557 140.484 60.3413 141.232 59.6777 141.687C59.3625 141.914 58.8813 142.076 58.4002 141.979C57.919 141.881 57.554 141.557 57.2886 141.28C56.7577 140.663 56.4093 140.305 55.8618 140.24C55.3309 140.159 54.8663 140.338 54.5677 140.598C53.9372 141.167 53.9538 141.833 53.8211 141.816C53.7381 141.865 53.4063 141.118 54.1197 140.192C54.4681 139.753 55.1815 139.395 55.9613 139.46C56.3429 139.493 56.7577 139.623 57.1061 139.883C57.4545 140.143 57.6868 140.435 57.9356 140.695C58.7984 141.849 59.9266 140.728 59.9763 139.899C60.0925 139.038 60.0095 138.388 60.1422 138.388Z" fill="#F9F2FC"/>
<path d="M67.5087 132.165C67.4589 132.1 67.7575 131.564 68.67 130.995C69.118 130.735 69.8812 130.524 70.6278 130.832C70.9928 130.979 71.391 131.287 71.5569 131.759C71.7228 132.214 71.6398 132.685 71.5237 133.059C71.2748 133.822 71.1421 134.293 71.3578 134.797C71.5569 135.285 71.955 135.577 72.3532 135.691C73.1828 135.918 73.7469 135.561 73.8132 135.675C73.8962 135.723 73.4151 136.389 72.2371 136.276C71.673 136.211 70.9928 135.805 70.6444 135.122C70.4784 134.781 70.3789 134.358 70.4121 133.936C70.4619 133.513 70.5946 133.156 70.6941 132.831C71.2416 131.515 69.6821 131.157 68.9355 131.531C68.1059 131.872 67.5916 132.279 67.5087 132.165Z" fill="#F9F2FC"/>
<path d="M67.0109 116.648C66.9611 116.583 67.2597 116.046 68.1722 115.478C68.6202 115.218 69.3834 115.006 70.1299 115.315C70.4949 115.461 70.8931 115.77 71.059 116.241C71.225 116.696 71.142 117.167 71.0259 117.541C70.777 118.305 70.6443 118.776 70.8599 119.28C71.059 119.767 71.4572 120.06 71.8554 120.173C72.685 120.401 73.249 120.043 73.3154 120.157C73.4149 120.206 72.9172 120.872 71.7393 120.758C71.1752 120.693 70.4949 120.287 70.1465 119.605C69.9806 119.264 69.8811 118.841 69.9143 118.419C69.964 117.996 70.0968 117.639 70.1963 117.314C70.7438 115.998 69.1843 115.64 68.4377 116.014C67.6081 116.355 67.0938 116.761 67.0109 116.648Z" fill="#F9F2FC"/>
<path d="M82.7226 136.845C82.6562 136.91 82.0921 136.65 81.4285 135.805C81.1132 135.382 80.8478 134.667 81.0966 133.904C81.2128 133.53 81.4948 133.124 81.9594 132.929C82.4073 132.734 82.9051 132.766 83.2866 132.848C84.083 133.026 84.5807 133.124 85.0619 132.848C85.5264 132.604 85.8085 132.198 85.8914 131.791C86.0573 130.963 85.6426 130.443 85.7587 130.378C85.7919 130.28 86.5219 130.703 86.5053 131.873C86.4887 132.425 86.1403 133.124 85.4601 133.53C85.1282 133.725 84.7135 133.855 84.2821 133.855C83.8507 133.855 83.4691 133.741 83.1373 133.676C81.7603 133.254 81.528 134.797 81.976 135.512C82.3741 136.292 82.8387 136.763 82.7226 136.845Z" fill="#F9F2FC"/>
<path d="M93.4402 153.077C93.49 153.158 93.1416 153.662 92.1959 154.149C91.7314 154.377 90.9516 154.539 90.2216 154.165C89.8732 153.987 89.4916 153.662 89.3754 153.174C89.2427 152.703 89.3754 152.232 89.5082 151.874C89.8234 151.127 89.9893 150.672 89.7902 150.152C89.6243 149.664 89.2593 149.323 88.8611 149.177C88.0482 148.885 87.4675 149.193 87.4177 149.08C87.3347 149.031 87.8657 148.397 89.0436 148.592C89.6077 148.69 90.2548 149.145 90.5368 149.859C90.6861 150.217 90.7525 150.639 90.6695 151.062C90.6032 151.468 90.4373 151.826 90.3045 152.15C89.6575 153.418 91.1839 153.889 91.9636 153.564C92.8098 153.32 93.3573 152.963 93.4402 153.077Z" fill="#F9F2FC"/>
<path d="M106.049 127.485C106.099 127.567 105.751 128.07 104.805 128.558C104.34 128.785 103.561 128.948 102.831 128.574C102.482 128.395 102.101 128.07 101.985 127.583C101.852 127.112 101.985 126.64 102.117 126.283C102.433 125.536 102.598 125.081 102.399 124.561C102.233 124.073 101.868 123.732 101.47 123.586C100.657 123.293 100.077 123.602 100.027 123.488C99.9439 123.439 100.475 122.806 101.653 123.001C102.217 123.098 102.864 123.553 103.146 124.268C103.295 124.626 103.362 125.048 103.279 125.471C103.212 125.877 103.046 126.234 102.914 126.559C102.267 127.827 103.793 128.298 104.573 127.973C105.435 127.729 105.966 127.372 106.049 127.485Z" fill="#F9F2FC"/>
<path d="M114.643 123.586C114.693 123.521 115.307 123.667 116.103 124.366C116.485 124.723 116.9 125.389 116.784 126.169C116.734 126.559 116.535 127.014 116.12 127.29C115.722 127.567 115.224 127.615 114.826 127.615C114.013 127.583 113.499 127.583 113.084 127.924C112.669 128.249 112.47 128.704 112.47 129.11C112.453 129.955 112.968 130.394 112.868 130.475C112.852 130.573 112.055 130.296 111.856 129.143C111.773 128.59 111.972 127.843 112.57 127.339C112.852 127.079 113.233 126.884 113.665 126.803C114.079 126.738 114.478 126.77 114.826 126.77C116.269 126.949 116.203 125.373 115.622 124.756C115.091 124.073 114.561 123.699 114.643 123.586Z" fill="#F9F2FC"/>
<path d="M79.8357 166.303C79.8855 166.384 79.5371 166.888 78.5914 167.375C78.1269 167.603 77.3471 167.765 76.6171 167.392C76.2687 167.213 75.8871 166.888 75.7709 166.4C75.6382 165.929 75.7709 165.458 75.9037 165.101C76.2189 164.353 76.3848 163.898 76.1857 163.378C76.0198 162.891 75.6548 162.55 75.2566 162.403C74.4437 162.111 73.863 162.42 73.8132 162.306C73.7303 162.257 74.2612 161.623 75.4391 161.818C76.0032 161.916 76.6503 162.371 76.9323 163.086C77.0816 163.443 77.148 163.866 77.065 164.288C76.9987 164.694 76.8328 165.052 76.7 165.377C76.053 166.644 77.5794 167.115 78.3591 166.79C79.2219 166.547 79.7694 166.189 79.8357 166.303Z" fill="#F9F2FC"/>
<path d="M98.5005 141.687C98.4342 141.735 97.8866 141.427 97.3391 140.517C97.0903 140.062 96.8912 139.314 97.2396 138.583C97.4055 138.226 97.7373 137.852 98.2019 137.706C98.683 137.56 99.1642 137.657 99.5292 137.771C100.292 138.047 100.79 138.193 101.288 137.982C101.786 137.803 102.101 137.413 102.233 137.04C102.499 136.243 102.151 135.675 102.267 135.61C102.316 135.529 102.98 136.016 102.831 137.17C102.748 137.722 102.316 138.372 101.603 138.697C101.255 138.859 100.823 138.941 100.392 138.876C99.9605 138.827 99.6121 138.681 99.2637 138.567C97.9364 137.982 97.5217 139.493 97.8867 140.257C98.2351 141.085 98.6332 141.605 98.5005 141.687Z" fill="#F9F2FC"/>
<path d="M101.852 154.913C101.786 154.961 101.238 154.653 100.691 153.743C100.442 153.288 100.243 152.54 100.591 151.809C100.757 151.452 101.089 151.078 101.553 150.932C102.034 150.785 102.516 150.883 102.881 150.997C103.644 151.273 104.141 151.419 104.639 151.208C105.137 151.029 105.452 150.639 105.585 150.266C105.85 149.469 105.502 148.901 105.618 148.852C105.668 148.771 106.331 149.258 106.182 150.412C106.099 150.964 105.668 151.614 104.954 151.939C104.606 152.102 104.175 152.183 103.743 152.118C103.312 152.069 102.963 151.923 102.615 151.809C101.288 151.224 100.873 152.735 101.238 153.499C101.586 154.311 101.985 154.831 101.852 154.913Z" fill="#F9F2FC"/>
<path d="M74.8418 149.275C74.7589 149.258 74.5764 148.673 74.792 147.65C74.9082 147.146 75.2898 146.464 76.0364 146.155C76.4014 145.992 76.8991 145.944 77.3636 146.139C77.8116 146.334 78.0936 146.74 78.2927 147.065C78.6743 147.78 78.9398 148.202 79.4541 148.381C79.9518 148.576 80.4496 148.511 80.798 148.3C81.5446 147.877 81.6773 147.227 81.7934 147.276C81.893 147.244 82.0423 148.056 81.1298 148.803C80.6818 149.161 79.9186 149.356 79.1721 149.112C78.8071 148.998 78.4255 148.771 78.1434 148.446C77.8614 148.121 77.6955 147.78 77.5295 147.487C76.9489 146.187 75.605 147.032 75.3561 147.829C75.0575 148.641 74.9911 149.291 74.8418 149.275Z" fill="#F9F2FC"/>
<path d="M99.2471 165.604C99.1642 165.588 98.9817 165.003 99.1974 163.979C99.3135 163.476 99.6951 162.793 100.442 162.485C100.807 162.322 101.304 162.273 101.769 162.468C102.217 162.663 102.499 163.07 102.698 163.394C103.08 164.109 103.345 164.532 103.859 164.711C104.357 164.906 104.855 164.841 105.203 164.629C105.95 164.207 106.083 163.557 106.199 163.606C106.298 163.573 106.448 164.386 105.535 165.133C105.087 165.491 104.324 165.685 103.577 165.442C103.212 165.328 102.831 165.101 102.549 164.776C102.267 164.451 102.101 164.109 101.935 163.817C101.354 162.517 100.01 163.362 99.7615 164.158C99.4462 164.987 99.3799 165.62 99.2471 165.604Z" fill="#F9F2FC"/>
<path d="M98.5337 116.111C98.4508 116.095 98.2683 115.51 98.4839 114.487C98.6001 113.983 98.9817 113.3 99.7283 112.992C100.093 112.829 100.591 112.78 101.056 112.975C101.503 113.17 101.786 113.577 101.985 113.902C102.366 114.617 102.632 115.039 103.146 115.218C103.644 115.413 104.141 115.348 104.49 115.136C105.236 114.714 105.369 114.064 105.485 114.113C105.585 114.08 105.734 114.893 104.822 115.64C104.374 115.998 103.611 116.193 102.864 115.949C102.499 115.835 102.117 115.608 101.835 115.283C101.553 114.958 101.387 114.617 101.221 114.324C100.641 113.024 99.2969 113.869 99.048 114.665C98.7328 115.494 98.6664 116.144 98.5337 116.111Z" fill="#F9F2FC"/>
<path d="M90.57 172.169C90.5203 172.25 89.9064 172.169 89.0271 171.567C88.5957 171.259 88.1146 170.658 88.1146 169.861C88.1146 169.471 88.2473 169 88.6289 168.675C88.9939 168.35 89.475 168.253 89.8732 168.204C90.6862 168.139 91.2005 168.074 91.5655 167.684C91.9471 167.31 92.0798 166.839 92.03 166.433C91.9305 165.588 91.383 165.231 91.4659 165.133C91.4659 165.036 92.2955 165.214 92.6439 166.335C92.8098 166.872 92.6937 167.635 92.1628 168.22C91.9139 168.513 91.5489 168.756 91.1341 168.886C90.7193 169.016 90.3378 169.016 89.9893 169.065C88.5293 169.065 88.7948 170.625 89.4418 171.161C90.0557 171.746 90.6364 172.055 90.57 172.169Z" fill="#F9F2FC"/>
<path d="M61.6354 123.586C61.7184 123.537 62.2161 123.911 62.6641 124.869C62.8797 125.341 62.9959 126.104 62.5645 126.803C62.3654 127.144 62.0004 127.485 61.5193 127.583C61.0381 127.68 60.557 127.534 60.2086 127.388C59.462 127.047 58.9975 126.852 58.4666 127.014C57.9522 127.144 57.5872 127.502 57.4213 127.859C57.0729 128.639 57.3715 129.224 57.2388 129.273C57.189 129.354 56.5586 128.801 56.8406 127.664C56.9734 127.128 57.4711 126.51 58.2177 126.267C58.5827 126.137 59.0141 126.104 59.4454 126.202C59.8602 126.299 60.2086 126.478 60.5238 126.608C61.7847 127.323 62.3488 125.844 62.0668 125.064C61.8345 124.203 61.5027 123.651 61.6354 123.586Z" fill="#F9F2FC"/>
<path d="M89.558 118.695C89.6409 118.646 90.1387 119.02 90.5866 119.979C90.8023 120.45 90.9184 121.214 90.4871 121.912C90.288 122.254 89.923 122.595 89.4418 122.692C88.9607 122.79 88.4796 122.643 88.1311 122.497C87.3846 122.156 86.92 121.961 86.3891 122.124C85.8748 122.254 85.5098 122.611 85.3439 122.968C84.9955 123.748 85.2941 124.333 85.1614 124.382C85.1116 124.463 84.4811 123.911 84.7632 122.773C84.8959 122.237 85.3936 121.62 86.1402 121.376C86.5052 121.246 86.9366 121.214 87.368 121.311C87.7827 121.409 88.1311 121.587 88.4464 121.717C89.7073 122.432 90.2714 120.954 89.9893 120.174C89.7737 119.313 89.4252 118.76 89.558 118.695Z" fill="#F9F2FC"/>
<path d="M72.3366 147.487C72.2702 147.487 72.2868 146.886 72.3532 145.814C72.4195 144.741 72.5523 143.198 72.7182 141.28C73.0666 137.462 73.6141 132.181 74.2611 126.364C74.4104 124.918 74.4768 123.521 74.2777 122.205C74.0952 120.889 73.5643 119.719 72.8177 118.76C71.2913 116.826 69.1345 115.819 67.2929 115.397C65.4347 114.958 63.842 114.974 62.7636 115.007C61.6686 115.039 61.0713 115.104 61.0547 115.039C61.0381 114.99 61.6354 114.812 62.7304 114.665C63.8254 114.535 65.4513 114.422 67.4256 114.795C69.3668 115.169 71.7393 116.177 73.4482 118.273C74.2943 119.313 74.9082 120.645 75.1239 122.075C75.3561 123.505 75.2732 124.983 75.1239 126.446C74.4768 132.279 73.8463 137.527 73.332 141.329C73.0832 143.23 72.8675 144.774 72.685 145.83C72.5191 146.902 72.4029 147.487 72.3366 147.487Z" fill="#284266"/>
<path d="M73.4482 146.155C73.4814 146.383 67.8073 147.162 60.7893 147.894C53.7713 148.625 48.064 149.015 48.0308 148.787C47.9977 148.56 53.6718 147.78 60.6897 147.049C67.7077 146.318 73.415 145.928 73.4482 146.155Z" fill="#284266"/>
<path d="M108.638 146.398C108.422 146.382 108.223 142.385 107.808 137.429C107.393 132.457 107.576 128.379 107.841 128.395C108.057 128.411 108.256 132.408 108.671 137.364C109.086 142.336 108.903 146.415 108.638 146.398Z" fill="#284266"/>
<path d="M135.366 108.735L147.693 105.355L148.423 107.549L135.979 111.318L135.366 108.735Z" fill="#251A51"/>
<path d="M143.23 108.231C143.23 109.06 142.549 109.726 141.703 109.726C140.857 109.726 140.177 109.06 140.177 108.231C140.177 107.402 140.857 106.736 141.703 106.736C142.549 106.736 143.23 107.402 143.23 108.231Z" fill="#E4E1EA"/>
<path d="M93.3573 75.1652C93.1583 75.279 92.7601 75.084 92.3619 74.6453C91.9803 74.2228 91.8144 73.7029 92.0135 73.5729C92.2126 73.4591 92.6108 73.6541 93.0089 74.0928C93.3905 74.499 93.5564 75.0352 93.3573 75.1652Z" fill="#284266"/>
<path d="M82.1252 76.7089C81.9261 76.8226 81.528 76.6277 81.1298 76.189C80.7482 75.7665 80.5823 75.2466 80.7814 75.1166C80.9804 75.0028 81.3786 75.1978 81.7768 75.6365C82.175 76.0427 82.3409 76.5789 82.1252 76.7089Z" fill="#284266"/>
<path d="M107.41 187.572L118.028 214.723C118.028 214.723 93.4735 214.317 62.2991 203.918L62.8466 194.462C62.8632 194.462 71.2748 196.623 107.41 187.572Z" fill="#284266"/>
</g>
<defs>
<clipPath id="clip0">
<rect width="252" height="226" fill="white"/>
</clipPath>
</defs>
</svg>
