<svg width="114.19" height="30" viewBox="0 0 137 37" fill="none" xmlns="http://www.w3.org/2000/svg">
<path d="M69.8724 37C67.9991 37 66.2611 36.7225 64.6601 36.1658C63.0573 35.609 61.661 34.7767 60.4713 33.6651C59.2815 32.5535 58.3439 31.1547 57.6622 29.4708C56.9787 27.7869 56.6388 25.8158 56.6388 23.5577C56.6388 21.3344 56.9787 19.4216 57.6622 17.8211C58.3439 16.2205 59.2413 14.9072 60.3525 13.879C61.4636 12.8508 62.732 12.0942 64.1612 11.6053C65.5885 11.1164 67.0488 10.8719 68.5419 10.8719C70.2233 10.8719 71.7548 11.1416 73.1365 11.6809C74.5163 12.2203 75.7079 12.9613 76.7076 13.9042C77.7073 14.847 78.484 15.9761 79.0396 17.2895C79.5952 18.6029 79.873 20.0365 79.873 21.5847C79.873 22.7312 79.5715 23.6062 78.9684 24.2134C78.3652 24.8206 77.5246 25.2067 76.4444 25.3754L64.6857 27.2456C65.0348 28.3572 65.7494 29.1914 66.8276 29.7463C67.9059 30.3031 69.1432 30.5805 70.5413 30.5805C71.8426 30.5805 73.0725 30.4039 74.2312 30.0489C75.3899 29.6958 76.333 29.2826 77.064 28.8112C77.5721 29.1488 77.9997 29.6202 78.3488 30.2255C78.6979 30.8327 78.8733 31.4729 78.8733 32.1461C78.8733 33.6612 78.2062 34.7922 76.8739 35.5314C75.8578 36.1037 74.7155 36.4917 73.4454 36.6934C72.1734 36.8971 70.9836 37 69.8724 37ZM68.5401 17.1382C67.778 17.1382 67.1201 17.274 66.5645 17.5417C66.0089 17.8114 65.5556 18.1567 65.2084 18.5777C64.8593 18.9986 64.5961 19.4701 64.4225 19.9919C64.2471 20.5138 64.1447 21.0453 64.1137 21.5847L72.2538 20.1704C72.1587 19.4972 71.8097 18.824 71.2066 18.1489C70.6016 17.4757 69.7134 17.1382 68.5401 17.1382Z" fill="#3DA9FC"/>
<path d="M83.583 4.80751C83.583 3.5271 83.9869 2.4504 84.7965 1.57352C85.6062 0.698573 86.6771 0.260132 88.0094 0.260132C89.3418 0.260132 90.4127 0.698573 91.2224 1.57352C92.032 2.4504 92.4359 3.5271 92.4359 4.80751C92.4359 6.08791 92.032 7.16656 91.2224 8.0415C90.4127 8.91838 89.3418 9.35489 88.0094 9.35489C86.6771 9.35489 85.6062 8.91838 84.7965 8.0415C83.9887 7.16656 83.583 6.08791 83.583 4.80751ZM92.0576 36.1406C91.7085 36.2085 91.1931 36.2996 90.5096 36.418C89.8261 36.5363 89.1371 36.5945 88.4389 36.5945C87.7408 36.5945 87.1139 36.5441 86.5583 36.4432C86.0027 36.3423 85.5349 36.1406 85.1547 35.836C84.7746 35.5333 84.4804 35.1201 84.2738 34.5983C84.0673 34.0764 83.965 33.3935 83.965 32.5516V11.9836C84.314 11.9157 84.8294 11.8245 85.513 11.7062C86.1946 11.5878 86.8855 11.5296 87.5836 11.5296C88.2818 11.5296 88.9086 11.5801 89.4642 11.681C90.0198 11.7818 90.4877 11.9836 90.8678 12.2882C91.248 12.5908 91.5422 13.004 91.7487 13.5259C91.9552 14.0478 92.0576 14.7306 92.0576 15.5726V36.1406V36.1406Z" fill="#3DA9FC"/>
<path d="M105.293 36.1405C104.975 36.2414 104.476 36.3423 103.793 36.4432C103.109 36.544 102.404 36.5945 101.674 36.5945C100.976 36.5945 100.349 36.544 99.7938 36.4432C99.2382 36.3423 98.7703 36.1405 98.3902 35.8359C98.0101 35.5333 97.7158 35.1201 97.5093 34.5982C97.3028 34.0763 97.2004 33.3935 97.2004 32.5515V17.3903C97.2004 16.6163 97.3357 15.9509 97.6043 15.3941C97.873 14.8373 98.2623 14.3407 98.7704 13.9042C99.2784 13.4677 99.9053 13.07 100.651 12.7169C101.397 12.3638 102.199 12.0514 103.054 11.7818C103.911 11.5121 104.8 11.3026 105.721 11.1493C106.64 10.998 107.561 10.9224 108.482 10.9224C110.006 10.9224 111.211 11.2347 112.101 11.8574C112.989 12.4821 113.433 13.5006 113.433 14.9149C113.433 15.3863 113.369 15.85 113.243 16.3039C113.115 16.7579 112.958 17.1711 112.768 17.5417C112.101 17.5417 111.419 17.5766 110.721 17.6425C110.023 17.7104 109.341 17.8113 108.674 17.9452C108.007 18.081 107.38 18.2226 106.793 18.3739C106.205 18.5253 105.706 18.7018 105.293 18.9055V36.1405V36.1405Z" fill="#3DA9FC"/>
<path d="M125.574 10.8719C127.288 10.8719 128.851 11.0582 130.263 11.4287C131.676 11.7993 132.882 12.3638 133.882 13.1224C134.882 13.8809 135.651 14.8412 136.19 16.0033C136.729 17.1653 137 18.5389 137 20.1219V31.4418C137 32.3187 136.77 33.0346 136.309 33.5894C135.849 34.1462 135.3 34.6254 134.666 35.0289C132.603 36.3423 129.699 37 125.954 37C124.271 37 122.756 36.8312 121.407 36.4956C120.058 36.1599 118.899 35.6536 117.931 34.9804C116.962 34.3072 116.217 33.4478 115.694 32.4021C115.169 31.3584 114.908 30.1459 114.908 28.7627C114.908 26.4386 115.559 24.6518 116.86 23.4063C118.161 22.1608 120.177 21.3848 122.906 21.0822L129.141 20.3741V20.021C129.141 19.0452 128.737 18.3449 127.928 17.9239C127.118 17.5029 125.952 17.2914 124.428 17.2914C123.222 17.2914 122.048 17.4272 120.904 17.695C119.762 17.9646 118.729 18.3022 117.81 18.7057C117.397 18.4031 117.048 17.9394 116.763 17.3166C116.478 16.6939 116.335 16.0459 116.335 15.3708C116.335 14.4959 116.533 13.7955 116.931 13.2737C117.328 12.7518 117.938 12.3056 118.764 11.9351C119.683 11.5645 120.771 11.2949 122.025 11.1261C123.28 10.9573 124.463 10.8719 125.574 10.8719ZM125.954 30.7318C126.493 30.7318 127.089 30.6736 127.74 30.5553C128.39 30.4369 128.874 30.2778 129.192 30.0761V26.0331L125.764 26.3357C124.876 26.4036 124.145 26.6054 123.574 26.943C123.002 27.2805 122.717 27.7849 122.717 28.4581C122.717 29.1332 122.962 29.6803 123.456 30.1013C123.945 30.5223 124.779 30.7318 125.954 30.7318Z" fill="#3DA9FC"/>
<path d="M36.9538 10.8778C32.7868 3.49216 24.3817 0.471567 16.7351 3.60856C9.50875 6.57483 5.34183 14.9498 6.86605 23.2744C7.13653 24.7566 7.16943 26.326 7.06891 27.8354C6.97753 29.2302 6.19349 30.1323 4.70948 30.0974C3.88889 30.08 3.04272 30.0722 2.24771 30.2565C0.97936 30.5475 0.125872 31.3972 0.0125614 32.8425C-0.0934391 34.1908 0.473116 35.1958 1.64826 35.7234C2.9093 36.2919 4.00586 35.8709 4.84655 34.8272C5.30711 34.2529 5.59769 33.5254 5.94859 32.858C6.8898 31.0713 7.87122 30.627 9.64947 31.4477C10.7734 31.9676 11.87 32.6291 12.8514 33.4071C18.3744 37.7876 25.7415 38.2086 31.4783 34.4042C38.9824 29.4223 41.446 18.8376 36.9538 10.8778ZM22.8301 31.2149C16.8338 31.2149 11.9723 26.0544 11.9723 19.6893C11.9723 13.3241 16.8338 8.1637 22.8301 8.1637C28.8264 8.1637 33.6878 13.3241 33.6878 19.6893C33.6878 26.0544 28.8264 31.2149 22.8301 31.2149Z" fill="#3DA9FC"/>
<path d="M44.191 16.2691C43.3741 16.467 42.559 15.9781 42.2885 15.1594C42.2611 15.0255 42.2319 14.8917 42.2008 14.7598C41.1499 10.0805 38.6315 6.00451 35.1901 3.11196C35.1682 3.0945 35.1481 3.07704 35.1262 3.05764C35.1152 3.04988 35.1024 3.03824 35.0914 3.02854C34.7076 2.6677 34.5194 2.15166 34.5468 1.64144L34.6674 1.07108C34.7223 0.927516 34.7972 0.789776 34.8922 0.661736C35.4094 -0.0386069 36.3342 -0.199627 37.0305 0.258214C37.1347 0.343574 37.2389 0.430875 37.3412 0.518175C41.329 3.92289 44.2331 8.70112 45.4137 14.1758C45.4155 14.1816 45.4155 14.1855 45.4174 14.1913C45.4192 14.201 45.421 14.2107 45.4228 14.2204C45.6074 15.1439 45.061 16.0557 44.191 16.2691Z" fill="#3DA9FC"/>
</svg>