<svg width="125" height="34" viewBox="0 0 125 34" fill="none" xmlns="http://www.w3.org/2000/svg">
<path d="M63.7522 34.0002C62.043 34.0002 60.4572 33.7453 58.9964 33.2337C57.534 32.722 56.26 31.9573 55.1745 30.9358C54.0889 29.9143 53.2335 28.6289 52.6115 27.0816C51.9879 25.5342 51.6777 23.7229 51.6777 21.6479C51.6777 19.6049 51.9879 17.8471 52.6115 16.3764C53.2335 14.9057 54.0522 13.6988 55.0661 12.7539C56.0799 11.8091 57.2372 11.1138 58.5412 10.6646C59.8435 10.2153 61.1759 9.99072 62.5382 9.99072C64.0723 9.99072 65.4697 10.2385 66.7303 10.7341C67.9893 11.2297 69.0765 11.9107 69.9887 12.7771C70.9008 13.6435 71.6095 14.681 72.1164 15.8879C72.6233 17.0948 72.8768 18.4122 72.8768 19.8348C72.8768 20.8884 72.6017 21.6924 72.0514 22.2504C71.5011 22.8084 70.734 23.1632 69.7485 23.3183L59.0198 25.0368C59.3383 26.0583 59.9903 26.8248 60.9741 27.3347C61.9579 27.8463 63.0868 28.1013 64.3625 28.1013C65.5498 28.1013 66.672 27.939 67.7292 27.6128C68.7864 27.2883 69.6468 26.9086 70.3138 26.4754C70.7774 26.7856 71.1676 27.2188 71.4861 27.775C71.8046 28.333 71.9647 28.9213 71.9647 29.5399C71.9647 30.9322 71.356 31.9715 70.1404 32.6507C69.2133 33.1766 68.1711 33.5332 67.0122 33.7186C65.8516 33.9058 64.766 34.0002 63.7522 34.0002ZM62.5366 15.7489C61.8412 15.7489 61.2409 15.8737 60.734 16.1197C60.227 16.3675 59.8135 16.6848 59.4967 17.0716C59.1782 17.4585 58.9381 17.8917 58.7796 18.3712C58.6196 18.8508 58.5262 19.3392 58.4978 19.8348L65.9249 18.5352C65.8382 17.9166 65.5197 17.298 64.9695 16.6777C64.4175 16.0591 63.6071 15.7489 62.5366 15.7489Z" fill="white"/>
<path d="M76.2619 4.41793C76.2619 3.24134 76.6304 2.25194 77.3691 1.44615C78.1078 0.64215 79.085 0.239258 80.3006 0.239258C81.5162 0.239258 82.4934 0.64215 83.2321 1.44615C83.9708 2.25194 84.3393 3.24134 84.3393 4.41793C84.3393 5.59452 83.9708 6.5857 83.2321 7.3897C82.4934 8.19549 81.5162 8.5966 80.3006 8.5966C79.085 8.5966 78.1078 8.19549 77.3691 7.3897C76.6321 6.5857 76.2619 5.59452 76.2619 4.41793ZM83.9942 33.2105C83.6757 33.2729 83.2054 33.3566 82.5818 33.4654C81.9581 33.5741 81.3295 33.6276 80.6925 33.6276C80.0555 33.6276 79.4835 33.5813 78.9766 33.4886C78.4697 33.3959 78.0428 33.2105 77.696 32.9306C77.3491 32.6525 77.0807 32.2728 76.8922 31.7932C76.7038 31.3137 76.6104 30.6861 76.6104 29.9125V11.0122C76.9289 10.9498 77.3991 10.866 78.0228 10.7572C78.6448 10.6485 79.2751 10.595 79.9121 10.595C80.5491 10.595 81.121 10.6414 81.628 10.7341C82.1349 10.8268 82.5618 11.0122 82.9086 11.2921C83.2555 11.5702 83.5239 11.9499 83.7124 12.4294C83.9008 12.909 83.9942 13.5365 83.9942 14.3102V33.2105V33.2105Z" fill="white"/>
<path d="M96.0703 33.2101C95.7802 33.3028 95.3249 33.3955 94.7013 33.4882C94.0776 33.5809 93.434 33.6272 92.7686 33.6272C92.1316 33.6272 91.5597 33.5809 91.0528 33.4882C90.5458 33.3955 90.119 33.2101 89.7721 32.9302C89.4253 32.6521 89.1568 32.2724 88.9684 31.7928C88.7799 31.3133 88.6866 30.6857 88.6866 29.912V15.9802C88.6866 15.2689 88.81 14.6574 89.0551 14.1458C89.3002 13.6341 89.6554 13.1778 90.119 12.7766C90.5825 12.3755 91.1545 12.0101 91.8348 11.6856C92.5152 11.3612 93.2472 11.0742 94.0276 10.8264C94.8097 10.5786 95.6201 10.386 96.4605 10.2452C97.2993 10.1061 98.1397 10.0366 98.9801 10.0366C100.371 10.0366 101.47 10.3236 102.282 10.8959C103.092 11.4699 103.497 12.4058 103.497 13.7054C103.497 14.1386 103.439 14.5647 103.324 14.9819C103.207 15.399 103.064 15.7787 102.89 16.1192C102.282 16.1192 101.66 16.1513 101.023 16.2119C100.386 16.2743 99.7639 16.367 99.1552 16.49C98.5466 16.6148 97.9746 16.745 97.4393 16.884C96.9024 17.0231 96.4472 17.1853 96.0703 17.3725V33.2101V33.2101Z" fill="white"/>
<path d="M114.575 9.99072C116.139 9.99072 117.565 10.1619 118.854 10.5024C120.143 10.8429 121.243 11.3616 122.155 12.0587C123.067 12.7557 123.769 13.6381 124.261 14.706C124.753 15.7738 125 17.036 125 18.4907V28.8928C125 29.6986 124.79 30.3564 124.37 30.8662C123.949 31.3779 123.449 31.8182 122.871 32.189C120.988 33.3959 118.338 34.0002 114.922 34.0002C113.386 34.0002 112.003 33.8451 110.773 33.5367C109.542 33.2283 108.485 32.763 107.601 32.1444C106.717 31.5258 106.037 30.7361 105.56 29.7752C105.082 28.8161 104.843 27.7019 104.843 26.4309C104.843 24.2952 105.437 22.6533 106.624 21.5088C107.811 20.3643 109.651 19.6512 112.14 19.3731L117.83 18.7224V18.398C117.83 17.5013 117.461 16.8577 116.722 16.4709C115.984 16.084 114.92 15.8897 113.529 15.8897C112.429 15.8897 111.358 16.0145 110.314 16.2605C109.272 16.5083 108.33 16.8185 107.491 17.1893C107.114 16.9112 106.796 16.4851 106.536 15.9129C106.275 15.3406 106.145 14.7452 106.145 14.1248C106.145 13.3208 106.326 12.6773 106.689 12.1977C107.051 11.7182 107.608 11.3081 108.362 10.9676C109.2 10.6272 110.192 10.3794 111.336 10.2243C112.482 10.0692 113.561 9.99072 114.575 9.99072ZM114.922 28.2403C115.413 28.2403 115.957 28.1868 116.551 28.0781C117.144 27.9693 117.586 27.8232 117.876 27.6378V23.9226L114.748 24.2007C113.938 24.2631 113.271 24.4485 112.75 24.7587C112.228 25.0689 111.968 25.5324 111.968 26.151C111.968 26.7714 112.192 27.2741 112.642 27.6609C113.089 28.0478 113.849 28.2403 114.922 28.2403Z" fill="white"/>
<path d="M33.7169 9.99565C29.915 3.20887 22.2461 0.433193 15.2692 3.31583C8.67587 6.0416 4.87393 13.7376 6.26464 21.3872C6.51143 22.7491 6.54145 24.1914 6.44973 25.5783C6.36636 26.8601 5.65099 27.689 4.29697 27.6569C3.54826 27.6409 2.7762 27.6338 2.05083 27.8031C0.893576 28.0705 0.114847 28.8514 0.0114612 30.1795C-0.0852547 31.4185 0.431675 32.3419 1.50389 32.8268C2.65447 33.3491 3.65498 32.9623 4.42204 32.0032C4.84225 31.4755 5.10738 30.807 5.42755 30.1937C6.28632 28.5519 7.18177 28.1436 8.80426 28.8977C9.82979 29.3755 10.8303 29.9834 11.7257 30.6982C16.765 34.7236 23.4867 35.1105 28.7211 31.6146C35.5679 27.0366 37.8157 17.3101 33.7169 9.99565ZM20.8304 28.6838C15.3593 28.6838 10.9237 23.9418 10.9237 18.0927C10.9237 12.2436 15.3593 7.50164 20.8304 7.50164C26.3015 7.50164 30.7371 12.2436 30.7371 18.0927C30.7371 23.9418 26.3015 28.6838 20.8304 28.6838Z" fill="white"/>
<path d="M40.3203 14.95C39.5749 15.1318 38.8312 14.6826 38.5844 13.9303C38.5594 13.8073 38.5327 13.6843 38.5044 13.563C37.5456 9.26313 35.2477 5.51766 32.1078 2.85964C32.0878 2.8436 32.0694 2.82755 32.0494 2.80973C32.0394 2.8026 32.0277 2.7919 32.0177 2.78299C31.6676 2.4514 31.4958 1.9772 31.5208 1.50835L31.6309 0.984233C31.6809 0.852312 31.7493 0.72574 31.836 0.608081C32.3079 -0.0354766 33.1517 -0.183441 33.787 0.237278C33.882 0.315717 33.9771 0.395939 34.0705 0.476161C37.709 3.60482 40.3587 7.99563 41.4359 13.0264C41.4375 13.0318 41.4375 13.0353 41.4392 13.0407C41.4409 13.0496 41.4425 13.0585 41.4442 13.0674C41.6126 13.916 41.114 14.7539 40.3203 14.95Z" fill="white"/>
</svg>