<svg width="246" height="235" viewBox="0 0 246 235" fill="none" xmlns="http://www.w3.org/2000/svg">
<rect width="246" height="235" rx="45" fill="white"/>
<path d="M91.0095 100.771C92.2254 103.128 94.9824 104.314 98.5277 104.314C101.863 104.314 105.897 103.264 110.001 101.152C116.535 97.7832 122.991 92.1159 129.188 84.3091C129.566 83.8342 130.716 82.3894 129.877 80.7518C129.039 79.1141 127.195 79.2019 126.576 79.2325C116.595 79.7563 108.233 81.7247 101.721 85.0824C93.2649 89.4457 88.6589 96.1883 91.0069 100.766C91.0079 100.768 91.0089 100.769 91.0095 100.771ZM103.963 89.4304C108.964 86.8525 115.263 85.1747 122.724 84.4285C117.797 90.0628 112.775 94.2174 107.761 96.8025C101.248 100.154 96.033 99.8262 95.3588 98.5304C94.697 97.2271 97.4579 92.7875 103.963 89.4304V89.4304Z" fill="#3DA9FC"/>
<path d="M98.3824 65.8953C98.3811 65.893 98.3794 65.8908 98.3781 65.8885C95.4659 61.3507 86.8926 62.0121 78.4371 67.426C71.8846 71.6167 65.6261 78.2474 59.8401 87.1247C59.4979 87.6452 58.4559 89.2287 59.4657 90.803C60.146 91.8637 61.2184 92.0796 62.0289 92.0796C62.4209 92.0796 62.752 92.0294 62.9477 91.9994C73.4433 90.4625 82.0884 87.5565 88.6424 83.3615C97.0924 77.9516 101.28 70.4429 98.3824 65.8953V65.8953ZM86.0045 79.2415C80.8637 82.5318 74.2147 84.9652 66.1906 86.4949C70.9368 79.8547 75.9319 74.8355 81.074 71.5469C85.3972 68.7792 89.3052 67.7622 91.7497 67.7622C93.0618 67.7622 93.9525 68.0551 94.2588 68.528C95.0866 69.8437 92.9281 74.8088 86.0045 79.2415V79.2415Z" fill="#3DA9FC"/>
<path d="M145.826 64.0292C145.816 62.1949 144.15 61.4608 143.609 61.223C134.935 57.3679 126.978 55.4197 119.97 55.4687C110.705 55.5264 103.999 59.2292 104.026 64.2739C104.041 66.9578 105.968 69.3093 109.453 70.8964C112.288 72.1873 115.982 72.8951 119.874 72.8951C119.94 72.8951 120.007 72.8948 120.073 72.8944C127.063 72.8576 134.993 70.8263 143.637 66.8616C144.181 66.6147 145.836 65.8632 145.826 64.0292V64.0292ZM120.045 68.0021C116.814 68.0148 113.699 67.4542 111.481 66.4444C109.724 65.6444 108.922 64.7451 108.919 64.2481C108.912 62.9369 113.222 60.4034 119.999 60.3613C120.053 60.361 120.107 60.361 120.162 60.361C125.314 60.361 131.315 61.6372 137.715 64.0788C131.231 66.6564 125.302 67.9744 120.045 68.0021Z" fill="#3DA9FC"/>
<path d="M138.642 81.5335C146.481 84.9924 153.675 86.7452 160.034 86.7452C160.134 86.7452 160.233 86.7445 160.333 86.7439C168.928 86.6617 175.135 83.1708 175.093 78.4436C175.08 76.9733 174.4 74.2098 169.99 72.2163C167.324 71.0108 163.86 70.3638 160.195 70.4009C153.771 70.4567 146.504 72.338 138.589 75.9951C137.179 76.6504 136.471 77.5897 136.483 78.787C136.495 79.9843 137.222 80.9083 138.642 81.5335V81.5335ZM160.24 75.2929C163.16 75.2616 165.972 75.7688 167.975 76.6739C169.651 77.4315 170.198 78.2224 170.201 78.4866C170.208 79.3271 166.811 81.7892 160.288 81.8512C155.718 81.893 150.382 80.8114 144.685 78.7074C150.375 76.4801 155.592 75.333 160.24 75.2929V75.2929Z" fill="#3DA9FC"/>
<path d="M201.662 80.0779C191.521 70.8787 179.063 62.7839 165.635 56.6685C164.405 56.1079 162.955 56.6513 162.395 57.8809C161.835 59.1105 162.378 60.5609 163.607 61.1209C176.581 67.0295 188.604 74.8379 198.374 83.7008C201.406 86.4545 201.975 87.8221 202.081 88.2288C201.798 88.4128 200.872 88.8554 198.366 89.0266C196.116 89.1812 193.55 89.0608 191.489 88.9646C190.637 88.9252 189.9 88.8906 189.279 88.8792C152.266 88.131 137.249 96.4795 125.184 103.181C109.837 111.707 99.6974 117.339 52.4399 98.9378C48.1487 97.2675 45.6654 95.4421 45.06 93.5119C44.6008 92.0491 45.1608 90.1264 46.7244 87.7983C80.4259 37.6169 132.202 49.3855 152.899 56.7749C154.17 57.2295 155.57 56.5658 156.025 55.2935C156.479 54.0215 155.816 52.6216 154.544 52.1673C134.039 44.8471 113.719 43.0924 95.7809 47.0956C74.2277 51.9047 56.3561 64.6815 42.6631 85.0707C40.1961 88.7445 39.4531 91.9845 40.3925 94.977C40.8677 96.491 41.7466 97.8546 43.063 99.1012C46.6204 114.772 53.7247 123.789 64.7712 126.646C66.7679 127.162 68.9772 127.65 71.3321 128.101L82.3205 144.579C82.7918 145.286 83.5674 145.669 84.358 145.669C84.8244 145.669 85.2957 145.536 85.7129 145.258C86.8368 144.508 87.1404 142.989 86.3909 141.865L77.9566 129.217C81.4337 129.73 85.07 130.161 88.7037 130.489L114.509 168.877L112.616 171.694H106.517L92.9186 151.452C92.1648 150.331 90.6453 150.032 89.524 150.785C88.4027 151.539 88.1039 153.059 88.8576 154.18L101.837 173.502C101.405 174.147 101.152 174.922 101.152 175.755V185.078C101.152 187.322 102.974 189.148 105.213 189.148H129.691C131.935 189.148 133.761 187.322 133.761 185.078V175.755C133.761 174.919 133.507 174.142 133.071 173.496L154.53 141.553H165.032C171.263 141.553 176.334 136.482 176.334 130.25V126.939C182.203 125.918 186.508 121.72 189.87 113.739C189.877 113.72 189.885 113.702 189.892 113.683L197.631 93.9577C202.094 93.8012 205.493 92.9245 206.657 90.1081C208.137 86.5276 204.515 82.6692 201.662 80.0779V80.0779ZM94.9045 130.944C96.1553 131.014 97.3947 131.071 98.6142 131.113C100.203 131.166 101.872 131.199 103.587 131.199C107.415 131.199 111.465 131.037 115.327 130.587C115.506 136.663 120.501 141.552 126.62 141.552H132.865L117.455 164.49L94.9045 130.944ZM128.869 184.255H106.044V176.586H113.913C113.915 176.586 113.916 176.587 113.917 176.587C113.919 176.587 113.921 176.586 113.923 176.586H128.869V184.255ZM128.388 171.694H118.51L119.487 170.239C119.496 170.227 119.504 170.214 119.513 170.202L138.759 141.552H148.636L128.388 171.694ZM171.442 130.25C171.442 133.785 168.566 136.66 165.032 136.66H126.621C123.086 136.66 120.211 133.785 120.211 130.25V129.827C123.977 129.075 127.348 127.953 129.859 126.318C139.519 120.026 147.8 121.176 154.626 123.13C155.543 123.393 156.44 123.653 157.314 123.907C162.722 125.477 167.315 126.807 171.442 127.121V130.25ZM185.35 111.867C179.678 125.307 173.094 123.395 158.678 119.208C157.798 118.953 156.896 118.691 155.971 118.426C148.545 116.3 138.563 114.81 127.189 122.219C116.942 128.893 83.571 126.452 65.9959 121.909C60.7164 120.544 53.5081 117.034 49.1164 102.854C49.6135 103.071 50.1246 103.286 50.6653 103.497C72.5382 112.014 88.3166 116.008 100.144 116.008C100.547 116.008 100.947 116.003 101.341 115.994C112.674 115.728 119.572 111.895 127.56 107.458C139.11 101.042 153.487 93.052 189.185 93.7705C189.741 93.7806 190.445 93.8136 191.261 93.8517C191.643 93.8697 192.022 93.886 192.398 93.9013L185.35 111.867Z" fill="#3DA9FC"/>
</svg>