<svg width="20" height="20" viewBox="0 0 20 20" fill="none" xmlns="http://www.w3.org/2000/svg">
<path d="M14.5 0C12.76 0 11.09 0.851245 10 2.19642C8.91 0.851245 7.24 0 5.5 0C2.42 0 0 2.54322 0 5.78005C0 9.75253 3.4 12.9894 8.55 17.9077L10 19.2844L11.45 17.8972C16.6 12.9894 20 9.75253 20 5.78005C20 2.54322 17.58 0 14.5 0ZM10.1 16.3418L10 16.4469L9.9 16.3418C5.14 11.8123 2 8.81721 2 5.78005C2 3.67822 3.5 2.10184 5.5 2.10184C7.04 2.10184 8.54 3.14225 9.07 4.58201H10.94C11.46 3.14225 12.96 2.10184 14.5 2.10184C16.5 2.10184 18 3.67822 18 5.78005C18 8.81721 14.86 11.8123 10.1 16.3418Z" fill="#B1B0B0"/>
</svg>