<svg width="246" height="235" viewBox="0 0 246 235" fill="none" xmlns="http://www.w3.org/2000/svg">
<rect width="246" height="235" rx="45" fill="#3DA9FC"/>
<path d="M176.158 117.209C174.832 117.209 173.757 118.284 173.757 119.61C173.757 121.291 172.389 122.659 170.708 122.659C169.027 122.659 167.659 121.291 167.659 119.61C167.659 118.284 166.584 117.209 165.258 117.209C163.932 117.209 162.856 118.284 162.856 119.61C162.856 123.939 166.379 127.462 170.708 127.462C175.037 127.462 178.559 123.939 178.559 119.61C178.559 118.283 177.484 117.209 176.158 117.209Z" fill="white"/>
<path d="M198.698 118.953L191.939 116.788C191.074 116.511 190.391 115.82 190.115 114.94C188.69 110.411 186.541 106.159 183.726 102.302C182.443 100.544 181.016 98.8656 179.458 97.2675C180.455 92.8934 180.997 87.9431 180.926 83.6663C180.826 77.5481 179.603 73.9596 177.189 72.6951C175.888 72.0132 171.931 69.9416 150.511 79.7469C150.004 79.9789 149.53 80.2648 149.091 80.5922C147.647 80.2042 146.171 79.8452 144.686 79.5229C144.508 79.4839 144.323 79.4494 144.143 79.4114C145.879 75.6196 146.892 71.5014 147.083 67.2501C147.142 65.9249 146.116 64.8028 144.791 64.7438C143.47 64.6781 142.344 65.71 142.285 67.0351C141.972 74.0254 139.072 80.6025 134.12 85.5548C131.162 88.5135 127.697 90.6627 124.005 92.0162C117.602 91.1177 111.08 91.1177 104.677 92.0162C100.984 90.6627 97.5202 88.5135 94.5615 85.5548C89.2783 80.2715 86.3685 73.2471 86.3685 65.7754C86.3685 58.3033 89.2783 51.2792 94.5615 45.996C99.8447 40.7125 106.869 37.8027 114.341 37.8027C121.812 37.8027 128.837 40.7125 134.12 45.996C136.243 48.1191 137.998 50.5419 139.335 53.1964C139.931 54.381 141.375 54.858 142.56 54.2612C143.744 53.665 144.221 52.2209 143.625 51.0366C142.057 47.9238 140.002 45.0856 137.517 42.5996C131.326 36.4092 123.096 33 114.341 33C105.587 33 97.3562 36.4092 91.1658 42.5996C84.9754 48.7904 81.5661 57.0207 81.5661 65.7751C81.5661 74.5294 84.9754 82.7601 91.1658 88.9505C92.9515 90.7361 94.8941 92.2717 96.9488 93.5582C96.9495 93.5582 96.9501 93.5579 96.9508 93.5579C95.4577 93.9459 93.9759 94.3816 92.5106 94.8715C91.2528 95.292 90.5741 96.6523 90.9947 97.9104C91.4149 99.1682 92.7758 99.8469 94.0333 99.4267C107.129 95.0487 121.554 95.0487 134.649 99.4267C134.902 99.5111 135.158 99.5511 135.411 99.5511C136.415 99.5511 137.352 98.9156 137.688 97.9104C138.108 96.6526 137.43 95.292 136.172 94.8715C134.706 94.3816 133.225 93.9456 131.732 93.5579C131.732 93.5579 131.733 93.5582 131.734 93.5582C133.789 92.2717 135.731 90.7361 137.517 88.9505C139.096 87.3707 140.491 85.6456 141.702 83.8123C142.363 83.9408 143.021 84.0756 143.668 84.2161C144.53 84.4033 145.389 84.6044 146.24 84.8155C146.213 84.9199 146.186 85.024 146.163 85.13C144.992 90.6875 145.068 95.6027 146.389 99.7383C147.576 103.456 149.719 106.467 152.757 108.69C156.338 111.309 160.661 112.441 164.577 112.441C167.524 112.441 170.241 111.799 172.236 110.669C174.493 109.391 176.384 106.697 177.881 102.653C178.573 103.46 179.229 104.287 179.847 105.134C182.353 108.568 184.267 112.352 185.534 116.381C186.278 118.747 188.125 120.609 190.475 121.362L197.233 123.527C199.007 124.095 200.198 125.728 200.198 127.59V138.797C200.198 140.659 199.007 142.291 197.233 142.859L186.344 146.347C184.602 146.905 183.128 148.103 182.193 149.718C177.915 157.112 171.189 163.23 162.201 167.903C161.162 168.444 160.443 169.41 160.226 170.556L156.739 189.022C156.642 189.531 156.197 189.9 155.679 189.9H144.339C143.821 189.9 143.376 189.531 143.279 189.022L141.348 178.817C140.967 176.808 139.084 175.475 137.057 175.782C132.172 176.52 127.139 176.895 122.098 176.895C118.348 176.895 114.645 176.685 111.093 176.273C109.129 176.047 107.299 177.386 106.932 179.325L105.096 189.022C105 189.531 104.554 189.9 104.036 189.9H92.6966C92.1787 189.9 91.733 189.531 91.6353 189.015L88.2773 171.573C88.0611 170.449 87.3553 169.494 86.3399 168.951C71.0181 160.772 62.9195 147.107 62.9195 129.433C62.9195 120.504 64.8731 112.608 68.7258 105.964C72.321 99.7644 77.572 94.6381 84.3328 90.7274C85.4807 90.0632 85.8729 88.5944 85.209 87.4461C84.5452 86.2982 83.0763 85.9067 81.928 86.5699C68.8186 94.1534 60.9118 105.853 58.7349 120.713V120.712C58.5038 120.691 58.2725 120.671 58.042 120.648C58.0839 119.044 57.7939 117.427 57.1623 115.856C55.7691 112.393 52.9074 109.894 49.8713 109.489C47.4788 109.168 45.202 110.184 43.6219 112.272C41.331 115.299 41.7045 117.695 42.4209 119.172C43.6303 121.664 46.7392 123.426 51.8984 124.535C51.7566 124.747 51.6006 124.96 51.4298 125.175C48.3815 128.998 44.7902 129.843 42.4582 129.923C41.0931 129.969 40 131.065 40 132.431V132.442C40 133.79 41.0632 134.889 42.4093 134.95C42.5817 134.958 42.7618 134.963 42.9494 134.963C45.9 134.963 50.6357 133.874 55.1855 128.169C55.9038 127.269 56.489 126.319 56.9389 125.337C57.392 125.388 57.8274 125.432 58.2444 125.471C58.2444 125.47 58.2444 125.469 58.2447 125.468C58.1629 126.77 58.1175 128.09 58.1175 129.433C58.1175 139.433 60.5013 148.348 65.2021 155.933C69.5366 162.927 75.7425 168.653 83.6535 172.959L86.918 189.915C87.443 192.689 89.8732 194.703 92.6966 194.703H104.036C106.859 194.703 109.29 192.689 109.815 189.915L111.474 181.147C114.921 181.512 118.49 181.697 122.098 181.697C127.048 181.697 131.992 181.352 136.811 180.671L138.56 189.916C139.085 192.69 141.516 194.703 144.339 194.703H155.678C158.502 194.703 160.932 192.689 161.457 189.914L164.853 171.935C174.446 166.862 181.677 160.198 186.349 152.124C186.686 151.542 187.204 151.115 187.809 150.921L198.698 147.433C202.467 146.225 205 142.754 205 138.796V127.589C205 123.631 202.467 120.161 198.698 118.953ZM175.763 90.4142C174.839 98.3181 172.36 105.079 169.869 106.49C167.037 108.094 160.5 108.404 155.592 104.813C150.678 101.219 149.043 94.7548 150.862 86.12C150.862 86.1197 150.862 86.1197 150.862 86.1197C151.045 85.2525 151.661 84.5022 152.51 84.1136C164.532 78.6106 171.463 76.8107 174.038 76.8107C174.426 76.8107 174.716 76.8516 174.908 76.9271C175.682 77.7514 176.696 82.4375 175.763 90.4142ZM46.7421 117.075C46.4937 116.562 47.0802 115.661 47.4521 115.17C48.0415 114.391 48.5845 114.232 48.9948 114.232C49.0814 114.232 49.1623 114.239 49.2365 114.249C50.3405 114.396 51.8874 115.611 52.7069 117.648C52.9 118.128 53.1507 118.922 53.2093 119.913C49.8852 119.224 47.3025 118.231 46.7421 117.075Z" fill="white"/>
<path d="M116.672 61.6708V53.0779C119.636 53.2897 120.737 54.6442 121.752 54.6442C123.022 54.6442 123.615 53.0357 123.615 52.2314C123.615 50.1569 119.551 49.2681 116.672 49.1834V48.04C116.672 47.5321 116.037 47.0664 115.402 47.0664C114.682 47.0664 114.175 47.5321 114.175 48.04V49.2675C110.153 49.6909 106.131 51.8076 106.131 57.1414C106.131 62.56 110.365 64.084 114.175 65.4384V75.3865C109.857 75.0478 108.714 72.0845 107.317 72.0845C106.258 72.0845 105.37 73.4816 105.37 74.4977C105.37 76.5718 108.926 79.408 114.175 79.4928V80.805C114.175 81.3129 114.683 81.7786 115.402 81.7786C116.038 81.7786 116.672 81.3129 116.672 80.805V79.3658C121.244 78.7306 124.377 75.8521 124.377 70.6453C124.377 64.8883 120.355 63.0253 116.672 61.6708ZM114.429 60.8668C112.185 60.0202 110.365 59.1314 110.365 56.7186C110.365 54.5172 112.058 53.4589 114.429 53.1627V60.8668V60.8668ZM116.418 75.3017V66.3698C118.492 67.2586 120.143 68.4439 120.143 71.1106C120.143 73.5241 118.704 74.8786 116.418 75.3017Z" fill="white"/>
</svg>