<svg width="18" height="21" viewBox="0 0 18 21" fill="none" xmlns="http://www.w3.org/2000/svg">
<path d="M15 14.797C14.24 14.797 13.56 15.1122 13.04 15.6062L5.91 11.2448C5.96 11.0031 6 10.7614 6 10.5092C6 10.257 5.96 10.0153 5.91 9.77356L12.96 5.45428C13.5 5.97973 14.21 6.30552 15 6.30552C16.66 6.30552 18 4.89729 18 3.15276C18 1.40823 16.66 0 15 0C13.34 0 12 1.40823 12 3.15276C12 3.40498 12.04 3.64669 12.09 3.8884L5.04 8.20769C4.5 7.68223 3.79 7.35644 3 7.35644C1.34 7.35644 0 8.76467 0 10.5092C0 12.2537 1.34 13.662 3 13.662C3.79 13.662 4.5 13.3362 5.04 12.8107L12.16 17.1825C12.11 17.4032 12.08 17.6344 12.08 17.8656C12.08 19.5576 13.39 20.9343 15 20.9343C16.61 20.9343 17.92 19.5576 17.92 17.8656C17.92 16.1737 16.61 14.797 15 14.797Z" fill="#B1B0B0"/>
</svg>