<svg width="205" height="185" viewBox="0 0 205 185" fill="none" xmlns="http://www.w3.org/2000/svg">
<g clip-path="url(#clip0)">
<g opacity="0.3">
<path opacity="0.3" d="M52.0826 172.431C26.9654 164.145 5.18184 143.544 0.727961 117.961C-3.72592 92.3786 12.7399 63.5583 38.6264 58.0083C50.8679 55.3918 64.0811 57.7308 75.7826 53.3304C97.8361 45.0318 105.34 16.9383 125.72 5.21719C145.358 -6.06781 172.27 2.07219 186.9 19.1583C201.531 36.2443 205.795 59.8186 204.891 82.0979C203.569 114.83 189.37 150.125 159.057 163.96C133.494 175.602 79.4807 178.906 52.0826 172.431Z" fill="#6AA6F8"/>
</g>
<g opacity="0.3">
<path opacity="0.3" d="M22.5798 167.597C28.1269 176.239 39.5721 179.476 49.9914 179.278C60.4108 179.067 70.6008 176.16 81.0067 175.565C97.4995 174.627 113.668 179.542 129.878 182.648C146.087 185.753 163.808 186.863 178.277 179.04C181.813 177.124 185.227 174.508 186.672 170.808C188.102 167.108 186.807 162.192 183.082 160.659C181.637 160.065 180.031 160.025 178.466 159.999C143.725 159.364 108.999 158.743 74.2584 158.109C56.5778 157.792 37.0887 158.082 23.8215 169.539" fill="#6AA6F8"/>
</g>
<path d="M29.949 43.0917C27.8165 42.1535 25.1982 42.3649 23.2547 43.6467C21.3111 44.9285 20.1234 47.2278 20.2179 49.5139C20.2854 51.2978 21.0277 53.346 19.8535 54.7203C18.9492 55.7906 17.3566 55.8831 16.061 56.4646C13.6181 57.5481 12.3899 60.7196 13.5101 63.1114C14.1174 64.4064 15.3051 65.5956 15.0757 67.0096C14.9272 67.9214 14.1849 68.6349 13.3751 69.0974C12.5518 69.5599 11.6476 69.811 10.7973 70.2206C7.72005 71.7007 5.84403 75.1232 5.92501 78.4928C6.01948 81.8492 7.89551 85.0339 10.6083 87.1085C13.3211 89.1699 16.7628 90.1742 20.2044 90.3064C23.6461 90.4385 27.2362 89.6457 29.8545 87.4653C31.825 85.8267 33.1072 83.5407 34.0519 81.1885C35.8605 76.7221 36.5893 71.8328 36.1709 67.0492C35.739 62.0807 34.0924 57.2706 33.7415 52.2889C33.62 50.6239 33.647 48.9324 33.2691 47.3071C32.8912 45.6817 32.0409 44.0696 30.5833 43.1974" fill="#284266"/>
<path d="M29.1662 43.7393C31.1232 39.7618 34.9967 36.749 39.3966 35.7976C42.0959 35.2161 45.0652 35.4143 47.4406 36.8018C49.816 38.1893 51.4626 40.9115 51.0982 43.594C50.8687 45.259 49.951 46.739 49.3706 48.3115C48.7903 49.884 48.5878 51.8133 49.681 53.1083C50.6528 54.2711 52.3264 54.5618 53.6625 55.3151C55.5656 56.3854 56.7533 58.5658 56.6318 60.7065C56.5103 62.8472 55.0662 64.869 53.0552 65.7279C55.0527 65.9526 56.9287 67.0493 58.0894 68.6615C59.2501 70.2736 59.6685 72.3747 59.2096 74.2908C58.5483 77.0393 56.2674 79.1536 53.811 80.6336C50.3964 82.6951 46.4418 83.8976 42.4334 84.0693C38.1819 84.2543 33.4716 83.0254 31.1502 79.5236C29.6251 77.2243 29.3956 74.3568 29.2337 71.6215C28.7208 63.3758 28.3699 55.1168 28.019 46.8579C27.965 45.5233 27.911 44.1754 28.2214 42.8936" fill="#284266"/>
<path d="M43.486 81.0036L81.6274 94.9975L77.9834 79.92L87.9034 77.449C87.9034 77.449 98.5657 106.93 91.1696 107.723C78.1993 109.11 58.5752 104.076 58.5752 104.076L43.486 81.0036Z" fill="#F0D1BB"/>
<path d="M40.1524 145.344C40.1524 145.344 86.2298 96.1076 117.34 106.851C148.449 117.607 161.581 167.755 161.581 167.755L136.802 167.359C136.802 167.359 117.232 129.474 107.689 130.954C98.1473 132.42 68.6572 168.482 68.6572 168.482L40.1524 145.344Z" fill="#284266"/>
<path d="M54.7287 115.453L56.6453 144.34C46.7118 156.299 12.1335 140.838 12.1335 140.838L11.7286 128.76L10.9188 99.9927C11.7151 88.5359 22.5798 82.9066 22.5798 82.9066C27.0742 80.713 33.9305 79.4709 40.0984 79.7616C46.5498 80.0787 48.1289 83.0916 50.7877 88.853C52.9472 93.5177 58.7642 101.089 54.7287 115.453Z" fill="#6AA6F8"/>
<path d="M18.5983 146.282C18.5983 146.282 13.3077 167.359 29.4226 170.676C45.5376 173.992 104.815 166.222 120.255 167.557C135.695 168.892 179.599 171.389 179.599 171.389L182.812 146.361C182.812 146.361 114.478 143.15 106.758 145.027C99.0516 146.916 18.5983 146.282 18.5983 146.282Z" fill="#284266"/>
<path d="M26.3184 109.441C26.3184 109.441 21.4866 137.323 28.3024 136.636C50.7202 134.376 64.0684 134.072 64.0684 134.072L67.7799 141.631C67.8609 142.912 25.3196 154.845 18.4903 150.894C13.6585 148.106 5.97897 140.613 9.46109 118.202L10.2844 110.696L26.3184 109.441Z" fill="#F0D1BB"/>
<path d="M46.5498 149.467L46.4958 147.604L74.6363 143.719L82.1134 118.136L113.277 117.396L104.869 145.08L46.5498 149.467Z" fill="#FFFFFD"/>
<path opacity="0.5" d="M46.5498 149.467L46.4958 147.604L74.6363 143.719L82.1134 118.136L113.277 117.396L104.869 145.08L46.5498 149.467Z" fill="#6AA6F8"/>
<path d="M97.1351 130.266C97.1621 131.509 96.1634 132.552 94.8812 132.579C93.6125 132.605 92.5463 131.627 92.5193 130.372C92.4923 129.13 93.491 128.086 94.7732 128.06C96.0419 128.033 97.0946 129.011 97.1351 130.266Z" fill="white"/>
<path opacity="0.41" d="M98.0528 130.24C98.0933 131.984 96.6897 133.438 94.8946 133.477C93.1131 133.517 91.6284 132.143 91.588 130.385C91.5475 128.641 92.9511 127.187 94.7462 127.148C96.5277 127.108 98.0124 128.496 98.0528 130.24Z" fill="white"/>
<path d="M13.9825 90.9408C13.9825 90.9408 8.75929 95.8565 7.58508 114.462L27.83 112.269C27.83 112.269 31.2041 80.5808 13.9825 90.9408Z" fill="#6AA6F8"/>
<path d="M24.1184 51.9454L24.5773 57.8522C24.5773 57.8522 19.4486 58.5261 20.9062 63.1115C22.3638 67.6968 25.873 65.6883 25.873 65.6883C25.873 65.6883 26.7502 77.4225 39.0322 73.7093C48.8037 70.7493 48.2099 58.3543 46.9682 47.7961C46.4823 43.6997 42.5278 40.885 38.4113 41.6779L31.0287 43.0918C26.7637 43.8979 23.7945 47.7036 24.1184 51.9454Z" fill="#F0D1BB"/>
<path d="M24.5773 62.7546L27.884 80.0257C28.6263 83.9239 32.5538 86.4082 36.4813 85.4832C40.1254 84.6375 42.4603 81.1489 41.8125 77.5282L40.0175 67.6307L24.5773 62.7546Z" fill="#F0D1BB"/>
<path d="M38.1684 62.9527C38.2089 62.9263 38.3169 63.1113 38.5463 63.1377C38.7623 63.1641 39.0997 62.9395 39.1807 62.4638C39.2886 62.0013 39.2347 61.3934 39.1672 60.6798C39.1132 59.9134 39.0457 59.1602 38.9917 58.3806C38.7893 55.1166 38.7758 52.4473 38.9647 52.4341C39.1537 52.4209 39.4911 55.0638 39.6935 58.3277C39.734 59.1206 39.7745 59.8738 39.815 60.627C39.842 61.3274 39.869 62.0145 39.6665 62.5959C39.5046 63.1906 38.8703 63.5606 38.4788 63.3888C38.0874 63.2038 38.1414 62.9527 38.1684 62.9527Z" fill="#284266"/>
<path d="M42.1499 72.4935C42.2039 72.5596 41.718 73.0882 40.7058 73.6564C39.707 74.2246 38.1414 74.7796 36.3464 74.8192C34.5513 74.8589 32.9722 74.3699 31.9465 73.8414C30.9072 73.3128 30.4079 72.8107 30.4618 72.7446C30.5563 72.5596 32.9452 74.2246 36.3464 74.1321C39.734 74.0792 42.0554 72.3085 42.1499 72.4935Z" fill="#284266"/>
<path d="M39.7475 65.3712C39.815 65.4241 39.653 65.8073 39.1132 66.1773C38.5868 66.5473 37.6151 66.8512 36.6028 66.534C35.5906 66.2037 34.9832 65.4108 34.7808 64.8162C34.5648 64.1951 34.6593 63.7987 34.7538 63.7987C34.8617 63.7855 34.9427 64.1423 35.2397 64.6048C35.5231 65.0673 36.0629 65.6355 36.8323 65.8733C37.6016 66.1112 38.3844 65.9526 38.8837 65.7412C39.3831 65.5562 39.6665 65.3051 39.7475 65.3712Z" fill="#284266"/>
<path d="M24.1994 63.6797C24.1994 63.759 23.9025 63.9043 23.3626 63.7457C23.1062 63.6665 22.7688 63.4418 22.6203 63.0586C22.5528 62.8736 22.5123 62.6357 22.5933 62.3979C22.6473 62.16 22.8768 61.9089 23.1332 61.8297C23.4841 61.6975 23.97 61.7768 24.1994 62.1468L23.6056 62.4507C23.2142 61.4861 23.0252 60.7461 23.1737 60.68C23.3221 60.6139 23.754 61.2482 24.2264 62.1865L23.6326 62.4904C23.6191 62.4772 23.5246 62.4243 23.4031 62.4772C23.2682 62.5168 23.2142 62.6622 23.2547 62.8736C23.2952 63.0718 23.4301 63.2172 23.5921 63.3229C23.9025 63.5211 24.1994 63.5872 24.1994 63.6797Z" fill="#284266"/>
<path d="M43.0812 55.3944C42.8922 55.4341 42.6358 55.0508 42.5143 54.5223C42.3929 53.9937 42.4468 53.5444 42.6358 53.5048C42.8247 53.4651 43.0812 53.8483 43.2027 54.3769C43.3241 54.9055 43.2701 55.3548 43.0812 55.3944Z" fill="#284266"/>
<path d="M32.6888 56.3457C32.4998 56.3986 32.2299 56.0154 32.0814 55.4868C31.9329 54.9582 31.9599 54.4957 32.1489 54.4429C32.3378 54.39 32.6078 54.7732 32.7562 55.3018C32.9047 55.8304 32.8777 56.2929 32.6888 56.3457Z" fill="#284266"/>
<path d="M33.647 52.0511C33.593 52.2361 33.0396 52.2361 32.4188 52.3947C31.798 52.54 31.3256 52.8175 31.1771 52.6854C31.0286 52.5664 31.4065 51.9454 32.2433 51.7339C33.0801 51.5093 33.728 51.8793 33.647 52.0511Z" fill="#284266"/>
<path d="M44.2689 50.3994C44.1879 50.5844 43.5805 50.4919 42.8652 50.558C42.1499 50.6109 41.5696 50.7959 41.4616 50.6373C41.3401 50.4919 41.8935 49.9502 42.8112 49.8709C43.7155 49.7916 44.3499 50.2409 44.2689 50.3994Z" fill="#284266"/>
<path d="M24.5773 57.8523C28.0055 54.5752 29.0177 49.1309 29.949 44.5323C33.1207 46.7919 37.4936 47.3469 41.1512 45.9594C42.2984 47.2809 43.648 48.4305 45.1462 49.3687C45.5646 49.633 46.0774 49.8973 46.5498 49.7519C47.1302 49.5802 47.3866 48.9327 47.5216 48.3644C47.9535 46.5277 47.9805 44.5719 47.3191 42.8012C46.6713 41.0305 45.2946 39.4712 43.4996 38.7973C41.5831 38.0705 39.4236 38.3877 37.4396 38.8898C34.4434 39.6562 31.5551 40.8191 28.8828 42.3519C26.2644 43.8584 23.7405 45.8405 22.6338 48.6155C21.5271 51.3905 21.5271 56.7687 24.2129 58.1694" fill="#284266"/>
<g opacity="0.28">
<g opacity="0.28">
<g opacity="0.28">
<path opacity="0.28" d="M38.5733 66.0187C38.7352 66.957 37.9254 67.8555 36.8187 67.6309C35.712 67.393 35.3476 66.2434 35.8875 65.4637C36.4273 64.6709 37.1426 64.1952 37.5475 64.2745C37.9524 64.3537 38.4113 65.0805 38.5733 66.0187Z" fill="#251A51"/>
</g>
</g>
</g>
<g opacity="0.12">
<g opacity="0.12">
<g opacity="0.12">
<path opacity="0.12" d="M34.2949 60.5347C34.4704 61.4597 33.2962 62.4507 31.6496 62.53C30.003 62.6093 28.7478 61.724 28.8288 60.7857C28.9098 59.8343 30.0975 59.1604 31.4876 59.0943C32.8778 59.0282 34.1329 59.5965 34.2949 60.5347Z" fill="#251A51"/>
</g>
</g>
</g>
<g opacity="0.12">
<g opacity="0.12">
<g opacity="0.12">
<path opacity="0.12" d="M47.2921 59.4906C47.4811 60.4156 46.4553 61.4067 44.9707 61.486C43.4861 61.5653 42.3524 60.6799 42.4468 59.7417C42.5413 58.7903 43.5806 58.1163 44.7818 58.0503C45.983 57.9974 47.0897 58.5656 47.2921 59.4906Z" fill="#251A51"/>
</g>
</g>
</g>
<path d="M24.4424 73.4845C24.2399 73.4845 24.1319 71.5817 24.0105 69.256C23.889 66.9303 23.7945 65.0274 23.997 65.0142C24.1859 64.9878 24.5908 66.8642 24.7123 69.2295C24.8338 71.5817 24.6313 73.4978 24.4424 73.4845Z" fill="#6AA6F8"/>
<path d="M44.8223 80.8714C41.5021 79.5764 67.0242 88.866 67.0242 88.866L64.4328 105.965L54.7288 102.847L44.8223 80.8714Z" fill="#6AA6F8"/>
<path d="M29.6251 42.2066C30.4349 41.0173 30.6913 39.4977 30.3404 38.1234C30.0435 36.9869 29.1662 35.8637 27.9785 35.7977C27.3037 35.758 26.6423 36.0884 26.143 36.5377C24.9148 37.6609 24.5909 39.6298 25.4141 41.0569C26.2374 42.4973 28.1135 43.2505 29.7331 42.8144" fill="#284266"/>
<path d="M182.137 151.7C182.137 151.7 190.437 140.045 189.425 144.458C188.413 148.872 179.977 168.482 179.977 168.482L182.137 151.7Z" fill="#636C7A"/>
<path d="M61.7065 134.085C61.7065 134.085 72.6793 130.716 72.3014 131.826C71.9235 132.936 70.0609 132.975 68.1849 134.759C68.1849 134.759 80.4533 134.891 79.8595 135.882C79.2656 136.874 71.2891 137.125 71.2351 137.283C71.1811 137.455 79.9674 137.666 79.765 138.578C79.5625 139.49 71.4106 139.265 71.4106 139.265C71.4106 139.265 78.9687 140.058 78.8202 141.036C78.6583 142.027 71.694 141.314 71.694 141.314C71.694 141.314 77.5246 141.961 77.3761 142.86C77.2816 143.401 60.2894 143.534 60.2489 143.93C60.2489 144.141 61.7065 134.085 61.7065 134.085Z" fill="#F0D1BB"/>
<path d="M78.6987 80.8714C78.6987 80.8714 72.0314 71.7535 73.2191 71.7535C74.4068 71.7535 75.0276 73.4714 77.3355 74.6475C77.3355 74.6475 73.651 63.2435 74.7982 63.4814C75.9319 63.7192 78.6582 71.04 78.8337 71.0267C79.0091 71.0135 76.4852 62.8207 77.43 62.715C78.3748 62.6092 80.6962 70.2471 80.6962 70.2471C80.6962 70.2471 79.1036 62.9925 80.1158 62.8339C81.1146 62.6753 82.5992 69.3485 82.5992 69.3485C82.5992 69.3485 81.425 63.7325 82.3293 63.6003C82.8826 63.521 87.9169 77.4357 87.9169 77.4357C87.7684 77.4489 78.6987 80.8714 78.6987 80.8714Z" fill="#F0D1BB"/>
<path d="M17.2621 105.965C17.3296 105.952 17.5861 106.388 17.5996 107.247C17.5996 107.67 17.4241 108.278 16.8842 108.648C16.6278 108.833 16.2364 108.965 15.845 108.886C15.4536 108.806 15.1567 108.542 14.9407 108.318C14.5088 107.815 14.2254 107.525 13.78 107.472C13.3481 107.406 12.9702 107.551 12.7273 107.763C12.2144 108.225 12.2279 108.767 12.1199 108.754C12.0524 108.793 11.7825 108.185 12.3629 107.432C12.6463 107.075 13.2266 106.785 13.861 106.838C14.1714 106.864 14.5088 106.97 14.7923 107.181C15.0757 107.393 15.2646 107.63 15.4671 107.842C16.1689 108.78 17.0867 107.868 17.1272 107.194C17.2081 106.494 17.1407 105.965 17.2621 105.965Z" fill="#F9F2FC"/>
<path d="M23.2546 100.891C23.2141 100.838 23.4571 100.402 24.1994 99.9397C24.5638 99.7282 25.1846 99.5565 25.792 99.8075C26.0889 99.9265 26.4128 100.178 26.5478 100.561C26.6828 100.931 26.6153 101.314 26.5208 101.618C26.3184 102.239 26.2104 102.622 26.3858 103.032C26.5478 103.428 26.8717 103.666 27.1956 103.759C27.8705 103.944 28.3294 103.653 28.3833 103.745C28.4643 103.785 28.0594 104.327 27.1012 104.234C26.6423 104.181 26.0889 103.851 25.8055 103.296C25.6705 103.019 25.5895 102.675 25.6165 102.331C25.657 101.988 25.765 101.697 25.846 101.433C26.2914 100.363 25.0227 100.072 24.4153 100.376C23.7405 100.666 23.3221 100.984 23.2546 100.891Z" fill="#F9F2FC"/>
<path d="M22.8498 88.2847C22.8093 88.2318 23.0522 87.7957 23.7945 87.3332C24.159 87.1218 24.7798 86.95 25.3871 87.2011C25.6841 87.32 26.008 87.5711 26.143 87.9543C26.2779 88.3243 26.2104 88.7075 26.116 89.0114C25.9135 89.6325 25.8055 90.0157 25.981 90.4254C26.143 90.8218 26.4669 91.0597 26.7908 91.1522C27.4656 91.3372 27.9245 91.0465 27.9785 91.139C28.0595 91.1786 27.6546 91.7204 26.6963 91.6279C26.2374 91.575 25.6841 91.2447 25.4006 90.6897C25.2657 90.4122 25.1847 90.0686 25.2117 89.725C25.2522 89.3814 25.3602 89.0907 25.4411 88.8264C25.8865 87.7561 24.6178 87.4654 24.0105 87.7693C23.3357 88.0468 22.9173 88.3772 22.8498 88.2847Z" fill="#F9F2FC"/>
<path d="M35.631 104.71C35.577 104.763 35.1182 104.551 34.5783 103.864C34.3218 103.521 34.1059 102.939 34.3084 102.318C34.4028 102.014 34.6323 101.684 35.0102 101.525C35.3746 101.367 35.7795 101.393 36.0899 101.459C36.7377 101.605 37.1426 101.684 37.534 101.459C37.9119 101.261 38.1414 100.931 38.2089 100.6C38.3438 99.9264 38.0064 99.5036 38.1009 99.4507C38.1279 99.3714 38.7217 99.715 38.7083 100.666C38.6948 101.116 38.4113 101.684 37.858 102.014C37.588 102.173 37.2506 102.279 36.8997 102.279C36.5488 102.279 36.2384 102.186 35.9684 102.133C34.8482 101.79 34.6593 103.045 35.0237 103.626C35.3476 104.261 35.712 104.644 35.631 104.71Z" fill="#F9F2FC"/>
<path d="M44.3364 117.911C44.3769 117.977 44.0935 118.387 43.3242 118.783C42.9462 118.968 42.3119 119.1 41.7181 118.796C41.4346 118.651 41.1242 118.387 41.0297 117.99C40.9218 117.607 41.0297 117.224 41.1377 116.933C41.3941 116.325 41.5291 115.955 41.3671 115.532C41.2322 115.136 40.9353 114.858 40.6113 114.74C39.95 114.502 39.4776 114.753 39.4371 114.66C39.3696 114.621 39.8015 114.105 40.7598 114.264C41.2187 114.343 41.7451 114.713 41.9745 115.295C42.096 115.585 42.15 115.929 42.0825 116.272C42.0285 116.603 41.8935 116.893 41.7855 117.158C41.2592 118.188 42.5009 118.572 43.1352 118.307C43.837 118.109 44.2824 117.805 44.3364 117.911Z" fill="#F9F2FC"/>
<path d="M54.5937 97.0985C54.6342 97.1646 54.3508 97.5742 53.5815 97.9706C53.2036 98.1556 52.5692 98.2878 51.9754 97.9838C51.692 97.8385 51.3815 97.5742 51.2871 97.1778C51.1791 96.7946 51.2871 96.4113 51.395 96.1206C51.6515 95.5128 51.7864 95.1428 51.6245 94.7199C51.4895 94.3235 51.1926 94.046 50.8687 93.9271C50.2073 93.6892 49.7349 93.9403 49.6945 93.8478C49.627 93.8081 50.0589 93.2928 51.0171 93.4514C51.476 93.5306 52.0024 93.9006 52.2318 94.4821C52.3533 94.7728 52.4073 95.1163 52.3398 95.4599C52.2858 95.7903 52.1508 96.081 52.0429 96.3453C51.5165 97.376 52.7582 97.7592 53.3925 97.4949C54.0944 97.2967 54.5397 96.9928 54.5937 97.0985Z" fill="#F9F2FC"/>
<path d="M61.5985 93.9271C61.639 93.8743 62.1384 93.9932 62.7862 94.5614C63.0966 94.8521 63.434 95.3939 63.3396 96.0282C63.2991 96.3453 63.1371 96.7153 62.7997 96.94C62.4758 97.1646 62.0709 97.2043 61.747 97.2043C61.0856 97.1778 60.6672 97.1778 60.3298 97.4553C59.9924 97.7196 59.8304 98.0896 59.8304 98.42C59.8169 99.1071 60.2353 99.4639 60.1544 99.53C60.1409 99.6093 59.493 99.3846 59.3311 98.4464C59.2636 97.9971 59.4255 97.3893 59.9114 96.9796C60.1409 96.7682 60.4513 96.6096 60.8022 96.5435C61.1396 96.4907 61.4635 96.5171 61.747 96.5171C62.9212 96.6625 62.8672 95.3807 62.3948 94.8785C61.9494 94.3235 61.5175 94.0196 61.5985 93.9271Z" fill="#F9F2FC"/>
<path d="M33.2826 128.668C33.3231 128.734 33.0397 129.143 32.2704 129.54C31.8925 129.725 31.2581 129.857 30.6643 129.553C30.3809 129.408 30.0704 129.143 29.976 128.747C29.868 128.364 29.976 127.98 30.0839 127.69C30.3404 127.082 30.4753 126.712 30.3134 126.289C30.1784 125.893 29.8815 125.615 29.5576 125.496C28.8962 125.258 28.4238 125.509 28.3834 125.417C28.3159 125.377 28.7478 124.862 29.706 125.02C30.1649 125.1 30.6913 125.47 30.9207 126.051C31.0422 126.342 31.0962 126.685 31.0287 127.029C30.9747 127.359 30.8397 127.65 30.7318 127.914C30.2054 128.945 31.4471 129.328 32.0814 129.064C32.7833 128.866 33.2151 128.575 33.2826 128.668Z" fill="#F9F2FC"/>
<path d="M48.4663 108.635C48.4123 108.674 47.9669 108.423 47.5215 107.683C47.3191 107.313 47.1571 106.705 47.4406 106.111C47.5755 105.82 47.8455 105.516 48.2234 105.397C48.6148 105.278 49.0062 105.358 49.3031 105.45C49.9239 105.675 50.3288 105.794 50.7337 105.622C51.1386 105.477 51.3951 105.159 51.503 104.855C51.719 104.208 51.4356 103.745 51.53 103.693C51.5705 103.627 52.1104 104.023 51.9889 104.961C51.9214 105.41 51.5705 105.939 50.9902 106.203C50.7067 106.335 50.3558 106.402 50.0049 106.349C49.654 106.309 49.3706 106.19 49.0871 106.098C48.0074 105.622 47.67 106.851 47.9669 107.472C48.2369 108.159 48.5608 108.582 48.4663 108.635Z" fill="#F9F2FC"/>
<path d="M51.1927 119.404C51.1387 119.444 50.6933 119.193 50.2479 118.453C50.0455 118.083 49.8835 117.475 50.1669 116.88C50.3019 116.59 50.5718 116.286 50.9497 116.167C51.3411 116.048 51.7325 116.127 52.0295 116.22C52.6503 116.444 53.0552 116.563 53.4601 116.391C53.865 116.246 54.1214 115.929 54.2294 115.625C54.4454 114.977 54.1619 114.515 54.2564 114.475C54.2969 114.409 54.8368 114.806 54.7153 115.744C54.6478 116.193 54.2969 116.722 53.7165 116.986C53.4331 117.118 53.0822 117.184 52.7313 117.131C52.3804 117.092 52.097 116.973 51.8135 116.88C50.7338 116.405 50.3964 117.634 50.6933 118.255C50.9632 118.915 51.2872 119.338 51.1927 119.404Z" fill="#F9F2FC"/>
<path d="M29.2202 114.806C29.1527 114.793 29.0043 114.317 29.1797 113.484C29.2742 113.075 29.5846 112.52 30.192 112.269C30.4889 112.136 30.8938 112.097 31.2717 112.255C31.6361 112.414 31.8656 112.744 32.0275 113.009C32.3379 113.59 32.5539 113.934 32.9723 114.079C33.3772 114.238 33.7821 114.185 34.0655 114.013C34.6728 113.669 34.7808 113.141 34.8753 113.18C34.9563 113.154 35.0777 113.815 34.3354 114.423C33.971 114.713 33.3502 114.872 32.7428 114.674C32.4459 114.581 32.1355 114.396 31.906 114.132C31.6766 113.868 31.5416 113.59 31.4067 113.352C30.9343 112.295 29.8411 112.982 29.6386 113.63C29.3822 114.304 29.3282 114.832 29.2202 114.806Z" fill="#F9F2FC"/>
<path d="M49.0601 128.099C48.9926 128.086 48.8442 127.611 49.0196 126.778C49.1141 126.368 49.4245 125.813 50.0319 125.562C50.3288 125.43 50.7337 125.391 51.1116 125.549C51.476 125.708 51.7055 126.038 51.8674 126.302C52.1778 126.884 52.3938 127.227 52.8122 127.373C53.2171 127.531 53.622 127.478 53.9054 127.307C54.5127 126.963 54.6207 126.434 54.7152 126.474C54.7962 126.448 54.9176 127.108 54.1753 127.716C53.8109 128.007 53.1901 128.166 52.5827 127.967C52.2858 127.875 51.9754 127.69 51.7459 127.426C51.5165 127.161 51.3815 126.884 51.2466 126.646C50.7742 125.589 49.681 126.276 49.4785 126.923C49.2221 127.584 49.1681 128.113 49.0601 128.099Z" fill="#F9F2FC"/>
<path d="M48.4798 87.8487C48.4123 87.8355 48.2639 87.3598 48.4393 86.5273C48.5338 86.1177 48.8442 85.5627 49.4516 85.3116C49.7485 85.1794 50.1534 85.1398 50.5313 85.2984C50.8957 85.4569 51.1251 85.7873 51.2871 86.0516C51.5975 86.633 51.8135 86.9766 52.2319 87.1219C52.6368 87.2805 53.0417 87.2277 53.3251 87.0559C53.9324 86.7123 54.0404 86.1837 54.1349 86.2234C54.2159 86.1969 54.3373 86.8577 53.595 87.4655C53.2306 87.7562 52.6098 87.9148 52.0024 87.7166C51.7055 87.6241 51.3951 87.4391 51.1656 87.1748C50.9362 86.9105 50.8012 86.633 50.6663 86.3952C50.1939 85.338 49.1006 86.0252 48.8982 86.6727C48.6553 87.3466 48.6013 87.8752 48.4798 87.8487Z" fill="#F9F2FC"/>
<path d="M42.0015 133.438C41.961 133.504 41.4616 133.438 40.7463 132.949C40.3954 132.698 40.004 132.209 40.004 131.562C40.004 131.244 40.1119 130.861 40.4224 130.597C40.7193 130.333 41.1107 130.253 41.4346 130.214C42.0959 130.161 42.5143 130.108 42.8113 129.791C43.1217 129.487 43.2297 129.104 43.1892 128.773C43.1082 128.086 42.6628 127.795 42.7303 127.716C42.7303 127.637 43.4051 127.782 43.6885 128.694C43.8235 129.13 43.729 129.751 43.2971 130.227C43.0947 130.465 42.7978 130.663 42.4603 130.769C42.1229 130.861 41.8125 130.874 41.5291 130.914C40.3414 130.914 40.5573 132.183 41.0837 132.619C41.5966 133.081 42.0689 133.346 42.0015 133.438Z" fill="#F9F2FC"/>
<path d="M18.4633 93.927C18.5308 93.8873 18.9357 94.1913 19.3001 94.9709C19.4756 95.3541 19.57 95.9752 19.2191 96.5434C19.0572 96.8209 18.7602 97.0984 18.3688 97.1777C17.9774 97.257 17.586 97.138 17.3026 97.0191C16.6953 96.7416 16.3174 96.5831 15.8855 96.7152C15.4671 96.8209 15.1701 97.1116 15.0352 97.4023C14.7518 98.0366 14.9947 98.5123 14.8867 98.552C14.8462 98.618 14.3334 98.1688 14.5628 97.2438C14.6708 96.8077 15.0757 96.3056 15.683 96.1073C15.9799 96.0016 16.3309 95.9752 16.6818 96.0545C17.0192 96.1338 17.3026 96.2791 17.559 96.3848C18.5848 96.9663 19.0437 95.7638 18.8142 95.1295C18.6388 94.4291 18.3553 93.9798 18.4633 93.927Z" fill="#F9F2FC"/>
<path d="M41.1782 89.9497C41.2456 89.9101 41.6505 90.214 42.0149 90.9936C42.1904 91.3768 42.2849 91.9979 41.934 92.5661C41.772 92.8436 41.4751 93.1211 41.0837 93.2004C40.6923 93.2797 40.3009 93.1608 40.0175 93.0418C39.4101 92.7643 39.0322 92.6058 38.6003 92.7379C38.1819 92.8436 37.885 93.1343 37.75 93.4251C37.4666 94.0593 37.7095 94.5351 37.6016 94.5747C37.5611 94.6408 37.0482 94.1915 37.2776 93.2665C37.3856 92.8304 37.7905 92.3283 38.3979 92.1301C38.6948 92.0243 39.0457 91.9979 39.3966 92.0772C39.734 92.1565 40.0175 92.3018 40.2739 92.4076C41.2996 92.989 41.7585 91.7865 41.5291 91.1522C41.3536 90.4518 41.0837 90.0026 41.1782 89.9497Z" fill="#F9F2FC"/>
<path d="M27.1822 113.352C27.1282 113.352 27.1417 112.863 27.1957 111.991C27.2497 111.119 27.3576 109.864 27.4926 108.304C27.776 105.199 28.2214 100.904 28.7478 96.1737C28.8693 94.9976 28.9232 93.8612 28.7613 92.7908C28.6128 91.7205 28.1809 90.769 27.5736 89.9894C26.3319 88.4169 24.5773 87.5976 23.0792 87.254C21.5676 86.8972 20.2719 86.9105 19.3946 86.9369C18.5039 86.9633 18.018 87.0162 18.0045 86.9633C17.991 86.9237 18.4769 86.7783 19.3676 86.6594C20.2584 86.5537 21.5811 86.4612 23.1872 86.7651C24.7663 87.069 26.6963 87.8883 28.0864 89.593C28.7748 90.4387 29.2742 91.5222 29.4496 92.6851C29.6386 93.848 29.5711 95.0505 29.4496 96.2397C28.9232 100.984 28.4104 105.252 27.992 108.344C27.7895 109.89 27.6141 111.145 27.4656 112.004C27.3171 112.863 27.2227 113.365 27.1822 113.352Z" fill="#284266"/>
<path d="M28.073 112.282C28.1 112.467 23.4841 113.101 17.7751 113.696C12.066 114.29 7.42317 114.607 7.39617 114.422C7.36918 114.237 11.985 113.603 17.6941 113.009C23.4166 112.414 28.0595 112.084 28.073 112.282Z" fill="#284266"/>
<path d="M56.1864 110.035C55.9569 110.009 57.0772 106.031 55.795 101.287C54.5938 96.517 51.6785 93.5438 51.8675 93.4117C51.9215 93.3588 52.7313 94.0063 53.7165 95.3278C54.7153 96.636 55.8355 98.671 56.4698 101.116C57.1042 103.56 57.1042 105.873 56.8747 107.485C56.6453 109.11 56.2674 110.062 56.1864 110.035Z" fill="#284266"/>
<g opacity="0.5">
<path opacity="0.5" d="M68.3603 4.0172C64.4598 5.25934 61.2476 8.35148 59.8305 12.1176C58.4268 15.8836 58.8317 20.2575 60.8967 23.7329C64.8647 30.4193 75.0276 32.56 81.452 28.0804C87.8764 23.6008 89.1181 13.4786 83.9624 7.63791C78.8067 1.7972 68.4008 1.5197 62.9347 7.09612" fill="#6AA6F8"/>
</g>
</g>
<defs>
<clipPath id="clip0">
<rect width="205" height="185" fill="white"/>
</clipPath>
</defs>
</svg>
