<svg width="91" height="91" viewBox="0 0 91 91" fill="none" xmlns="http://www.w3.org/2000/svg">
<g clip-path="url(#clip0)">
<path d="M79.2728 0H11.3247C5.07723 0 0 5.07723 0 11.3247V79.2728C0 85.5164 5.07723 90.5975 11.3247 90.5975H79.2728C85.5164 90.5975 90.5975 85.5164 90.5975 79.2728V11.3247C90.5975 5.07723 85.5164 0 79.2728 0Z" fill="#3B5999"/>
<path d="M62.2858 45.299V33.9743C62.2858 30.8487 64.8226 31.1432 67.9482 31.1432H73.6105V16.9873H62.2858C52.9014 16.9873 45.2988 24.5899 45.2988 33.9743V45.299H33.9741V59.4549H45.2988V90.5977H62.2858V59.4549H70.7793L76.4417 45.299H62.2858Z" fill="white"/>
</g>
<defs>
<clipPath id="clip0">
<rect width="90.5975" height="90.5975" fill="white"/>
</clipPath>
</defs>
</svg>