<svg width="95" height="97" viewBox="0 0 95 97" fill="none" xmlns="http://www.w3.org/2000/svg">
<path d="M6.14432 7.60954C-1.23658 15.4263 0.274038 23.7299 0.274038 48.9559C0.274038 69.9044 -3.31075 90.9048 15.4507 95.8486C21.3092 97.3848 73.2181 97.3849 79.0688 95.8407C86.8802 93.7857 93.2358 87.3256 94.1046 76.0613C94.2259 74.4891 94.2259 23.4506 94.1007 21.8465C93.1771 9.84804 85.9331 2.93304 76.3881 1.53248C74.2004 1.20927 73.7621 1.11351 62.5381 1.09356C22.7259 1.11351 13.9988 -0.694047 6.14432 7.60954Z" fill="url(#paint0_linear)"/>
<path d="M47.3909 14.0191C33.2521 14.0191 19.8259 12.7454 14.6976 26.0739C12.5793 31.5788 12.8869 38.7281 12.8869 48.965C12.8869 57.948 12.6027 66.3907 14.6976 71.8522C19.8142 85.1886 33.3494 83.9109 47.3831 83.9109C60.9222 83.9109 74.8819 85.3384 80.0725 71.8522C82.1947 66.2921 81.8831 59.2493 81.8831 48.965C81.8831 35.3131 82.6269 26.4998 76.089 19.8828C69.4694 13.1791 60.5173 14.0191 47.3753 14.0191H47.3909ZM44.2991 20.3166C73.7916 20.2693 77.5453 16.949 75.4738 63.0743C74.7378 79.3879 62.472 77.5976 47.3948 77.5976C19.9037 77.5976 19.1133 76.8011 19.1133 48.9492C19.1133 20.774 21.2939 20.3324 44.2991 20.3087V20.3166ZM65.8091 26.1173C63.5233 26.1173 61.6698 27.9943 61.6698 30.309C61.6698 32.6238 63.5233 34.5008 65.8091 34.5008C68.0948 34.5008 69.9483 32.6238 69.9483 30.309C69.9483 27.9943 68.0948 26.1173 65.8091 26.1173ZM47.3909 31.0188C37.6055 31.0188 29.6736 39.0554 29.6736 48.965C29.6736 58.8746 37.6055 66.9072 47.3909 66.9072C57.1763 66.9072 65.1043 58.8746 65.1043 48.965C65.1043 39.0554 57.1763 31.0188 47.3909 31.0188ZM47.3909 37.3164C62.5966 37.3164 62.6161 60.6137 47.3909 60.6137C32.189 60.6137 32.1657 37.3164 47.3909 37.3164Z" fill="white"/>
<defs>
<linearGradient id="paint0_linear" x1="6.32442" y1="90.7416" x2="95.0637" y2="15.4145" gradientUnits="userSpaceOnUse">
<stop stop-color="#FFDD55"/>
<stop offset="0.5" stop-color="#FF543E"/>
<stop offset="1" stop-color="#C837AB"/>
</linearGradient>
</defs>
</svg>