<svg width="99" height="99" viewBox="0 0 99 99" fill="none" xmlns="http://www.w3.org/2000/svg">
<path d="M81.2925 97.3051C60.1189 99.565 38.8811 99.565 17.7075 97.3051C9.26463 96.404 2.596 89.7354 1.69492 81.2918C-0.564972 60.1181 -0.564972 38.8811 1.69492 17.7075C2.596 9.26463 9.26463 2.596 17.7075 1.69492C38.8811 -0.564972 60.1181 -0.564972 81.2918 1.69492C89.7354 2.596 96.404 9.26463 97.3051 17.7075C99.565 38.8811 99.565 60.1181 97.3051 81.2918C96.404 89.7354 89.7361 96.404 81.2925 97.3051Z" fill="url(#paint0_linear)"/>
<path d="M80.1828 30.4287C77.9924 31.5745 74.6932 32.104 73.5995 32.2566C73.5905 32.2037 73.5814 32.1531 73.5724 32.1025C77.2907 29.8026 78.429 25.4724 78.429 25.4724C76.1261 26.7889 74.0965 27.5193 72.5678 27.9241C71.7082 28.1545 71.0066 28.2791 70.502 28.3486C68.1847 25.9724 64.949 24.498 61.3673 24.498C54.3203 24.498 48.6063 30.2105 48.6063 37.2598C48.6063 37.5135 48.6131 37.7658 48.6297 38.0158C48.6637 38.6269 48.7415 39.2273 48.8616 39.8112C45.4506 39.7606 33.1383 38.7145 22.9356 26.8629C22.9356 26.8629 17.2542 36.7756 26.8058 43.547C26.8058 43.547 22.9356 43.4261 20.8812 41.9752C20.8812 41.9752 20.2769 51.5268 31.278 54.548C31.278 54.548 27.4101 55.5164 25.4742 54.6697C25.4742 54.6697 27.4093 62.8904 37.0811 63.4962C37.0811 63.4962 30.1443 69.8468 18.8169 68.9329C24.3881 72.4602 30.9933 74.5018 38.075 74.5018C57.9873 74.5018 74.1298 58.3601 74.1298 38.4479C74.1298 38.1994 74.1275 37.9509 74.1222 37.7024C74.1275 37.5551 74.1298 37.4086 74.1298 37.2598C74.1298 37.1563 74.1275 37.0528 74.126 36.9493C77.8074 34.4961 80.1828 30.4287 80.1828 30.4287Z" fill="white"/>
<defs>
<linearGradient id="paint0_linear" x1="32.8699" y1="13.9192" x2="57.9099" y2="67.493" gradientUnits="userSpaceOnUse">
<stop stop-color="#00C3FF"/>
<stop offset="1" stop-color="#00B0ED"/>
</linearGradient>
</defs>
</svg>