<svg width="102" height="94" viewBox="0 0 102 94" fill="none" xmlns="http://www.w3.org/2000/svg">
<path d="M99.8985 14.5611C98.7226 8.86748 95.2775 4.37949 90.9087 2.84631C82.9268 0 50.999 0 50.999 0C50.999 0 19.072 0 11.0901 2.73782C6.80532 4.26998 3.2762 8.86849 2.10035 14.5611C0 24.9608 0 46.5287 0 46.5287C0 46.5287 0 68.2051 2.10035 78.4962C3.27698 84.1888 6.72127 88.6778 11.0908 90.211C19.156 93.0573 50.9998 93.0573 50.9998 93.0573C50.9998 93.0573 82.9268 93.0573 90.9087 90.3195C95.2783 88.7874 98.7226 84.2983 99.8992 78.6057C102 68.2051 102 46.6382 102 46.6382C102 46.6382 102.084 24.9608 99.8985 14.5611Z" fill="#FF0000"/>
<path d="M40.5468 64.1571L72.8573 46.5283L40.5468 28.8994V64.1571Z" fill="white"/>
</svg>